<svg id="Capa_1" data-name="Capa 1" xmlns="http://www.w3.org/2000/svg" viewBox="0 0 294.03 353.1"><defs><style>.cls-1{fill-rule:evenodd;}</style></defs><path class="cls-1" d="M434,240.87a41.37,41.37,0,1,0,16,56.28,41.36,41.36,0,0,0-16-56.28m23.14,158.69a45.59,45.59,0,0,0,18.19-18L529,285.46c7.53-13.51,6-22.95,2.15-36.52l-25.88-91-2.13-7.52c-3.27-11.5-17.88-19.65-29.39-16.38l-98.06,27.87c-13.93,4-22.92,7.71-30.43,21.18l-53.59,96.14a45.68,45.68,0,0,0-5.7,24.92c1,14.8,9.66,24.82,21.27,29.54,33.76,13.72,43.18-23.43,77.4-4.35,36.51,20.35,4.66,53.43,42.23,71.27C435.86,404.86,446.51,405.18,457.17,399.56Z" transform="translate(-240.27 -133.28)"/><path class="cls-1" d="M376.45,344.17h0A33.37,33.37,0,0,0,331.2,357l-36,64.59A33.26,33.26,0,0,0,353.3,454l36-64.59a33.38,33.38,0,0,0-12.86-45.25" transform="translate(-240.27 -133.28)"/><path class="cls-1" d="M292,341.86h0a27.6,27.6,0,0,0-37.42,10.63L243.73,372a27.59,27.59,0,0,0,10.63,37.42h0a27.6,27.6,0,0,0,37.42-10.63l10.86-19.48A27.59,27.59,0,0,0,292,341.86m131.92,73.53h0A27.59,27.59,0,0,0,386.5,426L375.64,445.5a27.6,27.6,0,0,0,10.64,37.42h0a27.59,27.59,0,0,0,37.42-10.64l10.85-19.47A27.59,27.59,0,0,0,423.92,415.39Z" transform="translate(-240.27 -133.28)"/></svg>