<?xml version="1.0" standalone="no"?>
<!DOCTYPE svg PUBLIC "-//W3C//DTD SVG 1.1//EN" "http://www.w3.org/Graphics/SVG/1.1/DTD/svg11.dtd" >
<svg xmlns="http://www.w3.org/2000/svg" xmlns:xlink="http://www.w3.org/1999/xlink" version="1.1">
<metadata>
Created by FontForge 20170731 at Thu Apr 20 08:21:00 2023
 By Aleksey,,,
Copyright (c) 2006 by Double Alex Font Studio. All rights reserved.
</metadata>
<defs>
<font id="Didot-Bold" horiz-adv-x="724" >
  <font-face 
    font-family="Didot"
    font-weight="700"
    font-stretch="normal"
    units-per-em="2048"
    panose-1="2 0 8 3 9 0 0 2 0 3"
    ascent="1434"
    descent="-614"
    x-height="872"
    cap-height="1366"
    bbox="-213 -649 2339 2150"
    underline-thickness="102"
    underline-position="-307"
    unicode-range="U+0020-FB04"
  />
<missing-glyph horiz-adv-x="358" 
 />
    <glyph glyph-name="f_b" unicode="fb" horiz-adv-x="1763" 
d="M641 1489q-178 0 -178 -242v-375h192v-24h-192v-823h110v-25h-475v25h129v823h-157v24h157v41q0 171 37.5 297.5t104.5 190.5q125 117 286 117q124 0 189 -56l172 56l12 -7v-704q78 84 199 84q182 0 313 -143q133 -142 133 -318t-119 -313q-117 -135 -297 -135
q-108 0 -223 86q-75 57 -135 57q-32 0 -57 -36.5t-25 -88.5h-24v1229q0 120 -44 190t-108 70zM1425 430q0 328 -71 393q-46 43 -127 43q-64 0 -122.5 -32t-76.5 -82v-609q28 -63 93 -100t136 -37q119 0 148 168q12 64 16 129q4 70 4 127z" />
    <glyph glyph-name="f_h" unicode="fh" horiz-adv-x="1781" 
d="M641 1489q-178 0 -178 -242v-375h192v-24h-192v-823h110v-25h-475v25h129v823h-157v24h157v41q0 171 37.5 297.5t104.5 190.5q125 117 286 117q124 0 189 -56l172 56l12 -7v-780q25 77 91 118.5t149 41.5q166 0 260 -90.5t94 -251.5v-524h131v-25h-493v25h126v630
q0 209 -118 209q-92 0 -148.5 -48t-91.5 -154v-637h127v-25h-489v25h127v1204q0 120 -44 190t-108 70z" />
    <glyph glyph-name="f_j" unicode="fj" horiz-adv-x="1191" 
d="M793 -377v1225h-330v-823h125v-25h-490v25h129v823h-157v24h157v48q0 604 496 604q151 0 235 -78q82 -76 82 -170q0 -52 -33.5 -89.5t-86.5 -37.5q-56 0 -87.5 26t-31.5 68q0 18 16.5 56.5t16.5 64.5q0 73 -33.5 102t-120.5 29q-96 0 -156.5 -62t-60.5 -180v-381h563
v-921q0 -308 -100.5 -453t-284.5 -145q-77 0 -137 51q-62 53 -62 123q0 43 32.5 77t76.5 34q50 0 78 -23t28 -61q0 -15 -16 -50.5t-16 -58.5q0 -37 12 -50t47 -13q109 0 109 241z" />
    <glyph glyph-name="f_k" unicode="fk" horiz-adv-x="1718" 
d="M641 1489q-178 0 -178 -242v-375h192v-24h-192v-823h110v-25h-475v25h129v823h-157v24h157v41q0 171 37.5 297.5t104.5 190.5q125 117 286 117q124 0 189 -56l172 56l12 -7v-1030l311 281q71 80 27 86h-78v24h326v-24h-86q-70 0 -160 -84l-182 -166l450 -573h138v-25
h-519v25h123l-350 444v-444h127v-25h-489v25h127v1204q0 120 -44 190t-108 70z" />
    <glyph glyph-name="f_f_b" unicode="ffb" horiz-adv-x="2328" 
d="M1206 1487q-178 0 -178 -240v-375h193v-24h-193v-823h111v-25h-475v25h129v823h-330v-823h133v-25h-498v25h129v823h-157v24h157v82q0 562 355 562q77 0 147 -52q72 -54 72 -123q0 -43 -31.5 -75.5t-75.5 -32.5q-106 0 -106 78q0 15 15 52t15 60q0 74 -57 74
q-98 0 -98 -258v-367h330v41q0 171 37 297.5t104 188.5q125 117 287 117q123 0 188 -56l170 56l14 -7v-702q78 84 199 84q182 0 313 -143q133 -142 133 -318q0 -177 -118 -313q-117 -135 -297 -135q-109 0 -224 86q-75 57 -135 57q-32 0 -57 -36.5t-25 -88.5h-24v1227
q0 120 -44 190t-108 70zM1991 430q0 327 -72 393q-46 43 -127 43q-64 0 -122.5 -32t-76.5 -82v-609q28 -63 93.5 -100t136.5 -37q118 0 147 168q14 72 17 129q4 70 4 127z" />
    <glyph glyph-name="f_f_h" unicode="ffh" horiz-adv-x="2347" 
d="M1206 1487q-178 0 -178 -240v-375h193v-24h-193v-823h111v-25h-475v25h129v823h-330v-823h133v-25h-498v25h129v823h-157v24h157v82q0 562 355 562q77 0 147 -52q72 -54 72 -123q0 -43 -31.5 -75.5t-75.5 -32.5q-106 0 -106 78q0 15 15 52t15 60q0 74 -57 74
q-98 0 -98 -258v-367h330v41q0 171 37 297.5t104 188.5q125 117 287 117q123 0 188 -56l172 56l12 -7v-778q25 77 91 118.5t149 41.5q166 0 260 -90.5t94 -251.5v-524h131v-25h-493v25h127v630q0 209 -119 209q-92 0 -148.5 -48t-91.5 -154v-637h127v-25h-489v25h127v1202
q0 120 -44 190t-108 70z" />
    <glyph glyph-name="f_f_j" unicode="ffj" horiz-adv-x="1755" 
d="M1358 -377v1225h-330v-823h125v-25h-489v25h129v823h-330v-823h133v-25h-498v25h129v823h-157v24h157v82q0 562 355 562q77 0 147 -52q72 -54 72 -123q0 -43 -31.5 -75.5t-75.5 -32.5q-106 0 -106 78q0 15 15 52t15 60q0 74 -57 74q-98 0 -98 -258v-367h330v48
q0 604 495 604q152 0 236 -78q82 -76 82 -170q0 -52 -34 -89.5t-87 -37.5q-56 0 -87.5 26t-31.5 68q0 18 16.5 56.5t16.5 64.5q0 73 -33.5 102t-120.5 29q-96 0 -156.5 -62t-60.5 -180v-381h563v-921q0 -308 -100.5 -453t-284.5 -145q-77 0 -137 51q-61 52 -61 123
q0 43 32 77t76 34q50 0 78.5 -23t28.5 -61q0 -15 -16.5 -50.5t-16.5 -58.5q0 -37 12 -50t47 -13q109 0 109 241z" />
    <glyph glyph-name="f_f_k" unicode="ffk" horiz-adv-x="2283" 
d="M1206 1487q-178 0 -178 -240v-375h193v-24h-193v-823h111v-25h-475v25h129v823h-330v-823h133v-25h-498v25h129v823h-157v24h157v82q0 562 355 562q77 0 147 -52q72 -54 72 -123q0 -43 -31.5 -75.5t-75.5 -32.5q-106 0 -106 78q0 15 15 52t15 60q0 74 -57 74
q-98 0 -98 -258v-367h330v41q0 171 37 297.5t104 188.5q125 117 287 117q123 0 188 -56l172 56l12 -7v-1028l312 281q71 80 26 86h-78v24h326v-24h-86q-70 0 -160 -84l-182 -166l451 -573h137v-25h-518v25h123l-351 444v-444h127v-25h-489v25h127v1202q0 120 -44 190
t-108 70z" />
    <glyph glyph-name="f_f" unicode="ff" horiz-adv-x="1255" 
d="M801 1341q0 -43 -31.5 -75.5t-75.5 -32.5q-106 0 -106 78q0 15 15 52t15 60q0 74 -57 74q-98 0 -98 -258v-367h330v82q0 562 354 562q77 0 147 -52q72 -54 72 -123q0 -43 -31 -75.5t-75 -32.5q-107 0 -107 78q0 15 15.5 52t15.5 60q0 74 -58 74q-98 0 -98 -258v-367h193
v-24h-193v-823h133v-25h-497v25h129v823h-330v-823h133v-25h-498v25h129v823h-157v24h157v82q0 562 355 562q77 0 147 -52q72 -54 72 -123z" />
    <glyph glyph-name="fi" unicode="fi" horiz-adv-x="1191" 
d="M1153 25v-25h-487v25h127v823h-330v-823h125v-25h-490v25h129v823h-157v24h157v41q0 605 496 605q139 0 229 -78q88 -76 88 -170q0 -52 -33.5 -89.5t-86.5 -37.5q-56 0 -87.5 26t-31.5 68q0 18 21.5 64.5t21.5 72.5q0 115 -164 115q-96 0 -156.5 -62t-60.5 -180v-375h563
v-847h127z" />
    <glyph glyph-name="fl" unicode="fl" horiz-adv-x="1191" 
d="M641 1489q-178 0 -178 -242v-375h192v-24h-192v-823h110v-25h-475v25h129v823h-157v24h157v41q0 171 37.5 297.5t104.5 190.5q125 117 286 117q124 0 189 -56l172 56l12 -7v-1486h127v-25h-489v25h127v1204q0 120 -44 190t-108 70z" />
    <glyph glyph-name="f_f_i" unicode="ffi" horiz-adv-x="1757" 
d="M1718 25v-25h-487v25h127v823h-330v-823h125v-25h-489v25h129v823h-330v-823h133v-25h-498v25h129v823h-157v24h157v82q0 562 355 562q77 0 147 -52q72 -54 72 -123q0 -43 -31.5 -75.5t-75.5 -32.5q-106 0 -106 78q0 15 15 52t15 60q0 74 -57 74q-98 0 -98 -258v-367h330
v39q0 605 495 605q140 0 230 -78q88 -76 88 -170q0 -52 -34 -89.5t-87 -37.5q-56 0 -87.5 26t-31.5 68q0 18 21.5 64.5t21.5 72.5q0 115 -164 115q-96 0 -156.5 -62t-60.5 -180v-373h563v-847h127z" />
    <glyph glyph-name="f_f_l" unicode="ffl" horiz-adv-x="1757" 
d="M1206 1489q-178 0 -178 -242v-375h193v-24h-193v-823h111v-25h-475v25h129v823h-330v-823h133v-25h-498v25h129v823h-157v24h157v82q0 564 355 564q77 0 147 -52q72 -54 72 -123q0 -43 -31.5 -75.5t-75.5 -32.5q-106 0 -106 78q0 15 15 52t15 60q0 74 -57 74
q-98 0 -98 -260v-367h330v41q0 171 37 297.5t104 190.5q125 117 287 117q123 0 188 -56l172 56l12 -7v-1486h127v-25h-489v25h127v1204q0 120 -44 190t-108 70z" />
    <glyph glyph-name=".notdef" horiz-adv-x="358" 
 />
    <glyph glyph-name=".null" horiz-adv-x="0" 
 />
    <glyph glyph-name="nonmarkingreturn" horiz-adv-x="682" 
 />
    <glyph glyph-name="space" unicode=" " horiz-adv-x="358" 
 />
    <glyph glyph-name="exclam" unicode="!" horiz-adv-x="487" 
d="M379 1239q0 -64 -62 -383q-61 -314 -61 -508h-25q0 194 -61 508t-61 383q0 82 37 121t98 39t98 -39t37 -121zM379 109q0 -61 -38.5 -101.5t-98.5 -40.5q-54 0 -91.5 41t-37.5 101q0 54 37.5 91.5t91.5 37.5q60 0 98.5 -36.5t38.5 -92.5z" />
    <glyph glyph-name="quotedbl" unicode="&#x22;" horiz-adv-x="645" 
d="M246 1296q0 -44 -29 -176q-27 -124 -33 -180l-2 -20h-24l-2 20q-4 42 -35 182q-29 132 -29 174q0 43 19 73t57 30q39 0 58.5 -30.5t19.5 -72.5zM512 1296q0 -44 -29 -176q-25 -116 -32 -180l-2 -20h-25l-2 20q-4 42 -35 182q-29 132 -29 174q0 43 19 73t57 30
q39 0 58.5 -30.5t19.5 -72.5z" />
    <glyph glyph-name="numbersign" unicode="#" horiz-adv-x="962" 
d="M158 168h-27l88 283h-213l31 145h227l68 207h-215l33 145h227l84 266h26l-84 -266h250l86 266h27l-84 -266h221l-33 -145h-233l-68 -207h222l-33 -145h-232l-90 -283h-26l90 283h-254zM360 803l-69 -207h250l69 207h-250z" />
    <glyph glyph-name="dollar" unicode="$" horiz-adv-x="1138" 
d="M616 1395v166h25v-170q115 -20 207 -103q90 -81 90 -176q0 -55 -35 -92t-80 -37q-44 0 -75 33t-31 80t33 73q32 25 32 60q0 46 -40 88.5t-101 54.5v-561q175 -63 256.5 -149t81.5 -222q0 -167 -94 -295q-94 -126 -244 -163v-177h-25v170q-52 -8 -88 -8q-37 0 -65 4v-166
h-25v170q-131 23 -239 111q-103 89 -103 193q0 59 35 96t82 37q48 0 80.5 -33t32.5 -82q0 -46 -37 -76q-35 -30 -35 -63q0 -49 54 -98t130 -62v608q-315 119 -315 357q0 163 86.5 276.5t228.5 146.5v175h25v-170q33 8 88 8q37 0 65 -4zM616 0v539q-13 5 -63.5 24.5
t-89.5 34.5v-604q54 -4 63 -4q32 0 90 10zM463 1372v-491q80 -37 153 -62v557q-24 6 -63 6q-38 0 -90 -10zM840 221q0 216 -199 307v-522q88 25 143.5 83.5t55.5 131.5zM268 1149q0 -88 39 -147.5t131 -108.5v475q-170 -50 -170 -219z" />
    <glyph glyph-name="percent" unicode="%" horiz-adv-x="1423" 
d="M743 1042q0 -138 -94 -239q-94 -98 -229 -98q-131 0 -225 98q-93 104 -93 239q0 139 93 240q93 100 225 100q136 0 229 -100q94 -98 94 -240zM557 1042q0 184 -29.5 251t-107.5 67q-74 0 -103.5 -68.5t-29.5 -249.5q0 -83 6.5 -141.5t17 -92t28.5 -52t36 -24t45 -5.5
q76 0 106 59q31 64 31 256zM1321 322q0 -139 -94 -240q-94 -98 -230 -98q-131 0 -225 98q-92 103 -92 240q0 139 92 239q94 101 225 101q136 0 230 -101q94 -98 94 -239zM1135 322q0 183 -29.5 250t-108.5 67q-74 0 -103.5 -68t-29.5 -249q0 -83 6.5 -141.5t17 -92
t28.5 -52.5t36 -24.5t45 -5.5q76 0 107 60q31 64 31 256zM1110 1419l35 -20l-830 -1446l-30 22z" />
    <glyph glyph-name="ampersand" unicode="&#x26;" horiz-adv-x="1509" 
d="M1348 766v-25h-82q-38 0 -55.5 -6.5t-24.5 -25.5q-4 -22 -6 -27q-4 -18 -9 -86q-27 -242 -104 -375l45 -67q39 -58 67.5 -80.5t65.5 -22.5q82 0 119 88l18 -14q-32 -70 -114.5 -113t-177.5 -43q-112 0 -232 99q-162 -101 -330 -101q-195 0 -321 111q-123 111 -123 287
q0 282 326 485q-35 116 -35 186q0 162 79.5 262.5t202.5 100.5q207 0 207 -176q0 -82 -48 -158t-142 -125q86 -269 377 -694q67 122 94 350q16 80 0.5 112.5t-76.5 32.5h-76v25h355zM836 1223q0 61 -33.5 102t-81.5 41q-55 0 -79 -40.5t-24 -129.5q0 -75 48 -233
q170 95 170 260zM840 90q-33 33 -95 127q-257 405 -327 614q-121 -103 -121 -301q0 -112 43 -213q47 -106 153 -176.5t242 -70.5q61 0 105 20z" />
    <glyph glyph-name="quotesingle" unicode="'" horiz-adv-x="356" 
d="M246 1296q0 -44 -29 -176q-27 -124 -33 -180l-2 -20h-24l-2 20q-4 42 -35 182q-29 132 -29 174q0 43 19 73t57 30q39 0 58.5 -30.5t19.5 -72.5z" />
    <glyph glyph-name="parenleft" unicode="(" horiz-adv-x="589" 
d="M618 -475l-28 -25q-224 162 -345.5 422.5t-121.5 583.5t121.5 583t345.5 422l28 -24q-89 -62 -145 -154q-57 -98 -91 -307.5t-34 -519.5q0 -321 35 -529q38 -208 90 -299q55 -90 145 -153z" />
    <glyph glyph-name="parenright" unicode=")" horiz-adv-x="589" 
d="M-4 -500l-29 25q93 65 144 153q58 97 92.5 306.5t34.5 521.5q0 327 -37 530q-35 206 -90 297q-51 90 -144 154l29 24q224 -162 345.5 -422t121.5 -583t-121.5 -583.5t-345.5 -422.5z" />
    <glyph glyph-name="asterisk" unicode="*" horiz-adv-x="608" 
d="M285 1171l10 -6v11q0 48 -22.5 98t-22.5 57q0 24 17 42t42 18q26 0 43 -18t17 -42q0 -7 -22.5 -57t-22.5 -98v-11l10 6q31 18 53.5 43.5t36 46t22.5 25.5q18 13 43 7.5t37 -27.5q12 -25 5.5 -47.5t-27.5 -34.5q-22 -11 -62 -8q-45 3 -94 -29l-12 -8l12 -4
q41 -20 94 -26.5t62 -12.5q50 -26 22 -80q-12 -23 -37 -29.5t-43 6.5q-9 5 -22.5 26t-36 47t-53.5 44l-10 4v-10q0 -47 22.5 -97t22.5 -59q0 -24 -17 -41.5t-43 -17.5t-42.5 17.5t-16.5 41.5q0 9 22.5 59t22.5 97v10l-10 -4q-31 -18 -53.5 -44t-35.5 -47t-22 -26
q-53 -27 -82 23q-11 25 -4.5 46.5t27.5 33.5q9 5 34 6t58 7.5t63 25.5l13 6l-15 8q-43 22 -94 27t-59 10q-21 12 -27.5 33.5t4.5 46.5q30 49 82 22q8 -5 21 -26t36 -47t54 -44z" />
    <glyph glyph-name="plus" unicode="+" horiz-adv-x="1228" 
d="M1122 555v-111h-450v-444h-123v444h-449v111h449v442h123v-442h450z" />
    <glyph glyph-name="comma" unicode="," horiz-adv-x="452" 
d="M76 -313l-6 30q50 9 98 66q49 55 49 102q0 73 -76 125q-49 37 -49 101q0 51 38.5 89t92.5 38q133 0 133 -158q0 -107 -82 -232q-83 -127 -198 -161z" />
    <glyph glyph-name="hyphen" unicode="-" horiz-adv-x="651" 
d="M82 561h487v-145h-487v145z" />
    <glyph glyph-name="period" unicode="." horiz-adv-x="452" 
d="M358 109q0 -61 -38.5 -101.5t-98.5 -40.5q-54 0 -91.5 41t-37.5 101q0 54 37.5 91.5t91.5 37.5q60 0 98.5 -36.5t38.5 -92.5z" />
    <glyph glyph-name="slash" unicode="/" horiz-adv-x="696" 
d="M643 1382l-553 -1415l-35 17l551 1415z" />
    <glyph glyph-name="zero" unicode="0" horiz-adv-x="1024" 
d="M965 684q0 -313 -148 -508q-144 -194 -330 -194q-180 0 -305 192q-127 195 -127 510q0 314 135 508q138 194 318 194q181 0 319 -194t138 -508zM733 684q-2 279 -22.5 420.5t-66.5 199t-136 62.5q-130 0 -176 -141q-45 -136 -45 -541q2 -153 5.5 -254.5t13.5 -180.5
t23 -123t36.5 -72.5t51 -38.5t70.5 -13q87 0 136 49q110 110 110 633z" />
    <glyph glyph-name="one" unicode="1" horiz-adv-x="1024" 
d="M784 25v-25h-508v25h144v1316h-144v25h365v-1341h143z" />
    <glyph glyph-name="two" unicode="2" horiz-adv-x="1024" 
d="M473 1368q-62 0 -106.5 -38.5t-44.5 -98.5q0 -12 8 -46t8 -42q0 -28 -27.5 -51t-68.5 -23t-68 29.5t-27 66.5q0 74 101 144q101 73 225 73q164 0 285 -86q123 -83 123 -262q0 -68 -37 -146t-88 -140q-77 -87 -146 -160q-77 -82 -153 -170l-215 -252v-8h426
q91 0 131.5 36.5t40.5 120.5h14v-315h-723v70l301 354q143 187 184 307q41 121 41 322q0 167 -43.5 241t-140.5 74z" />
    <glyph glyph-name="three" unicode="3" horiz-adv-x="1024" 
d="M887 399q0 -185 -146 -301q-141 -112 -319 -112q-133 0 -225 69q-95 71 -95 148q0 43 24 69.5t71 26.5q45 0 69.5 -21.5t24.5 -52.5q0 -11 -7.5 -41t-7.5 -43q0 -65 41 -100t105 -35q54 1 87.5 8.5t63 29t45.5 64t25.5 109t11.5 166.5q-1 68 -2.5 113t-6 86t-9 64.5
t-14.5 44.5t-20.5 30.5t-29.5 17t-37.5 9.5t-48.5 4q-41 0 -157 -70l-13 18q121 65 166 107q48 45 69 116t21 203q0 136 -28 185t-103 49q-51 0 -87 -35t-36 -86q0 -13 9.5 -42t9.5 -40q0 -33 -24.5 -55.5t-71.5 -22.5q-45 0 -68.5 27.5t-23.5 71.5q0 60 90 129t202 69
q165 0 262 -68.5t97 -199.5q0 -108 -117 -213q-115 -103 -201 -125q36 4 45 4q169 -6 263 -117q96 -110 96 -258z" />
    <glyph glyph-name="four" unicode="4" horiz-adv-x="1024" 
d="M913 25v-25h-507v25h143v434h-463l-2 10q95 147 133 223l324 672q58 -18 164 35q100 50 147 100l29 -22l-762 -996h430v215q58 6 121 66q63 63 80 112h20v-393h205v-22h-205v-434h143z" />
    <glyph glyph-name="five" unicode="5" horiz-adv-x="1024" 
d="M434 -20q-135 0 -229 67q-94 70 -94 150q0 40 24 68t66 28q47 0 73.5 -21.5t26.5 -52.5q0 -11 -8 -41t-8 -43q0 -66 40.5 -100.5t108.5 -34.5q122 0 162 82q43 82 43 332q0 115 -5.5 177.5t-21.5 115.5q-13 56 -45.5 80t-87.5 24q-149 0 -176 -129v-66q0 -18 -18 -18
q-17 0 -17 20q0 5 3 31t3 31v661h5q51 -45 167 -45q91 0 164 52q71 51 103 51q90 0 90 -78q0 -66 -63.5 -105.5t-166.5 -39.5q-83 0 -164.5 30t-111.5 78v-555q21 45 83 80t144 35q174 0 256 -119q86 -118 86 -293q0 -208 -133 -332q-132 -120 -299 -120z" />
    <glyph glyph-name="six" unicode="6" horiz-adv-x="1024" 
d="M526 -16q-190 0 -305 159.5t-115 444.5q0 199 60 379q57 173 174 290q115 115 258 115q109 0 186 -65q78 -66 78 -127q0 -45 -22.5 -74t-67.5 -29q-48 0 -76 24t-28 58q0 11 13 48t13 48q0 56 -21 78.5t-75 22.5q-247 0 -262 -674q76 88 203 88q166 0 280 -117
q113 -113 113 -276t-119 -279q-117 -114 -287 -114zM526 4q74 0 115 35q66 66 66 338t-66 338q-38 35 -115 35q-76 0 -133 -45q-55 -46 -55 -84v-252v-80q7 -115 24 -160q21 -56 61.5 -93t102.5 -32z" />
    <glyph glyph-name="seven" unicode="7" horiz-adv-x="1024" 
d="M489 0h-239l598 1198h-424q-94 0 -137 -38t-43 -124h-19v330h713q-1 -1 -7 -16.5t-20 -50t-30 -72.5q-59 -149 -78 -211z" />
    <glyph glyph-name="eight" unicode="8" horiz-adv-x="1024" 
d="M928 385q0 -171 -113 -287q-111 -114 -311 -114q-167 0 -291 92q-121 95 -121 264q0 231 285 348q-113 85 -168 162.5t-55 177.5q0 126 90 236q88 110 260 110q151 0 258 -84q104 -82 104 -205q0 -97 -59.5 -163.5t-192.5 -122.5q79 -50 150 -107q56 -45 110 -129
q54 -85 54 -178zM705 1049q0 307 -201 307q-94 0 -138 -57.5t-44 -155.5q-10 -87 61 -176q7 -10 26 -27t41.5 -34.5t26.5 -20.5q3 -2 60 -39q43 -25 59 -37q60 29 84.5 84t24.5 156zM770 258q0 122 -86 205q-52 52 -82 72q-29 21 -108 73q-83 55 -107 72q-69 -63 -94 -131
q-23 -71 -23 -197q0 -170 60.5 -259t173.5 -89q125 0 195.5 63.5t70.5 190.5z" />
    <glyph glyph-name="nine" unicode="9" horiz-adv-x="1024" 
d="M434 -16q-130 0 -205 63t-75 129q0 44 24.5 75.5t69.5 31.5q48 0 74 -24.5t26 -61.5q0 -11 -13 -47.5t-13 -49.5q0 -100 112 -100q72 0 124.5 51.5t78.5 145.5q50 165 59 467q-77 -89 -202 -89q-192 0 -297 117t-105 287q0 157 121 278q122 119 293 119q190 0 305 -161.5
t115 -446.5q0 -198 -60 -381q-58 -176 -174 -291q-112 -112 -258 -112zM506 596q77 0 131 45q57 45 57 84v262q0 90 -2 117q0 31 -10 96q-14 80 -52 114.5t-124 41.5q-74 0 -115 -35q-74 -74 -74 -342q0 -274 74 -348q38 -35 115 -35z" />
    <glyph glyph-name="colon" unicode=":" horiz-adv-x="452" 
d="M358 109q0 -61 -38.5 -101.5t-98.5 -40.5q-54 0 -91.5 41t-37.5 101q0 54 37.5 91.5t91.5 37.5q60 0 98.5 -36.5t38.5 -92.5zM358 764q0 -60 -38.5 -100.5t-98.5 -40.5q-54 0 -91.5 40.5t-37.5 100.5q0 54 37.5 91.5t91.5 37.5q60 0 98.5 -36.5t38.5 -92.5z" />
    <glyph glyph-name="semicolon" unicode=";" horiz-adv-x="452" 
d="M76 -313l-6 30q50 9 98 66q49 55 49 102q0 73 -76 125q-49 37 -49 101q0 51 38.5 89t92.5 38q133 0 133 -158q0 -107 -82 -232q-83 -127 -198 -161zM358 764q0 -60 -38.5 -100.5t-98.5 -40.5q-54 0 -91.5 40.5t-37.5 100.5q0 54 37.5 91.5t91.5 37.5q60 0 98.5 -36.5
t38.5 -92.5z" />
    <glyph glyph-name="less" unicode="&#x3c;" horiz-adv-x="1228" 
d="M1124 152v-123l-1022 407v121l1022 410v-123l-878 -348z" />
    <glyph glyph-name="equal" unicode="=" horiz-adv-x="1228" 
d="M1124 743v-110h-1024v110h1024zM1124 360v-110h-1024v110h1024z" />
    <glyph glyph-name="greater" unicode="&#x3e;" horiz-adv-x="1228" 
d="M1124 557v-121l-1022 -407v123l877 344l-877 348v123z" />
    <glyph glyph-name="question" unicode="?" horiz-adv-x="899" 
d="M332 348h-23v326h2q35 -68 146 -68q54 0 82 31q21 24 24 84q6 61 6 276q0 155 -13.5 227.5t-49.5 110.5q-39 39 -127 39q-73 0 -116.5 -46t-43.5 -122q0 -30 16.5 -76.5t16.5 -66.5q0 -44 -33.5 -73t-89.5 -29q-123 0 -123 124q0 101 121 207q119 107 252 107
q191 0 313 -113q123 -111 123 -289q0 -174 -106 -295q-108 -120 -252 -120q-79 0 -125 30v-264zM459 109q0 -61 -38.5 -101.5t-98.5 -40.5q-54 0 -91.5 41t-37.5 101q0 54 37.5 91.5t91.5 37.5q60 0 98.5 -36.5t38.5 -92.5z" />
    <glyph glyph-name="at" unicode="@" horiz-adv-x="1603" 
d="M1438 778q0 -209 -129 -323q-127 -115 -281 -115q-103 0 -157 58.5t-33 138.5q-77 -197 -189 -197q-95 0 -143.5 67.5t-48.5 176.5q0 158 123 299q122 143 284 143q83 0 86 -86l21 70h162l-93 -308q-55 -185 -55 -256q0 -40 18 -55.5t58 -15.5q141 0 246 117
q106 115 106 286q0 278 -168 436q-171 160 -414 160q-267 0 -460 -205q-195 -204 -195 -487q0 -278 195 -485q196 -205 460 -205q237 0 412 153l17 -18q-189 -160 -429 -160q-279 0 -479 209q-200 212 -200 506q0 297 200 506q199 211 479 211q263 0 435 -166t172 -455z
M864 657l70 238q3 104 -78 104q-34 0 -74 -34q-74 -57 -125 -207q-47 -146 -47 -258q0 -68 13 -98.5t43 -30.5q62 0 118 102q60 104 80 184z" />
    <glyph glyph-name="A" unicode="A" horiz-adv-x="1236" 
d="M332 0h-373v25h117q42 0 69 79l453 1289h37l498 -1368h174v-25h-641v25h176l-137 426h-410l-125 -347q-12 -31 -15 -50t0 -24t9 -5h168v-25zM504 1053l-201 -578h389z" />
    <glyph glyph-name="B" unicode="B" horiz-adv-x="1228" 
d="M1147 362q0 -147 -115 -256q-112 -106 -321 -106h-637v25h174v1316h-174v25h549q201 0 318.5 -82t117.5 -233q0 -136 -98 -230q-95 -92 -222 -92q176 0 291 -100q117 -99 117 -267zM813 1042q0 174 -45 236q-45 63 -176 63h-72v-602h133q97 0 127 62q33 59 33 241z
M877 350q0 226 -50 297q-46 70 -192 70h-115v-692h142q129 0 172 67t43 258z" />
    <glyph glyph-name="C" unicode="C" horiz-adv-x="1249" 
d="M1145 506v-535h-21q-5 23 -27.5 40.5t-56.5 17.5q-35 0 -159 -31t-174 -31q-261 0 -439 211q-176 212 -176 504q0 293 172 504q177 213 434 213q45 0 150 -27q108 -24 147 -24q37 0 63.5 13.5t31.5 31.5h22v-465h-22q0 145 -129 295q-127 151 -263 151q-126 0 -192 -69
q-115 -124 -115 -623q0 -497 115 -621q65 -71 201 -71q163 0 290 160q127 165 127 356h21z" />
    <glyph glyph-name="D" unicode="D" horiz-adv-x="1368" 
d="M1272 682q0 -282 -178 -481q-177 -201 -424 -201h-596v25h174v1316h-174v25h596q249 0 426 -201q176 -200 176 -483zM973 682q0 481 -111 592q-64 67 -192 67h-150v-1316h150q128 0 192 67q62 65 86 193q25 138 25 397z" />
    <glyph glyph-name="E" unicode="E" horiz-adv-x="1220" 
d="M1171 451v-451h-1099v25h176v1316h-176v25h1003v-412h-24q0 151 -86 269q-81 118 -246 118h-201v-626h45q103 0 166.5 76.5t63.5 185.5h26v-549h-26q0 109 -63.5 185.5t-166.5 76.5h-45v-665h207q208 0 317 127q107 128 107 299h22z" />
    <glyph glyph-name="F" unicode="F" horiz-adv-x="1173" 
d="M1077 1366v-412h-24q0 147 -105 267q-102 120 -266 120h-162v-626h47q112 0 191 82q80 83 80 186h22v-563h-22q0 104 -82 186q-81 84 -189 84h-47v-665h178v-25h-624v25h174v1316h-174v25h1003z" />
    <glyph glyph-name="G" unicode="G" horiz-adv-x="1286" 
d="M1341 555v-25h-176v-538h-18q0 74 -76 74q-24 0 -151 -50q-125 -49 -246 -49q-263 0 -422 211q-160 213 -160 504q0 293 172 504q177 213 434 213q54 0 140 -27q88 -24 106 -24q37 0 63.5 13.5t28.5 31.5h25v-461h-25q0 153 -102 297q-103 145 -236 145q-126 0 -192 -69
q-113 -119 -113 -623q0 -271 17 -424q15 -132 71 -197q65 -71 193 -71q119 0 169 40.5t50 127.5v372h-174v25h622z" />
    <glyph glyph-name="H" unicode="H" horiz-adv-x="1454" 
d="M1380 25v-25h-604v25h156v675h-412v-675h158v-25h-604v25h174v1316h-174v25h604v-25h-158v-616h412v616h-156v25h604v-25h-174v-1316h174z" />
    <glyph glyph-name="I" unicode="I" horiz-adv-x="768" 
d="M698 25v-25h-624v25h174v1316h-174v25h624v-25h-178v-1316h178z" />
    <glyph glyph-name="J" unicode="J" horiz-adv-x="974" 
d="M948 1366v-25h-178v-1019q0 -164 -106 -259.5t-281 -95.5q-128 0 -229 82t-101 191q0 71 45 120.5t101 49.5q57 0 99 -44.5t42 -101.5q0 -63 -45 -102t-45 -68q0 -43 40.5 -73.5t92.5 -30.5q68 0 92.5 34.5t24.5 122.5v1194h-174v25h622z" />
    <glyph glyph-name="K" unicode="K" horiz-adv-x="1300" 
d="M698 0h-624v25h174v1316h-174v25h624v-25h-176v-653l475 574q64 79 29 79h-133v25h364v-25h-112q-29 0 -51.5 -13.5t-65.5 -65.5l-328 -398l574 -839h190v-25h-696v25h188l-434 651v-651h176v-25z" />
    <glyph glyph-name="L" unicode="L" horiz-adv-x="1161" 
d="M1116 467v-467h-1042v25h174v1316h-174v25h624v-25h-176v-1316h148q194 0 307 137q115 139 115 305h24z" />
    <glyph glyph-name="M" unicode="M" horiz-adv-x="1699" 
d="M455 0h-392v25h109q68 0 68 59v1257h-177v25h459l344 -960l308 960h452v-25h-174v-1316h174v-25h-622v25h174v1278l-420 -1328h-21l-473 1332v-1223q0 -59 70 -59h121v-25z" />
    <glyph glyph-name="N" unicode="N" horiz-adv-x="1355" 
d="M1159 -25h-41l-854 1344v-1235q0 -59 70 -59h106v-25h-374v25h106q68 0 68 59v1257h-177v25h488l584 -932v850q0 57 -68 57h-106v25h374v-25h-104q-72 0 -72 -57v-1309z" />
    <glyph glyph-name="O" unicode="O" horiz-adv-x="1398" 
d="M92 682q0 293 172 504q177 213 434 213q250 0 428 -211q179 -209 179 -506t-179 -506t-428 -209t-428 209q-178 208 -178 506zM1004 682q0 504 -113 623q-66 69 -193 69t-190 -69q-115 -121 -115 -623q0 -270 25 -414q27 -138 90 -207q65 -71 190 -71q128 0 193 71
q64 67 88 205q25 144 25 416z" />
    <glyph glyph-name="P" unicode="P" horiz-adv-x="1196" 
d="M1139 954q0 -177 -120 -275.5t-337 -98.5q-78 0 -160 24v-579h176v-25h-624v25h174v1316h-174v25h549q245 0 381 -115q135 -114 135 -297zM866 954q0 209 -56 298t-187 89h-101v-706q67 -31 160 -31q129 0 156 64q28 67 28 286z" />
    <glyph glyph-name="Q" unicode="Q" horiz-adv-x="1398" 
d="M1303 682q0 -172 -95 -360q-91 -186 -231 -273q-42 -28 -146 -69q-94 -39 -208 -78q-116 -41 -150 -56q165 0 275.5 -32.5t156.5 -85.5q19 -21 44.5 -58t44 -60.5t48 -48.5t71 -37.5t97.5 -12.5v-39q-384 -3 -518 139q-32 30 -58 73t-40 71.5t-44.5 49.5t-78.5 21
q-13 0 -43 -23q-24 -24 -27 -24q-36 0 -36 26q0 25 57 48l297 114h-21q-249 0 -428 209q-178 208 -178 506q0 293 172 504q177 213 434 213q251 0 426 -211q179 -209 179 -506zM1004 682q0 504 -113 623q-66 69 -193 69t-190 -69q-115 -121 -115 -623q0 -270 25 -414
q27 -138 90 -207q65 -71 190 -71q128 0 193 71q64 67 88 205q25 144 25 416z" />
    <glyph glyph-name="R" unicode="R" horiz-adv-x="1290" 
d="M1356 72l14 -17q-61 -67 -160 -67q-131 0 -231 92q-98 91 -98 282v105q0 121 -65.5 176t-201.5 55h-94v-673h156v-25h-602v25h174v1316h-174v25h583q202 0 324 -96q121 -95 121 -240q0 -133 -101 -227q-103 -92 -245 -92q198 0 301 -109q102 -108 102 -264v-168
q0 -141 103 -141q57 0 94 43zM829 1024q0 185 -45 250q-46 67 -174 67h-90v-618h94q138 0 177 57q38 55 38 244z" />
    <glyph glyph-name="S" unicode="S" horiz-adv-x="1040" 
d="M995 438q0 -185 -118 -327q-120 -144 -324 -144q-74 0 -184 39q-115 41 -140 41q-38 0 -66.5 -22t-33.5 -52h-25v463h25q0 -79 53 -182q52 -102 154 -184q103 -80 215 -80q147 0 224 66.5t77 174.5q0 75 -19.5 120t-74.5 85q-56 41 -115 68q-58 27 -186 74
q-161 60 -236.5 147t-75.5 238q0 186 107 311t254 125q60 0 125 -27q67 -24 117 -24q68 0 77 45h21v-359h-21q0 137 -94 238q-95 102 -223 102q-108 0 -171 -61t-63 -162t74.5 -169t255.5 -136q203 -76 299 -162q92 -83 92 -246z" />
    <glyph glyph-name="T" unicode="T" horiz-adv-x="1255" 
d="M1214 1366v-469h-22q0 187 -100 313q-101 131 -293 131h-39v-1316h172v-25h-621v25h176v1316h-41q-192 0 -286 -131q-94 -128 -94 -313h-25v469h1173z" />
    <glyph glyph-name="U" unicode="U" horiz-adv-x="1333" 
d="M690 -33q-225 0 -351 104.5t-126 307.5v962h-174v25h623v-25h-181v-976q0 -184 59 -270.5t197 -86.5q182 0 279.5 101.5t97.5 281.5v893q0 57 -70 57h-114v25h385v-25h-107q-69 0 -69 -57v-878q0 -211 -113 -325t-336 -114z" />
    <glyph glyph-name="V" unicode="V" horiz-adv-x="1277" 
d="M729 -29h-37l-567 1370h-186v25h673v-25h-200l413 -1022l320 941q11 57 4.5 69t-35.5 12h-143v25h399v-25h-123q-53 0 -80 -81z" />
    <glyph glyph-name="W" unicode="W" horiz-adv-x="1923" 
d="M659 -29h-41l-514 1370h-186v25h651v-25h-176l371 -991l213 654l-117 337h-194v25h680v-25h-205l342 -991l303 920q7 24 6.5 38t-10.5 21.5t-17.5 9.5t-13.5 2h-129v25h387v-25h-119q-33 0 -51 -16t-35 -65l-426 -1289h-37l-352 1006z" />
    <glyph glyph-name="X" unicode="X" horiz-adv-x="1331" 
d="M444 0h-383v25h119q62 0 111 81l303 512l-401 723h-187v25h672v-25h-191l269 -501l248 420q20 35 22 53.5t-6.5 23t-26.5 4.5h-119v25h383v-25h-120q-63 0 -109 -81l-260 -443l432 -792h191v-25h-674v25h190l-305 567l-285 -486q-49 -81 13 -81h114v-25z" />
    <glyph glyph-name="Y" unicode="Y" horiz-adv-x="1241" 
d="M975 0h-621v25h176v571l-366 745h-191v25h678v-25h-198l340 -692l278 611q37 81 -27 81h-131v25h385v-25h-112q-55 0 -99 -92l-288 -637v-587h176v-25z" />
    <glyph glyph-name="Z" unicode="Z" horiz-adv-x="1177" 
d="M1075 0h-979l684 1341h-196q-176 0 -285 -133q-106 -130 -106 -311h-25v469h907l-682 -1341h258q180 0 287 137q111 138 111 315h26v-477z" />
    <glyph glyph-name="bracketleft" unicode="[" horiz-adv-x="575" 
d="M643 -459v-26h-475v1980h475v-25h-250v-1929h250z" />
    <glyph glyph-name="backslash" unicode="\" horiz-adv-x="696" 
d="M92 1399l549 -1415l-35 -17l-551 1415z" />
    <glyph glyph-name="bracketright" unicode="]" horiz-adv-x="563" 
d="M393 1495v-1980h-475v26h250v1929h-250v25h475z" />
    <glyph glyph-name="asciicircum" unicode="^" horiz-adv-x="1228" 
d="M676 1397l346 -852h-129l-279 706l-272 -706h-129l344 852h119z" />
    <glyph glyph-name="underscore" unicode="_" horiz-adv-x="1105" 
d="M1036 41v-41h-966v41h966z" />
    <glyph glyph-name="grave" unicode="`" 
d="M301 1356l287 -314l-10 -10l-402 223q-43 21 -43 66q0 33 23.5 57.5t58.5 24.5q39 0 86 -47z" />
    <glyph glyph-name="a" unicode="a" horiz-adv-x="966" 
d="M940 78l16 -15q-15 -28 -64 -53.5t-101 -25.5q-69 0 -130 40t-71 95q-46 -135 -207 -135q-128 0 -217 51q-90 53 -90 164q0 227 297 254q77 6 147 18q36 6 51 16t15 27v162q0 111 -30.5 153.5t-96.5 42.5q-109 0 -109 -94q0 -13 8.5 -44t8.5 -42q0 -37 -27 -59.5
t-76 -22.5q-48 0 -74 29t-26 74q0 64 86 123q86 57 209 57q173 0 266.5 -94t93.5 -277v-422q0 -69 47 -69q33 0 74 47zM586 236v233q-10 -6 -80 -29q-6 -1 -27.5 -3t-40 -4t-24.5 -3q-59 -12 -82 -64t-23 -184q0 -91 23 -128.5t88 -37.5q73 0 119.5 63.5t46.5 156.5z" />
    <glyph glyph-name="b" unicode="b" horiz-adv-x="1153" 
d="M647 -18q-108 0 -223 86q-75 57 -135 57q-32 0 -56 -36t-24 -89h-25v1481h-133v24h367v-698q78 84 198 84q183 0 314 -143q133 -142 133 -318t-119 -313q-117 -135 -297 -135zM647 6q119 0 148 168q12 64 16 129q4 70 4 127q0 327 -72 393q-46 43 -127 43
q-63 0 -121.5 -32t-76.5 -82v-609q28 -63 93 -100t136 -37z" />
    <glyph glyph-name="c" unicode="c" horiz-adv-x="954" 
d="M535 -18q-183 0 -316 133q-131 134 -131 321q0 189 131 320q132 135 316 135q136 0 239 -80t103 -166q0 -94 -99 -94q-42 0 -68 22.5t-26 55.5q0 16 13.5 51.5t13.5 60.5q0 63 -47 93q-43 32 -129 32q-82 0 -125 -43q-41 -41 -57.5 -128t-16.5 -259t16.5 -259t57.5 -128
q43 -43 125 -43q206 0 344 203l16 -16q-147 -211 -360 -211z" />
    <glyph glyph-name="d" unicode="d" horiz-adv-x="1140" 
d="M1104 25v-25h-369v96q-14 -40 -78.5 -77t-148.5 -37q-181 0 -301 135q-119 137 -119 313q0 173 133 318q134 143 318 143q118 0 196 -84v674h-129v24h365v-1480h133zM735 186v564q-17 50 -74 82t-122 32q-81 0 -127 -43q-76 -73 -76 -391q0 -266 55 -354q44 -68 117 -68
q110 0 168.5 51.5t58.5 126.5z" />
    <glyph glyph-name="e" unicode="e" horiz-adv-x="1015" 
d="M545 -18q-183 0 -322 133q-135 135 -135 321q0 188 135 320q138 135 322 135q124 0 219 -74q91 -68 134.5 -155.5t43.5 -172.5v-6h-606v-47q1 -105 7 -172.5t19 -119t37.5 -79t58.5 -41.5t87 -18q107 0 201.5 51t156.5 136l17 -17q-60 -88 -161.5 -141t-213.5 -53z
M336 508h391q-3 239 -70 315q-34 43 -112 43q-86 0 -129 -43q-77 -77 -80 -315z" />
    <glyph glyph-name="f" unicode="f" horiz-adv-x="704" 
d="M801 1341q0 -43 -31.5 -75.5t-75.5 -32.5q-106 0 -106 78q0 15 15 52t15 60q0 74 -57 74q-98 0 -98 -258v-367h192v-24h-192v-823h133v-25h-498v25h129v823h-157v24h157v82q0 562 355 562q77 0 147 -52q72 -54 72 -123z" />
    <glyph glyph-name="g" unicode="g" horiz-adv-x="1034" 
d="M526 -633q-215 0 -352 76q-135 77 -135 192q0 82 72 154q71 71 168 96q-89 17 -151 80.5t-62 140.5q0 80 42 134t136 112q-86 103 -86 209q0 139 102 234q107 96 252 96q172 0 274 -123q64 123 181 123q51 0 78.5 -30.5t27.5 -76.5q0 -40 -19 -64t-46 -24q-31 0 -49.5 14
t-18.5 35q0 9 8 27t8 25q0 14 -15 28.5t-32 14.5q-69 0 -110 -84q65 -77 65 -195q0 -137 -102 -231q-105 -97 -250 -97q-73 0 -143.5 31t-116.5 74q-68 -53 -68 -135q0 -71 39 -93t146 -22h272q190 0 296.5 -90t106.5 -256q0 -118 -83 -207q-157 -168 -435 -168zM526 -608
q167 0 272 68.5t105 193.5q0 98 -71 161.5t-201 63.5h-281q-37 0 -43 2q-67 -39 -92 -86t-25 -137q0 -151 77 -208.5t259 -57.5zM602 289q53 56 53 274q0 224 -53 277q-26 26 -90 26q-62 0 -88 -26q-57 -57 -57 -277q0 -217 57 -274q28 -31 88 -31q59 0 90 31z" />
    <glyph glyph-name="h" unicode="h" horiz-adv-x="1173" 
d="M1145 25v-25h-494v25h127v630q0 209 -119 209q-92 0 -148 -48t-91 -154v-637h129v-25h-498v25h133v1456h-133v24h369v-774q25 77 90.5 118.5t148.5 41.5q166 0 260.5 -90.5t94.5 -251.5v-524h131z" />
    <glyph glyph-name="i" unicode="i" horiz-adv-x="628" 
d="M575 25v-25h-501v25h135v823h-135v24h368v-847h133zM457 1225q0 -60 -39 -101t-99 -41q-54 0 -91.5 41t-37.5 101q0 54 37.5 91.5t91.5 37.5q60 0 99 -36.5t39 -92.5z" />
    <glyph glyph-name="j" unicode="j" horiz-adv-x="602" 
d="M442 872v-921q0 -308 -100.5 -453t-284.5 -145q-77 0 -137 51q-61 52 -61 123q0 43 32 77t76 34q50 0 78.5 -23t28.5 -61q0 -15 -16.5 -50.5t-16.5 -58.5q0 -37 12 -50t47 -13q109 0 109 241v1225h-133v24h366zM459 1225q0 -61 -38.5 -101.5t-98.5 -40.5q-54 0 -91.5 41
t-37.5 101q0 54 37.5 91.5t91.5 37.5q60 0 98.5 -36.5t38.5 -92.5z" />
    <glyph glyph-name="k" unicode="k" horiz-adv-x="1112" 
d="M553 0h-500v25h135v1456h-135v24h369v-1024l311 281q71 80 27 86h-78v24h326v-24h-86q-70 0 -160 -84l-182 -166l450 -573h137v-25h-518v25h123l-350 444v-444h131v-25z" />
    <glyph glyph-name="l" unicode="l" horiz-adv-x="585" 
d="M549 25v-25h-498v25h133v1456h-133v24h369v-1480h129z" />
    <glyph glyph-name="m" unicode="m" horiz-adv-x="1781" 
d="M1757 25v-25h-502v25h136v632q0 209 -121 209q-113 0 -178.5 -70.5t-65.5 -168.5v-602h133v-25h-497v25h129v632q0 209 -117 209q-93 0 -151 -48t-93 -154v-639h131v-25h-498v25h134v823h-134v24h367v-141q25 77 93 118.5t151 41.5q271 0 342 -164q34 81 102 122.5
t152 41.5q178 0 265 -66t87 -217v-583h135z" />
    <glyph glyph-name="n" unicode="n" horiz-adv-x="1185" 
d="M563 0h-500v25h134v823h-134v24h367v-141q25 77 93 118.5t151 41.5q166 0 260 -90.5t94 -251.5v-524h131v-25h-495v25h129v632q0 209 -119 209q-93 0 -151 -48t-93 -154v-639h133v-25z" />
    <glyph glyph-name="o" unicode="o" horiz-adv-x="1073" 
d="M535 -18q-183 0 -316 133q-131 134 -131 321q0 189 131 320q132 135 316 135t317 -133t133 -322q0 -188 -133 -321t-317 -133zM664 823q-40 43 -129 43q-84 0 -127 -43q-74 -80 -74 -387t74 -387q43 -43 127 -43q89 0 129 43q75 75 75 387t-75 387z" />
    <glyph glyph-name="p" unicode="p" horiz-adv-x="1153" 
d="M549 -631h-498v25h133v1454h-133v24h365v-71q32 38 87 64t113 26q183 0 314 -143q133 -142 133 -316q0 -179 -119 -313q-117 -135 -297 -135q-60 0 -124.5 28t-106.5 70v-688h133v-25zM647 6q91 0 129.5 97.5t38.5 328.5q0 252 -43 342q-41 92 -156 92q-63 0 -122.5 -32
t-77.5 -80v-611q28 -63 94 -100t137 -37z" />
    <glyph glyph-name="q" unicode="q" horiz-adv-x="1107" 
d="M1104 -606v-25h-500v25h131v719q-79 -129 -229 -129q-179 0 -299 135q-119 134 -119 313q0 176 133 318q132 141 316 141q129 0 198 -90v71h369v-24h-135v-1454h135zM735 201v553q-17 48 -75.5 79t-122.5 31q-76 0 -125 -43q-78 -78 -78 -389q0 -303 78 -381
q46 -43 116 -43q90 0 148 64q59 65 59 129z" />
    <glyph glyph-name="r" unicode="r" horiz-adv-x="866" 
d="M831 702q0 -66 -31.5 -101.5t-86.5 -35.5q-53 0 -84 24.5t-31 63.5q0 22 15.5 58.5t15.5 48.5q0 36 -19 63t-45 27q-21 0 -37 -6t-35.5 -25.5t-38 -64.5t-34.5 -115v-614h127v-25h-496v25h133v823h-133v24h369v-141q31 90 80 125t127 35q88 0 146 -57t58 -132z" />
    <glyph glyph-name="s" unicode="s" horiz-adv-x="813" 
d="M758 285q0 -131 -89.5 -217t-234.5 -86q-75 0 -137 26q-66 29 -90 29q-25 0 -49 -13t-29 -26h-20v315h24q0 -132 86 -221q86 -86 215 -86q91 0 141 48.5t50 138.5q0 70 -53.5 106.5t-196.5 69.5q-127 27 -188.5 83.5t-61.5 153.5q0 132 80 209q82 76 190 76
q47 0 113.5 -19.5t75.5 -19.5q17 0 32 15.5t15 25.5h20v-254h-20q0 88 -78 160q-77 71 -158 71q-73 0 -113 -41t-40 -120q0 -65 51 -98t196 -70q123 -31 196 -96.5t73 -159.5z" />
    <glyph glyph-name="t" unicode="t" horiz-adv-x="673" 
d="M631 178l18 -6q-52 -190 -241 -190q-108 0 -157.5 48.5t-49.5 151.5v666h-164v24h164v172q63 6 127 70q66 66 80 115h22v-357h195v-24h-195v-760q0 -59 68 -59q40 0 76 42t57 107z" />
    <glyph glyph-name="u" unicode="u" horiz-adv-x="1165" 
d="M1130 25v-25h-366v141q-25 -77 -92.5 -118t-153.5 -41q-166 0 -258 84.5t-92 242.5v539h-135v24h368v-657q0 -211 117 -211q95 0 152.5 49t93.5 156v639h-131v24h366v-847h131z" />
    <glyph glyph-name="v" unicode="v" horiz-adv-x="960" 
d="M549 -16h-43l-414 864h-123v24h529v-24h-148l283 -592l194 506q15 60 9.5 73t-39.5 13h-88v24h305v-24h-78q-36 0 -50.5 -15t-35.5 -71z" />
    <glyph glyph-name="w" unicode="w" horiz-adv-x="1509" 
d="M516 -16h-41l-397 864h-127v24h520v-24h-139l256 -594l166 444l-72 150h-104v24h501v-24h-141l260 -588l195 502q18 51 9 68.5t-48 17.5h-84v24h305v-24h-72q-34 0 -51.5 -17.5t-36.5 -68.5l-291 -778h-41l-315 682z" />
    <glyph glyph-name="x" unicode="x" horiz-adv-x="1067" 
d="M344 0h-338v25h68q54 0 123 84l241 299l-299 440h-135v24h557v-24h-155l208 -305l172 219q28 34 31 55.5t-5.5 26t-18.5 4.5h-103v24h311v-24h-69q-54 0 -119 -86l-186 -240l344 -497h129v-25h-539v25h141l-249 362l-230 -278q-67 -84 -18 -84h139v-25z" />
    <glyph glyph-name="y" unicode="y" horiz-adv-x="952" 
d="M147 -649q-65 0 -110 48.5t-45 115.5q0 54 32.5 91.5t81.5 37.5q43 0 71 -25t28 -61q0 -16 -24.5 -57t-24.5 -58q0 -51 28 -51q91 0 138 121l176 458l-424 877h-123v24h520v-24h-143l286 -590l193 504q35 86 -31 86h-88v24h313v-24h-75q-39 0 -56.5 -15t-40.5 -71
l-481 -1245q-64 -166 -201 -166z" />
    <glyph glyph-name="z" unicode="z" horiz-adv-x="907" 
d="M834 0h-768l507 848h-159q-136 0 -195 -67t-59 -201h-21v292h690l-503 -847h202q152 0 218.5 75.5t66.5 221.5h21v-322z" />
    <glyph glyph-name="braceleft" unicode="{" horiz-adv-x="557" 
d="M557 -473v-27h-51q-174 0 -275 119q-102 120 -102 309q-3 62 22.5 141.5t57.5 141t58 121t24 86.5q0 54 -33 63q-16 4 -20 4q-9 0 -27.5 -3t-22.5 -3q-14 0 -14 27q0 24 14 24q4 0 22.5 -2t27.5 -2h20q33 14 33 66q2 27 -24 87t-58 122t-57.5 141t-22.5 139
q0 190 102 310q100 118 275 118h51v-24h-51q-103 0 -141.5 -69t-38.5 -249q0 -65 22 -249q23 -192 23 -254q0 -57 -27 -101t-76 -57q49 -17 76 -61.5t27 -98.5q0 -62 -23 -254q-22 -184 -22 -250q0 -179 38.5 -247t141.5 -68h51z" />
    <glyph glyph-name="bar" unicode="|" horiz-adv-x="303" 
d="M174 1546v-1593h-41v1593h41z" />
    <glyph glyph-name="braceright" unicode="}" horiz-adv-x="557" 
d="M432 -72q0 -188 -104 -307q-106 -121 -277 -121h-51v27h51q100 0 140 69t40 246q0 75 -24 250q-23 192 -23 254q0 53 27.5 98t75.5 62q-47 13 -75 58.5t-28 99.5q0 62 23 254q24 176 24 249q0 178 -40 248t-140 70h-51v24h51q172 0 277 -120q104 -119 104 -308
q2 -60 -24.5 -139t-59.5 -141t-59 -122t-23 -87q0 -50 31 -66h22q7 0 26 2t24 2q13 -3 13 -24t-13 -27q-5 0 -24 3t-26 3q-2 0 -22 -4q-31 -9 -31 -63q-3 -27 23 -86.5t59 -121t59.5 -141t24.5 -141.5z" />
    <glyph glyph-name="asciitilde" unicode="~" horiz-adv-x="1228" 
d="M1067 641h82q-14 -124 -78 -198t-172 -74q-96 0 -297 75q-204 76 -274 76q-65 0 -110 -48t-56 -120h-84q35 277 252 277q95 0 293 -76q201 -74 280 -74q134 0 164 162z" />
    <glyph glyph-name="uni00A0" unicode="&#xa0;" horiz-adv-x="358" 
 />
    <glyph glyph-name="exclamdown" unicode="&#xa1;" horiz-adv-x="487" 
d="M109 -381q0 69 61 383t61 508h25q0 -194 61 -508q62 -319 62 -383q0 -82 -37 -121t-98 -39t-98 39t-37 121zM109 750q0 60 38.5 100.5t98.5 40.5q54 0 91.5 -40.5t37.5 -100.5q0 -54 -37.5 -91.5t-91.5 -37.5q-60 0 -98.5 36.5t-38.5 92.5z" />
    <glyph glyph-name="cent" unicode="&#xa2;" horiz-adv-x="933" 
d="M872 188l13 -12q-57 -84 -148.5 -135.5t-191.5 -56.5v-144h-25v142q-180 3 -309 135q-127 133 -127 319q0 187 127 320q126 132 309 135v143h25v-143q132 -9 215 -78q88 -67 88 -147q0 -97 -94 -97q-42 0 -67 22.5t-25 55.5q0 16 12 52t12 61q0 100 -141 106v-860
q99 4 187.5 53.5t139.5 128.5zM520 4v864q-83 -3 -127 -47q-43 -45 -60.5 -129t-17.5 -256t17.5 -256t60.5 -129q44 -44 127 -47z" />
    <glyph glyph-name="sterling" unicode="&#xa3;" horiz-adv-x="1232" 
d="M1104 262h20q-9 -104 -110 -192q-103 -86 -256 -86q-94 0 -168 20q-46 16 -64 21q-5 2 -29.5 11t-45.5 17q-43 15 -70 29q-110 -98 -217 -98q-47 0 -82 25t-35 73q0 59 70 108q70 52 170 52q77 0 194 -13q13 60 13 105q0 36 -17 92q-11 36 -51 125q-39 86 -51 119h-144
v20h140q-58 158 -58 240q0 179 125 313q126 135 310 135q102 0 178 -67q78 -66 78 -142q0 -45 -38 -80.5t-87 -35.5q-111 0 -111 88q0 17 26.5 63.5t26.5 67.5q0 84 -108 84q-90 0 -129 -67.5t-39 -237.5q0 -62 24 -191q27 -125 33 -170h186v-20h-186q14 -101 14 -185
q0 -92 -106 -258q45 -9 123 -32q101 -29 168 -37q94 -11 190 -11q43 0 74 33t39 82zM354 88q-146 49 -192 49q-90 0 -90 -49q0 -82 108 -82q83 0 174 82z" />
    <glyph glyph-name="currency" unicode="&#xa4;" horiz-adv-x="1228" 
d="M950 463l131 -133l-69 -70l-131 133q-116 -96 -267 -96q-141 0 -266 94l-129 -129l-69 70l129 129q-95 127 -95 268q0 145 92 266l-129 131l70 70l129 -131q118 92 268 92q141 0 269 -90l129 127l69 -70l-129 -129q92 -133 92 -268q0 -145 -94 -264zM614 1051
q-134 0 -229 -95q-94 -94 -94 -229t94 -229q95 -95 229 -95q133 0 228 95q96 96 96 229q0 131 -96 227q-97 97 -228 97z" />
    <glyph glyph-name="yen" unicode="&#xa5;" horiz-adv-x="1251" 
d="M965 0h-621v25h176v434h-375v22h375v115l-55 119h-320v22h310l-281 604h-190v25h678v-25h-199l319 -692l258 611q34 81 -26 81h-131v25h385v-25h-113q-57 0 -98 -92l-217 -512h295v-22h-304l-43 -103v-131h347v-22h-347v-434h177v-25z" />
    <glyph glyph-name="brokenbar" unicode="&#xa6;" horiz-adv-x="315" 
d="M178 1548v-559h-41v559h41zM178 512v-559h-41v559h41z" />
    <glyph glyph-name="section" unicode="&#xa7;" horiz-adv-x="1128" 
d="M770 72q129 -111 129 -252q0 -182 -117 -305q-116 -125 -305 -125q-169 0 -270 84q-98 82 -98 192q0 98 94 98q43 0 68.5 -22.5t25.5 -60.5q0 -15 -18 -56q-19 -43 -19 -59q0 -156 217 -156q132 0 211.5 69.5t79.5 190.5q0 91 -65.5 162t-174.5 119q-167 74 -231 115
q-194 120 -204 289q-1 13 -1 26q0 227 197 371q-121 109 -121 252q0 181 115 305q113 125 303 125q150 0 237 -84q86 -83 86 -181q0 -46 -25 -71t-67 -25q-43 0 -69.5 23t-26.5 61q0 17 18 57q19 43 19 58q0 139 -172 139q-131 0 -211 -68.5t-80 -189.5q0 -37 11.5 -70.5
t29 -59.5t47.5 -53t57 -45.5t69 -41t71.5 -36.5t76 -36t72.5 -35q106 -54 172 -139.5t66 -196.5q0 -119 -39 -196q-43 -82 -158 -172zM893 281q0 74 -61.5 138.5t-153.5 106.5q-94 46 -197 99q-113 58 -178 114q-133 -100 -133 -200q0 -74 61 -139.5t152 -106.5
q139 -68 197 -98q115 -59 180 -115q133 112 133 201z" />
    <glyph glyph-name="dieresis" unicode="&#xa8;" 
d="M623 1298q35 -32 35 -81.5t-35 -81.5q-32 -32 -81.5 -32t-84.5 32t-35 81.5t35 81.5t84.5 32t81.5 -32zM303 1217q0 -47 -35 -81t-80 -34q-51 0 -84.5 32.5t-33.5 82.5q0 51 33.5 82.5t84.5 31.5q46 0 80.5 -33t34.5 -81z" />
    <glyph glyph-name="copyright" unicode="&#xa9;" horiz-adv-x="1691" 
d="M797 -33q-287 0 -490 209t-203 506t203 506q202 211 490 211q285 0 487 -211q203 -209 203 -506t-203 -506t-487 -209zM1448 682q0 280 -191 477t-460 197q-268 0 -459 -197t-191 -477q0 -277 191 -477q191 -197 459 -197q267 0 458 197q193 199 193 477zM1092 580v-320
h-13q-6 33 -49 33q-22 0 -96 -19q-70 -18 -105 -18q-153 0 -262 127q-106 127 -106 303q0 178 104 303q106 127 260 127q21 0 90 -16q65 -15 89 -15q52 0 55 27h14v-278h-14q0 90 -76 178q-78 90 -158 90q-76 0 -116 -43q-68 -74 -68 -373t68 -373q40 -43 120 -43
q96 0 175 97q75 93 75 213h13z" />
    <glyph glyph-name="ordfeminine" unicode="&#xaa;" horiz-adv-x="729" 
d="M686 885l21 -8v-3q-27 -65 -127 -65q-48 0 -86 26t-50 68q-46 -94 -165 -94q-93 0 -153 41t-60 119q0 55 23 95t61 60q68 36 126 39q148 9 148 49v115q0 76 -20 106.5t-64 30.5q-82 0 -82 -65q0 -9 7 -34.5t7 -33.5q0 -63 -69 -63q-37 0 -57.5 23t-20.5 57q0 49 63 94
q62 45 152 45q258 0 258 -260v-328q0 -51 37 -51q39 0 51 37zM424 938v233q-18 -12 -117 -30q-38 -5 -53.5 -41.5t-15.5 -130.5q0 -75 17.5 -103t57.5 -28q46 0 78.5 31t32.5 69z" />
    <glyph glyph-name="guillemotleft" unicode="&#xab;" horiz-adv-x="804" 
d="M717 123h-43q0 55 -33 112.5t-88 102.5q-99 81 -156 113v8q61 34 156 112q55 45 88 102.5t33 112.5h43q0 -95 -37 -188q-36 -98 -78 -143q43 -46 78 -146q37 -93 37 -186zM381 123h-43q0 55 -33 112.5t-88 102.5q-99 81 -156 113v8q61 34 156 112q55 45 88 102.5
t33 112.5h43q0 -95 -37 -188q-36 -98 -78 -143q43 -46 78 -146q37 -93 37 -186z" />
    <glyph glyph-name="logicalnot" unicode="&#xac;" horiz-adv-x="1228" 
d="M1124 743v-493h-114v383h-908v110h1022z" />
    <glyph glyph-name="uni00AD" unicode="&#xad;" horiz-adv-x="651" 
d="M82 561h487v-145h-487v145z" />
    <glyph glyph-name="registered" unicode="&#xae;" horiz-adv-x="1691" 
d="M797 -33q-287 0 -490 209t-203 506t203 506q202 211 490 211q285 0 487 -211q203 -209 203 -506t-203 -506t-487 -209zM1448 682q0 280 -191 477t-460 197q-268 0 -459 -197t-191 -477q0 -277 191 -477q191 -197 459 -197q267 0 458 197q193 199 193 477zM1219 326l8 -11
q-35 -41 -94 -41q-85 0 -142 58t-57 168v63q0 139 -160 139h-57v-405h94v-14h-360v14h104v790h-104v15h350q120 0 193 -56t73 -145q0 -80 -61 -136t-148 -56q117 0 180.5 -63.5t63.5 -160.5v-100q0 -86 61 -86q35 0 56 27zM903 897q0 110 -27 150t-104 40h-55v-370h57
q85 0 105 33q24 34 24 147z" />
    <glyph glyph-name="overscore" unicode="&#xaf;" 
d="M678 1241v-121h-629v121h629z" />
    <glyph glyph-name="degree" unicode="&#xb0;" horiz-adv-x="552" 
d="M279 1063q-67 0 -116.5 47.5t-49.5 110.5t49.5 110t116.5 47q69 0 116 -45.5t47 -111.5t-47 -112t-116 -46zM362 1139q37 35 37 82t-37 82q-35 35 -83.5 35t-85.5 -35t-37 -82t37 -82t85.5 -35t83.5 35z" />
    <glyph glyph-name="plusminus" unicode="&#xb1;" horiz-adv-x="1228" 
d="M1124 653v-110h-450v-359h-123v359h-449v110h449v361h123v-361h450zM1124 92v-110h-1022v110h1022z" />
    <glyph glyph-name="twosuperior" unicode="&#xb2;" horiz-adv-x="675" 
d="M190 670v-6h244q60 0 86.5 21.5t26.5 72.5h16v-211h-477v41l201 213q91 114 119 186q28 73 28 191q0 98 -28.5 140t-92.5 42q-43 0 -72.5 -21t-29.5 -57q0 -8 6 -28t6 -25q0 -20 -17.5 -34.5t-45.5 -14.5q-64 0 -64 61q0 43 68 90t149 47q107 0 187 -53q82 -52 82 -158
q0 -41 -23.5 -88.5t-54.5 -83.5q-6 -6 -37 -38t-57 -58q-25 -25 -58.5 -59t-42.5 -43z" />
    <glyph glyph-name="threesuperior" unicode="&#xb3;" horiz-adv-x="675" 
d="M586 786q0 -112 -99 -182q-94 -67 -208 -67q-85 0 -150 41q-61 43 -61 90q0 28 16 47.5t47 19.5q28 0 45 -16.5t17 -36.5q0 -7 -5.5 -25t-5.5 -26q0 -72 97 -72q85 0 118 39q35 41 35 178q0 136 -24 176q-20 39 -82 39q-39 0 -109 -37l-10 19q116 56 141 94q31 42 31 156
q0 79 -17 104t-69 25q-36 0 -59 -17.5t-23 -46.5q0 -8 6 -25t6 -24q0 -22 -17 -38.5t-46 -16.5q-62 0 -62 67q0 36 60 78q61 43 135 43q107 0 171 -41.5t64 -118.5q0 -64 -77 -129q-76 -61 -132 -73q4 0 15 1t14 1q108 -4 173 -68.5t65 -157.5z" />
    <glyph glyph-name="acute" unicode="&#xb4;" 
d="M145 1032l-10 10l287 314q47 47 86 47q35 0 58.5 -24.5t23.5 -57.5q0 -45 -43 -66z" />
    <glyph glyph-name="mu" unicode="&#xb5;" horiz-adv-x="1165" 
d="M168 168v680h-135v24h368v-657q0 -211 117 -211q95 0 152.5 49t93.5 156v639h-131v24h366v-847h131v-25h-366v141q-25 -77 -92.5 -118t-153.5 -41q-202 0 -291 120q1 -5 8 -45.5t13 -79.5q33 -181 33 -272q2 -27 -3.5 -59t-27 -62t-55.5 -33q-82 0 -82 154q0 85 26 232
q29 164 29 231z" />
    <glyph glyph-name="paragraph" unicode="&#xb6;" horiz-adv-x="1189" 
d="M1120 1366v-27h-73q-50 0 -81 -46.5t-38 -110.5q-8 -76 -10 -133q-3 -70 -7 -91v-745q0 -248 -53 -410q-96 -305 -418 -305q-80 0 -159 31q-76 30 -76 100q0 39 27 68t65 29t66 -27.5t28 -65.5q0 -34 -18 -61q4 -2 20 -2q66 0 113.5 46.5t71.5 127.5q40 134 40 307v400
q-226 -12 -389 108q-159 123 -159 348q0 128 54.5 223.5t149.5 143.5q180 92 428 92h418zM963 1339h-203q-76 -55 -90 -219q-2 -29 -4.5 -70.5t-3.5 -54.5v-131v-821q0 -174 -33 -301q-42 -161 -191 -199q61 0 111 13q102 31 165 86.5t95 144.5q25 64 36 113.5t17 126.5
q6 80 6 125q2 31 2 127v759q0 223 93 301z" />
    <glyph glyph-name="middot" unicode="&#xb7;" horiz-adv-x="452" 
d="M358 727q0 -60 -38.5 -100.5t-98.5 -40.5q-54 0 -91.5 40.5t-37.5 100.5q0 54 37.5 91.5t91.5 37.5q60 0 98.5 -36.5t38.5 -92.5z" />
    <glyph glyph-name="cedilla" unicode="&#xb8;" 
d="M346 -461q-66 0 -103.5 32.5t-37.5 76.5q0 21 14 36t37 15q47 0 47 -41q0 -14 -11 -32t-11 -21q0 -41 65 -41q58 0 98.5 26t40.5 66q0 21 -18.5 35.5t-44.5 25t-52 24t-44.5 40t-18.5 65.5q0 79 51 142l25 -6q-25 -25 -25 -52q0 -39 24.5 -65.5t59.5 -38.5
q34 -12 59 -44.5t25 -80.5q0 -74 -47 -118t-133 -44z" />
    <glyph glyph-name="onesuperior" unicode="&#xb9;" horiz-adv-x="675" 
d="M518 569v-22h-336v22h94v774h-94v23h242v-797h94z" />
    <glyph glyph-name="ordmasculine" unicode="&#xba;" horiz-adv-x="804" 
d="M723 1147q0 -139 -94 -240q-94 -98 -230 -98q-131 0 -225 98q-92 103 -92 240q0 139 92 239q94 101 225 101q136 0 230 -101q94 -98 94 -239zM537 1147q0 183 -29.5 250t-108.5 67q-74 0 -103.5 -68t-29.5 -249q0 -83 6.5 -141.5t17 -92t28.5 -52.5t36 -24.5t45 -5.5
q76 0 107 60q31 64 31 256z" />
    <glyph glyph-name="guillemotright" unicode="&#xbb;" horiz-adv-x="804" 
d="M741 459v-8q-54 -30 -155 -113q-55 -45 -88 -102.5t-33 -112.5h-43q0 90 35 186q38 102 80 146q-40 43 -80 143q-35 96 -35 188h43q0 -55 33 -112.5t88 -102.5q97 -79 155 -112zM406 459v-8q-57 -32 -156 -113q-55 -45 -88 -102.5t-33 -112.5h-43q0 90 35 186
q38 102 80 146q-40 43 -80 143q-35 96 -35 188h43q0 -55 33 -112.5t88 -102.5q95 -78 156 -112z" />
    <glyph glyph-name="onequarter" unicode="&#xbc;" horiz-adv-x="1552" 
d="M1464 23v-23h-336v23h95v243h-305v15q60 85 86 135l213 403q38 -11 106 19q71 35 100 61l19 -12l-496 -598h277v129q36 1 73 35.5t52 70.5h22v-235h135v-23h-135v-243h94zM1174 1395l38 -21l-835 -1407l-37 23zM518 569v-22h-336v22h94v774h-94v23h242v-797h94z" />
    <glyph glyph-name="onehalf" unicode="&#xbd;" horiz-adv-x="1552" 
d="M1051 123v-6h243q60 0 86.5 21.5t26.5 72.5h16v-211h-477v41l201 213q91 114 119 186q28 73 28 191q0 99 -28 140.5t-92 41.5q-43 0 -73 -21.5t-30 -56.5q0 -7 6 -28t6 -25q0 -20 -17.5 -34.5t-45.5 -14.5q-64 0 -64 61q0 43 68 90t150 47q106 0 186 -53q82 -52 82 -157
q0 -41 -23.5 -88.5t-54.5 -83.5q-6 -6 -37 -38.5t-57 -58.5q-25 -25 -58.5 -59t-42.5 -43zM1139 1395l39 -21l-836 -1407l-37 23zM518 569v-22h-336v22h94v774h-94v23h242v-797h94z" />
    <glyph glyph-name="threequarters" unicode="&#xbe;" horiz-adv-x="1552" 
d="M586 786q0 -112 -99 -182q-94 -67 -208 -67q-85 0 -150 41q-61 43 -61 90q0 28 16 47.5t47 19.5q28 0 45 -16.5t17 -36.5q0 -7 -5.5 -25t-5.5 -26q0 -72 97 -72q85 0 118 39q35 41 35 178q0 136 -24 176q-20 39 -82 39q-39 0 -109 -37l-10 19q116 56 141 94q31 42 31 156
q0 79 -17 104t-69 25q-36 0 -59 -17.5t-23 -46.5q0 -8 6 -25t6 -24q0 -22 -17 -38.5t-46 -16.5q-62 0 -62 67q0 36 60 78q61 43 135 43q107 0 171 -41.5t64 -118.5q0 -64 -77 -129q-76 -61 -132 -73q4 0 15 1t14 1q108 -4 173 -68.5t65 -157.5zM1464 23v-23h-336v23h95v243
h-305v15q60 85 86 135l213 403q38 -11 106 19q71 35 100 61l19 -12l-496 -598h277v129q36 1 73 35.5t52 70.5h22v-235h135v-23h-135v-243h94zM1194 1395l39 -21l-836 -1407l-37 23z" />
    <glyph glyph-name="questiondown" unicode="&#xbf;" horiz-adv-x="899" 
d="M549 510h22v-326h-2q-35 68 -145 68q-54 0 -82 -31q-21 -24 -27 -86q-4 -78 -4 -274q0 -154 13.5 -227t50.5 -111q39 -39 127 -39q73 0 116.5 46t43.5 122q0 30 -16.5 76.5t-16.5 66.5q0 44 33.5 73.5t89.5 29.5q122 0 122 -125q0 -102 -120 -207q-119 -107 -252 -107
q-192 0 -314 113q-122 110 -122 289q0 175 106 293q107 122 252 122q78 0 125 -30v264zM422 750q0 60 38.5 100.5t98.5 40.5q54 0 91.5 -40.5t37.5 -100.5q0 -54 -37.5 -91.5t-91.5 -37.5q-60 0 -98.5 36.5t-38.5 92.5z" />
    <glyph glyph-name="Agrave" unicode="&#xc0;" horiz-adv-x="1236" 
d="M332 0h-373v25h117q42 0 69 79l453 1289h37l498 -1368h174v-25h-641v25h176l-137 426h-410l-125 -347q-12 -31 -15 -50t0 -24t9 -5h168v-25zM504 1053l-201 -578h389zM469 1812l287 -313l-11 -10l-401 223q-43 21 -43 66q0 33 23.5 57.5t58.5 24.5q38 0 86 -48z" />
    <glyph glyph-name="Aacute" unicode="&#xc1;" horiz-adv-x="1236" 
d="M332 0h-373v25h117q42 0 69 79l453 1289h37l498 -1368h174v-25h-641v25h176l-137 426h-410l-125 -347q-12 -31 -15 -50t0 -24t9 -5h168v-25zM504 1053l-201 -578h389zM496 1493l-11 10l287 314q47 47 86 47q35 0 58.5 -24.5t23.5 -57.5q0 -45 -43 -66z" />
    <glyph glyph-name="Acircumflex" unicode="&#xc2;" horiz-adv-x="1236" 
d="M332 0h-373v25h117q42 0 69 79l453 1289h37l498 -1368h174v-25h-641v25h176l-137 426h-410l-125 -347q-12 -31 -15 -50t0 -24t9 -5h168v-25zM504 1053l-201 -578h389zM907 1495l-12 -16l-289 174l-266 -174l-12 16q95 98 284 373h9q84 -136 286 -373z" />
    <glyph glyph-name="Atilde" unicode="&#xc3;" horiz-adv-x="1236" 
d="M332 0h-373v25h117q42 0 69 79l453 1289h37l498 -1368h174v-25h-641v25h176l-137 426h-410l-125 -347q-12 -31 -15 -50t0 -24t9 -5h168v-25zM504 1053l-201 -578h389zM905 1790h29q0 -95 -74 -166q-71 -68 -170 -68q-34 0 -66 12.5t-56.5 31t-46.5 36.5t-45 30.5
t-44 12.5q-42 0 -71 -36t-29 -87h-31q0 99 64 166.5t161 67.5q78 0 154 -61q82 -60 121 -60q45 0 74.5 34t29.5 87z" />
    <glyph glyph-name="Adieresis" unicode="&#xc4;" horiz-adv-x="1236" 
d="M332 0h-373v25h117q42 0 69 79l453 1289h37l498 -1368h174v-25h-641v25h176l-137 426h-410l-125 -347q-12 -31 -15 -50t0 -24t9 -5h168v-25zM504 1053l-201 -578h389zM551 1655q0 -61 -38.5 -101.5t-98.5 -40.5q-54 0 -91.5 41t-37.5 101q0 54 37.5 91.5t91.5 37.5
q60 0 98.5 -36.5t38.5 -92.5zM952 1655q0 -61 -38.5 -101.5t-98.5 -40.5q-54 0 -91.5 41t-37.5 101q0 54 37.5 91.5t91.5 37.5q60 0 98.5 -36.5t38.5 -92.5z" />
    <glyph glyph-name="Aring" unicode="&#xc5;" horiz-adv-x="1236" 
d="M807 1563q0 -67 -50 -120.5t-118 -64.5l494 -1353h174v-25h-641v25h176l-137 426h-410l-125 -347q-12 -31 -15 -50t0 -24t9 -5h168v-25h-373v25h117q42 0 69 79l449 1274q-68 11 -116 64.5t-48 120.5q0 91 64 137q64 49 124 49q59 0 123 -49q66 -48 66 -137zM303 475h389
l-188 578zM520 1561q0 -91 23 -128.5t75 -37.5t75.5 37.5t23.5 128.5q0 88 -21 130t-78 42t-77.5 -42t-20.5 -130z" />
    <glyph glyph-name="AE" unicode="&#xc6;" horiz-adv-x="1806" 
d="M649 1366h1012v-412h-25q0 151 -86 269q-81 118 -245 118h-201v-626h45q103 0 166 76.5t63 185.5h27v-549h-27q0 109 -63 185.5t-166 76.5h-45v-665h207q208 0 317 127q107 128 107 299h22v-451h-1106v25h183v528h-428l-248 -449q-13 -24 -21 -41t-10.5 -26t0.5 -10
q2 -2 12 -2h152v-25h-365v25h123q10 0 17.5 3.5t22 21.5t32.5 54l688 1237h-160v25zM418 578h416v749z" />
    <glyph glyph-name="Ccedilla" unicode="&#xc7;" horiz-adv-x="1249" 
d="M1145 506v-535h-21q-5 23 -27.5 40.5t-56.5 17.5q-35 0 -159 -31t-174 -31q-261 0 -439 211q-176 212 -176 504q0 293 172 504q177 213 434 213q45 0 150 -27q108 -24 147 -24q37 0 63.5 13.5t31.5 31.5h22v-465h-22q0 145 -129 295q-127 151 -263 151q-126 0 -192 -69
q-115 -124 -115 -623q0 -497 115 -621q65 -71 201 -71q163 0 290 160q127 165 127 356h21zM666 -461q-66 0 -104 32.5t-38 76.5q0 21 14 36t37 15q48 0 48 -41q0 -14 -11.5 -32t-11.5 -21q0 -41 66 -41q58 0 98.5 26t40.5 66q0 21 -18.5 35.5t-44.5 25t-52 24t-44.5 40
t-18.5 65.5q0 79 51 142l24 -6q-24 -24 -24 -52q0 -39 24.5 -65.5t59.5 -38.5q34 -12 59 -44.5t25 -80.5q0 -74 -47 -118t-133 -44z" />
    <glyph glyph-name="Egrave" unicode="&#xc8;" horiz-adv-x="1220" 
d="M1171 451v-451h-1099v25h176v1316h-176v25h1003v-412h-24q0 151 -86 269q-81 118 -246 118h-201v-626h45q103 0 166.5 76.5t63.5 185.5h26v-549h-26q0 109 -63.5 185.5t-166.5 76.5h-45v-665h207q208 0 317 127q107 128 107 299h22zM543 1812l286 -313l-10 -10l-401 223
q-43 21 -43 66q0 33 23.5 57.5t58.5 24.5q38 0 86 -48z" />
    <glyph glyph-name="Eacute" unicode="&#xc9;" horiz-adv-x="1220" 
d="M1171 451v-451h-1099v25h176v1316h-176v25h1003v-412h-24q0 151 -86 269q-81 118 -246 118h-201v-626h45q103 0 166.5 76.5t63.5 185.5h26v-549h-26q0 109 -63.5 185.5t-166.5 76.5h-45v-665h207q208 0 317 127q107 128 107 299h22zM408 1489l-11 10l287 313q48 48 86 48
q35 0 58.5 -24.5t23.5 -57.5q0 -45 -43 -66z" />
    <glyph glyph-name="Ecircumflex" unicode="&#xca;" horiz-adv-x="1220" 
d="M1171 451v-451h-1099v25h176v1316h-176v25h1003v-412h-24q0 151 -86 269q-81 118 -246 118h-201v-626h45q103 0 166.5 76.5t63.5 185.5h26v-549h-26q0 109 -63.5 185.5t-166.5 76.5h-45v-665h207q208 0 317 127q107 128 107 299h22zM899 1495l-12 -16l-289 174l-266 -174
l-13 16q99 102 285 373h8q82 -131 287 -373z" />
    <glyph glyph-name="Edieresis" unicode="&#xcb;" horiz-adv-x="1220" 
d="M1171 451v-451h-1099v25h176v1316h-176v25h1003v-412h-24q0 151 -86 269q-81 118 -246 118h-201v-626h45q103 0 166.5 76.5t63.5 185.5h26v-549h-26q0 109 -63.5 185.5t-166.5 76.5h-45v-665h207q208 0 317 127q107 128 107 299h22zM543 1655q0 -61 -38.5 -101.5
t-98.5 -40.5q-54 0 -92 41t-38 101q0 54 38 91.5t92 37.5q60 0 98.5 -36.5t38.5 -92.5zM944 1655q0 -61 -38.5 -101.5t-98.5 -40.5q-54 0 -91.5 41t-37.5 101q0 54 37.5 91.5t91.5 37.5q60 0 98.5 -36.5t38.5 -92.5z" />
    <glyph glyph-name="Igrave" unicode="&#xcc;" horiz-adv-x="768" 
d="M698 25v-25h-624v25h174v1316h-174v25h624v-25h-178v-1316h178zM256 1812l287 -313l-11 -10l-401 223q-43 21 -43 66q0 33 23.5 57.5t58.5 24.5q38 0 86 -48z" />
    <glyph glyph-name="Iacute" unicode="&#xcd;" horiz-adv-x="768" 
d="M698 25v-25h-624v25h174v1316h-174v25h624v-25h-178v-1316h178zM244 1489l-11 10l287 313q48 48 86 48q35 0 58.5 -24.5t23.5 -57.5q0 -45 -43 -66z" />
    <glyph glyph-name="Icircumflex" unicode="&#xce;" horiz-adv-x="768" 
d="M698 25v-25h-624v25h174v1316h-174v25h624v-25h-178v-1316h178zM674 1495l-12 -16l-289 174l-267 -174l-12 16q99 102 285 373h8q82 -131 287 -373z" />
    <glyph glyph-name="Idieresis" unicode="&#xcf;" horiz-adv-x="768" 
d="M698 25v-25h-624v25h174v1316h-174v25h624v-25h-178v-1316h178zM315 1655q0 -61 -38.5 -101.5t-98.5 -40.5q-54 0 -91.5 41t-37.5 101q0 54 37.5 91.5t91.5 37.5q60 0 98.5 -36.5t38.5 -92.5zM717 1655q0 -61 -38.5 -101.5t-98.5 -40.5q-54 0 -91.5 41t-37.5 101
q0 54 37.5 91.5t91.5 37.5q60 0 98.5 -36.5t38.5 -92.5z" />
    <glyph glyph-name="Eth" unicode="&#xd0;" horiz-adv-x="1368" 
d="M84 670v24h164v647h-174v25h596q249 0 426 -201q176 -200 176 -483q0 -282 -178 -481q-177 -201 -424 -201h-596v25h174v645h-164zM973 682q0 481 -111 592q-64 67 -192 67h-150v-647h180v-24h-180v-645h150q128 0 192 67q62 65 86 193q25 138 25 397z" />
    <glyph glyph-name="Ntilde" unicode="&#xd1;" horiz-adv-x="1355" 
d="M1159 -25h-41l-854 1344v-1235q0 -59 70 -59h106v-25h-374v25h106q68 0 68 59v1257h-177v25h488l584 -932v850q0 57 -68 57h-106v25h374v-25h-104q-72 0 -72 -57v-1309zM965 1790h28q0 -96 -73 -166q-71 -68 -170 -68q-34 0 -66 12.5t-56.5 31t-46.5 36.5t-45 30.5
t-44 12.5q-43 0 -72 -36t-29 -87h-31q0 99 64.5 166.5t161.5 67.5q77 0 153 -61q82 -60 121 -60q45 0 75 34t30 87z" />
    <glyph glyph-name="Ograve" unicode="&#xd2;" horiz-adv-x="1398" 
d="M92 682q0 293 172 504q177 213 434 213q250 0 428 -211q179 -209 179 -506t-179 -506t-428 -209t-428 209q-178 208 -178 506zM1004 682q0 504 -113 623q-66 69 -193 69t-190 -69q-115 -121 -115 -623q0 -270 25 -414q27 -138 90 -207q65 -71 190 -71q128 0 193 71
q64 67 88 205q25 144 25 416zM571 1812l287 -313l-10 -10l-402 223q-43 21 -43 66q0 33 23.5 57.5t58.5 24.5q38 0 86 -48z" />
    <glyph glyph-name="Oacute" unicode="&#xd3;" horiz-adv-x="1398" 
d="M92 682q0 293 172 504q177 213 434 213q250 0 428 -211q179 -209 179 -506t-179 -506t-428 -209t-428 209q-178 208 -178 506zM1004 682q0 504 -113 623q-66 69 -193 69t-190 -69q-115 -121 -115 -623q0 -270 25 -414q27 -138 90 -207q65 -71 190 -71q128 0 193 71
q64 67 88 205q25 144 25 416zM559 1489l-10 10l287 313q48 48 86 48q35 0 58.5 -24.5t23.5 -57.5q0 -45 -43 -66z" />
    <glyph glyph-name="Ocircumflex" unicode="&#xd4;" horiz-adv-x="1398" 
d="M92 682q0 293 172 504q177 213 434 213q250 0 428 -211q179 -209 179 -506t-179 -506t-428 -209t-428 209q-178 208 -178 506zM1004 682q0 504 -113 623q-66 69 -193 69t-190 -69q-115 -121 -115 -623q0 -270 25 -414q27 -138 90 -207q65 -71 190 -71q128 0 193 71
q64 67 88 205q25 144 25 416zM989 1495l-12 -16l-289 174l-266 -174l-12 16q95 98 284 373h8q82 -131 287 -373z" />
    <glyph glyph-name="Otilde" unicode="&#xd5;" horiz-adv-x="1398" 
d="M92 682q0 293 172 504q177 213 434 213q250 0 428 -211q179 -209 179 -506t-179 -506t-428 -209t-428 209q-178 208 -178 506zM1004 682q0 504 -113 623q-66 69 -193 69t-190 -69q-115 -121 -115 -623q0 -270 25 -414q27 -138 90 -207q65 -71 190 -71q128 0 193 71
q64 67 88 205q25 144 25 416zM987 1790h29q0 -95 -74 -166q-71 -68 -170 -68q-34 0 -66 12.5t-56.5 31t-46.5 36.5t-45 30.5t-44 12.5q-42 0 -71 -36t-29 -87h-31q0 99 64 166.5t161 67.5q78 0 154 -61q82 -60 121 -60q45 0 74.5 34t29.5 87z" />
    <glyph glyph-name="Odieresis" unicode="&#xd6;" horiz-adv-x="1398" 
d="M92 682q0 293 172 504q177 213 434 213q250 0 428 -211q179 -209 179 -506t-179 -506t-428 -209t-428 209q-178 208 -178 506zM1004 682q0 504 -113 623q-66 69 -193 69t-190 -69q-115 -121 -115 -623q0 -270 25 -414q27 -138 90 -207q65 -71 190 -71q128 0 193 71
q64 67 88 205q25 144 25 416zM631 1655q0 -61 -38.5 -101.5t-98.5 -40.5q-54 0 -91.5 41t-37.5 101q0 54 37.5 91.5t91.5 37.5q60 0 98.5 -36.5t38.5 -92.5zM1032 1655q0 -61 -38.5 -101.5t-98.5 -40.5q-54 0 -91.5 41t-37.5 101q0 54 37.5 91.5t91.5 37.5q60 0 98.5 -36.5
t38.5 -92.5z" />
    <glyph glyph-name="multiply" unicode="&#xd7;" horiz-adv-x="1228" 
d="M1008 182l-78 -80l-320 320l-313 -313l-78 77l313 314l-317 317l80 78l315 -317l314 313l77 -78l-311 -313z" />
    <glyph glyph-name="Oslash" unicode="&#xd8;" horiz-adv-x="1398" 
d="M1047 1268l81 141l29 -12l-88 -150q111 -101 173.5 -248.5t62.5 -316.5q0 -297 -179 -506t-428 -209q-173 0 -319 107l-70 -121l-28 12l73 127q-122 99 -192 255t-70 335q0 293 172 504q177 213 434 213q194 0 349 -131zM393 682q0 -329 37 -465l537 918q-24 118 -76 170
q-66 69 -193 69t-190 -69q-115 -121 -115 -623zM1004 682q0 258 -27 408l-537 -912q27 -73 68 -117q65 -71 190 -71q128 0 193 71q64 67 88 205q25 144 25 416z" />
    <glyph glyph-name="Ugrave" unicode="&#xd9;" horiz-adv-x="1333" 
d="M690 -33q-225 0 -351 104.5t-126 307.5v962h-174v25h623v-25h-181v-976q0 -184 59 -270.5t197 -86.5q182 0 279.5 101.5t97.5 281.5v893q0 57 -70 57h-114v25h385v-25h-107q-69 0 -69 -57v-878q0 -211 -113 -325t-336 -114zM600 1812l287 -313l-10 -10l-402 223
q-43 21 -43 66q0 33 23.5 57.5t58.5 24.5q38 0 86 -48z" />
    <glyph glyph-name="Uacute" unicode="&#xda;" horiz-adv-x="1333" 
d="M690 -33q-225 0 -351 104.5t-126 307.5v962h-174v25h623v-25h-181v-976q0 -184 59 -270.5t197 -86.5q182 0 279.5 101.5t97.5 281.5v893q0 57 -70 57h-114v25h385v-25h-107q-69 0 -69 -57v-878q0 -211 -113 -325t-336 -114zM588 1489l-10 10l286 313q48 48 86 48
q35 0 58.5 -24.5t23.5 -57.5q0 -45 -43 -66z" />
    <glyph glyph-name="Ucircumflex" unicode="&#xdb;" horiz-adv-x="1333" 
d="M690 -33q-225 0 -351 104.5t-126 307.5v962h-174v25h623v-25h-181v-976q0 -184 59 -270.5t197 -86.5q182 0 279.5 101.5t97.5 281.5v893q0 57 -70 57h-114v25h385v-25h-107q-69 0 -69 -57v-878q0 -211 -113 -325t-336 -114zM1018 1495l-12 -16l-289 174l-266 -174l-13 16
q99 102 285 373h8q82 -131 287 -373z" />
    <glyph glyph-name="Udieresis" unicode="&#xdc;" horiz-adv-x="1333" 
d="M690 -33q-225 0 -351 104.5t-126 307.5v962h-174v25h623v-25h-181v-976q0 -184 59 -270.5t197 -86.5q182 0 279.5 101.5t97.5 281.5v893q0 57 -70 57h-114v25h385v-25h-107q-69 0 -69 -57v-878q0 -211 -113 -325t-336 -114zM680 1655q0 -61 -38.5 -101.5t-98.5 -40.5
q-54 0 -91.5 41t-37.5 101q0 54 37.5 91.5t91.5 37.5q60 0 98.5 -36.5t38.5 -92.5zM1081 1655q0 -61 -38.5 -101.5t-98.5 -40.5q-54 0 -91.5 41t-37.5 101q0 54 37.5 91.5t91.5 37.5q60 0 98.5 -36.5t38.5 -92.5z" />
    <glyph glyph-name="Yacute" unicode="&#xdd;" horiz-adv-x="1241" 
d="M975 0h-621v25h176v571l-366 745h-191v25h678v-25h-198l340 -692l278 611q37 81 -27 81h-131v25h385v-25h-112q-55 0 -99 -92l-288 -637v-587h176v-25zM623 1489l-11 10l287 313q48 48 86 48q35 0 58.5 -24.5t23.5 -57.5q0 -45 -43 -66z" />
    <glyph glyph-name="Thorn" unicode="&#xde;" horiz-adv-x="1196" 
d="M522 1341v-237v-8h115q243 0 372.5 -111t129.5 -301q0 -180 -113 -277.5t-332 -97.5q-66 0 -172 25v-309h178v-25h-626v25h174v1316h-174v25h626v-25h-178zM866 684q0 209 -53 298t-176 89h-115v-706q73 -31 172 -31q118 0 144 63q28 67 28 287z" />
    <glyph glyph-name="germandbls" unicode="&#xdf;" horiz-adv-x="1150" 
d="M1085 373q0 -185 -108 -287t-221 -102q-94 0 -154 57q-59 59 -59 131q0 35 18 56.5t47 21.5q31 0 51.5 -17.5t20.5 -46.5q0 -7 -9 -32.5t-9 -40.5q0 -107 94 -107q33 0 50.5 9.5t31.5 45.5t19 104.5t5 188.5q0 232 -43.5 328t-146.5 96q-39 0 -72 -20l-12 16
q97 57 131 127q33 67 33 234q0 154 -37.5 215t-134.5 61q-80 0 -124 -60.5t-44 -179.5v-1146h120v-25h-466v25h118v841q0 287 115 426q118 142 281 142q162 0 272 -84q109 -83 109 -220q0 -221 -265 -323q36 4 66 4q149 0 235 -133q88 -131 88 -305z" />
    <glyph glyph-name="agrave" unicode="&#xe0;" horiz-adv-x="966" 
d="M940 78l16 -15q-15 -28 -64 -53.5t-101 -25.5q-69 0 -130 40t-71 95q-46 -135 -207 -135q-128 0 -217 51q-90 53 -90 164q0 227 297 254q77 6 147 18q36 6 51 16t15 27v162q0 111 -30.5 153.5t-96.5 42.5q-109 0 -109 -94q0 -13 8.5 -44t8.5 -42q0 -37 -27 -59.5
t-76 -22.5q-48 0 -74 29t-26 74q0 64 86 123q86 57 209 57q173 0 266.5 -94t93.5 -277v-422q0 -69 47 -69q33 0 74 47zM586 236v233q-10 -6 -80 -29q-6 -1 -27.5 -3t-40 -4t-24.5 -3q-59 -12 -82 -64t-23 -184q0 -91 23 -128.5t88 -37.5q73 0 119.5 63.5t46.5 156.5z
M354 1356l287 -314l-10 -10l-402 223q-43 21 -43 66q0 33 23.5 57.5t58.5 24.5q39 0 86 -47z" />
    <glyph glyph-name="aacute" unicode="&#xe1;" horiz-adv-x="966" 
d="M940 78l16 -15q-15 -28 -64 -53.5t-101 -25.5q-69 0 -130 40t-71 95q-46 -135 -207 -135q-128 0 -217 51q-90 53 -90 164q0 227 297 254q77 6 147 18q36 6 51 16t15 27v162q0 111 -30.5 153.5t-96.5 42.5q-109 0 -109 -94q0 -13 8.5 -44t8.5 -42q0 -37 -27 -59.5
t-76 -22.5q-48 0 -74 29t-26 74q0 64 86 123q86 57 209 57q173 0 266.5 -94t93.5 -277v-422q0 -69 47 -69q33 0 74 47zM586 236v233q-10 -6 -80 -29q-6 -1 -27.5 -3t-40 -4t-24.5 -3q-59 -12 -82 -64t-23 -184q0 -91 23 -128.5t88 -37.5q73 0 119.5 63.5t46.5 156.5z
M342 1032l-10 10l286 314q47 47 87 47q34 0 57.5 -24.5t23.5 -57.5q0 -45 -43 -66z" />
    <glyph glyph-name="acircumflex" unicode="&#xe2;" horiz-adv-x="966" 
d="M940 78l16 -15q-15 -28 -64 -53.5t-101 -25.5q-69 0 -130 40t-71 95q-46 -135 -207 -135q-128 0 -217 51q-90 53 -90 164q0 227 297 254q77 6 147 18q36 6 51 16t15 27v162q0 111 -30.5 153.5t-96.5 42.5q-109 0 -109 -94q0 -13 8.5 -44t8.5 -42q0 -37 -27 -59.5
t-76 -22.5q-48 0 -74 29t-26 74q0 64 86 123q86 57 209 57q173 0 266.5 -94t93.5 -277v-422q0 -69 47 -69q33 0 74 47zM586 236v233q-10 -6 -80 -29q-6 -1 -27.5 -3t-40 -4t-24.5 -3q-59 -12 -82 -64t-23 -184q0 -91 23 -128.5t88 -37.5q73 0 119.5 63.5t46.5 156.5z
M772 1038l-12 -16l-289 174l-266 -174l-12 16q95 98 284 373h8q82 -129 287 -373z" />
    <glyph glyph-name="atilde" unicode="&#xe3;" horiz-adv-x="966" 
d="M940 78l16 -15q-15 -28 -64 -53.5t-101 -25.5q-69 0 -130 40t-71 95q-46 -135 -207 -135q-128 0 -217 51q-90 53 -90 164q0 227 297 254q77 6 147 18q36 6 51 16t15 27v162q0 111 -30.5 153.5t-96.5 42.5q-109 0 -109 -94q0 -13 8.5 -44t8.5 -42q0 -37 -27 -59.5
t-76 -22.5q-48 0 -74 29t-26 74q0 64 86 123q86 57 209 57q173 0 266.5 -94t93.5 -277v-422q0 -69 47 -69q33 0 74 47zM586 236v233q-10 -6 -80 -29q-6 -1 -27.5 -3t-40 -4t-24.5 -3q-59 -12 -82 -64t-23 -184q0 -91 23 -128.5t88 -37.5q73 0 119.5 63.5t46.5 156.5z
M770 1333h29q0 -95 -74 -166q-70 -67 -170 -67q-34 0 -66 12.5t-56.5 31t-46.5 36.5t-45 30.5t-44 12.5q-42 0 -71 -36t-29 -87h-31q0 99 64 166t161 67q78 0 154 -61q82 -60 121 -60q45 0 74.5 34t29.5 87z" />
    <glyph glyph-name="adieresis" unicode="&#xe4;" horiz-adv-x="966" 
d="M940 78l16 -15q-15 -28 -64 -53.5t-101 -25.5q-69 0 -130 40t-71 95q-46 -135 -207 -135q-128 0 -217 51q-90 53 -90 164q0 227 297 254q77 6 147 18q36 6 51 16t15 27v162q0 111 -30.5 153.5t-96.5 42.5q-109 0 -109 -94q0 -13 8.5 -44t8.5 -42q0 -37 -27 -59.5
t-76 -22.5q-48 0 -74 29t-26 74q0 64 86 123q86 57 209 57q173 0 266.5 -94t93.5 -277v-422q0 -69 47 -69q33 0 74 47zM586 236v233q-10 -6 -80 -29q-6 -1 -27.5 -3t-40 -4t-24.5 -3q-59 -12 -82 -64t-23 -184q0 -91 23 -128.5t88 -37.5q73 0 119.5 63.5t46.5 156.5z
M743 1298q35 -32 35 -81.5t-35 -81.5q-32 -32 -81 -32t-84 32t-35 81.5t35 81.5t84 32t81 -32zM424 1217q0 -47 -35 -81t-80 -34q-51 0 -85 33t-34 82q0 51 33.5 82.5t85.5 31.5q46 0 80.5 -33t34.5 -81z" />
    <glyph glyph-name="aring" unicode="&#xe5;" horiz-adv-x="966" 
d="M940 78l16 -15q-15 -28 -64 -53.5t-101 -25.5q-69 0 -130 40t-71 95q-46 -135 -207 -135q-128 0 -217 51q-90 53 -90 164q0 227 297 254q77 6 147 18q36 6 51 16t15 27v162q0 111 -30.5 153.5t-96.5 42.5q-109 0 -109 -94q0 -13 8.5 -44t8.5 -42q0 -37 -27 -59.5
t-76 -22.5q-48 0 -74 29t-26 74q0 64 86 123q86 57 209 57q173 0 266.5 -94t93.5 -277v-422q0 -69 47 -69q33 0 74 47zM586 236v233q-10 -6 -80 -29q-6 -1 -27.5 -3t-40 -4t-24.5 -3q-59 -12 -82 -64t-23 -184q0 -91 23 -128.5t88 -37.5q73 0 119.5 63.5t46.5 156.5z
M672 1249q0 -73 -57.5 -128.5t-131.5 -55.5t-131 55.5t-57 128.5q0 92 63 137q65 50 125 50q58 0 123 -50q66 -48 66 -137zM567 1249q0 124 -30 154q-19 17 -53.5 17t-51.5 -17q-31 -36 -31 -154q0 -115 31 -151q17 -17 51.5 -17t53.5 17q30 30 30 151z" />
    <glyph glyph-name="ae" unicode="&#xe6;" horiz-adv-x="1499" 
d="M618 211q-27 -227 -260 -227q-110 0 -196 51q-86 53 -86 164q0 227 297 254q77 6 147 18q36 6 51 16t15 27v162q0 111 -30.5 153.5t-96.5 42.5q-109 0 -109 -94q0 -13 8.5 -44t8.5 -42q0 -37 -27 -59.5t-76 -22.5q-48 0 -74 29t-26 74q0 64 86 123q86 57 209 57
q189 0 278 -109q128 107 291 107q124 0 219 -74q91 -68 134.5 -155.5t43.5 -172.5v-6h-606v-47q1 -105 7 -172.5t19 -119t37.5 -79t58.5 -41.5t87 -18q107 0 201.5 51t156.5 136l17 -17q-60 -88 -161.5 -141t-213.5 -53q-111 0 -229 65q-116 69 -181 164zM819 508h391
q-3 240 -69 315q-34 43 -113 43q-86 0 -129 -43q-77 -77 -80 -315zM586 236v233q-10 -6 -80 -29q-6 -1 -27.5 -3t-40 -4t-24.5 -3q-59 -12 -82 -64t-23 -184q0 -91 23 -128.5t88 -37.5q73 0 119.5 63.5t46.5 156.5z" />
    <glyph glyph-name="ccedilla" unicode="&#xe7;" horiz-adv-x="954" 
d="M518 -461q-66 0 -103.5 32.5t-37.5 76.5q0 21 14 36t37 15q47 0 47 -41q0 -14 -11 -32t-11 -21q0 -41 65 -41q58 0 98.5 26t40.5 66q0 21 -18.5 35.5t-44.5 25t-52 24t-44.5 40t-18.5 65.5q0 79 51 142l25 -6q-25 -25 -25 -52q0 -39 24.5 -65.5t59.5 -38.5
q34 -12 59 -44.5t25 -80.5q0 -74 -47 -118t-133 -44zM535 -18q-183 0 -316 133q-131 134 -131 321q0 189 131 320q132 135 316 135q136 0 239 -80t103 -166q0 -94 -99 -94q-42 0 -68 22.5t-26 55.5q0 16 13.5 51.5t13.5 60.5q0 63 -47 93q-43 32 -129 32q-82 0 -125 -43
q-41 -41 -57.5 -128t-16.5 -259t16.5 -259t57.5 -128q43 -43 125 -43q206 0 344 203l16 -16q-147 -211 -360 -211z" />
    <glyph glyph-name="egrave" unicode="&#xe8;" horiz-adv-x="1015" 
d="M545 -18q-183 0 -322 133q-135 135 -135 321q0 188 135 320q138 135 322 135q124 0 219 -74q91 -68 134.5 -155.5t43.5 -172.5v-6h-606v-47q1 -105 7 -172.5t19 -119t37.5 -79t58.5 -41.5t87 -18q107 0 201.5 51t156.5 136l17 -17q-60 -88 -161.5 -141t-213.5 -53z
M336 508h391q-3 239 -70 315q-34 43 -112 43q-86 0 -129 -43q-77 -77 -80 -315zM379 1356l287 -314l-11 -10l-401 223q-43 21 -43 66q0 33 23.5 57.5t58.5 24.5q39 0 86 -47z" />
    <glyph glyph-name="eacute" unicode="&#xe9;" horiz-adv-x="1015" 
d="M545 -18q-183 0 -322 133q-135 135 -135 321q0 188 135 320q138 135 322 135q124 0 219 -74q91 -68 134.5 -155.5t43.5 -172.5v-6h-606v-47q1 -105 7 -172.5t19 -119t37.5 -79t58.5 -41.5t87 -18q107 0 201.5 51t156.5 136l17 -17q-60 -88 -161.5 -141t-213.5 -53z
M336 508h391q-3 239 -70 315q-34 43 -112 43q-86 0 -129 -43q-77 -77 -80 -315zM408 1032l-11 10l287 314q47 47 86 47q35 0 58.5 -24.5t23.5 -57.5q0 -45 -43 -66z" />
    <glyph glyph-name="ecircumflex" unicode="&#xea;" horiz-adv-x="1015" 
d="M545 -18q-183 0 -322 133q-135 135 -135 321q0 188 135 320q138 135 322 135q124 0 219 -74q91 -68 134.5 -155.5t43.5 -172.5v-6h-606v-47q1 -105 7 -172.5t19 -119t37.5 -79t58.5 -41.5t87 -18q107 0 201.5 51t156.5 136l17 -17q-60 -88 -161.5 -141t-213.5 -53z
M336 508h391q-3 239 -70 315q-34 43 -112 43q-86 0 -129 -43q-77 -77 -80 -315zM838 1038l-13 -16l-288 174l-267 -174l-12 16q99 102 285 373h8q82 -129 287 -373z" />
    <glyph glyph-name="edieresis" unicode="&#xeb;" horiz-adv-x="1015" 
d="M545 -18q-183 0 -322 133q-135 135 -135 321q0 188 135 320q138 135 322 135q124 0 219 -74q91 -68 134.5 -155.5t43.5 -172.5v-6h-606v-47q1 -105 7 -172.5t19 -119t37.5 -79t58.5 -41.5t87 -18q107 0 201.5 51t156.5 136l17 -17q-60 -88 -161.5 -141t-213.5 -53z
M336 508h391q-3 239 -70 315q-34 43 -112 43q-86 0 -129 -43q-77 -77 -80 -315zM809 1298q35 -32 35 -81.5t-35 -81.5q-32 -32 -81.5 -32t-84.5 32t-35 81.5t35 81.5t84.5 32t81.5 -32zM489 1217q0 -47 -34.5 -81t-79.5 -34q-51 0 -85 33t-34 82q0 51 33.5 82.5t85.5 31.5
q45 0 79.5 -33t34.5 -81z" />
    <glyph glyph-name="igrave" unicode="&#xec;" horiz-adv-x="628" 
d="M575 25v-25h-501v25h135v823h-135v24h368v-847h133zM207 1356l287 -314l-11 -10l-401 223q-43 21 -43 66q0 33 23.5 57.5t58.5 24.5q39 0 86 -47z" />
    <glyph glyph-name="iacute" unicode="&#xed;" horiz-adv-x="628" 
d="M575 25v-25h-501v25h135v823h-135v24h368v-847h133zM154 1032l-11 10l287 314q47 47 86 47q35 0 58.5 -24.5t23.5 -57.5q0 -45 -43 -66z" />
    <glyph glyph-name="icircumflex" unicode="&#xee;" horiz-adv-x="628" 
d="M575 25v-25h-501v25h135v823h-135v24h368v-847h133zM604 1038l-12 -16l-289 174l-266 -174l-12 16q95 98 284 373h8q82 -129 287 -373z" />
    <glyph glyph-name="idieresis" unicode="&#xef;" horiz-adv-x="628" 
d="M575 1298q35 -32 35 -81.5t-35 -81.5q-32 -32 -81 -32t-84 32t-35 81.5t35 81.5t84 32t81 -32zM256 1217q0 -47 -35 -81t-80 -34q-51 0 -84.5 32.5t-33.5 82.5q0 51 33.5 82.5t84.5 31.5q46 0 80.5 -33t34.5 -81zM575 25v-25h-501v25h135v823h-135v24h368v-847h133z" />
    <glyph glyph-name="eth" unicode="&#xf0;" horiz-adv-x="1073" 
d="M561 1264l-276 -160l-13 20l273 158q-119 154 -295 213l14 16q210 -58 359 -186l225 131l12 -20l-217 -125q163 -142 252.5 -345t89.5 -446q0 -254 -131 -397q-129 -141 -330 -141q-186 0 -311 137t-125 311q0 181 127 320q129 141 309 141q137 0 201 -94
q-27 273 -164 467zM537 6q73 0 118 45q46 46 60 125q16 88 16 260q0 179 -12 260t-49 121q-49 49 -133 49t-127 -43q-74 -80 -74 -387t74 -387q43 -43 127 -43z" />
    <glyph glyph-name="ntilde" unicode="&#xf1;" horiz-adv-x="1185" 
d="M563 0h-500v25h134v823h-134v24h367v-141q25 77 93 118.5t151 41.5q166 0 260 -90.5t94 -251.5v-524h131v-25h-495v25h129v632q0 209 -119 209q-93 0 -151 -48t-93 -154v-639h133v-25zM881 1333h28q0 -96 -73 -166q-70 -67 -170 -67q-34 0 -66 12.5t-56.5 31t-46.5 36.5
t-45 30.5t-44 12.5q-43 0 -72 -36t-29 -87h-31q0 99 64 166t162 67q77 0 153 -61q82 -60 121 -60q45 0 75 34t30 87z" />
    <glyph glyph-name="ograve" unicode="&#xf2;" horiz-adv-x="1073" 
d="M535 -18q-183 0 -316 133q-131 134 -131 321q0 189 131 320q132 135 316 135t317 -133t133 -322q0 -188 -133 -321t-317 -133zM664 823q-40 43 -129 43q-84 0 -127 -43q-74 -80 -74 -387t74 -387q43 -43 127 -43q89 0 129 43q75 75 75 387t-75 387zM408 1356l286 -314
l-10 -10l-401 223q-43 21 -43 66q0 33 23.5 57.5t58.5 24.5q39 0 86 -47z" />
    <glyph glyph-name="oacute" unicode="&#xf3;" horiz-adv-x="1073" 
d="M535 -18q-183 0 -316 133q-131 134 -131 321q0 189 131 320q132 135 316 135t317 -133t133 -322q0 -188 -133 -321t-317 -133zM664 823q-40 43 -129 43q-84 0 -127 -43q-74 -80 -74 -387t74 -387q43 -43 127 -43q89 0 129 43q75 75 75 387t-75 387zM395 1032l-10 10
l287 314q47 47 86 47q35 0 58.5 -24.5t23.5 -57.5q0 -45 -43 -66z" />
    <glyph glyph-name="ocircumflex" unicode="&#xf4;" horiz-adv-x="1073" 
d="M535 -18q-183 0 -316 133q-131 134 -131 321q0 189 131 320q132 135 316 135t317 -133t133 -322q0 -188 -133 -321t-317 -133zM664 823q-40 43 -129 43q-84 0 -127 -43q-74 -80 -74 -387t74 -387q43 -43 127 -43q89 0 129 43q75 75 75 387t-75 387zM825 1038l-12 -16
l-289 174l-266 -174l-12 16q95 98 284 373h9q85 -134 286 -373z" />
    <glyph glyph-name="otilde" unicode="&#xf5;" horiz-adv-x="1073" 
d="M535 -18q-183 0 -316 133q-131 134 -131 321q0 189 131 320q132 135 316 135t317 -133t133 -322q0 -188 -133 -321t-317 -133zM664 823q-40 43 -129 43q-84 0 -127 -43q-74 -80 -74 -387t74 -387q43 -43 127 -43q89 0 129 43q75 75 75 387t-75 387zM823 1333h29
q0 -95 -74 -166q-70 -67 -170 -67q-34 0 -66 12.5t-56.5 31t-46.5 36.5t-45 30.5t-44 12.5q-42 0 -71 -36t-29 -87h-31q0 99 64 166t161 67q78 0 154 -61q82 -60 121 -60q45 0 74.5 34t29.5 87z" />
    <glyph glyph-name="odieresis" unicode="&#xf6;" horiz-adv-x="1073" 
d="M535 -18q-183 0 -316 133q-131 134 -131 321q0 189 131 320q132 135 316 135t317 -133t133 -322q0 -188 -133 -321t-317 -133zM664 823q-40 43 -129 43q-84 0 -127 -43q-74 -80 -74 -387t74 -387q43 -43 127 -43q89 0 129 43q75 75 75 387t-75 387zM797 1298
q35 -32 35 -81.5t-35 -81.5q-32 -32 -81.5 -32t-84.5 32t-35 81.5t35 81.5t84.5 32t81.5 -32zM477 1217q0 -47 -35 -81t-80 -34q-51 0 -84.5 32.5t-33.5 82.5q0 51 33.5 82.5t84.5 31.5q46 0 80.5 -33t34.5 -81z" />
    <glyph glyph-name="divide" unicode="&#xf7;" horiz-adv-x="1228" 
d="M715 862q0 -41 -31 -71.5t-72 -30.5t-70.5 30.5t-29.5 71.5q0 43 29 73t71 30q43 0 73 -30t30 -73zM1124 553v-111h-1022v111h1022zM715 131q0 -41 -31 -71.5t-72 -30.5t-70.5 30.5t-29.5 71.5q0 43 28.5 72.5t71.5 29.5t73 -29.5t30 -72.5z" />
    <glyph glyph-name="oslash" unicode="&#xf8;" horiz-adv-x="1073" 
d="M213 -53l-27 14l76 115q-82 62 -128 157t-46 203q0 189 131 320q132 135 316 135q124 0 233 -68l68 103l24 -13l-69 -104q91 -63 142.5 -162t51.5 -211q0 -188 -133 -321t-317 -133q-136 0 -248 75zM739 436q0 176 -20 266l-365 -542q15 -68 54 -111q43 -43 127 -43
q89 0 129 43q75 75 75 387zM334 436q0 -150 12 -235l363 536q-15 51 -45 86q-40 43 -129 43q-84 0 -127 -43q-74 -80 -74 -387z" />
    <glyph glyph-name="ugrave" unicode="&#xf9;" horiz-adv-x="1165" 
d="M1130 25v-25h-366v141q-25 -77 -92.5 -118t-153.5 -41q-166 0 -258 84.5t-92 242.5v539h-135v24h368v-657q0 -211 117 -211q95 0 152.5 49t93.5 156v639h-131v24h366v-847h131zM434 1356l287 -314l-10 -10l-402 223q-43 21 -43 66q0 33 23.5 57.5t58.5 24.5q39 0 86 -47z
" />
    <glyph glyph-name="uacute" unicode="&#xfa;" horiz-adv-x="1165" 
d="M1130 25v-25h-366v141q-25 -77 -92.5 -118t-153.5 -41q-166 0 -258 84.5t-92 242.5v539h-135v24h368v-657q0 -211 117 -211q95 0 152.5 49t93.5 156v639h-131v24h366v-847h131zM442 1032l-10 10l287 314q47 47 86 47q35 0 58.5 -24.5t23.5 -57.5q0 -45 -43 -66z" />
    <glyph glyph-name="ucircumflex" unicode="&#xfb;" horiz-adv-x="1165" 
d="M1130 25v-25h-366v141q-25 -77 -92.5 -118t-153.5 -41q-166 0 -258 84.5t-92 242.5v539h-135v24h368v-657q0 -211 117 -211q95 0 152.5 49t93.5 156v639h-131v24h366v-847h131zM872 1038l-12 -16l-289 174l-266 -174l-12 16q99 102 285 373h8q85 -134 286 -373z" />
    <glyph glyph-name="udieresis" unicode="&#xfc;" horiz-adv-x="1165" 
d="M1130 25v-25h-366v141q-25 -77 -92.5 -118t-153.5 -41q-166 0 -258 84.5t-92 242.5v539h-135v24h368v-657q0 -211 117 -211q95 0 152.5 49t93.5 156v639h-131v24h366v-847h131zM842 1298q35 -32 35 -81.5t-35 -81.5q-32 -32 -81.5 -32t-84.5 32t-35 81.5t35 81.5t84.5 32
t81.5 -32zM522 1217q0 -47 -34.5 -81t-79.5 -34q-51 0 -85 33t-34 82q0 51 33.5 82.5t85.5 31.5q45 0 79.5 -33t34.5 -81z" />
    <glyph glyph-name="yacute" unicode="&#xfd;" horiz-adv-x="952" 
d="M147 -649q-65 0 -110 48.5t-45 115.5q0 54 32.5 91.5t81.5 37.5q43 0 71 -25t28 -61q0 -16 -24.5 -57t-24.5 -58q0 -51 28 -51q91 0 138 121l176 458l-424 877h-123v24h520v-24h-143l286 -590l193 504q35 86 -31 86h-88v24h313v-24h-75q-39 0 -56.5 -15t-40.5 -71
l-481 -1245q-64 -166 -201 -166zM397 1032l-10 10l287 314q47 47 86 47q35 0 58.5 -24.5t23.5 -57.5q0 -45 -43 -66z" />
    <glyph glyph-name="thorn" unicode="&#xfe;" horiz-adv-x="1153" 
d="M184 -606v2087h-133v24h365v-704q32 38 87 64t113 26q183 0 314 -143q133 -142 133 -316q0 -179 -119 -313q-117 -135 -297 -135q-60 0 -124.5 28t-106.5 70v-688h133v-25h-498v25h133zM815 432q0 252 -43 342q-41 92 -156 92q-63 0 -122.5 -32t-77.5 -80v-611
q28 -63 94 -100t137 -37q91 0 129.5 97.5t38.5 328.5z" />
    <glyph glyph-name="ydieresis" unicode="&#xff;" horiz-adv-x="952" 
d="M147 -649q-65 0 -110 48.5t-45 115.5q0 54 32.5 91.5t81.5 37.5q43 0 71 -25t28 -61q0 -16 -24.5 -57t-24.5 -58q0 -51 28 -51q91 0 138 121l176 458l-424 877h-123v24h520v-24h-143l286 -590l193 504q35 86 -31 86h-88v24h313v-24h-75q-39 0 -56.5 -15t-40.5 -71
l-481 -1245q-64 -166 -201 -166zM838 1298q35 -32 35 -81.5t-35 -81.5q-32 -32 -81.5 -32t-84.5 32t-35 81.5t35 81.5t84.5 32t81.5 -32zM518 1217q0 -47 -35 -81t-80 -34q-51 0 -84.5 32.5t-33.5 82.5q0 51 33.5 82.5t84.5 31.5q46 0 80.5 -33t34.5 -81z" />
    <glyph glyph-name="Amacron" unicode="&#x100;" horiz-adv-x="1236" 
d="M332 0h-373v25h117q42 0 69 79l453 1289h37l498 -1368h174v-25h-641v25h176l-137 426h-410l-125 -347q-12 -31 -15 -50t0 -24t9 -5h168v-25zM504 1053l-201 -578h389zM932 1698v-121h-629v121h629z" />
    <glyph glyph-name="amacron" unicode="&#x101;" horiz-adv-x="966" 
d="M940 78l16 -15q-15 -28 -64 -53.5t-101 -25.5q-69 0 -130 40t-71 95q-46 -135 -207 -135q-128 0 -217 51q-90 53 -90 164q0 227 297 254q77 6 147 18q36 6 51 16t15 27v162q0 111 -30.5 153.5t-96.5 42.5q-109 0 -109 -94q0 -13 8.5 -44t8.5 -42q0 -37 -27 -59.5
t-76 -22.5q-48 0 -74 29t-26 74q0 64 86 123q86 57 209 57q173 0 266.5 -94t93.5 -277v-422q0 -69 47 -69q33 0 74 47zM586 236v233q-10 -6 -80 -29q-6 -1 -27.5 -3t-40 -4t-24.5 -3q-59 -12 -82 -64t-23 -184q0 -91 23 -128.5t88 -37.5q73 0 119.5 63.5t46.5 156.5z
M797 1241v-121h-629v121h629z" />
    <glyph glyph-name="Abreve" unicode="&#x102;" horiz-adv-x="1236" 
d="M332 0h-373v25h117q42 0 69 79l453 1289h37l498 -1368h174v-25h-641v25h176l-137 426h-410l-125 -347q-12 -31 -15 -50t0 -24t9 -5h168v-25zM504 1053l-201 -578h389zM868 1823h23q0 -43 -6.5 -83.5t-25.5 -84.5t-48.5 -76t-79.5 -53t-115 -21t-115 21t-79 53t-47.5 76
t-24.5 84t-6 84h23q0 -22 4.5 -43.5t20.5 -48.5t41.5 -46.5t73 -33t109.5 -13.5q63 0 110.5 13.5t74 33t42.5 46.5t20.5 48.5t4.5 43.5z" />
    <glyph glyph-name="abreve" unicode="&#x103;" horiz-adv-x="966" 
d="M940 78l16 -15q-15 -28 -64 -53.5t-101 -25.5q-69 0 -130 40t-71 95q-46 -135 -207 -135q-128 0 -217 51q-90 53 -90 164q0 227 297 254q77 6 147 18q36 6 51 16t15 27v162q0 111 -30.5 153.5t-96.5 42.5q-109 0 -109 -94q0 -13 8.5 -44t8.5 -42q0 -37 -27 -59.5
t-76 -22.5q-48 0 -74 29t-26 74q0 64 86 123q86 57 209 57q173 0 266.5 -94t93.5 -277v-422q0 -69 47 -69q33 0 74 47zM586 236v233q-10 -6 -80 -29q-6 -1 -27.5 -3t-40 -4t-24.5 -3q-59 -12 -82 -64t-23 -184q0 -91 23 -128.5t88 -37.5q73 0 119.5 63.5t46.5 156.5z
M733 1366h23q0 -43 -6.5 -83.5t-25.5 -84.5t-48.5 -75.5t-79.5 -52.5t-115 -21t-115 21t-79 52.5t-47.5 75.5t-24.5 84t-6 84h22q0 -29 9 -56t33 -58.5t77.5 -50.5t130.5 -19q63 0 110.5 13.5t74 33t42.5 46t20.5 48t4.5 43.5z" />
    <glyph glyph-name="Aogonek" unicode="&#x104;" horiz-adv-x="1236" 
d="M332 0h-373v25h117q42 0 69 79l453 1289h37l498 -1368h174v-25h-641v25h176l-137 426h-410l-125 -347q-12 -31 -15 -50t0 -24t9 -5h168v-25zM504 1053l-201 -578h389zM1208 -303l17 -14q-89 -111 -219 -111q-81 0 -130 44t-49 114q0 156 308 288l12 -8q-82 -39 -130 -104
t-48 -123q0 -69 31 -105t83 -36q76 0 125 55z" />
    <glyph glyph-name="aogonek" unicode="&#x105;" horiz-adv-x="966" 
d="M940 78l16 -15q-15 -28 -64 -53.5t-101 -25.5q-69 0 -130 40t-71 95q-46 -135 -207 -135q-128 0 -217 51q-90 53 -90 164q0 227 297 254q77 6 147 18q36 6 51 16t15 27v162q0 111 -30.5 153.5t-96.5 42.5q-109 0 -109 -94q0 -13 8.5 -44t8.5 -42q0 -37 -27 -59.5
t-76 -22.5q-48 0 -74 29t-26 74q0 64 86 123q86 57 209 57q173 0 266.5 -94t93.5 -277v-422q0 -69 47 -69q33 0 74 47zM586 236v233q-10 -6 -80 -29q-6 -1 -27.5 -3t-40 -4t-24.5 -3q-59 -12 -82 -64t-23 -184q0 -91 23 -128.5t88 -37.5q73 0 119.5 63.5t46.5 156.5z
M940 -303l16 -14q-89 -111 -219 -111q-81 0 -129.5 44t-48.5 114q0 156 307 288l13 -8q-82 -39 -130.5 -104.5t-48.5 -122.5q0 -69 31.5 -105t83.5 -36q76 0 125 55z" />
    <glyph glyph-name="Cacute" unicode="&#x106;" horiz-adv-x="1249" 
d="M1145 506v-535h-21q-5 23 -27.5 40.5t-56.5 17.5q-35 0 -159 -31t-174 -31q-261 0 -439 211q-176 212 -176 504q0 293 172 504q177 213 434 213q45 0 150 -27q108 -24 147 -24q37 0 63.5 13.5t31.5 31.5h22v-465h-22q0 145 -129 295q-127 151 -263 151q-126 0 -192 -69
q-115 -124 -115 -623q0 -497 115 -621q65 -71 201 -71q163 0 290 160q127 165 127 356h21zM565 1489l-10 10l287 313q48 48 86 48q35 0 58.5 -24.5t23.5 -57.5q0 -45 -43 -66z" />
    <glyph glyph-name="cacute" unicode="&#x107;" horiz-adv-x="954" 
d="M535 -18q-183 0 -316 133q-131 134 -131 321q0 189 131 320q132 135 316 135q136 0 239 -80t103 -166q0 -94 -99 -94q-42 0 -68 22.5t-26 55.5q0 16 13.5 51.5t13.5 60.5q0 63 -47 93q-43 32 -129 32q-82 0 -125 -43q-41 -41 -57.5 -128t-16.5 -259t16.5 -259t57.5 -128
q43 -43 125 -43q206 0 344 203l16 -16q-147 -211 -360 -211zM377 1032l-10 10l286 314q47 47 86 47q35 0 58.5 -24.5t23.5 -57.5q0 -45 -43 -66z" />
    <glyph glyph-name="Ccircumflex" unicode="&#x108;" horiz-adv-x="1249" 
d="M1145 506v-535h-21q-5 23 -27.5 40.5t-56.5 17.5q-35 0 -159 -31t-174 -31q-261 0 -439 211q-176 212 -176 504q0 293 172 504q177 213 434 213q45 0 150 -27q108 -24 147 -24q37 0 63.5 13.5t31.5 31.5h22v-465h-22q0 145 -129 295q-127 151 -263 151q-126 0 -192 -69
q-115 -124 -115 -623q0 -497 115 -621q65 -71 201 -71q163 0 290 160q127 165 127 356h21zM975 1495l-12 -16l-289 174l-266 -174l-13 16q99 102 285 373h8q82 -131 287 -373z" />
    <glyph glyph-name="ccircumflex" unicode="&#x109;" horiz-adv-x="954" 
d="M535 -18q-183 0 -316 133q-131 134 -131 321q0 189 131 320q132 135 316 135q136 0 239 -80t103 -166q0 -94 -99 -94q-42 0 -68 22.5t-26 55.5q0 16 13.5 51.5t13.5 60.5q0 63 -47 93q-43 32 -129 32q-82 0 -125 -43q-41 -41 -57.5 -128t-16.5 -259t16.5 -259t57.5 -128
q43 -43 125 -43q206 0 344 203l16 -16q-147 -211 -360 -211zM827 1038l-12 -16l-289 174l-266 -174l-12 16q95 98 284 373h9q85 -134 286 -373z" />
    <glyph glyph-name="Cdotaccent" unicode="&#x10a;" horiz-adv-x="1249" 
d="M1145 506v-535h-21q-5 23 -27.5 40.5t-56.5 17.5q-35 0 -159 -31t-174 -31q-261 0 -439 211q-176 212 -176 504q0 293 172 504q177 213 434 213q45 0 150 -27q108 -24 147 -24q37 0 63.5 13.5t31.5 31.5h22v-465h-22q0 145 -129 295q-127 151 -263 151q-126 0 -192 -69
q-115 -124 -115 -623q0 -497 115 -621q65 -71 201 -71q163 0 290 160q127 165 127 356h21zM817 1655q0 -61 -38.5 -101.5t-98.5 -40.5q-54 0 -91.5 41t-37.5 101q0 54 37.5 91.5t91.5 37.5q60 0 98.5 -36.5t38.5 -92.5z" />
    <glyph glyph-name="cdotaccent" unicode="&#x10b;" horiz-adv-x="954" 
d="M535 -18q-183 0 -316 133q-131 134 -131 321q0 189 131 320q132 135 316 135q136 0 239 -80t103 -166q0 -94 -99 -94q-42 0 -68 22.5t-26 55.5q0 16 13.5 51.5t13.5 60.5q0 63 -47 93q-43 32 -129 32q-82 0 -125 -43q-41 -41 -57.5 -128t-16.5 -259t16.5 -259t57.5 -128
q43 -43 125 -43q206 0 344 203l16 -16q-147 -211 -360 -211zM653 1217q0 -47 -34.5 -81t-79.5 -34q-51 0 -85 33t-34 82q0 51 33.5 82.5t85.5 31.5q45 0 79.5 -33t34.5 -81z" />
    <glyph glyph-name="Ccaron" unicode="&#x10c;" horiz-adv-x="1249" 
d="M1145 506v-535h-21q-5 23 -27.5 40.5t-56.5 17.5q-35 0 -159 -31t-174 -31q-261 0 -439 211q-176 212 -176 504q0 293 172 504q177 213 434 213q45 0 150 -27q108 -24 147 -24q37 0 63.5 13.5t31.5 31.5h22v-465h-22q0 145 -129 295q-127 151 -263 151q-126 0 -192 -69
q-115 -124 -115 -623q0 -497 115 -621q65 -71 201 -71q163 0 290 160q127 165 127 356h21zM963 1868l12 -17q-208 -245 -287 -372h-8q-184 268 -285 372l13 17l266 -174z" />
    <glyph glyph-name="ccaron" unicode="&#x10d;" horiz-adv-x="954" 
d="M535 -18q-183 0 -316 133q-131 134 -131 321q0 189 131 320q132 135 316 135q136 0 239 -80t103 -166q0 -94 -99 -94q-42 0 -68 22.5t-26 55.5q0 16 13.5 51.5t13.5 60.5q0 63 -47 93q-43 32 -129 32q-82 0 -125 -43q-41 -41 -57.5 -128t-16.5 -259t16.5 -259t57.5 -128
q43 -43 125 -43q206 0 344 203l16 -16q-147 -211 -360 -211zM815 1411l12 -16q-201 -239 -286 -373h-9q-189 275 -284 373l12 16l266 -174z" />
    <glyph glyph-name="Dcaron" unicode="&#x10e;" horiz-adv-x="1368" 
d="M1272 682q0 -282 -178 -481q-177 -201 -424 -201h-596v25h174v1316h-174v25h596q249 0 426 -201q176 -200 176 -483zM973 682q0 481 -111 592q-64 67 -192 67h-150v-1316h150q128 0 192 67q62 65 86 193q25 138 25 397zM961 1868l12 -17q-208 -245 -287 -372h-8
q-184 268 -285 372l13 17l266 -174z" />
    <glyph glyph-name="dcaron" unicode="&#x10f;" horiz-adv-x="1335" 
d="M1104 25v-25h-369v96q-14 -40 -78.5 -77t-148.5 -37q-181 0 -301 135q-119 137 -119 313q0 173 133 318q134 143 318 143q118 0 196 -84v674h-129v24h365v-1480h133zM735 186v564q-17 50 -74 82t-122 32q-81 0 -127 -43q-76 -73 -76 -391q0 -266 55 -354q44 -68 117 -68
q110 0 168.5 51.5t58.5 126.5zM1335 1360q0 -100 -69 -217q-71 -118 -170 -154l-11 27q46 15 89 67t43 101q0 58 -70 110q-41 38 -41 97q0 50 33 85t80 35q116 0 116 -151z" />
    <glyph glyph-name="Dcroat" unicode="&#x110;" horiz-adv-x="1368" 
d="M84 670v24h164v647h-174v25h596q249 0 426 -201q176 -200 176 -483q0 -282 -178 -481q-177 -201 -424 -201h-596v25h174v645h-164zM973 682q0 481 -111 592q-64 67 -192 67h-150v-647h180v-24h-180v-645h150q128 0 192 67q62 65 86 193q25 138 25 397z" />
    <glyph glyph-name="dslash" unicode="&#x111;" horiz-adv-x="1140" 
d="M336 1161v25h399v295h-129v24h365v-319h133v-25h-133v-1136h133v-25h-369v96q-14 -40 -78.5 -77t-148.5 -37q-181 0 -301 135q-119 137 -119 313q0 173 133 318q134 143 318 143q118 0 196 -84v354h-399zM735 186v564q-17 50 -74 82t-122 32q-81 0 -127 -43
q-76 -73 -76 -391q0 -266 55 -354q44 -68 117 -68q110 0 168.5 51.5t58.5 126.5z" />
    <glyph glyph-name="Emacron" unicode="&#x112;" horiz-adv-x="1220" 
d="M1171 451v-451h-1099v25h176v1316h-176v25h1003v-412h-24q0 151 -86 269q-81 118 -246 118h-201v-626h45q103 0 166.5 76.5t63.5 185.5h26v-549h-26q0 109 -63.5 185.5t-166.5 76.5h-45v-665h207q208 0 317 127q107 128 107 299h22zM924 1698v-121h-629v121h629z" />
    <glyph glyph-name="emacron" unicode="&#x113;" horiz-adv-x="1015" 
d="M545 -18q-183 0 -322 133q-135 135 -135 321q0 188 135 320q138 135 322 135q124 0 219 -74q91 -68 134.5 -155.5t43.5 -172.5v-6h-606v-47q1 -105 7 -172.5t19 -119t37.5 -79t58.5 -41.5t87 -18q107 0 201.5 51t156.5 136l17 -17q-60 -88 -161.5 -141t-213.5 -53z
M336 508h391q-3 239 -70 315q-34 43 -112 43q-86 0 -129 -43q-77 -77 -80 -315zM862 1241v-121h-629v121h629z" />
    <glyph glyph-name="Ebreve" unicode="&#x114;" horiz-adv-x="1220" 
d="M1171 451v-451h-1099v25h176v1316h-176v25h1003v-412h-24q0 151 -86 269q-81 118 -246 118h-201v-626h45q103 0 166.5 76.5t63.5 185.5h26v-549h-26q0 109 -63.5 185.5t-166.5 76.5h-45v-665h207q208 0 317 127q107 128 107 299h22zM860 1823h23q0 -43 -6.5 -83.5
t-25.5 -84.5t-48.5 -76t-79.5 -53t-115 -21t-115 21t-79 53t-47.5 76t-24.5 84t-6 84h22q0 -22 4.5 -43.5t20.5 -48.5t42 -46.5t73.5 -33t109.5 -13.5q63 0 110.5 13.5t74 33t42.5 46.5t20.5 48.5t4.5 43.5z" />
    <glyph glyph-name="ebreve" unicode="&#x115;" horiz-adv-x="1015" 
d="M545 -18q-183 0 -322 133q-135 135 -135 321q0 188 135 320q138 135 322 135q124 0 219 -74q91 -68 134.5 -155.5t43.5 -172.5v-6h-606v-47q1 -105 7 -172.5t19 -119t37.5 -79t58.5 -41.5t87 -18q107 0 201.5 51t156.5 136l17 -17q-60 -88 -161.5 -141t-213.5 -53z
M336 508h391q-3 239 -70 315q-34 43 -112 43q-86 0 -129 -43q-77 -77 -80 -315zM799 1366h22q0 -43 -6.5 -83.5t-25.5 -84.5t-48 -75.5t-79 -52.5t-115 -21t-115 21t-79.5 52.5t-47.5 75.5t-24.5 84t-6.5 84h23q0 -29 9 -56t33 -58.5t77.5 -50.5t130.5 -19q63 0 110.5 13.5
t74 33t42.5 46t20.5 48t4.5 43.5z" />
    <glyph glyph-name="Edotaccent" unicode="&#x116;" horiz-adv-x="1220" 
d="M1171 451v-451h-1099v25h176v1316h-176v25h1003v-412h-24q0 151 -86 269q-81 118 -246 118h-201v-626h45q103 0 166.5 76.5t63.5 185.5h26v-549h-26q0 109 -63.5 185.5t-166.5 76.5h-45v-665h207q208 0 317 127q107 128 107 299h22zM741 1655q0 -61 -38.5 -101.5
t-98.5 -40.5q-54 0 -91.5 41t-37.5 101q0 54 37.5 91.5t91.5 37.5q60 0 98.5 -36.5t38.5 -92.5z" />
    <glyph glyph-name="edotaccent" unicode="&#x117;" horiz-adv-x="1015" 
d="M545 -18q-183 0 -322 133q-135 135 -135 321q0 188 135 320q138 135 322 135q124 0 219 -74q91 -68 134.5 -155.5t43.5 -172.5v-6h-606v-47q1 -105 7 -172.5t19 -119t37.5 -79t58.5 -41.5t87 -18q107 0 201.5 51t156.5 136l17 -17q-60 -88 -161.5 -141t-213.5 -53z
M336 508h391q-3 239 -70 315q-34 43 -112 43q-86 0 -129 -43q-77 -77 -80 -315zM664 1217q0 -47 -35 -81t-80 -34q-51 0 -85 33t-34 82q0 51 33.5 82.5t85.5 31.5q46 0 80.5 -33t34.5 -81z" />
    <glyph glyph-name="Eogonek" unicode="&#x118;" horiz-adv-x="1220" 
d="M1171 451v-451h-1099v25h176v1316h-176v25h1003v-412h-24q0 151 -86 269q-81 118 -246 118h-201v-626h45q103 0 166.5 76.5t63.5 185.5h26v-549h-26q0 109 -63.5 185.5t-166.5 76.5h-45v-665h207q208 0 317 127q107 128 107 299h22zM1155 -303l16 -14q-89 -111 -219 -111
q-81 0 -129.5 44t-48.5 114q0 156 307 288l13 -8q-82 -39 -130.5 -104.5t-48.5 -122.5q0 -69 31.5 -105t83.5 -36q76 0 125 55z" />
    <glyph glyph-name="eogonek" unicode="&#x119;" horiz-adv-x="1015" 
d="M545 -18q-183 0 -322 133q-135 135 -135 321q0 188 135 320q138 135 322 135q124 0 219 -74q91 -68 134.5 -155.5t43.5 -172.5v-6h-606v-47q1 -105 7 -172.5t19 -119t37.5 -79t58.5 -41.5t87 -18q107 0 201.5 51t156.5 136l17 -17q-60 -88 -161.5 -141t-213.5 -53z
M336 508h391q-3 239 -70 315q-34 43 -112 43q-86 0 -129 -43q-77 -77 -80 -315zM762 -303l16 -14q-88 -111 -219 -111q-81 0 -129.5 44t-48.5 114q0 156 307 288l12 -8q-82 -39 -130 -104t-48 -123q0 -69 31.5 -105t83.5 -36q76 0 125 55z" />
    <glyph glyph-name="Ecaron" unicode="&#x11a;" horiz-adv-x="1220" 
d="M1171 451v-451h-1099v25h176v1316h-176v25h1003v-412h-24q0 151 -86 269q-81 118 -246 118h-201v-626h45q103 0 166.5 76.5t63.5 185.5h26v-549h-26q0 109 -63.5 185.5t-166.5 76.5h-45v-665h207q208 0 317 127q107 128 107 299h22zM887 1868l12 -17q-208 -245 -287 -372
h-8q-184 268 -285 372l13 17l266 -174z" />
    <glyph glyph-name="ecaron" unicode="&#x11b;" horiz-adv-x="1015" 
d="M545 -18q-183 0 -322 133q-135 135 -135 321q0 188 135 320q138 135 322 135q124 0 219 -74q91 -68 134.5 -155.5t43.5 -172.5v-6h-606v-47q1 -105 7 -172.5t19 -119t37.5 -79t58.5 -41.5t87 -18q107 0 201.5 51t156.5 136l17 -17q-60 -88 -161.5 -141t-213.5 -53z
M336 508h391q-3 239 -70 315q-34 43 -112 43q-86 0 -129 -43q-77 -77 -80 -315zM825 1411l13 -16q-205 -244 -287 -373h-8q-186 271 -285 373l12 16l267 -174z" />
    <glyph glyph-name="Gcircumflex" unicode="&#x11c;" horiz-adv-x="1286" 
d="M1341 555v-25h-176v-538h-18q0 74 -76 74q-24 0 -151 -50q-125 -49 -246 -49q-263 0 -422 211q-160 213 -160 504q0 293 172 504q177 213 434 213q54 0 140 -27q88 -24 106 -24q37 0 63.5 13.5t28.5 31.5h25v-461h-25q0 153 -102 297q-103 145 -236 145q-126 0 -192 -69
q-113 -119 -113 -623q0 -271 17 -424q15 -132 71 -197q65 -71 193 -71q119 0 169 40.5t50 127.5v372h-174v25h622zM973 1495l-12 -16l-289 174l-266 -174l-13 16q99 102 285 373h8q82 -131 287 -373z" />
    <glyph glyph-name="gcircumflex" unicode="&#x11d;" horiz-adv-x="1034" 
d="M526 -633q-215 0 -352 76q-135 77 -135 192q0 82 72 154q71 71 168 96q-89 17 -151 80.5t-62 140.5q0 80 42 134t136 112q-86 103 -86 209q0 139 102 234q107 96 252 96q172 0 274 -123q64 123 181 123q51 0 78.5 -30.5t27.5 -76.5q0 -40 -19 -64t-46 -24q-31 0 -49.5 14
t-18.5 35q0 9 8 27t8 25q0 14 -15 28.5t-32 14.5q-69 0 -110 -84q65 -77 65 -195q0 -137 -102 -231q-105 -97 -250 -97q-73 0 -143.5 31t-116.5 74q-68 -53 -68 -135q0 -71 39 -93t146 -22h272q190 0 296.5 -90t106.5 -256q0 -118 -83 -207q-157 -168 -435 -168zM526 -608
q167 0 272 68.5t105 193.5q0 98 -71 161.5t-201 63.5h-281q-37 0 -43 2q-67 -39 -92 -86t-25 -137q0 -151 77 -208.5t259 -57.5zM602 289q53 56 53 274q0 224 -53 277q-26 26 -90 26q-62 0 -88 -26q-57 -57 -57 -277q0 -217 57 -274q28 -31 88 -31q59 0 90 31zM807 1038
l-12 -16l-289 174l-266 -174l-13 16q99 102 285 373h8q82 -129 287 -373z" />
    <glyph glyph-name="Gbreve" unicode="&#x11e;" horiz-adv-x="1286" 
d="M1341 555v-25h-176v-538h-18q0 74 -76 74q-24 0 -151 -50q-125 -49 -246 -49q-263 0 -422 211q-160 213 -160 504q0 293 172 504q177 213 434 213q54 0 140 -27q88 -24 106 -24q37 0 63.5 13.5t28.5 31.5h25v-461h-25q0 153 -102 297q-103 145 -236 145q-126 0 -192 -69
q-113 -119 -113 -623q0 -271 17 -424q15 -132 71 -197q65 -71 193 -71q119 0 169 40.5t50 127.5v372h-174v25h622zM934 1823h22q0 -43 -6.5 -83.5t-25.5 -84.5t-48 -76t-79 -53t-115 -21t-115 21t-79 53t-47.5 76t-24.5 84t-6 84h22q0 -22 4.5 -43.5t20.5 -48.5t42 -46.5
t73.5 -33t109.5 -13.5q63 0 110.5 13.5t74 33t42.5 46.5t20.5 48.5t4.5 43.5z" />
    <glyph glyph-name="gbreve" unicode="&#x11f;" horiz-adv-x="1034" 
d="M526 -633q-215 0 -352 76q-135 77 -135 192q0 82 72 154q71 71 168 96q-89 17 -151 80.5t-62 140.5q0 80 42 134t136 112q-86 103 -86 209q0 139 102 234q107 96 252 96q172 0 274 -123q64 123 181 123q51 0 78.5 -30.5t27.5 -76.5q0 -40 -19 -64t-46 -24q-31 0 -49.5 14
t-18.5 35q0 9 8 27t8 25q0 14 -15 28.5t-32 14.5q-69 0 -110 -84q65 -77 65 -195q0 -137 -102 -231q-105 -97 -250 -97q-73 0 -143.5 31t-116.5 74q-68 -53 -68 -135q0 -71 39 -93t146 -22h272q190 0 296.5 -90t106.5 -256q0 -118 -83 -207q-157 -168 -435 -168zM526 -608
q167 0 272 68.5t105 193.5q0 98 -71 161.5t-201 63.5h-281q-37 0 -43 2q-67 -39 -92 -86t-25 -137q0 -151 77 -208.5t259 -57.5zM602 289q53 56 53 274q0 224 -53 277q-26 26 -90 26q-62 0 -88 -26q-57 -57 -57 -277q0 -217 57 -274q28 -31 88 -31q59 0 90 31zM768 1366h23
q0 -43 -6.5 -83.5t-25.5 -84.5t-48.5 -75.5t-79.5 -52.5t-115 -21t-115 21t-79 52.5t-47.5 75.5t-24.5 84t-6 84h22q0 -29 9 -56t33 -58.5t77.5 -50.5t130.5 -19q63 0 110.5 13.5t74 33t42.5 46t20.5 48t4.5 43.5z" />
    <glyph glyph-name="Gdotaccent" unicode="&#x120;" horiz-adv-x="1286" 
d="M1341 555v-25h-176v-538h-18q0 74 -76 74q-24 0 -151 -50q-125 -49 -246 -49q-263 0 -422 211q-160 213 -160 504q0 293 172 504q177 213 434 213q54 0 140 -27q88 -24 106 -24q37 0 63.5 13.5t28.5 31.5h25v-461h-25q0 153 -102 297q-103 145 -236 145q-126 0 -192 -69
q-113 -119 -113 -623q0 -271 17 -424q15 -132 71 -197q65 -71 193 -71q119 0 169 40.5t50 127.5v372h-174v25h622zM815 1655q0 -61 -38.5 -101.5t-98.5 -40.5q-54 0 -91.5 41t-37.5 101q0 54 37.5 91.5t91.5 37.5q60 0 98.5 -36.5t38.5 -92.5z" />
    <glyph glyph-name="gdotaccent" unicode="&#x121;" horiz-adv-x="1034" 
d="M526 -633q-215 0 -352 76q-135 77 -135 192q0 82 72 154q71 71 168 96q-89 17 -151 80.5t-62 140.5q0 80 42 134t136 112q-86 103 -86 209q0 139 102 234q107 96 252 96q172 0 274 -123q64 123 181 123q51 0 78.5 -30.5t27.5 -76.5q0 -40 -19 -64t-46 -24q-31 0 -49.5 14
t-18.5 35q0 9 8 27t8 25q0 14 -15 28.5t-32 14.5q-69 0 -110 -84q65 -77 65 -195q0 -137 -102 -231q-105 -97 -250 -97q-73 0 -143.5 31t-116.5 74q-68 -53 -68 -135q0 -71 39 -93t146 -22h272q190 0 296.5 -90t106.5 -256q0 -118 -83 -207q-157 -168 -435 -168zM526 -608
q167 0 272 68.5t105 193.5q0 98 -71 161.5t-201 63.5h-281q-37 0 -43 2q-67 -39 -92 -86t-25 -137q0 -151 77 -208.5t259 -57.5zM602 289q53 56 53 274q0 224 -53 277q-26 26 -90 26q-62 0 -88 -26q-57 -57 -57 -277q0 -217 57 -274q28 -31 88 -31q59 0 90 31zM633 1217
q0 -47 -35 -81t-80 -34q-51 0 -85 33t-34 82q0 51 33.5 82.5t85.5 31.5q46 0 80.5 -33t34.5 -81z" />
    <glyph glyph-name="Gcommaaccent" unicode="&#x122;" horiz-adv-x="1286" 
d="M1341 555v-25h-176v-538h-18q0 74 -76 74q-24 0 -151 -50q-125 -49 -246 -49q-263 0 -422 211q-160 213 -160 504q0 293 172 504q177 213 434 213q54 0 140 -27q88 -24 106 -24q37 0 63.5 13.5t28.5 31.5h25v-461h-25q0 153 -102 297q-103 145 -236 145q-126 0 -192 -69
q-113 -119 -113 -623q0 -271 17 -424q15 -132 71 -197q65 -71 193 -71q119 0 169 40.5t50 127.5v372h-174v25h622zM768 -252q0 -99 -70 -215q-70 -119 -170 -156l-10 27q43 14 88 68q43 52 43 100q0 60 -69 111q-41 38 -41 96q0 50 32.5 85.5t79.5 35.5q117 0 117 -152z" />
    <glyph glyph-name="gcommaaccent" unicode="&#x123;" horiz-adv-x="1034" 
d="M526 -633q-215 0 -352 76q-135 77 -135 192q0 82 72 154q71 71 168 96q-89 17 -151 80.5t-62 140.5q0 80 42 134t136 112q-86 103 -86 209q0 139 102 234q107 96 252 96q172 0 274 -123q64 123 181 123q51 0 78.5 -30.5t27.5 -76.5q0 -40 -19 -64t-46 -24q-31 0 -49.5 14
t-18.5 35q0 9 8 27t8 25q0 14 -15 28.5t-32 14.5q-69 0 -110 -84q65 -77 65 -195q0 -137 -102 -231q-105 -97 -250 -97q-73 0 -143.5 31t-116.5 74q-68 -53 -68 -135q0 -71 39 -93t146 -22h272q190 0 296.5 -90t106.5 -256q0 -118 -83 -207q-157 -168 -435 -168zM526 -608
q167 0 272 68.5t105 193.5q0 98 -71 161.5t-201 63.5h-281q-37 0 -43 2q-67 -39 -92 -86t-25 -137q0 -151 77 -208.5t259 -57.5zM602 289q53 56 53 274q0 224 -53 277q-26 26 -90 26q-62 0 -88 -26q-57 -57 -57 -277q0 -217 57 -274q28 -31 88 -31q59 0 90 31zM401 1200
q0 99 70 215q70 119 170 156l10 -27q-44 -14 -88 -67q-43 -52 -43 -101q0 -58 70 -110q41 -38 41 -97q0 -50 -33 -85t-80 -35q-117 0 -117 151z" />
    <glyph glyph-name="Hcircumflex" unicode="&#x124;" horiz-adv-x="1454" 
d="M1380 25v-25h-604v25h156v675h-412v-675h158v-25h-604v25h174v1316h-174v25h604v-25h-158v-616h412v616h-156v25h604v-25h-174v-1316h174zM1016 1495l-12 -16l-289 174l-266 -174l-13 16q99 102 285 373h8q82 -131 287 -373z" />
    <glyph glyph-name="hcircumflex" unicode="&#x125;" horiz-adv-x="1173" 
d="M1145 25v-25h-494v25h127v630q0 209 -119 209q-92 0 -148 -48t-91 -154v-637h129v-25h-498v25h133v1456h-133v24h369v-774q25 77 90.5 118.5t148.5 41.5q166 0 260.5 -90.5t94.5 -251.5v-524h131zM586 1579l-13 -16l-288 174l-267 -174l-12 16q99 102 285 373h8
q82 -129 287 -373z" />
    <glyph glyph-name="Hbar" unicode="&#x126;" horiz-adv-x="1454" 
d="M59 1014v24h189v303h-174v25h604v-25h-158v-303h412v303h-156v25h604v-25h-174v-303h183v-24h-183v-989h174v-25h-604v25h156v675h-412v-675h158v-25h-604v25h174v989h-189zM520 1014v-289h412v289h-412z" />
    <glyph glyph-name="hbar" unicode="&#x127;" horiz-adv-x="1173" 
d="M1145 25v-25h-494v25h127v632q0 209 -119 209q-92 0 -148 -48t-91 -154v-639h129v-25h-498v25h133v1136h-133v25h133v295h-133v24h369v-319h399v-25h-399v-430q25 77 90.5 118.5t148.5 41.5q166 0 260.5 -90.5t94.5 -251.5v-524h131z" />
    <glyph glyph-name="Itilde" unicode="&#x128;" horiz-adv-x="768" 
d="M672 1790h28q0 -96 -73 -166q-71 -68 -170 -68q-34 0 -66 12.5t-56.5 31t-46.5 36.5t-45 30.5t-44 12.5q-43 0 -72 -36t-29 -87h-30q0 99 64 166.5t161 67.5q77 0 153 -61q82 -60 121 -60q45 0 75 34t30 87zM698 25v-25h-624v25h174v1316h-174v25h624v-25h-178v-1316h178
z" />
    <glyph glyph-name="itilde" unicode="&#x129;" horiz-adv-x="628" 
d="M602 1333h29q0 -95 -74 -166q-70 -67 -170 -67q-34 0 -66 12.5t-56.5 31t-46.5 36.5t-45 30.5t-44 12.5q-42 0 -71 -36t-29 -87h-31q0 99 64 166t161 67q78 0 154 -61q82 -60 121 -60q45 0 74.5 34t29.5 87zM575 25v-25h-501v25h135v823h-135v24h368v-847h133z" />
    <glyph glyph-name="Imacron" unicode="&#x12a;" horiz-adv-x="768" 
d="M698 25v-25h-624v25h174v1316h-174v25h624v-25h-178v-1316h178zM698 1698v-121h-628v121h628z" />
    <glyph glyph-name="imacron" unicode="&#x12b;" horiz-adv-x="628" 
d="M575 25v-25h-501v25h135v823h-135v24h368v-847h133zM629 1241v-121h-629v121h629z" />
    <glyph glyph-name="Ibreve" unicode="&#x12c;" horiz-adv-x="768" 
d="M635 1823h22q0 -43 -6.5 -83.5t-25.5 -84.5t-48 -76t-79 -53t-115 -21t-115 21t-79 53t-47.5 76t-24.5 84t-6 84h22q0 -22 4.5 -43.5t20.5 -48.5t42 -46.5t73.5 -33t109.5 -13.5q63 0 110.5 13.5t74 33t42.5 46.5t20.5 48.5t4.5 43.5zM698 25v-25h-624v25h174v1316h-174
v25h624v-25h-178v-1316h178z" />
    <glyph glyph-name="ibreve" unicode="&#x12d;" horiz-adv-x="628" 
d="M565 1366h23q0 -43 -6.5 -83.5t-25.5 -84.5t-48.5 -75.5t-79.5 -52.5t-115 -21t-115 21t-79 52.5t-47.5 75.5t-24.5 84t-6 84h22q0 -29 9 -56t33 -58.5t77.5 -50.5t130.5 -19q63 0 110.5 13.5t74 33t42.5 46t20.5 48t4.5 43.5zM575 25v-25h-501v25h135v823h-135v24h368
v-847h133z" />
    <glyph glyph-name="Iogonek" unicode="&#x12e;" horiz-adv-x="768" 
d="M698 25v-25h-624v25h174v1316h-174v25h624v-25h-178v-1316h178zM682 -303l16 -14q-88 -111 -219 -111q-81 0 -129.5 44t-48.5 114q0 156 307 288l13 -8q-82 -39 -130.5 -104.5t-48.5 -122.5q0 -69 31.5 -105t83.5 -36q76 0 125 55z" />
    <glyph glyph-name="iogonek" unicode="&#x12f;" horiz-adv-x="628" 
d="M575 25v-25h-501v25h135v823h-135v24h368v-847h133zM457 1225q0 -60 -39 -101t-99 -41q-54 0 -91.5 41t-37.5 101q0 54 37.5 91.5t91.5 37.5q60 0 99 -36.5t39 -92.5zM496 -303l16 -14q-88 -111 -219 -111q-81 0 -129.5 44t-48.5 114q0 156 307 288l12 -8
q-82 -39 -130 -104t-48 -123q0 -69 31.5 -105t83.5 -36q76 0 125 55z" />
    <glyph glyph-name="Idot" unicode="&#x130;" horiz-adv-x="768" 
d="M698 25v-25h-624v25h174v1316h-174v25h624v-25h-178v-1316h178zM516 1655q0 -61 -38.5 -101.5t-98.5 -40.5q-54 0 -91.5 41t-37.5 101q0 54 37.5 91.5t91.5 37.5q60 0 98.5 -36.5t38.5 -92.5z" />
    <glyph glyph-name="dotlessi" unicode="&#x131;" horiz-adv-x="628" 
d="M575 25v-25h-501v25h135v823h-135v24h368v-847h133z" />
    <glyph glyph-name="Jcircumflex" unicode="&#x134;" horiz-adv-x="974" 
d="M948 1366v-25h-178v-1019q0 -164 -106 -259.5t-281 -95.5q-128 0 -229 82t-101 191q0 71 45 120.5t101 49.5q57 0 99 -44.5t42 -101.5q0 -63 -45 -102t-45 -68q0 -43 40.5 -73.5t92.5 -30.5q68 0 92.5 34.5t24.5 122.5v1194h-174v25h622zM920 1495l-13 -16l-289 174
l-266 -174l-12 16q99 102 285 373h8q82 -131 287 -373z" />
    <glyph glyph-name="jcircumflex" unicode="&#x135;" horiz-adv-x="602" 
d="M442 872v-921q0 -308 -100.5 -453t-284.5 -145q-77 0 -137 51q-61 52 -61 123q0 43 32 77t76 34q50 0 78.5 -23t28.5 -61q0 -15 -16.5 -50.5t-16.5 -58.5q0 -37 12 -50t47 -13q109 0 109 241v1225h-133v24h366zM592 1038l-12 -16l-289 174l-266 -174l-13 16
q99 102 285 373h8q82 -129 287 -373z" />
    <glyph glyph-name="Kcommaaccent" unicode="&#x136;" horiz-adv-x="1300" 
d="M698 0h-624v25h174v1316h-174v25h624v-25h-176v-653l475 574q64 79 29 79h-133v25h364v-25h-112q-29 0 -51.5 -13.5t-65.5 -65.5l-328 -398l574 -839h190v-25h-696v25h188l-434 651v-651h176v-25zM815 -252q0 -99 -70 -215q-70 -119 -170 -156l-10 27q43 14 88 68
q43 52 43 100q0 60 -69 111q-41 38 -41 96q0 50 32.5 85.5t79.5 35.5q117 0 117 -152z" />
    <glyph glyph-name="kcommaaccent" unicode="&#x137;" horiz-adv-x="1112" 
d="M553 0h-500v25h135v1456h-135v24h369v-1024l311 281q71 80 27 86h-78v24h326v-24h-86q-70 0 -160 -84l-182 -166l450 -573h137v-25h-518v25h123l-350 444v-444h131v-25zM680 -252q0 -99 -70 -215q-70 -119 -170 -156l-10 27q43 14 88 68q43 52 43 100q0 60 -69 111
q-41 38 -41 96q0 50 32.5 85.5t79.5 35.5q117 0 117 -152z" />
    <glyph glyph-name="kgreenlandic" unicode="&#x138;" horiz-adv-x="1112" 
d="M782 764l-202 -197l450 -542h137v-25h-518v25h123l-350 413v-413h131v-25h-500v25h135v823h-135v24h369v-421l328 311q71 80 26 86h-94v24h346v-24h-86q-70 0 -160 -84z" />
    <glyph glyph-name="Lacute" unicode="&#x139;" horiz-adv-x="1161" 
d="M1116 467v-467h-1042v25h174v1316h-174v25h624v-25h-176v-1316h148q194 0 307 137q115 139 115 305h24zM379 1489l-10 10l286 313q48 48 86 48q35 0 58.5 -24.5t23.5 -57.5q0 -45 -43 -66z" />
    <glyph glyph-name="lacute" unicode="&#x13a;" horiz-adv-x="585" 
d="M549 25v-25h-498v25h133v1456h-133v24h369v-1480h129zM129 1565l-10 10l287 313q47 47 86 47q34 0 57.5 -24.5t23.5 -57.5q0 -44 -43 -65z" />
    <glyph glyph-name="Lcommaaccent" unicode="&#x13b;" horiz-adv-x="1161" 
d="M1116 467v-467h-1042v25h174v1316h-174v25h624v-25h-176v-1316h148q194 0 307 137q115 139 115 305h24zM705 -252q0 -99 -70 -215q-70 -119 -170 -156l-10 27q43 14 88 68q43 52 43 100q0 59 -70 111q-41 38 -41 96q0 50 33 85.5t80 35.5q117 0 117 -152z" />
    <glyph glyph-name="lcommaaccent" unicode="&#x13c;" horiz-adv-x="585" 
d="M549 25v-25h-498v25h133v1456h-133v24h369v-1480h129zM418 -252q0 -99 -70 -215q-70 -119 -170 -156l-10 27q43 14 88 68q43 52 43 100q0 59 -70 111q-41 38 -41 96q0 50 33 85.5t80 35.5q117 0 117 -152z" />
    <glyph glyph-name="Lcaron" unicode="&#x13d;" horiz-adv-x="1161" 
d="M1116 467v-467h-1042v25h174v1316h-174v25h624v-25h-176v-1316h148q194 0 307 137q115 139 115 305h24zM1012 1360q0 -98 -70 -217q-71 -118 -170 -154l-10 27q44 14 88 67q43 52 43 101q0 58 -70 110q-41 38 -41 97q0 50 33 85t80 35q117 0 117 -151z" />
    <glyph glyph-name="lcaron" unicode="&#x13e;" horiz-adv-x="802" 
d="M549 25v-25h-498v25h133v1456h-133v24h369v-1480h129zM803 1360q0 -98 -70 -217q-71 -118 -170 -154l-10 27q44 14 88 67q43 52 43 101q0 58 -70 110q-41 38 -41 97q0 50 33 85t80 35q117 0 117 -151z" />
    <glyph glyph-name="Ldot" unicode="&#x13f;" horiz-adv-x="1161" 
d="M1116 467v-467h-1042v25h174v1316h-174v25h624v-25h-176v-1316h148q194 0 307 137q115 139 115 305h24zM1044 735q0 -60 -38.5 -100.5t-98.5 -40.5q-54 0 -91.5 40.5t-37.5 100.5q0 54 37.5 91.5t91.5 37.5q60 0 98.5 -36.5t38.5 -92.5z" />
    <glyph glyph-name="ldot" unicode="&#x140;" horiz-adv-x="796" 
d="M549 25v-25h-498v25h133v1456h-133v24h369v-1480h129zM803 768q0 -47 -35 -81t-80 -34q-51 0 -85 33t-34 82q0 51 34 83t85 32q45 0 80 -33.5t35 -81.5z" />
    <glyph glyph-name="Lslash" unicode="&#x141;" horiz-adv-x="1161" 
d="M72 467l-13 18l189 109v747h-174v25h624v-25h-176v-589l295 172l12 -21l-307 -178v-700h148q194 0 307 137q115 139 115 305h24v-467h-1042v25h174v542z" />
    <glyph glyph-name="lslash" unicode="&#x142;" horiz-adv-x="585" 
d="M55 399l-18 23l147 147v912h-133v24h369v-700l141 141l17 -22l-158 -160v-739h129v-25h-498v25h133v503z" />
    <glyph glyph-name="Nacute" unicode="&#x143;" horiz-adv-x="1355" 
d="M1159 -25h-41l-854 1344v-1235q0 -59 70 -59h106v-25h-374v25h106q68 0 68 59v1257h-177v25h488l584 -932v850q0 57 -68 57h-106v25h374v-25h-104q-72 0 -72 -57v-1309zM578 1489l-11 10l287 313q48 48 86 48q35 0 58.5 -24.5t23.5 -57.5q0 -45 -43 -66z" />
    <glyph glyph-name="nacute" unicode="&#x144;" horiz-adv-x="1185" 
d="M563 0h-500v25h134v823h-134v24h367v-141q25 77 93 118.5t151 41.5q166 0 260 -90.5t94 -251.5v-524h131v-25h-495v25h129v632q0 209 -119 209q-93 0 -151 -48t-93 -154v-639h133v-25zM453 1032l-11 10l287 314q47 47 86 47q35 0 58.5 -24.5t23.5 -57.5q0 -45 -43 -66z
" />
    <glyph glyph-name="Ncommaaccent" unicode="&#x145;" horiz-adv-x="1355" 
d="M1159 -25h-41l-854 1344v-1235q0 -59 70 -59h106v-25h-374v25h106q68 0 68 59v1257h-177v25h488l584 -932v850q0 57 -68 57h-106v25h374v-25h-104q-72 0 -72 -57v-1309zM803 -252q0 -99 -70 -215q-70 -119 -170 -156l-10 27q43 14 88 68q43 52 43 100q0 59 -70 111
q-41 38 -41 96q0 50 33 85.5t80 35.5q117 0 117 -152z" />
    <glyph glyph-name="ncommaaccent" unicode="&#x146;" horiz-adv-x="1185" 
d="M563 0h-500v25h134v823h-134v24h367v-141q25 77 93 118.5t151 41.5q166 0 260 -90.5t94 -251.5v-524h131v-25h-495v25h129v632q0 209 -119 209q-93 0 -151 -48t-93 -154v-639h133v-25zM717 -252q0 -99 -70 -215q-70 -119 -170 -156l-10 27q43 14 88 68q43 52 43 100
q0 59 -70 111q-41 38 -41 96q0 50 33 85.5t80 35.5q117 0 117 -152z" />
    <glyph glyph-name="Ncaron" unicode="&#x147;" horiz-adv-x="1355" 
d="M1159 -25h-41l-854 1344v-1235q0 -59 70 -59h106v-25h-374v25h106q68 0 68 59v1257h-177v25h488l584 -932v850q0 57 -68 57h-106v25h374v-25h-104q-72 0 -72 -57v-1309zM954 1868l13 -17q-208 -245 -287 -372h-8q-184 268 -285 372l12 17l267 -174z" />
    <glyph glyph-name="ncaron" unicode="&#x148;" horiz-adv-x="1185" 
d="M563 0h-500v25h134v823h-134v24h367v-141q25 77 93 118.5t151 41.5q166 0 260 -90.5t94 -251.5v-524h131v-25h-495v25h129v632q0 209 -119 209q-93 0 -151 -48t-93 -154v-639h133v-25zM870 1411l13 -16q-205 -244 -287 -373h-8q-186 271 -285 373l12 16l267 -174z" />
    <glyph glyph-name="napostrophe" unicode="&#x149;" horiz-adv-x="1310" 
d="M688 0h-500v25h134v823h-134v24h367v-141q25 77 93 118.5t151 41.5q166 0 260 -90.5t94 -251.5v-524h131v-25h-496v25h130v632q0 209 -119 209q-93 0 -151 -48t-93 -154v-639h133v-25zM252 1227q0 -98 -70 -217q-71 -118 -170 -154l-10 27q44 14 88 67q43 52 43 101
q0 58 -70 110q-40 37 -40 96q0 50 32.5 85.5t79.5 35.5q117 0 117 -151z" />
    <glyph glyph-name="Omacron" unicode="&#x14c;" horiz-adv-x="1398" 
d="M92 682q0 293 172 504q177 213 434 213q250 0 428 -211q179 -209 179 -506t-179 -506t-428 -209t-428 209q-178 208 -178 506zM1004 682q0 504 -113 623q-66 69 -193 69t-190 -69q-115 -121 -115 -623q0 -270 25 -414q27 -138 90 -207q65 -71 190 -71q128 0 193 71
q64 67 88 205q25 144 25 416zM1014 1698v-121h-629v121h629z" />
    <glyph glyph-name="omacron" unicode="&#x14d;" horiz-adv-x="1073" 
d="M535 -18q-183 0 -316 133q-131 134 -131 321q0 189 131 320q132 135 316 135t317 -133t133 -322q0 -188 -133 -321t-317 -133zM664 823q-40 43 -129 43q-84 0 -127 -43q-74 -80 -74 -387t74 -387q43 -43 127 -43q89 0 129 43q75 75 75 387t-75 387zM850 1241v-121h-629
v121h629z" />
    <glyph glyph-name="Obreve" unicode="&#x14e;" horiz-adv-x="1398" 
d="M92 682q0 293 172 504q177 213 434 213q250 0 428 -211q179 -209 179 -506t-179 -506t-428 -209t-428 209q-178 208 -178 506zM1004 682q0 504 -113 623q-66 69 -193 69t-190 -69q-115 -121 -115 -623q0 -270 25 -414q27 -138 90 -207q65 -71 190 -71q128 0 193 71
q64 67 88 205q25 144 25 416zM950 1823h23q0 -43 -6.5 -83.5t-25.5 -84.5t-48.5 -76t-79.5 -53t-115 -21t-115 21t-79 53t-47.5 76t-24.5 84t-6 84h23q0 -22 4.5 -43.5t20.5 -48.5t41.5 -46.5t73 -33t109.5 -13.5q63 0 110.5 13.5t74 33t42.5 46.5t20.5 48.5t4.5 43.5z" />
    <glyph glyph-name="obreve" unicode="&#x14f;" horiz-adv-x="1073" 
d="M535 -18q-183 0 -316 133q-131 134 -131 321q0 189 131 320q132 135 316 135t317 -133t133 -322q0 -188 -133 -321t-317 -133zM664 823q-40 43 -129 43q-84 0 -127 -43q-74 -80 -74 -387t74 -387q43 -43 127 -43q89 0 129 43q75 75 75 387t-75 387zM786 1366h23
q0 -43 -6.5 -83.5t-25.5 -84.5t-48 -75.5t-79 -52.5t-115 -21t-115 21t-79.5 52.5t-47.5 75.5t-24.5 84t-6.5 84h23q0 -29 9 -56t33 -58.5t77.5 -50.5t130.5 -19q63 0 110.5 13.5t73.5 33t42 46t20.5 48t4.5 43.5z" />
    <glyph glyph-name="Ohungarumlaut" unicode="&#x150;" horiz-adv-x="1398" 
d="M92 682q0 293 172 504q177 213 434 213q250 0 428 -211q179 -209 179 -506t-179 -506t-428 -209t-428 209q-178 208 -178 506zM1004 682q0 504 -113 623q-66 69 -193 69t-190 -69q-115 -121 -115 -623q0 -270 25 -414q27 -138 90 -207q65 -71 190 -71q128 0 193 71
q64 67 88 205q25 144 25 416zM424 1489l-10 10l286 313q48 48 86 48q35 0 58.5 -24.5t23.5 -57.5q0 -45 -43 -66zM700 1489l-10 10l287 313q48 48 86 48q35 0 58.5 -24.5t23.5 -57.5q0 -45 -43 -66z" />
    <glyph glyph-name="ohungarumlaut" unicode="&#x151;" horiz-adv-x="1073" 
d="M535 -18q-183 0 -316 133q-131 134 -131 321q0 189 131 320q132 135 316 135t317 -133t133 -322q0 -188 -133 -321t-317 -133zM664 823q-40 43 -129 43q-84 0 -127 -43q-74 -80 -74 -387t74 -387q43 -43 127 -43q89 0 129 43q75 75 75 387t-75 387zM240 1032l-11 10
l287 314q47 47 86 47q35 0 58.5 -24.5t23.5 -57.5q0 -45 -43 -66zM516 1032l-10 10l287 314q47 47 86 47q35 0 58.5 -24.5t23.5 -57.5q0 -45 -43 -66z" />
    <glyph glyph-name="OE" unicode="&#x152;" horiz-adv-x="1888" 
d="M698 25h217v1316h-217q-127 0 -190 -69q-63 -66 -89 -202t-26 -388q0 -268 25 -393q26 -128 93 -196t187 -68zM1839 451v-451h-1139q-252 0 -432 195q-176 194 -176 487q0 289 172 485q172 199 434 199h1045v-412h-25q0 151 -86 269q-81 118 -246 118h-200v-626h45
q103 0 166 76.5t63 185.5h27v-549h-27q0 109 -63 185.5t-166 76.5h-45v-665h207q208 0 317 127q107 128 107 299h22z" />
    <glyph glyph-name="oe" unicode="&#x153;" horiz-adv-x="1662" 
d="M535 891q196 0 327 -143q137 143 330 143q124 0 219 -74q91 -68 134.5 -155.5t43.5 -172.5v-6h-606v-47q1 -105 7 -172.5t19 -119t37.5 -79t58.5 -41.5t87 -18q107 0 201.5 51t156.5 136l17 -17q-60 -88 -161.5 -141t-213.5 -53q-193 0 -330 143q-137 -143 -327 -143
q-183 0 -316 133q-131 134 -131 321q0 189 131 320q132 135 316 135zM664 823q-40 43 -129 43q-84 0 -127 -43q-74 -80 -74 -387t74 -387q43 -43 127 -43q89 0 129 43q75 75 75 387t-75 387zM983 508h391q-3 240 -69 315q-34 43 -113 43q-86 0 -129 -43q-77 -77 -80 -315z
" />
    <glyph glyph-name="Racute" unicode="&#x154;" horiz-adv-x="1290" 
d="M1356 72l14 -17q-61 -67 -160 -67q-131 0 -231 92q-98 91 -98 282v105q0 121 -65.5 176t-201.5 55h-94v-673h156v-25h-602v25h174v1316h-174v25h583q202 0 324 -96q121 -95 121 -240q0 -133 -101 -227q-103 -92 -245 -92q198 0 301 -109q102 -108 102 -264v-168
q0 -141 103 -141q57 0 94 43zM829 1024q0 185 -45 250q-46 67 -174 67h-90v-618h94q138 0 177 57q38 55 38 244zM442 1489l-10 10l287 313q48 48 86 48q35 0 58.5 -24.5t23.5 -57.5q0 -45 -43 -66z" />
    <glyph glyph-name="racute" unicode="&#x155;" horiz-adv-x="866" 
d="M831 702q0 -66 -31.5 -101.5t-86.5 -35.5q-53 0 -84 24.5t-31 63.5q0 22 15.5 58.5t15.5 48.5q0 36 -19 63t-45 27q-21 0 -37 -6t-35.5 -25.5t-38 -64.5t-34.5 -115v-614h127v-25h-496v25h133v823h-133v24h369v-141q31 90 80 125t127 35q88 0 146 -57t58 -132zM272 1032
l-10 10l287 314q47 47 86 47q35 0 58.5 -24.5t23.5 -57.5q0 -45 -43 -66z" />
    <glyph glyph-name="Rcommaaccent" unicode="&#x156;" horiz-adv-x="1290" 
d="M1356 72l14 -17q-61 -67 -160 -67q-131 0 -231 92q-98 91 -98 282v105q0 121 -65.5 176t-201.5 55h-94v-673h156v-25h-602v25h174v1316h-174v25h583q202 0 324 -96q121 -95 121 -240q0 -133 -101 -227q-103 -92 -245 -92q198 0 301 -109q102 -108 102 -264v-168
q0 -141 103 -141q57 0 94 43zM829 1024q0 185 -45 250q-46 67 -174 67h-90v-618h94q138 0 177 57q38 55 38 244zM831 -252q0 -100 -69 -215q-70 -119 -170 -156l-10 27q43 14 88 68q43 52 43 100q0 59 -70 111q-41 38 -41 96q0 50 33 85.5t80 35.5q116 0 116 -152z" />
    <glyph glyph-name="rcommaaccent" unicode="&#x157;" horiz-adv-x="866" 
d="M831 702q0 -66 -31.5 -101.5t-86.5 -35.5q-53 0 -84 24.5t-31 63.5q0 22 15.5 58.5t15.5 48.5q0 36 -19 63t-45 27q-21 0 -37 -6t-35.5 -25.5t-38 -64.5t-34.5 -115v-614h127v-25h-496v25h133v823h-133v24h369v-141q31 90 80 125t127 35q88 0 146 -57t58 -132zM434 -252
q0 -100 -69 -215q-70 -119 -170 -156l-11 27q43 14 88 68q43 52 43 100q0 60 -69 111q-41 38 -41 96q0 50 32.5 85.5t79.5 35.5q117 0 117 -152z" />
    <glyph glyph-name="Rcaron" unicode="&#x158;" horiz-adv-x="1290" 
d="M1356 72l14 -17q-61 -67 -160 -67q-131 0 -231 92q-98 91 -98 282v105q0 121 -65.5 176t-201.5 55h-94v-673h156v-25h-602v25h174v1316h-174v25h583q202 0 324 -96q121 -95 121 -240q0 -133 -101 -227q-103 -92 -245 -92q198 0 301 -109q102 -108 102 -264v-168
q0 -141 103 -141q57 0 94 43zM829 1024q0 185 -45 250q-46 67 -174 67h-90v-618h94q138 0 177 57q38 55 38 244zM922 1868l12 -17q-208 -245 -287 -372h-8q-184 268 -285 372l13 17l266 -174z" />
    <glyph glyph-name="rcaron" unicode="&#x159;" horiz-adv-x="866" 
d="M831 702q0 -66 -31.5 -101.5t-86.5 -35.5q-53 0 -84 24.5t-31 63.5q0 22 15.5 58.5t15.5 48.5q0 36 -19 63t-45 27q-21 0 -37 -6t-35.5 -25.5t-38 -64.5t-34.5 -115v-614h127v-25h-496v25h133v823h-133v24h369v-141q31 90 80 125t127 35q88 0 146 -57t58 -132zM711 1411
l12 -16q-205 -244 -287 -373h-8q-186 271 -285 373l13 16l266 -174z" />
    <glyph glyph-name="Sacute" unicode="&#x15a;" horiz-adv-x="1040" 
d="M995 438q0 -185 -118 -327q-120 -144 -324 -144q-74 0 -184 39q-115 41 -140 41q-38 0 -66.5 -22t-33.5 -52h-25v463h25q0 -79 53 -182q52 -102 154 -184q103 -80 215 -80q147 0 224 66.5t77 174.5q0 75 -19.5 120t-74.5 85q-56 41 -115 68q-58 27 -186 74
q-161 60 -236.5 147t-75.5 238q0 186 107 311t254 125q60 0 125 -27q67 -24 117 -24q68 0 77 45h21v-359h-21q0 137 -94 238q-95 102 -223 102q-108 0 -171 -61t-63 -162t74.5 -169t255.5 -136q203 -76 299 -162q92 -83 92 -246zM399 1489l-10 10l287 313q48 48 86 48
q35 0 58.5 -24.5t23.5 -57.5q0 -45 -43 -66z" />
    <glyph glyph-name="sacute" unicode="&#x15b;" horiz-adv-x="813" 
d="M758 285q0 -131 -89.5 -217t-234.5 -86q-75 0 -137 26q-66 29 -90 29q-25 0 -49 -13t-29 -26h-20v315h24q0 -132 86 -221q86 -86 215 -86q91 0 141 48.5t50 138.5q0 70 -53.5 106.5t-196.5 69.5q-127 27 -188.5 83.5t-61.5 153.5q0 132 80 209q82 76 190 76
q47 0 113.5 -19.5t75.5 -19.5q17 0 32 15.5t15 25.5h20v-254h-20q0 88 -78 160q-77 71 -158 71q-73 0 -113 -41t-40 -120q0 -65 51 -98t196 -70q123 -31 196 -96.5t73 -159.5zM266 1032l-10 10l287 314q47 47 86 47q35 0 58.5 -24.5t23.5 -57.5q0 -45 -43 -66z" />
    <glyph glyph-name="Scircumflex" unicode="&#x15c;" horiz-adv-x="1040" 
d="M995 438q0 -185 -118 -327q-120 -144 -324 -144q-74 0 -184 39q-115 41 -140 41q-38 0 -66.5 -22t-33.5 -52h-25v463h25q0 -79 53 -182q52 -102 154 -184q103 -80 215 -80q147 0 224 66.5t77 174.5q0 75 -19.5 120t-74.5 85q-56 41 -115 68q-58 27 -186 74
q-161 60 -236.5 147t-75.5 238q0 186 107 311t254 125q60 0 125 -27q67 -24 117 -24q68 0 77 45h21v-359h-21q0 137 -94 238q-95 102 -223 102q-108 0 -171 -61t-63 -162t74.5 -169t255.5 -136q203 -76 299 -162q92 -83 92 -246zM809 1495l-12 -16l-289 174l-266 -174
l-13 16q99 102 285 373h8q82 -131 287 -373z" />
    <glyph glyph-name="scircumflex" unicode="&#x15d;" horiz-adv-x="813" 
d="M758 285q0 -131 -89.5 -217t-234.5 -86q-75 0 -137 26q-66 29 -90 29q-25 0 -49 -13t-29 -26h-20v315h24q0 -132 86 -221q86 -86 215 -86q91 0 141 48.5t50 138.5q0 70 -53.5 106.5t-196.5 69.5q-127 27 -188.5 83.5t-61.5 153.5q0 132 80 209q82 76 190 76
q47 0 113.5 -19.5t75.5 -19.5q17 0 32 15.5t15 25.5h20v-254h-20q0 88 -78 160q-77 71 -158 71q-73 0 -113 -41t-40 -120q0 -65 51 -98t196 -70q123 -31 196 -96.5t73 -159.5zM696 1038l-12 -16l-289 174l-266 -174l-12 16q95 98 284 373h9q85 -134 286 -373z" />
    <glyph glyph-name="Scedilla" unicode="&#x15e;" horiz-adv-x="1040" 
d="M541 -461q-66 0 -104 32.5t-38 76.5q0 21 14.5 36t37.5 15q47 0 47 -41q0 -14 -11.5 -32t-11.5 -21q0 -41 66 -41q58 0 98.5 26t40.5 66q0 21 -18.5 35.5t-44.5 25t-52 24t-44.5 40t-18.5 65.5q0 60 37 121q-65 3 -174 41q-104 39 -136 39q-38 0 -66.5 -22t-33.5 -52h-25
v463h25q0 -79 53 -182q52 -102 154 -184q103 -80 215 -80q147 0 224 66.5t77 174.5q0 75 -19.5 120t-74.5 85q-56 41 -115 68q-58 27 -186 74q-161 60 -236.5 147t-75.5 238q0 186 107 311t254 125q60 0 125 -27q67 -24 117 -24q68 0 77 45h21v-359h-21q0 137 -94 238
q-95 102 -223 102q-108 0 -171 -61t-63 -162t74.5 -169t255.5 -136q203 -76 299 -162q92 -83 92 -246q0 -180 -116 -323q-115 -142 -314 -148q-12 -18 -12 -37q0 -39 24.5 -65.5t59.5 -38.5q34 -12 59 -44.5t25 -80.5q0 -74 -47 -118t-133 -44z" />
    <glyph glyph-name="scedilla" unicode="&#x15f;" horiz-adv-x="813" 
d="M758 285q0 -131 -89.5 -217t-234.5 -86q-75 0 -137 26q-66 29 -90 29q-25 0 -49 -13t-29 -26h-20v315h24q0 -132 86 -221q86 -86 215 -86q91 0 141 48.5t50 138.5q0 70 -53.5 106.5t-196.5 69.5q-127 27 -188.5 83.5t-61.5 153.5q0 132 80 209q82 76 190 76
q47 0 113.5 -19.5t75.5 -19.5q17 0 32 15.5t15 25.5h20v-254h-20q0 88 -78 160q-77 71 -158 71q-73 0 -113 -41t-40 -120q0 -65 51 -98t196 -70q123 -31 196 -96.5t73 -159.5zM399 -461q-66 0 -103.5 32.5t-37.5 76.5q0 21 14 36t37 15q47 0 47 -41q0 -14 -11 -32t-11 -21
q0 -41 65 -41q58 0 99 26t41 66q0 21 -18.5 35.5t-44.5 25t-52.5 24t-45 40t-18.5 65.5q0 78 52 142l24 -6q-24 -24 -24 -52q0 -39 24.5 -65.5t59.5 -38.5q34 -12 59 -44.5t25 -80.5q0 -74 -47.5 -118t-133.5 -44z" />
    <glyph glyph-name="Scaron" unicode="&#x160;" horiz-adv-x="1040" 
d="M995 438q0 -185 -118 -327q-120 -144 -324 -144q-74 0 -184 39q-115 41 -140 41q-38 0 -66.5 -22t-33.5 -52h-25v463h25q0 -79 53 -182q52 -102 154 -184q103 -80 215 -80q147 0 224 66.5t77 174.5q0 75 -19.5 120t-74.5 85q-56 41 -115 68q-58 27 -186 74
q-161 60 -236.5 147t-75.5 238q0 186 107 311t254 125q60 0 125 -27q67 -24 117 -24q68 0 77 45h21v-359h-21q0 137 -94 238q-95 102 -223 102q-108 0 -171 -61t-63 -162t74.5 -169t255.5 -136q203 -76 299 -162q92 -83 92 -246zM797 1868l12 -17q-208 -245 -287 -372h-8
q-184 268 -285 372l13 17l266 -174z" />
    <glyph glyph-name="scaron" unicode="&#x161;" horiz-adv-x="813" 
d="M758 285q0 -131 -89.5 -217t-234.5 -86q-75 0 -137 26q-66 29 -90 29q-25 0 -49 -13t-29 -26h-20v315h24q0 -132 86 -221q86 -86 215 -86q91 0 141 48.5t50 138.5q0 70 -53.5 106.5t-196.5 69.5q-127 27 -188.5 83.5t-61.5 153.5q0 132 80 209q82 76 190 76
q47 0 113.5 -19.5t75.5 -19.5q17 0 32 15.5t15 25.5h20v-254h-20q0 88 -78 160q-77 71 -158 71q-73 0 -113 -41t-40 -120q0 -65 51 -98t196 -70q123 -31 196 -96.5t73 -159.5zM684 1411l12 -16q-201 -239 -286 -373h-9q-189 275 -284 373l12 16l266 -174z" />
    <glyph glyph-name="Tcommaaccent" unicode="&#x162;" horiz-adv-x="1255" 
d="M1214 1366v-469h-22q0 187 -100 313q-101 131 -293 131h-39v-1316h172v-25h-621v25h176v1316h-41q-192 0 -286 -131q-94 -128 -94 -313h-25v469h1173zM752 -252q0 -99 -70 -215q-70 -119 -170 -156l-10 27q43 14 88 68q43 52 43 100q0 59 -70 111q-41 38 -41 96
q0 50 33 85.5t80 35.5q117 0 117 -152z" />
    <glyph glyph-name="tcommaaccent" unicode="&#x163;" horiz-adv-x="673" 
d="M631 178l18 -6q-52 -190 -241 -190q-108 0 -157.5 48.5t-49.5 151.5v666h-164v24h164v172q63 6 127 70q66 66 80 115h22v-357h195v-24h-195v-760q0 -59 68 -59q40 0 76 42t57 107zM463 -252q0 -99 -70 -215q-70 -119 -170 -156l-10 27q43 14 88 68q43 52 43 100
q0 59 -70 111q-41 38 -41 96q0 50 33 85.5t80 35.5q117 0 117 -152z" />
    <glyph glyph-name="Tcaron" unicode="&#x164;" horiz-adv-x="1255" 
d="M1214 1366v-469h-22q0 187 -100 313q-101 131 -293 131h-39v-1316h172v-25h-621v25h176v1316h-41q-192 0 -286 -131q-94 -128 -94 -313h-25v469h1173zM905 1868l13 -17q-208 -245 -287 -372h-8q-184 268 -285 372l12 17l266 -174z" />
    <glyph glyph-name="tcaron" unicode="&#x165;" horiz-adv-x="823" 
d="M631 178l18 -6q-52 -190 -241 -190q-108 0 -157.5 48.5t-49.5 151.5v666h-164v24h164v172q63 6 127 70q66 66 80 115h22v-357h195v-24h-195v-760q0 -59 68 -59q40 0 76 42t57 107zM823 1360q0 -100 -69 -217q-71 -118 -170 -154l-11 27q46 15 89 67t43 101q0 58 -70 110
q-41 38 -41 97q0 50 33 85t80 35q116 0 116 -151z" />
    <glyph glyph-name="Tbar" unicode="&#x166;" horiz-adv-x="1255" 
d="M184 688v25h303v628h-41q-192 0 -286 -131q-94 -128 -94 -313h-25v469h1173v-469h-22q0 187 -100 313q-101 131 -293 131h-39v-628h315v-25h-315v-663h172v-25h-621v25h176v663h-303z" />
    <glyph glyph-name="tbar" unicode="&#x167;" horiz-adv-x="673" 
d="M37 602v25h164v221h-164v24h164v172q63 6 127 70q66 66 80 115h22v-357h195v-24h-195v-221h195v-25h-195v-514q0 -59 68 -59q40 0 76 42t57 107l18 -6q-52 -190 -241 -190q-108 0 -157.5 48.5t-49.5 151.5v420h-164z" />
    <glyph glyph-name="Utilde" unicode="&#x168;" horiz-adv-x="1333" 
d="M690 -33q-225 0 -351 104.5t-126 307.5v962h-174v25h623v-25h-181v-976q0 -184 59 -270.5t197 -86.5q182 0 279.5 101.5t97.5 281.5v893q0 57 -70 57h-114v25h385v-25h-107q-69 0 -69 -57v-878q0 -211 -113 -325t-336 -114zM1036 1790h29q0 -95 -74 -166
q-71 -68 -170 -68q-34 0 -66 12.5t-56.5 31t-46.5 36.5t-45 30.5t-44 12.5q-42 0 -71 -36t-29 -87h-31q0 99 64 166.5t161 67.5q78 0 154 -61q82 -60 121 -60q45 0 74.5 34t29.5 87z" />
    <glyph glyph-name="utilde" unicode="&#x169;" horiz-adv-x="1165" 
d="M1130 25v-25h-366v141q-25 -77 -92.5 -118t-153.5 -41q-166 0 -258 84.5t-92 242.5v539h-135v24h368v-657q0 -211 117 -211q95 0 152.5 49t93.5 156v639h-131v24h366v-847h131zM870 1333h29q0 -95 -74 -166q-70 -67 -170 -67q-34 0 -66 12.5t-56.5 31t-46.5 36.5
t-45 30.5t-44 12.5q-42 0 -71 -36t-29 -87h-31q0 99 64 166t162 67q77 0 153 -61q82 -60 121 -60q45 0 74.5 34t29.5 87z" />
    <glyph glyph-name="Umacron" unicode="&#x16a;" horiz-adv-x="1333" 
d="M690 -33q-225 0 -351 104.5t-126 307.5v962h-174v25h623v-25h-181v-976q0 -184 59 -270.5t197 -86.5q182 0 279.5 101.5t97.5 281.5v893q0 57 -70 57h-114v25h385v-25h-107q-69 0 -69 -57v-878q0 -211 -113 -325t-336 -114zM1042 1698v-121h-628v121h628z" />
    <glyph glyph-name="umacron" unicode="&#x16b;" horiz-adv-x="1165" 
d="M1130 25v-25h-366v141q-25 -77 -92.5 -118t-153.5 -41q-166 0 -258 84.5t-92 242.5v539h-135v24h368v-657q0 -211 117 -211q95 0 152.5 49t93.5 156v639h-131v24h366v-847h131zM897 1241v-121h-629v121h629z" />
    <glyph glyph-name="Ubreve" unicode="&#x16c;" horiz-adv-x="1333" 
d="M690 -33q-225 0 -351 104.5t-126 307.5v962h-174v25h623v-25h-181v-976q0 -184 59 -270.5t197 -86.5q182 0 279.5 101.5t97.5 281.5v893q0 57 -70 57h-114v25h385v-25h-107q-69 0 -69 -57v-878q0 -211 -113 -325t-336 -114zM1020 1823h22q0 -43 -6.5 -83.5t-25.5 -84.5
t-48 -76t-79 -53t-115 -21t-115 21t-79 53t-47.5 76t-24.5 84t-6 84h22q0 -22 4.5 -43.5t20.5 -48.5t42 -46.5t73.5 -33t109.5 -13.5q63 0 110.5 13.5t74 33t42.5 46.5t20.5 48.5t4.5 43.5z" />
    <glyph glyph-name="ubreve" unicode="&#x16d;" horiz-adv-x="1165" 
d="M1130 25v-25h-366v141q-25 -77 -92.5 -118t-153.5 -41q-166 0 -258 84.5t-92 242.5v539h-135v24h368v-657q0 -211 117 -211q95 0 152.5 49t93.5 156v639h-131v24h366v-847h131zM834 1366h22q0 -43 -6.5 -83.5t-25.5 -84.5t-48 -75.5t-79 -52.5t-115 -21t-115 21
t-79.5 52.5t-47.5 75.5t-24.5 84t-6.5 84h23q0 -29 9 -56t33 -58.5t77.5 -50.5t130.5 -19q63 0 110.5 13.5t74 33t42.5 46t20.5 48t4.5 43.5z" />
    <glyph glyph-name="Uring" unicode="&#x16e;" horiz-adv-x="1333" 
d="M690 -33q-225 0 -351 104.5t-126 307.5v962h-174v25h623v-25h-181v-976q0 -184 59 -270.5t197 -86.5q182 0 279.5 101.5t97.5 281.5v893q0 57 -70 57h-114v25h385v-25h-107q-69 0 -69 -57v-878q0 -211 -113 -325t-336 -114zM956 1706q0 -73 -57 -128.5t-131 -55.5
t-131 55.5t-57 128.5q0 92 63 137q64 49 125 49q59 0 123 -49q65 -47 65 -137zM852 1706q0 123 -31 154q-19 17 -53 17t-51 -17q-31 -36 -31 -154q0 -116 31 -152q17 -17 51 -17t53 17q31 31 31 152z" />
    <glyph glyph-name="uring" unicode="&#x16f;" horiz-adv-x="1165" 
d="M1130 25v-25h-366v141q-25 -77 -92.5 -118t-153.5 -41q-166 0 -258 84.5t-92 242.5v539h-135v24h368v-657q0 -211 117 -211q95 0 152.5 49t93.5 156v639h-131v24h366v-847h131zM770 1249q0 -73 -57 -128.5t-131 -55.5t-131.5 55.5t-57.5 128.5q0 91 64 137q65 50 125 50
q58 0 123 -50q65 -47 65 -137zM666 1249q0 123 -31 154q-19 17 -53.5 17t-51.5 -17q-30 -35 -30 -154q0 -117 30 -151q17 -17 51.5 -17t53.5 17q31 31 31 151z" />
    <glyph glyph-name="Uhungarumlaut" unicode="&#x170;" horiz-adv-x="1333" 
d="M690 -33q-225 0 -351 104.5t-126 307.5v962h-174v25h623v-25h-181v-976q0 -184 59 -270.5t197 -86.5q182 0 279.5 101.5t97.5 281.5v893q0 57 -70 57h-114v25h385v-25h-107q-69 0 -69 -57v-878q0 -211 -113 -325t-336 -114zM473 1509l-10 11l287 313q47 47 86 47
q35 0 58.5 -24.5t23.5 -57.5q0 -44 -44 -65zM750 1509l-11 11l287 313q47 47 86 47q35 0 58.5 -24.5t23.5 -57.5q0 -44 -43 -65z" />
    <glyph glyph-name="uhungarumlaut" unicode="&#x171;" horiz-adv-x="1165" 
d="M1130 25v-25h-366v141q-25 -77 -92.5 -118t-153.5 -41q-166 0 -258 84.5t-92 242.5v539h-135v24h368v-657q0 -211 117 -211q95 0 152.5 49t93.5 156v639h-131v24h366v-847h131zM266 1032l-10 10l287 314q47 47 86 47q35 0 58.5 -24.5t23.5 -57.5q0 -45 -43 -66zM543 1032
l-11 10l287 314q47 47 86 47q35 0 58.5 -24.5t23.5 -57.5q0 -45 -43 -66z" />
    <glyph glyph-name="Uogonek" unicode="&#x172;" horiz-adv-x="1333" 
d="M690 -33q-225 0 -351 104.5t-126 307.5v962h-174v25h623v-25h-181v-976q0 -184 59 -270.5t197 -86.5q182 0 279.5 101.5t97.5 281.5v893q0 57 -70 57h-114v25h385v-25h-107q-69 0 -69 -57v-878q0 -211 -113 -325t-336 -114zM971 -303l16 -14q-89 -111 -219 -111
q-81 0 -129.5 44t-48.5 114q0 156 307 288l12 -8q-82 -39 -130 -104t-48 -123q0 -69 31.5 -105t83.5 -36q76 0 125 55z" />
    <glyph glyph-name="uogonek" unicode="&#x173;" horiz-adv-x="1165" 
d="M1130 25v-25h-366v141q-25 -77 -92.5 -118t-153.5 -41q-166 0 -258 84.5t-92 242.5v539h-135v24h368v-657q0 -211 117 -211q95 0 152.5 49t93.5 156v639h-131v24h366v-847h131zM1077 -303l17 -14q-88 -111 -220 -111q-81 0 -129.5 44t-48.5 114q0 156 308 288l12 -8
q-82 -39 -130 -104t-48 -123q0 -69 31 -105t83 -36q76 0 125 55z" />
    <glyph glyph-name="Wcircumflex" unicode="&#x174;" horiz-adv-x="1923" 
d="M659 -29h-41l-514 1370h-186v25h651v-25h-176l371 -991l213 654l-117 337h-194v25h680v-25h-205l342 -991l303 920q7 24 6.5 38t-10.5 21.5t-17.5 9.5t-13.5 2h-129v25h387v-25h-119q-33 0 -51 -16t-35 -65l-426 -1289h-37l-352 1006zM1292 1495l-12 -16l-289 174
l-266 -174l-12 16q95 98 284 373h9q84 -136 286 -373z" />
    <glyph glyph-name="wcircumflex" unicode="&#x175;" horiz-adv-x="1509" 
d="M516 -16h-41l-397 864h-127v24h520v-24h-139l256 -594l166 444l-72 150h-104v24h501v-24h-141l260 -588l195 502q18 51 9 68.5t-48 17.5h-84v24h305v-24h-72q-34 0 -51.5 -17.5t-36.5 -68.5l-291 -778h-41l-315 682zM1106 1038l-12 -16l-289 174l-266 -174l-13 16
q99 102 285 373h8q82 -129 287 -373z" />
    <glyph glyph-name="Ycircumflex" unicode="&#x176;" horiz-adv-x="1241" 
d="M975 0h-621v25h176v571l-366 745h-191v25h678v-25h-198l340 -692l278 611q37 81 -27 81h-131v25h385v-25h-112q-55 0 -99 -92l-288 -637v-587h176v-25zM1053 1495l-13 -16l-288 174l-267 -174l-12 16q99 102 285 373h8q82 -131 287 -373z" />
    <glyph glyph-name="ycircumflex" unicode="&#x177;" horiz-adv-x="952" 
d="M147 -649q-65 0 -110 48.5t-45 115.5q0 54 32.5 91.5t81.5 37.5q43 0 71 -25t28 -61q0 -16 -24.5 -57t-24.5 -58q0 -51 28 -51q91 0 138 121l176 458l-424 877h-123v24h520v-24h-143l286 -590l193 504q35 86 -31 86h-88v24h313v-24h-75q-39 0 -56.5 -15t-40.5 -71
l-481 -1245q-64 -166 -201 -166zM848 1038l-12 -16l-289 174l-266 -174l-13 16q99 102 285 373h8q82 -129 287 -373z" />
    <glyph glyph-name="Ydieresis" unicode="&#x178;" horiz-adv-x="1241" 
d="M975 0h-621v25h176v571l-366 745h-191v25h678v-25h-198l340 -692l278 611q37 81 -27 81h-131v25h385v-25h-112q-55 0 -99 -92l-288 -637v-587h176v-25zM676 1655q0 -61 -38.5 -101.5t-98.5 -40.5q-54 0 -91.5 41t-37.5 101q0 54 37.5 91.5t91.5 37.5q60 0 98.5 -36.5
t38.5 -92.5zM1077 1655q0 -61 -38.5 -101.5t-98.5 -40.5q-54 0 -91.5 41t-37.5 101q0 54 37.5 91.5t91.5 37.5q60 0 98.5 -36.5t38.5 -92.5z" />
    <glyph glyph-name="Zacute" unicode="&#x179;" horiz-adv-x="1177" 
d="M1075 0h-979l684 1341h-196q-176 0 -285 -133q-106 -130 -106 -311h-25v469h907l-682 -1341h258q180 0 287 137q111 138 111 315h26v-477zM489 1489l-10 10l287 313q48 48 86 48q35 0 58.5 -24.5t23.5 -57.5q0 -45 -43 -66z" />
    <glyph glyph-name="zacute" unicode="&#x17a;" horiz-adv-x="907" 
d="M834 0h-768l507 848h-159q-136 0 -195 -67t-59 -201h-21v292h690l-503 -847h202q152 0 218.5 75.5t66.5 221.5h21v-322zM334 1032l-10 10l286 314q47 47 86 47q35 0 58.5 -24.5t23.5 -57.5q0 -45 -43 -66z" />
    <glyph glyph-name="Zdotaccent" unicode="&#x17b;" horiz-adv-x="1177" 
d="M1075 0h-979l684 1341h-196q-176 0 -285 -133q-106 -130 -106 -311h-25v469h907l-682 -1341h258q180 0 287 137q111 138 111 315h26v-477zM721 1655q0 -61 -38.5 -101.5t-98.5 -40.5q-54 0 -91.5 41t-37.5 101q0 54 37.5 91.5t91.5 37.5q60 0 98.5 -36.5t38.5 -92.5z" />
    <glyph glyph-name="zdotaccent" unicode="&#x17c;" horiz-adv-x="907" 
d="M834 0h-768l507 848h-159q-136 0 -195 -67t-59 -201h-21v292h690l-503 -847h202q152 0 218.5 75.5t66.5 221.5h21v-322zM569 1217q0 -47 -34.5 -81t-79.5 -34q-51 0 -85 33t-34 82q0 51 33.5 82.5t85.5 31.5q45 0 79.5 -33t34.5 -81z" />
    <glyph glyph-name="Zcaron" unicode="&#x17d;" horiz-adv-x="1177" 
d="M1075 0h-979l684 1341h-196q-176 0 -285 -133q-106 -130 -106 -311h-25v469h907l-682 -1341h258q180 0 287 137q111 138 111 315h26v-477zM866 1868l13 -17q-208 -245 -287 -372h-8q-184 268 -285 372l12 17l267 -174z" />
    <glyph glyph-name="zcaron" unicode="&#x17e;" horiz-adv-x="907" 
d="M834 0h-768l507 848h-159q-136 0 -195 -67t-59 -201h-21v292h690l-503 -847h202q152 0 218.5 75.5t66.5 221.5h21v-322zM731 1411l12 -16q-201 -239 -286 -373h-8q-186 271 -285 373l12 16l266 -174z" />
    <glyph glyph-name="uni018f" unicode="&#x18f;" horiz-adv-x="1398" 
d="M694 -10q131 3 193 71q114 123 114 621v18h-608v-18q0 -270 25 -414q8 -42 32 -85.5t42 -66t49 -55.5q37 -40 66 -55.5t87 -15.5zM698 -33q-251 0 -428 207q-178 208 -178 506v45h909q-6 463 -114 580q-38 41 -74.5 55t-99.5 14q-137 0 -260 -135q-121 -136 -121 -278
h-23v432h23q5 -21 29.5 -37.5t58.5 -16.5q33 0 143 29q105 31 150 31q256 0 422 -211q165 -210 165 -506q0 -293 -178 -504q-172 -205 -424 -211z" />
    <glyph glyph-name="florin" unicode="&#x192;" horiz-adv-x="874" 
d="M1028 1268q0 -41 -31 -71t-75 -30q-95 0 -95 76q0 15 18.5 49t18.5 54q0 37 -9 49t-40 12q-34 0 -62 -22.5t-50 -65.5t-38 -90.5t-32 -112.5q-20 -82 -31 -168q-14 -126 -29 -291q-2 -14 -2 -28h193v-23h-195q0 -2 -0.5 -8t-1.5 -19l-2 -26q-15 -128 -33 -248
q-55 -342 -126 -508q-34 -88 -76 -159.5t-95.5 -130t-120.5 -89.5t-141 -28q-82 0 -134 48.5t-52 123.5q0 41 32 71.5t75 30.5q96 0 96 -76q0 -15 -19.5 -49.5t-19.5 -52.5q0 -39 10 -55.5t39 -16.5q130 0 195 172q60 156 92 552q8 101 22 308q2 37 5.5 90t4.5 70h-194v23
h197q0 22 2 53q15 328 180 541q166 211 350 211q70 0 122 -49t52 -117z" />
    <glyph glyph-name="Aringacute" unicode="&#x1fa;" horiz-adv-x="1236" 
d="M807 1563q0 -67 -50 -120.5t-118 -64.5l494 -1353h174v-25h-641v25h176l-137 426h-410l-125 -347q-12 -31 -15 -50t0 -24t9 -5h168v-25h-373v25h117q42 0 69 79l449 1274q-68 11 -116 64.5t-48 120.5q0 91 64 137q64 49 124 49q59 0 123 -49q66 -48 66 -137zM303 475h389
l-188 578zM520 1561q0 -91 23 -128.5t75 -37.5t75.5 37.5t23.5 128.5q0 88 -21 130t-78 42t-77.5 -42t-20.5 -130zM496 1780l-11 10l287 313q47 47 86 47q35 0 58.5 -24.5t23.5 -57.5q0 -44 -43 -65z" />
    <glyph glyph-name="aringacute" unicode="&#x1fb;" horiz-adv-x="966" 
d="M940 78l16 -15q-15 -28 -64 -53.5t-101 -25.5q-69 0 -130 40t-71 95q-46 -135 -207 -135q-128 0 -217 51q-90 53 -90 164q0 227 297 254q77 6 147 18q36 6 51 16t15 27v162q0 111 -30.5 153.5t-96.5 42.5q-109 0 -109 -94q0 -13 8.5 -44t8.5 -42q0 -37 -27 -59.5
t-76 -22.5q-48 0 -74 29t-26 74q0 64 86 123q86 57 209 57q173 0 266.5 -94t93.5 -277v-422q0 -69 47 -69q33 0 74 47zM586 236v233q-10 -6 -80 -29q-6 -1 -27.5 -3t-40 -4t-24.5 -3q-59 -12 -82 -64t-23 -184q0 -91 23 -128.5t88 -37.5q73 0 119.5 63.5t46.5 156.5z
M672 1188q0 -73 -57.5 -128.5t-131.5 -55.5t-131 55.5t-57 128.5q0 92 63 137q64 49 125 49q59 0 123 -49q66 -48 66 -137zM567 1188q0 123 -30 153q-19 17 -53.5 17t-51.5 -17q-31 -36 -31 -153q0 -116 31 -152q17 -17 51.5 -17t53.5 17q30 30 30 152zM342 1380l-10 11
l286 313q47 47 87 47q34 0 57.5 -24.5t23.5 -57.5q0 -44 -43 -65z" />
    <glyph glyph-name="AEacute" unicode="&#x1fc;" horiz-adv-x="1806" 
d="M649 1366h1012v-412h-25q0 151 -86 269q-81 118 -245 118h-201v-626h45q103 0 166 76.5t63 185.5h27v-549h-27q0 109 -63 185.5t-166 76.5h-45v-665h207q208 0 317 127q107 128 107 299h22v-451h-1106v25h183v528h-428l-248 -449q-13 -24 -21 -41t-10.5 -26t0.5 -10
q2 -2 12 -2h152v-25h-365v25h123q10 0 17.5 3.5t22 21.5t32.5 54l688 1237h-160v25zM418 578h416v749zM885 1489l-11 10l287 313q48 48 86 48q35 0 58.5 -24.5t23.5 -57.5q0 -45 -43 -66z" />
    <glyph glyph-name="aeacute" unicode="&#x1fd;" horiz-adv-x="1499" 
d="M618 211q-27 -227 -260 -227q-110 0 -196 51q-86 53 -86 164q0 227 297 254q77 6 147 18q36 6 51 16t15 27v162q0 111 -30.5 153.5t-96.5 42.5q-109 0 -109 -94q0 -13 8.5 -44t8.5 -42q0 -37 -27 -59.5t-76 -22.5q-48 0 -74 29t-26 74q0 64 86 123q86 57 209 57
q189 0 278 -109q128 107 291 107q124 0 219 -74q91 -68 134.5 -155.5t43.5 -172.5v-6h-606v-47q1 -105 7 -172.5t19 -119t37.5 -79t58.5 -41.5t87 -18q107 0 201.5 51t156.5 136l17 -17q-60 -88 -161.5 -141t-213.5 -53q-111 0 -229 65q-116 69 -181 164zM819 508h391
q-3 240 -69 315q-34 43 -113 43q-86 0 -129 -43q-77 -77 -80 -315zM586 236v233q-10 -6 -80 -29q-6 -1 -27.5 -3t-40 -4t-24.5 -3q-59 -12 -82 -64t-23 -184q0 -91 23 -128.5t88 -37.5q73 0 119.5 63.5t46.5 156.5zM629 1032l-11 10l287 314q47 47 86 47q35 0 58.5 -24.5
t23.5 -57.5q0 -45 -43 -66z" />
    <glyph glyph-name="Oslashacute" unicode="&#x1fe;" horiz-adv-x="1398" 
d="M1047 1268l81 141l29 -12l-88 -150q111 -101 173.5 -248.5t62.5 -316.5q0 -297 -179 -506t-428 -209q-173 0 -319 107l-70 -121l-28 12l73 127q-122 99 -192 255t-70 335q0 293 172 504q177 213 434 213q194 0 349 -131zM393 682q0 -329 37 -465l537 918q-24 118 -76 170
q-66 69 -193 69t-190 -69q-115 -121 -115 -623zM1004 682q0 258 -27 408l-537 -912q27 -73 68 -117q65 -71 190 -71q128 0 193 71q64 67 88 205q25 144 25 416zM559 1489l-10 10l287 313q48 48 86 48q35 0 58.5 -24.5t23.5 -57.5q0 -45 -43 -66z" />
    <glyph glyph-name="oslashacute" unicode="&#x1ff;" horiz-adv-x="1073" 
d="M213 -53l-27 14l76 115q-82 62 -128 157t-46 203q0 189 131 320q132 135 316 135q124 0 233 -68l68 103l24 -13l-69 -104q91 -63 142.5 -162t51.5 -211q0 -188 -133 -321t-317 -133q-136 0 -248 75zM739 436q0 176 -20 266l-365 -542q15 -68 54 -111q43 -43 127 -43
q89 0 129 43q75 75 75 387zM334 436q0 -150 12 -235l363 536q-15 51 -45 86q-40 43 -129 43q-84 0 -127 -43q-74 -80 -74 -387zM395 1032l-10 10l287 314q47 47 86 47q35 0 58.5 -24.5t23.5 -57.5q0 -45 -43 -66z" />
    <glyph glyph-name="Scommaaccent" unicode="&#x218;" horiz-adv-x="1040" 
d="M995 438q0 -185 -118 -327q-120 -144 -324 -144q-74 0 -184 39q-115 41 -140 41q-38 0 -66.5 -22t-33.5 -52h-25v463h25q0 -79 53 -182q52 -102 154 -184q103 -80 215 -80q147 0 224 66.5t77 174.5q0 75 -19.5 120t-74.5 85q-56 41 -115 68q-58 27 -186 74
q-161 60 -236.5 147t-75.5 238q0 186 107 311t254 125q60 0 125 -27q67 -24 117 -24q68 0 77 45h21v-359h-21q0 137 -94 238q-95 102 -223 102q-108 0 -171 -61t-63 -162t74.5 -169t255.5 -136q203 -76 299 -162q92 -83 92 -246zM688 -252q0 -99 -70 -215
q-70 -120 -169 -156l-11 27q43 14 88 68q43 52 43 100q0 60 -69 111q-41 38 -41 96q0 50 32.5 85.5t79.5 35.5q117 0 117 -152z" />
    <glyph glyph-name="scommaaccent" unicode="&#x219;" horiz-adv-x="813" 
d="M758 285q0 -131 -89.5 -217t-234.5 -86q-75 0 -137 26q-66 29 -90 29q-25 0 -49 -13t-29 -26h-20v315h24q0 -132 86 -221q86 -86 215 -86q91 0 141 48.5t50 138.5q0 70 -53.5 106.5t-196.5 69.5q-127 27 -188.5 83.5t-61.5 153.5q0 132 80 209q82 76 190 76
q47 0 113.5 -19.5t75.5 -19.5q17 0 32 15.5t15 25.5h20v-254h-20q0 88 -78 160q-77 71 -158 71q-73 0 -113 -41t-40 -120q0 -65 51 -98t196 -70q123 -31 196 -96.5t73 -159.5zM530 -252q0 -100 -69 -215q-70 -119 -170 -156l-10 27q43 14 88 68q43 52 43 100q0 59 -70 111
q-41 38 -41 96q0 50 33 85.5t80 35.5q116 0 116 -152z" />
    <glyph glyph-name="dotlessj" unicode="&#x237;" horiz-adv-x="602" 
d="M442 872v-921q0 -308 -100.5 -453t-284.5 -145q-77 0 -137 51q-61 52 -61 123q0 43 32 77t76 34q50 0 78.5 -23t28.5 -61q0 -15 -16.5 -50.5t-16.5 -58.5q0 -37 12 -50t47 -13q109 0 109 241v1225h-133v24h366z" />
    <glyph glyph-name="uni0259" unicode="&#x259;" horiz-adv-x="1073" 
d="M90 473h641q-3 281 -74 352q-43 43 -125 43q-89 0 -172 -80q-81 -75 -81 -210h-21v296h21q0 -9 14 -21.5t31 -12.5q22 0 84 24q65 27 124 27q191 0 318 -133q129 -132 129 -322q0 -185 -133 -321q-133 -133 -311 -133q-183 0 -316 133q-131 134 -131 321q0 10 2 37z
M731 449h-397q0 -320 74 -400q47 -47 124 -47q82 0 125 43q41 41 57.5 129.5t16.5 261.5v13z" />
    <glyph glyph-name="circumflex" unicode="&#x2c6;" 
d="M651 1038l-12 -16l-289 174l-266 -174l-12 16q95 98 284 373h9q85 -134 286 -373z" />
    <glyph glyph-name="caron" unicode="&#x2c7;" 
d="M639 1411l12 -16q-201 -239 -286 -373h-9q-189 275 -284 373l12 16l266 -174z" />
    <glyph glyph-name="breve" unicode="&#x2d8;" 
d="M612 1366h23q0 -43 -6.5 -83.5t-25.5 -84.5t-48.5 -75.5t-79.5 -52.5t-115 -21t-115 21t-79 52.5t-47.5 75.5t-24.5 84t-6 84h23q0 -22 4.5 -43.5t20.5 -48t41.5 -46t73 -33t109.5 -13.5q63 0 110.5 13.5t74 33t42.5 46t20.5 48t4.5 43.5z" />
    <glyph glyph-name="dotaccent" unicode="&#x2d9;" 
d="M477 1217q0 -47 -35 -81t-80 -34q-51 0 -84.5 32.5t-33.5 82.5q0 51 33.5 82.5t84.5 31.5q46 0 80.5 -33t34.5 -81z" />
    <glyph glyph-name="ring" unicode="&#x2da;" 
d="M551 1249q0 -73 -57.5 -128.5t-131.5 -55.5t-131 55.5t-57 128.5q0 91 64 137q65 50 124 50q58 0 123 -50q66 -48 66 -137zM446 1249q0 124 -30 154q-19 17 -53.5 17t-51.5 -17q-30 -35 -30 -154q0 -117 30 -151q17 -17 51.5 -17t53.5 17q30 30 30 151z" />
    <glyph glyph-name="ogonek" unicode="&#x2db;" 
d="M467 -303l16 -14q-89 -111 -219 -111q-81 0 -129.5 44t-48.5 114q0 156 307 288l13 -8q-82 -39 -130.5 -104.5t-48.5 -122.5q0 -69 31.5 -105t83.5 -36q76 0 125 55z" />
    <glyph glyph-name="tilde" unicode="&#x2dc;" 
d="M649 1333h29q0 -95 -74 -166q-70 -67 -170 -67q-34 0 -66 12.5t-56.5 31t-46.5 36.5t-45 30.5t-44 12.5q-42 0 -71 -36t-29 -87h-31q0 99 64 166t161 67q78 0 154 -61q82 -60 121 -60q45 0 74.5 34t29.5 87z" />
    <glyph glyph-name="hungarumlaut" unicode="&#x2dd;" 
d="M12 1032l-10 10l287 314q47 47 86 47q35 0 58.5 -24.5t23.5 -57.5q0 -45 -43 -66zM289 1032l-10 10l286 314q47 47 86 47q35 0 58.5 -24.5t23.5 -57.5q0 -45 -43 -66z" />
    <glyph glyph-name="pi" unicode="&#x3c0;" horiz-adv-x="1146" 
d="M989 848h-12v-823h125v-25h-484v25h125v823h-333v-823h125v-25h-484v25h125v823h-35q-64 0 -89 -18t-29 -76h-23q5 69 33.5 93.5t107.5 24.5h850q76 0 101.5 13.5t31.5 62.5h23q0 -60 -37 -80t-121 -20z" />
    <glyph glyph-name="afii10023" unicode="&#x401;" horiz-adv-x="1220" 
d="M1171 451v-451h-1099v25h176v1316h-176v25h1003v-412h-24q0 151 -86 269q-81 118 -246 118h-201v-626h45q103 0 166.5 76.5t63.5 185.5h26v-549h-26q0 109 -63.5 185.5t-166.5 76.5h-45v-665h207q208 0 317 127q107 128 107 299h22zM596 1655q0 -61 -38.5 -101.5
t-98.5 -40.5q-54 0 -91.5 41t-37.5 101q0 54 37.5 91.5t91.5 37.5q60 0 98.5 -36.5t38.5 -92.5zM997 1655q0 -61 -38.5 -101.5t-98.5 -40.5q-54 0 -91.5 41t-37.5 101q0 54 37.5 91.5t91.5 37.5q60 0 98.5 -36.5t38.5 -92.5z" />
    <glyph glyph-name="afii10051" unicode="&#x402;" horiz-adv-x="1476" 
d="M991 -18q-121 0 -199.5 63t-78.5 160q0 64 41.5 110.5t103.5 46.5q57 0 100 -41t43 -98q0 -37 -30 -90q-31 -54 -31 -76q0 -49 51 -49q61 0 98 52t37 135v243q0 179 -50.5 248.5t-178.5 69.5q-91 0 -158 -27v-332q-104 -61 -104 -192q0 -100 123 -205h-465v25h176v1318
h-27q-190 0 -284 -137q-97 -139 -97 -323h-20v483h1192v-483h-19q0 185 -102 323q-101 137 -291 137h-82v-585q88 24 158 24q252 0 375 -82t123 -278v-68q0 -167 -112 -269.5t-292 -102.5z" />
    <glyph glyph-name="afii10052" unicode="&#x403;" horiz-adv-x="1118" 
d="M1077 1366v-469h-18q0 185 -101 313q-101 131 -292 131h-146v-1316h178v-25h-624v25h174v1316h-174v25h1003zM905 1749q0 -87 -104 -172q-102 -85 -367 -147l-6 22q91 22 162.5 82t103.5 127q80 160 137 160q32 0 53 -20.5t21 -51.5z" />
    <glyph glyph-name="afii10053" unicode="&#x404;" horiz-adv-x="1343" 
d="M1145 506v-535h-21q-5 23 -27.5 40.5t-56.5 17.5q-35 0 -159 -31t-174 -31q-261 0 -439 211q-176 212 -176 504q0 293 172 504q177 213 434 213q45 0 150 -27q108 -24 147 -24q37 0 63.5 13.5t31.5 31.5h22v-465h-22q0 145 -129 295q-127 151 -263 151q-126 0 -192 -69
q-112 -121 -115 -580h449v-25h-449v-18q0 -497 115 -621q65 -71 201 -71q163 0 290 160q127 165 127 356h21z" />
    <glyph glyph-name="afii10054" unicode="&#x405;" horiz-adv-x="1040" 
d="M995 438q0 -185 -118 -327q-120 -144 -324 -144q-74 0 -184 39q-115 41 -140 41q-38 0 -66.5 -22t-33.5 -52h-25v463h25q0 -79 53 -182q52 -102 154 -184q103 -80 215 -80q147 0 224 66.5t77 174.5q0 75 -19.5 120t-74.5 85q-56 41 -115 68q-58 27 -186 74
q-161 60 -236.5 147t-75.5 238q0 186 107 311t254 125q60 0 125 -27q67 -24 117 -24q68 0 77 45h21v-359h-21q0 137 -94 238q-95 102 -223 102q-108 0 -171 -61t-63 -162t74.5 -169t255.5 -136q203 -76 299 -162q92 -83 92 -246z" />
    <glyph glyph-name="afii10055" unicode="&#x406;" horiz-adv-x="768" 
d="M698 25v-25h-624v25h174v1316h-174v25h624v-25h-178v-1316h178z" />
    <glyph glyph-name="afii10056" unicode="&#x407;" horiz-adv-x="768" 
d="M698 25v-25h-624v25h174v1316h-174v25h624v-25h-178v-1316h178zM317 1655q0 -61 -38.5 -101.5t-98.5 -40.5q-54 0 -91.5 41t-37.5 101q0 54 37.5 91.5t91.5 37.5q60 0 98.5 -36.5t38.5 -92.5zM719 1655q0 -61 -38.5 -101.5t-98.5 -40.5q-54 0 -91.5 41t-37.5 101
q0 54 37.5 91.5t91.5 37.5q60 0 98.5 -36.5t38.5 -92.5z" />
    <glyph glyph-name="afii10057" unicode="&#x408;" horiz-adv-x="974" 
d="M948 1366v-25h-178v-1019q0 -164 -106 -259.5t-281 -95.5q-128 0 -229 82t-101 191q0 71 45 120.5t101 49.5q57 0 99 -44.5t42 -101.5q0 -63 -45 -102t-45 -68q0 -43 40.5 -73.5t92.5 -30.5q68 0 92.5 34.5t24.5 122.5v1194h-174v25h622z" />
    <glyph glyph-name="afii10058" unicode="&#x409;" horiz-adv-x="1798" 
d="M1239 0h-590v25h176v1316h-217q-42 0 -59 -21t-17 -75v-457q0 -403 -49 -583q-34 -124 -86 -178t-153 -54q-99 0 -172 64q-74 65 -74 160q0 64 41.5 110.5t103.5 46.5q57 0 100.5 -41t43.5 -98q0 -36 -31 -90t-31 -76q0 -49 51 -49q68 0 115 55q18 20 33 56q20 40 35 100
q49 186 49 577v453q0 57 -15.5 78.5t-58.5 21.5h-94v25h934v-25h-178v-573h129q512 0 512 -350q0 -195 -126 -306.5t-372 -111.5zM1468 418q0 201 -57 264t-213 63h-102v-720h116q150 0 203 86q53 89 53 307z" />
    <glyph glyph-name="afii10059" unicode="&#x40a;" horiz-adv-x="1904" 
d="M1346 0h-570v25h156v714h-412v-714h158v-25h-604v25h174v1316h-174v25h604v-25h-158v-577h412v577h-156v25h604v-25h-178v-577h129q512 0 512 -367q0 -190 -124.5 -293.5t-372.5 -103.5zM1575 397q0 202 -59 273q-57 69 -211 69h-103v-714h117q152 0 205 77q51 77 51 295
z" />
    <glyph glyph-name="afii10060" unicode="&#x40b;" horiz-adv-x="1703" 
d="M1571 25v-25h-588v25h141v415q0 180 -49.5 249t-177.5 69q-91 0 -158 -27v-706h174v-25h-620v25h176v1316h-27q-192 0 -286 -131q-95 -130 -95 -313h-20v469h1192v-469h-19q0 187 -100 313q-101 131 -293 131h-82v-583q88 24 158 24q252 0 375 -82t123 -278v-397h176z
" />
    <glyph glyph-name="afii10061" unicode="&#x40c;" horiz-adv-x="1347" 
d="M1329 72l19 -19q-64 -67 -172 -67q-132 0 -238 92q-102 92 -102 282v107q0 126 -60 179.5t-196 53.5h-60v-675h158v-25h-604v25h174v1316h-174v25h604v-25h-158v-616h80q71 0 116.5 58.5t53.5 138.5q3 22 6 77q2 18 5.5 48.5t4.5 42.5q7 66 29.5 131t58.5 96
q65 65 154 65q87 0 140 -46.5t53 -141.5q0 -63 -38 -105t-98 -42q-59 0 -97 38t-38 93q0 36 29 79q31 45 31 62q0 20 -25 20q-43 0 -88 -45q-53 -53 -72 -137q-14 -70 -14 -74q-7 -59 -8 -88q-3 -61 -6 -73q-18 -163 -125 -203q442 0 442 -381v-156q0 -71 30.5 -111
t82.5 -40q67 0 102 41zM985 1749q0 -87 -104 -172q-102 -85 -367 -147l-6 22q91 22 162.5 82t103.5 127q80 160 137 160q32 0 53 -20.5t21 -51.5z" />
    <glyph glyph-name="afii10062" unicode="&#x40e;" horiz-adv-x="1251" 
d="M438 1341l320 -782l293 703q34 79 -25 79h-158v25h412v-25h-125q-46 0 -80 -79l-452 -1092q-86 -203 -244 -203q-122 0 -199 80q-76 79 -76 186q0 73 44 117.5t106 44.5t98.5 -34.5t36.5 -94.5q0 -78 -98 -139q-31 -19 -31 -49q0 -34 33 -60t86 -26q65 0 122.5 46
t94.5 134l41 98l-483 1071h-183v25h672v-25h-205zM1024 1675q0 -95 -94 -147q-92 -51 -209 -51q-123 0 -211 49q-88 52 -88 149q0 50 35 86.5t84 36.5q42 0 73 -27t31 -65q0 -42 -49 -76q-49 -30 -49 -55q0 -34 51 -54t123 -20q75 0 126.5 20t51.5 54q0 16 -53 57
q-47 30 -47 74q0 40 31.5 66t74.5 26q49 0 84 -36.5t35 -86.5z" />
    <glyph glyph-name="afii10145" unicode="&#x40f;" horiz-adv-x="1454" 
d="M711 -23v23h-637v25h174v1316h-174v25h604v-25h-158v-1316h412v1316h-156v25h604v-25h-174v-1316h174v-25h-645v-23q0 -62 62 -133q61 -70 61 -137q0 -57 -39 -98t-94 -41q-57 0 -96 39.5t-39 99.5q0 61 59 135q62 71 62 135z" />
    <glyph glyph-name="afii10017" unicode="&#x410;" horiz-adv-x="1236" 
d="M303 475h389l-188 578zM145 104l453 1289h37l498 -1368h174v-25h-641v25h176l-137 426h-410l-125 -347q-12 -31 -15 -50t0 -24t9 -5h168v-25h-373v25h117q42 0 69 79z" />
    <glyph glyph-name="afii10018" unicode="&#x411;" horiz-adv-x="1228" 
d="M1147 408q0 -190 -117 -299t-344 -109h-612v25h174v1316h-174v25h991v-401h-23q0 147 -98 260q-94 116 -260 116h-164v-569h146q233 0 357 -95t124 -269zM877 408q0 204 -50 272t-200 68h-107v-723h119q146 0 192 81q46 82 46 302z" />
    <glyph glyph-name="afii10019" unicode="&#x412;" horiz-adv-x="1228" 
d="M1147 362q0 -147 -115 -256q-112 -106 -321 -106h-637v25h174v1316h-174v25h549q201 0 318.5 -82t117.5 -233q0 -136 -98 -230q-95 -92 -222 -92q176 0 291 -100q117 -99 117 -267zM813 1042q0 174 -45 236q-45 63 -176 63h-72v-602h133q97 0 127 62q33 59 33 241z
M877 350q0 226 -50 297q-46 70 -192 70h-115v-692h142q129 0 172 67t43 258z" />
    <glyph glyph-name="afii10020" unicode="&#x413;" horiz-adv-x="1118" 
d="M1077 1366v-469h-18q0 185 -101 313q-101 131 -292 131h-146v-1316h178v-25h-624v25h174v1316h-174v25h1003z" />
    <glyph glyph-name="afii10021" unicode="&#x414;" horiz-adv-x="1286" 
d="M1235 25v-471h-23q0 198 -104 323q-102 123 -272 123h-420q-170 0 -275 -123q-102 -126 -102 -323h-25v471h156q146 137 184 438q22 159 25 264q6 114 6 289v221q0 61 -14.5 82.5t-51.5 21.5h-126v25h1019v-25h-174v-1316h197zM199 25h565v1316h-285q-41 0 -55 -21
t-14 -83v-221q0 -154 -7 -287q-3 -102 -22 -262q-37 -300 -182 -442z" />
    <glyph glyph-name="afii10022" unicode="&#x415;" horiz-adv-x="1220" 
d="M1171 451v-451h-1099v25h176v1316h-176v25h1003v-412h-24q0 151 -86 269q-81 118 -246 118h-201v-626h45q103 0 166.5 76.5t63.5 185.5h26v-549h-26q0 109 -63.5 185.5t-166.5 76.5h-45v-665h207q208 0 317 127q107 128 107 299h22z" />
    <glyph glyph-name="afii10024" unicode="&#x416;" horiz-adv-x="1882" 
d="M807 1341h-158v25h584v-25h-158v-616h60q71 0 116.5 58.5t53.5 138.5q3 22 6 77q2 18 5.5 48.5t4.5 42.5q7 66 29.5 131t58.5 96q65 65 154 65q87 0 139.5 -46.5t52.5 -141.5q0 -64 -37.5 -105.5t-97.5 -41.5q-59 0 -97 38t-38 93q0 37 28 79q31 45 31 62q0 20 -24 20
q-43 0 -88 -45q-53 -53 -72 -137q-14 -70 -14 -74q-8 -76 -9 -88q-3 -61 -6 -73q-18 -163 -125 -203q443 0 443 -381v-158q0 -71 30.5 -112t81.5 -41q65 0 105 43l16 -19q-64 -67 -172 -67q-132 0 -235 92t-103 282v109q0 124 -61 178.5t-197 54.5h-39v-675h158v-25h-584v25
h158v675h-39q-136 0 -197 -54.5t-61 -178.5v-109q0 -190 -102 -282q-103 -92 -236 -92q-108 0 -172 67l16 19q40 -43 105 -43q51 0 81.5 41t30.5 112v158q0 381 443 381q-107 40 -125 203q-3 12 -6 73q-1 29 -8 88q-1 10 -7 36.5t-8 37.5q-19 85 -71 137q-45 45 -89 45
q-24 0 -24 -20q0 -15 29 -62q30 -41 30 -79q0 -55 -38 -93t-97 -38q-60 0 -97.5 41.5t-37.5 105.5q0 95 52.5 141.5t139.5 46.5q89 0 154 -65q29 -29 51.5 -83.5t30.5 -94.5q6 -36 12 -121q10 -92 11 -96q8 -80 53.5 -138.5t116.5 -58.5h59v616z" />
    <glyph glyph-name="afii10025" unicode="&#x417;" horiz-adv-x="1079" 
d="M997 362q0 -57 -18 -111.5t-59.5 -106t-102 -91t-152.5 -63t-204 -23.5q-154 0 -266 80q-109 83 -109 217q0 72 47 121t113 49q55 0 90 -35.5t35 -91.5q0 -97 -125 -149q-33 -14 -33 -58q0 -30 72 -71q68 -39 176 -39q140 0 205 86t65 274q0 234 -45 299q-47 68 -194 68
h-142v22h160q112 0 152 64t40 239q0 195 -38 261q-41 71 -179 71q-128 0 -227 -108q-98 -107 -98 -254h-21v381h21q9 -45 78 -45q34 0 116 24q85 27 133 27q202 0 330 -96q129 -95 129 -252q0 -134 -119 -228t-266 -94q204 0 320 -97.5t116 -269.5z" />
    <glyph glyph-name="afii10026" unicode="&#x418;" horiz-adv-x="1454" 
d="M1380 25v-25h-604v25h156v1062l-412 -851v-211h158v-25h-604v25h174v1316h-174v25h604v-25h-158v-1040l412 854v186h-156v25h604v-25h-174v-1316h174z" />
    <glyph glyph-name="afii10027" unicode="&#x419;" horiz-adv-x="1454" 
d="M1380 25v-25h-604v25h156v1062l-412 -851v-211h158v-25h-604v25h174v1316h-174v25h604v-25h-158v-1040l412 854v186h-156v25h604v-25h-174v-1316h174zM1055 1675q0 -95 -94 -147q-92 -51 -209 -51q-123 0 -211 49q-88 52 -88 149q0 50 34.5 86.5t83.5 36.5q42 0 73.5 -27
t31.5 -65q0 -42 -49 -76q-49 -30 -49 -55q0 -34 51 -54t123 -20q75 0 126.5 20t51.5 54q0 16 -53 57q-48 31 -48 74q0 40 32 66t75 26q49 0 84 -36.5t35 -86.5z" />
    <glyph glyph-name="afii10028" unicode="&#x41a;" horiz-adv-x="1347" 
d="M1329 72l19 -19q-64 -67 -172 -67q-132 0 -238 92q-102 92 -102 282v107q0 126 -60 179.5t-196 53.5h-60v-675h158v-25h-604v25h174v1316h-174v25h604v-25h-158v-616h80q71 0 116.5 58.5t53.5 138.5q3 22 6 77q2 18 5.5 48.5t4.5 42.5q7 66 29.5 131t58.5 96
q65 65 154 65q87 0 140 -46.5t53 -141.5q0 -63 -38 -105t-98 -42q-59 0 -97 38t-38 93q0 36 29 79q31 45 31 62q0 20 -25 20q-43 0 -88 -45q-53 -53 -72 -137q-14 -70 -14 -74q-7 -59 -8 -88q-3 -61 -6 -73q-18 -163 -125 -203q442 0 442 -381v-156q0 -71 30.5 -111
t82.5 -40q67 0 102 41z" />
    <glyph glyph-name="afii10029" unicode="&#x41b;" horiz-adv-x="1388" 
d="M1315 25v-25h-623v25h174v1316h-258q-42 0 -59 -21t-17 -75v-457q0 -403 -49 -583q-34 -124 -86 -178t-153 -54q-99 0 -172 64q-74 65 -74 160q0 64 41.5 110.5t103.5 46.5q57 0 100.5 -41t43.5 -98q0 -36 -31 -90t-31 -76q0 -49 51 -49q68 0 115 55q18 20 33 56
q20 40 35 100q49 186 49 577v453q0 57 -15.5 78.5t-58.5 21.5h-94v25h975v-25h-174v-1316h174z" />
    <glyph glyph-name="afii10030" unicode="&#x41c;" horiz-adv-x="1699" 
d="M63 0v25h109q68 0 68 59v1257h-177v25h459l344 -960l308 960h452v-25h-174v-1316h174v-25h-622v25h174v1278l-420 -1328h-21l-473 1332v-1223q0 -59 70 -59h121v-25h-392z" />
    <glyph glyph-name="afii10031" unicode="&#x41d;" horiz-adv-x="1454" 
d="M1380 25v-25h-604v25h156v675h-412v-675h158v-25h-604v25h174v1316h-174v25h604v-25h-158v-616h412v616h-156v25h604v-25h-174v-1316h174z" />
    <glyph glyph-name="afii10032" unicode="&#x41e;" horiz-adv-x="1398" 
d="M92 682q0 293 172 504q177 213 434 213q250 0 428 -211q179 -209 179 -506t-179 -506t-428 -209t-428 209q-178 208 -178 506zM1004 682q0 504 -113 623q-66 69 -193 69t-190 -69q-115 -121 -115 -623q0 -270 25 -414q27 -138 90 -207q65 -71 190 -71q128 0 193 71
q64 67 88 205q25 144 25 416z" />
    <glyph glyph-name="afii10033" unicode="&#x41f;" horiz-adv-x="1454" 
d="M1380 25v-25h-604v25h156v1316h-412v-1316h158v-25h-604v25h174v1316h-174v25h1306v-25h-174v-1316h174z" />
    <glyph glyph-name="afii10034" unicode="&#x420;" horiz-adv-x="1196" 
d="M1139 954q0 -177 -120 -275.5t-337 -98.5q-78 0 -160 24v-579h176v-25h-624v25h174v1316h-174v25h549q245 0 381 -115q135 -114 135 -297zM866 954q0 209 -56 298t-187 89h-101v-706q67 -31 160 -31q129 0 156 64q28 67 28 286z" />
    <glyph glyph-name="afii10035" unicode="&#x421;" horiz-adv-x="1249" 
d="M1145 506v-535h-21q-5 23 -27.5 40.5t-56.5 17.5q-35 0 -159 -31t-174 -31q-261 0 -439 211q-176 212 -176 504q0 293 172 504q177 213 434 213q45 0 150 -27q108 -24 147 -24q37 0 63.5 13.5t31.5 31.5h22v-465h-22q0 145 -129 295q-127 151 -263 151q-126 0 -192 -69
q-115 -124 -115 -623q0 -497 115 -621q65 -71 201 -71q163 0 290 160q127 165 127 356h21z" />
    <glyph glyph-name="afii10036" unicode="&#x422;" horiz-adv-x="1255" 
d="M1214 1366v-469h-22q0 187 -100 313q-101 131 -293 131h-39v-1316h172v-25h-621v25h176v1316h-41q-192 0 -286 -131q-94 -128 -94 -313h-25v469h1173z" />
    <glyph glyph-name="afii10037" unicode="&#x423;" horiz-adv-x="1251" 
d="M438 1341l320 -782l293 703q34 79 -25 79h-158v25h412v-25h-125q-46 0 -80 -79l-452 -1092q-86 -203 -244 -203q-122 0 -199 80q-76 79 -76 186q0 73 44 117.5t106 44.5t98.5 -34.5t36.5 -94.5q0 -78 -98 -139q-31 -19 -31 -49q0 -34 33 -60t86 -26q65 0 122.5 46
t94.5 134l41 98l-483 1071h-183v25h672v-25h-205z" />
    <glyph glyph-name="afii10038" unicode="&#x424;" horiz-adv-x="1683" 
d="M1100 145h-123v-120h158v-25h-588v25h158v120h-123q-205 0 -355 156q-149 155 -149 381q0 228 149 383q152 158 355 158h123v118h-158v25h588v-25h-158v-118h123q202 0 354 -158t152 -383q0 -223 -152 -381q-150 -156 -354 -156zM1309 682q0 182 -47 334q-25 86 -79 134
t-128 48h-78v-1030h78q254 0 254 514zM629 168h76v1030h-76q-77 0 -130.5 -48t-78.5 -134q-45 -154 -45 -334q0 -514 254 -514z" />
    <glyph glyph-name="afii10039" unicode="&#x425;" horiz-adv-x="1331" 
d="M907 25l-305 567l-285 -486q-49 -81 13 -81h114v-25h-383v25h119q62 0 111 81l303 512l-401 723h-187v25h672v-25h-191l269 -501l248 420q20 35 22 53.5t-6.5 23t-26.5 4.5h-119v25h383v-25h-120q-63 0 -109 -81l-260 -443l432 -792h191v-25h-674v25h190z" />
    <glyph glyph-name="afii10040" unicode="&#x426;" horiz-adv-x="1454" 
d="M1403 25v-471h-19q0 198 -104 323q-102 123 -272 123h-934v25h174v1316h-174v25h604v-25h-158v-1316h412v1316h-156v25h604v-25h-174v-1316h197z" />
    <glyph glyph-name="afii10041" unicode="&#x427;" horiz-adv-x="1392" 
d="M1319 25v-25h-643v25h192v583q-82 -24 -155 -24q-254 0 -377 82t-123 278v397h-174v25h588v-25h-142v-415q0 -179 50 -248.5t178 -69.5q91 0 155 27v706h-143v25h594v-25h-174v-1316h174z" />
    <glyph glyph-name="afii10042" unicode="&#x428;" horiz-adv-x="2004" 
d="M1931 25v-25h-1857v25h166v1316h-166v25h575v-25h-139v-1316h354v1316h-135v25h545v-25h-135v-1316h352v1316h-135v25h575v-25h-164v-1316h164z" />
    <glyph glyph-name="afii10043" unicode="&#x429;" horiz-adv-x="2015" 
d="M1964 25v-471h-18q0 197 -105 323q-102 123 -272 123h-1495v25h166v1316h-166v25h575v-25h-139v-1316h354v1316h-135v25h545v-25h-135v-1316h352v1316h-135v25h575v-25h-164v-1316h197z" />
    <glyph glyph-name="afii10044" unicode="&#x42a;" horiz-adv-x="1402" 
d="M1341 418q0 -195 -126.5 -306.5t-372.5 -111.5h-590v25h176v1316q-172 0 -272 -139q-97 -142 -97 -319h-20v483h838v-25h-177v-536h129q252 0 382 -102t130 -285zM1071 418q0 207 -59 284q-59 80 -211 80h-101v-757h115q152 0 205 86q51 86 51 307z" />
    <glyph glyph-name="afii10045" unicode="&#x42b;" horiz-adv-x="1851" 
d="M1778 25v-25h-625v25h174v1316h-174v25h625v-25h-179v-1316h179zM1141 418q0 -195 -126 -306.5t-372 -111.5h-569v25h174v1316h-174v25h624v-25h-178v-536h109q252 0 382 -102t130 -285zM872 418q0 207 -59 284q-59 80 -211 80h-82v-757h96q150 0 203 86q53 89 53 307z
" />
    <glyph glyph-name="afii10046" unicode="&#x42c;" horiz-adv-x="1222" 
d="M1161 418q0 -195 -126 -306.5t-371 -111.5h-590v25h174v1316h-174v25h624v-25h-178v-536h129q252 0 382 -102t130 -285zM893 418q0 207 -59 284q-59 80 -211 80h-103v-757h117q150 0 203 86q53 89 53 307z" />
    <glyph glyph-name="afii10047" unicode="&#x42d;" horiz-adv-x="1265" 
d="M1171 682q0 -293 -178 -504q-175 -211 -436 -211q-148 0 -285 96q-135 95 -135 236q0 72 46.5 122t113.5 50q57 0 90 -34.5t33 -94.5q0 -79 -86 -129q-5 -2 -17 -7.5t-16.5 -8l-13.5 -7.5t-12.5 -9t-8.5 -9.5t-6.5 -12t-1.5 -14.5q0 -39 96 -98q96 -57 203 -57
q136 0 201 71q114 123 114 621v18h-448v25h448q-6 463 -114 580q-38 41 -74.5 55t-99.5 14q-137 0 -260 -135q-121 -136 -121 -278h-23v432h23q5 -21 29.5 -37.5t58.5 -16.5q33 0 143 29q105 31 150 31q256 0 422 -211q165 -210 165 -506z" />
    <glyph glyph-name="afii10048" unicode="&#x42e;" horiz-adv-x="2035" 
d="M1333 -33q-249 0 -428 209t-176 506v16h-209v-673h158v-25h-604v25h174v1316h-174v25h604v-25h-158v-618h211q15 278 184 477q172 199 418 199q252 0 430 -211q179 -209 179 -506t-179 -506t-430 -209zM1640 682q0 503 -114 623q-63 69 -193 69q-122 0 -188 -69
q-117 -129 -117 -623q0 -276 27 -414t90 -207q65 -71 188 -71q131 0 193 71q64 67 88 203q26 133 26 418z" />
    <glyph glyph-name="afii10049" unicode="&#x42f;" horiz-adv-x="1290" 
d="M1217 25v-25h-625v25h176v634h-55q-137 0 -202 -52.5t-65 -172.5v-76q0 -190 -102 -282q-103 -92 -235 -92q-108 0 -172 67l16 19q39 -45 102 -45q54 0 84.5 41t30.5 114v137q0 160 94 257.5t271 97.5q-144 0 -252 102q-105 102 -105 238q0 147 121 250q122 104 324 104
h594v-25h-177v-1316h177zM666 684h102v657h-98q-128 0 -174 -75q-45 -71 -45 -262q0 -189 41 -254q41 -66 174 -66z" />
    <glyph glyph-name="afii10065" unicode="&#x430;" horiz-adv-x="966" 
d="M940 78l16 -15q-15 -28 -64 -53.5t-101 -25.5q-69 0 -130 40t-71 95q-46 -135 -207 -135q-128 0 -217 51q-90 53 -90 164q0 227 297 254q77 6 147 18q36 6 51 16t15 27v162q0 111 -30.5 153.5t-96.5 42.5q-109 0 -109 -94q0 -13 8.5 -44t8.5 -42q0 -37 -27 -59.5
t-76 -22.5q-48 0 -74 29t-26 74q0 64 86 123q86 57 209 57q173 0 266.5 -94t93.5 -277v-422q0 -69 47 -69q33 0 74 47zM586 236v233q-10 -6 -80 -29q-6 -1 -27.5 -3t-40 -4t-24.5 -3q-59 -12 -82 -64t-23 -184q0 -91 23 -128.5t88 -37.5q73 0 119.5 63.5t46.5 156.5z" />
    <glyph glyph-name="afii10066" unicode="&#x431;" horiz-adv-x="1058" 
d="M977 428q0 -188 -129 -317q-126 -129 -313 -129q-190 0 -316 135q-123 138 -123 381q0 300 54 477q56 174 161 285q132 138 461 159q140 9 146 86h24q-21 -160 -115 -245q-77 -70 -249 -82q-67 -2 -153 -40.5t-157 -107.5q-136 -130 -145 -467h4q43 141 153 226t255 85
q196 0 319 -129q123 -126 123 -317zM731 428q0 309 -67 379q-40 43 -129 43q-84 0 -127 -43q-66 -72 -66 -379t66 -379q43 -43 127 -43q89 0 129 43q67 70 67 379z" />
    <glyph glyph-name="afii10067" unicode="&#x432;" horiz-adv-x="1044" 
d="M985 233q0 -99 -92 -166t-244 -67h-586v25h134v823h-134v24h582q133 0 212 -51.5t79 -150.5q0 -69 -72 -135q-70 -61 -164 -70q127 -7 206 -72.5t79 -159.5zM721 666q0 99 -35.5 140.5t-126.5 41.5h-129v-375h170q68 0 94.5 44t26.5 149zM741 223q0 147 -32 185
q-35 41 -131 41h-148v-424h150q88 0 124.5 44t36.5 154z" />
    <glyph glyph-name="afii10068" unicode="&#x433;" horiz-adv-x="878" 
d="M848 872v-350h-21q0 125 -84 226q-81 100 -227 100h-82v-823h164v-25h-530v25h133v823h-133v24h780z" />
    <glyph glyph-name="afii10069" unicode="&#x434;" horiz-adv-x="991" 
d="M289 608v135q0 105 -51 105h-70v24h772v-24h-133v-823h133v-338h-20q0 123 -84 219q-82 94 -228 94h-264q-145 0 -227 -94q-84 -96 -84 -219h-21v338h105q77 81 124.5 238t47.5 345zM313 743v-135q0 -186 -46.5 -341t-123.5 -242h430v823h-208q-30 0 -41 -22t-11 -83z
" />
    <glyph glyph-name="afii10070" unicode="&#x435;" horiz-adv-x="1015" 
d="M942 489v-6h-606v-47q1 -105 7 -172.5t19 -119t37.5 -79t58.5 -41.5t87 -18q107 0 201.5 51t156.5 136l17 -17q-60 -88 -161.5 -141t-213.5 -53q-183 0 -322 133q-135 135 -135 321q0 188 135 320q138 135 322 135q124 0 219 -74q91 -68 134.5 -155.5t43.5 -172.5z
M336 508h391q-3 239 -70 315q-34 43 -112 43q-86 0 -129 -43q-77 -77 -80 -315z" />
    <glyph glyph-name="afii10072" unicode="&#x436;" horiz-adv-x="1515" 
d="M997 25v-25h-479v25h123v424h-90q-81 0 -112 -33.5t-31 -118.5v-76q0 -120 -76 -178q-75 -57 -168 -57q-108 0 -176 71l16 19q41 -47 90 -47q35 0 55.5 41t20.5 108v37q0 252 322 252q-85 25 -115 221q-27 162 -105 162q-16 0 -16 -21l20 -35q21 -34 21 -57
q0 -43 -29 -71.5t-78 -28.5t-74.5 32.5t-25.5 82.5q0 63 40 97t99 34q93 0 127 -60q30 -49 43 -125q14 -91 39 -147q38 -78 115 -78h88v375h-123v24h479v-24h-123v-375h89q77 0 112 78q27 55 41 147q13 76 41 125q37 60 129 60q59 0 99 -34t40 -97q0 -50 -25.5 -82.5
t-74.5 -32.5t-77.5 28.5t-28.5 71.5q0 23 21 57l20 35q0 21 -17 21q-77 0 -104 -162q-30 -196 -115 -221q322 0 322 -252v-37q0 -67 20 -108t55 -41q49 0 90 47l17 -19q-68 -71 -176 -71q-93 0 -168 57q-76 58 -76 178v76q0 85 -31 118.5t-112 33.5h-91v-424h123z" />
    <glyph glyph-name="afii10073" unicode="&#x437;" horiz-adv-x="866" 
d="M774 244q0 -109 -110 -185q-109 -77 -289 -77q-137 0 -226.5 54.5t-89.5 125.5q0 45 27 76.5t74 31.5q49 0 75.5 -24.5t26.5 -63.5q0 -11 -8 -42t-8 -44q0 -36 40 -63t81 -27q85 0 122 50t37 167q0 143 -28 185q-27 41 -123 41h-115v26h123q70 0 97.5 41t27.5 150
q0 108 -33.5 155t-109.5 47q-79 0 -150 -80q-70 -79 -70 -170h-20v277h20q0 -9 14 -22t31 -13q29 0 89 14q73 17 127 17q151 0 242 -61.5t91 -159.5q0 -77 -77 -142q-75 -63 -185 -63q135 0 216 -63.5t81 -157.5z" />
    <glyph glyph-name="afii10074" unicode="&#x438;" horiz-adv-x="1202" 
d="M1139 25v-25h-490v25h123v714l-342 -641v-73h123v-25h-490v25h134v823h-134v24h490v-24h-123v-692l342 641v51h-123v24h490v-24h-133v-823h133z" />
    <glyph glyph-name="afii10075" unicode="&#x439;" horiz-adv-x="1202" 
d="M1139 25v-25h-490v25h123v714l-342 -641v-73h123v-25h-490v25h134v823h-134v24h490v-24h-123v-692l342 641v51h-123v24h490v-24h-133v-823h133zM903 1210q0 -95 -94 -147q-92 -51 -209 -51q-123 0 -211 49q-88 52 -88 149q0 50 35 86.5t84 36.5q42 0 73 -27t31 -65
q0 -42 -49 -76q-49 -30 -49 -55q0 -35 47.5 -54.5t126.5 -19.5q178 0 178 74q0 16 -53 57q-47 30 -47 74q0 40 31.5 66t74.5 26q49 0 84 -36.5t35 -86.5z" />
    <glyph glyph-name="afii10076" unicode="&#x43a;" horiz-adv-x="1093" 
d="M535 449h-105v-424h123v-25h-490v25h134v823h-134v24h490v-24h-123v-375h102q78 0 113 78q27 55 41 147q13 76 41 125q37 60 129 60q59 0 99 -34t40 -97q0 -50 -25.5 -82.5t-74.5 -32.5t-78 28.5t-29 71.5q0 23 20 57l21 35q0 21 -16 21q-77 0 -104 -162
q-30 -196 -115 -221q321 0 321 -252v-37q0 -67 20.5 -108t55.5 -41q49 0 90 47l17 -19q-68 -71 -176 -71q-93 0 -168 57q-76 58 -76 178v76q0 85 -31 118.5t-112 33.5z" />
    <glyph glyph-name="afii10077" unicode="&#x43b;" horiz-adv-x="1038" 
d="M975 25v-25h-510v25h143v823h-182q-37 0 -52.5 -15t-15.5 -73v-256q0 -249 -30 -369q-38 -151 -152 -151q-160 0 -160 157q0 50 32 82.5t81 32.5q44 0 72 -28.5t28 -71.5q0 -23 -23.5 -59t-23.5 -42q0 -30 37 -30q29 0 51 32q27 38 45.5 150.5t18.5 275.5v277
q0 88 -49 88h-92v24h782v-24h-133v-823h133z" />
    <glyph glyph-name="afii10078" unicode="&#x43c;" horiz-adv-x="1384" 
d="M205 98v750h-142v24h369l270 -612l267 612h352v-24h-133v-823h133v-25h-492v25h125v757l-346 -798h-30l-349 794v-680q0 -45 11.5 -59t42.5 -14h71v-25h-291v25h89q53 0 53 73z" />
    <glyph glyph-name="afii10079" unicode="&#x43d;" horiz-adv-x="1202" 
d="M1139 25v-25h-490v25h123v424h-342v-424h123v-25h-490v25h134v823h-134v24h490v-24h-123v-375h342v375h-123v24h490v-24h-133v-823h133z" />
    <glyph glyph-name="afii10080" unicode="&#x43e;" horiz-adv-x="1073" 
d="M535 -18q-183 0 -316 133q-131 134 -131 321q0 189 131 320q132 135 316 135t317 -133t133 -322q0 -188 -133 -321t-317 -133zM664 823q-40 43 -129 43q-84 0 -127 -43q-74 -80 -74 -387t74 -387q43 -43 127 -43q89 0 129 43q75 75 75 387t-75 387z" />
    <glyph glyph-name="afii10081" unicode="&#x43f;" horiz-adv-x="1202" 
d="M1139 25v-25h-490v25h123v823h-342v-823h123v-25h-490v25h134v823h-134v24h1076v-24h-133v-823h133z" />
    <glyph glyph-name="afii10082" unicode="&#x440;" horiz-adv-x="1153" 
d="M1063 432q0 -179 -119 -313q-117 -135 -297 -135q-60 0 -124.5 28t-106.5 70v-688h133v-25h-498v25h133v1454h-133v24h365v-71q32 38 87 64t113 26q183 0 314 -143q133 -142 133 -316zM815 432q0 252 -43 342q-41 92 -156 92q-63 0 -122.5 -32t-77.5 -80v-611
q28 -63 94 -100t137 -37q91 0 129.5 97.5t38.5 328.5z" />
    <glyph glyph-name="afii10083" unicode="&#x441;" horiz-adv-x="954" 
d="M879 209l16 -16q-147 -211 -360 -211q-183 0 -316 133q-131 134 -131 321q0 189 131 320q132 135 316 135q136 0 239 -80t103 -166q0 -94 -99 -94q-42 0 -68 22.5t-26 55.5q0 16 13.5 51.5t13.5 60.5q0 63 -47 93q-43 32 -129 32q-82 0 -125 -43q-41 -41 -57.5 -128
t-16.5 -259t16.5 -259t57.5 -128q43 -43 125 -43q206 0 344 203z" />
    <glyph glyph-name="afii10084" unicode="&#x442;" horiz-adv-x="950" 
d="M913 872v-350h-20q0 126 -74 226q-72 100 -196 100h-31v-823h143v-25h-520v25h143v823h-30q-127 0 -199 -100q-72 -101 -72 -226h-20v350h876z" />
    <glyph glyph-name="afii10085" unicode="&#x443;" horiz-adv-x="952" 
d="M829 762l-481 -1245q-64 -166 -201 -166q-65 0 -110 48.5t-45 115.5q0 54 32.5 91.5t81.5 37.5q43 0 71 -25t28 -61q0 -16 -24.5 -57t-24.5 -58q0 -51 28 -51q91 0 138 121l176 458l-424 877h-123v24h520v-24h-143l286 -590l193 504q35 86 -31 86h-88v24h313v-24h-75
q-39 0 -56.5 -15t-40.5 -71z" />
    <glyph glyph-name="afii10086" unicode="&#x444;" horiz-adv-x="1550" 
d="M1081 -18q-51 0 -107.5 19.5t-82.5 45.5v-653h133v-25h-498v25h133v653q-89 -65 -190 -65q-181 0 -283 129q-98 128 -98 325q0 198 98 326q102 129 283 129q119 0 190 -68v658h-133v24h365v-682q71 68 190 68q182 0 281 -129q100 -126 100 -326q0 -199 -100 -325
q-99 -129 -281 -129zM1221 377v74q0 116 -2 151q-2 42 -13 111q-12 83 -47.5 113t-120.5 38q-70 0 -147 -71v-717q73 -70 147 -70q93 0 140 66q18 23 28 82q15 79 15 223zM659 76v717q-77 71 -147 71q-96 0 -141 -63q-21 -31 -29 -88q-6 -38 -10 -111q-2 -35 -2 -151v-74
q0 -134 12 -223q28 -148 170 -148q74 0 147 70z" />
    <glyph glyph-name="afii10087" unicode="&#x445;" horiz-adv-x="1067" 
d="M702 25l-249 362l-230 -278q-67 -84 -18 -84h139v-25h-338v25h68q54 0 123 84l241 299l-299 440h-135v24h557v-24h-155l208 -305l172 219q28 34 31 55.5t-5.5 26t-18.5 4.5h-103v24h311v-24h-69q-54 0 -119 -86l-186 -240l344 -497h129v-25h-539v25h141z" />
    <glyph glyph-name="afii10088" unicode="&#x446;" horiz-adv-x="1222" 
d="M1171 25v-383h-20q0 131 -100 243q-100 115 -252 115h-736v25h134v823h-134v24h490v-24h-123v-823h342v823h-123v24h490v-24h-133v-823h165z" />
    <glyph glyph-name="afii10089" unicode="&#x447;" horiz-adv-x="1114" 
d="M1051 25v-25h-531v25h166v350q-82 -27 -168 -27q-191 0 -285 55q-92 59 -92 230v215h-121v24h467v-24h-112v-301q0 -103 30 -138.5t113 -35.5q95 0 168 28v447h-113v24h478v-24h-131v-823h131z" />
    <glyph glyph-name="afii10090" unicode="&#x448;" horiz-adv-x="1703" 
d="M1640 25v-25h-1577v25h123v823h-123v24h465v-24h-112v-823h311v823h-113v24h455v-24h-113v-823h312v823h-113v24h485v-24h-143v-823h143z" />
    <glyph glyph-name="afii10091" unicode="&#x449;" horiz-adv-x="1714" 
d="M1663 25v-383h-21q0 131 -100 243q-100 115 -252 115h-1227v25h123v823h-123v24h465v-24h-112v-823h311v823h-113v24h455v-24h-113v-823h312v823h-113v24h485v-24h-143v-823h166z" />
    <glyph glyph-name="afii10092" unicode="&#x44a;" horiz-adv-x="1124" 
d="M848 270q0 127 -39 176.5t-133 49.5h-135v-471h143q90 0 127 55.5t37 189.5zM711 0h-537v25h133v823q-116 0 -184 -103q-66 -104 -66 -227h-26v354h655v-24h-145v-328h161q182 0 276.5 -65.5t94.5 -184.5q0 -125 -92 -197.5t-270 -72.5z" />
    <glyph glyph-name="afii10093" unicode="&#x44b;" horiz-adv-x="1529" 
d="M1466 25v-25h-489v25h123v823h-123v24h489v-24h-133v-823h133zM942 270q0 -125 -92 -197.5t-270 -72.5h-517v25h134v823h-134v24h512v-24h-145v-328h141q182 0 276.5 -65.5t94.5 -184.5zM717 270q0 127 -39 176.5t-133 49.5h-115v-471h123q90 0 127 55.5t37 189.5z" />
    <glyph glyph-name="afii10094" unicode="&#x44c;" horiz-adv-x="1013" 
d="M963 270q0 -125 -92.5 -197.5t-270.5 -72.5h-537v25h134v823h-134v24h512v-24h-145v-328h162q182 0 276.5 -65.5t94.5 -184.5zM737 270q0 127 -39 176.5t-133 49.5h-135v-471h143q90 0 127 55.5t37 189.5z" />
    <glyph glyph-name="afii10095" unicode="&#x44d;" horiz-adv-x="954" 
d="M866 436q0 -185 -133 -321q-133 -133 -313 -133q-140 0 -240 75q-98 76 -98 162q0 94 94 94q42 0 68 -22t26 -55q0 -16 -13 -52t-13 -61q0 -121 176 -121q82 0 125 43q41 41 57 129t16 262v13h-294v24h294q-3 282 -73 352q-43 43 -125 43q-89 0 -172 -80
q-82 -76 -82 -210h-21v296h21q0 -9 14 -21.5t31 -12.5q23 0 84 24q65 27 125 27q190 0 317 -133q129 -132 129 -322z" />
    <glyph glyph-name="afii10096" unicode="&#x44e;" horiz-adv-x="1560" 
d="M1022 -18q-184 0 -317 133q-133 136 -130 321v13h-145v-424h123v-25h-490v25h134v823h-134v24h490v-24h-123v-375h148q15 174 145 295q129 123 299 123q184 0 317 -133q134 -134 134 -322q0 -187 -134 -321q-133 -133 -317 -133zM1151 823q-40 43 -129 43q-84 0 -127 -43
q-74 -80 -74 -387t74 -387q43 -43 127 -43q89 0 129 43q76 76 76 387t-76 387z" />
    <glyph glyph-name="afii10097" unicode="&#x44f;" horiz-adv-x="1103" 
d="M1040 25v-25h-489v25h123v387h-129q-71 0 -103 -32t-32 -108v-55q1 -84 -41 -144t-102.5 -80.5t-131 -3.5t-123.5 74l17 19q43 -49 82 -49q55 0 55 112v45q0 120 57.5 180t202.5 60q-115 0 -187.5 61t-72.5 154q0 96 90 162q92 65 231 65h553v-24h-133v-823h133zM549 436
h125v412h-113q-86 0 -124 -49t-38 -158q0 -112 32.5 -158.5t117.5 -46.5z" />
    <glyph glyph-name="afii10071" unicode="&#x451;" horiz-adv-x="1015" 
d="M942 489v-6h-606v-47q1 -105 7 -172.5t19 -119t37.5 -79t58.5 -41.5t87 -18q107 0 201.5 51t156.5 136l17 -17q-60 -88 -161.5 -141t-213.5 -53q-183 0 -322 133q-135 135 -135 321q0 188 135 320q138 135 322 135q124 0 219 -74q91 -68 134.5 -155.5t43.5 -172.5z
M336 508h391q-3 239 -70 315q-34 43 -112 43q-86 0 -129 -43q-77 -77 -80 -315zM799 1298q35 -32 35 -81.5t-35 -81.5q-32 -32 -81.5 -32t-84.5 32t-35 81.5t35 81.5t84.5 32t81.5 -32zM479 1217q0 -47 -34.5 -81t-79.5 -34q-51 0 -85 33t-34 82q0 51 33.5 82.5t85.5 31.5
q45 0 79.5 -33t34.5 -81z" />
    <glyph glyph-name="afii10099" unicode="&#x452;" horiz-adv-x="1138" 
d="M1014 549v-354q0 -596 -375 -596q-79 0 -143 49q-64 46 -64 119q0 43 32.5 76.5t76.5 33.5q50 0 78 -23t28 -61q0 -15 -16.5 -50t-16.5 -58q0 -37 12.5 -50.5t47.5 -13.5q104 0 104 242v794q0 209 -119 209q-92 0 -148 -48t-91 -154v-639h129v-25h-498v25h133v1083h-133
v25h133v348h-133v24h369v-372h399v-25h-399v-377q25 77 90.5 118.5t148.5 41.5q166 0 260.5 -90.5t94.5 -251.5z" />
    <glyph glyph-name="afii10100" unicode="&#x453;" horiz-adv-x="878" 
d="M848 872v-350h-21q0 125 -84 226q-81 100 -227 100h-82v-823h164v-25h-530v25h133v823h-133v24h780zM248 1032l-10 10l286 314q47 47 86 47q35 0 58.5 -24.5t23.5 -57.5q0 -45 -43 -66z" />
    <glyph glyph-name="afii10101" unicode="&#x454;" horiz-adv-x="954" 
d="M535 -18q-183 0 -316 133q-131 134 -131 321q0 189 127 322q130 133 320 133q61 0 122 -27q64 -24 86 -24q17 0 31 12.5t14 21.5h21v-296h-21q0 133 -83 210q-83 80 -170 80q-82 0 -125 -43q-71 -71 -74 -352h295v-24h-295v-13q0 -173 16.5 -261.5t57.5 -129.5
q39 -39 125 -39q206 0 344 203l16 -16q-147 -211 -360 -211z" />
    <glyph glyph-name="afii10102" unicode="&#x455;" horiz-adv-x="813" 
d="M758 285q0 -131 -89.5 -217t-234.5 -86q-75 0 -137 26q-66 29 -90 29q-25 0 -49 -13t-29 -26h-20v315h24q0 -132 86 -221q86 -86 215 -86q91 0 141 48.5t50 138.5q0 70 -53.5 106.5t-196.5 69.5q-127 27 -188.5 83.5t-61.5 153.5q0 132 80 209q82 76 190 76
q47 0 113.5 -19.5t75.5 -19.5q17 0 32 15.5t15 25.5h20v-254h-20q0 88 -78 160q-77 71 -158 71q-73 0 -113 -41t-40 -120q0 -65 51 -98t196 -70q123 -31 196 -96.5t73 -159.5z" />
    <glyph glyph-name="afii10103" unicode="&#x456;" horiz-adv-x="628" 
d="M575 25v-25h-501v25h135v823h-135v24h368v-847h133zM457 1225q0 -60 -39 -101t-99 -41q-54 0 -91.5 41t-37.5 101q0 54 37.5 91.5t91.5 37.5q60 0 99 -36.5t39 -92.5z" />
    <glyph glyph-name="afii10104" unicode="&#x457;" horiz-adv-x="628" 
d="M584 1298q35 -32 35 -81.5t-35 -81.5q-32 -32 -81.5 -32t-84.5 32t-35 81.5t35 81.5t84.5 32t81.5 -32zM264 1217q0 -47 -34.5 -81t-79.5 -34q-51 0 -85 33t-34 82q0 51 33.5 82.5t85.5 31.5q45 0 79.5 -33t34.5 -81zM575 25v-25h-501v25h135v823h-135v24h368v-847h133z
" />
    <glyph glyph-name="afii10105" unicode="&#x458;" horiz-adv-x="602" 
d="M442 872v-921q0 -308 -100.5 -453t-284.5 -145q-77 0 -137 51q-61 52 -61 123q0 43 32 77t76 34q50 0 78.5 -23t28.5 -61q0 -15 -16.5 -50.5t-16.5 -58.5q0 -37 12 -50t47 -13q109 0 109 241v1225h-133v24h366zM459 1225q0 -61 -38.5 -101.5t-98.5 -40.5q-54 0 -91.5 41
t-37.5 101q0 54 37.5 91.5t91.5 37.5q60 0 98.5 -36.5t38.5 -92.5z" />
    <glyph glyph-name="afii10106" unicode="&#x459;" horiz-adv-x="1435" 
d="M1149 270q0 127 -39 176.5t-133 49.5h-135v-471h143q88 0 126 56t38 189zM1022 0h-557v25h143v823h-182q-37 0 -52.5 -15t-15.5 -73v-256q0 -249 -30 -369q-38 -151 -152 -151q-160 0 -160 157q0 50 32 82.5t81 32.5q44 0 72 -28.5t28 -71.5q0 -23 -23.5 -59t-23.5 -42
q0 -30 37 -30q29 0 51 32q27 38 45.5 150.5t18.5 275.5v277q0 88 -49 88h-92v24h794v-24h-145v-328h172q182 0 276 -65.5t94 -184.5q0 -125 -92 -197.5t-270 -72.5z" />
    <glyph glyph-name="afii10107" unicode="&#x45a;" horiz-adv-x="1576" 
d="M1186 0h-537v25h123v438h-342v-438h123v-25h-490v25h134v823h-134v24h490v-24h-123v-361h342v361h-123v24h490v-24h-146v-361h183q168 0 259 -60.5t91 -172.5q0 -117 -89 -185.5t-251 -68.5zM1300 254q0 112 -40.5 160.5t-131.5 48.5h-135v-438h144q88 0 125.5 53
t37.5 176z" />
    <glyph glyph-name="afii10108" unicode="&#x45b;" horiz-adv-x="1173" 
d="M1145 25v-25h-494v25h127v632q0 209 -119 209q-92 0 -148 -48t-91 -154v-639h129v-25h-498v25h133v1136h-133v25h133v295h-133v24h369v-319h399v-25h-399v-430q25 77 90.5 118.5t148.5 41.5q166 0 260.5 -90.5t94.5 -251.5v-524h131z" />
    <glyph glyph-name="afii10109" unicode="&#x45c;" horiz-adv-x="1093" 
d="M535 449h-105v-424h123v-25h-490v25h134v823h-134v24h490v-24h-123v-375h102q78 0 113 78q27 55 41 147q13 76 41 125q37 60 129 60q59 0 99 -34t40 -97q0 -50 -25.5 -82.5t-74.5 -32.5t-78 28.5t-29 71.5q0 23 20 57l21 35q0 21 -16 21q-77 0 -104 -162
q-30 -196 -115 -221q321 0 321 -252v-37q0 -67 20.5 -108t55.5 -41q49 0 90 47l17 -19q-68 -71 -176 -71q-93 0 -168 57q-76 58 -76 178v76q0 85 -31 118.5t-112 33.5zM352 1032l-10 10l287 314q47 47 86 47q35 0 58.5 -24.5t23.5 -57.5q0 -45 -43 -66z" />
    <glyph glyph-name="afii10110" unicode="&#x45e;" horiz-adv-x="952" 
d="M829 762l-481 -1245q-64 -166 -201 -166q-65 0 -110 48.5t-45 115.5q0 54 32.5 91.5t81.5 37.5q43 0 71 -25t28 -61q0 -16 -24.5 -57t-24.5 -58q0 -51 28 -51q91 0 138 121l176 458l-424 877h-123v24h520v-24h-143l286 -590l193 504q35 86 -31 86h-88v24h313v-24h-75
q-39 0 -56.5 -15t-40.5 -71zM834 1210q0 -94 -95 -147q-92 -51 -209 -51q-123 0 -211 49q-88 52 -88 149q0 50 35 86.5t84 36.5q42 0 73.5 -27t31.5 -65q0 -42 -49 -76q-50 -30 -50 -55q0 -35 47.5 -54.5t126.5 -19.5q179 0 179 74q0 15 -54 57q-47 30 -47 74q0 40 32 66
t75 26q49 0 84 -36.5t35 -86.5z" />
    <glyph glyph-name="afii10193" unicode="&#x45f;" horiz-adv-x="1202" 
d="M1139 0h-525v-12q0 -63 52 -127q51 -63 51 -119q0 -51 -33.5 -86t-81.5 -35t-81.5 35t-33.5 86t52 115q51 63 51 129v14h-527v25h134v823h-134v24h490v-24h-123v-823h342v823h-123v24h490v-24h-133v-823h133v-25z" />
    <glyph glyph-name="afii10050" unicode="&#x490;" horiz-adv-x="1118" 
d="M1077 1812v-471h-557v-1316h197v-25h-643v25h174v1316h-174v25h592q191 0 292 131t101 315h18z" />
    <glyph glyph-name="afii10098" unicode="&#x491;" horiz-adv-x="858" 
d="M838 1182v-334h-404v-823h164v-25h-530v25h133v823h-133v24h454q140 0 219 91q76 91 76 219h21z" />
    <glyph glyph-name="Wgrave" unicode="&#x1e80;" horiz-adv-x="1923" 
d="M659 -29h-41l-514 1370h-186v25h651v-25h-176l371 -991l213 654l-117 337h-194v25h680v-25h-205l342 -991l303 920q7 24 6.5 38t-10.5 21.5t-17.5 9.5t-13.5 2h-129v25h387v-25h-119q-33 0 -51 -16t-35 -65l-426 -1289h-37l-352 1006zM895 1812l287 -313l-11 -10
l-401 223q-43 21 -43 66q0 33 23.5 57.5t58.5 24.5q38 0 86 -48z" />
    <glyph glyph-name="wgrave" unicode="&#x1e81;" horiz-adv-x="1509" 
d="M516 -16h-41l-397 864h-127v24h520v-24h-139l256 -594l166 444l-72 150h-104v24h501v-24h-141l260 -588l195 502q18 51 9 68.5t-48 17.5h-84v24h305v-24h-72q-34 0 -51.5 -17.5t-36.5 -68.5l-291 -778h-41l-315 682zM688 1356l287 -314l-10 -10l-402 223q-43 21 -43 66
q0 33 23.5 57.5t58.5 24.5q39 0 86 -47z" />
    <glyph glyph-name="Wacute" unicode="&#x1e82;" horiz-adv-x="1923" 
d="M659 -29h-41l-514 1370h-186v25h651v-25h-176l371 -991l213 654l-117 337h-194v25h680v-25h-205l342 -991l303 920q7 24 6.5 38t-10.5 21.5t-17.5 9.5t-13.5 2h-129v25h387v-25h-119q-33 0 -51 -16t-35 -65l-426 -1289h-37l-352 1006zM903 1489l-10 10l287 313
q48 48 86 48q35 0 58.5 -24.5t23.5 -57.5q0 -45 -43 -66z" />
    <glyph glyph-name="wacute" unicode="&#x1e83;" horiz-adv-x="1509" 
d="M516 -16h-41l-397 864h-127v24h520v-24h-139l256 -594l166 444l-72 150h-104v24h501v-24h-141l260 -588l195 502q18 51 9 68.5t-48 17.5h-84v24h305v-24h-72q-34 0 -51.5 -17.5t-36.5 -68.5l-291 -778h-41l-315 682zM655 1032l-10 10l287 314q47 47 86 47
q35 0 58.5 -24.5t23.5 -57.5q0 -45 -43 -66z" />
    <glyph glyph-name="Wdieresis" unicode="&#x1e84;" horiz-adv-x="1923" 
d="M659 -29h-41l-514 1370h-186v25h651v-25h-176l371 -991l213 654l-117 337h-194v25h680v-25h-205l342 -991l303 920q7 24 6.5 38t-10.5 21.5t-17.5 9.5t-13.5 2h-129v25h387v-25h-119q-33 0 -51 -16t-35 -65l-426 -1289h-37l-352 1006zM954 1655q0 -61 -38.5 -101.5
t-98.5 -40.5q-54 0 -91.5 41t-37.5 101q0 54 37.5 91.5t91.5 37.5q60 0 98.5 -36.5t38.5 -92.5zM1356 1655q0 -61 -38.5 -101.5t-98.5 -40.5q-54 0 -91.5 41t-37.5 101q0 54 37.5 91.5t91.5 37.5q60 0 98.5 -36.5t38.5 -92.5z" />
    <glyph glyph-name="wdieresis" unicode="&#x1e85;" horiz-adv-x="1509" 
d="M516 -16h-41l-397 864h-127v24h520v-24h-139l256 -594l166 444l-72 150h-104v24h501v-24h-141l260 -588l195 502q18 51 9 68.5t-48 17.5h-84v24h305v-24h-72q-34 0 -51.5 -17.5t-36.5 -68.5l-291 -778h-41l-315 682zM1075 1298q35 -32 35 -81.5t-35 -81.5
q-32 -32 -81.5 -32t-84.5 32t-35 81.5t35 81.5t84.5 32t81.5 -32zM756 1217q0 -47 -35 -81t-80 -34q-51 0 -85 33t-34 82q0 51 33.5 82.5t85.5 31.5q46 0 80.5 -33t34.5 -81z" />
    <glyph glyph-name="Ygrave" unicode="&#x1ef2;" horiz-adv-x="1241" 
d="M975 0h-621v25h176v571l-366 745h-191v25h678v-25h-198l340 -692l278 611q37 81 -27 81h-131v25h385v-25h-112q-55 0 -99 -92l-288 -637v-587h176v-25zM553 1812l287 -313l-11 -10l-401 223q-43 21 -43 66q0 33 23.5 57.5t58.5 24.5q38 0 86 -48z" />
    <glyph glyph-name="ygrave" unicode="&#x1ef3;" horiz-adv-x="952" 
d="M147 -649q-65 0 -110 48.5t-45 115.5q0 54 32.5 91.5t81.5 37.5q43 0 71 -25t28 -61q0 -16 -24.5 -57t-24.5 -58q0 -51 28 -51q91 0 138 121l176 458l-424 877h-123v24h520v-24h-143l286 -590l193 504q35 86 -31 86h-88v24h313v-24h-75q-39 0 -56.5 -15t-40.5 -71
l-481 -1245q-64 -166 -201 -166zM410 1356l286 -314l-10 -10l-401 223q-43 21 -43 66q0 33 23.5 57.5t58.5 24.5q39 0 86 -47z" />
    <glyph glyph-name="endash" unicode="&#x2013;" horiz-adv-x="1024" 
d="M995 504v-41h-966v41h966z" />
    <glyph glyph-name="emdash" unicode="&#x2014;" horiz-adv-x="2048" 
d="M1991 504v-41h-1934v41h1934z" />
    <glyph glyph-name="quoteleft" unicode="&#x2018;" horiz-adv-x="452" 
d="M354 1399l4 -31q-45 -9 -90 -63q-43 -52 -43 -105q0 -72 68 -125q45 -36 45 -100q0 -54 -34.5 -90.5t-84.5 -36.5q-123 0 -123 158q0 106 76 231q78 129 182 162z" />
    <glyph glyph-name="quoteright" unicode="&#x2019;" horiz-adv-x="452" 
d="M356 1241q0 -107 -75 -231q-78 -128 -183 -162l-4 31q45 9 90 63q43 52 43 105q0 72 -67 124q-45 36 -45 101q0 54 34 90.5t84 36.5q123 0 123 -158z" />
    <glyph glyph-name="quotesinglbase" unicode="&#x201a;" horiz-adv-x="452" 
d="M356 70q0 -108 -75 -232q-78 -128 -183 -162l-4 31q44 9 90 64q43 52 43 104q0 73 -67 125q-45 36 -45 100q0 54 34 90.5t84 36.5q123 0 123 -157z" />
    <glyph glyph-name="quotedblleft" unicode="&#x201c;" horiz-adv-x="837" 
d="M739 1399l4 -31q-45 -9 -90 -63q-43 -52 -43 -105q0 -72 68 -125q45 -36 45 -100q0 -54 -34.5 -90.5t-84.5 -36.5q-123 0 -123 158q0 106 76 231q78 129 182 162zM354 1399l4 -31q-45 -9 -90 -63q-43 -52 -43 -105q0 -72 68 -125q45 -36 45 -100q0 -54 -34.5 -90.5
t-84.5 -36.5q-123 0 -123 158q0 106 76 231q78 129 182 162z" />
    <glyph glyph-name="quotedblright" unicode="&#x201d;" horiz-adv-x="837" 
d="M741 1241q0 -107 -75 -231q-78 -128 -183 -162l-4 31q45 9 90 63q43 52 43 105q0 72 -67 124q-45 36 -45 101q0 54 34 90.5t84 36.5q123 0 123 -158zM356 1241q0 -107 -75 -231q-78 -128 -183 -162l-4 31q45 9 90 63q43 52 43 105q0 72 -67 124q-45 36 -45 101
q0 54 34 90.5t84 36.5q123 0 123 -158z" />
    <glyph glyph-name="quotedblbase" unicode="&#x201e;" horiz-adv-x="837" 
d="M741 70q0 -108 -75 -232q-78 -128 -183 -162l-4 31q44 9 90 64q43 52 43 104q0 73 -67 125q-45 36 -45 100q0 54 34 90.5t84 36.5q123 0 123 -157zM356 70q0 -108 -75 -232q-78 -128 -183 -162l-4 31q44 9 90 64q43 52 43 104q0 73 -67 125q-45 36 -45 100q0 54 34 90.5
t84 36.5q123 0 123 -157z" />
    <glyph glyph-name="dagger" unicode="&#x2020;" horiz-adv-x="1024" 
d="M909 928q0 -38 -22 -64t-56 -26q-38 0 -131 43t-145 43q-27 0 -33 -2v-27q0 -242 96 -358q-98 -295 -98 -828h-18q0 529 -99 828q97 117 97 358v27q-6 2 -33 2q-52 0 -145 -43t-132 -43q-34 0 -55.5 26t-21.5 64q0 39 25 65.5t63 26.5q27 0 94 -25q143 -57 205 -57v41
q0 49 -13 94q-7 21 -12 41q-1 4 -3.5 11t-7.5 19.5l-9 22.5q-5 13 -12 33t-9 25q-18 53 -18 75q0 42 27 70.5t69 28.5q41 0 67.5 -28.5t26.5 -70.5q0 -22 -18 -75q-21 -51 -23 -58q-16 -43 -18 -53q-25 -73 -25 -135v-41q62 0 205 57q67 25 94 25q38 0 63 -26.5t25 -65.5z
" />
    <glyph glyph-name="daggerdbl" unicode="&#x2021;" horiz-adv-x="1024" 
d="M909 170q0 -39 -25 -65.5t-63 -26.5q-29 0 -94 24q-143 58 -199 58h-6v-31q0 -58 10 -106q9 -32 48 -129q26 -62 26 -97q0 -40 -26 -69t-66 -29q-44 0 -71 28t-27 70q0 35 26 97q38 93 45 129q13 47 13 106v31h-6q-56 0 -199 -58q-65 -24 -94 -24q-38 0 -63 26.5
t-25 65.5q0 37 20 63q21 27 57 27q37 0 144 -43q85 -43 145 -43q17 0 21 2v35q0 216 -90 338q90 122 90 338v35q-4 2 -21 2q-60 0 -145 -43q-107 -43 -144 -43q-34 0 -55.5 26t-21.5 64q0 39 25 65.5t63 26.5q27 0 94 -25q140 -57 199 -57h6v31q0 59 -13 106q-7 36 -45 129
q-26 62 -26 96q0 42 27.5 70.5t70.5 28.5q40 0 66 -29.5t26 -69.5q0 -34 -26 -96q-39 -97 -48 -129q-10 -48 -10 -106v-31h6q59 0 199 57q67 25 94 25q38 0 63 -26.5t25 -65.5q0 -38 -22 -64t-56 -26q-36 0 -143 43q-85 43 -145 43q-17 0 -21 -2v-35q0 -216 90 -338
q-90 -122 -90 -338v-35q4 -2 21 -2q60 0 145 43q107 43 143 43q34 0 56 -26t22 -64z" />
    <glyph glyph-name="bullet" unicode="&#x2022;" horiz-adv-x="702" 
d="M530 913q76 -76 76 -188q0 -111 -76 -190q-75 -78 -178 -78q-102 0 -180 78q-74 77 -74 190t74 190q78 78 180 78q104 0 178 -80z" />
    <glyph glyph-name="ellipsis" unicode="&#x2026;" horiz-adv-x="1263" 
d="M1182 106q0 -57 -36 -95t-93 -38q-54 0 -88.5 38t-34.5 95q0 51 36 86t87 35q55 0 92 -35t37 -86zM758 106q0 -57 -36 -95t-93 -38q-51 0 -86 38t-35 95q0 51 35 86t86 35q56 0 92.5 -34.5t36.5 -86.5zM336 106q0 -57 -36 -95t-93 -38q-51 0 -86 38t-35 95q0 51 35 86
t86 35q55 0 92 -35t37 -86z" />
    <glyph glyph-name="perthousand" unicode="&#x2030;" horiz-adv-x="2111" 
d="M399 705q-131 0 -213 98q-84 101 -84 239q0 141 84 242q82 98 213 98q135 0 217 -98q86 -100 86 -242q0 -141 -86 -241q-84 -96 -217 -96zM526 1042q0 188 -24 252q-25 66 -103 66q-70 0 -98 -66q-25 -67 -25 -252q0 -103 7 -166.5t24 -95.5t37.5 -42.5t54.5 -10.5
q74 0 101 59q26 56 26 256zM1110 1419l35 -20l-830 -1446l-30 22zM979 -16q-131 0 -213 98q-84 101 -84 240q0 140 84 241q82 99 213 99q135 0 217 -99q86 -100 86 -241q0 -142 -86 -242q-84 -96 -217 -96zM1106 322q0 184 -25 251q-25 66 -102 66q-70 0 -98 -66
q-25 -67 -25 -251q0 -103 7 -167t24 -96t37.5 -42.5t54.5 -10.5q72 0 100 60q27 59 27 256zM1706 -16q-131 0 -213 98q-84 101 -84 240q0 140 84 241q83 99 213 99q134 0 217 -99q86 -100 86 -241q0 -142 -86 -242q-84 -96 -217 -96zM1833 322q0 184 -25 251q-25 66 -102 66
q-70 0 -98 -66q-25 -67 -25 -251q0 -103 7 -167t24 -96t37.5 -42.5t54.5 -10.5q72 0 100 60q27 59 27 256z" />
    <glyph glyph-name="guilsinglleft" unicode="&#x2039;" horiz-adv-x="446" 
d="M381 123h-43q0 55 -33 112.5t-88 102.5q-99 81 -156 113v8q61 34 156 112q55 45 88 102.5t33 112.5h43q0 -95 -37 -188q-36 -98 -78 -143q43 -46 78 -146q37 -93 37 -186z" />
    <glyph glyph-name="guilsinglright" unicode="&#x203a;" horiz-adv-x="446" 
d="M381 459v-8q-57 -32 -156 -113q-55 -45 -88 -102.5t-33 -112.5h-43q0 90 35 186q38 102 80 146q-40 43 -80 143q-35 96 -35 188h43q0 -55 33 -112.5t88 -102.5q95 -78 156 -112z" />
    <glyph glyph-name="fraction" unicode="&#x2044;" horiz-adv-x="1024" 
d="M909 1395l39 -21l-835 -1407l-37 23z" />
    <glyph glyph-name="four.superior" unicode="&#x2074;" horiz-adv-x="675" 
d="M604 569v-22h-336v22h94v244h-305v14q58 82 86 136l213 403q40 -12 107 18q68 33 100 62l19 -12l-496 -598h276v129q36 1 73 35.5t52 70.5h23v-235h135v-23h-135v-244h94z" />
    <glyph glyph-name="one.inferior" unicode="&#x2081;" horiz-adv-x="675" 
d="M518 23v-23h-336v23h94v774h-94v22h242v-796h94z" />
    <glyph glyph-name="two.inferior" unicode="&#x2082;" horiz-adv-x="675" 
d="M190 123v-6h244q60 0 86.5 21.5t26.5 72.5h16v-211h-477v41l201 213q91 114 119 186q28 73 28 191q0 98 -28.5 140t-92.5 42q-43 0 -72.5 -21t-29.5 -57q0 -7 6 -28t6 -25q0 -20 -17.5 -34.5t-45.5 -14.5q-64 0 -64 61q0 43 68 90t149 47q107 0 187 -53q82 -52 82 -157
q0 -41 -23.5 -88.5t-54.5 -83.5q-6 -6 -37 -38.5t-57 -58.5q-25 -25 -58.5 -59t-42.5 -43z" />
    <glyph glyph-name="three.inferior" unicode="&#x2083;" horiz-adv-x="675" 
d="M586 240q0 -112 -99 -183q-94 -67 -208 -67q-85 0 -150 41q-61 43 -61 90q0 28 16 47.5t47 19.5q28 0 45 -16.5t17 -36.5q0 -7 -5.5 -25t-5.5 -26q0 -72 97 -72q85 0 118 39q35 41 35 178t-24 177q-20 38 -82 38q-41 0 -109 -36l-10 18q116 56 141 94q31 42 31 156
q0 79 -17 104t-69 25q-36 0 -59 -17.5t-23 -46.5q0 -8 6 -25t6 -24q0 -22 -17 -38.5t-46 -16.5q-62 0 -62 68q0 35 60 77q61 43 135 43q108 0 171.5 -41t63.5 -118q0 -64 -77 -129q-77 -62 -132 -74q4 0 15 1t14 1q108 -4 173 -68t65 -157z" />
    <glyph glyph-name="four.inferior" unicode="&#x2084;" horiz-adv-x="675" 
d="M604 23v-23h-336v23h94v243h-305v15q60 85 86 135l213 403q39 -11 107 19q71 35 100 61l19 -12l-496 -598h276v129q36 1 73 35.5t52 70.5h23v-235h135v-23h-135v-243h94z" />
    <glyph glyph-name="Euro" unicode="&#x20ac;" horiz-adv-x="1138" 
d="M29 801v24h131q27 251 174 414q148 160 356 160q135 0 209 -59.5t74 -149.5q0 -45 -37 -79t-88 -34q-105 0 -105 92q0 17 22.5 59.5t22.5 63.5q0 35 -28.5 59.5t-69.5 24.5q-169 0 -233 -176q-51 -140 -60 -375h385v-24h-385v-99v-88h385v-24h-385q3 -237 52 -402
q54 -180 213 -180q94 0 157 40t121 128l23 -12q-116 -180 -301 -180q-200 0 -338 163q-137 162 -164 443h-131v24h129q-4 78 -4 93q0 54 4 94h-129z" />
    <glyph glyph-name="afii61289" unicode="&#x2113;" horiz-adv-x="1024" 
d="M674 70q79 0 198 98l27 -35q-143 -162 -309 -162q-139 0 -222 77.5t-83 221.5v176l-125 -114l-33 37l158 157v469q0 218 112 348q116 134 254 134q96 0 151.5 -67t55.5 -177q0 -145 -81.5 -294t-260.5 -335v-313q0 -221 158 -221zM715 1243q0 81 -27.5 134t-73.5 53
q-43 0 -70.5 -49.5t-27.5 -137.5v-557q96 115 147.5 261.5t51.5 295.5z" />
    <glyph glyph-name="afii61352" unicode="&#x2116;" horiz-adv-x="1665" 
d="M954 -25l-690 1344v-1235q0 -59 70 -59h106v-25h-374v25h106q68 0 68 59v1257h-177v25h396l512 -932v850q0 57 -68 57h-106v25h374v-25h-104q-72 0 -72 -57v-1309h-41zM1352 463q-88 0 -158 76t-70 180q0 102 70 178t158 76q89 0 159 -76q72 -78 72 -178q0 -102 -72 -180
q-70 -76 -159 -76zM1577 373v-25h-444v25h444zM1442 647v84q0 129 -17 178q-15 43 -73 43q-86 0 -86 -180v-121q0 -166 86 -166q90 0 90 162z" />
    <glyph glyph-name="trademark" unicode="&#x2122;" horiz-adv-x="1841" 
d="M760 1366v-281h-15q0 115 -62 191t-173 76h-23v-791h103v-14h-373v14h107v791h-25q-108 0 -168.5 -76t-60.5 -191h-15v281h705zM803 547v14h63q41 0 41 37v754h-104v14h274l207 -575l184 575h271v-14h-105v-791h105v-14h-373v14h104v768l-251 -797h-13l-284 799v-733
q0 -37 43 -37h71v-14h-233z" />
    <glyph glyph-name="Omega" unicode="&#x2126;" horiz-adv-x="1470" 
d="M406 852q0 -234 51 -348q52 -115 209 -162v-342h-519l-22 377h18q11 -28 23 -78q1 -2 2 -6t2.5 -11t3.5 -12q4 -12 7.5 -18t8.5 -11t9 -12q19 -32 149 -32h293v131q-211 27 -367 174q-151 145 -151 350q0 257 176 401q181 146 436 146q256 0 434 -146q179 -144 179 -401
q0 -205 -154 -350q-153 -147 -365 -174v-131h293q131 0 150 32q4 7 8.5 12t8 11t7.5 18q7 26 9 29q15 58 22 78h19l-23 -377h-518v342q155 46 207 162q53 118 53 348q0 272 -75.5 398t-254.5 126t-254 -126t-75 -398z" />
    <glyph glyph-name="estimated" unicode="&#x212e;" horiz-adv-x="1228" 
d="M1149 530h-827v-370q121 -121 296 -121q252 0 396 246l71 -43q-94 -149 -201 -213t-266 -64q-236 0 -382 162q-146 166 -146 403q0 243 146 404q143 162 382 162q235 0 381 -158q147 -156 150 -408zM322 901v-297h596v297q-129 123 -302 123q-171 0 -294 -123z" />
    <glyph glyph-name="partialdiff" unicode="&#x2202;" horiz-adv-x="1099" 
d="M1024 739q0 -294 -106 -512q-57 -119 -167 -186.5t-259 -67.5q-193 0 -326 133q-133 136 -133 328q0 182 127 318q126 135 309 135q169 0 315 -137q0 2 -0.5 10.5l-1.5 25.5t-2 33q-3 61 -6 82q0 2 -3 28.5t-7 49.5q-2 20 -4 36t-3.5 26t-5 24t-5.5 20t-7.5 24.5
t-7.5 27.5q-9 31 -21 55t-19.5 34t-31.5 40q-34 45 -83 65t-125 25q-132 0 -234 -99l-90 127q154 89 326 89q157 0 272 -59t178 -167q121 -203 121 -508zM780 633q-116 137 -262 137q-126 0 -190 -108q-62 -109 -62 -244q0 -127 60 -232q58 -102 180 -102q262 0 274 549z
" />
    <glyph glyph-name="increment" unicode="&#x2206;" horiz-adv-x="1189" 
d="M614 1395l514 -1395h-1067l517 1395h36zM106 25h728l-355 1017z" />
    <glyph glyph-name="product" unicode="&#x220f;" horiz-adv-x="1593" 
d="M1524 -414v-24h-604v24q98 0 129 17q19 16 27.5 41.5t8.5 76.5v1752q0 72 -19.5 92t-92.5 20h-365q-60 0 -81 -15.5t-21 -68.5v-1780q0 -56 7 -82t30 -36q26 -12 46.5 -14.5t82.5 -2.5v-24h-602v24q68 0 86 2t41 13q24 11 30 35t6 85v1768q0 70 -55 84q-47 12 -108 12v25
h1454v-25q-62 0 -83 -2.5t-44 -13.5q-24 -11 -31.5 -38.5t-7.5 -84.5v-1768q0 -83 104 -92h62z" />
    <glyph glyph-name="summation" unicode="&#x2211;" horiz-adv-x="1478" 
d="M1327 14h27l-21 -452h-1245l664 1091l-643 957h1185l23 -436h-27q-14 128 -64 183.5t-165 55.5h-778l510 -760l-531 -882h813q86 0 127 9t66 40t35.5 67.5t23.5 126.5z" />
    <glyph glyph-name="minus" unicode="&#x2212;" horiz-adv-x="1228" 
d="M1124 555v-111h-1024v111h1024z" />
    <glyph glyph-name="uni2219" unicode="&#x2219;" horiz-adv-x="452" 
d="M358 727q0 -60 -38.5 -100.5t-98.5 -40.5q-54 0 -91.5 40.5t-37.5 100.5q0 54 37.5 91.5t91.5 37.5q60 0 98.5 -36.5t38.5 -92.5z" />
    <glyph glyph-name="radical" unicode="&#x221a;" horiz-adv-x="985" 
d="M817 1610h88l-368 -2048h-105l-326 725l-94 -43l-39 73l191 86l315 -706z" />
    <glyph glyph-name="infinity" unicode="&#x221e;" horiz-adv-x="1517" 
d="M1413 504q0 -134 -88 -225q-90 -93 -219 -93q-109 0 -181.5 53.5t-156.5 178.5q-83 -113 -164 -168t-184 -55q-132 0 -223 88q-93 90 -93 219q0 136 89 225q89 92 221 92q183 0 338 -233q14 17 30 37t25.5 32t15.5 19q15 17 70 65q46 41 92.5 57.5t108.5 16.5
q139 0 227 -88q92 -86 92 -221zM1112 713q-24 0 -82 -23q-23 -10 -78 -59q-9 -8 -37.5 -38.5t-31.5 -33.5q-4 -6 -18.5 -22.5t-26.5 -30.5t-13 -17q135 -206 279 -206q84 0 149 65q64 67 64 154t-59.5 149t-145.5 62zM694 518q-97 124 -141 156q-66 51 -139 51
q-87 0 -150 -65.5t-63 -153.5q0 -87 60.5 -149t146.5 -62q124 0 286 223z" />
    <glyph glyph-name="integral" unicode="&#x222b;" horiz-adv-x="1251" 
d="M995 1454q0 -47 -30.5 -77.5t-75.5 -30.5q-36 0 -59.5 17.5t-34.5 42.5t-18 50t-17 42.5t-25 17.5q-35 0 -35 -56q0 -17 2 -67.5t3 -79.5q4 -136 4 -146v-1169q0 -94 -11 -160t-39 -133q-26 -70 -89 -107.5t-156 -37.5q-85 0 -156 41q-70 40 -70 114q0 47 31 77t76 30
q40 2 66.5 -24.5t36 -59.5t21.5 -59.5t27 -24.5q28 0 31 31q3 6 4 17t1 20t-0.5 21t-0.5 15q0 7 -4 117q-4 106 -4 115v1075q0 233 23 330q59 215 276 215q81 0 152 -41t71 -115z" />
    <glyph glyph-name="approxequal" unicode="&#x2248;" horiz-adv-x="1228" 
d="M1071 811h82q-14 -122 -78 -197t-170 -75q-98 0 -299 75q-204 76 -274 76q-65 0 -110 -48t-56 -120h-84q41 277 252 277q90 0 291 -76q207 -74 282 -74q134 0 164 162zM1071 471h82q-14 -124 -78 -198t-172 -74q-96 0 -297 75q-204 76 -276 76q-65 0 -109 -48t-55 -120
h-84q41 277 252 277q95 0 293 -76q201 -74 278 -74q129 0 166 162z" />
    <glyph glyph-name="notequal" unicode="&#x2260;" horiz-adv-x="1228" 
d="M1126 360v-110h-587l-156 -291l-96 51l129 240h-314v110h373l143 273h-516v110h576l160 299l94 -51l-131 -248h325v-110h-385l-145 -273h530z" />
    <glyph glyph-name="lessequal" unicode="&#x2264;" horiz-adv-x="1228" 
d="M1124 268v-123l-1022 392v120l1022 392v-123l-870 -330zM1124 57v-110h-1022v110h1022z" />
    <glyph glyph-name="greaterequal" unicode="&#x2265;" horiz-adv-x="1228" 
d="M1120 657v-120l-1022 -392v123l869 328l-869 330v123zM1120 57v-110h-1022v110h1022z" />
    <glyph glyph-name="lozenge" unicode="&#x25ca;" horiz-adv-x="1214" 
d="M709 1530l364 -801l-364 -801h-205l-363 801l363 801h205zM606 143l242 586l-242 584l-241 -584z" />
    <glyph glyph-name="commaaccent" unicode="&#xf6c3;" 
d="M487 -252q0 -100 -69 -215q-70 -119 -170 -156l-10 27q43 14 88 68q43 52 43 100q0 59 -70 111q-41 38 -41 96q0 50 33 85.5t80 35.5q116 0 116 -152z" />
    <glyph glyph-name="cyrbreve" unicode="&#xf6d4;" 
d="M662 1210q0 -94 -95 -147q-92 -51 -209 -51q-123 0 -211 49q-88 52 -88 149q0 50 35 86.5t84 36.5q42 0 73.5 -27t31.5 -65q0 -41 -50 -76q-49 -30 -49 -55q0 -35 47.5 -54.5t126.5 -19.5q179 0 179 74q0 15 -54 57q-47 30 -47 74q0 40 32 66t75 26q49 0 84 -36.5
t35 -86.5z" />
    <glyph glyph-name="NULL" horiz-adv-x="0" 
 />
    <glyph glyph-name="CR" horiz-adv-x="681" 
 />
    <glyph glyph-name="breve.cap" 
d="M664 1675q0 -94 -95 -147q-92 -51 -209 -51q-122 0 -210 49q-89 53 -89 149q0 50 35 86.5t84 36.5q42 0 73.5 -27t31.5 -65q0 -42 -49 -76q-50 -30 -50 -55q-2 -28 34 -47t88.5 -23.5t105.5 0t89.5 23.5t35.5 47q0 15 -54 57q-47 30 -47 74q0 40 32 66t75 26
q49 0 84 -36.5t35 -86.5z" />
    <glyph glyph-name="caron.alt" 
d="M487 1360q0 -100 -69 -217q-71 -118 -170 -154l-10 27q44 14 88 67q43 52 43 101q0 58 -70 110q-41 38 -41 97q0 50 33 85t80 35q116 0 116 -151z" />
    <glyph glyph-name="commaaccent.alt" 
d="M240 1200q0 100 69 215q70 119 170 156l10 -27q-44 -14 -88 -67q-43 -52 -43 -101q0 -58 70 -110q41 -38 41 -97q0 -50 -33 -85t-80 -35q-116 0 -116 151z" />
    <glyph glyph-name="acute.cap" 
d="M586 1749q0 -87 -105 -172q-102 -85 -366 -147l-6 22q91 22 162.5 82t103.5 127q80 160 137 160q32 0 53 -20.5t21 -51.5z" />
    <glyph glyph-name="cyrbreve.cap" 
d="M664 1675q0 -94 -95 -147q-92 -51 -209 -51q-122 0 -210 49q-89 53 -89 149q0 50 35 86.5t84 36.5q42 0 73.5 -27t31.5 -65q0 -42 -49 -76q-50 -30 -50 -55q-2 -28 34 -47t88.5 -23.5t105.5 0t89.5 23.5t35.5 47q0 15 -54 57q-47 30 -47 74q0 40 32 66t75 26
q49 0 84 -36.5t35 -86.5z" />
    <glyph glyph-name="dieresis.cap" 
d="M295 1655q0 -61 -38.5 -101.5t-98.5 -40.5q-54 0 -91.5 41t-37.5 101q0 54 37.5 91.5t91.5 37.5q60 0 98.5 -36.5t38.5 -92.5zM696 1655q0 -61 -38.5 -101.5t-98.5 -40.5q-54 0 -91.5 41t-37.5 101q0 54 37.5 91.5t91.5 37.5q60 0 98.5 -36.5t38.5 -92.5z" />
    <glyph glyph-name="dotaccent.cap" 
d="M494 1655q0 -60 -39 -101t-99 -41q-54 0 -91.5 41t-37.5 101q0 54 37.5 91.5t91.5 37.5q60 0 99 -36.5t39 -92.5z" />
    </font>
</defs>
</svg>
