<?xml version="1.0" encoding="utf-8"?>
<!-- Generator: Adobe Illustrator 15.0.0, SVG Export Plug-In . SVG Version: 6.00 Build 0)  -->
<!DOCTYPE svg PUBLIC "-//W3C//DTD SVG 1.1//EN" "http://www.w3.org/Graphics/SVG/1.1/DTD/svg11.dtd">
<svg version="1.1" id="Layer_1" xmlns="http://www.w3.org/2000/svg" xmlns:xlink="http://www.w3.org/1999/xlink" x="0px" y="0px"
	 width="25.5px" height="20px" viewBox="0 0 25.5 20" enable-background="new 0 0 25.5 20" xml:space="preserve">
<g>
	<path d="M22.335,2.343H3.167c-0.756,0-1.371,0.615-1.371,1.372v13.692c0,0.755,0.614,1.37,1.371,1.37h19.168
		c0.754,0,1.369-0.615,1.369-1.37V3.714C23.704,2.958,23.089,2.343,22.335,2.343L22.335,2.343z M3.167,7.604l5.255,3.578
		l-5.255,5.254V7.604z M4.136,17.406l5.436-5.442l3.182,2.159l3.163-2.173l5.448,5.456H4.136z M22.335,16.436l-5.276-5.273
		l5.276-3.632V16.436z M22.335,5.927l-0.028-0.042l-9.562,6.579L3.167,5.953V3.714h19.168V5.927z M22.335,5.927"/>
</g>
</svg>
