<?xml version="1.0" standalone="no"?>
<!DOCTYPE svg PUBLIC "-//W3C//DTD SVG 1.1//EN" "http://www.w3.org/Graphics/SVG/1.1/DTD/svg11.dtd" >
<svg xmlns="http://www.w3.org/2000/svg" xmlns:xlink="http://www.w3.org/1999/xlink" version="1.1">
<metadata>
Created by FontForge 20170731 at Thu Apr 20 08:21:01 2023
 By Aleksey,,,
Copyright (c) 2006 by Double Alex Font Studio. All rights reserved.
</metadata>
<defs>
<font id="Didot" horiz-adv-x="712" >
  <font-face 
    font-family="Didot"
    font-weight="400"
    font-stretch="normal"
    units-per-em="2048"
    panose-1="2 0 5 3 9 0 0 2 0 3"
    ascent="1434"
    descent="-614"
    x-height="872"
    cap-height="1366"
    bbox="-219 -651 2097 2111"
    underline-thickness="102"
    underline-position="-307"
    unicode-range="U+0020-FB04"
  />
<missing-glyph horiz-adv-x="362" 
 />
    <glyph glyph-name="f_b" unicode="fb" horiz-adv-x="1585" 
d="M737 0h-24v1270q0 103 -38 161t-100 58q-84 0 -136 -61.5t-52 -180.5v-375h182v-24h-182v-823h125v-25h-424v25h129v823h-156v24h156v41q0 171 31.5 297.5t87.5 190.5q103 117 239 117q115 0 181 -54l118 54l9 -5v-704q76 82 202 82q174 0 293 -143q123 -141 123 -316
q0 -174 -121 -313q-119 -137 -295 -137q-75 0 -129 32q-17 9 -69 47q-47 35 -68 35q-82 0 -82 -96zM1085 4q91 0 142 45q98 85 98 383q0 309 -98 391q-51 45 -142 45q-61 0 -119.5 -28t-82.5 -72v-637q22 -59 79 -93t123 -34z" />
    <glyph glyph-name="f_h" unicode="fh" horiz-adv-x="1607" 
d="M387 872h182v-24h-182v-823h125v-25h-424v25h129v823h-156v24h156v41q0 171 31.5 297.5t87.5 190.5q103 117 239 117q115 0 181 -54l118 54l9 -5v-782q25 79 88 119.5t145 40.5q160 0 249 -89t89 -253v-524h127v-25h-422v25h123v632q0 95 -50 152t-116 57
q-171 0 -233 -188v-653h127v-25h-422v25h125v1222q0 116 -37.5 179t-100.5 63q-84 0 -136 -61.5t-52 -180.5v-375z" />
    <glyph glyph-name="f_j" unicode="fj" horiz-adv-x="1062" 
d="M711 -379v1227h-324v-823h125v-25h-422v25h127v823h-156v24h156v41q0 328 92 467q91 138 293 138q131 0 215 -78q82 -76 82 -172q0 -42 -27.5 -72.5t-68.5 -30.5q-44 0 -69 21t-25 57q0 14 17 53.5t17 61.5q0 135 -149 135q-96 0 -151.5 -61.5t-55.5 -184.5v-375h496
v-919q0 -320 -77.5 -461t-240.5 -141q-73 0 -126.5 44t-53.5 109q0 41 26 69t64 28q42 0 65 -19t23 -51q0 -15 -13 -46t-13 -52q0 -54 71 -54q103 0 103 242z" />
    <glyph glyph-name="f_k" unicode="fk" horiz-adv-x="1519" 
d="M387 872h182v-24h-182v-823h125v-25h-424v25h129v823h-156v24h156v41q0 171 31.5 297.5t87.5 190.5q103 117 239 117q115 0 181 -54l118 54l9 -5v-1032l311 281q95 83 78 86h-129v24h307v-24h-111q-26 0 -116 -84l-219 -199l444 -540h154v-25h-474v25h115l-360 444v-444
h127v-25h-422v25h125v1245q0 103 -38 161t-100 58q-84 0 -136 -61.5t-52 -180.5v-375z" />
    <glyph glyph-name="f_f_b" unicode="ffb" horiz-adv-x="2080" 
d="M883 872h182v-24h-182v-823h125v-25h-424v25h129v823h-326v-823h127v-25h-422v25h125v823h-154v24h154v144q0 236 89.5 369t244.5 133q72 0 126 -50.5t54 -117.5q0 -39 -26 -68t-64 -29q-42 0 -65 20t-23 52q0 15 13.5 45t13.5 51q0 31 -19.5 49.5t-50.5 18.5
q-55 0 -89 -60t-34 -182v-375h326v41q0 172 31 298t87 190q103 117 240 117q114 0 180 -54l119 54l8 -5v-704q76 82 203 82q174 0 293 -143q123 -141 123 -316q0 -174 -121 -313q-119 -137 -295 -137q-75 0 -129 32q-20 10 -70 47q-47 35 -67 35q-82 0 -82 -96h-25v1270
q0 103 -37.5 161t-99.5 58q-84 0 -136 -61.5t-52 -180.5v-375zM1581 4q90 0 141 45q99 85 99 383q0 308 -99 391q-51 45 -141 45q-61 0 -120 -28.5t-83 -71.5v-637q22 -59 79.5 -93t123.5 -34z" />
    <glyph glyph-name="f_f_h" unicode="ffh" horiz-adv-x="2103" 
d="M883 872h182v-24h-182v-823h125v-25h-424v25h129v823h-326v-823h127v-25h-422v25h125v823h-154v24h154v144q0 236 89.5 369t244.5 133q72 0 126 -50.5t54 -117.5q0 -39 -26 -68t-64 -29q-42 0 -65 20t-23 52q0 15 13.5 45t13.5 51q0 31 -19.5 49.5t-50.5 18.5
q-55 0 -89 -60t-34 -182v-375h326v41q0 172 31 298t87 190q103 117 240 117q114 0 180 -54l119 54l8 -5v-782q25 79 88.5 119.5t145.5 40.5q160 0 249 -89t89 -253v-524h127v-25h-422v25h123v632q0 95 -50 152t-116 57q-172 0 -234 -188v-653h127v-25h-422v25h125v1222
q0 116 -37 179t-100 63q-84 0 -136 -61.5t-52 -180.5v-375z" />
    <glyph glyph-name="f_f_j" unicode="ffj" horiz-adv-x="1558" 
d="M1206 -379v1227h-323v-823h125v-25h-422v25h127v823h-326v-823h127v-25h-422v25h125v823h-154v24h154v144q0 236 89.5 369t244.5 133q72 0 126 -50.5t54 -117.5q0 -39 -26 -68t-64 -29q-42 0 -65 20t-23 52q0 15 13.5 45t13.5 51q0 31 -19.5 49.5t-50.5 18.5
q-55 0 -89 -60t-34 -182v-375h326v41q0 328 92 467q91 138 293 138q131 0 215 -78q82 -76 82 -172q0 -42 -28 -72.5t-69 -30.5q-44 0 -69 21t-25 57q0 14 17.5 53.5t17.5 61.5q0 135 -149 135q-96 0 -151.5 -61.5t-55.5 -184.5v-375h495v-919q0 -320 -77 -461t-240 -141
q-73 0 -126.5 44t-53.5 109q0 41 26 69t64 28q42 0 65 -19t23 -51q0 -15 -13.5 -46t-13.5 -52q0 -54 72 -54q102 0 102 242z" />
    <glyph glyph-name="f_f_k" unicode="ffk" horiz-adv-x="2015" 
d="M883 872h182v-24h-182v-823h125v-25h-424v25h129v823h-326v-823h127v-25h-422v25h125v823h-154v24h154v144q0 236 89.5 369t244.5 133q72 0 126 -50.5t54 -117.5q0 -39 -26 -68t-64 -29q-42 0 -65 20t-23 52q0 15 13.5 45t13.5 51q0 31 -19.5 49.5t-50.5 18.5
q-55 0 -89 -60t-34 -182v-375h326v41q0 172 31 298t87 190q103 117 240 117q114 0 180 -54l119 54l8 -5v-1032l312 281q94 82 77 86h-129v24h308v-24h-111q-27 0 -117 -84l-219 -199l445 -540h153v-25h-473v25h115l-361 444v-444h127v-25h-422v25h125v1245q0 103 -37.5 161
t-99.5 58q-84 0 -136 -61.5t-52 -180.5v-375z" />
    <glyph glyph-name="f_f" unicode="ff" horiz-adv-x="1114" 
d="M1227 1350q0 -39 -26 -68t-64 -29q-42 0 -65 20t-23 52q0 15 13 45t13 51q0 31 -19 49.5t-50 18.5q-55 0 -89 -60t-34 -182v-375h182v-24h-182v-823h127v-25h-422v25h125v823h-326v-823h127v-25h-422v25h125v823h-154v24h154v144q0 236 89.5 369t244.5 133
q72 0 126 -50.5t54 -117.5q0 -39 -26 -68t-64 -29q-42 0 -65 20t-23 52q0 15 13.5 45t13.5 51q0 31 -19.5 49.5t-50.5 18.5q-55 0 -89 -60t-34 -182v-375h326v144q0 236 89.5 369t244.5 133q72 0 126 -50.5t54 -117.5z" />
    <glyph glyph-name="fi" unicode="fi" horiz-adv-x="1052" 
d="M1008 25v-25h-422v25h125v823h-324v-823h125v-25h-424v25h129v823h-156v24h156v41q0 333 94 467q95 138 310 138q121 0 198 -80q80 -77 80 -172q0 -42 -27.5 -72.5t-68.5 -30.5q-94 0 -94 78q0 14 16 54.5t16 62.5q0 131 -161 131q-88 0 -140.5 -61t-52.5 -181v-375h494
v-847h127z" />
    <glyph glyph-name="fl" unicode="fl" horiz-adv-x="1038" 
d="M387 872h182v-24h-182v-823h125v-25h-424v25h129v823h-156v24h156v41q0 171 31.5 297.5t87.5 190.5q103 117 239 117q115 0 181 -54l118 54l9 -5v-1488h127v-25h-422v25h125v1245q0 103 -38 161t-100 58q-84 0 -136 -61.5t-52 -180.5v-375z" />
    <glyph glyph-name="f_f_i" unicode="ffi" horiz-adv-x="1548" 
d="M1503 25v-25h-422v25h125v823h-323v-823h125v-25h-424v25h129v823h-326v-823h127v-25h-422v25h125v823h-154v24h154v144q0 236 89.5 369t244.5 133q72 0 126 -50.5t54 -117.5q0 -39 -26 -68t-64 -29q-42 0 -65 20t-23 52q0 15 13.5 45t13.5 51q0 31 -19.5 49.5
t-50.5 18.5q-55 0 -89 -60t-34 -182v-375h326v41q0 333 94 467q95 138 309 138q122 0 199 -80q80 -77 80 -172q0 -42 -28 -72.5t-69 -30.5q-94 0 -94 78q0 14 16.5 54.5t16.5 62.5q0 131 -162 131q-88 0 -140 -61t-52 -181v-375h493v-847h127z" />
    <glyph glyph-name="f_f_l" unicode="ffl" horiz-adv-x="1533" 
d="M883 872h182v-24h-182v-823h125v-25h-424v25h129v823h-326v-823h127v-25h-422v25h125v823h-154v24h154v144q0 236 89.5 369t244.5 133q72 0 126 -50.5t54 -117.5q0 -39 -26 -68t-64 -29q-42 0 -65 20t-23 52q0 15 13.5 45t13.5 51q0 31 -19.5 49.5t-50.5 18.5
q-55 0 -89 -60t-34 -182v-375h326v41q0 172 31 298t87 190q103 117 240 117q114 0 180 -54l119 54l8 -5v-1488h127v-25h-422v25h125v1222q0 116 -37 179t-100 63q-84 0 -136 -61.5t-52 -180.5v-375z" />
    <glyph glyph-name=".notdef" horiz-adv-x="362" 
 />
    <glyph glyph-name=".null" horiz-adv-x="0" 
 />
    <glyph glyph-name="nonmarkingreturn" horiz-adv-x="682" 
 />
    <glyph glyph-name="space" unicode=" " horiz-adv-x="362" 
 />
    <glyph glyph-name="exclam" unicode="!" horiz-adv-x="401" 
d="M213 334h-23q0 187 -47 522q-47 338 -47 397q0 146 107 146q104 0 104 -146q0 -59 -47 -397q-47 -335 -47 -522zM201 -33q-41 0 -71 31.5t-30 75.5t30 75t71 31q43 0 72.5 -31t29.5 -75t-29.5 -75.5t-72.5 -31.5z" />
    <glyph glyph-name="quotedbl" unicode="&#x22;" horiz-adv-x="628" 
d="M530 1294q0 -52 -30 -172q-32 -130 -35 -184l-2 -20h-21v20q-6 42 -36 172q-31 133 -31 184q0 40 21 72.5t57 32.5q38 0 57.5 -31t19.5 -74zM254 1294q0 -52 -31 -192q-35 -154 -37 -164v-20h-16l-2 20q-5 56 -37 182q-31 127 -31 174q0 43 20 74t58 31q76 0 76 -105z
" />
    <glyph glyph-name="numbersign" unicode="#" horiz-adv-x="1003" 
d="M276 168h-26l51 303h-207v104h225l46 248h-209v105h227l49 286h27l-49 -286h249l52 286h26l-49 -286h221v-105h-239l-45 -248h221v-104h-238l-53 -303h-27l54 303h-254zM393 823l-47 -248h250l47 248h-250z" />
    <glyph glyph-name="dollar" unicode="$" horiz-adv-x="1046" 
d="M948 395q0 -130 -94 -258q-96 -128 -250 -155v-177h-22v172q-44 -8 -84 -8q-48 0 -60 2v-166h-24v170q-128 12 -215 99q-84 90 -84 170q0 48 29 79t67 31q35 0 61.5 -28.5t26.5 -65.5q0 -39 -29 -65q-28 -22 -28 -50q0 -54 46 -98t126 -51v637q-283 108 -283 364
q0 132 84 248q82 113 199 141v175h24v-170q31 8 66 8q44 0 78 -6v168h22v-170q129 -18 201 -111q72 -90 72 -172q0 -41 -29 -68.5t-66 -27.5q-35 0 -60.5 24.5t-25.5 59.5q0 38 33 67q33 33 33 60q0 44 -46 89t-112 56v-586q188 -74 266 -159t78 -228zM582 788v584
q-30 6 -76 6q-26 0 -68 -10v-516q41 -20 144 -64zM414 866v496q-82 -25 -135.5 -86.5t-53.5 -134.5q0 -172 189 -275zM838 242q0 211 -234 313v-551q103 21 166 90q68 71 68 148zM582 -2v567q-57 27 -144 60v-633q12 -2 58 -2q55 0 86 8z" />
    <glyph glyph-name="percent" unicode="%" horiz-adv-x="1366" 
d="M702 1044q0 -138 -94 -239q-90 -100 -223 -100q-131 0 -221 100q-92 103 -92 239q0 140 92 240q90 100 221 100q133 0 223 -100q94 -98 94 -240zM561 1044q0 225 -67 283q-35 35 -109 35q-69 0 -104 -35q-70 -61 -70 -283q0 -218 70 -282q35 -35 104 -35q74 0 109 35
q37 33 52 94.5t15 187.5zM1294 324q0 -139 -94 -240q-90 -100 -223 -100q-131 0 -221 100q-92 103 -92 240q0 139 92 239q91 101 221 101q132 0 223 -101q94 -98 94 -239zM1153 324q0 223 -68 282q-35 35 -108 35q-70 0 -105 -35q-69 -60 -69 -282q0 -220 69 -283
q35 -35 105 -35q73 0 108 35q37 33 52.5 95t15.5 188zM1092 1411l20 -14l-833 -1444l-21 14z" />
    <glyph glyph-name="ampersand" unicode="&#x26;" horiz-adv-x="1298" 
d="M1260 750v-23h-76q-38 0 -54.5 -6.5t-23.5 -26.5q-4 -20 -6 -26q0 -11 -6 -86q-15 -210 -129 -394l22 -34q30 -50 76.5 -80.5t89.5 -30.5q51 0 79 20.5t60 71.5l17 -10q-30 -71 -109 -113.5t-172 -42.5q-106 0 -209 92q-149 -94 -325 -94q-187 0 -310 111
q-121 115 -121 287q0 277 316 485q-33 103 -33 186q0 163 76 263t194 100q166 0 166 -160q0 -72 -58.5 -148.5t-160.5 -136.5q82 -278 389 -745q104 167 119 373q15 80 0.5 112.5t-78.5 32.5h-69v23h336zM762 1239q0 129 -113 129q-56 0 -90.5 -43.5t-34.5 -128.5
q0 -107 31 -219q95 55 151 124.5t56 137.5zM803 80q-52 52 -101 137q-245 396 -315 612q-154 -124 -154 -299q0 -219 111 -354t305 -135q80 0 154 39z" />
    <glyph glyph-name="quotesingle" unicode="'" horiz-adv-x="352" 
d="M254 1294q0 -62 -33 -194q-34 -153 -35 -162v-20h-16l-2 20q-5 56 -37 182q-31 127 -31 174q0 43 20 74t58 31q76 0 76 -105z" />
    <glyph glyph-name="parenleft" unicode="(" horiz-adv-x="530" 
d="M600 -453l-14 -18q-219 155 -340 400.5t-121 545.5t121 545.5t340 400.5l14 -18q-85 -58 -137 -118t-98 -161q-91 -198 -91 -649t91 -649q46 -101 98 -161t137 -118z" />
    <glyph glyph-name="parenright" unicode=")" horiz-adv-x="530" 
d="M-63 -471l-15 18q86 58 138.5 118.5t97.5 160.5q90 196 90 649t-90 649q-45 100 -97.5 160.5t-138.5 118.5l15 18q219 -155 339.5 -400.5t120.5 -545.5t-120.5 -545.5t-339.5 -400.5z" />
    <glyph glyph-name="asterisk" unicode="*" horiz-adv-x="692" 
d="M590 999q0 -26 -15.5 -44.5t-39.5 -18.5q-15 -3 -32 10.5t-31.5 34t-43 50.5t-59.5 52l-13 9v-15q0 -58 22.5 -126.5t22.5 -71.5q0 -34 -27.5 -48t-55 0t-27.5 48q0 3 22.5 71.5t22.5 126.5v15l-12 -9q-21 -14 -42 -34.5t-33 -34.5t-29.5 -35.5t-20.5 -24.5
q-28 -31 -62.5 -13t-34.5 58q0 30 27 45q5 3 37 8.5t76.5 20t83.5 39.5q-39 24 -84.5 38t-76.5 19.5t-36 8.5q-27 15 -27 47q0 25 16 43t40 18q15 3 31 -10.5t30 -34.5t42.5 -50.5t62.5 -51.5l12 -9v17q0 57 -22.5 126t-22.5 73q0 32 27.5 45.5t55 0t27.5 -45.5
q0 -4 -22.5 -73t-22.5 -126v-17l13 9q26 18 50 42.5t46.5 52.5t26.5 32q31 32 64.5 15.5t33.5 -56.5q0 -29 -27 -47q-5 -3 -36 -8.5t-76 -19.5t-84 -38q39 -25 83.5 -39.5t76 -20t36.5 -8.5q27 -18 27 -45z" />
    <glyph glyph-name="plus" unicode="+" horiz-adv-x="1228" 
d="M1122 555v-111h-450v-444h-123v444h-449v111h449v442h123v-442h450z" />
    <glyph glyph-name="comma" unicode="," horiz-adv-x="358" 
d="M70 -254l-7 21q53 17 89 58t36 79q0 60 -61 100q-41 27 -41 80q0 39 28.5 68.5t69.5 29.5q49 0 76 -32.5t27 -92.5q0 -78 -66 -182q-64 -102 -151 -129z" />
    <glyph glyph-name="hyphen" unicode="-" horiz-adv-x="651" 
d="M82 543h487v-109h-487v109z" />
    <glyph glyph-name="period" unicode="." horiz-adv-x="358" 
d="M178 -33q-41 0 -70.5 31.5t-29.5 75.5t29.5 75t70.5 31q43 0 73 -31t30 -75t-30 -75.5t-73 -31.5z" />
    <glyph glyph-name="slash" unicode="/" horiz-adv-x="677" 
d="M598 1399l20 -8l-559 -1424l-20 10z" />
    <glyph glyph-name="zero" unicode="0" horiz-adv-x="1024" 
d="M510 -18q-180 0 -305 192q-127 195 -127 510t127 510q125 192 305 192q182 0 307 -192q129 -194 129 -510t-129 -510q-125 -192 -307 -192zM735 684q-2 279 -22.5 420.5t-66.5 199t-136 62.5q-130 0 -176 -141q-45 -136 -45 -541q0 -284 24 -434t70 -199t127 -49
q87 2 131.5 52.5t67.5 196t26 433.5z" />
    <glyph glyph-name="one" unicode="1" horiz-adv-x="1024" 
d="M772 25v-25h-465v25h137v1316h-137v25h330v-1341h135z" />
    <glyph glyph-name="two" unicode="2" horiz-adv-x="1024" 
d="M485 1366q-65 0 -112 -35.5t-47 -93.5q0 -12 7 -39t7 -35q0 -31 -23.5 -51t-64.5 -20t-62.5 25.5t-21.5 64.5q0 71 96 137q94 67 221 67q158 0 273 -86q114 -86 114 -266q0 -69 -37 -145.5t-92 -138.5q-15 -17 -62 -68.5t-79 -87.5q-121 -140 -149 -176l-215 -273v-8h415
q172 0 172 178h21v-315h-723v29l301 395q152 199 197 315q49 119 49 314q0 165 -44 239t-141 74z" />
    <glyph glyph-name="three" unicode="3" horiz-adv-x="1024" 
d="M883 399q0 -188 -142 -303q-136 -112 -303 -112q-126 0 -209.5 52.5t-83.5 127.5q0 39 22.5 65.5t63.5 26.5q88 0 88 -72q0 -12 -7 -39t-7 -39q0 -60 31 -81t102 -21q123 0 183 78q59 77 59 299q0 225 -43 301t-152 76q-36 0 -143 -70l-10 17q155 88 213 174
q55 82 55 245q0 134 -31 182t-114 48q-109 0 -109 -82q0 -13 8 -40t8 -38q0 -32 -23.5 -53t-66.5 -21q-41 0 -62.5 26t-21.5 66q0 56 80 109t187 53q163 0 254.5 -67.5t91.5 -200.5q0 -112 -105 -197q-105 -88 -245 -145q31 8 75 8q166 0 260 -110q97 -114 97 -263z" />
    <glyph glyph-name="four" unicode="4" horiz-adv-x="1024" 
d="M895 25v-25h-465v25h137v428h-454v10q91 146 127 223l325 678q54 -22 146 22q95 44 135 93l12 -6l-715 -996h424v209q53 6 102.5 59t67.5 134h23v-402h201v-24h-201v-428h135z" />
    <glyph glyph-name="five" unicode="5" horiz-adv-x="1024" 
d="M442 -12q-127 0 -211 52.5t-84 127.5q0 39 23 65.5t63 26.5q43 0 67 -20t24 -52q0 -12 -8.5 -39t-8.5 -38q0 -60 32 -81.5t103 -21.5q119 0 166 84q47 83 47 330q0 258 -32 326q-29 75 -136 75q-70 0 -125 -55q-53 -53 -53 -143q0 -15 -24 -15q-15 0 -15 17q0 4 3 30
t3 31v662h7q48 -45 176 -45q44 0 86 16t68.5 35t54 35t45.5 16q82 0 82 -74q0 -62 -63 -102.5t-159 -40.5q-88 0 -167 39q-83 41 -107 94v-616q53 145 229 145q164 0 246 -119q82 -116 82 -293q0 -207 -127 -331q-127 -121 -287 -121z" />
    <glyph glyph-name="six" unicode="6" horiz-adv-x="1024" 
d="M528 -16q-184 0 -291.5 150t-107.5 433q0 205 55 385q59 182 166 301q110 119 246 119q108 0 174 -51q70 -52 70 -111q0 -39 -22.5 -64.5t-63.5 -25.5q-43 0 -66.5 20t-23.5 52q0 12 8 38t8 38q0 47 -20 65.5t-64 18.5q-249 0 -264 -688q69 106 196 106q163 0 277 -117
q115 -118 115 -278q0 -159 -115 -277q-114 -114 -277 -114zM528 4q74 0 119 45q39 39 55.5 109.5t16.5 216.5q0 257 -72 332q-38 38 -119 38t-139 -49q-59 -50 -59 -88v-239q0 -149 18 -213q21 -64 64 -107q45 -45 116 -45z" />
    <glyph glyph-name="seven" unicode="7" horiz-adv-x="1024" 
d="M481 0h-233l571 1210h-397q-92 0 -132 -37.5t-40 -123.5h-21v317h678q-76 -153 -125 -307z" />
    <glyph glyph-name="eight" unicode="8" horiz-adv-x="1024" 
d="M903 381q0 -172 -115 -287q-113 -110 -288 -110q-159 0 -277 92q-117 94 -117 264q0 122 70 216.5t199 148.5q-191 153 -191 339q0 125 80 228q80 102 236 102q138 0 239 -76q103 -77 103 -213q0 -202 -238 -297q150 -101 224.5 -195.5t74.5 -211.5zM702 1079
q0 150 -49 212.5t-153 62.5q-187 0 -187 -180q0 -87 43 -160q49 -77 95 -115q49 -41 141 -102q29 25 57 53q20 22 36.5 82.5t16.5 146.5zM764 258q0 125 -86 211q-48 51 -82 74q-53 42 -107 78q-73 50 -102 73q-14 -14 -31 -32t-20 -21q-18 -23 -35 -55q-39 -64 -39 -234
q0 -194 57 -271t181 -77q36 0 68 5t69.5 21.5t64 43t44.5 74t18 110.5z" />
    <glyph glyph-name="nine" unicode="9" horiz-adv-x="1024" 
d="M418 -12q-114 0 -187 55q-73 58 -73 117q0 39 22.5 65.5t63.5 26.5q43 0 66.5 -21t23.5 -53q0 -11 -8.5 -38t-8.5 -40q0 -92 101 -92q153 0 213 199q52 173 61 457q-67 -107 -196 -107q-168 0 -281 119q-111 120 -111 293q0 168 111 288q115 121 281 121
q192 0 302.5 -149.5t110.5 -440.5q0 -208 -57 -385q-58 -179 -172 -299q-113 -116 -262 -116zM496 578q78 0 131.5 41t66.5 98q15 35 15 256q0 157 -21 227q-41 158 -192 158q-76 0 -119 -43q-43 -40 -58 -109q-12 -70 -12 -237q0 -157 15 -234t55 -114q46 -43 119 -43z" />
    <glyph glyph-name="colon" unicode=":" horiz-adv-x="358" 
d="M178 -33q-41 0 -70.5 31.5t-29.5 75.5t29.5 75t70.5 31q43 0 73 -31t30 -75t-30 -75.5t-73 -31.5zM178 594q-41 0 -70.5 31t-29.5 75t29.5 75.5t70.5 31.5q43 0 73 -31.5t30 -75.5t-30 -75t-73 -31z" />
    <glyph glyph-name="semicolon" unicode=";" horiz-adv-x="358" 
d="M70 -254l-7 21q53 17 89 58t36 79q0 60 -61 100q-41 27 -41 80q0 39 28.5 68.5t69.5 29.5q49 0 76 -32.5t27 -92.5q0 -78 -66 -182q-64 -102 -151 -129zM182 594q-41 0 -70.5 31t-29.5 75t29.5 75.5t70.5 31.5q43 0 73 -31.5t30 -75.5t-30 -75t-73 -31z" />
    <glyph glyph-name="less" unicode="&#x3c;" horiz-adv-x="1228" 
d="M1124 152v-123l-1022 407v121l1022 410v-123l-878 -348z" />
    <glyph glyph-name="equal" unicode="=" horiz-adv-x="1228" 
d="M1124 743v-110h-1024v110h1024zM1124 360v-110h-1024v110h1024z" />
    <glyph glyph-name="greater" unicode="&#x3e;" horiz-adv-x="1228" 
d="M1124 557v-121l-1022 -407v123l877 344l-877 348v123z" />
    <glyph glyph-name="question" unicode="?" horiz-adv-x="796" 
d="M272 334h-22v354h6q34 -67 145 -67q71 0 111 34q32 26 41 88q10 72 10 254q0 257 -94 336q-52 43 -143 43q-72 0 -99.5 -23t-27.5 -83q0 -25 18.5 -65.5t18.5 -55.5q0 -36 -25 -59t-66 -23q-96 0 -96 98q0 87 76 160q77 74 201 74q183 0 299 -113q116 -110 116 -289
q0 -174 -100 -286q-101 -113 -240 -113q-86 0 -129 43v-307zM260 -33q-41 0 -70.5 31.5t-29.5 75.5t29.5 75t70.5 31q43 0 72.5 -31t29.5 -75t-29.5 -75.5t-72.5 -31.5z" />
    <glyph glyph-name="at" unicode="@" horiz-adv-x="1536" 
d="M1409 778q0 -87 -26.5 -161t-70 -123.5t-99.5 -84.5t-114 -51t-114 -16q-156 0 -156 125q0 21 11 70q-35 -92 -103.5 -143.5t-136.5 -51.5q-96 0 -145 67.5t-49 176.5q0 160 124 299q125 143 289 143q44 0 85 -25t48 -61l21 70h117l-95 -310q-55 -186 -55 -249
q0 -80 78 -80q151 0 258 110q110 110 110 293q0 282 -169 441t-431 159q-274 0 -467 -202q-192 -198 -192 -490q0 -293 192 -494q193 -202 467 -202q236 0 418 159l15 -18q-192 -162 -433 -162q-285 0 -485 209q-199 211 -199 508q0 298 199 506q200 209 485 209
q268 0 445 -168q178 -166 178 -453zM848 598l88 291q4 20 4 22q0 39 -36 67t-87 28q-86 0 -162 -91q-71 -88 -110 -205.5t-39 -226.5q0 -55 27 -84.5t77 -29.5q82 0 148 75q69 79 90 154z" />
    <glyph glyph-name="A" unicode="A" horiz-adv-x="1267" 
d="M328 0h-361v25h121q43 0 70 79l450 1289h25l504 -1368h176v-25h-586v25h182l-151 434h-453l-127 -355q-12 -31 -15 -50t0 -24t9 -5h156v-25zM532 1108l-221 -627h439z" />
    <glyph glyph-name="B" unicode="B" horiz-adv-x="1232" 
d="M1143 362q0 -148 -117 -256q-112 -106 -324 -106h-620v25h176v1316h-176v25h528q185 0 310 -82q124 -81 124 -233q0 -134 -116 -228q-113 -94 -244 -94q197 0 326 -100q133 -103 133 -267zM844 1042q0 166 -59 232.5t-203 66.5h-113v-602h174q110 0 155.5 66t45.5 237z
M934 350q0 218 -76 291q-76 76 -231 76h-158v-692h182q146 0 214.5 73.5t68.5 251.5z" />
    <glyph glyph-name="C" unicode="C" horiz-adv-x="1239" 
d="M1147 424v-453h-21q-5 22 -28.5 40t-57.5 18q-35 0 -153 -31q-115 -31 -166 -31q-262 0 -440 211q-179 212 -179 504q0 294 174 504q177 213 437 213q47 0 141 -27q99 -24 141 -24q37 0 64.5 13.5t32.5 31.5h20v-404h-20q0 143 -121 264q-120 123 -258 123
q-154 0 -236 -73q-151 -139 -151 -621t151 -621q82 -73 244 -73q172 0 289 123q116 125 116 313h21z" />
    <glyph glyph-name="D" unicode="D" horiz-adv-x="1394" 
d="M1292 682q0 -282 -178 -481q-180 -201 -432 -201h-600v25h176v1316h-176v25h600q252 0 432 -201q178 -199 178 -483zM1069 682q0 457 -154 590q-81 69 -233 69h-213v-1316h213q157 0 233 67q83 71 117 199q37 127 37 391z" />
    <glyph glyph-name="E" unicode="E" horiz-adv-x="1198" 
d="M1145 399v-399h-1063v25h176v1316h-176v25h965v-360h-21q0 154 -82 244.5t-242 90.5h-233v-626h80q111 0 173 58t62 159h21v-461h-21q0 101 -62 160t-173 59h-80v-665h238q209 0 313 101t104 273h21z" />
    <glyph glyph-name="F" unicode="F" horiz-adv-x="1153" 
d="M1047 1366v-360h-21q0 152 -84.5 243.5t-245.5 91.5h-227v-626h70q112 0 175.5 58.5t63.5 158.5h21v-461h-21q0 101 -63.5 160t-175.5 59h-70v-665h176v-25h-563v25h176v1316h-176v25h965z" />
    <glyph glyph-name="G" unicode="G" horiz-adv-x="1286" 
d="M1331 541v-25h-176v-522h-27q-2 32 -23 57t-54 25q-22 0 -75 -27t-130.5 -54.5t-159.5 -27.5q-261 0 -424 211q-160 213 -160 504q0 294 174 504q177 213 437 213q53 0 129 -27q80 -24 114 -24q36 0 63 13.5t32 31.5h18v-396h-18q0 151 -99 265t-239 114q-152 0 -234 -73
q-151 -139 -151 -621q0 -282 24 -420q24 -135 99 -201q82 -73 235 -73q123 0 190.5 50t67.5 136v342h-176v25h563z" />
    <glyph glyph-name="H" unicode="H" horiz-adv-x="1484" 
d="M1401 25v-25h-545v25h158v675h-543v-675h160v-25h-549v25h176v1316h-176v25h549v-25h-160v-616h543v616h-158v25h545v-25h-176v-1316h176z" />
    <glyph glyph-name="I" unicode="I" horiz-adv-x="727" 
d="M645 25v-25h-563v25h176v1316h-176v25h563v-25h-176v-1316h176z" />
    <glyph glyph-name="J" unicode="J" horiz-adv-x="903" 
d="M868 1366v-25h-176v-1019q0 -168 -94.5 -261.5t-267.5 -93.5q-122 0 -209 72q-84 72 -84 160q0 56 34.5 93.5t80.5 37.5q43 0 74.5 -33.5t31.5 -77.5q0 -48 -35 -78q-33 -26 -33 -59q0 -38 36.5 -66t90.5 -28q65 0 114.5 44.5t49.5 114.5v1194h-174v25h561z" />
    <glyph glyph-name="K" unicode="K" horiz-adv-x="1249" 
d="M643 0h-561v23h176v1318h-176v25h561v-25h-174v-653l481 574q64 79 29 79h-137v25h370v-25h-118q-29 0 -51.5 -13.5t-65.5 -65.5l-371 -443l608 -796h193v-23h-641v23h188l-485 653v-653h174v-23z" />
    <glyph glyph-name="L" unicode="L" horiz-adv-x="1140" 
d="M1096 416v-416h-1014v25h176v1316h-176v25h563v-25h-174v-1316h225q101 1 177 33.5t120 88t64 123t18 146.5h21z" />
    <glyph glyph-name="M" unicode="M" horiz-adv-x="1673" 
d="M449 0h-375v25h106q68 0 68 59v1257h-174v25h397l389 -1061l348 1061h394v-25h-179v-1316h179v-25h-566v25h178v1275l-428 -1300h-41l-473 1305v-1221q0 -59 70 -59h107v-25z" />
    <glyph glyph-name="N" unicode="N" horiz-adv-x="1390" 
d="M1161 0h-39l-850 1323v-1239q0 -59 70 -59h107v-25h-375v25h106q68 0 68 59v1257h-174v25h418l647 -1012v930q0 57 -70 57h-106v25h374v-25h-104q-72 0 -72 -57v-1284z" />
    <glyph glyph-name="O" unicode="O" horiz-adv-x="1425" 
d="M102 682q0 294 174 504q177 213 437 213q254 0 432 -211q178 -208 178 -506t-178 -506q-179 -209 -432 -209t-432 209t-179 506zM1100 682q0 484 -152 621q-79 73 -235 73q-157 0 -236 -73q-149 -134 -149 -621q0 -276 34 -412q37 -137 115 -209q79 -73 236 -73
q156 0 235 73q81 71 115 209q37 136 37 412z" />
    <glyph glyph-name="P" unicode="P" horiz-adv-x="1224" 
d="M1157 936q0 -177 -137 -287q-134 -110 -354 -110q-106 0 -195 24v-538h174v-25h-563v25h176v1316h-176v25h555q243 0 381 -123q139 -124 139 -307zM948 936q0 196 -84 300.5t-227 104.5h-166v-747q73 -31 195 -31q140 0 211 89.5t71 283.5z" />
    <glyph glyph-name="Q" unicode="Q" horiz-adv-x="1425" 
d="M1323 682q0 -434 -328 -633q-73 -45 -250 -108q-176 -66 -198 -76q96 0 171 -12t122 -32t82 -46t57 -55t41.5 -58t41 -55t49.5 -46t73 -32t106 -12v-23q-164 0 -278 27q-54 12 -95 28t-71 37t-48.5 38t-41.5 44q-42 52 -56 84q-44 90 -159 90q-15 0 -41 -13t-27 -13
q-22 0 -22 16q0 29 53 35q49 24 274 104q-32 -4 -65 -4q-253 0 -432 209t-179 506q0 294 174 504q177 213 437 213q254 0 432 -211q178 -208 178 -506zM1100 682q0 479 -154 621q-82 73 -233 73q-154 0 -236 -73q-151 -142 -151 -621q0 -278 36 -410q37 -136 115 -211
q82 -73 236 -73q151 0 233 73q80 74 117 211q37 136 37 410z" />
    <glyph glyph-name="R" unicode="R" horiz-adv-x="1298" 
d="M1380 72l15 -15q-64 -67 -172 -67q-133 0 -207 91.5t-74 280.5v105q0 233 -297 233h-176v-675h217v-25h-604v25h176v1316h-176v25h571q204 0 326 -96q123 -95 123 -240q0 -133 -117 -227q-115 -92 -278 -92q222 0 337 -99t115 -274v-152q0 -74 30.5 -117.5t84.5 -43.5
q62 0 106 47zM891 1024q0 168 -71 242.5t-214 74.5h-137v-618h176q142 0 195 59q51 60 51 242z" />
    <glyph glyph-name="S" unicode="S" horiz-adv-x="1052" 
d="M987 393q0 -92 -47 -188t-154 -166q-110 -72 -245 -72q-81 0 -176 39q-96 41 -127 41q-37 0 -67 -23t-36 -53h-20v430h20q0 -133 117 -274q121 -139 287 -139q154 0 245 82q95 83 95 186q0 131 -88 195q-82 65 -324 155q-160 58 -238.5 148.5t-78.5 242.5q0 162 104 281
q106 121 248 121q60 0 131 -27q70 -24 102 -24q69 0 78 45h21v-324h-21q0 134 -94 219q-94 88 -215 88q-109 0 -185 -76q-75 -72 -75 -174t82 -176.5t266 -142.5q204 -73 299 -162q96 -90 96 -252z" />
    <glyph glyph-name="T" unicode="T" horiz-adv-x="1185" 
d="M1139 1366v-418h-21q0 184 -95.5 288.5t-285.5 104.5h-43v-1316h176v-25h-563v25h174v1316h-41q-189 0 -280.5 -103t-91.5 -290h-21v418h1092z" />
    <glyph glyph-name="U" unicode="U" horiz-adv-x="1359" 
d="M705 -33q-224 0 -354 112t-130 318v944h-176v25h563v-25h-176v-944q0 -391 320 -391q188 0 284.5 105t96.5 295v878q0 57 -70 57h-98v25h368v-25h-106q-70 0 -70 -57v-878q0 -211 -113.5 -325t-338.5 -114z" />
    <glyph glyph-name="V" unicode="V" horiz-adv-x="1323" 
d="M729 -29h-22l-578 1370h-184v25h618v-25h-207l447 -1085l342 1004q10 57 4 69t-35 12h-129v25h385v-25h-123q-53 0 -80 -81z" />
    <glyph glyph-name="W" unicode="W" horiz-adv-x="1910" 
d="M657 -29h-22l-524 1370h-187v25h592v-25h-174l397 -1062l238 729l-119 333h-160v25h588v-25h-207l373 -1067l328 996q7 24 6.5 38t-10.5 21.5t-17.5 9.5t-13.5 2h-129v25h387v-25h-119q-33 0 -51 -16t-35 -65l-426 -1289h-24l-357 1006z" />
    <glyph glyph-name="X" unicode="X" horiz-adv-x="1294" 
d="M436 0h-383v25h119q65 0 111 81l311 527l-393 708h-189v25h617v-25h-193l281 -518l258 437q20 35 22.5 53.5t-6 23t-26.5 4.5h-119v25h383v-25h-121q-63 0 -109 -81l-270 -459l430 -776h189v-25h-615v25h193l-322 583l-295 -502q-49 -81 13 -81h114v-25z" />
    <glyph glyph-name="Y" unicode="Y" horiz-adv-x="1214" 
d="M932 0h-567v25h178v571l-373 745h-188v25h622v-25h-201l345 -692l278 611q37 81 -27 81h-131v25h385v-25h-112q-55 0 -99 -92l-288 -639v-585h178v-25z" />
    <glyph glyph-name="Z" unicode="Z" horiz-adv-x="1204" 
d="M1100 0h-994l754 1341h-299q-176 0 -269 -105.5t-93 -287.5h-21v418h924l-756 -1341h363q183 0 276 112q96 116 96 289h19v-426z" />
    <glyph glyph-name="bracketleft" unicode="[" horiz-adv-x="473" 
d="M508 -446v-25h-342v1892h342v-22h-193v-1845h193z" />
    <glyph glyph-name="backslash" unicode="\" horiz-adv-x="677" 
d="M639 -23l-21 -10l-559 1424l21 8z" />
    <glyph glyph-name="bracketright" unicode="]" horiz-adv-x="483" 
d="M315 1421v-1892h-342v25h193v1845h-193v22h342z" />
    <glyph glyph-name="asciicircum" unicode="^" horiz-adv-x="1228" 
d="M676 1397l346 -852h-129l-279 706l-272 -706h-129l344 852h119z" />
    <glyph glyph-name="underscore" unicode="_" horiz-adv-x="1134" 
d="M1055 25v-25h-975v25h975z" />
    <glyph glyph-name="grave" unicode="`" 
d="M301 1321l244 -260l-6 -6l-351 211q-51 26 -51 59q0 27 19.5 47.5t48.5 20.5q20 0 36.5 -12.5t59.5 -59.5z" />
    <glyph glyph-name="a" unicode="a" horiz-adv-x="899" 
d="M868 74l17 -13q-11 -32 -49.5 -54.5t-90.5 -22.5q-62 0 -103.5 39t-53.5 104q-20 -63 -85 -103t-149 -40q-124 0 -199 53t-75 160q0 74 27 127.5t75 78.5q81 45 162 54q13 0 23 2q213 18 213 59v156q0 194 -156 194q-90 0 -90 -77q0 -13 7 -40t7 -38q0 -31 -22.5 -50.5
t-63.5 -19.5t-62.5 24.5t-21.5 63.5q0 63 69 111.5t177 48.5q328 0 328 -371v-424q0 -69 49 -69q23 0 42 14t25 33zM580 197v278q-13 -13 -50.5 -21t-87 -13t-59.5 -7q-68 -11 -102.5 -63.5t-34.5 -173.5q0 -183 143 -183q77 0 133 56q58 58 58 127z" />
    <glyph glyph-name="b" unicode="b" horiz-adv-x="1046" 
d="M547 -18q-75 0 -129 32q-20 10 -70 47q-47 35 -67 35q-82 0 -82 -96h-25v1481h-127v24h297v-696q76 82 203 82q174 0 293 -143q123 -141 123 -316q0 -174 -121 -313q-119 -137 -295 -137zM547 4q90 0 141 45q98 85 98 383q0 309 -98 391q-51 45 -141 45q-61 0 -120 -28.5
t-83 -71.5v-637q22 -59 79.5 -93t123.5 -34z" />
    <glyph glyph-name="c" unicode="c" horiz-adv-x="894" 
d="M514 -18q-176 0 -303 133q-125 131 -125 321q0 191 125 322q127 133 303 133q125 0 203 -62.5t78 -146.5q0 -88 -86 -88q-38 0 -61 20.5t-23 53.5q0 14 10 47t10 55q0 55 -28.5 76.5t-102.5 21.5q-101 0 -154 -47q-55 -45 -77.5 -130t-22.5 -255t22.5 -255t77.5 -130
q53 -47 154 -47q201 0 320 180l18 -10q-125 -192 -338 -192z" />
    <glyph glyph-name="d" unicode="d" horiz-adv-x="1030" 
d="M1001 25v-25h-296v96q-13 -45 -69.5 -79.5t-133.5 -34.5q-176 0 -295 137q-121 139 -121 313t127 316q128 143 303 143q113 0 189 -82v672h-125v24h294v-1480h127zM705 174v592q-24 46 -77 73t-112 27q-102 0 -156 -45q-100 -81 -100 -389q0 -302 100 -383
q51 -45 142 -45q94 0 148.5 49.5t54.5 120.5z" />
    <glyph glyph-name="e" unicode="e" horiz-adv-x="935" 
d="M502 -18q-178 0 -297 131t-119 321q0 193 119 324q121 133 297 133q88 0 161.5 -40.5t116.5 -105.5q84 -128 84 -253v-7h-598q-2 -10 -2 -51q0 -171 19 -258q21 -83 69 -125q56 -47 150 -47q205 0 325 184l17 -12q-126 -194 -342 -194zM266 508h426q-3 246 -69 315
q-45 45 -121 45q-99 0 -150 -45q-80 -71 -86 -315z" />
    <glyph glyph-name="f" unicode="f" horiz-adv-x="618" 
d="M731 1350q0 -39 -26 -68t-64 -29q-42 0 -65 20t-23 52q0 15 13.5 45t13.5 51q0 31 -19.5 49.5t-50.5 18.5q-55 0 -89 -60t-34 -182v-375h182v-24h-182v-823h127v-25h-422v25h125v823h-154v24h154v144q0 236 89.5 369t244.5 133q72 0 126 -50.5t54 -117.5z" />
    <glyph glyph-name="g" unicode="g" horiz-adv-x="999" 
d="M1036 793q0 -35 -18 -57.5t-45 -22.5q-28 0 -46 14.5t-18 34.5q0 13 8.5 29t8.5 22q0 33 -35 33q-23 0 -36.5 -3t-35.5 -25t-43 -66q62 -80 62 -191q0 -137 -99 -231q-102 -97 -239 -97q-73 0 -141 29.5t-107 77.5q-64 -46 -64 -133q0 -84 40 -119t134 -35h238
q212 0 311 -73.5t99 -237.5q0 -174 -158 -283q-153 -106 -338 -106q-205 0 -336 82t-131 200q0 85 62 168q63 85 149 105q-176 47 -176 198q0 83 37.5 141t118.5 111q-74 89 -74 203q0 140 98 234q101 96 238 96q168 0 262 -123q64 123 174 123q43 0 71.5 -27.5t28.5 -70.5z
M678 563q0 215 -66 275q-36 28 -112 28q-73 0 -109 -28q-67 -58 -67 -275q0 -127 14 -182q18 -61 55.5 -92t106.5 -31q76 0 112 33q37 31 51.5 90.5t14.5 181.5zM911 -346q0 112 -57.5 178t-167.5 66h-342q-49 0 -55 2q-107 -61 -107 -240q0 -152 81 -217.5t251 -65.5
q160 0 279 76q118 72 118 201z" />
    <glyph glyph-name="h" unicode="h" horiz-adv-x="1067" 
d="M1040 25v-25h-422v25h125v632q0 95 -49.5 152t-115.5 57q-175 0 -234 -188v-653h125v-25h-422v25h127v1456h-127v24h297v-774q25 79 88.5 119.5t145.5 40.5q159 0 248 -89.5t89 -252.5v-524h125z" />
    <glyph glyph-name="i" unicode="i" horiz-adv-x="542" 
d="M494 25v-25h-422v25h125v823h-125v24h295v-847h127zM281 1133q-41 0 -71 31t-30 75t30 75.5t71 31.5q43 0 72.5 -31.5t29.5 -75.5t-29.5 -75t-72.5 -31z" />
    <glyph glyph-name="j" unicode="j" horiz-adv-x="548" 
d="M367 872v-919q0 -320 -77.5 -461t-240.5 -141q-72 0 -126 45t-54 108q0 41 27 69t65 28q42 0 65 -19t23 -51q0 -15 -13 -46t-13 -52q0 -54 69 -54q105 0 105 242v1229h-125v22h295zM281 1133q-41 0 -71 31t-30 75t30 75.5t71 31.5q43 0 72.5 -31.5t29.5 -75.5t-29.5 -75
t-72.5 -31z" />
    <glyph glyph-name="k" unicode="k" horiz-adv-x="980" 
d="M471 0h-422v25h127v1456h-127v24h297v-1024l311 281q43 40 60.5 60t11.5 24q-2 2 -20 2h-103v24h305v-24h-84q-31 0 -56.5 -15t-84.5 -69l-213 -195l438 -544h152v-25h-471v25h113l-359 444v-444h125v-25z" />
    <glyph glyph-name="l" unicode="l" horiz-adv-x="499" 
d="M471 25v-25h-424v25h127v1456h-127v24h297v-1480h127z" />
    <glyph glyph-name="m" unicode="m" horiz-adv-x="1642" 
d="M1618 25v-25h-424v25h127v632q0 95 -51 152t-117 57q-109 0 -170 -67t-61 -146v-628h125v-25h-422v25h123v632q0 95 -50 152t-116 57q-173 0 -232 -188v-653h125v-25h-422v25h127v823h-127v24h297v-141q25 79 87.5 119.5t144.5 40.5q264 0 329 -170q25 81 93.5 125.5
t148.5 44.5q338 0 338 -299v-567h127z" />
    <glyph glyph-name="n" unicode="n" horiz-adv-x="1073" 
d="M475 0h-422v25h127v823h-127v24h297v-141q25 75 87.5 117.5t144.5 42.5q161 0 250.5 -90.5t89.5 -251.5v-524h125v-25h-422v25h123v632q0 84 -45.5 146.5t-120.5 62.5q-173 0 -232 -188v-653h125v-25z" />
    <glyph glyph-name="o" unicode="o" horiz-adv-x="1028" 
d="M512 -18q-174 0 -301 133q-125 131 -125 321q0 191 125 322q127 133 301 133q176 0 303 -133t127 -322q0 -188 -127 -321t-303 -133zM768 436q0 301 -100 385q-51 45 -156 45q-103 0 -154 -45q-100 -87 -100 -385q0 -166 23.5 -252.5t76.5 -132.5q56 -47 154 -47
q100 0 156 47q55 45 77.5 130t22.5 255z" />
    <glyph glyph-name="p" unicode="p" horiz-adv-x="1046" 
d="M469 -633h-422v25h127v1456h-127v24h297v-69q73 88 191 88q174 0 299 -143q129 -144 129 -318t-121 -313q-120 -135 -293 -135q-121 0 -205 90v-680h125v-25zM549 4q88 0 139 45q100 84 100 381q0 307 -100 391q-51 45 -153 45q-61 0 -114 -27t-77 -73v-635
q22 -58 80.5 -92.5t124.5 -34.5z" />
    <glyph glyph-name="q" unicode="q" horiz-adv-x="1013" 
d="M999 -610v-23h-421v23h124v702q-52 -110 -202 -110q-175 0 -295 135q-119 137 -119 313t127 318q125 143 301 143q118 0 188 -88v69h297v-24h-127v-1458h127zM702 168v598q-25 44 -78 72t-110 28q-103 0 -154 -45q-100 -84 -100 -391q0 -297 100 -381q51 -45 150 -45
q88 0 140 47.5t52 116.5z" />
    <glyph glyph-name="r" unicode="r" horiz-adv-x="739" 
d="M698 750q0 -46 -25.5 -74.5t-64.5 -28.5q-41 0 -65.5 19.5t-24.5 50.5q0 17 12.5 44t12.5 38q0 49 -51 49q-99 0 -148 -180v-643h148v-25h-445v25h127v823h-127v24h297v-141q53 160 205 160q71 0 110 -38.5t39 -102.5z" />
    <glyph glyph-name="s" unicode="s" horiz-adv-x="765" 
d="M702 270q0 -132 -76 -210t-214 -78q-67 0 -129 26q-69 29 -93 29q-23 0 -43.5 -12.5t-27.5 -26.5h-23l10 303h23q-3 -118 80 -207q82 -88 203 -88q92 0 143 45.5t51 132.5q0 74 -50 113.5t-183 83.5q-123 40 -181.5 96.5t-58.5 147.5q0 119 70 192.5t172 73.5
q27 0 83 -13.5t85 -13.5q37 0 43 33h22v-246h-22q0 94 -66 154q-64 61 -145 61q-75 0 -117.5 -37.5t-42.5 -103.5q0 -72 51.5 -113.5t177.5 -79.5q258 -77 258 -262z" />
    <glyph glyph-name="t" unicode="t" horiz-adv-x="602" 
d="M551 172l16 -10q-46 -180 -202 -180q-172 0 -172 200v666h-154v24h154v230q115 15 149 117h20v-347h185v-24h-185v-760q0 -59 60 -59q43 0 77.5 38t51.5 105z" />
    <glyph glyph-name="u" unicode="u" horiz-adv-x="1052" 
d="M1024 25v-25h-297v141q-25 -78 -89 -118.5t-146 -40.5q-160 0 -248 84t-88 243v539h-127v24h297v-657q0 -94 50.5 -151.5t115.5 -57.5q176 0 235 189v653h-127v24h297v-847h127z" />
    <glyph glyph-name="v" unicode="v" horiz-adv-x="890" 
d="M492 -16h-25l-395 864h-119v24h426v-24h-125l295 -651l209 565q30 86 -13 86h-86v24h285v-24h-100q-34 0 -64 -86z" />
    <glyph glyph-name="w" unicode="w" horiz-adv-x="1409" 
d="M471 -16h-27l-378 864h-119v24h411v-24h-120l286 -645l176 491l-67 154h-105v24h404v-24h-127l287 -643l200 557q19 51 14.5 68.5t-40.5 17.5h-76v24h285v-24h-76q-34 0 -49 -16.5t-35 -69.5l-277 -778h-26l-299 682z" />
    <glyph glyph-name="x" unicode="x" horiz-adv-x="952" 
d="M315 0h-297v25h86q42 0 105 84l215 290l-297 449h-125v24h451v-24h-134l211 -320l177 234q27 36 33.5 56.5t1.5 25t-15 4.5h-106v24h301v-24h-88q-24 0 -41.5 -15t-59.5 -71l-190 -252l319 -485h127v-25h-440v25h123l-234 354l-202 -270q-58 -81 -25 -84h104v-25z" />
    <glyph glyph-name="y" unicode="y" horiz-adv-x="876" 
d="M131 -651q-62 0 -103.5 37t-41.5 94q0 49 27.5 81.5t68.5 32.5q38 0 61 -21t23 -52q0 -17 -20.5 -53.5t-20.5 -49.5q0 -32 51 -32q65 0 111 125l174 466l-400 871h-114v24h418v-24h-121l299 -651l207 565q11 29 14 47t-2.5 26t-12.5 10.5t-18 2.5h-80v24h285v-24h-76
q-36 0 -52 -15.5t-36 -70.5l-461 -1247q-32 -90 -74 -128t-106 -38z" />
    <glyph glyph-name="z" unicode="z" horiz-adv-x="868" 
d="M788 0h-737l537 848h-185q-141 0 -200.5 -55.5t-59.5 -178.5h-20v258h661l-538 -847h235q152 0 218.5 64t66.5 198h22v-287z" />
    <glyph glyph-name="braceleft" unicode="{" horiz-adv-x="509" 
d="M506 -446v-25h-19q-157 0 -242 108.5t-85 294.5q0 110 59 275q62 165 62 205q0 39 -29 49q-16 4 -19 4q-8 0 -26 -3t-21 -3q-14 0 -14 16.5t14 16.5q3 0 21 -2.5t26 -2.5q15 0 19 2q29 10 29 50q0 39 -62 204q-59 165 -59 275q0 186 85 294.5t242 108.5h19v-22h-19
q-102 0 -152 -71.5t-50 -229.5q0 -70 37 -234q38 -156 38 -239q0 -53 -24.5 -95t-71.5 -55q47 -13 71.5 -54.5t24.5 -94.5q0 -84 -38 -240q-37 -164 -37 -233q0 -161 48.5 -230t153.5 -69h19z" />
    <glyph glyph-name="bar" unicode="|" horiz-adv-x="303" 
d="M164 1456v-1501h-23v1501h23z" />
    <glyph glyph-name="braceright" unicode="}" horiz-adv-x="509" 
d="M352 -68q0 -188 -85 -295.5t-242 -107.5h-19v25h19q103 0 152.5 69.5t49.5 229.5q0 73 -39 233q-38 156 -38 240q0 53 25.5 94.5t72.5 54.5q-47 13 -72.5 55t-25.5 95q0 83 38 239q39 160 39 234q0 158 -50 229.5t-152 71.5h-19v22h19q157 0 242 -107.5t85 -295.5
q0 -113 -61 -275q-62 -165 -62 -204q0 -38 31 -50q6 -2 19 -2q9 0 26.5 2.5t20.5 2.5q11 0 15.5 -8t0 -16.5t-15.5 -8.5q-3 0 -20.5 3t-26.5 3q-1 0 -8 -2t-11 -2q-31 -9 -31 -49t62 -205q61 -162 61 -275z" />
    <glyph glyph-name="asciitilde" unicode="~" horiz-adv-x="1228" 
d="M1067 641h82q-14 -124 -78 -198t-172 -74q-96 0 -297 75q-204 76 -274 76q-65 0 -110 -48t-56 -120h-84q35 277 252 277q95 0 293 -76q201 -74 280 -74q134 0 164 162z" />
    <glyph glyph-name="uni00A0" unicode="&#xa0;" horiz-adv-x="362" 
 />
    <glyph glyph-name="exclamdown" unicode="&#xa1;" horiz-adv-x="401" 
d="M184 522h23q0 -187 47 -522q47 -338 47 -397q0 -146 -106 -146q-105 0 -105 146q0 59 47 397q47 335 47 522zM203 891q41 0 70.5 -31.5t29.5 -75.5t-29.5 -75t-70.5 -31q-43 0 -73 31t-30 75t30 75.5t73 31.5z" />
    <glyph glyph-name="cent" unicode="&#xa2;" horiz-adv-x="892" 
d="M504 872v-876q215 0 338 184l10 -6q-130 -191 -348 -194v-142h-17v144q-167 9 -284 141q-115 133 -115 311t115 311q118 133 284 142v143h17v-141q133 3 209 -58q75 -60 75 -139q0 -88 -83 -88q-36 0 -59 20.5t-23 51.5q0 16 11 49t11 53q0 55 -30.5 75.5t-110.5 18.5z
M487 -4v874q-83 -3 -129 -43q-53 -47 -77 -133q-25 -89 -25 -260q0 -169 23.5 -257.5t78.5 -133.5q43 -38 129 -47z" />
    <glyph glyph-name="sterling" unicode="&#xa3;" horiz-adv-x="1126" 
d="M1063 262l20 -2q-9 -102 -100 -190q-92 -86 -215 -86q-146 0 -360 114q-56 -50 -123.5 -82t-118.5 -32q-47 0 -81 25t-34 73q0 66 63.5 113t168.5 47q97 0 192 -25q39 39 39 117q0 39 -16 92q-17 56 -49 127q-26 58 -48 117h-188v20h184q-55 155 -55 240q0 184 104 315
q109 133 279 133q93 0 166 -67q76 -64 76 -129q0 -39 -29.5 -70t-69.5 -31q-86 0 -86 74q0 15 20.5 54.5t20.5 56.5q0 86 -118 86q-95 0 -143 -76.5t-48 -245.5q0 -49 23 -180q24 -118 30 -160h197v-20h-197q15 -111 15 -185q0 -163 -84 -276q12 -3 108 -37q169 -57 324 -57
q58 0 93 41.5t40 105.5zM381 109q-122 61 -201 61q-49 0 -77.5 -24.5t-28.5 -67.5q0 -33 31 -53.5t67 -20.5q40 0 100.5 30.5t108.5 74.5z" />
    <glyph glyph-name="currency" unicode="&#xa4;" horiz-adv-x="1228" 
d="M950 463l131 -133l-69 -70l-131 133q-116 -96 -267 -96q-141 0 -266 94l-129 -129l-69 70l129 129q-95 127 -95 268q0 145 92 266l-129 131l70 70l129 -131q118 92 268 92q141 0 269 -90l129 127l69 -70l-129 -129q92 -133 92 -268q0 -145 -94 -264zM614 1051
q-134 0 -229 -95q-94 -94 -94 -229t94 -229q95 -95 229 -95q133 0 228 95q96 96 96 229q0 131 -96 227q-97 97 -228 97z" />
    <glyph glyph-name="yen" unicode="&#xa5;" horiz-adv-x="1218" 
d="M872 0h-534v25h186v434h-377v24h377v133l-51 97h-326v22h314l-318 606h-200v25h600v-25h-213l352 -663l285 582q22 52 22 61q0 20 -24 20h-156v25h393v-25h-119q-31 0 -51 -18.5t-41 -62.5l-254 -525h324v-22h-334l-41 -84v-146h375v-24h-375v-434h186v-25z" />
    <glyph glyph-name="brokenbar" unicode="&#xa6;" horiz-adv-x="454" 
d="M289 1354v-512h-123v512h123zM289 330v-512h-123v512h123z" />
    <glyph glyph-name="section" unicode="&#xa7;" horiz-adv-x="946" 
d="M850 410q0 -90 -36.5 -157.5t-123.5 -143.5q111 -105 111 -238q0 -170 -105 -287q-101 -116 -272 -116q-131 0 -231 81q-101 82 -101 164q0 36 21.5 57t54.5 21q35 0 56.5 -18t21.5 -49q0 -6 -10.5 -35.5t-10.5 -46.5q0 -64 55.5 -109t143.5 -45q131 0 207 73.5t76 202.5
q0 164 -215 269l-30 15q-49 24 -75 37.5t-71 40t-70.5 47t-58 52.5t-49.5 63.5t-29.5 73t-12.5 87.5q0 166 160 299q-113 107 -113 237q0 170 105 287q104 119 274 119q125 0 209 -72t84 -152q0 -75 -76 -75q-35 0 -56 18t-21 49q0 7 10 36t10 44q0 129 -160 129
q-134 0 -209 -73t-75 -203q0 -163 217 -269q153 -75 209 -112q175 -116 185 -276q1 -12 1 -25zM791 305q0 94 -86 162q-83 68 -228 139q-139 70 -207 131q-114 -99 -114 -190q0 -68 53 -129t133 -101q63 -29 174 -90q101 -55 158 -106q117 105 117 184z" />
    <glyph glyph-name="dieresis" unicode="&#xa8;" 
d="M621 1204q0 -38 -27.5 -66t-65.5 -28q-37 0 -63.5 28t-26.5 66q0 41 26.5 68.5t63.5 27.5q39 0 66 -27.5t27 -68.5zM268 1204q0 -38 -26.5 -66t-63.5 -28q-38 0 -65 28t-27 66q0 41 26.5 68.5t65.5 27.5q37 0 63.5 -27.5t26.5 -68.5z" />
    <glyph glyph-name="copyright" unicode="&#xa9;" horiz-adv-x="1609" 
d="M1303 1190q206 -209 206 -506q0 -296 -206 -508q-206 -209 -498 -209t-498 209q-207 213 -207 508q0 296 207 506q206 209 498 209t498 -209zM1485 684q0 283 -201 487q-200 203 -479 203q-281 0 -481 -203q-199 -202 -199 -487q0 -286 199 -491q200 -203 481 -203
q279 0 479 203q201 207 201 491zM1087 537v-269h-20q-6 33 -51 33q-24 0 -94 -18q-71 -19 -101 -19q-160 0 -272 127q-111 129 -111 303q0 178 107 303q109 127 270 127q26 0 88 -16q55 -14 86 -14q55 0 58 26h16v-235h-16q0 85 -72 151q-71 68 -160 68q-96 0 -145 -43
q-99 -79 -99 -367q0 -286 99 -368q49 -43 151 -43q107 0 176.5 70t69.5 184h20z" />
    <glyph glyph-name="ordfeminine" unicode="&#xaa;" 
d="M657 778l15 -8l-2 -4q-6 -24 -36.5 -41.5t-68.5 -17.5q-47 0 -81.5 30.5t-39.5 75.5q-18 -48 -62 -77t-103 -29q-92 0 -148.5 39t-56.5 120q0 174 196 195q11 0 17 2q145 15 151 43v117q0 80 -26.5 109.5t-81.5 29.5q-38 0 -54 -11t-16 -44q0 -9 6 -30.5t6 -29.5
q0 -24 -17 -39.5t-48 -15.5q-64 0 -64 70q0 46 54 84t133 38q245 0 245 -276v-311q0 -52 33 -52q38 0 49 33zM438 885v184q-10 -8 -36 -14t-61.5 -11t-41.5 -6q-30 -6 -48 -17.5t-32 -49.5t-14 -105q0 -131 98 -131q56 0 95.5 46t39.5 104z" />
    <glyph glyph-name="guillemotleft" unicode="&#xab;" horiz-adv-x="790" 
d="M690 123h-28q0 55 -33 113.5t-88 101.5q-83 72 -156 113v8q45 23 98 61q55 43 115 117q64 76 64 151h28q0 -90 -49 -184q-52 -99 -102 -149q49 -49 102 -150q49 -94 49 -182zM387 123h-29q0 55 -33 113.5t-87 101.5q-83 72 -156 113v8q45 23 98 61q55 43 115 117
q63 75 63 151h29q0 -90 -49 -184q-52 -99 -102 -149q49 -49 102 -150q49 -94 49 -182z" />
    <glyph glyph-name="logicalnot" unicode="&#xac;" horiz-adv-x="1228" 
d="M1124 743v-493h-114v383h-908v110h1022z" />
    <glyph glyph-name="uni00AD" unicode="&#xad;" horiz-adv-x="651" 
d="M82 543h487v-109h-487v109z" />
    <glyph glyph-name="registered" unicode="&#xae;" horiz-adv-x="1609" 
d="M1303 1190q206 -209 206 -506q0 -296 -206 -508q-206 -209 -498 -209t-498 209q-207 213 -207 508q0 296 207 506q206 209 498 209t498 -209zM1485 684q0 283 -201 487q-200 203 -479 203q-281 0 -481 -203q-199 -202 -199 -487q0 -286 199 -491q200 -203 481 -203
q279 0 479 203q201 207 201 491zM1255 319l9 -14q-38 -41 -109 -41q-170 0 -170 225v64q0 71 -48.5 107t-135.5 36h-109v-393h135v-18h-374v18h108v782h-108v19h352q126 0 201 -56t75 -145q0 -82 -73.5 -140t-178.5 -58q291 0 291 -218v-106q0 -96 66 -96q35 0 69 34z
M952 899q0 101 -42.5 143.5t-135.5 42.5h-82v-370h109q88 0 119.5 38t31.5 146z" />
    <glyph glyph-name="overscore" unicode="&#xaf;" 
d="M643 1151h-573v84h573v-84z" />
    <glyph glyph-name="degree" unicode="&#xb0;" horiz-adv-x="538" 
d="M420 1225q0 -60 -44 -104t-104 -44q-63 0 -106 43t-43 105t43 105.5t106 43.5q60 0 104 -44t44 -105zM395 1225q0 54 -36 90.5t-87 36.5q-52 0 -88.5 -37t-36.5 -90q0 -51 37 -88t88 -37t87 37t36 88z" />
    <glyph glyph-name="plusminus" unicode="&#xb1;" horiz-adv-x="1228" 
d="M1124 653v-110h-450v-359h-123v359h-449v110h449v361h123v-361h450zM1124 92v-110h-1022v110h1022z" />
    <glyph glyph-name="twosuperior" unicode="&#xb2;" horiz-adv-x="675" 
d="M319 1360q-44 0 -74 -18.5t-30 -53.5q0 -8 5 -26t5 -23q0 -18 -15.5 -30.5t-43.5 -12.5t-41.5 17t-13.5 42q0 42 63 82q65 41 145 41q113 0 186 -53.5t73 -157.5q0 -58 -33 -108q-29 -48 -117 -133q-82 -82 -123 -129l-139 -162v-6h258q115 0 115 106h20v-188h-477v16
l197 238q100 118 131 190q32 65 32 187q0 99 -28.5 140.5t-94.5 41.5z" />
    <glyph glyph-name="threesuperior" unicode="&#xb3;" horiz-adv-x="675" 
d="M584 791q0 -112 -95 -183q-91 -67 -200 -67q-83 0 -138 31.5t-55 76.5q0 27 15 46.5t43 19.5q57 0 57 -43q0 -7 -5 -29t-5 -29q0 -51 88 -51q89 0 124.5 44t35.5 173q0 121 -28 170t-83 49q-44 0 -113 -38l-10 16q105 54 143 104q39 48 39 144q0 78 -20.5 104.5
t-77.5 26.5q-72 0 -72 -49q0 -9 6.5 -26t6.5 -21q0 -22 -16 -38t-44 -16q-55 0 -55 58q0 40 53.5 76t120.5 36q107 0 168 -41t61 -121q0 -62 -65 -115.5t-166 -88.5q33 8 49 8q106 0 172 -66t66 -161z" />
    <glyph glyph-name="acute" unicode="&#xb4;" 
d="M211 1055l-6 6l244 260q51 55 63 62q11 6 33 10q28 0 47.5 -20.5t19.5 -47.5q0 -33 -51 -59z" />
    <glyph glyph-name="mu" unicode="&#xb5;" horiz-adv-x="1052" 
d="M156 168v680h-127v24h297v-657q0 -94 50.5 -151.5t115.5 -57.5q176 0 235 189v653h-127v24h297v-847h127v-25h-297v141q-25 -78 -89 -118.5t-146 -40.5q-213 0 -295 143q2 -22 16 -135q25 -202 25 -285q0 -154 -64 -154q-59 0 -59 154q0 80 18 236q20 145 23 227z" />
    <glyph glyph-name="paragraph" unicode="&#xb6;" horiz-adv-x="1189" 
d="M1120 1366v-27h-73q-50 0 -81 -46.5t-38 -110.5q-8 -76 -10 -133q-3 -70 -7 -91v-745q0 -248 -53 -410q-96 -305 -418 -305q-80 0 -159 31q-76 30 -76 100q0 39 27 68t65 29t66 -27.5t28 -65.5q0 -34 -18 -61q4 -2 20 -2q66 0 113.5 46.5t71.5 127.5q40 134 40 307v400
q-226 -12 -389 108q-159 123 -159 348q0 128 54.5 223.5t149.5 143.5q180 92 428 92h418zM963 1339h-203q-76 -55 -90 -219q-2 -29 -4.5 -70.5t-3.5 -54.5v-131v-821q0 -174 -33 -301q-42 -161 -191 -199q61 0 111 13q102 31 165 86.5t95 144.5q25 64 36 113.5t17 126.5
q6 80 6 125q2 31 2 127v759q0 223 93 301z" />
    <glyph glyph-name="middot" unicode="&#xb7;" horiz-adv-x="358" 
d="M285 725q0 -44 -30 -76.5t-73 -32.5q-41 0 -70.5 32.5t-29.5 76.5q0 43 29.5 73.5t70.5 30.5q43 0 73 -30.5t30 -73.5z" />
    <glyph glyph-name="cedilla" unicode="&#xb8;" 
d="M549 -309q0 -69 -48 -109.5t-130 -40.5q-67 0 -112.5 32t-45.5 75q0 24 13 38.5t36 14.5q45 0 45 -43q0 -14 -14 -32t-14 -21q0 -18 26.5 -28.5t65.5 -10.5q62 0 100.5 25t38.5 67q3 18 -28.5 36t-71 32.5t-71 46t-28.5 73.5q0 37 22.5 85t47.5 69l22 -8q-38 -44 -38 -88
q0 -27 19 -46t46 -31.5t54 -27t46 -41.5t19 -67z" />
    <glyph glyph-name="onesuperior" unicode="&#xb9;" horiz-adv-x="675" 
d="M510 569v-22h-307v22h90v774h-90v23h219v-797h88z" />
    <glyph glyph-name="ordmasculine" unicode="&#xba;" horiz-adv-x="806" 
d="M719 1044q0 -138 -94 -239q-90 -100 -224 -100q-131 0 -221 100q-92 103 -92 239q0 140 92 240q90 100 221 100q134 0 224 -100q94 -98 94 -240zM578 1044q0 224 -68 283q-35 35 -109 35q-69 0 -104 -35q-70 -61 -70 -283q0 -218 70 -282q35 -35 104 -35q74 0 109 35
q37 33 52.5 94.5t15.5 187.5z" />
    <glyph glyph-name="guillemotright" unicode="&#xbb;" horiz-adv-x="790" 
d="M709 459v-8q-64 -36 -158 -113q-53 -44 -86 -102.5t-33 -112.5h-29q0 87 50 182q53 101 102 150q-50 50 -102 149q-50 95 -50 184h29q0 -74 62 -151q30 -37 59.5 -66t59 -50.5t48 -33t48.5 -28.5zM406 459v-8q-64 -36 -158 -113q-53 -44 -86 -102.5t-33 -112.5h-29
q0 87 50 182q53 101 102 150q-50 50 -102 149q-50 95 -50 184h29q0 -75 61 -151q39 -48 82.5 -86t68 -53.5t65.5 -38.5z" />
    <glyph glyph-name="onequarter" unicode="&#xbc;" horiz-adv-x="1552" 
d="M1450 23v-23h-305v23h90v249h-301v15q57 80 84 133l217 399q34 -12 92 15q63 29 88 57l15 -12l-467 -584h272v117q34 2 66 34.5t38 79.5h23v-231h131v-23h-131v-249h88zM1180 1395l22 -11l-819 -1417l-21 13zM510 569v-22h-307v22h90v774h-90v23h219v-797h88z" />
    <glyph glyph-name="onehalf" unicode="&#xbd;" horiz-adv-x="1552" 
d="M1180 813q-44 0 -74.5 -18.5t-30.5 -53.5q0 -7 5 -26t5 -23q0 -18 -15.5 -30.5t-43.5 -12.5q-27 0 -41 17.5t-14 42.5q0 42 63 82q64 40 146 40q113 0 185.5 -53t72.5 -157q0 -59 -33 -109q-29 -48 -117 -133q-82 -83 -123 -129l-139 -162v-6h258q115 0 115 106h20v-188
h-477v16l197 238q100 118 131 190q33 67 33 187q0 99 -28.5 140.5t-94.5 41.5zM1139 1395l22 -11l-819 -1417l-20 13zM510 569v-22h-307v22h90v774h-90v23h219v-797h88z" />
    <glyph glyph-name="threequarters" unicode="&#xbe;" horiz-adv-x="1552" 
d="M584 791q0 -112 -95 -183q-91 -67 -200 -67q-83 0 -138 31.5t-55 76.5q0 27 15 46.5t43 19.5q57 0 57 -43q0 -7 -5 -29t-5 -29q0 -51 88 -51q89 0 124.5 44t35.5 173q0 121 -28 170t-83 49q-44 0 -113 -38l-10 16q105 54 143 104q39 48 39 144q0 78 -20.5 104.5
t-77.5 26.5q-72 0 -72 -49q0 -9 6.5 -26t6.5 -21q0 -22 -16 -38t-44 -16q-55 0 -55 58q0 40 53.5 76t120.5 36q107 0 168 -41t61 -121q0 -62 -65 -115.5t-166 -88.5q33 8 49 8q106 0 172 -66t66 -161zM1450 23v-23h-305v23h90v249h-301v15q57 80 84 133l217 399
q34 -12 92 15q63 29 88 57l15 -12l-467 -584h272v117q34 2 66 34.5t38 79.5h23v-231h131v-23h-131v-249h88zM1200 1395l23 -11l-820 -1417l-20 13z" />
    <glyph glyph-name="questiondown" unicode="&#xbf;" horiz-adv-x="796" 
d="M518 524h23v-354h-6q-35 68 -146 68q-69 0 -110 -35q-32 -26 -41 -88q-11 -79 -11 -254q0 -256 95 -336q52 -43 143 -43q72 0 99.5 23t27.5 83q0 25 -18.5 65.5t-18.5 55.5q0 36 24.5 59t65.5 23q96 0 96 -98q0 -88 -75 -160q-77 -74 -201 -74q-183 0 -299 113
q-117 111 -117 289q0 171 101 284q103 115 239 115q86 0 129 -43v307zM530 891q41 0 71 -31.5t30 -75.5t-30 -75t-71 -31q-43 0 -72.5 31t-29.5 75t29.5 75.5t72.5 31.5z" />
    <glyph glyph-name="Agrave" unicode="&#xc0;" horiz-adv-x="1267" 
d="M328 0h-361v25h121q43 0 70 79l450 1289h25l504 -1368h176v-25h-586v25h182l-151 434h-453l-127 -355q-12 -31 -15 -50t0 -24t9 -5h156v-25zM532 1108l-221 -627h439zM504 1774l244 -261l-7 -6l-350 211q-51 26 -51 60q0 28 20.5 47.5t47.5 19.5q21 0 37.5 -12t58.5 -59z
" />
    <glyph glyph-name="Aacute" unicode="&#xc1;" horiz-adv-x="1267" 
d="M328 0h-361v25h121q43 0 70 79l450 1289h25l504 -1368h176v-25h-586v25h182l-151 434h-453l-127 -355q-12 -31 -15 -50t0 -24t9 -5h156v-25zM532 1108l-221 -627h439zM557 1507l-6 6l244 261q45 48 57 57.5t39 13.5q27 0 47 -19t20 -48q0 -34 -51 -60z" />
    <glyph glyph-name="Acircumflex" unicode="&#xc2;" horiz-adv-x="1267" 
d="M328 0h-361v25h121q43 0 70 79l450 1289h25l504 -1368h176v-25h-586v25h182l-151 434h-453l-127 -355q-12 -31 -15 -50t0 -24t9 -5h156v-25zM532 1108l-221 -627h439zM633 1663l-260 -174l-8 10q215 253 266 352h4q55 -109 266 -352l-8 -10z" />
    <glyph glyph-name="Atilde" unicode="&#xc3;" horiz-adv-x="1267" 
d="M328 0h-361v25h121q43 0 70 79l450 1289h25l504 -1368h176v-25h-586v25h182l-151 434h-453l-127 -355q-12 -31 -15 -50t0 -24t9 -5h156v-25zM532 1108l-221 -627h439zM922 1774l2 10h28q-2 -18 -20 -70q-15 -40 -68 -90q-49 -49 -119 -49q-59 0 -147 49q-89 47 -129 47
q-34 0 -58 -7.5t-37 -21.5t-18.5 -25.5t-9.5 -27.5l-4 -14h-29q17 88 74.5 145.5t122.5 57.5q38 0 141 -47q95 -50 140 -50q34 0 58.5 9t39 27t20.5 28.5t13 28.5z" />
    <glyph glyph-name="Adieresis" unicode="&#xc4;" horiz-adv-x="1267" 
d="M328 0h-361v25h121q43 0 70 79l450 1289h25l504 -1368h176v-25h-586v25h182l-151 434h-453l-127 -355q-12 -31 -15 -50t0 -24t9 -5h156v-25zM532 1108l-221 -627h439zM432 1536q-41 0 -70.5 31t-29.5 75t29.5 75.5t70.5 31.5q43 0 73 -31.5t30 -75.5t-30 -75t-73 -31z
M807 1536q-41 0 -70.5 31t-29.5 75t29.5 75.5t70.5 31.5q43 0 72.5 -31.5t29.5 -75.5t-29.5 -75t-72.5 -31z" />
    <glyph glyph-name="Aring" unicode="&#xc5;" horiz-adv-x="1267" 
d="M807 1569q0 -67 -51.5 -122t-120.5 -63l502 -1359h176v-25h-586v25h182l-151 434h-453l-127 -355q-12 -31 -15 -50t0 -24t9 -5h156v-25h-361v25h121q43 0 70 79l446 1280q-69 5 -121.5 60.5t-52.5 124.5q0 91 64 137q64 49 124 49q59 0 123 -49q66 -48 66 -137zM311 481
h439l-218 627zM520 1567q0 -91 23 -128.5t75 -37.5t75.5 37.5t23.5 128.5q0 88 -21 130t-78 42t-77.5 -42t-20.5 -130z" />
    <glyph glyph-name="AE" unicode="&#xc6;" horiz-adv-x="1746" 
d="M399 578h408v749zM1694 399v-399h-1063v25h176v530h-420l-244 -451q-34 -64 -28 -73q3 -6 16 -6h143v-25h-352v25h107q14 0 39 23.5t43 55.5l677 1237h-161v25h968v-360h-20q0 154 -82 244.5t-242 90.5h-233v-626h80q111 0 173 58t62 159h21v-461h-21q0 101 -62 160
t-173 59h-80v-665h237q209 0 313.5 101t104.5 273h21z" />
    <glyph glyph-name="Ccedilla" unicode="&#xc7;" horiz-adv-x="1239" 
d="M1147 424v-453h-21q-5 22 -28.5 40t-57.5 18q-35 0 -153 -31q-115 -31 -166 -31h-16q-21 -38 -21 -63q0 -27 19 -46t46 -31.5t54 -27t46 -41.5t19 -67q0 -69 -48 -109.5t-130 -40.5q-67 0 -112.5 32t-45.5 75q0 24 13.5 38.5t36.5 14.5q45 0 45 -43q0 -14 -14.5 -32
t-14.5 -21q0 -18 26.5 -28.5t65.5 -10.5q62 0 100.5 25t38.5 67q0 30 -51 47q-52 19 -98 51q-49 30 -49.5 90.5t43.5 122.5q-245 21 -410 228q-162 204 -162 485q0 294 174 504q177 213 437 213q47 0 141 -27q99 -24 141 -24q37 0 64.5 13.5t32.5 31.5h20v-404h-20
q0 143 -121 264q-120 123 -258 123q-154 0 -236 -73q-151 -139 -151 -621t151 -621q82 -73 244 -73q172 0 289 123q116 125 116 313h21z" />
    <glyph glyph-name="Egrave" unicode="&#xc8;" horiz-adv-x="1198" 
d="M1145 399v-399h-1063v25h176v1316h-176v25h965v-360h-21q0 154 -82 244.5t-242 90.5h-233v-626h80q111 0 173 58t62 159h21v-461h-21q0 101 -62 160t-173 59h-80v-665h238q209 0 313 101t104 273h21zM530 1774l244 -261l-6 -6l-350 211q-51 26 -51 60q0 29 19 48t48 19
q21 0 37.5 -12t58.5 -59z" />
    <glyph glyph-name="Eacute" unicode="&#xc9;" horiz-adv-x="1198" 
d="M1145 399v-399h-1063v25h176v1316h-176v25h965v-360h-21q0 154 -82 244.5t-242 90.5h-233v-626h80q111 0 173 58t62 159h21v-461h-21q0 101 -62 160t-173 59h-80v-665h238q209 0 313 101t104 273h21zM481 1507l-6 6l244 261q45 48 57 57.5t39 13.5q29 0 48.5 -19
t19.5 -48q0 -33 -52 -60z" />
    <glyph glyph-name="Ecircumflex" unicode="&#xca;" horiz-adv-x="1198" 
d="M1145 399v-399h-1063v25h176v1316h-176v25h965v-360h-21q0 154 -82 244.5t-242 90.5h-233v-626h80q111 0 173 58t62 159h21v-461h-21q0 101 -62 160t-173 59h-80v-665h238q209 0 313 101t104 273h21zM598 1663l-260 -174l-8 10q215 253 266 352h4q54 -109 266 -352
l-8 -10z" />
    <glyph glyph-name="Edieresis" unicode="&#xcb;" horiz-adv-x="1198" 
d="M1145 399v-399h-1063v25h176v1316h-176v25h965v-360h-21q0 154 -82 244.5t-242 90.5h-233v-626h80q111 0 173 58t62 159h21v-461h-21q0 101 -62 160t-173 59h-80v-665h238q209 0 313 101t104 273h21zM436 1536q-41 0 -70.5 31t-29.5 75t29.5 75.5t70.5 31.5
q43 0 73 -31.5t30 -75.5t-30 -75t-73 -31zM811 1536q-41 0 -70.5 31t-29.5 75t29.5 75.5t70.5 31.5q43 0 72.5 -31.5t29.5 -75.5t-29.5 -75t-72.5 -31z" />
    <glyph glyph-name="Igrave" unicode="&#xcc;" horiz-adv-x="727" 
d="M645 25v-25h-563v25h176v1316h-176v25h563v-25h-176v-1316h176zM256 1774l244 -261l-6 -6l-351 211q-51 26 -51 60q0 29 19.5 48t48.5 19q21 0 37.5 -12t58.5 -59z" />
    <glyph glyph-name="Iacute" unicode="&#xcd;" horiz-adv-x="727" 
d="M645 25v-25h-563v25h176v1316h-176v25h563v-25h-176v-1316h176zM207 1507l-6 6l243 261q44 47 57 57t40 14q29 0 48 -19t19 -48q0 -34 -51 -60z" />
    <glyph glyph-name="Icircumflex" unicode="&#xce;" horiz-adv-x="727" 
d="M645 25v-25h-563v25h176v1316h-176v25h563v-25h-176v-1316h176zM362 1663l-260 -174l-8 10q215 253 266 352h5q55 -109 266 -352l-8 -10z" />
    <glyph glyph-name="Idieresis" unicode="&#xcf;" horiz-adv-x="727" 
d="M645 25v-25h-563v25h176v1316h-176v25h563v-25h-176v-1316h176zM180 1536q-41 0 -70.5 31t-29.5 75t29.5 75.5t70.5 31.5q43 0 73 -31.5t30 -75.5t-30 -75t-73 -31zM555 1536q-41 0 -70.5 31t-29.5 75t29.5 75.5t70.5 31.5q43 0 72.5 -31.5t29.5 -75.5t-29.5 -75
t-72.5 -31z" />
    <glyph glyph-name="Eth" unicode="&#xd0;" horiz-adv-x="1394" 
d="M98 682v27h160v632h-176v25h600q252 0 432 -201q178 -199 178 -483q0 -282 -178 -481q-180 -201 -432 -201h-600v25h176v657h-160zM1069 682q0 457 -154 590q-81 69 -233 69h-213v-632h186v-27h-186v-657h213q157 0 233 67q83 71 117 199q37 127 37 391z" />
    <glyph glyph-name="Ntilde" unicode="&#xd1;" horiz-adv-x="1390" 
d="M1161 0h-39l-850 1323v-1239q0 -59 70 -59h107v-25h-375v25h106q68 0 68 59v1257h-174v25h418l647 -1012v930q0 57 -70 57h-106v25h374v-25h-104q-72 0 -72 -57v-1284zM983 1774l2 10h29q-1 -13 -21 -70q-15 -41 -67 -90q-49 -49 -119 -49q-60 0 -148 49q-89 47 -129 47
q-34 0 -58 -7.5t-36.5 -21.5t-18 -25.5t-9.5 -27.5l-5 -14h-28q17 89 74 146t122 57q39 0 142 -47q95 -50 139 -50q34 0 58.5 9t39 27t20.5 28.5t13 28.5z" />
    <glyph glyph-name="Ograve" unicode="&#xd2;" horiz-adv-x="1425" 
d="M102 682q0 294 174 504q177 213 437 213q254 0 432 -211q178 -208 178 -506t-178 -506q-179 -209 -432 -209t-432 209t-179 506zM1100 682q0 484 -152 621q-79 73 -235 73q-157 0 -236 -73q-149 -134 -149 -621q0 -276 34 -412q37 -137 115 -209q79 -73 236 -73
q156 0 235 73q81 71 115 209q37 136 37 412zM563 1774l244 -261l-6 -6l-350 211q-52 27 -52 60q0 29 19.5 48t48.5 19q21 0 37.5 -12t58.5 -59z" />
    <glyph glyph-name="Oacute" unicode="&#xd3;" horiz-adv-x="1425" 
d="M102 682q0 294 174 504q177 213 437 213q254 0 432 -211q178 -208 178 -506t-178 -506q-179 -209 -432 -209t-432 209t-179 506zM1100 682q0 484 -152 621q-79 73 -235 73q-157 0 -236 -73q-149 -134 -149 -621q0 -276 34 -412q37 -137 115 -209q79 -73 236 -73
q156 0 235 73q81 71 115 209q37 136 37 412zM657 1507l-6 6l244 261q45 48 57 57.5t39 13.5q29 0 48.5 -19t19.5 -48q0 -34 -51 -60z" />
    <glyph glyph-name="Ocircumflex" unicode="&#xd4;" horiz-adv-x="1425" 
d="M102 682q0 294 174 504q177 213 437 213q254 0 432 -211q178 -208 178 -506t-178 -506q-179 -209 -432 -209t-432 209t-179 506zM1100 682q0 484 -152 621q-79 73 -235 73q-157 0 -236 -73q-149 -134 -149 -621q0 -276 34 -412q37 -137 115 -209q79 -73 236 -73
q156 0 235 73q81 71 115 209q37 136 37 412zM713 1663l-260 -174l-9 10q218 256 267 352h4q54 -109 266 -352l-8 -10z" />
    <glyph glyph-name="Otilde" unicode="&#xd5;" horiz-adv-x="1425" 
d="M102 682q0 294 174 504q177 213 437 213q254 0 432 -211q178 -208 178 -506t-178 -506q-179 -209 -432 -209t-432 209t-179 506zM1100 682q0 484 -152 621q-79 73 -235 73q-157 0 -236 -73q-149 -134 -149 -621q0 -276 34 -412q37 -137 115 -209q79 -73 236 -73
q156 0 235 73q81 71 115 209q37 136 37 412zM999 1774l5 10h28q-2 -18 -20 -70q-15 -40 -68 -90q-49 -49 -119 -49q-59 0 -147 49q-89 47 -129 47q-34 0 -58 -7.5t-37 -21.5t-18.5 -25.5t-9.5 -27.5l-4 -14h-29q17 88 74.5 145.5t122.5 57.5q38 0 141 -47q95 -50 139 -50
q62 0 92 29.5t37 63.5z" />
    <glyph glyph-name="Odieresis" unicode="&#xd6;" horiz-adv-x="1425" 
d="M102 682q0 294 174 504q177 213 437 213q254 0 432 -211q178 -208 178 -506t-178 -506q-179 -209 -432 -209t-432 209t-179 506zM1100 682q0 484 -152 621q-79 73 -235 73q-157 0 -236 -73q-149 -134 -149 -621q0 -276 34 -412q37 -137 115 -209q79 -73 236 -73
q156 0 235 73q81 71 115 209q37 136 37 412zM528 1536q-41 0 -70.5 31t-29.5 75t29.5 75.5t70.5 31.5q43 0 73 -31.5t30 -75.5t-30 -75t-73 -31zM903 1536q-41 0 -70.5 31t-29.5 75t29.5 75.5t70.5 31.5q43 0 73 -31.5t30 -75.5t-30 -75t-73 -31z" />
    <glyph glyph-name="multiply" unicode="&#xd7;" horiz-adv-x="1228" 
d="M1008 182l-78 -80l-320 320l-313 -313l-78 77l313 314l-317 317l80 78l315 -317l314 313l77 -78l-311 -313z" />
    <glyph glyph-name="Oslash" unicode="&#xd8;" horiz-adv-x="1425" 
d="M309 -47l-22 12l75 131q-122 99 -191 253t-69 333q0 294 174 504q177 213 437 213q184 0 334 -117l73 127l23 -12l-76 -131q120 -101 188 -254t68 -330q0 -298 -178 -506q-179 -209 -432 -209q-183 0 -332 113zM328 682q0 -375 71 -520l611 1057q-23 45 -62 84
q-79 73 -235 73q-157 0 -236 -73q-149 -134 -149 -621zM1100 682q0 342 -76 510l-610 -1055q28 -48 63 -76q79 -73 236 -73q156 0 235 73q81 71 115 209q37 136 37 412z" />
    <glyph glyph-name="Ugrave" unicode="&#xd9;" horiz-adv-x="1359" 
d="M705 -33q-224 0 -354 112t-130 318v944h-176v25h563v-25h-176v-944q0 -391 320 -391q188 0 284.5 105t96.5 295v878q0 57 -70 57h-98v25h368v-25h-106q-70 0 -70 -57v-878q0 -211 -113.5 -325t-338.5 -114zM571 1774l244 -261l-6 -6l-350 211q-51 26 -51 60q0 29 19 48
t48 19q21 0 37.5 -12t58.5 -59z" />
    <glyph glyph-name="Uacute" unicode="&#xda;" horiz-adv-x="1359" 
d="M705 -33q-224 0 -354 112t-130 318v944h-176v25h563v-25h-176v-944q0 -391 320 -391q188 0 284.5 105t96.5 295v878q0 57 -70 57h-98v25h368v-25h-106q-70 0 -70 -57v-878q0 -211 -113.5 -325t-338.5 -114zM686 1507l-6 6l244 261q45 48 57 57.5t39 13.5q29 0 48 -19
t19 -48q0 -34 -51 -60z" />
    <glyph glyph-name="Ucircumflex" unicode="&#xdb;" horiz-adv-x="1359" 
d="M705 -33q-224 0 -354 112t-130 318v944h-176v25h563v-25h-176v-944q0 -391 320 -391q188 0 284.5 105t96.5 295v878q0 57 -70 57h-98v25h368v-25h-106q-70 0 -70 -57v-878q0 -211 -113.5 -325t-338.5 -114zM762 1663l-260 -174l-8 10q215 253 266 352h4q54 -109 266 -352
l-8 -10z" />
    <glyph glyph-name="Udieresis" unicode="&#xdc;" horiz-adv-x="1359" 
d="M705 -33q-224 0 -354 112t-130 318v944h-176v25h563v-25h-176v-944q0 -391 320 -391q188 0 284.5 105t96.5 295v878q0 57 -70 57h-98v25h368v-25h-106q-70 0 -70 -57v-878q0 -211 -113.5 -325t-338.5 -114zM578 1536q-41 0 -71 31t-30 75t30 75.5t71 31.5
q43 0 72.5 -31.5t29.5 -75.5t-29.5 -75t-72.5 -31zM952 1536q-41 0 -70.5 31t-29.5 75t29.5 75.5t70.5 31.5q43 0 73 -31.5t30 -75.5t-30 -75t-73 -31z" />
    <glyph glyph-name="Yacute" unicode="&#xdd;" horiz-adv-x="1214" 
d="M932 0h-567v25h178v571l-373 745h-188v25h622v-25h-201l345 -692l278 611q37 81 -27 81h-131v25h385v-25h-112q-55 0 -99 -92l-288 -639v-585h178v-25zM633 1507l-6 6l243 261q44 47 57 57t40 14q29 0 48 -19t19 -48q0 -34 -51 -60z" />
    <glyph glyph-name="Thorn" unicode="&#xde;" horiz-adv-x="1224" 
d="M471 1341v-211v-8h166q243 0 381 -123q139 -124 139 -305q0 -176 -137 -286q-135 -111 -354 -111q-96 0 -195 22v-294h176v-25h-565v25h176v1316h-176v25h565v-25h-176zM637 1100h-166v-750q73 -31 195 -31q143 0 212.5 89t69.5 286t-84 301.5t-227 104.5z" />
    <glyph glyph-name="germandbls" unicode="&#xdf;" horiz-adv-x="1085" 
d="M989 371q0 -185 -90 -289q-88 -98 -199 -98q-91 0 -148.5 48t-57.5 118q0 34 17 53.5t44 19.5q29 0 47.5 -15t18.5 -40q0 -7 -8.5 -32.5t-8.5 -39.5q0 -46 26 -72t70 -26t66.5 22.5t35.5 100.5t13 231q0 238 -46 333t-163 95q-32 0 -71 -22l-9 12q113 67 148 139
q35 75 35 232q0 152 -35.5 213t-130.5 61q-79 0 -127.5 -58.5t-48.5 -176.5v-1155h116v-25h-403v25h117v839q0 282 92.5 424t253.5 142q144 0 233.5 -79t89.5 -214q0 -113 -73.5 -202t-198.5 -140q24 4 65 4q151 0 240 -133q90 -134 90 -295z" />
    <glyph glyph-name="agrave" unicode="&#xe0;" horiz-adv-x="899" 
d="M868 74l17 -13q-11 -32 -49.5 -54.5t-90.5 -22.5q-62 0 -103.5 39t-53.5 104q-20 -63 -85 -103t-149 -40q-124 0 -199 53t-75 160q0 74 27 127.5t75 78.5q81 45 162 54q13 0 23 2q213 18 213 59v156q0 194 -156 194q-90 0 -90 -77q0 -13 7 -40t7 -38q0 -31 -22.5 -50.5
t-63.5 -19.5t-62.5 24.5t-21.5 63.5q0 63 69 111.5t177 48.5q328 0 328 -371v-424q0 -69 49 -69q23 0 42 14t25 33zM580 197v278q-13 -13 -50.5 -21t-87 -13t-59.5 -7q-68 -11 -102.5 -63.5t-34.5 -173.5q0 -183 143 -183q77 0 133 56q58 58 58 127zM319 1321l244 -260
l-6 -6l-350 211q-51 26 -51 59q0 26 20.5 47t46.5 21q20 0 36.5 -12.5t59.5 -59.5z" />
    <glyph glyph-name="aacute" unicode="&#xe1;" horiz-adv-x="899" 
d="M868 74l17 -13q-11 -32 -49.5 -54.5t-90.5 -22.5q-62 0 -103.5 39t-53.5 104q-20 -63 -85 -103t-149 -40q-124 0 -199 53t-75 160q0 74 27 127.5t75 78.5q81 45 162 54q13 0 23 2q213 18 213 59v156q0 194 -156 194q-90 0 -90 -77q0 -13 7 -40t7 -38q0 -31 -22.5 -50.5
t-63.5 -19.5t-62.5 24.5t-21.5 63.5q0 63 69 111.5t177 48.5q328 0 328 -371v-424q0 -69 49 -69q23 0 42 14t25 33zM580 197v278q-13 -13 -50.5 -21t-87 -13t-59.5 -7q-68 -11 -102.5 -63.5t-34.5 -173.5q0 -183 143 -183q77 0 133 56q58 58 58 127zM352 1055l-6 6l244 260
q51 55 63 62q11 6 33 10q26 0 47 -21t21 -47q0 -32 -52 -59z" />
    <glyph glyph-name="acircumflex" unicode="&#xe2;" horiz-adv-x="899" 
d="M868 74l17 -13q-11 -32 -49.5 -54.5t-90.5 -22.5q-62 0 -103.5 39t-53.5 104q-20 -63 -85 -103t-149 -40q-124 0 -199 53t-75 160q0 74 27 127.5t75 78.5q81 45 162 54q13 0 23 2q213 18 213 59v156q0 194 -156 194q-90 0 -90 -77q0 -13 7 -40t7 -38q0 -31 -22.5 -50.5
t-63.5 -19.5t-62.5 24.5t-21.5 63.5q0 63 69 111.5t177 48.5q328 0 328 -371v-424q0 -69 49 -69q23 0 42 14t25 33zM580 197v278q-13 -13 -50.5 -21t-87 -13t-59.5 -7q-68 -11 -102.5 -63.5t-34.5 -173.5q0 -183 143 -183q77 0 133 56q58 58 58 127zM449 1210l-261 -174
l-8 11q215 253 266 352h5q55 -109 266 -352l-8 -11z" />
    <glyph glyph-name="atilde" unicode="&#xe3;" horiz-adv-x="899" 
d="M868 74l17 -13q-11 -32 -49.5 -54.5t-90.5 -22.5q-62 0 -103.5 39t-53.5 104q-20 -63 -85 -103t-149 -40q-124 0 -199 53t-75 160q0 74 27 127.5t75 78.5q81 45 162 54q13 0 23 2q213 18 213 59v156q0 194 -156 194q-90 0 -90 -77q0 -13 7 -40t7 -38q0 -31 -22.5 -50.5
t-63.5 -19.5t-62.5 24.5t-21.5 63.5q0 63 69 111.5t177 48.5q328 0 328 -371v-424q0 -69 49 -69q23 0 42 14t25 33zM580 197v278q-13 -13 -50.5 -21t-87 -13t-59.5 -7q-68 -11 -102.5 -63.5t-34.5 -173.5q0 -183 143 -183q77 0 133 56q58 58 58 127zM737 1321l2 10h29
q-2 -16 -20 -69q-15 -41 -68 -91q-49 -49 -119 -49q-59 0 -147 49q-91 48 -129 48q-34 0 -58 -7.5t-37 -21.5t-18.5 -25.5t-9.5 -27.5l-4 -15h-29q17 88 74.5 145.5t122.5 57.5q38 0 141 -47q94 -49 139 -49q34 0 58.5 9t39 26.5t20.5 28t13 28.5z" />
    <glyph glyph-name="adieresis" unicode="&#xe4;" horiz-adv-x="899" 
d="M868 74l17 -13q-11 -32 -49.5 -54.5t-90.5 -22.5q-62 0 -103.5 39t-53.5 104q-20 -63 -85 -103t-149 -40q-124 0 -199 53t-75 160q0 74 27 127.5t75 78.5q81 45 162 54q13 0 23 2q213 18 213 59v156q0 194 -156 194q-90 0 -90 -77q0 -13 7 -40t7 -38q0 -31 -22.5 -50.5
t-63.5 -19.5t-62.5 24.5t-21.5 63.5q0 63 69 111.5t177 48.5q328 0 328 -371v-424q0 -69 49 -69q23 0 42 14t25 33zM580 197v278q-13 -13 -50.5 -21t-87 -13t-59.5 -7q-68 -11 -102.5 -63.5t-34.5 -173.5q0 -183 143 -183q77 0 133 56q58 58 58 127zM717 1204q0 -38 -27 -66
t-65 -28q-37 0 -63.5 28t-26.5 66q0 41 26.5 68.5t63.5 27.5q39 0 65.5 -27.5t26.5 -68.5zM365 1204q0 -38 -27 -66t-64 -28q-38 0 -65 28t-27 66q0 41 26.5 68.5t65.5 27.5q37 0 64 -27.5t27 -68.5z" />
    <glyph glyph-name="aring" unicode="&#xe5;" horiz-adv-x="899" 
d="M868 74l17 -13q-11 -32 -49.5 -54.5t-90.5 -22.5q-62 0 -103.5 39t-53.5 104q-20 -63 -85 -103t-149 -40q-124 0 -199 53t-75 160q0 74 27 127.5t75 78.5q81 45 162 54q13 0 23 2q213 18 213 59v156q0 194 -156 194q-90 0 -90 -77q0 -13 7 -40t7 -38q0 -31 -22.5 -50.5
t-63.5 -19.5t-62.5 24.5t-21.5 63.5q0 63 69 111.5t177 48.5q328 0 328 -371v-424q0 -69 49 -69q23 0 42 14t25 33zM580 197v278q-13 -13 -50.5 -21t-87 -13t-59.5 -7q-68 -11 -102.5 -63.5t-34.5 -173.5q0 -183 143 -183q77 0 133 56q58 58 58 127zM637 1249
q0 -73 -57 -128.5t-131 -55.5t-131.5 55.5t-57.5 128.5q0 91 64 137q65 50 125 50q57 0 122 -50q66 -48 66 -137zM350 1247q0 -91 23.5 -128.5t75.5 -37.5t75 37.5t23 128.5q0 88 -20.5 130t-77.5 42t-78 -42t-21 -130z" />
    <glyph glyph-name="ae" unicode="&#xe6;" horiz-adv-x="1423" 
d="M602 170q-17 -88 -85.5 -137t-162.5 -49q-124 0 -199 53t-75 160q0 74 27 127.5t75 78.5q81 45 162 54q13 0 23 2q213 18 213 59v156q0 192 -156 192q-90 0 -90 -75q0 -13 7 -40t7 -38q0 -31 -22.5 -50.5t-63.5 -19.5t-62.5 24.5t-21.5 63.5q0 63 69 111.5t177 48.5
q203 0 270 -131q119 131 295 131q88 0 162 -40.5t117 -105.5q84 -128 84 -253v-7h-598q-2 -10 -2 -51q0 -176 18 -258q21 -82 70 -125q56 -47 149 -47q210 0 330 184l12 -12q-126 -194 -342 -194q-129 0 -235 49t-152 139zM754 508h426q-3 243 -70 313q-45 45 -121 45
q-98 0 -149 -45q-80 -71 -86 -313zM580 197v278q-13 -13 -50.5 -21t-87 -13t-59.5 -7q-68 -11 -102.5 -63.5t-34.5 -173.5q0 -183 143 -183q77 0 133 56q58 58 58 127z" />
    <glyph glyph-name="ccedilla" unicode="&#xe7;" horiz-adv-x="894" 
d="M514 -18q-176 0 -303 133q-125 131 -125 321q0 191 125 322q127 133 303 133q125 0 203 -62.5t78 -146.5q0 -88 -86 -88q-38 0 -61 20.5t-23 53.5q0 14 10 47t10 55q0 55 -28.5 76.5t-102.5 21.5q-101 0 -154 -47q-55 -45 -77.5 -130t-22.5 -255t22.5 -255t77.5 -130
q53 -47 154 -47q201 0 320 180l18 -10q-125 -192 -338 -192zM670 -309q0 -69 -48 -109.5t-130 -40.5q-67 0 -112.5 32t-45.5 75q0 24 13 38.5t36 14.5q45 0 45 -43q0 -14 -14.5 -32t-14.5 -21q0 -18 27 -28.5t66 -10.5q62 0 100.5 25t38.5 67q0 19 -20.5 33t-49.5 24.5
t-58.5 24.5t-50 40.5t-20.5 65.5q0 37 22.5 85t47.5 69l22 -8q-39 -45 -39 -88q0 -27 19 -46t46.5 -31.5t54.5 -27t46 -41.5t19 -67z" />
    <glyph glyph-name="egrave" unicode="&#xe8;" horiz-adv-x="935" 
d="M502 -18q-178 0 -297 131t-119 321q0 193 119 324q121 133 297 133q88 0 161.5 -40.5t116.5 -105.5q84 -128 84 -253v-7h-598q-2 -10 -2 -51q0 -171 19 -258q21 -83 69 -125q56 -47 150 -47q205 0 325 184l17 -12q-126 -194 -342 -194zM266 508h426q-3 246 -69 315
q-45 45 -121 45q-99 0 -150 -45q-80 -71 -86 -315zM338 1321l244 -260l-7 -6l-350 211q-51 26 -51 59q0 27 19.5 47.5t48.5 20.5q20 0 36.5 -12.5t59.5 -59.5z" />
    <glyph glyph-name="eacute" unicode="&#xe9;" horiz-adv-x="935" 
d="M502 -18q-178 0 -297 131t-119 321q0 193 119 324q121 133 297 133q88 0 161.5 -40.5t116.5 -105.5q84 -128 84 -253v-7h-598q-2 -10 -2 -51q0 -171 19 -258q21 -83 69 -125q56 -47 150 -47q205 0 325 184l17 -12q-126 -194 -342 -194zM266 508h426q-3 246 -69 315
q-45 45 -121 45q-99 0 -150 -45q-80 -71 -86 -315zM371 1055l-6 6l243 260q45 48 57.5 58t39.5 14q28 0 47.5 -20.5t19.5 -47.5q0 -33 -51 -59z" />
    <glyph glyph-name="ecircumflex" unicode="&#xea;" horiz-adv-x="935" 
d="M502 -18q-178 0 -297 131t-119 321q0 193 119 324q121 133 297 133q88 0 161.5 -40.5t116.5 -105.5q84 -128 84 -253v-7h-598q-2 -10 -2 -51q0 -171 19 -258q21 -83 69 -125q56 -47 150 -47q205 0 325 184l17 -12q-126 -194 -342 -194zM266 508h426q-3 246 -69 315
q-45 45 -121 45q-99 0 -150 -45q-80 -71 -86 -315zM467 1210l-260 -174l-8 11q215 253 266 352h4q55 -109 266 -352l-8 -11z" />
    <glyph glyph-name="edieresis" unicode="&#xeb;" horiz-adv-x="935" 
d="M502 -18q-178 0 -297 131t-119 321q0 193 119 324q121 133 297 133q88 0 161.5 -40.5t116.5 -105.5q84 -128 84 -253v-7h-598q-2 -10 -2 -51q0 -171 19 -258q21 -83 69 -125q56 -47 150 -47q205 0 325 184l17 -12q-126 -194 -342 -194zM266 508h426q-3 246 -69 315
q-45 45 -121 45q-99 0 -150 -45q-80 -71 -86 -315zM735 1204q0 -38 -27 -66t-65 -28q-37 0 -63.5 28t-26.5 66q0 41 26.5 68.5t63.5 27.5q39 0 65.5 -27.5t26.5 -68.5zM383 1204q0 -38 -26.5 -66t-63.5 -28q-38 0 -65 28t-27 66q0 41 26.5 68.5t65.5 27.5q37 0 63.5 -27.5
t26.5 -68.5z" />
    <glyph glyph-name="igrave" unicode="&#xec;" horiz-adv-x="542" 
d="M494 25v-25h-422v25h125v823h-125v24h295v-847h127zM143 1321l244 -260l-6 -6l-350 211q-51 26 -51 59q0 26 20.5 47t46.5 21q20 0 36.5 -12.5t59.5 -59.5z" />
    <glyph glyph-name="iacute" unicode="&#xed;" horiz-adv-x="542" 
d="M494 25v-25h-422v25h125v823h-125v24h295v-847h127zM115 1055l-6 6l243 260q45 48 57.5 58t39.5 14q26 0 46.5 -21t20.5 -47q0 -33 -51 -59z" />
    <glyph glyph-name="icircumflex" unicode="&#xee;" horiz-adv-x="542" 
d="M494 25v-25h-422v25h125v823h-125v24h295v-847h127zM272 1210l-260 -174l-8 11q215 253 266 352h4q53 -106 267 -352l-9 -11z" />
    <glyph glyph-name="idieresis" unicode="&#xef;" horiz-adv-x="542" 
d="M539 1204q0 -38 -27.5 -66t-65.5 -28q-37 0 -63.5 28t-26.5 66q0 41 26.5 68.5t63.5 27.5q39 0 66 -27.5t27 -68.5zM186 1204q0 -38 -26.5 -66t-63.5 -28q-38 0 -65 28t-27 66q0 41 26.5 68.5t65.5 27.5q37 0 63.5 -27.5t26.5 -68.5zM494 25v-25h-422v25h125v823h-125v24
h295v-847h127z" />
    <glyph glyph-name="eth" unicode="&#xf0;" horiz-adv-x="1026" 
d="M563 1270l-289 -166l-12 20l285 164q-110 126 -307 207l12 18q194 -79 338 -200l248 143l12 -20q-244 -139 -244 -142q334 -301 334 -788q0 -238 -113 -381t-317 -143q-181 0 -303 137q-121 139 -121 313q0 183 125 320q127 139 305 139q149 0 225 -113q-35 323 -178 492
zM768 436q0 88 -8 149.5t-31 129.5q-48 153 -215 153q-130 0 -190 -94q-27 -40 -41 -102q-23 -105 -23 -236q0 -94 6.5 -151.5t28.5 -126.5q49 -154 215 -154q64 0 114 25.5t78 66.5q26 39 41 101q25 89 25 239z" />
    <glyph glyph-name="ntilde" unicode="&#xf1;" horiz-adv-x="1073" 
d="M475 0h-422v25h127v823h-127v24h297v-141q25 75 87.5 117.5t144.5 42.5q161 0 250.5 -90.5t89.5 -251.5v-524h125v-25h-422v25h123v632q0 84 -45.5 146.5t-120.5 62.5q-173 0 -232 -188v-653h125v-25zM823 1321l4 10h29q-2 -16 -20 -69q-15 -41 -68 -91q-49 -49 -119 -49
q-59 0 -147 49q-91 48 -129 48q-34 0 -58 -7.5t-37 -21.5t-18.5 -25.5t-9.5 -27.5l-4 -15h-29q17 88 74.5 145.5t122.5 57.5q38 0 141 -47q94 -49 139 -49q62 0 92.5 29.5t36.5 62.5z" />
    <glyph glyph-name="ograve" unicode="&#xf2;" horiz-adv-x="1028" 
d="M512 -18q-174 0 -301 133q-125 131 -125 321q0 191 125 322q127 133 301 133q176 0 303 -133t127 -322q0 -188 -127 -321t-303 -133zM768 436q0 301 -100 385q-51 45 -156 45q-103 0 -154 -45q-100 -87 -100 -385q0 -166 23.5 -252.5t76.5 -132.5q56 -47 154 -47
q100 0 156 47q55 45 77.5 130t22.5 255zM385 1321l244 -260l-6 -6l-351 211q-51 26 -51 59q0 26 21 47t47 21q20 0 36.5 -12.5t59.5 -59.5z" />
    <glyph glyph-name="oacute" unicode="&#xf3;" horiz-adv-x="1028" 
d="M512 -18q-174 0 -301 133q-125 131 -125 321q0 191 125 322q127 133 301 133q176 0 303 -133t127 -322q0 -188 -127 -321t-303 -133zM768 436q0 301 -100 385q-51 45 -156 45q-103 0 -154 -45q-100 -87 -100 -385q0 -166 23.5 -252.5t76.5 -132.5q56 -47 154 -47
q100 0 156 47q55 45 77.5 130t22.5 255zM418 1055l-6 6l243 260q45 48 57.5 58t39.5 14q26 0 46.5 -21t20.5 -47q0 -33 -51 -59z" />
    <glyph glyph-name="ocircumflex" unicode="&#xf4;" horiz-adv-x="1028" 
d="M512 -18q-174 0 -301 133q-125 131 -125 321q0 191 125 322q127 133 301 133q176 0 303 -133t127 -322q0 -188 -127 -321t-303 -133zM768 436q0 301 -100 385q-51 45 -156 45q-103 0 -154 -45q-100 -87 -100 -385q0 -166 23.5 -252.5t76.5 -132.5q56 -47 154 -47
q100 0 156 47q55 45 77.5 130t22.5 255zM514 1210l-260 -174l-8 11q215 253 266 352h4q54 -109 266 -352l-8 -11z" />
    <glyph glyph-name="otilde" unicode="&#xf5;" horiz-adv-x="1028" 
d="M512 -18q-174 0 -301 133q-125 131 -125 321q0 191 125 322q127 133 301 133q176 0 303 -133t127 -322q0 -188 -127 -321t-303 -133zM768 436q0 301 -100 385q-51 45 -156 45q-103 0 -154 -45q-100 -87 -100 -385q0 -166 23.5 -252.5t76.5 -132.5q56 -47 154 -47
q100 0 156 47q55 45 77.5 130t22.5 255zM803 1321l2 10h29q-1 -12 -21 -69q-15 -41 -68 -91q-49 -49 -118 -49q-60 0 -148 49q-91 48 -129 48q-34 0 -58 -7.5t-37 -21.5t-18.5 -25.5t-9.5 -27.5l-4 -15h-28q17 89 74 146t122 57q38 0 141 -47q94 -49 140 -49q34 0 58.5 9
t39 26.5t20.5 28t13 28.5z" />
    <glyph glyph-name="odieresis" unicode="&#xf6;" horiz-adv-x="1028" 
d="M512 -18q-174 0 -301 133q-125 131 -125 321q0 191 125 322q127 133 301 133q176 0 303 -133t127 -322q0 -188 -127 -321t-303 -133zM768 436q0 301 -100 385q-51 45 -156 45q-103 0 -154 -45q-100 -87 -100 -385q0 -166 23.5 -252.5t76.5 -132.5q56 -47 154 -47
q100 0 156 47q55 45 77.5 130t22.5 255zM780 1204q0 -38 -27 -66t-65 -28q-37 0 -63.5 28t-26.5 66q0 41 26.5 68.5t63.5 27.5q39 0 65.5 -27.5t26.5 -68.5zM428 1204q0 -38 -26.5 -66t-63.5 -28q-38 0 -65 28t-27 66q0 41 26.5 68.5t65.5 27.5q37 0 63.5 -27.5t26.5 -68.5z
" />
    <glyph glyph-name="divide" unicode="&#xf7;" horiz-adv-x="1228" 
d="M715 862q0 -41 -31 -71.5t-72 -30.5t-70.5 30.5t-29.5 71.5q0 43 29 73t71 30q43 0 73 -30t30 -73zM1124 553v-111h-1022v111h1022zM715 131q0 -41 -31 -71.5t-72 -30.5t-70.5 30.5t-29.5 71.5q0 43 28.5 72.5t71.5 29.5t73 -29.5t30 -72.5z" />
    <glyph glyph-name="oslash" unicode="&#xf8;" horiz-adv-x="1028" 
d="M829 926l21 -13l-76 -116q168 -134 168 -361q0 -188 -127 -321t-303 -133q-127 0 -227 69l-70 -104l-22 14l69 107q-83 64 -129.5 160.5t-46.5 207.5q0 191 125 322q127 133 301 133q136 0 242 -80zM258 436q0 -221 43 -311l416 631q-16 39 -49 65q-51 45 -156 45
q-103 0 -154 -45q-100 -87 -100 -385zM768 436q0 189 -39 293l-414 -629q18 -30 43 -49q56 -47 154 -47q100 0 156 47q55 45 77.5 130t22.5 255z" />
    <glyph glyph-name="ugrave" unicode="&#xf9;" horiz-adv-x="1052" 
d="M1024 25v-25h-297v141q-25 -78 -89 -118.5t-146 -40.5q-160 0 -248 84t-88 243v539h-127v24h297v-657q0 -94 50.5 -151.5t115.5 -57.5q176 0 235 189v653h-127v24h297v-847h127zM397 1321l244 -260l-6 -6l-350 211q-52 27 -52 59q0 26 21 47t47 21q20 0 36.5 -12.5
t59.5 -59.5z" />
    <glyph glyph-name="uacute" unicode="&#xfa;" horiz-adv-x="1052" 
d="M1024 25v-25h-297v141q-25 -78 -89 -118.5t-146 -40.5q-160 0 -248 84t-88 243v539h-127v24h297v-657q0 -94 50.5 -151.5t115.5 -57.5q176 0 235 189v653h-127v24h297v-847h127zM430 1055l-6 6l244 260q51 55 63 62q11 6 33 10q26 0 46.5 -21t20.5 -47q0 -33 -51 -59z
" />
    <glyph glyph-name="ucircumflex" unicode="&#xfb;" horiz-adv-x="1052" 
d="M1024 25v-25h-297v141q-25 -78 -89 -118.5t-146 -40.5q-160 0 -248 84t-88 243v539h-127v24h297v-657q0 -94 50.5 -151.5t115.5 -57.5q176 0 235 189v653h-127v24h297v-847h127zM526 1210l-260 -174l-8 11q215 253 266 352h4q53 -106 267 -352l-9 -11z" />
    <glyph glyph-name="udieresis" unicode="&#xfc;" horiz-adv-x="1052" 
d="M1024 25v-25h-297v141q-25 -78 -89 -118.5t-146 -40.5q-160 0 -248 84t-88 243v539h-127v24h297v-657q0 -94 50.5 -151.5t115.5 -57.5q176 0 235 189v653h-127v24h297v-847h127zM793 1204q0 -38 -27.5 -66t-65.5 -28q-37 0 -63.5 28t-26.5 66q0 41 26.5 68.5t63.5 27.5
q39 0 66 -27.5t27 -68.5zM440 1204q0 -38 -26.5 -66t-63.5 -28q-38 0 -65 28t-27 66q0 41 26.5 68.5t65.5 27.5q37 0 63.5 -27.5t26.5 -68.5z" />
    <glyph glyph-name="yacute" unicode="&#xfd;" horiz-adv-x="876" 
d="M131 -651q-62 0 -103.5 37t-41.5 94q0 49 27.5 81.5t68.5 32.5q38 0 61 -21t23 -52q0 -17 -20.5 -53.5t-20.5 -49.5q0 -32 51 -32q65 0 111 125l174 466l-400 871h-114v24h418v-24h-121l299 -651l207 565q11 29 14 47t-2.5 26t-12.5 10.5t-18 2.5h-80v24h285v-24h-76
q-36 0 -52 -15.5t-36 -70.5l-461 -1247q-32 -90 -74 -128t-106 -38zM424 1055l-6 6l244 260q51 55 63 62q11 6 33 10q28 0 47.5 -20.5t19.5 -47.5q0 -33 -51 -59z" />
    <glyph glyph-name="thorn" unicode="&#xfe;" horiz-adv-x="1046" 
d="M47 1481v24h291h6v-702q73 88 191 88q174 0 299 -143q129 -144 129 -318t-121 -313q-120 -135 -293 -135q-121 0 -205 90v-680h125v-25h-422v25h127v2089h-127zM788 430q0 239 -59 337.5t-194 98.5q-61 0 -114 -27t-77 -73v-635q22 -58 80.5 -92.5t124.5 -34.5
q125 0 182 98.5t57 327.5z" />
    <glyph glyph-name="ydieresis" unicode="&#xff;" horiz-adv-x="876" 
d="M131 -651q-62 0 -103.5 37t-41.5 94q0 49 27.5 81.5t68.5 32.5q38 0 61 -21t23 -52q0 -17 -20.5 -53.5t-20.5 -49.5q0 -32 51 -32q65 0 111 125l174 466l-400 871h-114v24h418v-24h-121l299 -651l207 565q11 29 14 47t-2.5 26t-12.5 10.5t-18 2.5h-80v24h285v-24h-76
q-36 0 -52 -15.5t-36 -70.5l-461 -1247q-32 -90 -74 -128t-106 -38zM745 1204q0 -38 -27 -66t-65 -28q-37 0 -63.5 28t-26.5 66q0 41 26.5 68.5t63.5 27.5q39 0 65.5 -27.5t26.5 -68.5zM393 1204q0 -38 -26.5 -66t-63.5 -28q-38 0 -65 28t-27 66q0 41 26.5 68.5t65.5 27.5
q37 0 63.5 -27.5t26.5 -68.5z" />
    <glyph glyph-name="Amacron" unicode="&#x100;" horiz-adv-x="1267" 
d="M328 0h-361v25h121q43 0 70 79l450 1289h25l504 -1368h176v-25h-586v25h182l-151 434h-453l-127 -355q-12 -31 -15 -50t0 -24t9 -5h156v-25zM532 1108l-221 -627h439zM899 1604h-573v84h573v-84z" />
    <glyph glyph-name="amacron" unicode="&#x101;" horiz-adv-x="899" 
d="M868 74l17 -13q-11 -32 -49.5 -54.5t-90.5 -22.5q-62 0 -103.5 39t-53.5 104q-20 -63 -85 -103t-149 -40q-124 0 -199 53t-75 160q0 74 27 127.5t75 78.5q81 45 162 54q13 0 23 2q213 18 213 59v156q0 194 -156 194q-90 0 -90 -77q0 -13 7 -40t7 -38q0 -31 -22.5 -50.5
t-63.5 -19.5t-62.5 24.5t-21.5 63.5q0 63 69 111.5t177 48.5q328 0 328 -371v-424q0 -69 49 -69q23 0 42 14t25 33zM580 197v278q-13 -13 -50.5 -21t-87 -13t-59.5 -7q-68 -11 -102.5 -63.5t-34.5 -173.5q0 -183 143 -183q77 0 133 56q58 58 58 127zM735 1151h-573v84h573
v-84z" />
    <glyph glyph-name="Abreve" unicode="&#x102;" horiz-adv-x="1267" 
d="M328 0h-361v25h121q43 0 70 79l450 1289h25l504 -1368h176v-25h-586v25h182l-151 434h-453l-127 -355q-12 -31 -15 -50t0 -24t9 -5h156v-25zM532 1108l-221 -627h439zM352 1819h29q13 -87 73 -145t169 -58t168.5 58t72.5 145h29q-12 -318 -270 -318q-259 0 -271 318z" />
    <glyph glyph-name="abreve" unicode="&#x103;" horiz-adv-x="899" 
d="M868 74l17 -13q-11 -32 -49.5 -54.5t-90.5 -22.5q-62 0 -103.5 39t-53.5 104q-20 -63 -85 -103t-149 -40q-124 0 -199 53t-75 160q0 74 27 127.5t75 78.5q81 45 162 54q13 0 23 2q213 18 213 59v156q0 194 -156 194q-90 0 -90 -77q0 -13 7 -40t7 -38q0 -31 -22.5 -50.5
t-63.5 -19.5t-62.5 24.5t-21.5 63.5q0 63 69 111.5t177 48.5q328 0 328 -371v-424q0 -69 49 -69q23 0 42 14t25 33zM580 197v278q-13 -13 -50.5 -21t-87 -13t-59.5 -7q-68 -11 -102.5 -63.5t-34.5 -173.5q0 -183 143 -183q77 0 133 56q58 58 58 127zM178 1366h29
q13 -87 73 -145t169 -58t168.5 58t72.5 145h29q-12 -317 -270 -317q-259 0 -271 317z" />
    <glyph glyph-name="Aogonek" unicode="&#x104;" horiz-adv-x="1267" 
d="M328 0h-361v25h121q43 0 70 79l450 1289h25l504 -1368h176v-25h-586v25h182l-151 434h-453l-127 -355q-12 -31 -15 -50t0 -24t9 -5h156v-25zM532 1108l-221 -627h439zM1153 -319l10 -17q-92 -74 -192 -74q-79 0 -132 36t-53 100q0 76 71 140t218 134h33
q-78 -55 -125 -109q-27 -33 -38.5 -57t-13 -37t-1.5 -45q0 -49 28 -81.5t84 -32.5q53 0 111 43z" />
    <glyph glyph-name="aogonek" unicode="&#x105;" horiz-adv-x="899" 
d="M868 74l17 -13q-11 -32 -49.5 -54.5t-90.5 -22.5q-62 0 -103.5 39t-53.5 104q-20 -63 -85 -103t-149 -40q-124 0 -199 53t-75 160q0 74 27 127.5t75 78.5q81 45 162 54q13 0 23 2q213 18 213 59v156q0 194 -156 194q-90 0 -90 -77q0 -13 7 -40t7 -38q0 -31 -22.5 -50.5
t-63.5 -19.5t-62.5 24.5t-21.5 63.5q0 63 69 111.5t177 48.5q328 0 328 -371v-424q0 -69 49 -69q23 0 42 14t25 33zM580 197v278q-13 -13 -50.5 -21t-87 -13t-59.5 -7q-68 -11 -102.5 -63.5t-34.5 -173.5q0 -183 143 -183q77 0 133 56q58 58 58 127zM868 -319l11 -17
q-92 -74 -193 -74q-79 0 -131.5 36t-52.5 100q0 76 71 140t218 134h32q-78 -55 -125 -109q-27 -33 -38.5 -57t-13 -37t-1.5 -45q0 -48 28.5 -81t84.5 -33q52 0 110 43z" />
    <glyph glyph-name="Cacute" unicode="&#x106;" horiz-adv-x="1239" 
d="M1147 424v-453h-21q-5 22 -28.5 40t-57.5 18q-35 0 -153 -31q-115 -31 -166 -31q-262 0 -440 211q-179 212 -179 504q0 294 174 504q177 213 437 213q47 0 141 -27q99 -24 141 -24q37 0 64.5 13.5t32.5 31.5h20v-404h-20q0 143 -121 264q-120 123 -258 123
q-154 0 -236 -73q-151 -139 -151 -621t151 -621q82 -73 244 -73q172 0 289 123q116 125 116 313h21zM604 1507l-6 6l244 261q45 48 57 57.5t39 13.5q29 0 48.5 -19t19.5 -48q0 -33 -52 -60z" />
    <glyph glyph-name="cacute" unicode="&#x107;" horiz-adv-x="894" 
d="M514 -18q-176 0 -303 133q-125 131 -125 321q0 191 125 322q127 133 303 133q125 0 203 -62.5t78 -146.5q0 -88 -86 -88q-38 0 -61 20.5t-23 53.5q0 14 10 47t10 55q0 55 -28.5 76.5t-102.5 21.5q-101 0 -154 -47q-55 -45 -77.5 -130t-22.5 -255t22.5 -255t77.5 -130
q53 -47 154 -47q201 0 320 180l18 -10q-125 -192 -338 -192zM391 1055l-6 6l244 260q51 55 63 62q11 6 33 10q29 0 48.5 -20.5t19.5 -47.5q0 -32 -52 -59z" />
    <glyph glyph-name="Ccircumflex" unicode="&#x108;" horiz-adv-x="1239" 
d="M1147 424v-453h-21q-5 22 -28.5 40t-57.5 18q-35 0 -153 -31q-115 -31 -166 -31q-262 0 -440 211q-179 212 -179 504q0 294 174 504q177 213 437 213q47 0 141 -27q99 -24 141 -24q37 0 64.5 13.5t32.5 31.5h20v-404h-20q0 143 -121 264q-120 123 -258 123
q-154 0 -236 -73q-151 -139 -151 -621t151 -621q82 -73 244 -73q172 0 289 123q116 125 116 313h21zM700 1663l-260 -174l-8 10q215 253 266 352h4q53 -106 267 -352l-8 -10z" />
    <glyph glyph-name="ccircumflex" unicode="&#x109;" horiz-adv-x="894" 
d="M514 -18q-176 0 -303 133q-125 131 -125 321q0 191 125 322q127 133 303 133q125 0 203 -62.5t78 -146.5q0 -88 -86 -88q-38 0 -61 20.5t-23 53.5q0 14 10 47t10 55q0 55 -28.5 76.5t-102.5 21.5q-101 0 -154 -47q-55 -45 -77.5 -130t-22.5 -255t22.5 -255t77.5 -130
q53 -47 154 -47q201 0 320 180l18 -10q-125 -192 -338 -192zM487 1210l-260 -174l-8 11q215 253 266 352h4q53 -106 267 -352l-8 -11z" />
    <glyph glyph-name="Cdotaccent" unicode="&#x10a;" horiz-adv-x="1239" 
d="M1147 424v-453h-21q-5 22 -28.5 40t-57.5 18q-35 0 -153 -31q-115 -31 -166 -31q-262 0 -440 211q-179 212 -179 504q0 294 174 504q177 213 437 213q47 0 141 -27q99 -24 141 -24q37 0 64.5 13.5t32.5 31.5h20v-404h-20q0 143 -121 264q-120 123 -258 123
q-154 0 -236 -73q-151 -139 -151 -621t151 -621q82 -73 244 -73q172 0 289 123q116 125 116 313h21zM705 1536q-41 0 -71 31t-30 75t30 75.5t71 31.5q43 0 72.5 -31.5t29.5 -75.5t-29.5 -75t-72.5 -31z" />
    <glyph glyph-name="cdotaccent" unicode="&#x10b;" horiz-adv-x="894" 
d="M514 -18q-176 0 -303 133q-125 131 -125 321q0 191 125 322q127 133 303 133q125 0 203 -62.5t78 -146.5q0 -88 -86 -88q-38 0 -61 20.5t-23 53.5q0 14 10 47t10 55q0 55 -28.5 76.5t-102.5 21.5q-101 0 -154 -47q-55 -45 -77.5 -130t-22.5 -255t22.5 -255t77.5 -130
q53 -47 154 -47q201 0 320 180l18 -10q-125 -192 -338 -192zM580 1204q0 -38 -28 -66t-65 -28t-64.5 28t-27.5 66q0 41 27.5 68.5t64.5 27.5t65 -28t28 -68z" />
    <glyph glyph-name="Ccaron" unicode="&#x10c;" horiz-adv-x="1239" 
d="M1147 424v-453h-21q-5 22 -28.5 40t-57.5 18q-35 0 -153 -31q-115 -31 -166 -31q-262 0 -440 211q-179 212 -179 504q0 294 174 504q177 213 437 213q47 0 141 -27q99 -24 141 -24q37 0 64.5 13.5t32.5 31.5h20v-404h-20q0 143 -121 264q-120 123 -258 123
q-154 0 -236 -73q-151 -139 -151 -621t151 -621q82 -73 244 -73q172 0 289 123q116 125 116 313h21zM432 1841l8 10l260 -174l261 174l8 -10q-214 -246 -267 -352h-4q-51 99 -266 352z" />
    <glyph glyph-name="ccaron" unicode="&#x10d;" horiz-adv-x="894" 
d="M514 -18q-176 0 -303 133q-125 131 -125 321q0 191 125 322q127 133 303 133q125 0 203 -62.5t78 -146.5q0 -88 -86 -88q-38 0 -61 20.5t-23 53.5q0 14 10 47t10 55q0 55 -28.5 76.5t-102.5 21.5q-101 0 -154 -47q-55 -45 -77.5 -130t-22.5 -255t22.5 -255t77.5 -130
q53 -47 154 -47q201 0 320 180l18 -10q-125 -192 -338 -192zM219 1389l8 10l260 -174l261 174l8 -10q-213 -244 -267 -353h-4q-52 101 -266 353z" />
    <glyph glyph-name="Dcaron" unicode="&#x10e;" horiz-adv-x="1394" 
d="M1292 682q0 -282 -178 -481q-180 -201 -432 -201h-600v25h176v1316h-176v25h600q252 0 432 -201q178 -199 178 -483zM1069 682q0 457 -154 590q-81 69 -233 69h-213v-1316h213q157 0 233 67q83 71 117 199q37 127 37 391zM428 1841l8 10l260 -174l260 174l9 -10
q-214 -246 -267 -352h-4q-51 99 -266 352z" />
    <glyph glyph-name="dcaron" unicode="&#x10f;" horiz-adv-x="1189" 
d="M1001 25v-25h-296v96q-13 -45 -69.5 -79.5t-133.5 -34.5q-176 0 -295 137q-121 139 -121 313t127 316q128 143 303 143q113 0 189 -82v672h-125v24h294v-1480h127zM705 174v592q-24 46 -77 73t-112 27q-102 0 -156 -45q-100 -81 -100 -389q0 -302 100 -383
q51 -45 142 -45q94 0 148.5 49.5t54.5 120.5zM1190 1389q0 -80 -62 -183q-62 -102 -141 -129l-6 21q53 20 85 59t32 78q0 57 -58 100q-39 23 -39 80q0 41 27.5 69.5t65.5 28.5q44 0 70 -33.5t26 -90.5z" />
    <glyph glyph-name="Dcroat" unicode="&#x110;" horiz-adv-x="1394" 
d="M98 682v27h160v632h-176v25h600q252 0 432 -201q178 -199 178 -483q0 -282 -178 -481q-180 -201 -432 -201h-600v25h176v657h-160zM1069 682q0 457 -154 590q-81 69 -233 69h-213v-632h186v-27h-186v-657h213q157 0 233 67q83 71 117 199q37 127 37 391z" />
    <glyph glyph-name="dslash" unicode="&#x111;" horiz-adv-x="1030" 
d="M401 1174v24h304v283h-125v24h294v-307h123v-24h-123v-1149h127v-25h-296v96q-13 -45 -69.5 -79.5t-133.5 -34.5q-176 0 -295 137q-121 139 -121 313t127 316q128 143 303 143q113 0 189 -82v365h-304zM705 174v592q-24 46 -77 73t-112 27q-102 0 -156 -45
q-100 -81 -100 -389q0 -302 100 -383q51 -45 142 -45q94 0 148.5 49.5t54.5 120.5z" />
    <glyph glyph-name="Emacron" unicode="&#x112;" horiz-adv-x="1198" 
d="M1145 399v-399h-1063v25h176v1316h-176v25h965v-360h-21q0 154 -82 244.5t-242 90.5h-233v-626h80q111 0 173 58t62 159h21v-461h-21q0 101 -62 160t-173 59h-80v-665h238q209 0 313 101t104 273h21zM885 1604h-574v84h574v-84z" />
    <glyph glyph-name="emacron" unicode="&#x113;" horiz-adv-x="935" 
d="M502 -18q-178 0 -297 131t-119 321q0 193 119 324q121 133 297 133q88 0 161.5 -40.5t116.5 -105.5q84 -128 84 -253v-7h-598q-2 -10 -2 -51q0 -171 19 -258q21 -83 69 -125q56 -47 150 -47q205 0 325 184l17 -12q-126 -194 -342 -194zM266 508h426q-3 246 -69 315
q-45 45 -121 45q-99 0 -150 -45q-80 -71 -86 -315zM774 1151h-573v84h573v-84z" />
    <glyph glyph-name="Ebreve" unicode="&#x114;" horiz-adv-x="1198" 
d="M1145 399v-399h-1063v25h176v1316h-176v25h965v-360h-21q0 154 -82 244.5t-242 90.5h-233v-626h80q111 0 173 58t62 159h21v-461h-21q0 101 -62 160t-173 59h-80v-665h238q209 0 313 101t104 273h21zM328 1819h28q13 -87 73 -145t169 -58t169 58t73 145h28
q-12 -318 -270 -318t-270 318z" />
    <glyph glyph-name="ebreve" unicode="&#x115;" horiz-adv-x="935" 
d="M502 -18q-178 0 -297 131t-119 321q0 193 119 324q121 133 297 133q88 0 161.5 -40.5t116.5 -105.5q84 -128 84 -253v-7h-598q-2 -10 -2 -51q0 -171 19 -258q21 -83 69 -125q56 -47 150 -47q205 0 325 184l17 -12q-126 -194 -342 -194zM266 508h426q-3 246 -69 315
q-45 45 -121 45q-99 0 -150 -45q-80 -71 -86 -315zM217 1366h29q13 -87 72.5 -145t168.5 -58t169 58t73 145h29q-12 -317 -271 -317q-258 0 -270 317z" />
    <glyph glyph-name="Edotaccent" unicode="&#x116;" horiz-adv-x="1198" 
d="M1145 399v-399h-1063v25h176v1316h-176v25h965v-360h-21q0 154 -82 244.5t-242 90.5h-233v-626h80q111 0 173 58t62 159h21v-461h-21q0 101 -62 160t-173 59h-80v-665h238q209 0 313 101t104 273h21zM602 1536q-41 0 -70.5 31t-29.5 75t29.5 75.5t70.5 31.5
q43 0 73 -31.5t30 -75.5t-30 -75t-73 -31z" />
    <glyph glyph-name="edotaccent" unicode="&#x117;" horiz-adv-x="935" 
d="M502 -18q-178 0 -297 131t-119 321q0 193 119 324q121 133 297 133q88 0 161.5 -40.5t116.5 -105.5q84 -128 84 -253v-7h-598q-2 -10 -2 -51q0 -171 19 -258q21 -83 69 -125q56 -47 150 -47q205 0 325 184l17 -12q-126 -194 -342 -194zM266 508h426q-3 246 -69 315
q-45 45 -121 45q-99 0 -150 -45q-80 -71 -86 -315zM580 1204q0 -38 -28 -66t-65 -28t-64.5 28t-27.5 66q0 41 27.5 68.5t64.5 27.5t65 -28t28 -68z" />
    <glyph glyph-name="Eogonek" unicode="&#x118;" horiz-adv-x="1198" 
d="M1145 399v-399h-1063v25h176v1316h-176v25h965v-360h-21q0 154 -82 244.5t-242 90.5h-233v-626h80q111 0 173 58t62 159h21v-461h-21q0 101 -62 160t-173 59h-80v-665h238q209 0 313 101t104 273h21zM1135 -319l10 -17q-92 -74 -193 -74q-79 0 -131.5 36t-52.5 100
q0 76 71 140t218 134h33q-78 -55 -125 -109q-38 -47 -46 -71t-8 -68q0 -48 28.5 -81t84.5 -33q53 0 111 43z" />
    <glyph glyph-name="eogonek" unicode="&#x119;" horiz-adv-x="935" 
d="M502 -18q-178 0 -297 131t-119 321q0 193 119 324q121 133 297 133q88 0 161.5 -40.5t116.5 -105.5q84 -128 84 -253v-7h-598q-2 -10 -2 -51q0 -171 19 -258q21 -83 69 -125q56 -47 150 -47q205 0 325 184l17 -12q-126 -194 -342 -194zM266 508h426q-3 246 -69 315
q-45 45 -121 45q-99 0 -150 -45q-80 -71 -86 -315zM664 -319l10 -17q-92 -74 -193 -74q-79 0 -131.5 36t-52.5 100q0 76 71 140t218 134h32q-75 -53 -124 -109q-38 -47 -46 -71t-8 -68q0 -48 28.5 -81t84.5 -33q53 0 111 43z" />
    <glyph glyph-name="Ecaron" unicode="&#x11a;" horiz-adv-x="1198" 
d="M1145 399v-399h-1063v25h176v1316h-176v25h965v-360h-21q0 154 -82 244.5t-242 90.5h-233v-626h80q111 0 173 58t62 159h21v-461h-21q0 101 -62 160t-173 59h-80v-665h238q209 0 313 101t104 273h21zM330 1841l8 10l260 -174l260 174l8 -10q-212 -243 -266 -352h-4
q-51 99 -266 352z" />
    <glyph glyph-name="ecaron" unicode="&#x11b;" horiz-adv-x="935" 
d="M502 -18q-178 0 -297 131t-119 321q0 193 119 324q121 133 297 133q88 0 161.5 -40.5t116.5 -105.5q84 -128 84 -253v-7h-598q-2 -10 -2 -51q0 -171 19 -258q21 -83 69 -125q56 -47 150 -47q205 0 325 184l17 -12q-126 -194 -342 -194zM266 508h426q-3 246 -69 315
q-45 45 -121 45q-99 0 -150 -45q-80 -71 -86 -315zM219 1389l8 10l260 -174l261 174l8 -10q-213 -244 -267 -353h-4q-52 101 -266 353z" />
    <glyph glyph-name="Gcircumflex" unicode="&#x11c;" horiz-adv-x="1286" 
d="M1331 541v-25h-176v-522h-27q-2 32 -23 57t-54 25q-22 0 -75 -27t-130.5 -54.5t-159.5 -27.5q-261 0 -424 211q-160 213 -160 504q0 294 174 504q177 213 437 213q53 0 129 -27q80 -24 114 -24q36 0 63 13.5t32 31.5h18v-396h-18q0 151 -99 265t-239 114q-152 0 -234 -73
q-151 -139 -151 -621q0 -282 24 -420q24 -135 99 -201q82 -73 235 -73q123 0 190.5 50t67.5 136v342h-176v25h563zM705 1663l-261 -174l-8 10q215 253 266 352h5q55 -109 266 -352l-8 -10z" />
    <glyph glyph-name="gcircumflex" unicode="&#x11d;" horiz-adv-x="999" 
d="M1036 793q0 -35 -18 -57.5t-45 -22.5q-28 0 -46 14.5t-18 34.5q0 13 8.5 29t8.5 22q0 33 -35 33q-23 0 -36.5 -3t-35.5 -25t-43 -66q62 -80 62 -191q0 -137 -99 -231q-102 -97 -239 -97q-73 0 -141 29.5t-107 77.5q-64 -46 -64 -133q0 -84 40 -119t134 -35h238
q212 0 311 -73.5t99 -237.5q0 -174 -158 -283q-153 -106 -338 -106q-205 0 -336 82t-131 200q0 85 62 168q63 85 149 105q-176 47 -176 198q0 83 37.5 141t118.5 111q-74 89 -74 203q0 140 98 234q101 96 238 96q168 0 262 -123q64 123 174 123q43 0 71.5 -27.5t28.5 -70.5z
M678 563q0 215 -66 275q-36 28 -112 28q-73 0 -109 -28q-67 -58 -67 -275q0 -127 14 -182q18 -61 55.5 -92t106.5 -31q76 0 112 33q37 31 51.5 90.5t14.5 181.5zM911 -346q0 112 -57.5 178t-167.5 66h-342q-49 0 -55 2q-107 -61 -107 -240q0 -152 81 -217.5t251 -65.5
q160 0 279 76q118 72 118 201zM500 1210l-260 -174l-9 11q218 256 267 352h4q54 -109 266 -352l-8 -11z" />
    <glyph glyph-name="Gbreve" unicode="&#x11e;" horiz-adv-x="1286" 
d="M1331 541v-25h-176v-522h-27q-2 32 -23 57t-54 25q-22 0 -75 -27t-130.5 -54.5t-159.5 -27.5q-261 0 -424 211q-160 213 -160 504q0 294 174 504q177 213 437 213q53 0 129 -27q80 -24 114 -24q36 0 63 13.5t32 31.5h18v-396h-18q0 151 -99 265t-239 114q-152 0 -234 -73
q-151 -139 -151 -621q0 -282 24 -420q24 -135 99 -201q82 -73 235 -73q123 0 190.5 50t67.5 136v342h-176v25h563zM434 1819h29q13 -87 73 -145t169 -58t168.5 58t72.5 145h29q-12 -318 -270 -318q-259 0 -271 318z" />
    <glyph glyph-name="gbreve" unicode="&#x11f;" horiz-adv-x="999" 
d="M1036 793q0 -35 -18 -57.5t-45 -22.5q-28 0 -46 14.5t-18 34.5q0 13 8.5 29t8.5 22q0 33 -35 33q-23 0 -36.5 -3t-35.5 -25t-43 -66q62 -80 62 -191q0 -137 -99 -231q-102 -97 -239 -97q-73 0 -141 29.5t-107 77.5q-64 -46 -64 -133q0 -84 40 -119t134 -35h238
q212 0 311 -73.5t99 -237.5q0 -174 -158 -283q-153 -106 -338 -106q-205 0 -336 82t-131 200q0 85 62 168q63 85 149 105q-176 47 -176 198q0 83 37.5 141t118.5 111q-74 89 -74 203q0 140 98 234q101 96 238 96q168 0 262 -123q64 123 174 123q43 0 71.5 -27.5t28.5 -70.5z
M678 563q0 215 -66 275q-36 28 -112 28q-73 0 -109 -28q-67 -58 -67 -275q0 -127 14 -182q18 -61 55.5 -92t106.5 -31q76 0 112 33q37 31 51.5 90.5t14.5 181.5zM911 -346q0 112 -57.5 178t-167.5 66h-342q-49 0 -55 2q-107 -61 -107 -240q0 -152 81 -217.5t251 -65.5
q160 0 279 76q118 72 118 201zM229 1366h29q13 -87 73 -145t169 -58t168.5 58t72.5 145h29q-12 -317 -270 -317q-259 0 -271 317z" />
    <glyph glyph-name="Gdotaccent" unicode="&#x120;" horiz-adv-x="1286" 
d="M1331 541v-25h-176v-522h-27q-2 32 -23 57t-54 25q-22 0 -75 -27t-130.5 -54.5t-159.5 -27.5q-261 0 -424 211q-160 213 -160 504q0 294 174 504q177 213 437 213q53 0 129 -27q80 -24 114 -24q36 0 63 13.5t32 31.5h18v-396h-18q0 151 -99 265t-239 114q-152 0 -234 -73
q-151 -139 -151 -621q0 -282 24 -420q24 -135 99 -201q82 -73 235 -73q123 0 190.5 50t67.5 136v342h-176v25h563zM709 1536q-41 0 -71 31t-30 75t30 75.5t71 31.5q43 0 72.5 -31.5t29.5 -75.5t-29.5 -75t-72.5 -31z" />
    <glyph glyph-name="gdotaccent" unicode="&#x121;" horiz-adv-x="999" 
d="M1036 793q0 -35 -18 -57.5t-45 -22.5q-28 0 -46 14.5t-18 34.5q0 13 8.5 29t8.5 22q0 33 -35 33q-23 0 -36.5 -3t-35.5 -25t-43 -66q62 -80 62 -191q0 -137 -99 -231q-102 -97 -239 -97q-73 0 -141 29.5t-107 77.5q-64 -46 -64 -133q0 -84 40 -119t134 -35h238
q212 0 311 -73.5t99 -237.5q0 -174 -158 -283q-153 -106 -338 -106q-205 0 -336 82t-131 200q0 85 62 168q63 85 149 105q-176 47 -176 198q0 83 37.5 141t118.5 111q-74 89 -74 203q0 140 98 234q101 96 238 96q168 0 262 -123q64 123 174 123q43 0 71.5 -27.5t28.5 -70.5z
M678 563q0 215 -66 275q-36 28 -112 28q-73 0 -109 -28q-67 -58 -67 -275q0 -127 14 -182q18 -61 55.5 -92t106.5 -31q76 0 112 33q37 31 51.5 90.5t14.5 181.5zM911 -346q0 112 -57.5 178t-167.5 66h-342q-49 0 -55 2q-107 -61 -107 -240q0 -152 81 -217.5t251 -65.5
q160 0 279 76q118 72 118 201zM592 1204q0 -38 -27.5 -66t-64.5 -28t-64.5 28t-27.5 66q0 41 27.5 68.5t64.5 27.5t64.5 -27.5t27.5 -68.5z" />
    <glyph glyph-name="Gcommaaccent" unicode="&#x122;" horiz-adv-x="1286" 
d="M1331 541v-25h-176v-522h-27q-2 32 -23 57t-54 25q-22 0 -75 -27t-130.5 -54.5t-159.5 -27.5q-261 0 -424 211q-160 213 -160 504q0 294 174 504q177 213 437 213q53 0 129 -27q80 -24 114 -24q36 0 63 13.5t32 31.5h18v-396h-18q0 151 -99 265t-239 114q-152 0 -234 -73
q-151 -139 -151 -621q0 -282 24 -420q24 -135 99 -201q82 -73 235 -73q123 0 190.5 50t67.5 136v342h-176v25h563zM788 -227q0 -82 -61 -183q-61 -102 -141 -129l-6 21q53 20 84.5 58.5t31.5 78.5q0 58 -57 100q-39 23 -39 80q0 41 27 70t65 29q44 0 70 -34t26 -91z" />
    <glyph glyph-name="gcommaaccent" unicode="&#x123;" horiz-adv-x="999" 
d="M1036 793q0 -35 -18 -57.5t-45 -22.5q-28 0 -46 14.5t-18 34.5q0 13 8.5 29t8.5 22q0 33 -35 33q-23 0 -36.5 -3t-35.5 -25t-43 -66q62 -80 62 -191q0 -137 -99 -231q-102 -97 -239 -97q-73 0 -141 29.5t-107 77.5q-64 -46 -64 -133q0 -84 40 -119t134 -35h238
q212 0 311 -73.5t99 -237.5q0 -174 -158 -283q-153 -106 -338 -106q-205 0 -336 82t-131 200q0 85 62 168q63 85 149 105q-176 47 -176 198q0 83 37.5 141t118.5 111q-74 89 -74 203q0 140 98 234q101 96 238 96q168 0 262 -123q64 123 174 123q43 0 71.5 -27.5t28.5 -70.5z
M678 563q0 215 -66 275q-36 28 -112 28q-73 0 -109 -28q-67 -58 -67 -275q0 -127 14 -182q18 -61 55.5 -92t106.5 -31q76 0 112 33q37 31 51.5 90.5t14.5 181.5zM911 -346q0 112 -57.5 178t-167.5 66h-342q-49 0 -55 2q-107 -61 -107 -240q0 -152 81 -217.5t251 -65.5
q160 0 279 76q118 72 118 201zM397 1163q0 80 62 183q61 102 141 129l8 -19q-46 -19 -82.5 -58t-36.5 -81q0 -57 58 -100q39 -23 39 -80q0 -41 -27 -70t-65 -29q-44 0 -70.5 34t-26.5 91z" />
    <glyph glyph-name="Hcircumflex" unicode="&#x124;" horiz-adv-x="1484" 
d="M1401 25v-25h-545v25h158v675h-543v-675h160v-25h-549v25h176v1316h-176v25h549v-25h-160v-616h543v616h-158v25h545v-25h-176v-1316h176zM741 1663l-260 -174l-8 10q215 253 266 352h4q53 -106 267 -352l-9 -10z" />
    <glyph glyph-name="hcircumflex" unicode="&#x125;" horiz-adv-x="1067" 
d="M1040 25v-25h-422v25h125v632q0 95 -49.5 152t-115.5 57q-175 0 -234 -188v-653h125v-25h-422v25h127v1456h-127v24h297v-774q25 79 88.5 119.5t145.5 40.5q159 0 248 -89.5t89 -252.5v-524h125zM262 1741l-260 -174l-8 10q215 253 266 352h4q54 -109 266 -352l-8 -10z
" />
    <glyph glyph-name="Hbar" unicode="&#x126;" horiz-adv-x="1484" 
d="M109 975v24h149v342h-176v25h549v-25h-160v-342h543v342h-158v25h545v-25h-176v-342h153v-24h-153v-950h176v-25h-545v25h158v675h-543v-675h160v-25h-549v25h176v950h-149zM471 975v-250h543v250h-543z" />
    <glyph glyph-name="hbar" unicode="&#x127;" horiz-adv-x="1067" 
d="M1040 25v-25h-422v25h125v632q0 95 -49.5 152t-115.5 57q-175 0 -234 -188v-653h125v-25h-422v25h127v1095h-127v25h127v336h-127v24h297v-360h352v-25h-352v-389q25 79 88.5 119.5t145.5 40.5q159 0 248 -89.5t89 -252.5v-524h125z" />
    <glyph glyph-name="Itilde" unicode="&#x128;" horiz-adv-x="727" 
d="M645 25v-25h-563v25h176v1316h-176v25h563v-25h-176v-1316h176zM651 1774l2 10h29q-2 -18 -20 -70q-15 -40 -68 -90q-49 -49 -119 -49q-59 0 -147 49q-89 47 -129 47q-34 0 -58 -7.5t-37 -21.5t-18.5 -25.5t-9.5 -27.5l-4 -14h-29q17 88 74.5 145.5t122.5 57.5
q38 0 141 -47q95 -50 139 -50q34 0 58.5 9t39 27t20.5 28.5t13 28.5z" />
    <glyph glyph-name="itilde" unicode="&#x129;" horiz-adv-x="542" 
d="M494 25v-25h-422v25h125v823h-125v24h295v-847h127zM561 1321l2 10h29q-1 -12 -21 -69q-16 -43 -67 -91q-49 -49 -119 -49q-59 0 -147 49q-91 48 -129 48q-34 0 -58 -7.5t-37 -21.5t-18.5 -25.5t-9.5 -27.5l-4 -15h-29q17 88 74.5 145.5t122.5 57.5q38 0 141 -47
q94 -49 139 -49q34 0 58.5 9t39 26.5t20.5 28t13 28.5z" />
    <glyph glyph-name="Imacron" unicode="&#x12a;" horiz-adv-x="727" 
d="M645 25v-25h-563v25h176v1316h-176v25h563v-25h-176v-1316h176zM649 1604h-573v84h573v-84z" />
    <glyph glyph-name="imacron" unicode="&#x12b;" horiz-adv-x="542" 
d="M494 25v-25h-422v25h125v823h-125v24h295v-847h127zM559 1151h-573v84h573v-84z" />
    <glyph glyph-name="Ibreve" unicode="&#x12c;" horiz-adv-x="727" 
d="M645 25v-25h-563v25h176v1316h-176v25h563v-25h-176v-1316h176zM92 1819h29q13 -87 72.5 -145t168.5 -58t169 58t73 145h29q-12 -318 -271 -318q-258 0 -270 318z" />
    <glyph glyph-name="ibreve" unicode="&#x12d;" horiz-adv-x="542" 
d="M2 1366h29q13 -87 72.5 -145t168.5 -58t169 58t73 145h29q-12 -317 -271 -317q-258 0 -270 317zM494 25v-25h-422v25h125v823h-125v24h295v-847h127z" />
    <glyph glyph-name="Iogonek" unicode="&#x12e;" horiz-adv-x="727" 
d="M645 25v-25h-563v25h176v1316h-176v25h563v-25h-176v-1316h176zM635 -319l10 -17q-92 -74 -192 -74q-79 0 -132 36t-53 100q0 76 71 140t218 134h33q-78 -55 -125 -109q-27 -33 -38.5 -57t-13 -37t-1.5 -45q0 -49 28 -81.5t84 -32.5q53 0 111 43z" />
    <glyph glyph-name="iogonek" unicode="&#x12f;" horiz-adv-x="542" 
d="M494 25v-25h-422v25h125v823h-125v24h295v-847h127zM281 1133q-41 0 -71 31t-30 75t30 75.5t71 31.5q43 0 72.5 -31.5t29.5 -75.5t-29.5 -75t-72.5 -31zM451 -319l10 -17q-92 -74 -193 -74q-79 0 -131.5 36t-52.5 100q0 76 71 140t218 134h33q-78 -55 -125 -109
q-38 -47 -46 -71t-8 -68q0 -48 28.5 -81t84.5 -33q53 0 111 43z" />
    <glyph glyph-name="Idot" unicode="&#x130;" horiz-adv-x="727" 
d="M645 25v-25h-563v25h176v1316h-176v25h563v-25h-176v-1316h176zM367 1536q-41 0 -71 31t-30 75t30 75.5t71 31.5q43 0 72.5 -31.5t29.5 -75.5t-29.5 -75t-72.5 -31z" />
    <glyph glyph-name="dotlessi" unicode="&#x131;" horiz-adv-x="542" 
d="M494 25v-25h-422v25h125v823h-125v24h295v-847h127z" />
    <glyph glyph-name="Jcircumflex" unicode="&#x134;" horiz-adv-x="903" 
d="M868 1366v-25h-176v-1019q0 -168 -94.5 -261.5t-267.5 -93.5q-122 0 -209 72q-84 72 -84 160q0 56 34.5 93.5t80.5 37.5q43 0 74.5 -33.5t31.5 -77.5q0 -48 -35 -78q-33 -26 -33 -59q0 -38 36.5 -66t90.5 -28q65 0 114.5 44.5t49.5 114.5v1194h-174v25h561zM584 1663
l-260 -174l-9 10q218 256 267 352h4q54 -109 266 -352l-8 -10z" />
    <glyph glyph-name="jcircumflex" unicode="&#x135;" horiz-adv-x="548" 
d="M367 872v-919q0 -320 -77.5 -461t-240.5 -141q-72 0 -126 45t-54 108q0 41 27 69t65 28q42 0 65 -19t23 -51q0 -15 -13 -46t-13 -52q0 -54 69 -54q105 0 105 242v1229h-125v22h295zM274 1210l-260 -174l-8 11q215 253 266 352h4q53 -106 267 -352l-8 -11z" />
    <glyph glyph-name="Kcommaaccent" unicode="&#x136;" horiz-adv-x="1249" 
d="M643 0h-561v23h176v1318h-176v25h561v-25h-174v-653l481 574q64 79 29 79h-137v25h370v-25h-118q-29 0 -51.5 -13.5t-65.5 -65.5l-371 -443l608 -796h193v-23h-641v23h188l-485 653v-653h174v-23zM770 -227q0 -82 -61 -183q-61 -102 -142 -129l-6 21q53 20 85 59t32 78
q0 58 -57 100q-39 23 -39 80q0 41 27 70t65 29q44 0 70 -34t26 -91z" />
    <glyph glyph-name="kcommaaccent" unicode="&#x137;" horiz-adv-x="980" 
d="M471 0h-422v25h127v1456h-127v24h297v-1024l311 281q43 40 60.5 60t11.5 24q-2 2 -20 2h-103v24h305v-24h-84q-31 0 -56.5 -15t-84.5 -69l-213 -195l438 -544h152v-25h-471v25h113l-359 444v-444h125v-25zM594 -227q0 -80 -62 -183q-62 -102 -141 -129l-6 21q53 20 85 59
t32 78q0 57 -58 100q-38 23 -38 80q0 41 27 70t65 29q44 0 70 -34t26 -91z" />
    <glyph glyph-name="kgreenlandic" unicode="&#x138;" horiz-adv-x="980" 
d="M1063 25v-25h-471v25h113l-359 424v-424h125v-25h-422v25h127v823h-127v24h297v-411l311 301q79 77 74 82q-4 4 -22 4h-103v24h305v-24h-84q-24 0 -36.5 -3t-38 -21.5t-66.5 -59.5l-215 -217l440 -522h152z" />
    <glyph glyph-name="Lacute" unicode="&#x139;" horiz-adv-x="1140" 
d="M1096 416v-416h-1014v25h176v1316h-176v25h563v-25h-174v-1316h225q101 1 177 33.5t120 88t64 123t18 146.5h21zM289 1507l-6 6l243 261q44 47 57 57t40 14q29 0 48 -19t19 -48q0 -34 -51 -60z" />
    <glyph glyph-name="lacute" unicode="&#x13a;" horiz-adv-x="499" 
d="M471 25v-25h-424v25h127v1456h-127v24h297v-1480h127zM133 1587l-6 6l244 260q51 55 63 62t33 10q29 0 48.5 -20t19.5 -47q0 -33 -52 -60z" />
    <glyph glyph-name="Lcommaaccent" unicode="&#x13b;" horiz-adv-x="1140" 
d="M1096 416v-416h-1014v25h176v1316h-176v25h563v-25h-174v-1316h225q101 1 177 33.5t120 88t64 123t18 146.5h21zM715 -227q0 -80 -62 -183q-61 -102 -141 -129l-6 21q53 20 85 59t32 78q0 57 -58 100q-39 23 -39 80q0 41 27 70t65 29q44 0 70.5 -34t26.5 -91z" />
    <glyph glyph-name="lcommaaccent" unicode="&#x13c;" horiz-adv-x="499" 
d="M471 25v-25h-424v25h127v1456h-127v24h297v-1480h127zM354 -227q0 -82 -61 -183q-61 -102 -141 -129l-7 21q53 20 85 59t32 78q0 58 -57 100q-39 23 -39 80q0 41 27 70t65 29q44 0 70 -34t26 -91z" />
    <glyph glyph-name="Lcaron" unicode="&#x13d;" horiz-adv-x="1140" 
d="M1096 416v-416h-1014v25h176v1316h-176v25h563v-25h-174v-1316h225q101 1 177 33.5t120 88t64 123t18 146.5h21zM969 1389q0 -80 -62 -183q-61 -102 -141 -129l-6 21q53 20 85 59t32 78q0 57 -58 100q-39 23 -39 80q0 41 27 69.5t65 28.5q44 0 70.5 -33.5t26.5 -90.5z
" />
    <glyph glyph-name="lcaron" unicode="&#x13e;" horiz-adv-x="657" 
d="M471 25v-25h-424v25h127v1456h-127v24h297v-1480h127zM657 1389q0 -82 -61 -183q-62 -102 -141 -129l-6 21q53 20 84.5 58.5t31.5 78.5q0 58 -57 100q-39 23 -39 80q0 41 27 69.5t65 28.5q44 0 70 -33.5t26 -90.5z" />
    <glyph glyph-name="Ldot" unicode="&#x13f;" horiz-adv-x="1140" 
d="M1096 416v-416h-1014v25h176v1316h-176v25h563v-25h-174v-1316h225q101 1 177 33.5t120 88t64 123t18 146.5h21zM866 616q-41 0 -70.5 31.5t-29.5 75.5t29.5 75t70.5 31q43 0 73 -31t30 -75t-30 -75.5t-73 -31.5z" />
    <glyph glyph-name="ldot" unicode="&#x140;" horiz-adv-x="661" 
d="M471 25v-25h-424v25h127v1456h-127v24h297v-1480h127zM668 756q0 -38 -28 -66t-65 -28t-64.5 28t-27.5 66q0 41 27.5 68.5t64.5 27.5t65 -28t28 -68z" />
    <glyph glyph-name="Lslash" unicode="&#x141;" horiz-adv-x="1140" 
d="M84 483l-12 21l186 106v731h-176v25h563v-25h-174v-608l289 168l10 -20l-299 -174v-682h225q101 1 177 33.5t120 88t64 123t18 146.5h21v-416h-1014v25h176v559z" />
    <glyph glyph-name="lslash" unicode="&#x142;" horiz-adv-x="499" 
d="M43 428l-18 16l149 150v887h-127v24h297v-741l117 117l18 -17l-135 -135v-704h127v-25h-424v25h127v534z" />
    <glyph glyph-name="Nacute" unicode="&#x143;" horiz-adv-x="1390" 
d="M1161 0h-39l-850 1323v-1239q0 -59 70 -59h107v-25h-375v25h106q68 0 68 59v1257h-174v25h418l647 -1012v930q0 57 -70 57h-106v25h374v-25h-104q-72 0 -72 -57v-1284zM598 1507l-6 6l244 261q45 48 57 57.5t39 13.5q27 0 47 -19t20 -48q0 -34 -51 -60z" />
    <glyph glyph-name="nacute" unicode="&#x144;" horiz-adv-x="1073" 
d="M475 0h-422v25h127v823h-127v24h297v-141q25 75 87.5 117.5t144.5 42.5q161 0 250.5 -90.5t89.5 -251.5v-524h125v-25h-422v25h123v632q0 84 -45.5 146.5t-120.5 62.5q-173 0 -232 -188v-653h125v-25zM440 1055l-6 6l244 260q51 55 63 62q11 6 33 10q29 0 48.5 -20.5
t19.5 -47.5q0 -33 -51 -59z" />
    <glyph glyph-name="Ncommaaccent" unicode="&#x145;" horiz-adv-x="1390" 
d="M1161 0h-39l-850 1323v-1239q0 -59 70 -59h107v-25h-375v25h106q68 0 68 59v1257h-174v25h418l647 -1012v930q0 57 -70 57h-106v25h374v-25h-104q-72 0 -72 -57v-1284zM799 -227q0 -80 -62 -183q-61 -102 -141 -129l-6 21q53 20 85 59t32 78q0 57 -58 100q-39 23 -39 80
q0 41 27 70t65 29q44 0 70.5 -34t26.5 -91z" />
    <glyph glyph-name="ncommaaccent" unicode="&#x146;" horiz-adv-x="1073" 
d="M475 0h-422v25h127v823h-127v24h297v-141q25 75 87.5 117.5t144.5 42.5q161 0 250.5 -90.5t89.5 -251.5v-524h125v-25h-422v25h123v632q0 84 -45.5 146.5t-120.5 62.5q-173 0 -232 -188v-653h125v-25zM641 -227q0 -82 -61 -183q-61 -102 -142 -129l-6 21q53 20 85 59
t32 78q0 58 -57 100q-39 23 -39 80q0 41 27 70t65 29q44 0 70 -34t26 -91z" />
    <glyph glyph-name="Ncaron" unicode="&#x147;" horiz-adv-x="1390" 
d="M1161 0h-39l-850 1323v-1239q0 -59 70 -59h107v-25h-375v25h106q68 0 68 59v1257h-174v25h418l647 -1012v930q0 57 -70 57h-106v25h374v-25h-104q-72 0 -72 -57v-1284zM426 1841l8 10l260 -174l260 174l9 -10q-214 -246 -267 -352h-4q-51 99 -266 352z" />
    <glyph glyph-name="ncaron" unicode="&#x148;" horiz-adv-x="1073" 
d="M475 0h-422v25h127v823h-127v24h297v-141q25 75 87.5 117.5t144.5 42.5q161 0 250.5 -90.5t89.5 -251.5v-524h125v-25h-422v25h123v632q0 84 -45.5 146.5t-120.5 62.5q-173 0 -232 -188v-653h125v-25zM268 1389l8 10l261 -174l260 174l8 -10q-210 -242 -266 -353h-4
q-50 98 -267 353z" />
    <glyph glyph-name="napostrophe" unicode="&#x149;" horiz-adv-x="1198" 
d="M600 0h-422v25h127v823h-127v24h297v-141q25 75 87.5 117.5t144.5 42.5q161 0 250.5 -90.5t89.5 -251.5v-524h124v-25h-421v25h122v632q0 84 -45 146.5t-120 62.5q-173 0 -232 -188v-653h125v-25zM209 1255q0 -79 -62 -182q-61 -102 -141 -129l-6 21q53 20 85 59t32 78
q0 57 -58 100q-39 23 -39 80q0 41 27.5 69.5t65.5 28.5q44 0 70 -34t26 -91z" />
    <glyph glyph-name="Omacron" unicode="&#x14c;" horiz-adv-x="1425" 
d="M102 682q0 294 174 504q177 213 437 213q254 0 432 -211q178 -208 178 -506t-178 -506q-179 -209 -432 -209t-432 209t-179 506zM1100 682q0 484 -152 621q-79 73 -235 73q-157 0 -236 -73q-149 -134 -149 -621q0 -276 34 -412q37 -137 115 -209q79 -73 236 -73
q156 0 235 73q81 71 115 209q37 136 37 412zM999 1604h-573v84h573v-84z" />
    <glyph glyph-name="omacron" unicode="&#x14d;" horiz-adv-x="1028" 
d="M512 -18q-174 0 -301 133q-125 131 -125 321q0 191 125 322q127 133 301 133q176 0 303 -133t127 -322q0 -188 -127 -321t-303 -133zM768 436q0 301 -100 385q-51 45 -156 45q-103 0 -154 -45q-100 -87 -100 -385q0 -166 23.5 -252.5t76.5 -132.5q56 -47 154 -47
q100 0 156 47q55 45 77.5 130t22.5 255zM801 1151h-574v84h574v-84z" />
    <glyph glyph-name="Obreve" unicode="&#x14e;" horiz-adv-x="1425" 
d="M102 682q0 294 174 504q177 213 437 213q254 0 432 -211q178 -208 178 -506t-178 -506q-179 -209 -432 -209t-432 209t-179 506zM1100 682q0 484 -152 621q-79 73 -235 73q-157 0 -236 -73q-149 -134 -149 -621q0 -276 34 -412q37 -137 115 -209q79 -73 236 -73
q156 0 235 73q81 71 115 209q37 136 37 412zM442 1819h29q13 -87 73 -145t169 -58t168.5 58t72.5 145h29q-12 -318 -270 -318q-259 0 -271 318z" />
    <glyph glyph-name="obreve" unicode="&#x14f;" horiz-adv-x="1028" 
d="M512 -18q-174 0 -301 133q-125 131 -125 321q0 191 125 322q127 133 301 133q176 0 303 -133t127 -322q0 -188 -127 -321t-303 -133zM768 436q0 301 -100 385q-51 45 -156 45q-103 0 -154 -45q-100 -87 -100 -385q0 -166 23.5 -252.5t76.5 -132.5q56 -47 154 -47
q100 0 156 47q55 45 77.5 130t22.5 255zM244 1366h28q13 -87 73 -145t169 -58t169 58t73 145h28q-12 -317 -270 -317t-270 317z" />
    <glyph glyph-name="Ohungarumlaut" unicode="&#x150;" horiz-adv-x="1425" 
d="M102 682q0 294 174 504q177 213 437 213q254 0 432 -211q178 -208 178 -506t-178 -506q-179 -209 -432 -209t-432 209t-179 506zM1100 682q0 484 -152 621q-79 73 -235 73q-157 0 -236 -73q-149 -134 -149 -621q0 -276 34 -412q37 -137 115 -209q79 -73 236 -73
q156 0 235 73q81 71 115 209q37 136 37 412zM559 1507l-6 6l244 261q45 48 57 57.5t39 13.5q29 0 48.5 -19t19.5 -48q0 -33 -52 -60zM829 1507l-6 6l244 261q45 48 57 57.5t39 13.5q29 0 48.5 -19t19.5 -48q0 -34 -51 -60z" />
    <glyph glyph-name="ohungarumlaut" unicode="&#x151;" horiz-adv-x="1028" 
d="M512 -18q-174 0 -301 133q-125 131 -125 321q0 191 125 322q127 133 301 133q176 0 303 -133t127 -322q0 -188 -127 -321t-303 -133zM768 436q0 301 -100 385q-51 45 -156 45q-103 0 -154 -45q-100 -87 -100 -385q0 -166 23.5 -252.5t76.5 -132.5q56 -47 154 -47
q100 0 156 47q55 45 77.5 130t22.5 255zM299 1055l-6 6l244 260q51 55 63 62q11 6 33 10q26 0 46.5 -21t20.5 -47q0 -33 -51 -59zM569 1055l-6 6l244 260q51 55 63 62q11 6 33 10q26 0 47 -21t21 -47q0 -33 -51 -59z" />
    <glyph glyph-name="OE" unicode="&#x152;" horiz-adv-x="1818" 
d="M702 25h177v1316h-177q-153 0 -243 -84q-76 -70 -103 -194q-28 -131 -28 -381q0 -273 30 -393q30 -119 111 -191q79 -73 233 -73zM1765 399v-399h-1071q-255 0 -424 193q-168 192 -168 489q0 292 168 487q170 197 432 197h965v-360h-20q0 154 -82 244.5t-242 90.5h-233
v-626h79q112 0 174 58t62 159h20v-461h-20q0 101 -62.5 160t-173.5 59h-79v-665h237q209 0 313.5 101t104.5 273h20z" />
    <glyph glyph-name="oe" unicode="&#x153;" horiz-adv-x="1607" 
d="M512 891q205 0 334 -172q126 172 328 172q88 0 161.5 -40.5t116.5 -105.5q84 -128 84 -253v-7h-598q-2 -10 -2 -51q0 -176 18 -258q21 -82 70 -125q56 -47 150 -47q209 0 329 184l13 -12q-126 -194 -342 -194q-209 0 -328 168q-131 -168 -334 -168q-174 0 -301 133
q-125 131 -125 321q0 191 125 322q127 133 301 133zM768 436q0 301 -100 385q-51 45 -156 45q-103 0 -154 -45q-100 -87 -100 -385q0 -166 23.5 -252.5t76.5 -132.5q56 -47 154 -47q100 0 156 47q55 45 77.5 130t22.5 255zM938 508h426q-3 243 -70 313q-45 45 -120 45
q-99 0 -150 -45q-80 -71 -86 -313z" />
    <glyph glyph-name="Racute" unicode="&#x154;" horiz-adv-x="1298" 
d="M1380 72l15 -15q-64 -67 -172 -67q-133 0 -207 91.5t-74 280.5v105q0 233 -297 233h-176v-675h217v-25h-604v25h176v1316h-176v25h571q204 0 326 -96q123 -95 123 -240q0 -133 -117 -227q-115 -92 -278 -92q222 0 337 -99t115 -274v-152q0 -74 30.5 -117.5t84.5 -43.5
q62 0 106 47zM891 1024q0 168 -71 242.5t-214 74.5h-137v-618h176q142 0 195 59q51 60 51 242zM573 1507l-6 6l244 261q45 48 57 57.5t39 13.5q27 0 47.5 -19.5t20.5 -47.5q0 -34 -51 -60z" />
    <glyph glyph-name="racute" unicode="&#x155;" horiz-adv-x="739" 
d="M698 750q0 -46 -25.5 -74.5t-64.5 -28.5q-41 0 -65.5 19.5t-24.5 50.5q0 17 12.5 44t12.5 38q0 49 -51 49q-99 0 -148 -180v-643h148v-25h-445v25h127v823h-127v24h297v-141q53 160 205 160q71 0 110 -38.5t39 -102.5zM272 1055l-6 6l244 260q51 55 63 62q11 6 33 10
q29 0 48.5 -20.5t19.5 -47.5q0 -33 -51 -59z" />
    <glyph glyph-name="Rcommaaccent" unicode="&#x156;" horiz-adv-x="1298" 
d="M1380 72l15 -15q-64 -67 -172 -67q-133 0 -207 91.5t-74 280.5v105q0 233 -297 233h-176v-675h217v-25h-604v25h176v1316h-176v25h571q204 0 326 -96q123 -95 123 -240q0 -133 -117 -227q-115 -92 -278 -92q222 0 337 -99t115 -274v-152q0 -74 30.5 -117.5t84.5 -43.5
q62 0 106 47zM891 1024q0 168 -71 242.5t-214 74.5h-137v-618h176q142 0 195 59q51 60 51 242zM795 -227q0 -80 -62 -183q-61 -102 -141 -129l-6 21q52 20 84 58.5t32 78.5q0 58 -57 100q-39 23 -39 80q0 41 27 70t65 29q44 0 70.5 -34t26.5 -91z" />
    <glyph glyph-name="rcommaaccent" unicode="&#x157;" horiz-adv-x="739" 
d="M698 750q0 -46 -25.5 -74.5t-64.5 -28.5q-41 0 -65.5 19.5t-24.5 50.5q0 17 12.5 44t12.5 38q0 49 -51 49q-99 0 -148 -180v-643h148v-25h-445v25h127v823h-127v24h297v-141q53 160 205 160q71 0 110 -38.5t39 -102.5zM362 -227q0 -82 -61 -183q-61 -102 -141 -129l-6 21
q53 20 84.5 58.5t31.5 78.5q0 58 -57 100q-39 23 -39 80q0 41 27 70t65 29q44 0 70 -34t26 -91z" />
    <glyph glyph-name="Rcaron" unicode="&#x158;" horiz-adv-x="1298" 
d="M1380 72l15 -15q-64 -67 -172 -67q-133 0 -207 91.5t-74 280.5v105q0 233 -297 233h-176v-675h217v-25h-604v25h176v1316h-176v25h571q204 0 326 -96q123 -95 123 -240q0 -133 -117 -227q-115 -92 -278 -92q222 0 337 -99t115 -274v-152q0 -74 30.5 -117.5t84.5 -43.5
q62 0 106 47zM891 1024q0 168 -71 242.5t-214 74.5h-137v-618h176q142 0 195 59q51 60 51 242zM381 1841l8 10l260 -174l260 174l9 -10q-214 -246 -267 -352h-4q-51 99 -266 352z" />
    <glyph glyph-name="rcaron" unicode="&#x159;" horiz-adv-x="739" 
d="M698 750q0 -46 -25.5 -74.5t-64.5 -28.5q-41 0 -65.5 19.5t-24.5 50.5q0 17 12.5 44t12.5 38q0 49 -51 49q-99 0 -148 -180v-643h148v-25h-445v25h127v823h-127v24h297v-141q53 160 205 160q71 0 110 -38.5t39 -102.5zM100 1389l9 10l260 -174l260 174l8 -10
q-210 -242 -266 -353h-4q-50 98 -267 353z" />
    <glyph glyph-name="Sacute" unicode="&#x15a;" horiz-adv-x="1052" 
d="M987 393q0 -92 -47 -188t-154 -166q-110 -72 -245 -72q-81 0 -176 39q-96 41 -127 41q-37 0 -67 -23t-36 -53h-20v430h20q0 -133 117 -274q121 -139 287 -139q154 0 245 82q95 83 95 186q0 131 -88 195q-82 65 -324 155q-160 58 -238.5 148.5t-78.5 242.5q0 162 104 281
q106 121 248 121q60 0 131 -27q70 -24 102 -24q69 0 78 45h21v-324h-21q0 134 -94 219q-94 88 -215 88q-109 0 -185 -76q-75 -72 -75 -174t82 -176.5t266 -142.5q204 -73 299 -162q96 -90 96 -252zM451 1507l-7 6l244 261q45 48 57 57.5t39 13.5q27 0 47.5 -19.5t20.5 -47.5
q0 -34 -51 -60z" />
    <glyph glyph-name="sacute" unicode="&#x15b;" horiz-adv-x="765" 
d="M702 270q0 -132 -76 -210t-214 -78q-67 0 -129 26q-69 29 -93 29q-23 0 -43.5 -12.5t-27.5 -26.5h-23l10 303h23q-3 -118 80 -207q82 -88 203 -88q92 0 143 45.5t51 132.5q0 74 -50 113.5t-183 83.5q-123 40 -181.5 96.5t-58.5 147.5q0 119 70 192.5t172 73.5
q27 0 83 -13.5t85 -13.5q37 0 43 33h22v-246h-22q0 94 -66 154q-64 61 -145 61q-75 0 -117.5 -37.5t-42.5 -103.5q0 -72 51.5 -113.5t177.5 -79.5q258 -77 258 -262zM287 1055l-6 6l243 260q45 48 57.5 58t39.5 14q26 0 46.5 -21t20.5 -47q0 -33 -51 -59z" />
    <glyph glyph-name="Scircumflex" unicode="&#x15c;" horiz-adv-x="1052" 
d="M987 393q0 -92 -47 -188t-154 -166q-110 -72 -245 -72q-81 0 -176 39q-96 41 -127 41q-37 0 -67 -23t-36 -53h-20v430h20q0 -133 117 -274q121 -139 287 -139q154 0 245 82q95 83 95 186q0 131 -88 195q-82 65 -324 155q-160 58 -238.5 148.5t-78.5 242.5q0 162 104 281
q106 121 248 121q60 0 131 -27q70 -24 102 -24q69 0 78 45h21v-324h-21q0 134 -94 219q-94 88 -215 88q-109 0 -185 -76q-75 -72 -75 -174t82 -176.5t266 -142.5q204 -73 299 -162q96 -90 96 -252zM526 1663l-260 -174l-8 10q215 253 266 352h4q53 -106 267 -352l-9 -10z
" />
    <glyph glyph-name="scircumflex" unicode="&#x15d;" horiz-adv-x="765" 
d="M702 270q0 -132 -76 -210t-214 -78q-67 0 -129 26q-69 29 -93 29q-23 0 -43.5 -12.5t-27.5 -26.5h-23l10 303h23q-3 -118 80 -207q82 -88 203 -88q92 0 143 45.5t51 132.5q0 74 -50 113.5t-183 83.5q-123 40 -181.5 96.5t-58.5 147.5q0 119 70 192.5t172 73.5
q27 0 83 -13.5t85 -13.5q37 0 43 33h22v-246h-22q0 94 -66 154q-64 61 -145 61q-75 0 -117.5 -37.5t-42.5 -103.5q0 -72 51.5 -113.5t177.5 -79.5q258 -77 258 -262zM383 1210l-260 -174l-8 11q215 253 266 352h4q55 -109 266 -352l-8 -11z" />
    <glyph glyph-name="Scedilla" unicode="&#x15e;" horiz-adv-x="1052" 
d="M545 -459q-67 0 -112.5 32t-45.5 75q0 24 13 38.5t36 14.5q45 0 45 -43q0 -14 -14 -32t-14 -21q0 -18 26.5 -28.5t65.5 -10.5q62 0 100.5 25t38.5 67q0 19 -20.5 33t-50 24.5t-58.5 24.5t-49.5 40.5t-20.5 65.5q0 57 43 121q-80 3 -168 41q-88 39 -122 39q-37 0 -67 -23
t-36 -53h-20v430h20q0 -133 117 -274q121 -139 287 -139q154 0 245 82q95 83 95 186q0 131 -88 195q-82 65 -324 155q-160 58 -238.5 148.5t-78.5 242.5q0 162 104 281q106 121 248 121q60 0 131 -27q70 -24 102 -24q69 0 78 45h21v-324h-21q0 134 -94 219q-94 88 -215 88
q-109 0 -185 -76q-75 -72 -75 -174t82 -176.5t266 -142.5q204 -73 299 -162q96 -90 96 -252q0 -144 -117 -282q-114 -135 -311 -144q-20 -36 -20 -63t19 -46t46 -31.5t54 -27t46 -41.5t19 -67q0 -69 -48 -109.5t-130 -40.5z" />
    <glyph glyph-name="scedilla" unicode="&#x15f;" horiz-adv-x="765" 
d="M702 270q0 -132 -76 -210t-214 -78q-67 0 -129 26q-69 29 -93 29q-23 0 -43.5 -12.5t-27.5 -26.5h-23l10 303h23q-3 -118 80 -207q82 -88 203 -88q92 0 143 45.5t51 132.5q0 74 -50 113.5t-183 83.5q-123 40 -181.5 96.5t-58.5 147.5q0 119 70 192.5t172 73.5
q27 0 83 -13.5t85 -13.5q37 0 43 33h22v-246h-22q0 94 -66 154q-64 61 -145 61q-75 0 -117.5 -37.5t-42.5 -103.5q0 -72 51.5 -113.5t177.5 -79.5q258 -77 258 -262zM551 -309q0 -69 -48 -109.5t-130 -40.5q-67 0 -112.5 32t-45.5 75q0 24 13 38.5t36 14.5q45 0 45 -43
q0 -14 -14 -32t-14 -21q0 -18 26.5 -28.5t65.5 -10.5q62 0 100.5 25t38.5 67q0 19 -20.5 33t-50 24.5t-58.5 24.5t-49.5 40.5t-20.5 65.5q0 37 22.5 85t47.5 69l23 -8q-39 -45 -39 -88q0 -27 19 -46t46 -31.5t54 -27t46 -41.5t19 -67z" />
    <glyph glyph-name="Scaron" unicode="&#x160;" horiz-adv-x="1052" 
d="M987 393q0 -92 -47 -188t-154 -166q-110 -72 -245 -72q-81 0 -176 39q-96 41 -127 41q-37 0 -67 -23t-36 -53h-20v430h20q0 -133 117 -274q121 -139 287 -139q154 0 245 82q95 83 95 186q0 131 -88 195q-82 65 -324 155q-160 58 -238.5 148.5t-78.5 242.5q0 162 104 281
q106 121 248 121q60 0 131 -27q70 -24 102 -24q69 0 78 45h21v-324h-21q0 134 -94 219q-94 88 -215 88q-109 0 -185 -76q-75 -72 -75 -174t82 -176.5t266 -142.5q204 -73 299 -162q96 -90 96 -252zM258 1841l8 10l260 -174l260 174l9 -10q-214 -246 -267 -352h-4
q-51 99 -266 352z" />
    <glyph glyph-name="scaron" unicode="&#x161;" horiz-adv-x="765" 
d="M702 270q0 -132 -76 -210t-214 -78q-67 0 -129 26q-69 29 -93 29q-23 0 -43.5 -12.5t-27.5 -26.5h-23l10 303h23q-3 -118 80 -207q82 -88 203 -88q92 0 143 45.5t51 132.5q0 74 -50 113.5t-183 83.5q-123 40 -181.5 96.5t-58.5 147.5q0 119 70 192.5t172 73.5
q27 0 83 -13.5t85 -13.5q37 0 43 33h22v-246h-22q0 94 -66 154q-64 61 -145 61q-75 0 -117.5 -37.5t-42.5 -103.5q0 -72 51.5 -113.5t177.5 -79.5q258 -77 258 -262zM115 1389l8 10l260 -174l260 174l8 -10q-210 -242 -266 -353h-4q-52 101 -266 353z" />
    <glyph glyph-name="Tcommaaccent" unicode="&#x162;" horiz-adv-x="1185" 
d="M1139 1366v-418h-21q0 184 -95.5 288.5t-285.5 104.5h-43v-1316h176v-25h-563v25h174v1316h-41q-189 0 -280.5 -103t-91.5 -290h-21v418h1092zM696 -227q0 -82 -61 -183q-61 -102 -141 -129l-7 21q53 20 85 59t32 78q0 58 -57 100q-39 23 -39 80q0 41 27 70t65 29
q44 0 70 -34t26 -91z" />
    <glyph glyph-name="tcommaaccent" unicode="&#x163;" horiz-adv-x="602" 
d="M551 172l16 -10q-46 -180 -202 -180q-172 0 -172 200v666h-154v24h154v230q115 15 149 117h20v-347h185v-24h-185v-760q0 -59 60 -59q43 0 77.5 38t51.5 105zM406 -227q0 -80 -62 -183q-62 -102 -141 -129l-6 21q53 20 84.5 58.5t31.5 78.5q0 58 -57 100q-39 23 -39 80
q0 41 27 70t65 29q44 0 70.5 -34t26.5 -91z" />
    <glyph glyph-name="Tcaron" unicode="&#x164;" horiz-adv-x="1185" 
d="M1139 1366v-418h-21q0 184 -95.5 288.5t-285.5 104.5h-43v-1316h176v-25h-563v25h174v1316h-41q-189 0 -280.5 -103t-91.5 -290h-21v418h1092zM324 1841l8 10l260 -174l260 174l8 -10q-212 -243 -266 -352h-4q-51 99 -266 352z" />
    <glyph glyph-name="tcaron" unicode="&#x165;" horiz-adv-x="780" 
d="M551 172l16 -10q-46 -180 -202 -180q-172 0 -172 200v666h-154v24h154v230q115 15 149 117h20v-347h185v-24h-185v-760q0 -59 60 -59q43 0 77.5 38t51.5 105zM780 1389q0 -82 -61 -183q-61 -102 -141 -129l-7 21q53 20 85 59t32 78q0 58 -57 100q-39 23 -39 80
q0 41 27 69.5t65 28.5q44 0 70 -33.5t26 -90.5z" />
    <glyph glyph-name="Tbar" unicode="&#x166;" horiz-adv-x="1185" 
d="M694 748h285v-25h-285v-698h176v-25h-563v25h174v698h-284v25h284v593h-41q-189 0 -280.5 -103t-91.5 -290h-21v418h1092v-418h-21q0 184 -95.5 288.5t-285.5 104.5h-43v-593z" />
    <glyph glyph-name="tbar" unicode="&#x167;" horiz-adv-x="602" 
d="M39 561v25h154v262h-154v24h154v230q115 15 149 117h20v-347h185v-24h-185v-262h185v-25h-185v-473q0 -59 60 -59q43 0 77.5 38t51.5 105l16 -10q-46 -180 -202 -180q-172 0 -172 200v379h-154z" />
    <glyph glyph-name="Utilde" unicode="&#x168;" horiz-adv-x="1359" 
d="M705 -33q-224 0 -354 112t-130 318v944h-176v25h563v-25h-176v-944q0 -391 320 -391q188 0 284.5 105t96.5 295v878q0 57 -70 57h-98v25h368v-25h-106q-70 0 -70 -57v-878q0 -211 -113.5 -325t-338.5 -114zM1049 1774l4 10h28q-2 -18 -20 -70q-15 -40 -68 -90
q-49 -49 -119 -49q-59 0 -147 49q-89 47 -129 47q-34 0 -58 -7.5t-37 -21.5t-18.5 -25.5t-9.5 -27.5l-4 -14h-29q17 88 74.5 145.5t122.5 57.5q38 0 141 -47q95 -50 140 -50q62 0 92 29.5t37 63.5z" />
    <glyph glyph-name="utilde" unicode="&#x169;" horiz-adv-x="1052" 
d="M1024 25v-25h-297v141q-25 -78 -89 -118.5t-146 -40.5q-160 0 -248 84t-88 243v539h-127v24h297v-657q0 -94 50.5 -151.5t115.5 -57.5q176 0 235 189v653h-127v24h297v-847h127zM815 1321l2 10h29q-1 -12 -21 -69q-16 -43 -67 -91q-49 -49 -119 -49q-59 0 -147 49
q-91 48 -130 48q-34 0 -58 -7.5t-36.5 -21.5t-18 -25.5t-9.5 -27.5l-4 -15h-29q17 89 74 146t122 57q39 0 142 -47q94 -49 139 -49q34 0 58.5 9t39 26.5t20.5 28t13 28.5z" />
    <glyph glyph-name="Umacron" unicode="&#x16a;" horiz-adv-x="1359" 
d="M705 -33q-224 0 -354 112t-130 318v944h-176v25h563v-25h-176v-944q0 -391 320 -391q188 0 284.5 105t96.5 295v878q0 57 -70 57h-98v25h368v-25h-106q-70 0 -70 -57v-878q0 -211 -113.5 -325t-338.5 -114zM1049 1604h-574v84h574v-84z" />
    <glyph glyph-name="umacron" unicode="&#x16b;" horiz-adv-x="1052" 
d="M1024 25v-25h-297v141q-25 -78 -89 -118.5t-146 -40.5q-160 0 -248 84t-88 243v539h-127v24h297v-657q0 -94 50.5 -151.5t115.5 -57.5q176 0 235 189v653h-127v24h297v-847h127zM813 1151h-573v84h573v-84z" />
    <glyph glyph-name="Ubreve" unicode="&#x16c;" horiz-adv-x="1359" 
d="M705 -33q-224 0 -354 112t-130 318v944h-176v25h563v-25h-176v-944q0 -391 320 -391q188 0 284.5 105t96.5 295v878q0 57 -70 57h-98v25h368v-25h-106q-70 0 -70 -57v-878q0 -211 -113.5 -325t-338.5 -114zM492 1819h28q13 -87 73 -145t169 -58t169 58t73 145h28
q-12 -318 -270 -318t-270 318z" />
    <glyph glyph-name="ubreve" unicode="&#x16d;" horiz-adv-x="1052" 
d="M1024 25v-25h-297v141q-25 -78 -89 -118.5t-146 -40.5q-160 0 -248 84t-88 243v539h-127v24h297v-657q0 -94 50.5 -151.5t115.5 -57.5q176 0 235 189v653h-127v24h297v-847h127zM256 1366h29q13 -87 72.5 -145t168.5 -58t169 58t73 145h29q-12 -317 -271 -317
q-258 0 -270 317z" />
    <glyph glyph-name="Uring" unicode="&#x16e;" horiz-adv-x="1359" 
d="M705 -33q-224 0 -354 112t-130 318v944h-176v25h563v-25h-176v-944q0 -391 320 -391q188 0 284.5 105t96.5 295v878q0 57 -70 57h-98v25h368v-25h-106q-70 0 -70 -57v-878q0 -211 -113.5 -325t-338.5 -114zM950 1702q0 -73 -57 -128.5t-131 -55.5t-131.5 55.5
t-57.5 128.5q0 91 64 137q64 49 125 49q59 0 123 -49q65 -47 65 -137zM664 1700q0 -91 23 -128.5t75 -37.5t75 37.5t23 128.5q0 88 -20.5 130t-77.5 42t-77.5 -42t-20.5 -130z" />
    <glyph glyph-name="uring" unicode="&#x16f;" horiz-adv-x="1052" 
d="M1024 25v-25h-297v141q-25 -78 -89 -118.5t-146 -40.5q-160 0 -248 84t-88 243v539h-127v24h297v-657q0 -94 50.5 -151.5t115.5 -57.5q176 0 235 189v653h-127v24h297v-847h127zM715 1249q0 -73 -57.5 -128.5t-131.5 -55.5t-131 55.5t-57 128.5q0 92 63 137q65 50 125 50
q58 0 123 -50q66 -48 66 -137zM428 1247q0 -91 23 -128.5t75 -37.5t75.5 37.5t23.5 128.5q0 88 -21 130t-78 42t-77.5 -42t-20.5 -130z" />
    <glyph glyph-name="Uhungarumlaut" unicode="&#x170;" horiz-adv-x="1359" 
d="M705 -33q-224 0 -354 112t-130 318v944h-176v25h563v-25h-176v-944q0 -391 320 -391q188 0 284.5 105t96.5 295v878q0 57 -70 57h-98v25h368v-25h-106q-70 0 -70 -57v-878q0 -211 -113.5 -325t-338.5 -114zM567 1507l-6 6l244 261q45 48 57 57.5t39 13.5q29 0 48.5 -19
t19.5 -48q0 -34 -51 -60zM838 1507l-7 6l244 261q45 48 57 57.5t39 13.5q29 0 48.5 -19t19.5 -48q0 -34 -51 -60z" />
    <glyph glyph-name="uhungarumlaut" unicode="&#x171;" horiz-adv-x="1052" 
d="M1024 25v-25h-297v141q-25 -78 -89 -118.5t-146 -40.5q-160 0 -248 84t-88 243v539h-127v24h297v-657q0 -94 50.5 -151.5t115.5 -57.5q176 0 235 189v653h-127v24h297v-847h127zM311 1055l-6 6l244 260q51 55 63 62q11 6 33 10q26 0 47 -21t21 -47q0 -33 -51 -59z
M582 1055l-7 6l244 260q51 55 63 62q11 6 33 10q26 0 47 -21t21 -47q0 -33 -51 -59z" />
    <glyph glyph-name="Uogonek" unicode="&#x172;" horiz-adv-x="1359" 
d="M705 -33q-224 0 -354 112t-130 318v944h-176v25h563v-25h-176v-944q0 -391 320 -391q188 0 284.5 105t96.5 295v878q0 57 -70 57h-98v25h368v-25h-106q-70 0 -70 -57v-878q0 -211 -113.5 -325t-338.5 -114zM934 -319l10 -17q-92 -74 -192 -74q-79 0 -132 36t-53 100
q0 76 71 140t218 134h33q-78 -55 -125 -109q-27 -33 -38.5 -57t-13 -37t-1.5 -45q0 -49 28 -81.5t84 -32.5q53 0 111 43z" />
    <glyph glyph-name="uogonek" unicode="&#x173;" horiz-adv-x="1052" 
d="M1024 25v-25h-297v141q-25 -78 -89 -118.5t-146 -40.5q-160 0 -248 84t-88 243v539h-127v24h297v-657q0 -94 50.5 -151.5t115.5 -57.5q176 0 235 189v653h-127v24h297v-847h127zM1014 -319l10 -17q-92 -74 -193 -74q-79 0 -131.5 36t-52.5 100q0 76 71 140t218 134h33
q-78 -55 -125 -109q-27 -33 -38.5 -57t-13 -37t-1.5 -45q0 -49 28 -81.5t84 -32.5q53 0 111 43z" />
    <glyph glyph-name="Wcircumflex" unicode="&#x174;" horiz-adv-x="1910" 
d="M657 -29h-22l-524 1370h-187v25h592v-25h-174l397 -1062l238 729l-119 333h-160v25h588v-25h-207l373 -1067l328 996q7 24 6.5 38t-10.5 21.5t-17.5 9.5t-13.5 2h-129v25h387v-25h-119q-33 0 -51 -16t-35 -65l-426 -1289h-24l-357 1006zM995 1663l-260 -174l-8 10
q215 253 266 352h4q53 -106 267 -352l-9 -10z" />
    <glyph glyph-name="wcircumflex" unicode="&#x175;" horiz-adv-x="1409" 
d="M471 -16h-27l-378 864h-119v24h411v-24h-120l286 -645l176 491l-67 154h-105v24h404v-24h-127l287 -643l200 557q19 51 14.5 68.5t-40.5 17.5h-76v24h285v-24h-76q-34 0 -49 -16.5t-35 -69.5l-277 -778h-26l-299 682zM705 1210l-261 -174l-8 11q215 253 266 352h5
q55 -109 266 -352l-8 -11z" />
    <glyph glyph-name="Ycircumflex" unicode="&#x176;" horiz-adv-x="1214" 
d="M932 0h-567v25h178v571l-373 745h-188v25h622v-25h-201l345 -692l278 611q37 81 -27 81h-131v25h385v-25h-112q-55 0 -99 -92l-288 -639v-585h178v-25zM729 1663l-260 -174l-8 10q215 253 266 352h4q55 -109 266 -352l-8 -10z" />
    <glyph glyph-name="ycircumflex" unicode="&#x177;" horiz-adv-x="876" 
d="M131 -651q-62 0 -103.5 37t-41.5 94q0 49 27.5 81.5t68.5 32.5q38 0 61 -21t23 -52q0 -17 -20.5 -53.5t-20.5 -49.5q0 -32 51 -32q65 0 111 125l174 466l-400 871h-114v24h418v-24h-121l299 -651l207 565q11 29 14 47t-2.5 26t-12.5 10.5t-18 2.5h-80v24h285v-24h-76
q-36 0 -52 -15.5t-36 -70.5l-461 -1247q-32 -90 -74 -128t-106 -38zM500 1210l-260 -174l-9 11q218 256 267 352h4q54 -109 266 -352l-8 -11z" />
    <glyph glyph-name="Ydieresis" unicode="&#x178;" horiz-adv-x="1214" 
d="M932 0h-567v25h178v571l-373 745h-188v25h622v-25h-201l345 -692l278 611q37 81 -27 81h-131v25h385v-25h-112q-55 0 -99 -92l-288 -639v-585h178v-25zM506 1536q-41 0 -70.5 31t-29.5 75t29.5 75.5t70.5 31.5q43 0 72.5 -31.5t29.5 -75.5t-29.5 -75t-72.5 -31zM881 1536
q-41 0 -71 31t-30 75t30 75.5t71 31.5q43 0 72.5 -31.5t29.5 -75.5t-29.5 -75t-72.5 -31z" />
    <glyph glyph-name="Zacute" unicode="&#x179;" horiz-adv-x="1204" 
d="M1100 0h-994l754 1341h-299q-176 0 -269 -105.5t-93 -287.5h-21v418h924l-756 -1341h363q183 0 276 112q96 116 96 289h19v-426zM526 1507l-6 6l244 261q45 48 57 57.5t39 13.5q29 0 48.5 -19t19.5 -48q0 -34 -51 -60z" />
    <glyph glyph-name="zacute" unicode="&#x17a;" horiz-adv-x="868" 
d="M788 0h-737l537 848h-185q-141 0 -200.5 -55.5t-59.5 -178.5h-20v258h661l-538 -847h235q152 0 218.5 64t66.5 198h22v-287zM338 1055l-6 6l243 260q45 48 57.5 58t39.5 14q28 0 47.5 -20.5t19.5 -47.5q0 -33 -51 -59z" />
    <glyph glyph-name="Zdotaccent" unicode="&#x17b;" horiz-adv-x="1204" 
d="M1100 0h-994l754 1341h-299q-176 0 -269 -105.5t-93 -287.5h-21v418h924l-756 -1341h363q183 0 276 112q96 116 96 289h19v-426zM606 1536q-41 0 -70.5 31t-29.5 75t29.5 75.5t70.5 31.5q43 0 73 -31.5t30 -75.5t-30 -75t-73 -31z" />
    <glyph glyph-name="zdotaccent" unicode="&#x17c;" horiz-adv-x="868" 
d="M788 0h-737l537 848h-185q-141 0 -200.5 -55.5t-59.5 -178.5h-20v258h661l-538 -847h235q152 0 218.5 64t66.5 198h22v-287zM526 1204q0 -38 -27.5 -66t-64.5 -28t-64.5 28t-27.5 66q0 41 27.5 68.5t64.5 27.5t64.5 -27.5t27.5 -68.5z" />
    <glyph glyph-name="Zcaron" unicode="&#x17d;" horiz-adv-x="1204" 
d="M1100 0h-994l754 1341h-299q-176 0 -269 -105.5t-93 -287.5h-21v418h924l-756 -1341h363q183 0 276 112q96 116 96 289h19v-426zM334 1882l8 10l260 -174l260 174l8 -10q-212 -243 -266 -352h-4q-51 99 -266 352z" />
    <glyph glyph-name="zcaron" unicode="&#x17e;" horiz-adv-x="868" 
d="M788 0h-737l537 848h-185q-141 0 -200.5 -55.5t-59.5 -178.5h-20v258h661l-538 -847h235q152 0 218.5 64t66.5 198h22v-287zM166 1389l8 10l260 -174l260 174l8 -10q-210 -242 -266 -353h-4q-52 101 -266 353z" />
    <glyph glyph-name="uni018f" unicode="&#x18f;" horiz-adv-x="1425" 
d="M705 -12q237 0 317 172q33 64 48 113.5t22 127.5q8 73 8 138q2 37 2 143v18h-774v-18q0 -276 34 -412q37 -137 115 -209q79 -73 228 -73zM705 -33q-245 0 -424 209t-179 506q0 20 2 43h998q0 215 -39 358q-31 132 -132.5 210.5t-250.5 82.5q-132 0 -242 -125
q-108 -123 -108 -260h-25v402h23q9 -41 84 -41q41 0 131 22q92 25 137 25q130 0 257 -54t212 -155q174 -204 174 -496q0 -301 -174 -514t-444 -213z" />
    <glyph glyph-name="florin" unicode="&#x192;" horiz-adv-x="772" 
d="M965 1276q0 -37 -26.5 -63.5t-64.5 -26.5q-77 0 -77 67q0 11 15 41t15 49q0 64 -65 64q-28 0 -52 -15t-57 -61q-32 -43 -61 -125q-67 -200 -90 -563v-6h186v-23h-188l-2 -45q-16 -326 -88 -614q-41 -167 -99 -285q-59 -127 -152 -203.5t-202 -76.5q-75 0 -125.5 45
t-50.5 112q0 36 27 63.5t63 27.5q80 0 80 -68q0 -13 -15.5 -43t-15.5 -47q0 -29 17.5 -47.5t46.5 -18.5q160 0 233 303q51 212 92 854q0 21 2 35v8h-184v23h186l2 45q18 331 164 543q147 209 322 209q66 0 115 -47.5t49 -110.5z" />
    <glyph glyph-name="Aringacute" unicode="&#x1fa;" horiz-adv-x="1267" 
d="M807 1569q0 -67 -51.5 -122t-120.5 -63l502 -1359h176v-25h-586v25h182l-151 434h-453l-127 -355q-12 -31 -15 -50t0 -24t9 -5h156v-25h-361v25h121q43 0 70 79l446 1280q-69 5 -121.5 60.5t-52.5 124.5q0 91 64 137q64 49 124 49q59 0 123 -49q66 -48 66 -137zM311 481
h439l-218 627zM520 1567q0 -91 23 -128.5t75 -37.5t75.5 37.5t23.5 128.5q0 88 -21 130t-78 42t-77.5 -42t-20.5 -130zM557 1774l-6 6l244 260q45 48 57 57.5t39 13.5q27 0 47 -19t20 -48q0 -33 -51 -59z" />
    <glyph glyph-name="aringacute" unicode="&#x1fb;" horiz-adv-x="899" 
d="M868 74l17 -13q-11 -32 -49.5 -54.5t-90.5 -22.5q-62 0 -103.5 39t-53.5 104q-20 -63 -85 -103t-149 -40q-124 0 -199 53t-75 160q0 74 27 127.5t75 78.5q81 45 162 54q13 0 23 2q213 18 213 59v156q0 194 -156 194q-90 0 -90 -77q0 -13 7 -40t7 -38q0 -31 -22.5 -50.5
t-63.5 -19.5t-62.5 24.5t-21.5 63.5q0 63 69 111.5t177 48.5q328 0 328 -371v-424q0 -69 49 -69q23 0 42 14t25 33zM580 197v278q-13 -13 -50.5 -21t-87 -13t-59.5 -7q-68 -11 -102.5 -63.5t-34.5 -173.5q0 -183 143 -183q77 0 133 56q58 58 58 127zM637 1147
q0 -73 -57 -128.5t-131 -55.5t-131.5 55.5t-57.5 128.5q0 91 64 137q64 49 125 49q58 0 122 -49q66 -48 66 -137zM350 1145q0 -91 23.5 -128.5t75.5 -37.5t75 37.5t23 128.5q0 88 -20.5 130t-77.5 42t-78 -42t-21 -130zM291 1341l-6 7l243 260q44 47 57 57t40 14
q26 0 46.5 -20.5t20.5 -46.5q0 -34 -51 -60z" />
    <glyph glyph-name="AEacute" unicode="&#x1fc;" horiz-adv-x="1746" 
d="M399 578h408v749zM1694 399v-399h-1063v25h176v530h-420l-244 -451q-34 -64 -28 -73q3 -6 16 -6h143v-25h-352v25h107q14 0 39 23.5t43 55.5l677 1237h-161v25h968v-360h-20q0 154 -82 244.5t-242 90.5h-233v-626h80q111 0 173 58t62 159h21v-461h-21q0 101 -62 160
t-173 59h-80v-665h237q209 0 313.5 101t104.5 273h21zM899 1507l-6 6l244 261q45 48 57 57.5t39 13.5q29 0 48 -19t19 -48q0 -34 -51 -60z" />
    <glyph glyph-name="aeacute" unicode="&#x1fd;" horiz-adv-x="1423" 
d="M602 170q-17 -88 -85.5 -137t-162.5 -49q-124 0 -199 53t-75 160q0 74 27 127.5t75 78.5q81 45 162 54q13 0 23 2q213 18 213 59v156q0 192 -156 192q-90 0 -90 -75q0 -13 7 -40t7 -38q0 -31 -22.5 -50.5t-63.5 -19.5t-62.5 24.5t-21.5 63.5q0 63 69 111.5t177 48.5
q203 0 270 -131q119 131 295 131q88 0 162 -40.5t117 -105.5q84 -128 84 -253v-7h-598q-2 -10 -2 -51q0 -176 18 -258q21 -82 70 -125q56 -47 149 -47q210 0 330 184l12 -12q-126 -194 -342 -194q-129 0 -235 49t-152 139zM754 508h426q-3 243 -70 313q-45 45 -121 45
q-98 0 -149 -45q-80 -71 -86 -313zM580 197v278q-13 -13 -50.5 -21t-87 -13t-59.5 -7q-68 -11 -102.5 -63.5t-34.5 -173.5q0 -183 143 -183q77 0 133 56q58 58 58 127zM614 1055l-6 6l244 260q51 55 63 62q11 6 33 10q26 0 47 -21t21 -47q0 -33 -51 -59z" />
    <glyph glyph-name="Oslashacute" unicode="&#x1fe;" horiz-adv-x="1425" 
d="M309 -47l-22 12l75 131q-122 99 -191 253t-69 333q0 294 174 504q177 213 437 213q184 0 334 -117l73 127l23 -12l-76 -131q120 -101 188 -254t68 -330q0 -298 -178 -506q-179 -209 -432 -209q-183 0 -332 113zM328 682q0 -375 71 -520l611 1057q-23 45 -62 84
q-79 73 -235 73q-157 0 -236 -73q-149 -134 -149 -621zM1100 682q0 342 -76 510l-610 -1055q28 -48 63 -76q79 -73 236 -73q156 0 235 73q81 71 115 209q37 136 37 412zM657 1507l-6 6l244 261q45 48 57 57.5t39 13.5q29 0 48.5 -19t19.5 -48q0 -34 -51 -60z" />
    <glyph glyph-name="oslashacute" unicode="&#x1ff;" horiz-adv-x="1028" 
d="M829 926l21 -13l-76 -116q168 -134 168 -361q0 -188 -127 -321t-303 -133q-127 0 -227 69l-70 -104l-22 14l69 107q-83 64 -129.5 160.5t-46.5 207.5q0 191 125 322q127 133 301 133q136 0 242 -80zM258 436q0 -221 43 -311l416 631q-16 39 -49 65q-51 45 -156 45
q-103 0 -154 -45q-100 -87 -100 -385zM768 436q0 189 -39 293l-414 -629q18 -30 43 -49q56 -47 154 -47q100 0 156 47q55 45 77.5 130t22.5 255zM418 1055l-6 6l243 260q45 48 57.5 58t39.5 14q26 0 46.5 -21t20.5 -47q0 -33 -51 -59z" />
    <glyph glyph-name="Scommaaccent" unicode="&#x218;" horiz-adv-x="1052" 
d="M987 393q0 -92 -47 -188t-154 -166q-110 -72 -245 -72q-81 0 -176 39q-96 41 -127 41q-37 0 -67 -23t-36 -53h-20v430h20q0 -133 117 -274q121 -139 287 -139q154 0 245 82q95 83 95 186q0 131 -88 195q-82 65 -324 155q-160 58 -238.5 148.5t-78.5 242.5q0 162 104 281
q106 121 248 121q60 0 131 -27q70 -24 102 -24q69 0 78 45h21v-324h-21q0 134 -94 219q-94 88 -215 88q-109 0 -185 -76q-75 -72 -75 -174t82 -176.5t266 -142.5q204 -73 299 -162q96 -90 96 -252zM651 -227q0 -82 -61 -183q-62 -102 -141 -129l-7 21q53 20 85 59t32 78
q0 58 -57 100q-39 23 -39 80q0 41 27 70t65 29q44 0 70 -34t26 -91z" />
    <glyph glyph-name="scommaaccent" unicode="&#x219;" horiz-adv-x="765" 
d="M702 270q0 -132 -76 -210t-214 -78q-67 0 -129 26q-69 29 -93 29q-23 0 -43.5 -12.5t-27.5 -26.5h-23l10 303h23q-3 -118 80 -207q82 -88 203 -88q92 0 143 45.5t51 132.5q0 74 -50 113.5t-183 83.5q-123 40 -181.5 96.5t-58.5 147.5q0 119 70 192.5t172 73.5
q27 0 83 -13.5t85 -13.5q37 0 43 33h22v-246h-22q0 94 -66 154q-64 61 -145 61q-75 0 -117.5 -37.5t-42.5 -103.5q0 -72 51.5 -113.5t177.5 -79.5q258 -77 258 -262zM487 -227q0 -82 -61 -183q-62 -102 -141 -129l-6 21q53 20 84.5 58.5t31.5 78.5q0 58 -57 100
q-39 23 -39 80q0 41 27 70t65 29q44 0 70 -34t26 -91z" />
    <glyph glyph-name="dotlessj" unicode="&#x237;" horiz-adv-x="548" 
d="M367 872v-919q0 -320 -77.5 -461t-240.5 -141q-72 0 -126 45t-54 108q0 41 27 69t65 28q42 0 65 -19t23 -51q0 -15 -13 -46t-13 -52q0 -54 69 -54q105 0 105 242v1229h-125v22h295z" />
    <glyph glyph-name="uni0259" unicode="&#x259;" horiz-adv-x="1028" 
d="M86 442v3.5v1.5t0.5 6t1.5 14h678q0 192 -72.5 295.5t-187.5 103.5q-106 0 -177 -69t-71 -187h-22v287h24q0 -43 47 -43q5 0 80 18.5t129 18.5q82 0 167.5 -35.5t139.5 -99.5q117 -132 117 -320q0 -178 -121 -317q-119 -137 -307 -137q-174 0 -301 133q-125 131 -125 327
zM766 442h-508q0 -166 24 -256t76 -135q56 -47 154 -47q64 0 117.5 26.5t79.5 65.5q25 41 36 103q21 103 21 243z" />
    <glyph glyph-name="circumflex" unicode="&#x2c6;" 
d="M356 1210l-260 -174l-8 11q215 253 266 352h4q53 -106 267 -352l-9 -11z" />
    <glyph glyph-name="caron" unicode="&#x2c7;" 
d="M88 1389l8 10l260 -174l260 174l9 -10q-213 -244 -267 -353h-4q-52 101 -266 353z" />
    <glyph glyph-name="breve" unicode="&#x2d8;" 
d="M86 1366h29q13 -87 72.5 -145t168.5 -58t169 58t73 145h29q-12 -317 -271 -317q-258 0 -270 317z" />
    <glyph glyph-name="dotaccent" unicode="&#x2d9;" 
d="M444 1204q0 -38 -27.5 -66t-64.5 -28t-64.5 28t-27.5 66q0 41 27.5 68.5t64.5 27.5t64.5 -27.5t27.5 -68.5z" />
    <glyph glyph-name="ring" unicode="&#x2da;" 
d="M545 1249q0 -73 -57.5 -128.5t-131.5 -55.5t-131 55.5t-57 128.5q0 92 63 137q65 50 125 50q58 0 123 -50q66 -48 66 -137zM258 1247q0 -91 23 -128.5t75 -37.5t75.5 37.5t23.5 128.5q0 88 -21 130t-78 42t-77.5 -42t-20.5 -130z" />
    <glyph glyph-name="ogonek" unicode="&#x2db;" 
d="M506 -319l10 -17q-92 -74 -192 -74q-79 0 -132 36t-53 100q0 76 71 140t218 134h33q-78 -55 -125 -109q-27 -33 -38.5 -57t-13 -37t-1.5 -45q0 -49 28 -81.5t84 -32.5q53 0 111 43z" />
    <glyph glyph-name="tilde" unicode="&#x2dc;" 
d="M643 1321l4 10h29q-1 -12 -21 -69q-16 -43 -67 -91q-49 -49 -119 -49q-59 0 -147 49q-91 48 -129 48q-34 0 -58 -7.5t-37 -21.5t-18.5 -25.5t-9.5 -27.5l-4 -15h-29q17 89 74 146t122 57q39 0 142 -47q94 -49 139 -49q62 0 92.5 29.5t36.5 62.5z" />
    <glyph glyph-name="hungarumlaut" unicode="&#x2dd;" 
d="M61 1055l-6 6l244 260q51 55 63 62t33 10q26 0 47 -21t21 -47q0 -33 -51 -59zM332 1055l-6 6l243 260q45 48 57.5 58t39.5 14q26 0 46.5 -21t20.5 -47q0 -33 -51 -59z" />
    <glyph glyph-name="Alpha" unicode="&#x391;" horiz-adv-x="1267" 
d="M1313 25v-25h-586v25h182l-151 434h-453l-127 -355q-12 -31 -15 -50t0 -24t9 -5h156v-25h-361v25h121q43 0 70 79l450 1289h25l504 -1368h176zM311 481h439l-218 627z" />
    <glyph glyph-name="Beta" unicode="&#x392;" horiz-adv-x="1232" 
d="M1143 362q0 -148 -117 -256q-112 -106 -324 -106h-620v25h176v1316h-176v25h528q185 0 310 -82q124 -81 124 -233q0 -134 -116 -228q-113 -94 -244 -94q197 0 326 -100q133 -103 133 -267zM844 1042q0 166 -59 232.5t-203 66.5h-113v-602h174q110 0 155.5 66t45.5 237z
M934 350q0 218 -76 291q-76 76 -231 76h-158v-692h182q146 0 214.5 73.5t68.5 251.5z" />
    <glyph glyph-name="Gamma" unicode="&#x393;" horiz-adv-x="1071" 
d="M1028 1366v-418h-22q0 182 -95 287.5t-276 105.5h-166v-1316h176v-25h-563v25h176v1316h-176v25h946z" />
    <glyph glyph-name="Epsilon" unicode="&#x395;" horiz-adv-x="1198" 
d="M1145 399v-399h-1063v25h176v1316h-176v25h965v-360h-21q0 154 -82 244.5t-242 90.5h-233v-626h80q111 0 173 58t62 159h21v-461h-21q0 101 -62 160t-173 59h-80v-665h238q209 0 313 101t104 273h21z" />
    <glyph glyph-name="Zeta" unicode="&#x396;" horiz-adv-x="1204" 
d="M178 1366h924l-756 -1341h363q183 0 276 112q96 116 96 289h19v-426h-994l754 1341h-299q-176 0 -269 -105.5t-93 -287.5h-21v418z" />
    <glyph glyph-name="Eta" unicode="&#x397;" horiz-adv-x="1484" 
d="M1401 25v-25h-545v25h158v675h-543v-675h160v-25h-549v25h176v1316h-176v25h549v-25h-160v-616h543v616h-158v25h545v-25h-176v-1316h176z" />
    <glyph glyph-name="Iota" unicode="&#x399;" horiz-adv-x="727" 
d="M645 25v-25h-563v25h176v1316h-176v25h563v-25h-176v-1316h176z" />
    <glyph glyph-name="Kappa" unicode="&#x39a;" horiz-adv-x="1249" 
d="M1407 23v-23h-641v23h188l-485 653v-653h174v-23h-561v23h176v1318h-176v25h561v-25h-174v-653l481 574q64 79 29 79h-137v25h370v-25h-118q-29 0 -51.5 -13.5t-65.5 -65.5l-371 -443l608 -796h193z" />
    <glyph glyph-name="Lambda" unicode="&#x39b;" horiz-adv-x="1323" 
d="M-55 0v25h123q52 0 79 81l459 1289h23l557 -1370h184v-25h-618v25h206l-426 1085l-362 -1004q-10 -57 -4 -69t35 -12h129v-25h-385z" />
    <glyph glyph-name="Mu" unicode="&#x39c;" horiz-adv-x="1673" 
d="M248 84v1257h-174v25h397l389 -1061l348 1061h394v-25h-179v-1316h179v-25h-566v25h178v1275l-428 -1300h-41l-473 1305v-1221q0 -59 70 -59h107v-25h-375v25h106q68 0 68 59z" />
    <glyph glyph-name="Nu" unicode="&#x39d;" horiz-adv-x="1390" 
d="M342 25h107v-25h-375v25h106q68 0 68 59v1257h-174v25h418l647 -1012v930q0 57 -70 57h-106v25h374v-25h-104q-72 0 -72 -57v-1284h-39l-850 1323v-1239q0 -59 70 -59z" />
    <glyph glyph-name="Omicron" unicode="&#x39f;" horiz-adv-x="1425" 
d="M102 682q0 294 174 504q177 213 437 213q254 0 432 -211q178 -208 178 -506t-178 -506q-179 -209 -432 -209t-432 209t-179 506zM1100 682q0 484 -152 621q-79 73 -235 73q-157 0 -236 -73q-149 -134 -149 -621q0 -276 34 -412q37 -137 115 -209q79 -73 236 -73
q156 0 235 73q81 71 115 209q37 136 37 412z" />
    <glyph glyph-name="Pi" unicode="&#x3a0;" horiz-adv-x="1484" 
d="M1401 25v-25h-545v25h158v1316h-543v-1316h160v-25h-549v25h176v1316h-176v25h1319v-25h-176v-1316h176z" />
    <glyph glyph-name="Rho" unicode="&#x3a1;" horiz-adv-x="1224" 
d="M1157 936q0 -177 -137 -287q-134 -110 -354 -110q-106 0 -195 24v-538h174v-25h-563v25h176v1316h-176v25h555q243 0 381 -123q139 -124 139 -307zM948 936q0 196 -84 300.5t-227 104.5h-166v-747q73 -31 195 -31q140 0 211 89.5t71 283.5z" />
    <glyph glyph-name="Tau" unicode="&#x3a4;" horiz-adv-x="1185" 
d="M1139 1366v-418h-21q0 184 -95.5 288.5t-285.5 104.5h-43v-1316h176v-25h-563v25h174v1316h-41q-189 0 -280.5 -103t-91.5 -290h-21v418h1092z" />
    <glyph glyph-name="Upsilon" unicode="&#x3a5;" horiz-adv-x="1214" 
d="M1253 1366v-25h-112q-55 0 -99 -92l-288 -639v-585h178v-25h-567v25h178v571l-373 745h-188v25h622v-25h-201l345 -692l278 611q37 81 -27 81h-131v25h385z" />
    <glyph glyph-name="Phi" unicode="&#x3a6;" horiz-adv-x="1511" 
d="M1434 682q0 -209 -144 -332q-141 -123 -381 -123h-41v-202h166v-25h-557v25h166v202h-41q-239 0 -383 123q-141 123 -141 332q0 211 141 334q143 125 383 125h41v200h-166v25h557v-25h-166v-200h41q241 0 381 -125q144 -123 144 -334zM891 1116h-23v-864h23
q91 0 161.5 42t106.5 112q68 133 68 276q0 55 -9 110t-33.5 115t-61 105t-96.5 74.5t-136 29.5zM621 252h22v864h-22q-76 0 -136 -29.5t-96.5 -74.5t-61 -105t-33.5 -115t-9 -110q0 -145 67 -276q36 -70 107 -112t162 -42z" />
    <glyph glyph-name="Chi" unicode="&#x3a7;" horiz-adv-x="1294" 
d="M1348 25v-25h-615v25h193l-322 583l-295 -502q-49 -81 13 -81h114v-25h-383v25h119q65 0 111 81l311 527l-393 708h-189v25h617v-25h-193l281 -518l258 437q20 35 22.5 53.5t-6 23t-26.5 4.5h-119v25h383v-25h-121q-63 0 -109 -81l-270 -459l430 -776h189z" />
    <glyph glyph-name="pi" unicode="&#x3c0;" horiz-adv-x="1089" 
d="M926 848h-13v-823h125v-25h-420v25h125v823h-397v-823h125v-25h-420v25h125v823h-35q-64 0 -89 -18t-29 -76h-23q5 69 33.5 93.5t107.5 24.5h787q76 0 101.5 13.5t31.5 62.5h22q0 -60 -36.5 -80t-120.5 -20z" />
    <glyph glyph-name="afii10023" unicode="&#x401;" horiz-adv-x="1198" 
d="M1145 399v-399h-1063v25h176v1316h-176v25h965v-360h-21q0 154 -82 244.5t-242 90.5h-233v-626h80q111 0 173 58t62 159h21v-461h-21q0 101 -62 160t-173 59h-80v-665h238q209 0 313 101t104 273h21zM471 1536q-41 0 -70.5 31t-29.5 75t29.5 75.5t70.5 31.5
q43 0 72.5 -31.5t29.5 -75.5t-29.5 -75t-72.5 -31zM846 1536q-41 0 -71 31t-30 75t30 75.5t71 31.5q43 0 72.5 -31.5t29.5 -75.5t-29.5 -75t-72.5 -31z" />
    <glyph glyph-name="afii10051" unicode="&#x402;" horiz-adv-x="1490" 
d="M991 -18q-113 0 -183.5 59t-70.5 147q0 56 34.5 93.5t80.5 37.5q43 0 74.5 -33t31.5 -77q0 -50 -38 -82q-37 -34 -37 -66q0 -25 28.5 -42t79.5 -17q90 0 160 98q74 103 74 291q0 379 -291 379q-56 0 -152 -22q-87 -21 -127 -43v-705h-387v25h174v1316h-2
q-189 0 -280.5 -103t-91.5 -290h-21v418h1092v-418h-21q0 184 -95.5 288.5t-285.5 104.5h-82v-608q151 62 279 62q221 0 360 -115q140 -116 140 -289q0 -179 -125 -295q-126 -114 -318 -114z" />
    <glyph glyph-name="afii10052" unicode="&#x403;" horiz-adv-x="1071" 
d="M870 1755q0 -156 -344 -239l-4 14q66 16 118 61.5t79 96.5q58 118 100 118q51 0 51 -51zM1028 1366v-418h-22q0 182 -95 287.5t-276 105.5h-166v-1316h176v-25h-563v25h176v1316h-176v25h946z" />
    <glyph glyph-name="afii10053" unicode="&#x404;" horiz-adv-x="1212" 
d="M1147 424v-453h-21q-5 22 -28.5 40t-57.5 18q-35 0 -153 -31q-115 -31 -166 -31q-262 0 -440 211q-179 212 -179 504q0 294 174 504q177 213 437 213q47 0 141 -27q99 -24 141 -24q37 0 64.5 13.5t32.5 31.5h20v-404h-20q0 143 -121 264q-120 123 -258 123
q-154 0 -236 -73q-145 -133 -151 -580h495v-23h-495v-18q0 -482 151 -621q80 -71 244 -71q175 0 289 123q116 122 116 311h21z" />
    <glyph glyph-name="afii10054" unicode="&#x405;" horiz-adv-x="1052" 
d="M987 393q0 -92 -47 -188t-154 -166q-110 -72 -245 -72q-81 0 -176 39q-96 41 -127 41q-37 0 -67 -23t-36 -53h-20v430h20q0 -133 117 -274q121 -139 287 -139q154 0 245 82q95 83 95 186q0 131 -88 195q-82 65 -324 155q-160 58 -238.5 148.5t-78.5 242.5q0 162 104 281
q106 121 248 121q60 0 131 -27q70 -24 102 -24q69 0 78 45h21v-324h-21q0 134 -94 219q-94 88 -215 88q-109 0 -185 -76q-75 -72 -75 -174t82 -176.5t266 -142.5q204 -73 299 -162q96 -90 96 -252z" />
    <glyph glyph-name="afii10055" unicode="&#x406;" horiz-adv-x="727" 
d="M645 25v-25h-563v25h176v1316h-176v25h563v-25h-176v-1316h176z" />
    <glyph glyph-name="afii10056" unicode="&#x407;" horiz-adv-x="727" 
d="M645 25v-25h-563v25h176v1316h-176v25h563v-25h-176v-1316h176zM199 1536q-41 0 -71 31t-30 75t30 75.5t71 31.5q43 0 72.5 -31.5t29.5 -75.5t-29.5 -75t-72.5 -31zM573 1536q-41 0 -70.5 31t-29.5 75t29.5 75.5t70.5 31.5q43 0 73 -31.5t30 -75.5t-30 -75t-73 -31z" />
    <glyph glyph-name="afii10057" unicode="&#x408;" horiz-adv-x="903" 
d="M868 1366v-25h-176v-1019q0 -168 -94.5 -261.5t-267.5 -93.5q-122 0 -209 72q-84 72 -84 160q0 56 34.5 93.5t80.5 37.5q43 0 74.5 -33.5t31.5 -77.5q0 -48 -35 -78q-33 -26 -33 -59q0 -38 36.5 -66t90.5 -28q65 0 114.5 44.5t49.5 114.5v1194h-174v25h561z" />
    <glyph glyph-name="afii10058" unicode="&#x409;" horiz-adv-x="1738" 
d="M1681 391q0 -186 -128.5 -288.5t-372.5 -102.5h-527v25h158v1316h-332q-73 0 -73 -147v-483q0 -377 -44 -555q-43 -172 -182 -172q-84 0 -131 46t-47 126q0 45 37.5 84t85.5 39q47 0 75.5 -30.5t28.5 -78.5q0 -36 -30 -70q-29 -37 -29 -51q0 -23 7 -31t26 -8
q178 0 178 586v594q0 81 -16 116t-58 35h-94v25h987v-25h-174v-555h164q222 0 356 -110q135 -108 135 -285zM1473 391q0 196 -71 283.5t-212 87.5h-164v-737h133q314 0 314 366z" />
    <glyph glyph-name="afii10059" unicode="&#x40a;" horiz-adv-x="1939" 
d="M1880 391q0 -185 -128.5 -288t-371.5 -103h-526v25h158v737h-543v-737h160v-25h-547v25h176v1316h-176v25h547v-25h-160v-555h543v555h-158v25h547v-25h-176v-555h164q222 0 356 -110q135 -108 135 -285zM1673 391q0 196 -70.5 283.5t-213.5 87.5h-164v-737h135
q313 0 313 366z" />
    <glyph glyph-name="afii10060" unicode="&#x40b;" horiz-adv-x="1566" 
d="M1520 25v-25h-535v25h158v421q0 198 -82 254q-66 45 -143 45q-56 0 -142 -22q-75 -19 -121 -43v-655h179v-25h-566v25h174v1316h-2q-189 0 -280.5 -103t-91.5 -290h-21v418h1092v-418h-21q0 184 -95.5 288.5t-285.5 104.5h-82v-632q149 61 310 61q160 0 276 -78
q113 -76 113 -246v-421h166z" />
    <glyph glyph-name="afii10061" unicode="&#x40c;" horiz-adv-x="1331" 
d="M950 1755q0 -156 -344 -239l-4 14q66 16 118 61.5t79 96.5q58 118 100 118q51 0 51 -51zM1294 74l19 -19q-72 -69 -187 -69q-282 0 -282 374v107q0 123 -67 178t-206 55h-102v-675h160v-25h-547v25h176v1316h-176v25h547v-25h-160v-618h96q115 0 162 90q18 33 27 109
q1 6 8 96q6 82 12 117q7 44 29 97.5t51 82.5q71 65 172 65q63 0 104 -40t41 -111q0 -54 -29.5 -86.5t-76.5 -32.5q-46 0 -73 30t-27 74q0 28 24 62q25 39 25 47q0 27 -37 27q-55 0 -105 -50q-28 -28 -49 -79.5t-28 -94.5q-1 -10 -5 -46.5t-6 -63.5q-7 -89 -8 -94
q-13 -95 -26 -113q-37 -70 -113 -94q266 0 352 -115q42 -56 58 -115.5t16 -146.5v-156q0 -74 33 -118t88 -44q62 0 110 54z" />
    <glyph glyph-name="afii10062" unicode="&#x40e;" horiz-adv-x="1224" 
d="M1274 1366v-25h-135q-18 0 -32.5 -16t-33.5 -63l-485 -1092q-34 -76 -93 -131t-122 -55q-110 0 -182 59t-72 143q0 59 33.5 93t89.5 34q43 0 69.5 -26.5t26.5 -67.5q0 -57 -39 -86t-39 -57q0 -72 113 -72q49 0 105 50t87 120l74 168l-477 999h-174v25h614v-25h-209
l344 -776l312 697q34 79 -15 79h-147v25h387zM979 1626q0 -86 -74 -139q-73 -49 -170 -49t-170 49q-73 52 -73 139q0 40 23.5 65t66.5 25q32 0 52.5 -18t20.5 -49q0 -37 -34 -64q-39 -26 -39 -51q0 -31 48 -51.5t105 -20.5q58 0 106 20.5t48 51.5q0 19 -43 53q-31 28 -31 62
q0 31 21 49t53 18q43 0 66.5 -25t23.5 -65z" />
    <glyph glyph-name="afii10145" unicode="&#x40f;" horiz-adv-x="1484" 
d="M729 -23v23h-647v25h176v1316h-176v25h549v-25h-160v-1316h543v1316h-158v25h545v-25h-176v-1316h176v-25h-647v-20q0 -70 47 -138q88 -120 18 -194q-24 -25 -56.5 -30.5t-60.5 7t-47.5 40.5t-19.5 63q0 44 47 112q47 65 47 137z" />
    <glyph glyph-name="afii10017" unicode="&#x410;" horiz-adv-x="1267" 
d="M1313 25v-25h-586v25h182l-151 434h-453l-127 -355q-12 -31 -15 -50t0 -24t9 -5h156v-25h-361v25h121q43 0 70 79l450 1289h25l504 -1368h176zM311 481h439l-218 627z" />
    <glyph glyph-name="afii10018" unicode="&#x411;" horiz-adv-x="1222" 
d="M1126 391q0 -186 -128.5 -288.5t-372.5 -102.5h-543v25h176v1316h-176v25h967v-360h-21q0 153 -82.5 244t-243.5 91h-231v-555h164q222 0 356 -110q135 -108 135 -285zM918 391q0 196 -71 283.5t-212 87.5h-164v-737h133q314 0 314 366z" />
    <glyph glyph-name="afii10019" unicode="&#x412;" horiz-adv-x="1232" 
d="M1143 362q0 -148 -117 -256q-112 -106 -324 -106h-620v25h176v1316h-176v25h528q185 0 310 -82q124 -81 124 -233q0 -134 -116 -228q-113 -94 -244 -94q197 0 326 -100q133 -103 133 -267zM844 1042q0 166 -59 232.5t-203 66.5h-113v-602h174q110 0 155.5 66t45.5 237z
M934 350q0 218 -76 291q-76 76 -231 76h-158v-692h182q146 0 214.5 73.5t68.5 251.5z" />
    <glyph glyph-name="afii10020" unicode="&#x413;" horiz-adv-x="1071" 
d="M1028 1366v-418h-22q0 182 -95 287.5t-276 105.5h-166v-1316h176v-25h-563v25h176v1316h-176v25h946z" />
    <glyph glyph-name="afii10021" unicode="&#x414;" horiz-adv-x="1267" 
d="M1212 25v-410h-22q0 179 -103 282t-307 103h-309q-205 0 -307.5 -103t-102.5 -282h-22v410h141q102 94 139 270t37 475v504q0 33 -16.5 50t-38.5 17h-111v25h1022v-25h-176v-1316h176zM207 25h618v1316h-383q-63 0 -63 -67v-516q0 -289 -36.5 -462.5t-135.5 -270.5z" />
    <glyph glyph-name="afii10022" unicode="&#x415;" horiz-adv-x="1198" 
d="M1145 399v-399h-1063v25h176v1316h-176v25h965v-360h-21q0 154 -82 244.5t-242 90.5h-233v-626h80q111 0 173 58t62 159h21v-461h-21q0 101 -62 160t-173 59h-80v-665h238q209 0 313 101t104 273h21z" />
    <glyph glyph-name="afii10024" unicode="&#x416;" horiz-adv-x="1898" 
d="M1862 74l16 -19q-69 -69 -184 -69q-283 0 -283 374v107q0 123 -66.5 178t-205.5 55h-84v-675h159v-25h-530v25h160v675h-84q-139 0 -206 -55t-67 -178v-107q0 -374 -282 -374q-115 0 -187 69l19 19q48 -54 110 -54q55 0 88 44t33 118v156q0 87 16 146.5t58 115.5
q86 115 352 115q-74 23 -112 94q-14 26 -27 113q-1 5 -8 94q-6 71 -12 110q-5 41 -26 93t-50 81q-50 50 -105 50q-37 0 -37 -27q0 -8 25 -47q27 -34 27 -62q0 -44 -28.5 -74t-74.5 -30q-47 0 -76.5 32.5t-29.5 86.5q0 71 41.5 111t105.5 40q105 0 170 -65q58 -58 72 -144
q13 -67 14 -79q8 -91 8 -93q2 -44 7 -77q9 -78 26 -109q50 -90 164 -90h76v618h-160v25h530v-25h-159v-618h75q115 0 162 90q20 30 29 109q3 22 6 77q0 2 8 93q5 65 27 129.5t59 93.5q65 65 170 65q64 0 106 -40t42 -111q0 -54 -29.5 -86.5t-77.5 -32.5q-46 0 -74 30t-28 74
q0 28 24 62q27 38 27 47q0 27 -37 27q-54 0 -104 -50q-28 -28 -49.5 -80t-28.5 -92q-5 -48 -12 -114q-2 -23 -3.5 -46t-2.5 -33t-1 -13q-13 -90 -26 -113q-40 -69 -113 -94q266 0 352 -115q42 -56 58 -115.5t16 -146.5v-156q0 -74 32.5 -118t86.5 -44q65 0 113 54z" />
    <glyph glyph-name="afii10025" unicode="&#x417;" horiz-adv-x="1052" 
d="M967 362q0 -155 -133 -276q-131 -119 -385 -119q-135 0 -226 49q-162 87 -162 228q0 59 37 101t95 42q45 0 74.5 -27t29.5 -71q0 -39 -16 -63t-35 -31.5t-35 -22t-16 -37.5q0 -15 10.5 -36t35.5 -47.5t79.5 -45t128.5 -18.5q150 0 232.5 91.5t82.5 270.5q0 228 -57 297
q-57 72 -209 72h-138v22h142q118 0 175.5 74.5t57.5 241.5q0 172 -56 245.5t-187 73.5q-128 0 -222 -110q-92 -112 -92 -244h-20v369h20q9 -45 70 -45q29 0 108 26q82 27 138 27q186 0 305 -96q116 -94 116 -252q0 -130 -116 -224q-113 -94 -217 -94q166 0 274 -102
q111 -102 111 -269z" />
    <glyph glyph-name="afii10026" unicode="&#x418;" horiz-adv-x="1484" 
d="M1401 25v-25h-545v25h158v1118l-543 -979v-139h160v-25h-549v25h176v1316h-176v25h549v-25h-160v-1128l543 979v149h-158v25h545v-25h-176v-1316h176z" />
    <glyph glyph-name="afii10027" unicode="&#x419;" horiz-adv-x="1484" 
d="M1401 25v-25h-545v25h158v1118l-543 -979v-139h160v-25h-549v25h176v1316h-176v25h549v-25h-160v-1128l543 979v149h-158v25h545v-25h-176v-1316h176zM993 1626q0 -87 -73 -139q-73 -49 -170 -49t-170 49q-74 53 -74 139q0 40 23.5 65t66.5 25q32 0 53 -18t21 -49
q0 -37 -35 -64q-39 -26 -39 -51q0 -31 48 -51.5t106 -20.5q57 0 105 20.5t48 51.5q0 19 -43 53q-31 28 -31 62q0 31 21 49t53 18q43 0 66.5 -25t23.5 -65z" />
    <glyph glyph-name="afii10028" unicode="&#x41a;" horiz-adv-x="1331" 
d="M1294 74l19 -19q-72 -69 -187 -69q-282 0 -282 374v107q0 123 -67 178t-206 55h-102v-675h160v-25h-547v25h176v1316h-176v25h547v-25h-160v-618h96q115 0 162 90q18 33 27 109q1 6 8 96q6 82 12 117q7 44 29 97.5t51 82.5q71 65 172 65q63 0 104 -40t41 -111
q0 -54 -29.5 -86.5t-76.5 -32.5q-46 0 -73 30t-27 74q0 28 24 62q25 39 25 47q0 27 -37 27q-55 0 -105 -50q-28 -28 -49 -79.5t-28 -94.5q-1 -10 -5 -46.5t-6 -63.5q-7 -89 -8 -94q-13 -95 -26 -113q-37 -70 -113 -94q266 0 352 -115q42 -56 58 -115.5t16 -146.5v-156
q0 -74 33 -118t88 -44q62 0 110 54z" />
    <glyph glyph-name="afii10029" unicode="&#x41b;" horiz-adv-x="1284" 
d="M1200 25v-25h-547v25h158v1316h-332q-43 0 -58 -19.5t-15 -76.5v-534q0 -377 -44 -555q-43 -172 -182 -172q-84 0 -131 46t-47 126q0 45 37.5 84t85.5 39q47 0 75.5 -30.5t28.5 -78.5q0 -36 -30 -70q-29 -37 -29 -51q0 -23 7 -31t26 -8q178 0 178 586v645
q0 61 -14.5 80.5t-59.5 19.5h-94v25h987v-25h-174v-1316h174z" />
    <glyph glyph-name="afii10030" unicode="&#x41c;" horiz-adv-x="1673" 
d="M248 84v1257h-174v25h397l389 -1061l348 1061h394v-25h-179v-1316h179v-25h-566v25h178v1275l-428 -1300h-41l-473 1305v-1221q0 -59 70 -59h107v-25h-375v25h106q68 0 68 59z" />
    <glyph glyph-name="afii10031" unicode="&#x41d;" horiz-adv-x="1484" 
d="M1401 25v-25h-545v25h158v675h-543v-675h160v-25h-549v25h176v1316h-176v25h549v-25h-160v-616h543v616h-158v25h545v-25h-176v-1316h176z" />
    <glyph glyph-name="afii10032" unicode="&#x41e;" horiz-adv-x="1425" 
d="M102 682q0 294 174 504q177 213 437 213q254 0 432 -211q178 -208 178 -506t-178 -506q-179 -209 -432 -209t-432 209t-179 506zM1100 682q0 484 -152 621q-79 73 -235 73q-157 0 -236 -73q-149 -134 -149 -621q0 -276 34 -412q37 -137 115 -209q79 -73 236 -73
q156 0 235 73q81 71 115 209q37 136 37 412z" />
    <glyph glyph-name="afii10033" unicode="&#x41f;" horiz-adv-x="1484" 
d="M1401 25v-25h-545v25h158v1316h-543v-1316h160v-25h-549v25h176v1316h-176v25h1319v-25h-176v-1316h176z" />
    <glyph glyph-name="afii10034" unicode="&#x420;" horiz-adv-x="1224" 
d="M1157 936q0 -177 -137 -287q-134 -110 -354 -110q-106 0 -195 24v-538h174v-25h-563v25h176v1316h-176v25h555q243 0 381 -123q139 -124 139 -307zM948 936q0 196 -84 300.5t-227 104.5h-166v-747q73 -31 195 -31q140 0 211 89.5t71 283.5z" />
    <glyph glyph-name="afii10035" unicode="&#x421;" horiz-adv-x="1239" 
d="M1147 424v-453h-21q-5 22 -28.5 40t-57.5 18q-35 0 -153 -31q-115 -31 -166 -31q-262 0 -440 211q-179 212 -179 504q0 294 174 504q177 213 437 213q47 0 141 -27q99 -24 141 -24q37 0 64.5 13.5t32.5 31.5h20v-404h-20q0 143 -121 264q-120 123 -258 123
q-154 0 -236 -73q-151 -139 -151 -621t151 -621q82 -73 244 -73q172 0 289 123q116 125 116 313h21z" />
    <glyph glyph-name="afii10036" unicode="&#x422;" horiz-adv-x="1185" 
d="M1139 1366v-418h-21q0 184 -95.5 288.5t-285.5 104.5h-43v-1316h176v-25h-563v25h174v1316h-41q-189 0 -280.5 -103t-91.5 -290h-21v418h1092z" />
    <glyph glyph-name="afii10037" unicode="&#x423;" horiz-adv-x="1224" 
d="M1274 1366v-25h-135q-18 0 -32.5 -16t-33.5 -63l-485 -1092q-34 -76 -93 -131t-122 -55q-110 0 -182 59t-72 143q0 59 33.5 93t89.5 34q43 0 69.5 -26.5t26.5 -67.5q0 -57 -39 -86t-39 -57q0 -72 113 -72q49 0 105 50t87 120l74 168l-477 999h-174v25h614v-25h-209
l344 -776l312 697q34 79 -15 79h-147v25h387z" />
    <glyph glyph-name="afii10038" unicode="&#x424;" horiz-adv-x="1634" 
d="M1556 682q0 -252 -140.5 -394.5t-383.5 -142.5h-102v-120h166v-25h-557v25h166v120h-103q-243 0 -383.5 142.5t-140.5 394.5q0 255 140.5 398t383.5 143h103v118h-166v25h557v-25h-166v-118h102q243 0 383.5 -143t140.5 -398zM1014 1198h-84v-1028h84q92 0 162 46
t106 126q68 144 68 340q0 195 -68 342q-36 81 -106 127.5t-162 46.5zM621 170h84v1028h-84q-92 0 -163 -46.5t-108 -127.5q-65 -147 -65 -342q0 -196 65 -340q38 -80 108.5 -126t162.5 -46z" />
    <glyph glyph-name="afii10039" unicode="&#x425;" horiz-adv-x="1294" 
d="M1348 25v-25h-615v25h193l-322 583l-295 -502q-49 -81 13 -81h114v-25h-383v25h119q65 0 111 81l311 527l-393 708h-189v25h617v-25h-193l281 -518l258 437q20 35 22.5 53.5t-6 23t-26.5 4.5h-119v25h383v-25h-121q-63 0 -109 -81l-270 -459l430 -776h189z" />
    <glyph glyph-name="afii10040" unicode="&#x426;" horiz-adv-x="1499" 
d="M1401 25v-410h-23q0 180 -99.5 282.5t-303.5 102.5h-893v25h176v1316h-176v25h549v-25h-160v-1316h543v1316h-158v25h545v-25h-176v-1316h176z" />
    <glyph glyph-name="afii10041" unicode="&#x427;" horiz-adv-x="1388" 
d="M1307 25v-25h-588v25h199v610q-134 -64 -240 -64q-202 0 -330 76q-129 77 -129 250v444h-166v25h535v-25h-158v-444q0 -301 246 -301q107 0 242 66v679h-160v25h549v-25h-179v-1316h179z" />
    <glyph glyph-name="afii10042" unicode="&#x428;" horiz-adv-x="2064" 
d="M1982 25v-25h-1900v25h176v1316h-176v25h549v-25h-160v-1316h457v1316h-160v25h530v-25h-159v-1316h456v1316h-157v25h544v-25h-174v-1316h174z" />
    <glyph glyph-name="afii10043" unicode="&#x429;" horiz-adv-x="2080" 
d="M1982 25v-410h-22q0 180 -100 282.5t-304 102.5h-1474v25h176v1316h-176v25h549v-25h-160v-1316h457v1316h-160v25h530v-25h-159v-1316h456v1316h-157v25h544v-25h-174v-1316h174z" />
    <glyph glyph-name="afii10044" unicode="&#x42a;" horiz-adv-x="1376" 
d="M1319 391q0 -185 -129 -288t-373 -103h-543v25h177v1316h-11q-372 0 -372 -374h-21v399h791v-25h-174v-555h163q223 0 357 -110q135 -108 135 -285zM1110 391q0 196 -71 283.5t-212 87.5h-163v-737h135q311 0 311 366z" />
    <glyph glyph-name="afii10045" unicode="&#x42b;" horiz-adv-x="1785" 
d="M1706 25v-25h-565v25h178v1316h-178v25h565v-25h-178v-1316h178zM1126 391q0 -186 -128.5 -288.5t-372.5 -102.5h-543v25h176v1316h-176v25h563v-25h-174v-555h164q222 0 356 -110q135 -108 135 -285zM918 391q0 196 -71 283.5t-212 87.5h-164v-737h133q314 0 314 366z
" />
    <glyph glyph-name="afii10046" unicode="&#x42c;" horiz-adv-x="1183" 
d="M1126 391q0 -186 -128.5 -288.5t-372.5 -102.5h-543v25h176v1316h-176v25h563v-25h-174v-555h164q222 0 356 -110q135 -108 135 -285zM918 391q0 196 -71 283.5t-212 87.5h-164v-737h133q314 0 314 366z" />
    <glyph glyph-name="afii10047" unicode="&#x42d;" horiz-adv-x="1212" 
d="M1110 694q0 -301 -174 -514t-455 -213q-189 0 -293 90q-98 91 -98 191q0 61 37.5 103t93.5 42q45 0 76 -27.5t31 -70.5q0 -29 -10 -50t-25 -32.5t-29.5 -21t-24.5 -22t-10 -28.5t10.5 -38t35 -49.5t78.5 -46.5t128 -19q248 0 328 172q33 64 48 113.5t22 127.5q8 73 8 138
q2 37 2 143v18h-498v25h498q0 215 -39 358q-32 139 -112.5 214t-223.5 79q-132 0 -242 -125q-108 -123 -108 -260h-25v402h23q9 -41 84 -41q41 0 131 22q92 25 137 25q246 0 422 -209q174 -204 174 -496z" />
    <glyph glyph-name="afii10048" unicode="&#x42e;" horiz-adv-x="1966" 
d="M1864 682q0 -293 -178 -504q-175 -211 -414 -211q-233 0 -414 211q-178 211 -178 504v18h-209v-675h160v-25h-549v25h176v1316h-176v25h549v-25h-160v-616h211q15 279 184 475q169 199 406 199q239 0 414 -211q178 -211 178 -506zM1640 682q0 68 -4 154q-4 196 -51 305
q-42 111 -116 173t-197 62q-124 0 -196.5 -62t-117.5 -173q-24 -61 -36 -150q-17 -142 -17 -309q0 -117 2 -158q0 -1 15 -153q9 -85 32 -150q25 -67 63 -118t105 -85.5t150 -29.5q214 0 293 180q29 60 43 114t20 132q12 127 12 268z" />
    <glyph glyph-name="afii10049" unicode="&#x42f;" horiz-adv-x="1298" 
d="M1217 25v-25h-588v25h198v645h-137q-138 0 -198 -49t-60 -170v-91q0 -189 -73 -280.5t-205 -91.5q-110 0 -174 67l12 17q46 -49 108 -49q54 0 84.5 43.5t30.5 117.5v154q0 166 95.5 254t279.5 88q-164 0 -279 100q-116 101 -116 236q0 147 122 248q123 102 328 102h572
v-25h-177v-1316h177zM651 694h176v647h-137q-282 0 -282 -333q0 -185 51 -248q54 -66 192 -66z" />
    <glyph glyph-name="afii10065" unicode="&#x430;" horiz-adv-x="899" 
d="M868 74l17 -13q-11 -32 -49.5 -54.5t-90.5 -22.5q-62 0 -103.5 39t-53.5 104q-20 -63 -85 -103t-149 -40q-124 0 -199 53t-75 160q0 74 27 127.5t75 78.5q81 45 162 54q13 0 23 2q213 18 213 59v158q0 192 -156 192q-90 0 -90 -77q0 -13 7 -40t7 -38q0 -31 -22.5 -50.5
t-63.5 -19.5t-62.5 24.5t-21.5 63.5q0 63 69 111.5t177 48.5q328 0 328 -371v-424q0 -69 49 -69q23 0 42 14t25 33zM580 197v278q-13 -13 -50.5 -21t-87 -13t-59.5 -7q-68 -11 -102.5 -63.5t-34.5 -173.5q0 -183 143 -183q77 0 133 56q58 58 58 127z" />
    <glyph glyph-name="afii10066" unicode="&#x431;" horiz-adv-x="1028" 
d="M520 -18q-180 0 -299 137t-119 358q0 357 43 522q47 172 146 271q139 145 467 166q109 9 129 69h20q-15 -132 -67 -178q-67 -60 -267 -72q-81 -2 -168.5 -33t-146.5 -89q-120 -114 -129 -539h4q41 132 146.5 208.5t240.5 76.5q178 0 299 -127q123 -126 123 -316
q0 -189 -123 -321q-121 -133 -299 -133zM768 436q0 157 -20 246q-21 84 -75 128t-153 44q-127 0 -186 -84q-24 -34 -39 -96q-21 -93 -21 -238v-88q6 -112 19 -166q36 -100 69 -127q66 -51 158 -51q80 5 128.5 30.5t74.5 78.5q19 39 27 68.5t12 82.5q4 74 4 84q2 18 2 88z
" />
    <glyph glyph-name="afii10067" unicode="&#x432;" horiz-adv-x="909" 
d="M838 231q0 -98 -78 -164.5t-213 -66.5h-496v25h125v823h-125v24h449q129 0 210 -53.5t81 -148.5q0 -82 -72 -142q-68 -57 -164 -63q131 -6 207 -67.5t76 -166.5zM641 666q0 101 -35.5 141.5t-126.5 40.5h-135v-371h176q69 0 95 41.5t26 147.5zM672 223q0 138 -35 185
q-33 45 -129 45h-164v-428h166q89 0 125.5 43.5t36.5 154.5z" />
    <glyph glyph-name="afii10068" unicode="&#x433;" horiz-adv-x="792" 
d="M762 872v-307h-21q0 124 -67 203.5t-191 79.5h-137v-823h166v-25h-461v25h125v823h-125v24h711z" />
    <glyph glyph-name="afii10069" unicode="&#x434;" horiz-adv-x="921" 
d="M879 25v-318h-21q0 131 -67 212t-195 81h-293q-128 0 -195 -81t-67 -212h-21v318h103q139 148 139 559v170q0 94 -45 94h-72v24h734v-24h-125v-823h125zM150 25h434v823h-252q-26 0 -35.5 -18t-9.5 -76v-170q0 -410 -137 -559z" />
    <glyph glyph-name="afii10070" unicode="&#x435;" horiz-adv-x="935" 
d="M864 492v-7h-598q-2 -10 -2 -51q0 -171 19 -258q21 -83 69 -125q56 -47 150 -47q205 0 325 184l17 -12q-126 -194 -342 -194q-178 0 -297 131t-119 321q0 193 119 324q121 133 297 133q88 0 161.5 -40.5t116.5 -105.5q84 -128 84 -253zM266 508h426q-3 246 -69 315
q-45 45 -121 45q-99 0 -150 -45q-80 -71 -86 -315z" />
    <glyph glyph-name="afii10072" unicode="&#x436;" horiz-adv-x="1382" 
d="M1366 80l16 -12q-17 -37 -65 -61.5t-94 -24.5q-97 0 -146 63.5t-49 171.5v80q0 82 -30 113.5t-111 31.5h-111v-417h125v-25h-420v25h125v417h-110q-81 0 -111.5 -31.5t-30.5 -113.5v-80q0 -108 -48.5 -171.5t-145.5 -63.5q-47 0 -95 24.5t-65 61.5l16 12q42 -60 86 -60
q47 0 62.5 28.5t15.5 96.5v54q0 59 8 96t33 76q53 86 244 86q-63 15 -84 80q-15 45 -23 125q-8 70 -34.5 125t-55.5 55q-12 0 -21 -9t-9 -20q0 -6 12 -35t12 -43q0 -34 -22 -53.5t-56 -19.5q-40 0 -63 27t-23 69q0 54 36.5 88.5t90.5 34.5q132 0 156 -211q7 -79 27 -138
q25 -65 106 -65h92v381h-125v24h420v-24h-125v-381h92q83 0 105 65q21 54 28 138q24 211 156 211q54 0 90.5 -34.5t36.5 -88.5q0 -42 -23 -69t-63 -27q-34 0 -56 19.5t-22 53.5q0 14 12.5 43t12.5 35q0 11 -9.5 20t-21.5 9q-29 0 -55.5 -55t-34.5 -125q-8 -80 -23 -125
q-21 -65 -83 -80q190 0 243 -86q25 -39 33 -76t8 -96v-54q0 -68 15.5 -96.5t62.5 -28.5q44 0 86 60z" />
    <glyph glyph-name="afii10073" unicode="&#x437;" horiz-adv-x="786" 
d="M705 231q0 -95 -105 -172q-106 -77 -262 -77q-124 0 -207.5 56.5t-83.5 143.5q0 39 30 70t73 31q31 0 52 -22t21 -52q0 -51 -33 -80q-30 -27 -30 -49q0 -27 55 -50.5t123 -23.5q201 0 201 217q0 143 -39 185q-37 43 -138 43h-73v24h86q81 0 113 44t32 163q0 184 -149 184
q-94 0 -164 -73q-68 -74 -68 -183h-22v279h22q0 -33 49 -33q19 0 91 16q71 19 104 19q124 0 205.5 -58.5t81.5 -150.5q0 -82 -65 -139t-169 -78q125 -12 197 -72t72 -162z" />
    <glyph glyph-name="afii10074" unicode="&#x438;" horiz-adv-x="1089" 
d="M1038 25v-25h-420v25h125v712l-397 -635v-77h125v-25h-420v25h125v823h-125v24h420v-24h-125v-701l397 637v64h-125v24h420v-24h-125v-823h125z" />
    <glyph glyph-name="afii10075" unicode="&#x439;" horiz-adv-x="1089" 
d="M1038 25v-25h-420v25h125v712l-397 -635v-77h125v-25h-420v25h125v823h-125v24h420v-24h-125v-701l397 637v64h-125v24h420v-24h-125v-823h125zM788 1225q0 -88 -73 -140q-73 -49 -170 -49t-170 49q-74 53 -74 140q0 40 23.5 65t66.5 25q32 0 53 -18.5t21 -49.5
q0 -36 -35 -63q-39 -26 -39 -51q0 -31 48 -51.5t106 -20.5q57 0 105 20.5t48 51.5q0 19 -43 53q-30 27 -30 61q0 31 20.5 49.5t52.5 18.5q43 0 66.5 -25t23.5 -65z" />
    <glyph glyph-name="afii10076" unicode="&#x43a;" horiz-adv-x="983" 
d="M967 80l16 -12q-17 -37 -65 -61.5t-95 -24.5q-97 0 -145.5 63.5t-48.5 171.5v80q0 82 -30.5 113.5t-111.5 31.5h-141v-417h125v-25h-420v25h125v823h-125v24h420v-24h-125v-381h123q82 0 104 65q22 57 29 138q24 211 156 211q54 0 90.5 -34.5t36.5 -88.5q0 -42 -23 -69
t-63 -27q-34 0 -56 19.5t-22 53.5q0 14 12 43t12 35q0 11 -9 20t-21 9q-29 0 -55.5 -55t-34.5 -125q-8 -80 -23 -125q-21 -65 -84 -80q191 0 244 -86q25 -39 33 -76t8 -96v-54q0 -68 15.5 -96.5t62.5 -28.5q44 0 86 60z" />
    <glyph glyph-name="afii10077" unicode="&#x43b;" horiz-adv-x="954" 
d="M903 25v-25h-440v25h145v823h-227q-47 0 -47 -82v-262q0 -520 -187 -520q-63 0 -105 42t-42 105q0 45 29.5 79t70.5 34q78 0 78 -84q0 -24 -28 -60q-27 -34 -27 -49q0 -43 37 -43q23 -3 44 14t40.5 56t33.5 97t22.5 142.5t8.5 186.5v262q0 82 -49 82h-88v24h731v-24h-125
v-823h125z" />
    <glyph glyph-name="afii10078" unicode="&#x43c;" horiz-adv-x="1224" 
d="M518 0l-336 838v-740q0 -45 11.5 -59t42.5 -14h61v-25h-256v25h63q54 0 54 73v750h-117v24h295l262 -665l268 665h308v-24h-125v-823h125v-25h-420v25h125v809l-338 -834h-23z" />
    <glyph glyph-name="afii10079" unicode="&#x43d;" horiz-adv-x="1089" 
d="M1038 25v-25h-420v25h125v417h-397v-417h125v-25h-420v25h125v823h-125v24h420v-24h-125v-381h397v381h-125v24h420v-24h-125v-823h125z" />
    <glyph glyph-name="afii10080" unicode="&#x43e;" horiz-adv-x="1028" 
d="M512 -18q-174 0 -301 133q-125 131 -125 321q0 191 125 322q127 133 301 133q176 0 303 -133t127 -322q0 -188 -127 -321t-303 -133zM768 436q0 301 -100 385q-51 45 -156 45q-103 0 -154 -45q-100 -87 -100 -385q0 -166 23.5 -252.5t76.5 -132.5q56 -47 154 -47
q100 0 156 47q55 45 77.5 130t22.5 255z" />
    <glyph glyph-name="afii10081" unicode="&#x43f;" horiz-adv-x="1089" 
d="M1038 25v-25h-420v25h125v823h-397v-823h125v-25h-420v25h125v823h-125v24h987v-24h-125v-823h125z" />
    <glyph glyph-name="afii10082" unicode="&#x440;" horiz-adv-x="1046" 
d="M963 430q0 -174 -121 -313q-120 -135 -293 -135q-121 0 -205 90v-680h125v-25h-422v25h127v1456h-127v24h297v-69q73 88 191 88q174 0 299 -143q129 -144 129 -318zM788 430q0 307 -100 391q-51 45 -153 45q-61 0 -114 -27t-77 -73v-635q22 -58 80.5 -92.5t124.5 -34.5
q88 0 139 45q100 84 100 381z" />
    <glyph glyph-name="afii10083" unicode="&#x441;" horiz-adv-x="894" 
d="M514 -18q-176 0 -303 133q-125 131 -125 321q0 191 125 322q127 133 303 133q125 0 203 -62.5t78 -146.5q0 -88 -86 -88q-38 0 -61 20.5t-23 53.5q0 14 10 47t10 55q0 55 -28.5 76.5t-102.5 21.5q-101 0 -154 -47q-55 -45 -77.5 -130t-22.5 -255t22.5 -255t77.5 -130
q53 -47 154 -47q201 0 320 180l18 -10q-125 -192 -338 -192z" />
    <glyph glyph-name="afii10084" unicode="&#x442;" horiz-adv-x="880" 
d="M850 872v-294h-21q0 270 -237 270h-68v-823h146v-25h-461v25h145v823h-65q-238 0 -238 -270h-20v294h819z" />
    <glyph glyph-name="afii10085" unicode="&#x443;" horiz-adv-x="876" 
d="M936 872v-24h-76q-36 0 -52 -15.5t-36 -70.5l-461 -1247q-32 -90 -74 -128t-106 -38q-62 0 -103.5 37t-41.5 94q0 49 27.5 81.5t68.5 32.5q38 0 61 -21t23 -52q0 -17 -20.5 -53.5t-20.5 -49.5q0 -32 51 -32q65 0 111 125l174 466l-400 871h-114v24h418v-24h-121l299 -651
l207 565q11 29 14 47t-2.5 26t-12.5 10.5t-18 2.5h-80v24h285z" />
    <glyph glyph-name="afii10086" unicode="&#x444;" horiz-adv-x="1345" 
d="M895 -18q-82 0 -137 49v-639h127v-25h-422v25h125v639q-55 -49 -137 -49q-175 0 -269 129q-96 131 -96 325q0 195 96 326q94 129 269 129q78 0 137 -53v643h-125v24h295v-667q59 53 137 53q173 0 268 -129q97 -132 97 -326q0 -193 -97 -325q-95 -129 -268 -129zM1085 403
v33q0 104 -2 131q0 42 -6 103q-3 58 -16 88q-17 52 -59 83.5t-107 24.5q-73 0 -137 -61v-739q66 -60 137 -60q66 -5 107 28t59 85q13 30 16 84q6 59 6 90q2 23 2 110zM588 66v739q-64 61 -137 61q-119 13 -168 -108q-12 -36 -17 -88q-3 -64 -6 -103v-131v-33v-110
q3 -36 6 -92q5 -46 17 -82q52 -123 168 -113q71 0 137 60z" />
    <glyph glyph-name="afii10087" unicode="&#x445;" horiz-adv-x="952" 
d="M989 25v-25h-440v25h123l-234 354l-202 -270q-58 -81 -25 -84h104v-25h-297v25h86q42 0 105 84l215 290l-297 449h-125v24h451v-24h-134l211 -320l177 234q27 36 33.5 56.5t1.5 25t-15 4.5h-106v24h301v-24h-88q-24 0 -41.5 -15t-59.5 -71l-190 -252l319 -485h127z" />
    <glyph glyph-name="afii10088" unicode="&#x446;" horiz-adv-x="1099" 
d="M1038 25v-318h-20q0 131 -67 212t-195 81h-705v25h125v823h-125v24h420v-24h-125v-823h397v823h-125v24h420v-24h-125v-823h125z" />
    <glyph glyph-name="afii10089" unicode="&#x447;" horiz-adv-x="974" 
d="M924 25v-25h-441v25h146v374q-98 -28 -191 -28q-160 0 -226.5 63t-66.5 221v193h-125v24h396v-24h-105v-258q0 -195 127 -195q100 0 191 31v422h-105v24h400v-24h-125v-823h125z" />
    <glyph glyph-name="afii10090" unicode="&#x448;" horiz-adv-x="1533" 
d="M1483 25v-25h-1432v25h125v823h-125v24h400v-24h-105v-823h336v823h-104v24h378v-24h-104v-823h336v823h-105v24h400v-24h-125v-823h125z" />
    <glyph glyph-name="afii10091" unicode="&#x449;" horiz-adv-x="1544" 
d="M1483 25v-318h-21q0 131 -67 212t-195 81h-1149v25h125v823h-125v24h400v-24h-105v-823h336v823h-104v24h378v-24h-104v-823h336v823h-105v24h400v-24h-125v-823h125z" />
    <glyph glyph-name="afii10092" unicode="&#x44a;" horiz-adv-x="1024" 
d="M973 262q0 -120 -87 -191t-245 -71h-461v25h125v823h-39q-123 0 -174 -67.5t-51 -202.5h-21v294h590v-24h-135v-338h158q149 0 244.5 -69t95.5 -179zM811 262q0 127 -39 175t-133 48h-164v-460h172q91 0 127.5 52t36.5 185z" />
    <glyph glyph-name="afii10093" unicode="&#x44b;" horiz-adv-x="1345" 
d="M1294 25v-25h-420v25h125v823h-125v24h420v-24h-125v-823h125zM844 260q0 -120 -85.5 -190t-246.5 -70h-461v25h125v823h-125v24h430v-24h-135v-340h158q149 0 244.5 -69t95.5 -179zM682 260q0 127 -39 175t-133 48h-164v-458h172q91 0 127.5 51t36.5 184z" />
    <glyph glyph-name="afii10094" unicode="&#x44c;" horiz-adv-x="894" 
d="M844 260q0 -120 -85.5 -190t-246.5 -70h-461v25h125v823h-125v24h430v-24h-135v-340h158q149 0 244.5 -69t95.5 -179zM682 260q0 127 -39 175t-133 48h-164v-458h172q91 0 127.5 51t36.5 184z" />
    <glyph glyph-name="afii10095" unicode="&#x44d;" horiz-adv-x="872" 
d="M786 436q0 -179 -120 -317q-119 -137 -297 -137q-140 0 -224 63q-84 66 -84 143q0 42 25 66.5t64 24.5q35 0 58 -22.5t23 -53.5q0 -14 -11 -45.5t-11 -53.5q0 -98 160 -98q125 0 186 90q26 44 37 103q20 98 20 243h-299v25h299q0 399 -221 399q-106 0 -177 -69t-71 -187
h-22v287h24q0 -43 48 -43q5 0 79.5 18.5t128.5 18.5q155 0 269 -135q116 -131 116 -320z" />
    <glyph glyph-name="afii10096" unicode="&#x44e;" horiz-adv-x="1437" 
d="M516 436v6h-170v-417h125v-25h-420v25h125v823h-125v24h420v-24h-125v-381h170q12 177 133 301q123 123 283 123q169 0 295 -135q125 -131 125 -320q0 -185 -127 -321q-127 -133 -293 -133t-293 133q-126 135 -123 321zM1178 436q0 98 -7.5 159.5t-29.5 127.5
q-48 143 -209 143q-62 0 -109.5 -26.5t-74.5 -67.5q-25 -42 -39 -102q-21 -96 -21 -234q0 -130 19 -235q21 -94 73 -142.5t152 -54.5q164 0 211 146q22 68 28.5 126.5t6.5 159.5z" />
    <glyph glyph-name="afii10097" unicode="&#x44f;" horiz-adv-x="942" 
d="M891 25v-25h-440v25h145v391h-141q-81 0 -108.5 -29.5t-27.5 -114.5v-47q0 -120 -51 -179.5t-139 -59.5q-100 0 -147 47l16 18q37 -37 70 -37q35 0 55 26t20 73v77q0 117 53.5 178.5t178.5 61.5q-95 0 -168 64q-72 66 -72 151q0 99 83 163t218 64h455v-24h-125v-823h125z
M451 440h145v408h-133q-88 0 -125 -46t-37 -161q0 -119 30 -160t120 -41z" />
    <glyph glyph-name="afii10071" unicode="&#x451;" horiz-adv-x="935" 
d="M864 492v-7h-598q-2 -10 -2 -51q0 -171 19 -258q21 -83 69 -125q56 -47 150 -47q205 0 325 184l17 -12q-126 -194 -342 -194q-178 0 -297 131t-119 321q0 193 119 324q121 133 297 133q88 0 161.5 -40.5t116.5 -105.5q84 -128 84 -253zM266 508h426q-3 246 -69 315
q-45 45 -121 45q-99 0 -150 -45q-80 -71 -86 -315zM756 1204q0 -38 -27 -66t-65 -28q-37 0 -64 28t-27 66q0 41 27 68.5t64 27.5q39 0 65.5 -27.5t26.5 -68.5zM403 1204q0 -38 -26.5 -66t-63.5 -28q-38 0 -65 28t-27 66q0 41 26.5 68.5t65.5 27.5q37 0 63.5 -27.5
t26.5 -68.5z" />
    <glyph glyph-name="afii10099" unicode="&#x452;" horiz-adv-x="1067" 
d="M915 549v-580q0 -320 -77 -461t-240 -141q-72 0 -126 45.5t-54 108.5q0 41 26.5 68.5t65.5 27.5q42 0 65 -19t23 -51q0 -14 -13.5 -45.5t-13.5 -52.5q0 -53 70 -53q102 0 102 242v1019q0 95 -49.5 152t-115.5 57q-175 0 -234 -188v-653h125v-25h-422v25h127v1032h-127v24
h127v400h-127v24h297v-424h352v-24h-352v-326q25 79 88.5 119.5t145.5 40.5q159 0 248 -89.5t89 -252.5z" />
    <glyph glyph-name="afii10100" unicode="&#x453;" horiz-adv-x="792" 
d="M762 872v-307h-21q0 124 -67 203.5t-191 79.5h-137v-823h166v-25h-461v25h125v823h-125v24h711zM313 1055l-6 6l244 260q51 55 63 62q11 6 33 10q29 0 48.5 -20.5t19.5 -47.5q0 -33 -51 -59z" />
    <glyph glyph-name="afii10101" unicode="&#x454;" horiz-adv-x="872" 
d="M502 -18q-180 0 -299 131t-119 323q0 187 115 320q117 135 270 135q54 0 129 -13.5t80 -13.5q47 0 47 33h25v-287h-23q0 121 -68 188.5t-180 67.5q-221 0 -221 -399h299v-25h-299q0 -162 18 -256q20 -91 72 -132.5t154 -47.5q196 0 319 182l19 -12q-124 -191 -338 -194z
" />
    <glyph glyph-name="afii10102" unicode="&#x455;" horiz-adv-x="765" 
d="M702 270q0 -132 -76 -210t-214 -78q-67 0 -129 26q-69 29 -93 29q-23 0 -43.5 -12.5t-27.5 -26.5h-23l10 303h23q-3 -118 80 -207q82 -88 203 -88q92 0 143 45.5t51 132.5q0 74 -50 113.5t-183 83.5q-123 40 -181.5 96.5t-58.5 147.5q0 119 70 192.5t172 73.5
q27 0 83 -13.5t85 -13.5q37 0 43 33h22v-246h-22q0 94 -66 154q-64 61 -145 61q-75 0 -117.5 -37.5t-42.5 -103.5q0 -72 51.5 -113.5t177.5 -79.5q258 -77 258 -262z" />
    <glyph glyph-name="afii10103" unicode="&#x456;" horiz-adv-x="542" 
d="M494 25v-25h-422v25h125v823h-125v24h295v-847h127zM281 1133q-41 0 -71 31t-30 75t30 75.5t71 31.5q43 0 72.5 -31.5t29.5 -75.5t-29.5 -75t-72.5 -31z" />
    <glyph glyph-name="afii10104" unicode="&#x457;" horiz-adv-x="542" 
d="M549 1204q0 -38 -27 -66t-65 -28q-37 0 -63.5 28t-26.5 66q0 41 26.5 68.5t63.5 27.5q39 0 65.5 -27.5t26.5 -68.5zM197 1204q0 -38 -27 -66t-64 -28q-38 0 -65 28t-27 66q0 41 26.5 68.5t65.5 27.5q37 0 64 -27.5t27 -68.5zM494 25v-25h-422v25h125v823h-125v24h295
v-847h127z" />
    <glyph glyph-name="afii10105" unicode="&#x458;" horiz-adv-x="548" 
d="M367 872v-919q0 -320 -77.5 -461t-240.5 -141q-72 0 -126 45t-54 108q0 41 27 69t65 28q42 0 65 -19t23 -51q0 -15 -13 -46t-13 -52q0 -54 69 -54q105 0 105 242v1229h-125v22h295zM281 1133q-41 0 -71 31t-30 75t30 75.5t71 31.5q43 0 72.5 -31.5t29.5 -75.5t-29.5 -75
t-72.5 -31z" />
    <glyph glyph-name="afii10106" unicode="&#x459;" horiz-adv-x="1327" 
d="M1276 260q0 -120 -85.5 -190t-246.5 -70h-481v25h145v823h-239q-23 0 -29 -16.5t-6 -65.5v-262q0 -520 -187 -520q-63 0 -105 42t-42 105q0 45 29.5 79t70.5 34q78 0 78 -84q0 -24 -28 -60q-27 -34 -27 -49q0 -43 37 -43q23 -3 44 14t40.5 56t33.5 97t22.5 142.5
t8.5 186.5v262q0 47 -4 59q-3 23 -33 23h-100v24h741v-24h-135v-340h158q149 0 244.5 -69t95.5 -179zM1114 260q0 127 -39 175t-133 48h-164v-458h172q91 0 127.5 51t36.5 184z" />
    <glyph glyph-name="afii10107" unicode="&#x45a;" horiz-adv-x="1462" 
d="M1411 250q0 -113 -87 -181.5t-245 -68.5h-461v25h125v438h-397v-438h125v-25h-420v25h125v823h-125v24h420v-24h-125v-361h397v361h-125v24h431v-24h-136v-361h158q149 0 244.5 -66t95.5 -171zM1249 250q0 116 -40 164.5t-132 48.5h-164v-438h172q87 0 125.5 53t38.5 172
z" />
    <glyph glyph-name="afii10108" unicode="&#x45b;" horiz-adv-x="1067" 
d="M1040 25v-25h-422v25h125v632q0 95 -49.5 152t-115.5 57q-175 0 -234 -188v-653h125v-25h-422v25h127v1034h-127v24h127v398h-127v24h297v-422h352v-24h-352v-328q25 79 88.5 119.5t145.5 40.5q159 0 248 -89.5t89 -252.5v-524h125z" />
    <glyph glyph-name="afii10109" unicode="&#x45c;" horiz-adv-x="983" 
d="M967 80l16 -12q-17 -37 -65 -61.5t-95 -24.5q-97 0 -145.5 63.5t-48.5 171.5v80q0 82 -30.5 113.5t-111.5 31.5h-141v-417h125v-25h-420v25h125v823h-125v24h420v-24h-125v-381h123q82 0 104 65q22 57 29 138q24 211 156 211q54 0 90.5 -34.5t36.5 -88.5q0 -42 -23 -69
t-63 -27q-34 0 -56 19.5t-22 53.5q0 14 12 43t12 35q0 11 -9 20t-21 9q-29 0 -55.5 -55t-34.5 -125q-8 -80 -23 -125q-21 -65 -84 -80q191 0 244 -86q25 -39 33 -76t8 -96v-54q0 -68 15.5 -96.5t62.5 -28.5q44 0 86 60zM377 1055l-6 6l243 260q45 48 57.5 58t39.5 14
q26 0 46.5 -21t20.5 -47q0 -33 -51 -59z" />
    <glyph glyph-name="afii10110" unicode="&#x45e;" horiz-adv-x="876" 
d="M936 872v-24h-76q-36 0 -52 -15.5t-36 -70.5l-461 -1247q-32 -90 -74 -128t-106 -38q-62 0 -103.5 37t-41.5 94q0 49 27.5 81.5t68.5 32.5q38 0 61 -21t23 -52q0 -17 -20.5 -53.5t-20.5 -49.5q0 -32 51 -32q65 0 111 125l174 466l-400 871h-114v24h418v-24h-121l299 -651
l207 565q11 29 14 47t-2.5 26t-12.5 10.5t-18 2.5h-80v24h285zM754 1225q0 -87 -74 -140q-73 -49 -170 -49t-170 49q-74 53 -74 140q0 40 23.5 65t66.5 25q32 0 53 -18.5t21 -49.5q0 -36 -35 -63q-39 -26 -39 -51q0 -31 48 -51.5t106 -20.5t106 20.5t48 51.5q0 19 -43 53
q-31 28 -31 61q0 31 21 49.5t53 18.5q43 0 66.5 -25t23.5 -65z" />
    <glyph glyph-name="afii10193" unicode="&#x45f;" horiz-adv-x="1089" 
d="M532 -12v12h-481v25h125v823h-125v24h420v-24h-125v-823h397v823h-125v24h420v-24h-125v-823h125v-25h-481v-10q0 -51 37 -103q39 -51 39 -94q3 -56 -42.5 -79.5t-91 0t-42.5 79.5q0 38 37 90q38 49 38 105z" />
    <glyph glyph-name="afii10050" unicode="&#x490;" horiz-adv-x="1071" 
d="M1028 1761v-420h-559v-1316h176v-25h-563v25h176v1316h-176v25h553q181 0 276 106.5t95 288.5h22z" />
    <glyph glyph-name="afii10098" unicode="&#x491;" horiz-adv-x="782" 
d="M762 1155v-307h-416v-823h166v-25h-461v25h125v823h-125v24h432q124 0 191 79.5t67 203.5h21z" />
    <glyph glyph-name="Wgrave" unicode="&#x1e80;" horiz-adv-x="1910" 
d="M657 -29h-22l-524 1370h-187v25h592v-25h-174l397 -1062l238 729l-119 333h-160v25h588v-25h-207l373 -1067l328 996q7 24 6.5 38t-10.5 21.5t-17.5 9.5t-13.5 2h-129v25h387v-25h-119q-33 0 -51 -16t-35 -65l-426 -1289h-24l-357 1006zM825 1774l244 -261l-6 -6
l-350 211q-51 26 -51 60q0 29 19 48t48 19q21 0 37.5 -12t58.5 -59z" />
    <glyph glyph-name="wgrave" unicode="&#x1e81;" horiz-adv-x="1409" 
d="M471 -16h-27l-378 864h-119v24h411v-24h-120l286 -645l176 491l-67 154h-105v24h404v-24h-127l287 -643l200 557q19 51 14.5 68.5t-40.5 17.5h-76v24h285v-24h-76q-34 0 -49 -16.5t-35 -69.5l-277 -778h-26l-299 682zM575 1321l244 -260l-6 -6l-350 211q-51 26 -51 59
q0 27 19.5 47.5t47.5 20.5q20 0 36.5 -12.5t59.5 -59.5z" />
    <glyph glyph-name="Wacute" unicode="&#x1e82;" horiz-adv-x="1910" 
d="M657 -29h-22l-524 1370h-187v25h592v-25h-174l397 -1062l238 729l-119 333h-160v25h588v-25h-207l373 -1067l328 996q7 24 6.5 38t-10.5 21.5t-17.5 9.5t-13.5 2h-129v25h387v-25h-119q-33 0 -51 -16t-35 -65l-426 -1289h-24l-357 1006zM879 1507l-7 6l244 261
q45 48 57 57.5t39 13.5q29 0 48.5 -19t19.5 -48q0 -34 -51 -60z" />
    <glyph glyph-name="wacute" unicode="&#x1e83;" horiz-adv-x="1409" 
d="M471 -16h-27l-378 864h-119v24h411v-24h-120l286 -645l176 491l-67 154h-105v24h404v-24h-127l287 -643l200 557q19 51 14.5 68.5t-40.5 17.5h-76v24h285v-24h-76q-34 0 -49 -16.5t-35 -69.5l-277 -778h-26l-299 682zM608 1055l-6 6l244 260q51 55 63 62q11 6 33 10
q29 0 48.5 -20.5t19.5 -47.5q0 -32 -52 -59z" />
    <glyph glyph-name="Wdieresis" unicode="&#x1e84;" horiz-adv-x="1910" 
d="M657 -29h-22l-524 1370h-187v25h592v-25h-174l397 -1062l238 729l-119 333h-160v25h588v-25h-207l373 -1067l328 996q7 24 6.5 38t-10.5 21.5t-17.5 9.5t-13.5 2h-129v25h387v-25h-119q-33 0 -51 -16t-35 -65l-426 -1289h-24l-357 1006zM813 1536q-41 0 -70.5 31
t-29.5 75t29.5 75.5t70.5 31.5q43 0 72.5 -31.5t29.5 -75.5t-29.5 -75t-72.5 -31zM1188 1536q-41 0 -71 31t-30 75t30 75.5t71 31.5q43 0 72.5 -31.5t29.5 -75.5t-29.5 -75t-72.5 -31z" />
    <glyph glyph-name="wdieresis" unicode="&#x1e85;" horiz-adv-x="1409" 
d="M471 -16h-27l-378 864h-119v24h411v-24h-120l286 -645l176 491l-67 154h-105v24h404v-24h-127l287 -643l200 557q19 51 14.5 68.5t-40.5 17.5h-76v24h285v-24h-76q-34 0 -49 -16.5t-35 -69.5l-277 -778h-26l-299 682zM971 1204q0 -38 -27 -66t-65 -28q-37 0 -64 28
t-27 66q0 41 27 68.5t64 27.5q39 0 65.5 -27.5t26.5 -68.5zM618 1204q0 -38 -26.5 -66t-63.5 -28q-38 0 -65 28t-27 66q0 41 26.5 68.5t65.5 27.5q37 0 63.5 -27.5t26.5 -68.5z" />
    <glyph glyph-name="Ygrave" unicode="&#x1ef2;" horiz-adv-x="1214" 
d="M932 0h-567v25h178v571l-373 745h-188v25h622v-25h-201l345 -692l278 611q37 81 -27 81h-131v25h385v-25h-112q-55 0 -99 -92l-288 -639v-585h178v-25zM457 1774l243 -261l-6 -6l-350 211q-51 26 -51 60q0 29 19 48t48 19q21 0 38 -12.5t59 -58.5z" />
    <glyph glyph-name="ygrave" unicode="&#x1ef3;" horiz-adv-x="876" 
d="M131 -651q-62 0 -103.5 37t-41.5 94q0 49 27.5 81.5t68.5 32.5q38 0 61 -21t23 -52q0 -17 -20.5 -53.5t-20.5 -49.5q0 -32 51 -32q65 0 111 125l174 466l-400 871h-114v24h418v-24h-121l299 -651l207 565q11 29 14 47t-2.5 26t-12.5 10.5t-18 2.5h-80v24h285v-24h-76
q-36 0 -52 -15.5t-36 -70.5l-461 -1247q-32 -90 -74 -128t-106 -38zM371 1321l243 -260l-6 -6l-350 211q-51 26 -51 59q0 27 19.5 47.5t47.5 20.5q20 0 37.5 -12.5t59.5 -59.5z" />
    <glyph glyph-name="endash" unicode="&#x2013;" horiz-adv-x="1024" 
d="M999 496v-25h-974v25h974z" />
    <glyph glyph-name="emdash" unicode="&#x2014;" horiz-adv-x="2048" 
d="M1999 496v-25h-1952v25h1952z" />
    <glyph glyph-name="quoteleft" unicode="&#x2018;" horiz-adv-x="342" 
d="M272 1518l7 -19q-50 -20 -80.5 -56t-30.5 -73q0 -34 45 -82q45 -45 45 -88q0 -37 -25.5 -64.5t-60.5 -27.5q-42 0 -66 31.5t-24 85.5q0 80 57 172q61 98 133 121z" />
    <glyph glyph-name="quoteright" unicode="&#x2019;" horiz-adv-x="342" 
d="M260 1401q0 -80 -57 -172q-61 -98 -133 -121l-7 18q111 52 111 129q0 33 -47 80q-45 45 -45 90q0 37 26 65t62 28q42 0 66 -31.5t24 -85.5z" />
    <glyph glyph-name="quotesinglbase" unicode="&#x201a;" horiz-adv-x="342" 
d="M260 53q0 -80 -57 -172q-61 -98 -133 -121l-7 21q44 13 77.5 53t33.5 76q0 33 -47 80q-45 45 -45 90q0 37 26 64.5t62 27.5q43 0 66.5 -31.5t23.5 -87.5z" />
    <glyph glyph-name="quotedblleft" unicode="&#x201c;" horiz-adv-x="598" 
d="M522 1518l6 -19q-50 -20 -80 -56t-30 -73q0 -33 45 -78t45 -92q0 -37 -25 -64.5t-61 -27.5q-42 0 -66 31.5t-24 85.5q0 80 57 172q61 98 133 121zM266 1518l6 -19q-50 -20 -80 -56t-30 -73q0 -34 45 -82q45 -45 45 -88q0 -37 -25.5 -64.5t-60.5 -27.5q-42 0 -66 31.5
t-24 85.5q0 80 57 172q61 98 133 121z" />
    <glyph glyph-name="quotedblright" unicode="&#x201d;" horiz-adv-x="598" 
d="M522 1401q0 -80 -57 -172q-61 -98 -133 -121l-6 18q110 52 110 129q0 33 -47 80q-45 45 -45 90q0 37 26 65t62 28q42 0 66 -31.5t24 -85.5zM266 1401q0 -80 -57 -172q-61 -98 -133 -121l-6 18q110 52 110 129q0 33 -47 80q-45 45 -45 90q0 37 26 65t62 28q42 0 66 -31.5
t24 -85.5z" />
    <glyph glyph-name="quotedblbase" unicode="&#x201e;" horiz-adv-x="598" 
d="M522 53q0 -80 -57 -172q-61 -98 -133 -121l-6 21q43 13 76.5 53t33.5 76q0 33 -47 80q-45 45 -45 90q0 37 26 64.5t62 27.5q43 0 66.5 -31.5t23.5 -87.5zM266 53q0 -80 -57 -172q-61 -98 -133 -121l-6 21q43 13 76.5 53t33.5 76q0 33 -47 80q-45 45 -45 90q0 37 26 64.5
t62 27.5q43 0 66.5 -31.5t23.5 -87.5z" />
    <glyph glyph-name="dagger" unicode="&#x2020;" horiz-adv-x="1024" 
d="M909 928q0 -38 -22 -64t-56 -26q-38 0 -131 43t-145 43q-27 0 -33 -2v-27q0 -242 96 -358q-98 -295 -98 -828h-18q0 529 -99 828q97 117 97 358v27q-6 2 -33 2q-52 0 -145 -43t-132 -43q-34 0 -55.5 26t-21.5 64q0 39 25 65.5t63 26.5q27 0 94 -25q143 -57 205 -57v41
q0 49 -13 94q-7 21 -12 41q-1 4 -3.5 11t-7.5 19.5l-9 22.5q-5 13 -12 33t-9 25q-18 53 -18 75q0 42 27 70.5t69 28.5q41 0 67.5 -28.5t26.5 -70.5q0 -22 -18 -75q-21 -51 -23 -58q-16 -43 -18 -53q-25 -73 -25 -135v-41q62 0 205 57q67 25 94 25q38 0 63 -26.5t25 -65.5z
" />
    <glyph glyph-name="daggerdbl" unicode="&#x2021;" horiz-adv-x="1024" 
d="M909 170q0 -39 -25 -65.5t-63 -26.5q-29 0 -94 24q-143 58 -199 58h-6v-31q0 -58 10 -106q9 -32 48 -129q26 -62 26 -97q0 -40 -26 -69t-66 -29q-44 0 -71 28t-27 70q0 35 26 97q38 93 45 129q13 47 13 106v31h-6q-56 0 -199 -58q-65 -24 -94 -24q-38 0 -63 26.5
t-25 65.5q0 37 20 63q21 27 57 27q37 0 144 -43q85 -43 145 -43q17 0 21 2v35q0 216 -90 338q90 122 90 338v35q-4 2 -21 2q-60 0 -145 -43q-107 -43 -144 -43q-34 0 -55.5 26t-21.5 64q0 39 25 65.5t63 26.5q27 0 94 -25q140 -57 199 -57h6v31q0 59 -13 106q-7 36 -45 129
q-26 62 -26 96q0 42 27.5 70.5t70.5 28.5q40 0 66 -29.5t26 -69.5q0 -34 -26 -96q-39 -97 -48 -129q-10 -48 -10 -106v-31h6q59 0 199 57q67 25 94 25q38 0 63 -26.5t25 -65.5q0 -38 -22 -64t-56 -26q-36 0 -143 43q-85 43 -145 43q-17 0 -21 -2v-35q0 -216 90 -338
q-90 -122 -90 -338v-35q4 -2 21 -2q60 0 145 43q107 43 143 43q34 0 56 -26t22 -64z" />
    <glyph glyph-name="bullet" unicode="&#x2022;" horiz-adv-x="602" 
d="M500 682q0 -81 -60 -147q-59 -62 -139 -62q-82 0 -140.5 61.5t-58.5 147.5q0 88 57.5 148.5t141.5 60.5q82 0 140.5 -61t58.5 -148z" />
    <glyph glyph-name="ellipsis" unicode="&#x2026;" horiz-adv-x="1325" 
d="M121 74q0 43 30.5 72.5t73.5 29.5t74 -30t31 -72q3 -64 -50.5 -90t-107.5 0t-51 90zM559 74q0 42 31 72t74 30t73.5 -29.5t30.5 -72.5q3 -64 -50.5 -90t-107.5 0t-51 90zM997 74q0 42 31 72t74 30t73.5 -29.5t30.5 -72.5q3 -64 -51 -90t-107.5 0t-50.5 90z" />
    <glyph glyph-name="perthousand" unicode="&#x2030;" horiz-adv-x="1988" 
d="M365 705q-129 0 -211 98q-82 101 -82 241q0 144 82 242t211 98q131 0 213 -98q84 -101 84 -242q0 -140 -84 -241q-82 -98 -213 -98zM520 1044q0 188 -33 250q-30 68 -122 68q-86 0 -121 -68q-33 -62 -33 -250q0 -191 35 -256q34 -61 119 -61q86 0 120 61q35 62 35 256z
M956 -16q-129 0 -211 98q-81 100 -81 242q0 144 81 241q83 99 211 99q130 0 213 -99q84 -101 84 -241q0 -141 -84 -242q-82 -98 -213 -98zM1112 324q0 187 -33 249q-30 68 -123 68q-85 0 -120 -68q-33 -62 -33 -249q0 -191 35 -256q35 -62 118 -62q86 0 121 62t35 256z
M1051 1411l20 -14l-833 -1444l-21 14zM1620 -16q-129 0 -211 98q-82 101 -82 242q0 143 82 241q83 99 211 99q130 0 213 -99q84 -101 84 -241q0 -141 -84 -242q-82 -98 -213 -98zM1776 324q0 187 -33 249q-30 68 -123 68q-86 0 -121 -68q-33 -62 -33 -249q0 -191 35 -256
q35 -62 119 -62q86 0 121 62t35 256z" />
    <glyph glyph-name="guilsinglleft" unicode="&#x2039;" horiz-adv-x="464" 
d="M387 123h-29q0 55 -33 113.5t-87 101.5q-83 72 -156 113v8q45 23 98 61q55 43 115 117q63 75 63 151h29q0 -90 -49 -184q-52 -99 -102 -149q49 -49 102 -150q49 -94 49 -182z" />
    <glyph glyph-name="guilsinglright" unicode="&#x203a;" horiz-adv-x="464" 
d="M383 459v-8q-64 -36 -158 -113q-53 -44 -86 -102.5t-33 -112.5h-28q0 88 49 182q53 101 102 150q-50 50 -102 149q-49 94 -49 184h28q0 -74 62 -151q30 -37 59.5 -66t59 -50.5t48 -33t48.5 -28.5z" />
    <glyph glyph-name="fraction" unicode="&#x2044;" horiz-adv-x="1024" 
d="M915 1395l23 -11l-819 -1417l-21 13z" />
    <glyph glyph-name="four.superior" unicode="&#x2074;" horiz-adv-x="675" 
d="M590 569v-22h-305v22h90v250h-301v15q57 80 84 133l217 399q35 -12 92 14q61 28 88 58l14 -13l-467 -583h273v116q34 2 66 35t38 80h23v-231h131v-23h-131v-250h88z" />
    <glyph glyph-name="one.inferior" unicode="&#x2081;" horiz-adv-x="675" 
d="M510 23v-23h-307v23h90v774h-90v22h219v-796h88z" />
    <glyph glyph-name="two.inferior" unicode="&#x2082;" horiz-adv-x="675" 
d="M319 813q-44 0 -74 -18.5t-30 -53.5q0 -7 5 -26t5 -23q0 -18 -15.5 -30.5t-43.5 -12.5q-27 0 -41 17.5t-14 42.5q0 42 63 82q64 40 145 40q113 0 186 -53.5t73 -156.5q0 -59 -33 -109q-29 -48 -117 -133q-82 -83 -123 -129l-139 -162v-6h258q115 0 115 106h20v-188h-477
v16l197 238q100 118 131 190q32 65 32 187q0 99 -28.5 140.5t-94.5 41.5z" />
    <glyph glyph-name="three.inferior" unicode="&#x2083;" horiz-adv-x="675" 
d="M584 240q0 -112 -95 -183q-91 -67 -200 -67q-83 0 -138 31.5t-55 76.5q0 27 15 46.5t43 19.5q57 0 57 -43q0 -7 -5 -29t-5 -29q0 -51 88 -51q89 0 124.5 44t35.5 173q0 121 -28 170.5t-83 49.5q-42 0 -113 -39l-10 16q105 54 143 104q39 48 39 144q0 78 -20.5 104.5
t-77.5 26.5q-72 0 -72 -49q0 -9 6.5 -26t6.5 -21q0 -22 -16 -38t-44 -16q-55 0 -55 58q0 40 53.5 76t120.5 36q107 0 168 -40.5t61 -120.5q0 -63 -65 -116.5t-166 -88.5q33 8 49 8q106 0 172 -66t66 -161z" />
    <glyph glyph-name="four.inferior" unicode="&#x2084;" horiz-adv-x="675" 
d="M590 23v-23h-305v23h90v249h-301v15q57 80 84 133l217 399q34 -12 92 15q63 29 88 57l14 -12l-467 -584h273v117q34 2 66 34.5t38 79.5h23v-231h131v-23h-131v-249h88z" />
    <glyph glyph-name="Euro" unicode="&#x20ac;" horiz-adv-x="1046" 
d="M23 772v25h129q27 272 165 436q141 166 353 166q141 0 211 -64q71 -62 71 -133q0 -38 -30 -69t-68 -31q-86 0 -86 74q0 15 19.5 54t19.5 56q0 40 -41.5 65t-95.5 25q-176 0 -240 -188q-52 -148 -61 -391h383v-25h-383v-76v-75h383v-25h-383q3 -246 57 -406
q64 -182 236 -182q94 0 158 41.5t122 130.5l21 -16q-116 -180 -301 -180q-206 0 -347 170q-142 171 -163 442h-129v25h127q-3 21 -3 67q0 57 3 84h-127z" />
    <glyph glyph-name="afii61289" unicode="&#x2113;" horiz-adv-x="774" 
d="M502 43q81 0 190 92l19 -24q-137 -140 -289 -140q-125 0 -186.5 72t-61.5 223v201l-129 -129l-20 22l149 152v485q0 223 88 351q88 129 219 129q91 0 137 -63.5t46 -178.5q0 -150 -75.5 -296.5t-244.5 -324.5v-350q0 -221 158 -221zM553 1264q0 80 -31 133t-78 53
q-43 0 -71.5 -51t-28.5 -142v-598q98 116 154 287q55 168 55 318z" />
    <glyph glyph-name="afii61352" unicode="&#x2116;" horiz-adv-x="1628" 
d="M1311 475q-88 0 -152 70q-65 71 -65 174q0 101 65 172q64 70 152 70q91 0 155 -70q66 -72 66 -172q0 -102 -66 -174q-64 -70 -155 -70zM1536 373v-25h-444v25h444zM1401 659v60q0 129 -17 178q-15 43 -73 43q-86 0 -86 -180v-96q0 -166 86 -166q90 0 90 161zM342 25h107
v-25h-375v25h106q68 0 68 59v1257h-174v25h352l549 -1032v950q0 57 -70 57h-106v25h375v-25h-105q-72 0 -72 -57v-1284h-39l-686 1323v-1239q0 -59 70 -59z" />
    <glyph glyph-name="trademark" unicode="&#x2122;" horiz-adv-x="1712" 
d="M690 1366v-250h-12q0 109 -57.5 172.5t-171.5 63.5h-27v-791h106v-14h-338v14h105v791h-25q-223 0 -223 -236h-12v250h655zM840 598v754h-105v14h238l233 -637l209 637h236v-14h-107v-791h107v-14h-338v14h106v766l-258 -780h-24l-283 782v-731q0 -37 41 -37h63v-14h-223
v14h64q41 0 41 37z" />
    <glyph glyph-name="Omega" unicode="&#x2126;" horiz-adv-x="1470" 
d="M344 852q0 -225 66 -348q67 -116 254 -162v-342h-517l-22 377h18q6 -17 17 -68q16 -63 30 -90q14 -25 50 -34t108 -9h293v152q-211 27 -367 174q-151 145 -151 350q0 257 176 401q181 146 436 146q256 0 434 -146q179 -144 179 -401q0 -205 -154 -350
q-153 -147 -365 -174v-152h293q72 0 108 9t50 34q13 23 16 35q3 9 14.5 57.5t16.5 65.5h19l-23 -377h-516v342q188 47 252 162q67 119 67 348q0 270 -90.5 397t-300.5 127t-300.5 -127t-90.5 -397z" />
    <glyph glyph-name="estimated" unicode="&#x212e;" horiz-adv-x="1228" 
d="M1149 530h-827v-370q121 -121 296 -121q252 0 396 246l71 -43q-94 -149 -201 -213t-266 -64q-236 0 -382 162q-146 166 -146 403q0 243 146 404q143 162 382 162q235 0 381 -158q147 -156 150 -408zM322 901v-297h596v297q-129 123 -302 123q-171 0 -294 -123z" />
    <glyph glyph-name="partialdiff" unicode="&#x2202;" horiz-adv-x="1099" 
d="M958 745q0 -206 -55 -391q-22 -81 -55.5 -147t-81.5 -120t-114.5 -84t-145.5 -30q-177 0 -287 140q-108 141 -108 325q0 182 104 301q106 121 285 121q187 0 344 -160v62q0 206 -37 336t-120 213.5t-195 83.5q-150 0 -244 -107l-62 78q133 109 285 109q133 0 234 -68
t153 -186q100 -208 100 -476zM840 621q-156 163 -316 163q-149 0 -227 -106q-80 -109 -80 -260q0 -140 78 -256q79 -113 217 -113q69 0 127.5 41t93.5 103q34 58 55 145q38 140 52 283z" />
    <glyph glyph-name="increment" unicode="&#x2206;" horiz-adv-x="1263" 
d="M629 1395l565 -1395h-1124l536 1395h23zM532 1110l-423 -1085h849z" />
    <glyph glyph-name="product" unicode="&#x220f;" horiz-adv-x="1593" 
d="M1524 -414v-24h-545v24q98 0 129 17q20 16 28.5 41.5t8.5 76.5v1752q0 72 -20 92t-93 20h-483q-60 0 -81.5 -15.5t-21.5 -68.5v-1780q0 -56 7 -82t30 -36q26 -12 46.5 -14.5t82.5 -2.5v-24h-542v24q68 0 86 2t41 13q24 11 30 35t6 85v1768q0 70 -55 84q-47 12 -108 12v25
h1454v-25q-62 0 -83 -2.5t-44 -13.5q-24 -11 -31.5 -38.5t-7.5 -84.5v-1768q0 -83 104 -92h62z" />
    <glyph glyph-name="summation" unicode="&#x2211;" horiz-adv-x="1478" 
d="M1327 -27h27l-21 -411h-1245l664 1091l-643 957h1185l23 -396h-27q-14 128 -64 184t-165 56h-805l537 -801l-557 -923h839q86 0 127 9t66 40t35.5 67.5t23.5 126.5z" />
    <glyph glyph-name="minus" unicode="&#x2212;" horiz-adv-x="1228" 
d="M1124 551v-111h-1024v111h1024z" />
    <glyph glyph-name="uni2219" unicode="&#x2219;" horiz-adv-x="358" 
d="M285 725q0 -44 -30 -76.5t-73 -32.5q-41 0 -70.5 32.5t-29.5 76.5q0 43 29.5 73.5t70.5 30.5q43 0 73 -30.5t30 -73.5z" />
    <glyph glyph-name="radical" unicode="&#x221a;" horiz-adv-x="985" 
d="M817 1610h88l-368 -2048h-105l-326 725l-94 -43l-39 73l191 86l315 -706z" />
    <glyph glyph-name="infinity" unicode="&#x221e;" horiz-adv-x="1517" 
d="M1413 504q0 -134 -88 -225q-90 -93 -219 -93q-109 0 -181.5 53.5t-156.5 178.5q-83 -113 -164 -168t-184 -55q-132 0 -223 88q-93 90 -93 219q0 136 89 225q89 92 221 92q183 0 338 -233q14 17 30 37t25.5 32t15.5 19q15 17 70 65q46 41 92.5 57.5t108.5 16.5
q139 0 227 -88q92 -86 92 -221zM1112 713q-24 0 -82 -23q-23 -10 -78 -59q-9 -8 -37.5 -38.5t-31.5 -33.5q-4 -6 -18.5 -22.5t-26.5 -30.5t-13 -17q135 -206 279 -206q84 0 149 65q64 67 64 154t-59.5 149t-145.5 62zM694 518q-97 124 -141 156q-66 51 -139 51
q-87 0 -150 -65.5t-63 -153.5q0 -87 60.5 -149t146.5 -62q124 0 286 223z" />
    <glyph glyph-name="integral" unicode="&#x222b;" horiz-adv-x="1099" 
d="M840 1520q0 -29 -19.5 -47.5t-48.5 -18.5q-24 0 -40.5 19.5t-23.5 43t-15 43t-17 19.5q-45 0 -66 -92q-16 -78 -16 -230v-1091q0 -195 -47 -365q-27 -111 -92.5 -175t-157.5 -64q-47 0 -81 24.5t-34 65.5q0 29 19.5 48t48.5 19q23 0 39.5 -18t23.5 -39t15 -39t16 -18
q80 0 80 385v1044q0 576 291 576q55 0 90 -22.5t35 -67.5z" />
    <glyph glyph-name="approxequal" unicode="&#x2248;" horiz-adv-x="1228" 
d="M1071 811h82q-14 -122 -78 -197t-170 -75q-98 0 -299 75q-204 76 -274 76q-65 0 -110 -48t-56 -120h-84q41 277 252 277q90 0 291 -76q207 -74 282 -74q134 0 164 162zM1071 471h82q-14 -124 -78 -198t-172 -74q-96 0 -297 75q-204 76 -276 76q-65 0 -109 -48t-55 -120
h-84q41 277 252 277q95 0 293 -76q201 -74 278 -74q129 0 166 162z" />
    <glyph glyph-name="notequal" unicode="&#x2260;" horiz-adv-x="1228" 
d="M1126 360v-110h-587l-156 -291l-96 51l129 240h-314v110h373l143 273h-516v110h576l160 299l94 -51l-131 -248h325v-110h-385l-145 -273h530z" />
    <glyph glyph-name="lessequal" unicode="&#x2264;" horiz-adv-x="1228" 
d="M1124 268v-123l-1022 392v120l1022 392v-123l-870 -330zM1124 57v-110h-1022v110h1022z" />
    <glyph glyph-name="greaterequal" unicode="&#x2265;" horiz-adv-x="1228" 
d="M1120 657v-120l-1022 -392v123l869 328l-869 330v123zM1120 57v-110h-1022v110h1022z" />
    <glyph glyph-name="lozenge" unicode="&#x25ca;" horiz-adv-x="1214" 
d="M659 1530l347 -801l-347 -801h-108l-342 801l342 801h108zM606 43l289 686l-289 686l-289 -686z" />
    <glyph glyph-name="commaaccent" unicode="&#xf6c3;" 
d="M444 -227q0 -82 -61 -183q-61 -102 -141 -129l-6 21q52 20 84 58.5t32 78.5q0 58 -57 100q-39 23 -39 80q0 41 27 70t65 29q44 0 70 -34t26 -91z" />
    <glyph glyph-name="cyrbreve" unicode="&#xf6d4;" 
d="M600 1225q0 -87 -74 -140q-73 -49 -170 -49t-170 49q-73 52 -73 140q0 40 23.5 65t66.5 25q32 0 52.5 -18.5t20.5 -49.5q0 -36 -34 -63q-39 -26 -39 -51q0 -31 48 -51.5t105 -20.5q58 0 106 20.5t48 51.5q0 19 -43 53q-31 28 -31 61q0 31 21 49.5t53 18.5q43 0 66.5 -25
t23.5 -65z" />
    <glyph glyph-name="NULL" horiz-adv-x="0" 
 />
    <glyph glyph-name="CR" horiz-adv-x="681" 
 />
    <glyph glyph-name="breve.cap" 
d="M598 1626q0 -86 -74 -139q-73 -49 -170 -49t-170 49q-73 52 -73 139q0 40 23.5 65t66.5 25q32 0 52.5 -18t20.5 -49q0 -37 -34 -64q-39 -26 -39 -51q0 -31 48 -51.5t105 -20.5q58 0 106 20.5t48 51.5q0 19 -43 53q-31 28 -31 62q0 31 21 49t53 18q43 0 66.5 -25t23.5 -65
z" />
    <glyph glyph-name="caron.alt" 
d="M444 1389q0 -82 -61 -183q-61 -102 -141 -129l-6 21q52 20 84 58.5t32 78.5q0 58 -57 100q-39 23 -39 80q0 41 27 69.5t65 28.5q44 0 70 -33.5t26 -90.5z" />
    <glyph glyph-name="commaaccent.alt" 
d="M236 1163q0 82 61 183q61 102 141 129l8 -19q-46 -19 -82 -58t-36 -81q0 -58 57 -100q39 -23 39 -80q0 -41 -27 -70t-65 -29q-44 0 -70 34t-26 91z" />
    <glyph glyph-name="dieresis.cap" 
d="M170 1536q-41 0 -70.5 31t-29.5 75t29.5 75.5t70.5 31.5q43 0 72.5 -31.5t29.5 -75.5t-29.5 -75t-72.5 -31zM545 1536q-41 0 -71 31t-30 75t30 75.5t71 31.5q43 0 72.5 -31.5t29.5 -75.5t-29.5 -75t-72.5 -31z" />
    <glyph glyph-name="dotaccent.cap" 
d="M356 1536q-41 0 -70.5 31t-29.5 75t29.5 75.5t70.5 31.5q43 0 73 -31.5t30 -75.5t-30 -75t-73 -31z" />
    <glyph glyph-name="cyrbreve.cap" 
d="M600 1626q0 -86 -74 -139q-73 -49 -170 -49t-170 49q-73 52 -73 139q0 40 23.5 65t66.5 25q32 0 52.5 -18t20.5 -49q0 -37 -34 -64q-39 -26 -39 -51q0 -31 48 -51.5t105 -20.5q58 0 106 20.5t48 51.5q0 19 -43 53q-31 28 -31 62q0 31 21 49t53 18q43 0 66.5 -25t23.5 -65
z" />
    </font>
</defs>
</svg>
