<?xml version="1.0" standalone="no"?>
<!DOCTYPE svg PUBLIC "-//W3C//DTD SVG 1.1//EN" "http://www.w3.org/Graphics/SVG/1.1/DTD/svg11.dtd" >
<svg xmlns="http://www.w3.org/2000/svg" xmlns:xlink="http://www.w3.org/1999/xlink" version="1.1">
<metadata>
Created by FontForge 20170731 at Thu Apr 20 08:21:00 2023
 By Aleksey,,,
Copyright (c) 2014 by A. Chekulaev. All rights reserved.
</metadata>
<defs>
<font id="DidotTitle" horiz-adv-x="1228" >
  <font-face 
    font-family="Didot Title"
    font-weight="400"
    font-stretch="normal"
    units-per-em="2048"
    panose-1="2 0 5 3 9 0 0 2 0 3"
    ascent="1436"
    descent="-612"
    x-height="872"
    cap-height="1366"
    bbox="-238 -651 2073 2095"
    underline-thickness="102"
    underline-position="-307"
    unicode-range="U+000D-FB04"
  />
<missing-glyph horiz-adv-x="358" 
 />
    <glyph glyph-name="f_b" unicode="fb" horiz-adv-x="1552" 
d="M700 0h-8v1335q0 178 -125 178q-91 0 -144.5 -60.5t-53.5 -180.5v-400h180v-8h-180v-856h125v-8h-416v8h129v856h-156v8h156v48q0 332 88 466q89 138 283 138q86 0 161 -35l107 35l8 -4v-711q76 82 188 82q173 0 301 -143q130 -142 130 -316t-127 -313
q-125 -137 -302 -137q-119 0 -188 81q-39 39 -70 39q-86 0 -86 -102zM1307 432q0 315 -103 404q-59 47 -160 47q-114 0 -190 -88v-693q20 -54 71.5 -83t116.5 -29q109 0 160 45q105 86 105 397z" />
    <glyph glyph-name="f_h" unicode="fh" horiz-adv-x="1564" 
d="M567 8h125v1303q0 202 -125 202q-91 0 -144.5 -60.5t-53.5 -180.5v-400h180v-8h-180v-856h125v-8h-416v8h129v856h-156v8h156v48q0 332 88 466q89 138 283 138q86 0 161 -35l107 35l8 -4v-783q25 75 87.5 114.5t141.5 39.5q159 0 247.5 -89.5t88.5 -252.5v-541h129v-8
h-413v8h125v666q0 94 -54 151.5t-121 57.5q-176 0 -231 -166v-709h127v-8h-414v8z" />
    <glyph glyph-name="f_j" unicode="fj" horiz-adv-x="1044" 
d="M547 -649q-75 0 -126.5 37.5t-51.5 97.5q0 38 25.5 66t62.5 28q41 0 63.5 -19t22.5 -50q0 -15 -12.5 -46t-12.5 -49q0 -53 72 -53q102 0 102 242v1259h-323v-856h125v-8h-416v8h129v856h-156v8h156v48q0 332 88 466q89 138 293 138q132 0 211 -76q82 -73 82 -168
q0 -42 -28 -72t-69 -30q-94 0 -94 77q0 14 16.5 64t16.5 72q0 122 -162 122q-88 0 -140 -60.5t-52 -180.5v-400h485v-919q0 -328 -76 -465q-73 -137 -231 -137z" />
    <glyph glyph-name="f_k" unicode="fk" horiz-adv-x="1474" 
d="M567 8h125v1327q0 178 -125 178q-91 0 -144.5 -60.5t-53.5 -180.5v-400h180v-8h-180v-856h125v-8h-416v8h129v856h-156v8h156v48q0 332 88 466q89 138 283 138q86 0 161 -35l107 35l8 -4v-1039l348 316q73 67 35 67h-125v8h305v-8h-92q-37 0 -108 -65l-254 -230l464 -561
h140v-8h-463v8h125l-375 461v-461h127v-8h-414v8z" />
    <glyph glyph-name="f_f_b" unicode="ffb" horiz-adv-x="2037" 
d="M1186 0h-8v1311q0 202 -125 202q-92 0 -145.5 -60.5t-53.5 -180.5v-400h180v-8h-180v-856h125v-8h-416v8h129v856h-325v-856h125v-8h-412v8h125v856h-154v8h154v50q0 314 83 458t247 144q72 0 125 -44.5t53 -107.5q0 -37 -26 -65.5t-62 -28.5q-86 0 -86 70q0 13 12 45.5
t12 50.5q0 30 -19.5 48.5t-51.5 18.5q-55 0 -90 -60t-35 -181v-398h325v48q0 332 88 466q88 138 283 138q87 0 162 -35l106 35l8 -4v-711q76 82 189 82q173 0 301 -143q129 -141 129 -316q0 -174 -127 -313q-125 -137 -301 -137q-120 0 -189 81q-39 39 -69 39
q-86 0 -86 -102zM1792 432q0 316 -102 404q-59 47 -160 47q-115 0 -191 -88v-693q20 -54 72.5 -84t116.5 -30q104 0 160 47q104 85 104 397z" />
    <glyph glyph-name="f_f_h" unicode="ffh" horiz-adv-x="2050" 
d="M1053 8h125v1303q0 202 -125 202q-92 0 -145.5 -60.5t-53.5 -180.5v-400h180v-8h-180v-856h125v-8h-416v8h129v856h-325v-856h125v-8h-412v8h125v856h-154v8h154v50q0 314 83 458t247 144q72 0 125 -44.5t53 -107.5q0 -37 -26 -65.5t-62 -28.5q-86 0 -86 70q0 13 12 45.5
t12 50.5q0 30 -19.5 48.5t-51.5 18.5q-55 0 -90 -60t-35 -181v-398h325v48q0 332 88 466q88 138 283 138q87 0 162 -35l106 35l8 -4v-783q25 75 88 114.5t142 39.5q159 0 247.5 -89.5t88.5 -252.5v-541h129v-8h-414v8h125v666q0 94 -53.5 151.5t-120.5 57.5
q-177 0 -232 -166v-709h127v-8h-413v8z" />
    <glyph glyph-name="f_f_j" unicode="ffj" horiz-adv-x="1527" 
d="M561 8h129v912q0 335 88 469q88 135 293 135q132 0 211 -76q82 -73 82 -168q0 -42 -27.5 -72t-68.5 -30q-94 0 -94 77q0 14 16 64t16 72q0 122 -162 122q-88 0 -140 -60.5t-52 -180.5v-400h485v-919q0 -330 -75 -465q-73 -137 -232 -137q-75 0 -126.5 37.5t-51.5 97.5
q0 38 25.5 66t62.5 28q41 0 63.5 -19t22.5 -50q0 -15 -12.5 -46t-12.5 -49q0 -53 72 -53q103 0 103 242v1259h-324v-856h125v-8h-416v8zM713 1372q0 -37 -26 -65.5t-62 -28.5q-86 0 -86 70q0 13 12 45.5t12 50.5q0 30 -19.5 48.5t-51.5 18.5q-55 0 -90 -60t-35 -181v-398
h182v-8h-182v-856h125v-8h-412v8h125v856h-154v8h154v50q0 314 83 458t247 144q72 0 125 -44.5t53 -107.5z" />
    <glyph glyph-name="f_f_k" unicode="ffk" horiz-adv-x="2021" 
d="M1053 8h125v1327q0 178 -125 178q-92 0 -145.5 -60.5t-53.5 -180.5v-400h180v-8h-180v-856h125v-8h-416v8h129v856h-325v-856h125v-8h-412v8h125v856h-154v8h154v50q0 314 83 458t247 144q72 0 125 -44.5t53 -107.5q0 -37 -26 -65.5t-62 -28.5q-86 0 -86 70q0 13 12 45.5
t12 50.5q0 30 -19.5 48.5t-51.5 18.5q-55 0 -90 -60t-35 -181v-398h325v48q0 332 88 466q88 138 283 138q87 0 162 -35l106 35l8 -4v-1039l349 316q73 67 34 67h-125v8h306v-8h-93q-37 0 -108 -65l-254 -230l465 -561h139v-8h-463v8h125l-375 461v-461h127v-8h-413v8z" />
    <glyph glyph-name="f_f" unicode="ff" horiz-adv-x="1073" 
d="M1198 1372q0 -37 -26 -65.5t-62 -28.5q-86 0 -86 70q0 12 12.5 45t12.5 51q0 29 -20 48t-52 19q-55 0 -90 -60t-35 -181v-398h182v-8h-182v-856h125v-8h-412v8h125v856h-323v-856h125v-8h-412v8h125v856h-154v8h154v50q0 314 83 458t247 144q72 0 125 -44.5t53 -107.5
q0 -37 -26 -65.5t-62 -28.5q-86 0 -86 70q0 13 12 45.5t12 50.5q0 30 -19.5 48.5t-51.5 18.5q-55 0 -90 -60t-35 -181v-398h323v50q0 314 83 458t247 144q72 0 125 -44.5t53 -107.5z" />
    <glyph glyph-name="fi" unicode="fi" horiz-adv-x="1017" 
d="M981 8v-8h-414v8h125v856h-323v-856h125v-8h-416v8h129v856h-156v8h156v48q0 332 88 466q89 138 293 138q132 0 211 -76q82 -73 82 -168q0 -42 -28 -72t-69 -30q-94 0 -94 77q0 14 16.5 64t16.5 72q0 122 -162 122q-88 0 -140 -60.5t-52 -180.5v-400h485v-864h127z" />
    <glyph glyph-name="fl" unicode="fl" horiz-adv-x="997" 
d="M567 8h125v1327q0 178 -125 178q-91 0 -144.5 -60.5t-53.5 -180.5v-400h180v-8h-180v-856h125v-8h-416v8h129v856h-156v8h156v48q0 332 88 466q89 138 283 138q86 0 161 -35l107 35l8 -4v-1512h127v-8h-414v8z" />
    <glyph glyph-name="f_f_i" unicode="ffi" horiz-adv-x="1503" 
d="M1466 8v-8h-413v8h125v856h-324v-856h125v-8h-416v8h129v856h-325v-856h125v-8h-412v8h125v856h-154v8h154v50q0 314 83 458t247 144q72 0 125 -44.5t53 -107.5q0 -37 -26 -65.5t-62 -28.5q-86 0 -86 70q0 13 12 45.5t12 50.5q0 30 -19.5 48.5t-51.5 18.5q-55 0 -90 -60
t-35 -181v-398h325v48q0 332 88 466q88 138 293 138q132 0 211 -76q82 -73 82 -168q0 -42 -27.5 -72t-68.5 -30q-94 0 -94 77q0 14 16 64t16 72q0 122 -161 122q-89 0 -141 -60.5t-52 -180.5v-400h485v-864h127z" />
    <glyph glyph-name="f_f_l" unicode="ffl" horiz-adv-x="1480" 
d="M1051 8h125v1303q0 202 -125 202q-92 0 -145.5 -60.5t-53.5 -180.5v-400h180v-8h-180v-856h125v-8h-416v8h129v856h-323v-856h125v-8h-412v8h125v856h-154v8h154v50q0 314 83 458t247 144q72 0 125 -44.5t53 -107.5q0 -37 -26 -65.5t-62 -28.5q-86 0 -86 70q0 13 12 45.5
t12 50.5q0 30 -19.5 48.5t-51.5 18.5q-55 0 -90 -60t-35 -181v-398h323v48q0 332 88 466q88 138 283 138q87 0 162 -35l106 35l8 -4v-1512h127v-8h-413v8z" />
    <glyph glyph-name=".notdef" horiz-adv-x="358" 
 />
    <glyph glyph-name="uni0000" horiz-adv-x="0" 
 />
    <glyph glyph-name="uni0000" horiz-adv-x="0" 
 />
    <glyph glyph-name="nonmarkingreturn" horiz-adv-x="682" 
 />
    <glyph glyph-name="CR.001" unicode="&#xd;" horiz-adv-x="358" 
 />
    <glyph glyph-name="space" unicode=" " horiz-adv-x="358" 
 />
    <glyph glyph-name="exclam" unicode="!" horiz-adv-x="401" 
d="M303 1255q0 -68 -49 -405q-47 -344 -47 -533h-8q0 196 -49 533q-50 344 -50 405q0 144 103 144q100 0 100 -144zM201 -33q-41 0 -71 31.5t-30 75.5t30 75t71 31q43 0 72.5 -31t29.5 -75t-29.5 -75.5t-72.5 -31.5z" />
    <glyph glyph-name="quotedbl" unicode="&#x22;" horiz-adv-x="636" 
d="M545 1294q0 -56 -39 -186q-37 -130 -37 -170v-20h-8v20q0 31 -39 164t-39 192q0 42 21.5 73.5t60.5 31.5q40 0 60 -31t20 -74zM256 1294q0 -53 -37 -186q-37 -130 -37 -170v-20h-8v20q0 24 -41 164q-39 133 -39 192q0 42 21.5 73.5t60.5 31.5q40 0 60 -31t20 -74z" />
    <glyph glyph-name="numbersign" unicode="#" horiz-adv-x="1003" 
d="M272 168h-22l51 303h-207v104h225l46 248h-209v105h227l49 286h23l-49 -286h258l51 286h22l-49 -286h221v-105h-239l-45 -248h221v-104h-238l-53 -303h-23l54 303h-262zM389 823l-47 -248h258l47 248h-258z" />
    <glyph glyph-name="dollar" unicode="$" horiz-adv-x="1067" 
d="M971 389q0 -129 -101 -254q-104 -129 -270 -158v-172h-10v170q-36 -8 -90 -8q-50 0 -64 2v-164h-8v164q-149 15 -240 103q-90 87 -90 168q0 48 31.5 80t71.5 32q37 0 65.5 -28.5t28.5 -65.5q0 -43 -37 -70q-35 -27 -35 -55q0 -58 55 -103.5t150 -52.5v652
q-159 58 -232 142.5t-73 232.5q0 132 90 245q89 115 215 142v170h8v-168q37 6 68 6q16 0 86 -4v166h10v-168q102 -12 168 -66q61 -47 83.5 -98t22.5 -113q0 -45 -29.5 -75.5t-66.5 -30.5t-63.5 26.5t-26.5 61.5q0 40 39 73q41 35 41 60q0 56 -45 98.5t-123 54.5v-608
q207 -77 287 -151q84 -78 84 -236zM590 778v608q-78 5 -84 5q-26 0 -70 -7v-540q63 -37 154 -66zM428 846v536q-92 -25 -152.5 -94t-60.5 -151q0 -83 55 -159.5t158 -131.5zM862 246q0 110 -60.5 183.5t-201.5 133.5v-577q116 24 189 98.5t73 161.5zM590 -16v583
q-80 34 -154 58v-648q14 -2 62 -2q52 0 92 9z" />
    <glyph glyph-name="percent" unicode="%" horiz-adv-x="1366" 
d="M702 1044q0 -138 -94 -239q-90 -100 -223 -100q-131 0 -221 100q-92 103 -92 239q0 140 92 240q90 100 221 100q133 0 223 -100q94 -98 94 -240zM561 1044q0 233 -67 297q-35 35 -109 35q-69 0 -104 -35q-70 -61 -70 -297q0 -235 70 -299q32 -32 104 -32q77 0 109 32
q67 61 67 299zM1294 324q0 -139 -94 -240q-90 -100 -223 -100q-131 0 -221 100q-92 103 -92 240q0 139 92 239q91 101 221 101q132 0 223 -101q94 -98 94 -239zM1153 324q0 232 -68 297q-34 34 -108 34q-71 0 -105 -34q-69 -60 -69 -297q0 -236 69 -299q33 -33 105 -33
q75 0 108 33q68 62 68 299zM1092 1411l20 -14l-833 -1444l-21 14z" />
    <glyph glyph-name="ampersand" unicode="&#x26;" horiz-adv-x="1284" 
d="M1307 131l6 -6q-30 -71 -109 -113.5t-172 -42.5q-107 0 -207 92q-149 -94 -323 -94q-186 0 -309 111q-123 114 -123 287q0 276 317 485q-33 103 -33 186q0 162 76.5 262.5t194.5 100.5q157 0 157 -158q0 -66 -61.5 -138.5t-167.5 -135.5q95 -303 399 -766
q113 177 125 381q9 99 2 123q-3 22 -41 22h-90v8h281v-8h-76q-44 0 -53 -18q-6 -15 -15 -127q-18 -214 -127 -392q3 -3 23 -36q32 -46 96 -88q59 -39 105 -39q15 0 30 6q68 29 95 98zM774 1241q0 143 -125 143q-54 0 -91.5 -50.5t-37.5 -137.5q0 -107 31 -219
q100 57 161.5 127.5t61.5 136.5zM821 68q-58 58 -114 149q-252 423 -318 625q-66 -53 -109.5 -138.5t-43.5 -173.5q0 -228 110 -368q112 -139 303 -139q81 0 172 45z" />
    <glyph glyph-name="quotesingle" unicode="'" horiz-adv-x="350" 
d="M256 1294q0 -53 -37 -186q-37 -130 -37 -170v-20h-8v20q0 24 -41 164q-39 133 -39 192q0 42 21.5 73.5t60.5 31.5q40 0 60 -31t20 -74z" />
    <glyph glyph-name="parenleft" unicode="(" horiz-adv-x="534" 
d="M664 1511l4 -6q-138 -92 -209 -194q-154 -213 -154 -805q0 -314 41 -510q39 -189 113 -295q72 -104 209 -195l-4 -6q-244 166 -380.5 428t-136.5 578t136.5 577.5t380.5 427.5z" />
    <glyph glyph-name="parenright" unicode=")" horiz-adv-x="534" 
d="M-119 -500l-4 6q137 91 209 195q154 213 154 805q0 314 -41 510q-39 189 -113 295q-71 102 -209 194l4 6q244 -166 380 -427.5t136 -577.5t-136 -578t-380 -428z" />
    <glyph glyph-name="asterisk" unicode="*" horiz-adv-x="653" 
d="M553 1032q0 -20 -12.5 -34.5t-32.5 -14.5q-14 -3 -29 10t-29 32.5t-43.5 47t-64.5 47.5l-10 6v-14q0 -53 20.5 -119t20.5 -69q0 -26 -22.5 -36.5t-45 0t-22.5 36.5q0 3 20.5 69t20.5 119v14l-11 -6q-35 -20 -64.5 -47.5t-43.5 -47t-29 -32.5t-29 -10q-45 0 -45 49
q0 22 23 35q4 2 36 8.5t76.5 20.5t81.5 37q-37 22 -81.5 36.5t-76.5 20.5t-36 8q-23 13 -23 35q0 20 12.5 34.5t32.5 14.5q18 3 36 -16.5t51.5 -56.5t76.5 -62l13 -8v14q0 53 -20.5 119t-20.5 69q0 26 22.5 36.5t45 0t22.5 -36.5q0 -3 -20.5 -69t-20.5 -119v-14l12 8
q43 25 76.5 62t51.5 56.5t36 16.5q19 0 32 -14.5t13 -34.5q0 -22 -23 -35q-4 -2 -36 -8t-76.5 -20.5t-81.5 -36.5q37 -23 81.5 -37t76.5 -20.5t36 -8.5q23 -13 23 -35z" />
    <glyph glyph-name="plus" unicode="+" 
d="M1122 555v-111h-450v-444h-123v444h-449v111h449v442h123v-442h450z" />
    <glyph glyph-name="comma" unicode="," horiz-adv-x="358" 
d="M287 55q0 -78 -68 -184q-67 -107 -149 -131l-2 6q50 18 87.5 60.5t37.5 89.5q0 62 -62 106q-45 33 -45 80q0 41 28.5 70.5t69.5 29.5q49 0 76 -33.5t27 -93.5z" />
    <glyph glyph-name="hyphen" unicode="-" horiz-adv-x="659" 
d="M72 541h514v-105h-514v105z" />
    <glyph glyph-name="period" unicode="." horiz-adv-x="358" 
d="M178 -33q-41 0 -70.5 31.5t-29.5 75.5t29.5 75t70.5 31q43 0 73 -31t30 -75t-30 -75.5t-73 -31.5z" />
    <glyph glyph-name="slash" unicode="/" horiz-adv-x="733" 
d="M692 1548l8 -4l-655 -1591l-10 4z" />
    <glyph glyph-name="zero" unicode="0" horiz-adv-x="1024" 
d="M510 -18q-180 0 -305 192q-127 195 -127 510t127 510q125 192 305 192q182 0 307 -192q129 -194 129 -510t-129 -510q-125 -192 -307 -192zM735 684q0 404 -49 547q-46 147 -176 147q-127 0 -174 -147q-47 -146 -47 -547q2 -220 14 -353.5t39.5 -210t65.5 -103t102 -27.5
q65 1 104 28t67 104.5t40 210.5t14 351z" />
    <glyph glyph-name="one" unicode="1" horiz-adv-x="1024" 
d="M772 8v-8h-465v8h137v1350h-137v8h330v-1358h135z" />
    <glyph glyph-name="two" unicode="2" horiz-adv-x="1024" 
d="M485 1378q-62 0 -110.5 -40.5t-48.5 -100.5q0 -12 7 -39t7 -35q0 -31 -23.5 -51t-64.5 -20t-62.5 25.5t-21.5 64.5q0 71 96 137q94 67 221 67q158 0 273 -86q114 -86 114 -266q0 -115 -86 -235q-59 -78 -90 -111q-63 -72 -118 -131q-9 -9 -125 -139l-232 -273v-8h445
q172 0 172 178h8v-315h-723v29l301 395q152 199 197 315q49 119 49 314q0 168 -44.5 246.5t-140.5 78.5z" />
    <glyph glyph-name="three" unicode="3" horiz-adv-x="1024" 
d="M883 399q0 -188 -142 -303q-136 -112 -303 -112q-126 0 -209.5 52.5t-83.5 127.5q0 39 22.5 65.5t63.5 26.5q88 0 88 -72q0 -12 -7 -39t-7 -39q0 -114 133 -114q125 0 183 82q59 83 59 307q0 225 -43 301t-152 76q-41 0 -145 -66l-4 6q157 89 209 174q55 88 55 252
q0 137 -35 189.5t-127 52.5q-40 0 -66 -24.5t-26 -69.5q0 -13 8 -40t8 -38q0 -32 -23.5 -53t-66.5 -21q-41 0 -62.5 26t-21.5 66q0 55 72 109q71 53 178 53q166 0 264.5 -68t98.5 -200q0 -112 -105 -197q-105 -88 -245 -145q31 8 75 8q166 0 260 -110q97 -114 97 -263z" />
    <glyph glyph-name="four" unicode="4" horiz-adv-x="1024" 
d="M895 8v-8h-465v8h137v445h-454v10q91 146 127 223l325 678q55 -21 150 20q93 43 135 91l8 -2l-735 -1012h444v225q34 3 82 51q56 60 76 94l27 48h8v-418h201v-8h-201v-445h135z" />
    <glyph glyph-name="five" unicode="5" horiz-adv-x="1024" 
d="M856 440q0 -207 -127 -331q-127 -121 -287 -121q-127 0 -211 52.5t-84 127.5q0 38 27.5 65t69.5 27q31 0 55.5 -23.5t24.5 -54.5q0 -7 -10.5 -36.5t-10.5 -41.5q0 -60 34.5 -84t104.5 -24q118 0 164 88q49 88 49 338q0 260 -32 334q-34 82 -136 82q-63 0 -113.5 -39
t-68.5 -105q-7 -5 -4 -37q1 -9 2 -16.5t1.5 -11t0.5 -4.5q0 -12 -10 -11.5t-10 13.5q0 4 3 30t3 31v653l-2 7l6 2q48 -45 164 -45q44 0 86 16t68.5 35t54 35t45.5 16q82 0 82 -74q0 -62 -63 -102.5t-159 -40.5q-87 0 -167 45q-84 48 -107 100v-628q53 145 229 145
q164 0 246 -119q82 -116 82 -293z" />
    <glyph glyph-name="six" unicode="6" horiz-adv-x="1024" 
d="M920 375q0 -159 -115 -277q-114 -114 -277 -114q-184 0 -291.5 150t-107.5 433q0 205 55 385q59 182 166 301q110 119 246 119q108 0 174 -51q70 -52 70 -111q0 -39 -22.5 -64.5t-63.5 -25.5q-43 0 -66.5 20t-23.5 52q0 12 8 38t8 38q0 96 -84 96q-68 0 -120 -55.5
t-83 -159.5q-51 -176 -61 -485q69 106 196 106q163 0 277 -117q115 -118 115 -278zM719 375q0 275 -72 350q-40 37 -119 37q-81 0 -139 -49q-59 -47 -59 -86v-258q0 -258 82 -340q37 -37 116 -37q82 0 119 37q72 72 72 346z" />
    <glyph glyph-name="seven" unicode="7" horiz-adv-x="1024" 
d="M229 1366h678q-76 -153 -125 -307l-301 -1059h-233l583 1210h-421q-92 0 -132 -37.5t-40 -123.5h-9v317z" />
    <glyph glyph-name="eight" unicode="8" horiz-adv-x="1024" 
d="M903 381q0 -172 -115 -287q-113 -110 -288 -110q-159 0 -277 92q-117 94 -117 264q0 122 70 216.5t199 148.5q-191 153 -191 339q0 125 80 228q80 102 236 102q138 0 239 -76q103 -77 103 -213q0 -202 -238 -297q150 -101 224.5 -195.5t74.5 -211.5zM702 1079
q0 151 -50.5 219t-151.5 68q-94 0 -140.5 -51t-46.5 -141q0 -88 45 -162q47 -74 97 -115q57 -44 145 -104q44 37 55 53q47 58 47 233zM764 258q0 123 -88 211q-61 61 -84 78q-75 56 -109 78q-79 56 -104 75q-37 -35 -64 -69q-53 -77 -53 -279q0 -197 57.5 -278.5
t180.5 -81.5q35 0 68 6.5t69.5 24.5t63.5 46.5t45 77t18 111.5z" />
    <glyph glyph-name="nine" unicode="9" horiz-adv-x="1024" 
d="M909 788q0 -208 -57 -385q-58 -179 -172 -299q-113 -116 -262 -116q-114 0 -187 55q-73 58 -73 117q0 39 22.5 65.5t63.5 26.5q43 0 66.5 -21t23.5 -53q0 -11 -8.5 -38t-8.5 -40q0 -49 28 -76.5t73 -27.5q75 0 129.5 52.5t83.5 152.5q52 178 61 463q-67 -107 -196 -107
q-168 0 -281 119q-111 120 -111 293q0 168 111 288q115 121 281 121q192 0 302.5 -149.5t110.5 -440.5zM709 973q0 153 -20 232.5t-64 123.5q-44 41 -129 41q-78 0 -119 -41q-40 -40 -55 -115q-15 -76 -15 -245q0 -161 15 -244t55 -119q44 -41 119 -41q77 0 131 41t67 96
q15 34 15 271z" />
    <glyph glyph-name="colon" unicode=":" horiz-adv-x="358" 
d="M178 -33q-41 0 -70.5 31.5t-29.5 75.5t29.5 75t70.5 31q43 0 73 -31t30 -75t-30 -75.5t-73 -31.5zM178 594q-41 0 -70.5 31t-29.5 75t29.5 75.5t70.5 31.5q43 0 73 -31.5t30 -75.5t-30 -75t-73 -31z" />
    <glyph glyph-name="semicolon" unicode=";" horiz-adv-x="358" 
d="M287 55q0 -78 -68 -184q-67 -107 -149 -131l-2 6q50 18 87.5 60.5t37.5 89.5q0 62 -62 106q-45 33 -45 80q0 41 28.5 70.5t69.5 29.5q49 0 76 -33.5t27 -93.5zM182 594q-41 0 -70.5 31t-29.5 75t29.5 75.5t70.5 31.5q43 0 73 -31.5t30 -75.5t-30 -75t-73 -31z" />
    <glyph glyph-name="less" unicode="&#x3c;" 
d="M1124 152v-123l-1022 407v121l1022 410v-123l-878 -348z" />
    <glyph glyph-name="equal" unicode="=" 
d="M1124 743v-110h-1024v110h1024zM1124 360v-110h-1024v110h1024z" />
    <glyph glyph-name="greater" unicode="&#x3e;" 
d="M1124 557v-121l-1022 -407v123l877 344l-877 348v123z" />
    <glyph glyph-name="question" unicode="?" horiz-adv-x="788" 
d="M719 997q0 -171 -101 -278q-98 -107 -241 -107q-96 0 -139 58v-353h-9v369l7 2q34 -67 141 -67q75 0 121 34q32 26 41 86q12 65 12 256q0 265 -102 351q-52 43 -144 43q-123 0 -123 -95q0 -15 20.5 -55.5t20.5 -58.5q0 -33 -24 -55.5t-62 -22.5q-90 0 -90 92
q0 86 69 144.5t189 58.5q181 0 297 -113q117 -114 117 -289zM231 -33q-41 0 -70.5 31.5t-29.5 75.5t29.5 75t70.5 31q43 0 73 -31t30 -75t-30 -75.5t-73 -31.5z" />
    <glyph glyph-name="at" unicode="@" horiz-adv-x="1589" 
d="M1462 778q0 -87 -28 -161t-73 -123.5t-103 -84.5t-117.5 -51t-116.5 -16q-200 0 -147 195q-36 -89 -111.5 -142t-147.5 -53q-100 0 -152 68t-52 176q0 159 131 299q131 143 303 143q48 0 92.5 -25t54.5 -61l23 70h112l-96 -310q-31 -95 -45 -157.5t-13 -105.5t21 -62
t60 -19q157 0 278 115q119 116 119 305q0 285 -182 449t-459 164q-292 0 -502 -207q-207 -207 -207 -500q0 -292 207 -502q210 -207 502 -207q252 0 447 160l6 -6q-198 -162 -453 -162q-296 0 -508 209q-209 212 -209 508q0 297 209 506q212 209 508 209q282 0 465 -168
q184 -166 184 -453zM866 539l121 376q9 40 -35 72q-44 33 -104 33q-78 0 -152 -62t-131 -223q-55 -155 -55 -266q0 -51 32.5 -83t86.5 -32q76 0 147 62q73 63 90 123z" />
    <glyph glyph-name="A" unicode="A" horiz-adv-x="1294" 
d="M1350 8v-8h-605v8h199l-172 465h-473l-143 -385q-12 -35 -14.5 -52t2.5 -22.5t20 -5.5h153v-8h-364v8h137q30 0 57 80l480 1305h10l534 -1385h179zM301 481h467l-231 639z" />
    <glyph glyph-name="B" unicode="B" horiz-adv-x="1271" 
d="M1188 362q0 -147 -121 -256q-118 -106 -340 -106h-651v8h184v1350h-184v8h555q192 0 323 -82t131 -233q0 -135 -124 -228q-125 -94 -273 -94q215 0 356 -100q144 -99 144 -267zM881 1042q0 170 -65.5 243t-215.5 73h-129v-625h195q114 0 164.5 70t50.5 239zM981 350
q0 218 -86 295q-83 80 -250 80h-174v-717h201q309 0 309 342z" />
    <glyph glyph-name="C" unicode="C" horiz-adv-x="1269" 
d="M1176 410v-439h-9q-5 22 -29.5 40t-58.5 18q-37 0 -155 -31t-179 -31q-275 0 -462 211t-187 504q0 291 183 504q186 213 456 213q50 0 152 -27q102 -24 145 -24q39 0 66 13.5t32 31.5h9v-381h-9q0 145 -124 260q-122 119 -271 119q-167 0 -250 -74q-168 -143 -168 -635
q0 -490 168 -633q83 -74 260 -74q182 0 302 123t120 312h9z" />
    <glyph glyph-name="D" unicode="D" horiz-adv-x="1441" 
d="M1348 682q0 -280 -189 -481t-452 -201h-629v8h184v1350h-184v8h629q263 0 452 -201t189 -483zM1126 682q0 463 -168 606q-85 70 -251 70h-234v-1350h234q167 0 251 72q86 71 127 205t41 397z" />
    <glyph glyph-name="E" unicode="E" 
d="M1186 387v-387h-1110v8h186v1350h-186v8h1005v-348h-8q0 154 -86 247t-252 93h-262v-653h102q118 0 183 59t65 162h8v-449h-8q0 101 -65 161t-180 60h-105v-690h266q219 0 329 103t110 276h8z" />
    <glyph glyph-name="F" unicode="F" horiz-adv-x="1179" 
d="M1081 1366v-348h-8q0 154 -86 247t-252 93h-264v-653h88q116 0 180 58.5t64 162.5h8v-449h-8q0 101 -64.5 161t-179.5 60h-88v-690h188v-8h-583v8h186v1350h-186v8h1005z" />
    <glyph glyph-name="G" unicode="G" horiz-adv-x="1316" 
d="M1360 524v-8h-166v-522h-8q-21 84 -101 84q-24 0 -77.5 -27.5t-132.5 -55.5t-166 -28q-181 0 -326 103q-139 102 -213 261.5t-74 350.5q0 291 183 504q186 213 458 213q57 0 140 -27q85 -24 127 -24q39 0 66 13.5t32 31.5h8v-381h-8q0 144 -109 262q-108 117 -256 117
q-164 0 -250 -74q-168 -143 -168 -635q0 -288 27 -426q27 -137 109 -207q88 -76 254 -76q129 0 202.5 53t73.5 140v350h-184v8h559z" />
    <glyph glyph-name="H" unicode="H" horiz-adv-x="1533" 
d="M1458 8v-8h-561v8h164v699h-592v-699h168v-8h-561v8h184v1350h-184v8h561v-8h-168v-643h592v643h-164v8h561v-8h-186v-1350h186z" />
    <glyph glyph-name="I" unicode="I" horiz-adv-x="731" 
d="M659 8v-8h-583v8h186v1350h-186v8h583v-8h-188v-1350h188z" />
    <glyph glyph-name="J" unicode="J" horiz-adv-x="911" 
d="M326 -33q-132 0 -209 74q-76 73 -76 162q0 60 32.5 93.5t88.5 33.5q44 0 70 -26t26 -68q0 -37 -39 -82q-37 -43 -37 -74q0 -47 35.5 -77t108.5 -30q70 0 116.5 42.5t46.5 115.5v1227h-184v8h582v-8h-185v-1036q0 -169 -97 -262t-279 -93z" />
    <glyph glyph-name="K" unicode="K" horiz-adv-x="1275" 
d="M1454 8v-8h-666v8h209l-526 668v-668h184v-8h-579v8h184v1350h-184v8h579v-8h-184v-670l518 590q60 69 45 78q-2 2 -18 2h-154v8h389v-8h-137q-47 0 -115 -80l-397 -455l662 -815h190z" />
    <glyph glyph-name="L" unicode="L" horiz-adv-x="1167" 
d="M1133 406v-406h-1057v8h186v1350h-186v8h583v-8h-186v-1350h262q206 0 297 113q92 115 92 285h9z" />
    <glyph glyph-name="M" unicode="M" horiz-adv-x="1712" 
d="M768 -25l-508 1373v-1246q0 -94 33 -94h153v-8h-383v8h160q29 0 29 94v1256h-186v8h407l399 -1071l365 1071h399v-8h-184v-1350h184v-8h-581v8h186v1340l-463 -1373h-10z" />
    <glyph glyph-name="N" unicode="N" horiz-adv-x="1433" 
d="M1184 -25l-924 1373v-1246q0 -94 33 -94h153v-8h-383v8h160q29 0 29 94v1256h-186v8h432l688 -1026v924q0 94 -33 94h-156v8h383v-8h-157q-29 0 -29 -94v-1289h-10z" />
    <glyph glyph-name="O" unicode="O" horiz-adv-x="1474" 
d="M735 -33q-264 0 -452 209q-187 208 -187 506q0 291 183 504q186 213 456 213q268 0 455 -211q188 -209 188 -506t-188 -506t-455 -209zM1155 682q0 488 -166 635q-86 74 -254 74q-164 0 -250 -74q-166 -144 -166 -635q0 -284 39 -420q41 -139 127 -213q83 -74 250 -74
q171 0 254 74q84 72 125 213q41 143 41 420z" />
    <glyph glyph-name="P" unicode="P" horiz-adv-x="1261" 
d="M1204 934q0 -172 -145 -287q-141 -112 -375 -112q-121 0 -211 22v-549h186v-8h-583v8h186v1350h-186v8h581q257 0 400 -125q147 -123 147 -307zM995 934q0 198 -93 311t-243 113h-186v-787q70 -28 209 -28q149 0 231 98.5t82 292.5z" />
    <glyph glyph-name="Q" unicode="Q" horiz-adv-x="1474" 
d="M1403 -475v-8q-192 0 -324 36t-186 93q-25 26 -51.5 63.5t-45.5 64.5t-44 53.5t-59.5 40t-78.5 13.5q-15 0 -42 -14t-29 -14q-11 0 -11 8q0 18 66 24q62 29 264 95q-67 -13 -127 -13q-264 0 -452 209q-187 208 -187 506q0 291 183 504q186 213 456 213q268 0 455 -211
q188 -209 188 -506q0 -200 -96 -375q-93 -167 -250 -258q-43 -27 -127 -59q-135 -52 -155 -58q-25 -8 -50 -16.5t-47.5 -17t-31.5 -11.5q127 0 218 -20t140 -52t83 -70.5t59.5 -77t56.5 -70.5t87 -52t138 -20zM1155 682q0 492 -168 635q-83 74 -252 74q-167 0 -250 -74
q-168 -143 -168 -635q0 -284 39 -420q41 -140 129 -213q83 -74 250 -74q169 0 252 74q87 78 127 215q41 140 41 418z" />
    <glyph glyph-name="R" unicode="R" horiz-adv-x="1339" 
d="M1448 57l6 -6q-67 -67 -184 -67q-283 0 -283 374v109q0 118 -85 179t-232 61h-199v-699h240v-8h-637v8h188v1350h-188v8h598q213 0 344 -96q129 -94 129 -240q0 -135 -127 -227t-309 -92q246 0 370.5 -98t124.5 -275v-158q0 -77 33 -128.5t86 -51.5q68 0 125 57z
M932 1024q0 334 -307 334h-154v-643h199q145 0 204 65q58 64 58 244z" />
    <glyph glyph-name="S" unicode="S" horiz-adv-x="1079" 
d="M1018 387q0 -145 -129 -283q-128 -137 -344 -137q-79 0 -180 39q-103 41 -144 41q-38 0 -68.5 -23t-35.5 -53h-8v422h8q0 -133 125 -276q127 -142 303 -142q158 0 262 84q102 83 102 187q0 135 -100 213q-101 84 -336 166q-171 60 -250.5 145t-79.5 234q0 155 109 276
q110 119 258 119q52 0 135 -27q83 -24 123 -24q71 0 80 45h8v-316h-8q0 133 -107 221q-107 93 -229 93q-111 0 -195 -78q-81 -75 -81 -176q0 -217 368 -349q228 -80 316 -157q98 -82 98 -244z" />
    <glyph glyph-name="T" unicode="T" horiz-adv-x="1206" 
d="M1167 1366v-405h-8q0 186 -98 291.5t-295 105.5h-61v-1350h186v-8h-582v8h185v1350h-60q-197 0 -292 -104t-95 -293h-8v405h1128z" />
    <glyph glyph-name="U" unicode="U" horiz-adv-x="1404" 
d="M1194 406v878q0 74 -31 74h-155v8h381v-8h-156q-29 0 -29 -74v-878q0 -211 -119 -325t-354 -114q-233 0 -370.5 113t-137.5 319v959h-186v8h584v-8h-187v-959q0 -409 344 -409q206 0 311 108.5t105 307.5z" />
    <glyph glyph-name="V" unicode="V" horiz-adv-x="1357" 
d="M1413 1366v-8h-149q-18 0 -30 -15.5t-30 -64.5l-465 -1307h-8l-614 1387h-189v8h641v-8h-221l479 -1114l367 1034q13 35 14 53.5t-4.5 22.5t-19.5 4h-162v8h391z" />
    <glyph glyph-name="W" unicode="W" horiz-adv-x="1961" 
d="M2060 1366v-8h-143q-24 0 -36 -13.5t-30 -66.5l-452 -1307h-10l-375 1006l-350 -1006h-11l-553 1387h-188v8h608v-8h-190l428 -1090l250 721l-138 369h-159v8h602v-8h-219l395 -1098l356 1028q24 70 -8 70h-166v8h389z" />
    <glyph glyph-name="X" unicode="X" horiz-adv-x="1325" 
d="M1393 8v-8h-637v8h209l-342 604l-324 -524q-47 -77 -10 -80h151v-8h-389v8h148q36 0 86 80l331 535l-426 735h-190v8h637v-8h-211l307 -539l281 459q47 77 14 80h-160v8h392v-8h-148q-31 0 -84 -80l-291 -469l463 -801h193z" />
    <glyph glyph-name="Y" unicode="Y" horiz-adv-x="1236" 
d="M1286 1366v-8h-135q-20 0 -35 -15.5t-39 -64.5l-309 -649v-621h186v-8h-583v8h188v588l-401 762h-191v8h647v-8h-219l369 -715l301 635q16 35 20 54t1 22.5t-11 3.5h-180v8h391z" />
    <glyph glyph-name="Z" unicode="Z" horiz-adv-x="1241" 
d="M176 1366h971l-811 -1358h403q187 0 293 115q105 117 105 291h8v-414h-1045l809 1358h-338q-185 0 -286 -108t-101 -289h-8v405z" />
    <glyph glyph-name="bracketleft" unicode="[" horiz-adv-x="505" 
d="M537 -492v-8h-363v2009h363v-8h-205v-1993h205z" />
    <glyph glyph-name="backslash" unicode="\" horiz-adv-x="733" 
d="M41 1548l657 -1591l-10 -4l-655 1591z" />
    <glyph glyph-name="bracketright" unicode="]" horiz-adv-x="505" 
d="M332 1509v-2009h-365v8h207v1993h-207v8h365z" />
    <glyph glyph-name="asciicircum" unicode="^" 
d="M676 1397l346 -852h-129l-279 706l-272 -706h-129l344 852h119z" />
    <glyph glyph-name="underscore" unicode="_" horiz-adv-x="1167" 
d="M1096 8v-8h-1024v8h1024z" />
    <glyph glyph-name="grave" unicode="`" horiz-adv-x="712" 
d="M307 1321l244 -260l-4 -4l-352 209q-52 27 -52 59q0 26 21 47t47 21q20 0 36.5 -12.5t59.5 -59.5z" />
    <glyph glyph-name="a" unicode="a" horiz-adv-x="894" 
d="M870 63l7 -2q-8 -32 -46 -54.5t-90 -22.5q-125 0 -149 131q-18 -61 -85.5 -96t-156.5 -35q-122 0 -196 52.5t-74 160.5q0 73 27 126.5t73 79.5q80 45 160 54q196 18 229 41q9 10 13 20v156q0 106 -44.5 157.5t-115.5 51.5q-88 0 -88 -92q0 -12 7 -39t7 -35
q0 -31 -22.5 -50.5t-63.5 -19.5q-39 0 -59.5 24.5t-20.5 63.5q0 61 67.5 108.5t172.5 47.5q321 0 321 -371v-440q0 -68 54 -68q24 0 44.5 15.5t28.5 35.5zM582 141v351q-13 -13 -52.5 -21t-90 -13t-60.5 -7q-141 -27 -141 -254q0 -199 149 -199q76 0 135.5 43t59.5 100z" />
    <glyph glyph-name="b" unicode="b" horiz-adv-x="1024" 
d="M778 432q0 316 -102 404q-59 47 -160 47q-114 0 -190 -88v-693q20 -54 71.5 -83t116.5 -29q109 0 160 45q104 85 104 397zM174 0h-8v1497h-127v8h287v-698q75 84 192 84q174 0 299 -143q127 -142 127 -316t-127 -313q-125 -137 -301 -137q-119 0 -188 81q-39 39 -70 39
q-84 0 -84 -102z" />
    <glyph glyph-name="c" unicode="c" horiz-adv-x="880" 
d="M838 178l6 -4q-125 -192 -336 -192q-174 0 -301 133q-125 131 -125 321q0 191 125 322q127 133 301 133q126 0 196 -52.5t70 -133.5q0 -87 -82 -87q-36 0 -58 20.5t-22 51.5q0 14 11.5 45t11.5 53q0 54 -27 74.5t-100 20.5q-105 0 -158 -47q-56 -48 -80 -137t-24 -263
q0 -175 23.5 -264t80.5 -137q51 -45 158 -45q210 0 330 188z" />
    <glyph glyph-name="d" unicode="d" horiz-adv-x="1003" 
d="M987 8v-8h-287v96q-14 -50 -63.5 -82t-124.5 -32q-176 0 -301 137q-127 139 -127 313t127 316q125 143 301 143q112 0 188 -82v688h-125v8h287v-1497h125zM700 145v650q-70 88 -188 88q-104 0 -160 -47q-104 -88 -104 -404q0 -309 104 -397q54 -45 160 -45q86 0 137 43.5
t51 111.5z" />
    <glyph glyph-name="e" unicode="e" horiz-adv-x="921" 
d="M852 492v-7h-598q-2 -10 -2 -51q0 -184 18 -270q21 -87 72 -129q51 -45 152 -45t188 53t145 145l7 -4q-61 -94 -150 -148t-190 -54q-176 0 -295 131q-117 132 -117 321q0 192 117 324q121 133 295 133q73 0 134.5 -27t102 -69t69 -96t41 -106.5t11.5 -100.5zM254 494h434
q-6 273 -72 342q-47 47 -122 47q-96 0 -152 -47q-82 -70 -88 -342z" />
    <glyph glyph-name="f" unicode="f" horiz-adv-x="587" 
d="M713 1372q0 -37 -26 -65.5t-62 -28.5q-86 0 -86 70q0 13 12 45.5t12 50.5q0 30 -19.5 48.5t-51.5 18.5q-55 0 -90 -60t-35 -181v-398h182v-8h-182v-856h125v-8h-412v8h125v856h-154v8h154v50q0 314 83 458t247 144q72 0 125 -44.5t53 -107.5z" />
    <glyph glyph-name="g" unicode="g" horiz-adv-x="993" 
d="M1036 799q0 -25 -19.5 -47.5t-43.5 -22.5q-26 0 -44 15t-18 34q0 13 8.5 29t8.5 22q0 33 -37 33q-71 0 -117 -102q68 -92 68 -199q0 -137 -101 -231q-102 -97 -237 -97q-160 0 -258 119q-68 -47 -68 -137q0 -188 189 -188h235q221 0 314.5 -62t93.5 -223q0 -71 -30 -135
t-80.5 -110t-114.5 -80t-133 -50t-134 -14q-205 0 -336 82q-129 83 -129 200q0 85 60 170q63 85 149 105q-168 46 -168 196q0 157 148 252q-74 89 -74 203q0 140 98 234q101 96 238 96q160 0 262 -123q62 123 170 123q43 0 71.5 -25t28.5 -67zM688 563q0 228 -70 289
q-42 31 -114 31q-71 0 -113 -31q-69 -60 -69 -289q0 -128 15.5 -191.5t53.5 -95.5q40 -34 113 -34q74 0 114 34q39 33 54.5 96t15.5 191zM920 -346q0 114 -55.5 180t-164.5 66h-352q-34 0 -69 6q-43 -27 -70 -92.5t-27 -153.5q0 -299 336 -299q159 0 281 78q121 77 121 215z
" />
    <glyph glyph-name="h" unicode="h" horiz-adv-x="1038" 
d="M1022 8v-8h-414v8h125v666q0 94 -53.5 151.5t-120.5 57.5q-178 0 -233 -172v-703h127v-8h-412v8h125v1489h-125v8h285v-774q25 79 87.5 119.5t143.5 40.5q159 0 247.5 -89.5t88.5 -252.5v-541h129z" />
    <glyph glyph-name="i" unicode="i" horiz-adv-x="509" 
d="M473 8v-8h-414v8h125v856h-125v8h287v-864h127zM264 1133q-41 0 -70.5 31t-29.5 75t29.5 75.5t70.5 31.5q43 0 73 -31.5t30 -75.5t-30 -75t-73 -31z" />
    <glyph glyph-name="j" unicode="j" horiz-adv-x="542" 
d="M346 872v-919q0 -328 -76 -465q-73 -137 -231 -137q-75 0 -126.5 37.5t-51.5 97.5q0 38 25.5 66t62.5 28q41 0 63.5 -19t22.5 -50q0 -15 -12.5 -46t-12.5 -49q0 -53 72 -53q102 0 102 242v1259h-125v8h287zM264 1133q-41 0 -70.5 31t-29.5 75t29.5 75.5t70.5 31.5
q43 0 73 -31.5t30 -75.5t-30 -75t-73 -31z" />
    <glyph glyph-name="k" unicode="k" horiz-adv-x="946" 
d="M1038 8v-8h-463v8h125l-374 461v-461h127v-8h-414v8h125v1489h-125v8h287v-1024l348 316q73 67 35 67h-125v8h305v-8h-92q-38 0 -109 -65l-254 -230l465 -561h139z" />
    <glyph glyph-name="l" unicode="l" horiz-adv-x="466" 
d="M451 8v-8h-414v8h127v1489h-127v8h287v-1497h127z" />
    <glyph glyph-name="m" unicode="m" horiz-adv-x="1605" 
d="M1587 8v-8h-411v8h124v666q0 94 -54 151.5t-122 57.5q-101 0 -166 -62q-65 -59 -65 -125v-688h127v-8h-414v8h125v666q0 94 -53.5 151.5t-120.5 57.5q-179 0 -231 -172v-703h125v-8h-412v8h125v856h-125v8h287v-141q25 79 87.5 119.5t143.5 40.5q268 0 330 -176
q17 79 86 127.5t151 48.5q338 0 338 -299v-584h125z" />
    <glyph glyph-name="n" unicode="n" horiz-adv-x="1038" 
d="M1022 8v-8h-414v8h125v666q0 94 -53.5 151.5t-120.5 57.5q-178 0 -233 -172v-703h127v-8h-412v8h125v856h-127v8h287v-141q25 79 87.5 119.5t143.5 40.5q159 0 247.5 -89.5t88.5 -252.5v-541h129z" />
    <glyph glyph-name="o" unicode="o" horiz-adv-x="1017" 
d="M508 -18q-174 0 -301 133q-125 131 -125 321q0 191 125 322q127 133 301 133q176 0 303 -133q125 -131 125 -322q0 -190 -125 -321q-127 -133 -303 -133zM772 436q0 309 -104 400q-56 47 -160 47q-105 0 -158 -47q-104 -88 -104 -400q0 -175 23.5 -264t80.5 -137
q51 -45 158 -45q109 0 160 45q55 45 79.5 136t24.5 265z" />
    <glyph glyph-name="p" unicode="p" horiz-adv-x="1024" 
d="M942 430q0 -172 -127 -311q-125 -137 -299 -137q-115 0 -190 81v-688h127v-8h-414v8h125v1489h-125v8h287v-63q76 82 190 82q174 0 299 -143q127 -142 127 -318zM778 430q0 320 -104 408q-51 45 -158 45q-120 0 -190 -88v-693q20 -54 72 -83t118 -29q107 0 158 45
q104 88 104 395z" />
    <glyph glyph-name="q" unicode="q" horiz-adv-x="1003" 
d="M985 -625v-8h-414v8h127v721q-14 -48 -65 -81t-125 -33q-176 0 -301 137t-125 311q0 176 127 318q125 143 299 143q114 0 190 -82v63h287v-8h-125v-1489h125zM698 145v650q-70 88 -190 88q-107 0 -158 -45q-104 -88 -104 -408q0 -307 104 -395q51 -45 158 -45
q86 0 138 44t52 111z" />
    <glyph glyph-name="r" unicode="r" horiz-adv-x="706" 
d="M657 770q0 -35 -25.5 -60.5t-60.5 -25.5q-37 0 -60.5 18.5t-23.5 45.5q0 15 11.5 40t11.5 33q0 43 -51 43q-84 0 -133 -155v-701h127v-8h-414v8h125v856h-125v8h287v-137q52 156 190 156q141 0 141 -121z" />
    <glyph glyph-name="s" unicode="s" horiz-adv-x="757" 
d="M690 268q0 -132 -74.5 -209t-212.5 -77q-64 0 -129 26q-72 29 -96 29q-23 0 -45 -13t-27 -26h-8v287h8q-3 -117 82 -205q90 -90 215 -90q90 0 142.5 47t52.5 133q0 80 -57 134t-176 93q-128 44 -183 94t-55 138q0 115 69 188.5t169 73.5q18 0 75.5 -10.5t91.5 -10.5
q43 0 43 29h9v-231h-9q0 96 -62 155.5t-148 59.5q-75 0 -118.5 -37.5t-43.5 -104.5q0 -151 229 -221q129 -39 193.5 -100t64.5 -152z" />
    <glyph glyph-name="t" unicode="t" horiz-adv-x="581" 
d="M541 166l8 -4q-46 -180 -197 -180q-168 0 -168 200v682h-153v8h153v244q130 18 154 94h8v-338h182v-8h-182v-792q0 -60 60 -60q43 0 80 41t55 113z" />
    <glyph glyph-name="u" unicode="u" horiz-adv-x="1017" 
d="M999 8v-8h-288v141q-25 -79 -87.5 -119t-144.5 -40q-160 0 -248 84t-88 243v555h-125v8h287v-673q0 -94 53.5 -151.5t120.5 -57.5q180 0 232 172v702h-125v8h286v-864h127z" />
    <glyph glyph-name="v" unicode="v" horiz-adv-x="849" 
d="M907 872v-8h-92q-35 0 -65 -86l-293 -794h-11l-403 880h-109v8h400v-8h-121l303 -694l225 608q30 86 0 86h-96v8h262z" />
    <glyph glyph-name="w" unicode="w" horiz-adv-x="1366" 
d="M1430 872v-8h-93q-21 0 -33 -16t-30 -70l-279 -794h-12l-299 682l-240 -682h-12l-387 880h-111v8h388v-8h-115l301 -674l172 488l-84 186h-96v8h385v-8h-127l301 -671l207 585q30 86 -6 86h-93v8h263z" />
    <glyph glyph-name="x" unicode="x" horiz-adv-x="923" 
d="M965 8v-8h-416v8h119l-244 373l-223 -303q-42 -66 -21 -70h131v-8h-305v8h100q32 0 84 70l228 309l-312 477h-114v8h416v-8h-119l221 -340l199 269q45 63 30 69q-4 2 -14 2h-129v8h305v-8h-102q-24 0 -80 -71l-203 -275l338 -510h111z" />
    <glyph glyph-name="y" unicode="y" horiz-adv-x="849" 
d="M907 872v-8h-94q-19 0 -31 -16t-32 -70l-465 -1263q-36 -95 -70.5 -130.5t-95.5 -35.5q-65 0 -105.5 29.5t-40.5 82.5q0 47 28 79t67 32q37 0 59.5 -20.5t22.5 -51.5q0 -16 -19.5 -50.5t-19.5 -47.5q0 -29 32 -29q41 0 71.5 29t59.5 109l172 469l-403 884h-109v8h400v-8
h-121l303 -694l225 608q30 86 -8 86h-88v8h262z" />
    <glyph glyph-name="z" unicode="z" horiz-adv-x="862" 
d="M776 281v-281h-735l553 864h-203q-141 0 -206.5 -60.5t-65.5 -185.5h-8v254h659l-555 -864h254q299 0 299 273h8z" />
    <glyph glyph-name="braceleft" unicode="{" horiz-adv-x="542" 
d="M547 -492v-8h-15q-175 0 -267.5 114.5t-92.5 313.5q0 111 66 291q65 177 65 221q0 49 -35 58q-11 2 -21 1.5t-27 -2t-23 -1.5q-17 0 -17 10q0 8 17 8q6 0 23 -1.5t27 -2t21 1.5q35 12 35 57t-65 222q-66 180 -66 290q0 199 92.5 313.5t267.5 114.5h15v-8h-15
q-231 0 -231 -334q0 -79 45 -249t45 -254q0 -52 -34 -98.5t-89 -59.5q55 -17 89 -63t34 -97q0 -84 -45 -254t-45 -250q0 -334 231 -334h15z" />
    <glyph glyph-name="bar" unicode="|" horiz-adv-x="315" 
d="M162 1548v-1595h-8v1595h8z" />
    <glyph glyph-name="braceright" unicode="}" horiz-adv-x="542" 
d="M371 -72q0 -199 -93 -313.5t-268 -114.5h-14v8h14q232 0 232 334q0 80 -45 250t-45 254q0 51 33.5 97t88.5 63q-55 13 -88.5 59.5t-33.5 98.5q0 84 45 254t45 249q0 334 -232 334h-14v8h14q175 0 268 -114.5t93 -313.5q0 -110 -66 -290q-65 -177 -65 -222t34 -57
q11 -2 21 -1.5t27.5 2t23.5 1.5q16 0 16 -8q0 -10 -16 -10q-6 0 -23.5 1.5t-27.5 2t-21 -1.5q-34 -9 -34 -58q0 -44 65 -221q66 -180 66 -291z" />
    <glyph glyph-name="asciitilde" unicode="~" 
d="M1067 641h82q-14 -124 -78 -198t-172 -74q-96 0 -297 75q-204 76 -274 76q-65 0 -110 -48t-56 -120h-84q35 277 252 277q95 0 293 -76q201 -74 280 -74q134 0 164 162z" />
    <glyph glyph-name="uni00A0" unicode="&#xa0;" horiz-adv-x="358" 
 />
    <glyph glyph-name="exclamdown" unicode="&#xa1;" horiz-adv-x="401" 
d="M100 -397q0 59 47 403q50 344 50 535h8q0 -195 49 -535q49 -337 49 -403q0 -144 -102 -144q-101 0 -101 144zM203 891q41 0 70.5 -31.5t29.5 -75.5t-29.5 -75t-70.5 -31q-43 0 -73 31t-30 75t30 75.5t73 31.5z" />
    <glyph glyph-name="cent" unicode="&#xa2;" horiz-adv-x="892" 
d="M504 -18v-144h-8v144q-171 9 -289 139q-119 131 -119 315q0 183 119 314q120 132 289 141v139h8v-139h10q126 0 196 -52.5t70 -133.5q0 -87 -82 -87q-36 0 -58 20.5t-22 51.5q0 14 11.5 45t11.5 53q0 54 -27 74.5t-100 20.5h-10v-893h10q208 0 328 188l8 -4
q-125 -192 -336 -192h-10zM356 35q45 -36 140 -45v893q-93 -3 -140 -47q-56 -51 -80 -139.5t-24 -260.5q0 -175 23.5 -264t80.5 -137z" />
    <glyph glyph-name="sterling" unicode="&#xa3;" horiz-adv-x="1103" 
d="M1061 244h10q-9 -102 -102 -189q-94 -88 -209 -88q-150 0 -359 117q-56 -50 -125.5 -83.5t-119.5 -33.5q-45 0 -78 25.5t-33 73.5q0 64 62 111.5t167 47.5q109 0 201 -30q33 39 33 122q0 53 -37 162q-11 33 -39 101q-8 21 -20.5 52.5t-16.5 43.5h-192v8h190
q-55 149 -55 246q0 186 102 327q103 142 273 142q93 0 168 -60q75 -57 75 -118q0 -38 -29 -67.5t-67 -29.5q-82 0 -82 70q0 15 18.5 52t18.5 54q0 89 -117 89q-196 0 -196 -359q0 -54 22 -180q27 -152 29 -166h199v-8h-199q16 -106 16 -207q0 -154 -82 -279q54 -18 109 -36
q180 -62 332 -62q59 0 93 42.5t40 109.5zM389 90q-141 78 -211 78q-59 0 -92 -28.5t-33 -76.5q0 -41 31 -64.5t72 -23.5q47 0 115 34t118 81z" />
    <glyph glyph-name="currency" unicode="&#xa4;" 
d="M954 465l131 -131l-75 -76l-131 131q-115 -92 -265 -92q-143 0 -264 92l-129 -131l-78 76l131 131q-92 122 -92 264.5t92 263.5l-131 131l76 76l129 -131q130 91 267.5 91t265.5 -91l129 131l75 -76l-131 -131q93 -128 93 -266q0 -134 -93 -262zM614 408q133 0 224 94
q94 94 94 227q0 131 -94 225q-92 95 -224 95q-131 0 -223 -95t-92 -225q0 -132 92 -227q94 -94 223 -94z" />
    <glyph glyph-name="yen" unicode="&#xa5;" horiz-adv-x="1218" 
d="M1202 1366v-8h-119q-65 0 -100 -74l-260 -549h338v-8h-342l-33 -70v-190h375v-8h-375v-451h186v-8h-534v8h186v451h-377v8h377v149l-61 111h-316v8h314l-326 623h-192v8h600v-8h-221l360 -680l285 598q22 52 22 61q0 21 -24 21h-156v8h393z" />
    <glyph glyph-name="brokenbar" unicode="&#xa6;" horiz-adv-x="454" 
d="M289 1354v-512h-123v512h123zM289 330v-512h-123v512h123z" />
    <glyph glyph-name="section" unicode="&#xa7;" horiz-adv-x="985" 
d="M889 383q0 -94 -39 -156t-129 -155q119 -107 119 -252q0 -182 -111 -305q-110 -125 -289 -125q-119 0 -235 78q-115 77 -115 153q0 37 21.5 58.5t54.5 21.5q80 0 80 -70q0 -6 -10.5 -36.5t-10.5 -47.5q0 -59 68 -106q68 -45 147 -45q136 0 219.5 87t83.5 230
q0 56 -22 102.5t-59.5 81t-86 65t-102 58t-107.5 56t-102.5 64t-86 76.5t-59.5 98.5t-22 125.5q0 84 36.5 149t129.5 163q-117 111 -117 252q0 181 109 305q110 125 289 125q121 0 215 -64q96 -66 96 -141q5 -57 -46 -76q-44 -16 -83 9q-32 20 -29 57q0 6 10.5 36.5
t10.5 47.5q0 59 -45.5 90.5t-128.5 31.5q-140 0 -221.5 -86.5t-81.5 -228.5q0 -58 21 -104.5t71.5 -87.5t85.5 -63t112 -63l33 -18q106 -57 158 -92q75 -46 121.5 -125t46.5 -174zM829 281q0 74 -58 141t-144 108q-43 22 -189 101q-103 59 -168 114q-114 -114 -114 -206
q0 -97 90 -172q100 -77 246 -150q149 -75 223 -139q114 120 114 203z" />
    <glyph glyph-name="dieresis" unicode="&#xa8;" horiz-adv-x="712" 
d="M621 1204q0 -38 -27.5 -66t-65.5 -28q-37 0 -63.5 28t-26.5 66q0 41 26.5 68.5t63.5 27.5q39 0 66 -27.5t27 -68.5zM268 1204q0 -38 -26.5 -66t-63.5 -28q-38 0 -65 28t-27 66q0 41 26.5 68.5t65.5 27.5q37 0 63.5 -27.5t26.5 -68.5z" />
    <glyph glyph-name="copyright" unicode="&#xa9;" horiz-adv-x="1626" 
d="M1319 1190q211 -208 211 -506q0 -297 -211 -508q-209 -209 -506 -209q-296 0 -508 209q-209 212 -209 508q0 297 209 506q212 209 508 209q297 0 506 -209zM1522 684q0 294 -209 500q-207 207 -500 207q-292 0 -502 -207q-207 -207 -207 -500q0 -295 207 -502
q210 -207 502 -207q293 0 500 207q209 206 209 502zM1096 530v-262h-9q-6 33 -55 33q-23 0 -94 -18q-74 -19 -104 -19q-164 0 -279 127q-113 128 -113 303q0 177 111 303q112 127 276 127q27 0 89 -16q57 -14 88 -14q54 0 57 26h8v-229h-8q0 85 -74 156q-72 69 -160 69
q-102 0 -153 -45q-101 -82 -101 -377q0 -291 101 -379q52 -43 158 -43q110 0 181.5 73t71.5 185h9z" />
    <glyph glyph-name="ordfeminine" unicode="&#xaa;" horiz-adv-x="712" 
d="M653 772l9 -2q-21 -63 -97 -63q-46 0 -81 35t-40 81q-40 -116 -165 -116q-92 0 -148.5 39t-56.5 120q0 166 196 187q11 0 17 2q145 15 151 43v139q0 80 -26.5 109.5t-81.5 29.5q-32 0 -55 -19t-23 -50q0 -8 6 -28.5t6 -27.5q0 -51 -61 -51q-60 0 -60 64q0 45 54.5 82.5
t132.5 37.5q245 0 245 -276v-328q0 -51 33 -51q30 0 45 43zM438 870v207q-10 -9 -36.5 -15t-61 -10t-41.5 -5q-47 -8 -70.5 -48.5t-23.5 -132.5q0 -69 25.5 -107t72.5 -38q56 0 95.5 45.5t39.5 103.5z" />
    <glyph glyph-name="guillemotleft" unicode="&#xab;" horiz-adv-x="768" 
d="M686 123h-8q0 71 -66 149q-41 48 -85.5 85.5t-72.5 54.5t-69 39v8q84 47 166 112q57 45 92 104t35 113h8q0 -90 -55 -184q-55 -98 -111 -149q55 -50 111 -150q55 -94 55 -182zM383 123h-8q0 71 -66 149q-41 48 -85.5 85.5t-72.5 54.5t-69 39v8q84 47 166 112
q57 45 92 104t35 113h8q0 -90 -55 -184q-55 -98 -111 -149q55 -50 111 -150q55 -94 55 -182z" />
    <glyph glyph-name="logicalnot" unicode="&#xac;" 
d="M1124 743v-493h-114v383h-908v110h1022z" />
    <glyph glyph-name="uni00AD" unicode="&#xad;" horiz-adv-x="659" 
d="M72 541h514v-105h-514v105z" />
    <glyph glyph-name="registered" unicode="&#xae;" horiz-adv-x="1626" 
d="M1319 1190q211 -208 211 -506q0 -297 -211 -508q-209 -209 -506 -209q-296 0 -508 209q-209 212 -209 508q0 297 209 506q212 209 508 209q297 0 506 -209zM1522 684q0 294 -209 500q-207 207 -500 207q-292 0 -502 -207q-207 -207 -207 -500q0 -295 207 -502
q210 -207 502 -207q293 0 500 207q209 206 209 502zM1272 311l4 -6q-38 -41 -111 -41q-170 0 -170 225v76q0 70 -49.5 106t-138.5 36h-119v-414h143v-8h-382v8h112v803h-112v8h360q128 0 205.5 -56t77.5 -145q0 -80 -75.5 -136t-185.5 -56q147 0 222 -59t75 -165v-106
q0 -45 19 -73.5t49 -28.5q44 0 76 32zM965 899q0 197 -187 197h-90v-381h119q91 0 124.5 38t33.5 146z" />
    <glyph glyph-name="overscore" unicode="&#xaf;" horiz-adv-x="712" 
d="M643 1151h-573v84h573v-84z" />
    <glyph glyph-name="degree" unicode="&#xb0;" horiz-adv-x="579" 
d="M291 1063q-66 0 -112 46t-46 112t46 111.5t112 45.5q63 0 109 -46t46 -111q0 -66 -46 -112t-109 -46zM291 1370q-61 0 -104.5 -43.5t-43.5 -105.5t43.5 -106t104.5 -44q60 0 102.5 44t42.5 106t-42.5 105.5t-102.5 43.5z" />
    <glyph glyph-name="plusminus" unicode="&#xb1;" 
d="M1124 653v-110h-450v-359h-123v359h-449v110h449v361h123v-361h450zM1124 92v-110h-1022v110h1022z" />
    <glyph glyph-name="twosuperior" unicode="&#xb2;" horiz-adv-x="675" 
d="M319 1370q-104 0 -104 -82q0 -8 5 -26t5 -23q0 -18 -15.5 -30.5t-43.5 -12.5t-41.5 17t-13.5 42q0 42 63 82q65 41 145 41q110 0 178 -53.5t68 -157.5q0 -55 -35 -108q-34 -52 -116 -131t-125 -131l-135 -162v-6h282q115 0 115 106h8v-188h-477v16l197 238
q96 116 122 184q29 76 29 193q0 115 -22.5 153.5t-88.5 38.5z" />
    <glyph glyph-name="threesuperior" unicode="&#xb3;" horiz-adv-x="675" 
d="M584 791q0 -112 -95 -183q-91 -67 -200 -67q-83 0 -138 31.5t-55 76.5q0 27 15 46.5t43 19.5q57 0 57 -43q0 -7 -5 -29t-5 -29q0 -65 88 -65q86 0 123 43t37 188q0 228 -111 228q-33 0 -115 -43l-4 8q104 55 141 104q37 52 37 148q0 90 -19.5 116.5t-78.5 26.5
q-72 0 -72 -61q0 -9 6.5 -26t6.5 -21q0 -22 -16 -38t-44 -16q-55 0 -55 58q0 40 53.5 76t120.5 36q107 0 168 -41t61 -121q0 -62 -65 -115.5t-166 -88.5q33 8 49 8q106 0 172 -66t66 -161z" />
    <glyph glyph-name="acute" unicode="&#xb4;" horiz-adv-x="712" 
d="M209 1057l-4 4l244 260q51 55 63 62q11 6 33 10q28 0 47.5 -20.5t19.5 -47.5q0 -33 -51 -59z" />
    <glyph glyph-name="mu" unicode="&#xb5;" horiz-adv-x="1015" 
d="M999 8v-8h-288v141q-25 -79 -87.5 -119t-144.5 -40q-264 0 -323 215l2 -15q4 -85 20 -245q19 -185 19 -232q0 -41 -15 -96q-15 -58 -39 -58q-25 0 -37 54q-12 53 -12 100q0 39 23 221q21 163 24 242q2 27 2 115v581h-125v8h287v-673q0 -94 53.5 -151.5t120.5 -57.5
q180 0 232 172v702h-125v8h286v-864h127z" />
    <glyph glyph-name="paragraph" unicode="&#xb6;" horiz-adv-x="1189" 
d="M1120 1366v-8h-133q-50 -17 -79 -113.5t-29 -247.5v-784q0 -166 -19 -280t-65 -205q-94 -193 -357 -193q-77 0 -159 29q-74 27 -74 98q0 39 27 67.5t65 28.5t66 -27t28 -65q0 -6 -13 -39t-13 -43q0 -14 14.5 -25.5t34.5 -11.5q204 0 204 504v400q-226 -12 -389 108
q-159 123 -159 348q0 128 54.5 223.5t149.5 143.5q180 92 428 92h418zM963 1358h-238q-98 -70 -98 -494v-821q0 -482 -189 -500q111 0 193 38.5t129 103.5q44 56 69 161q25 98 33 190.5t8 242.5v718q0 283 93 361z" />
    <glyph glyph-name="middot" unicode="&#xb7;" horiz-adv-x="358" 
d="M285 725q0 -44 -30 -76.5t-73 -32.5q-41 0 -70.5 32.5t-29.5 76.5q0 43 29.5 73.5t70.5 30.5q43 0 73 -30.5t30 -73.5z" />
    <glyph glyph-name="cedilla" unicode="&#xb8;" horiz-adv-x="712" 
d="M549 -309q0 -68 -47.5 -106t-130.5 -38q-67 0 -112.5 30.5t-45.5 70.5q0 24 13 38.5t36 14.5q45 0 45 -43q0 -14 -14 -32t-14 -21q0 -19 28.5 -34t63.5 -15q60 0 99.5 29.5t39.5 72.5q3 18 -27.5 35.5t-68 31t-68 44.5t-27.5 73q0 37 22.5 84t47.5 68l4 -2
q-39 -45 -39 -88q0 -27 20 -46t49 -31.5t57.5 -27t48.5 -41.5t20 -67z" />
    <glyph glyph-name="onesuperior" unicode="&#xb9;" horiz-adv-x="675" 
d="M510 555v-8h-307v8h90v803h-90v8h219v-811h88z" />
    <glyph glyph-name="ordmasculine" unicode="&#xba;" horiz-adv-x="806" 
d="M719 1044q0 -138 -94 -239q-90 -100 -224 -100q-131 0 -221 100q-92 103 -92 239q0 140 92 240q90 100 221 100q134 0 224 -100q94 -98 94 -240zM578 1044q0 232 -68 297q-35 35 -109 35q-69 0 -104 -35q-70 -61 -70 -297q0 -235 70 -299q32 -32 104 -32q77 0 109 32
q68 62 68 299z" />
    <glyph glyph-name="guillemotright" unicode="&#xbb;" horiz-adv-x="768" 
d="M686 459v-8q-45 -23 -104 -64q-57 -36 -123 -115q-66 -78 -66 -149h-8q0 87 53 182q60 103 113 150q-54 48 -113 149q-53 95 -53 184h8q0 -54 34.5 -112.5t90.5 -104.5q85 -65 168 -112zM383 459v-8q-45 -23 -104 -64q-57 -36 -123 -115q-66 -78 -66 -149h-8q0 87 53 182
q60 103 113 150q-54 48 -113 149q-53 95 -53 184h8q0 -54 34.5 -112.5t90.5 -104.5q85 -65 168 -112z" />
    <glyph glyph-name="onequarter" unicode="&#xbc;" horiz-adv-x="1552" 
d="M1452 8v-8h-307v8h90v271h-301v8q87 117 110 162l191 370q40 -16 92 7.5t88 64.5l6 -4l-479 -600h293v125q99 3 119 114h8v-239h131v-8h-131v-271h90zM1184 1391l6 -5l-821 -1419l-7 4zM510 555v-8h-307v8h90v803h-90v8h219v-811h88z" />
    <glyph glyph-name="onehalf" unicode="&#xbd;" horiz-adv-x="1552" 
d="M1180 823q-105 0 -105 -82q0 -7 5 -26t5 -23q0 -18 -15.5 -30.5t-43.5 -12.5q-27 0 -41 17.5t-14 42.5q0 42 63 82q64 40 146 40q110 0 177.5 -53t67.5 -157q0 -57 -34 -109q-33 -50 -117 -131q-82 -79 -125 -131l-135 -162v-6h282q115 0 115 106h8v-188h-477v16l197 238
q98 118 123 184q28 73 28 193q0 115 -22 153.5t-88 38.5zM1143 1391l6 -5l-821 -1419l-6 4zM510 555v-8h-307v8h90v803h-90v8h219v-811h88z" />
    <glyph glyph-name="threequarters" unicode="&#xbe;" horiz-adv-x="1552" 
d="M584 791q0 -112 -95 -183q-91 -67 -200 -67q-83 0 -138 31.5t-55 76.5q0 27 15 46.5t43 19.5q57 0 57 -43q0 -7 -5 -29t-5 -29q0 -65 88 -65q86 0 123 43t37 188q0 228 -111 228q-33 0 -115 -43l-4 8q104 55 141 104q37 52 37 148q0 90 -19.5 116.5t-78.5 26.5
q-72 0 -72 -61q0 -9 6.5 -26t6.5 -21q0 -22 -16 -38t-44 -16q-55 0 -55 58q0 40 53.5 76t120.5 36q107 0 168 -41t61 -121q0 -62 -65 -115.5t-166 -88.5q33 8 49 8q106 0 172 -66t66 -161zM1452 8v-8h-307v8h90v271h-301v8q87 117 110 162l191 370q40 -16 92 7.5t88 64.5
l6 -4l-479 -600h293v125q99 3 119 114h8v-239h131v-8h-131v-271h90zM1204 1391l6 -5l-821 -1419l-6 4z" />
    <glyph glyph-name="questiondown" unicode="&#xbf;" horiz-adv-x="788" 
d="M68 -139q0 169 98 276q103 109 244 109q96 0 139 -58v353h8v-369l-6 -2q-35 68 -141 68q-74 0 -121 -35q-31 -25 -43 -88q-10 -68 -10 -254q0 -265 102 -350q52 -43 143 -43q123 0 123 94q0 15 -20.5 55.5t-20.5 58.5q0 33 24 55.5t62 22.5q90 0 90 -92q0 -86 -69 -144.5
t-189 -58.5q-181 0 -297 113t-116 289zM555 891q41 0 70.5 -31.5t29.5 -75.5t-29.5 -75t-70.5 -31q-43 0 -72.5 31t-29.5 75t29.5 75.5t72.5 31.5z" />
    <glyph glyph-name="Agrave" unicode="&#xc0;" horiz-adv-x="1294" 
d="M1350 8v-8h-605v8h199l-172 465h-473l-143 -385q-12 -35 -14.5 -52t2.5 -22.5t20 -5.5h153v-8h-364v8h137q30 0 57 80l480 1305h10l534 -1385h179zM301 481h467l-231 639zM502 1778l243 -260l-4 -5l-352 209q-51 26 -51 60q0 29 19.5 48t48.5 19q21 0 37.5 -12t58.5 -59z
" />
    <glyph glyph-name="Aacute" unicode="&#xc1;" horiz-adv-x="1294" 
d="M1350 8v-8h-605v8h199l-172 465h-473l-143 -385q-12 -35 -14.5 -52t2.5 -22.5t20 -5.5h153v-8h-364v8h137q30 0 57 80l480 1305h10l534 -1385h179zM301 481h467l-231 639zM547 1513l-4 5l243 260q44 47 57 57t40 14q27 0 47 -19t20 -48q0 -34 -51 -60z" />
    <glyph glyph-name="Acircumflex" unicode="&#xc2;" horiz-adv-x="1294" 
d="M1350 8v-8h-605v8h199l-172 465h-473l-143 -385q-12 -35 -14.5 -52t2.5 -22.5t20 -5.5h153v-8h-364v8h137q30 0 57 80l480 1305h10l534 -1385h179zM301 481h467l-231 639zM645 1677l-260 -182l-2 4q192 226 260 359h4q72 -138 262 -359l-4 -4z" />
    <glyph glyph-name="Atilde" unicode="&#xc3;" horiz-adv-x="1294" 
d="M1350 8v-8h-605v8h199l-172 465h-473l-143 -385q-12 -35 -14.5 -52t2.5 -22.5t20 -5.5h153v-8h-364v8h137q30 0 57 80l480 1305h10l534 -1385h179zM301 481h467l-231 639zM946 1788h6q-2 -24 -16 -70q-10 -35 -59 -90q-46 -49 -117 -49q-60 0 -148 49q-89 47 -129 47
q-113 0 -131 -86l-4 -10h-6q17 91 68.5 147t113.5 56q39 0 142 -47q94 -49 139 -49q108 3 141 102z" />
    <glyph glyph-name="Adieresis" unicode="&#xc4;" horiz-adv-x="1294" 
d="M1350 8v-8h-605v8h199l-172 465h-473l-143 -385q-12 -35 -14.5 -52t2.5 -22.5t20 -5.5h153v-8h-364v8h137q30 0 57 80l480 1305h10l534 -1385h179zM301 481h467l-231 639zM444 1536q-41 0 -70.5 31t-29.5 75t29.5 75.5t70.5 31.5q43 0 73 -31.5t30 -75.5t-30 -75t-73 -31
zM819 1536q-41 0 -70.5 31t-29.5 75t29.5 75.5t70.5 31.5q43 0 73 -31.5t30 -75.5t-30 -75t-73 -31z" />
    <glyph glyph-name="Aring" unicode="&#xc5;" horiz-adv-x="1294" 
d="M821 1575q0 -73 -57 -127q-54 -54 -127 -57l534 -1383h179v-8h-605v8h199l-172 465h-473l-143 -385q-12 -35 -14.5 -52t2.5 -22.5t20 -5.5h153v-8h-364v8h137q30 0 57 80l478 1303q-73 5 -127 59t-54 125q0 91 64 137q64 49 125 49q59 0 123 -49q65 -47 65 -137zM301 481
h467l-231 639zM535 1573q0 -97 23 -136.5t75 -39.5t75 39.5t23 136.5t-20.5 139.5t-77.5 42.5t-77.5 -42.5t-20.5 -139.5z" />
    <glyph glyph-name="AE" unicode="&#xc6;" horiz-adv-x="1773" 
d="M379 571h428v777zM1731 387v-387h-1100v8h176v555h-432l-252 -459q-12 -23 -17.5 -35t-11 -29t-1 -24.5t17.5 -7.5h143v-8h-352v8h127q26 0 82 96l690 1254h-174v8h999v-348h-8q0 154 -86 247t-252 93h-262v-653h106q116 0 181 59t65 162h6v-449h-8q0 101 -65 161
t-181 60h-104v-690h268q219 0 327.5 102.5t108.5 276.5h9z" />
    <glyph glyph-name="Ccedilla" unicode="&#xc7;" horiz-adv-x="1269" 
d="M1176 410v-439h-9q-5 22 -29.5 40t-58.5 18q-37 0 -155 -31t-179 -31l-32 2q-23 -38 -23 -65t20 -46t49 -31.5t57.5 -27t48.5 -41.5t20 -67q0 -68 -47.5 -106t-130.5 -38q-67 0 -112.5 30.5t-45.5 70.5q0 24 13 38.5t36 14.5q45 0 45 -43q0 -14 -14.5 -32t-14.5 -21
q0 -19 29 -34t64 -15q60 0 99.5 29.5t39.5 72.5q2 18 -28.5 35.5t-68 31t-67.5 44.5t-27 73q0 62 47 127q-256 18 -434 226q-172 205 -172 487q0 291 183 504q186 213 456 213q50 0 152 -27q102 -24 145 -24q39 0 66 13.5t32 31.5h9v-381h-9q0 145 -124 260
q-122 119 -271 119q-167 0 -250 -74q-168 -143 -168 -635q0 -490 168 -633q83 -74 260 -74q182 0 302 123t120 312h9z" />
    <glyph glyph-name="Egrave" unicode="&#xc8;" 
d="M1186 387v-387h-1110v8h186v1350h-186v8h1005v-348h-8q0 154 -86 247t-252 93h-262v-653h102q118 0 183 59t65 162h8v-449h-8q0 101 -65 161t-180 60h-105v-690h266q219 0 329 103t110 276h8zM551 1778l244 -260l-4 -5l-353 209q-51 26 -51 60q0 29 19.5 48t48.5 19
q21 0 37.5 -12t58.5 -59z" />
    <glyph glyph-name="Eacute" unicode="&#xc9;" 
d="M1186 387v-387h-1110v8h186v1350h-186v8h1005v-348h-8q0 154 -86 247t-252 93h-262v-653h102q118 0 183 59t65 162h8v-449h-8q0 101 -65 161t-180 60h-105v-690h266q219 0 329 103t110 276h8zM514 1513l-4 5l244 260q45 48 57 57.5t39 13.5q27 0 47.5 -19.5t20.5 -47.5
q0 -33 -52 -60z" />
    <glyph glyph-name="Ecircumflex" unicode="&#xca;" 
d="M1186 387v-387h-1110v8h186v1350h-186v8h1005v-348h-8q0 154 -86 247t-252 93h-262v-653h102q118 0 183 59t65 162h8v-449h-8q0 101 -65 161t-180 60h-105v-690h266q219 0 329 103t110 276h8zM612 1677l-260 -182l-2 4q192 226 260 359h4q71 -135 263 -359l-5 -4z" />
    <glyph glyph-name="Edieresis" unicode="&#xcb;" 
d="M1186 387v-387h-1110v8h186v1350h-186v8h1005v-348h-8q0 154 -86 247t-252 93h-262v-653h102q118 0 183 59t65 162h8v-449h-8q0 101 -65 161t-180 60h-105v-690h266q219 0 329 103t110 276h8zM426 1536q-41 0 -70.5 31t-29.5 75t29.5 75.5t70.5 31.5q43 0 72.5 -31.5
t29.5 -75.5t-29.5 -75t-72.5 -31zM801 1536q-41 0 -71 31t-30 75t30 75.5t71 31.5q43 0 72.5 -31.5t29.5 -75.5t-29.5 -75t-72.5 -31z" />
    <glyph glyph-name="Igrave" unicode="&#xcc;" horiz-adv-x="731" 
d="M659 8v-8h-583v8h186v1350h-186v8h583v-8h-188v-1350h188zM262 1778l244 -260l-4 -5l-352 209q-52 27 -52 60q0 28 20.5 47.5t47.5 19.5q21 0 37.5 -12t58.5 -59z" />
    <glyph glyph-name="Iacute" unicode="&#xcd;" horiz-adv-x="731" 
d="M659 8v-8h-583v8h186v1350h-186v8h583v-8h-188v-1350h188zM246 1513l-4 5l243 260q44 47 57 57t40 14q29 0 48 -19t19 -48q0 -34 -51 -60z" />
    <glyph glyph-name="Icircumflex" unicode="&#xce;" horiz-adv-x="731" 
d="M659 8v-8h-583v8h186v1350h-186v8h583v-8h-188v-1350h188zM365 1677l-261 -182l-2 4q192 226 260 359h5q72 -138 262 -359l-4 -4z" />
    <glyph glyph-name="Idieresis" unicode="&#xcf;" horiz-adv-x="731" 
d="M659 8v-8h-583v8h186v1350h-186v8h583v-8h-188v-1350h188zM178 1536q-41 0 -70.5 31t-29.5 75t29.5 75.5t70.5 31.5q43 0 73 -31.5t30 -75.5t-30 -75t-73 -31zM553 1536q-41 0 -70.5 31t-29.5 75t29.5 75.5t70.5 31.5q43 0 72.5 -31.5t29.5 -75.5t-29.5 -75t-72.5 -31z
" />
    <glyph glyph-name="Eth" unicode="&#xd0;" horiz-adv-x="1441" 
d="M102 692v8h160v658h-184v8h629q263 0 452 -201t189 -483q0 -280 -189 -481t-452 -201h-629v8h184v684h-160zM1126 682q0 463 -168 606q-85 70 -251 70h-234v-658h186v-8h-186v-684h234q167 0 251 72q86 71 127 205t41 397z" />
    <glyph glyph-name="Ntilde" unicode="&#xd1;" horiz-adv-x="1433" 
d="M1184 -25l-924 1373v-1246q0 -94 33 -94h153v-8h-383v8h160q29 0 29 94v1256h-186v8h432l688 -1026v924q0 94 -33 94h-156v8h383v-8h-157q-29 0 -29 -94v-1289h-10zM1016 1788h6q-2 -24 -16 -70q-10 -33 -60 -90q-46 -49 -117 -49q-59 0 -147 49q-89 47 -129 47
q-113 0 -131 -86l-4 -10h-6q17 91 68.5 147t113.5 56q38 0 141 -47q94 -49 139 -49q109 3 142 102z" />
    <glyph glyph-name="Ograve" unicode="&#xd2;" horiz-adv-x="1474" 
d="M735 -33q-264 0 -452 209q-187 208 -187 506q0 291 183 504q186 213 456 213q268 0 455 -211q188 -209 188 -506t-188 -506t-455 -209zM1155 682q0 488 -166 635q-86 74 -254 74q-164 0 -250 -74q-166 -144 -166 -635q0 -284 39 -420q41 -139 127 -213q83 -74 250 -74
q171 0 254 74q84 72 125 213q41 143 41 420zM592 1778l244 -260l-5 -5l-352 209q-51 26 -51 60q0 29 19.5 48t48.5 19q21 0 37.5 -12t58.5 -59z" />
    <glyph glyph-name="Oacute" unicode="&#xd3;" horiz-adv-x="1474" 
d="M735 -33q-264 0 -452 209q-187 208 -187 506q0 291 183 504q186 213 456 213q268 0 455 -211q188 -209 188 -506t-188 -506t-455 -209zM1155 682q0 488 -166 635q-86 74 -254 74q-164 0 -250 -74q-166 -144 -166 -635q0 -284 39 -420q41 -139 127 -213q83 -74 250 -74
q171 0 254 74q84 72 125 213q41 143 41 420zM657 1513l-4 5l244 260q45 48 57 57.5t39 13.5q27 0 47.5 -19.5t20.5 -47.5q0 -34 -51 -60z" />
    <glyph glyph-name="Ocircumflex" unicode="&#xd4;" horiz-adv-x="1474" 
d="M735 -33q-264 0 -452 209q-187 208 -187 506q0 291 183 504q186 213 456 213q268 0 455 -211q188 -209 188 -506t-188 -506t-455 -209zM1155 682q0 488 -166 635q-86 74 -254 74q-164 0 -250 -74q-166 -144 -166 -635q0 -284 39 -420q41 -139 127 -213q83 -74 250 -74
q171 0 254 74q84 72 125 213q41 143 41 420zM735 1677l-260 -182l-2 4q192 226 260 359h4q72 -138 262 -359l-4 -4z" />
    <glyph glyph-name="Otilde" unicode="&#xd5;" horiz-adv-x="1474" 
d="M735 -33q-264 0 -452 209q-187 208 -187 506q0 291 183 504q186 213 456 213q268 0 455 -211q188 -209 188 -506t-188 -506t-455 -209zM1155 682q0 488 -166 635q-86 74 -254 74q-164 0 -250 -74q-166 -144 -166 -635q0 -284 39 -420q41 -139 127 -213q83 -74 250 -74
q171 0 254 74q84 72 125 213q41 143 41 420zM1036 1788h6q-2 -24 -16 -70q-10 -35 -59 -90q-46 -49 -117 -49q-60 0 -148 49q-89 47 -129 47q-113 0 -131 -86l-4 -10h-6q17 91 68.5 147t113.5 56q39 0 142 -47q94 -49 139 -49q108 3 141 102z" />
    <glyph glyph-name="Odieresis" unicode="&#xd6;" horiz-adv-x="1474" 
d="M735 -33q-264 0 -452 209q-187 208 -187 506q0 291 183 504q186 213 456 213q268 0 455 -211q188 -209 188 -506t-188 -506t-455 -209zM1155 682q0 488 -166 635q-86 74 -254 74q-164 0 -250 -74q-166 -144 -166 -635q0 -284 39 -420q41 -139 127 -213q83 -74 250 -74
q171 0 254 74q84 72 125 213q41 143 41 420zM539 1536q-41 0 -71 31t-30 75t30 75.5t71 31.5q43 0 72.5 -31.5t29.5 -75.5t-29.5 -75t-72.5 -31zM913 1536q-41 0 -70.5 31t-29.5 75t29.5 75.5t70.5 31.5q43 0 73 -31.5t30 -75.5t-30 -75t-73 -31z" />
    <glyph glyph-name="multiply" unicode="&#xd7;" 
d="M1008 182l-78 -80l-320 320l-313 -313l-78 77l313 314l-317 317l80 78l315 -317l314 313l77 -78l-311 -313z" />
    <glyph glyph-name="Oslash" unicode="&#xd8;" horiz-adv-x="1474" 
d="M1378 682q0 -297 -188 -506t-455 -209q-191 0 -350 117l-70 -123l-8 4l72 123q-132 99 -207.5 256t-75.5 338q0 291 183 504q186 213 456 213q183 0 338 -107l68 117l8 -4l-68 -119q137 -97 217 -258t80 -346zM1155 682q0 382 -102 555l-639 -1106q29 -51 71 -82
q83 -74 250 -74q171 0 254 74q84 72 125 213q41 143 41 420zM319 682q0 -389 89 -543l639 1108q-27 46 -58 70q-86 74 -254 74q-164 0 -250 -74q-166 -144 -166 -635z" />
    <glyph glyph-name="Ugrave" unicode="&#xd9;" horiz-adv-x="1404" 
d="M1194 406v878q0 74 -31 74h-155v8h381v-8h-156q-29 0 -29 -74v-878q0 -211 -119 -325t-354 -114q-233 0 -370.5 113t-137.5 319v959h-186v8h584v-8h-187v-959q0 -409 344 -409q206 0 311 108.5t105 307.5zM639 1778l244 -260l-4 -5l-353 209q-51 26 -51 60
q0 28 20.5 47.5t47.5 19.5q21 0 37.5 -12t58.5 -59z" />
    <glyph glyph-name="Uacute" unicode="&#xda;" horiz-adv-x="1404" 
d="M1194 406v878q0 74 -31 74h-155v8h381v-8h-156q-29 0 -29 -74v-878q0 -211 -119 -325t-354 -114q-233 0 -370.5 113t-137.5 319v959h-186v8h584v-8h-187v-959q0 -409 344 -409q206 0 311 108.5t105 307.5zM684 1513l-4 5l244 260q45 48 57 57.5t39 13.5q29 0 48 -19
t19 -48q0 -34 -51 -60z" />
    <glyph glyph-name="Ucircumflex" unicode="&#xdb;" horiz-adv-x="1404" 
d="M1194 406v878q0 74 -31 74h-155v8h381v-8h-156q-29 0 -29 -74v-878q0 -211 -119 -325t-354 -114q-233 0 -370.5 113t-137.5 319v959h-186v8h584v-8h-187v-959q0 -409 344 -409q206 0 311 108.5t105 307.5zM803 1677l-260 -182l-2 4q192 226 260 359h4q72 -138 262 -359
l-4 -4z" />
    <glyph glyph-name="Udieresis" unicode="&#xdc;" horiz-adv-x="1404" 
d="M1194 406v878q0 74 -31 74h-155v8h381v-8h-156q-29 0 -29 -74v-878q0 -211 -119 -325t-354 -114q-233 0 -370.5 113t-137.5 319v959h-186v8h584v-8h-187v-959q0 -409 344 -409q206 0 311 108.5t105 307.5zM596 1536q-41 0 -70.5 31t-29.5 75t29.5 75.5t70.5 31.5
q43 0 72.5 -31.5t29.5 -75.5t-29.5 -75t-72.5 -31zM971 1536q-41 0 -71 31t-30 75t30 75.5t71 31.5q43 0 72.5 -31.5t29.5 -75.5t-29.5 -75t-72.5 -31z" />
    <glyph glyph-name="Yacute" unicode="&#xdd;" horiz-adv-x="1236" 
d="M1286 1366v-8h-135q-20 0 -35 -15.5t-39 -64.5l-309 -649v-621h186v-8h-583v8h188v588l-401 762h-191v8h647v-8h-219l369 -715l301 635q16 35 20 54t1 22.5t-11 3.5h-180v8h391zM662 1513l-5 5l244 260q45 48 57 57.5t39 13.5q27 0 47.5 -19.5t20.5 -47.5q0 -34 -51 -60z
" />
    <glyph glyph-name="Thorn" unicode="&#xde;" horiz-adv-x="1261" 
d="M473 1358v-228v-8h184q258 0 402 -123q145 -121 145 -303q0 -177 -141 -288q-138 -111 -377 -111q-114 0 -213 22v-311h176v-8h-565v8h178v1350h-178v8h565v-8h-176zM657 1114h-184v-780q73 -31 213 -31q145 0 227 99.5t82 293.5q0 201 -98 308q-98 110 -240 110z" />
    <glyph glyph-name="germandbls" unicode="&#xdf;" horiz-adv-x="1085" 
d="M989 371q0 -184 -90 -285q-88 -98 -199 -98q-92 0 -149 43.5t-57 111.5q0 74 69 74q24 0 41 -15.5t17 -39.5q0 -7 -8.5 -32.5t-8.5 -39.5q0 -52 21 -73t75 -21q34 0 52.5 10.5t34.5 46t22 107.5t6 192q0 256 -41 346t-158 90q-39 0 -81 -26l-5 6q47 28 69 42t46 39
t32 42.5t17 57t11 79.5t4 113q0 153 -35.5 216.5t-130.5 63.5q-82 0 -129 -58t-47 -175v-1180h116v-8h-403v8h117v856q0 282 92.5 424t253.5 142q144 0 233.5 -79t89.5 -214q0 -109 -80.5 -203.5t-207.5 -145.5q57 11 81 11q151 0 240 -133q90 -134 90 -295z" />
    <glyph glyph-name="agrave" unicode="&#xe0;" horiz-adv-x="894" 
d="M870 63l7 -2q-8 -32 -46 -54.5t-90 -22.5q-125 0 -149 131q-18 -61 -85.5 -96t-156.5 -35q-122 0 -196 52.5t-74 160.5q0 73 27 126.5t73 79.5q80 45 160 54q196 18 229 41q9 10 13 20v156q0 106 -44.5 157.5t-115.5 51.5q-88 0 -88 -92q0 -12 7 -39t7 -35
q0 -31 -22.5 -50.5t-63.5 -19.5q-39 0 -59.5 24.5t-20.5 63.5q0 61 67.5 108.5t172.5 47.5q321 0 321 -371v-440q0 -68 54 -68q24 0 44.5 15.5t28.5 35.5zM582 141v351q-13 -13 -52.5 -21t-90 -13t-60.5 -7q-141 -27 -141 -254q0 -199 149 -199q76 0 135.5 43t59.5 100z
M322 1321l243 -260l-4 -4l-352 209q-51 26 -51 59q0 27 19.5 47.5t47.5 20.5q20 0 37.5 -12.5t59.5 -59.5z" />
    <glyph glyph-name="aacute" unicode="&#xe1;" horiz-adv-x="894" 
d="M870 63l7 -2q-8 -32 -46 -54.5t-90 -22.5q-125 0 -149 131q-18 -61 -85.5 -96t-156.5 -35q-122 0 -196 52.5t-74 160.5q0 73 27 126.5t73 79.5q80 45 160 54q196 18 229 41q9 10 13 20v156q0 106 -44.5 157.5t-115.5 51.5q-88 0 -88 -92q0 -12 7 -39t7 -35
q0 -31 -22.5 -50.5t-63.5 -19.5q-39 0 -59.5 24.5t-20.5 63.5q0 61 67.5 108.5t172.5 47.5q321 0 321 -371v-440q0 -68 54 -68q24 0 44.5 15.5t28.5 35.5zM582 141v351q-13 -13 -52.5 -21t-90 -13t-60.5 -7q-141 -27 -141 -254q0 -199 149 -199q76 0 135.5 43t59.5 100z
M346 1057l-4 4l244 260q51 55 63 62q11 6 33 10q26 0 47 -21t21 -47q0 -32 -52 -59z" />
    <glyph glyph-name="acircumflex" unicode="&#xe2;" horiz-adv-x="894" 
d="M870 63l7 -2q-8 -32 -46 -54.5t-90 -22.5q-125 0 -149 131q-18 -61 -85.5 -96t-156.5 -35q-122 0 -196 52.5t-74 160.5q0 73 27 126.5t73 79.5q80 45 160 54q196 18 229 41q9 10 13 20v156q0 106 -44.5 157.5t-115.5 51.5q-88 0 -88 -92q0 -12 7 -39t7 -35
q0 -31 -22.5 -50.5t-63.5 -19.5q-39 0 -59.5 24.5t-20.5 63.5q0 61 67.5 108.5t172.5 47.5q321 0 321 -371v-440q0 -68 54 -68q24 0 44.5 15.5t28.5 35.5zM582 141v351q-13 -13 -52.5 -21t-90 -13t-60.5 -7q-141 -27 -141 -254q0 -199 149 -199q76 0 135.5 43t59.5 100z
M446 1221l-260 -183l-2 4q192 226 260 359h5q72 -138 262 -359l-4 -4z" />
    <glyph glyph-name="atilde" unicode="&#xe3;" horiz-adv-x="894" 
d="M870 63l7 -2q-8 -32 -46 -54.5t-90 -22.5q-125 0 -149 131q-18 -61 -85.5 -96t-156.5 -35q-122 0 -196 52.5t-74 160.5q0 73 27 126.5t73 79.5q80 45 160 54q196 18 229 41q9 10 13 20v156q0 106 -44.5 157.5t-115.5 51.5q-88 0 -88 -92q0 -12 7 -39t7 -35
q0 -31 -22.5 -50.5t-63.5 -19.5q-39 0 -59.5 24.5t-20.5 63.5q0 61 67.5 108.5t172.5 47.5q321 0 321 -371v-440q0 -68 54 -68q24 0 44.5 15.5t28.5 35.5zM582 141v351q-13 -13 -52.5 -21t-90 -13t-60.5 -7q-141 -27 -141 -254q0 -199 149 -199q76 0 135.5 43t59.5 100z
M745 1331h7q-2 -18 -17 -69q-11 -37 -59 -91q-46 -49 -117 -49q-59 0 -147 49q-91 48 -129 48q-115 0 -131 -89l-5 -8h-6q17 91 68.5 147t114.5 56q38 0 141 -47q94 -49 139 -49q108 3 141 102z" />
    <glyph glyph-name="adieresis" unicode="&#xe4;" horiz-adv-x="894" 
d="M870 63l7 -2q-8 -32 -46 -54.5t-90 -22.5q-125 0 -149 131q-18 -61 -85.5 -96t-156.5 -35q-122 0 -196 52.5t-74 160.5q0 73 27 126.5t73 79.5q80 45 160 54q196 18 229 41q9 10 13 20v156q0 106 -44.5 157.5t-115.5 51.5q-88 0 -88 -92q0 -12 7 -39t7 -35
q0 -31 -22.5 -50.5t-63.5 -19.5q-39 0 -59.5 24.5t-20.5 63.5q0 61 67.5 108.5t172.5 47.5q321 0 321 -371v-440q0 -68 54 -68q24 0 44.5 15.5t28.5 35.5zM582 141v351q-13 -13 -52.5 -21t-90 -13t-60.5 -7q-141 -27 -141 -254q0 -199 149 -199q76 0 135.5 43t59.5 100z
M711 1204q0 -38 -27.5 -66t-65.5 -28q-37 0 -63.5 28t-26.5 66q0 41 26.5 68.5t63.5 27.5q39 0 66 -27.5t27 -68.5zM358 1204q0 -38 -26.5 -66t-63.5 -28q-38 0 -65 28t-27 66q0 41 26.5 68.5t65.5 27.5q37 0 63.5 -27.5t26.5 -68.5z" />
    <glyph glyph-name="aring" unicode="&#xe5;" horiz-adv-x="894" 
d="M870 63l7 -2q-8 -32 -46 -54.5t-90 -22.5q-125 0 -149 131q-18 -61 -85.5 -96t-156.5 -35q-122 0 -196 52.5t-74 160.5q0 73 27 126.5t73 79.5q80 45 160 54q196 18 229 41q9 10 13 20v156q0 106 -44.5 157.5t-115.5 51.5q-88 0 -88 -92q0 -12 7 -39t7 -35
q0 -31 -22.5 -50.5t-63.5 -19.5q-39 0 -59.5 24.5t-20.5 63.5q0 61 67.5 108.5t172.5 47.5q321 0 321 -371v-440q0 -68 54 -68q24 0 44.5 15.5t28.5 35.5zM582 141v351q-13 -13 -52.5 -21t-90 -13t-60.5 -7q-141 -27 -141 -254q0 -199 149 -199q76 0 135.5 43t59.5 100z
M635 1249q0 -73 -57.5 -128.5t-131.5 -55.5t-131 55.5t-57 128.5q0 91 64 137q65 50 124 50q58 0 123 -50q66 -48 66 -137zM348 1247q0 -97 23 -136.5t75 -39.5t75.5 40t23.5 136t-21 139.5t-78 43.5t-77.5 -43t-20.5 -140z" />
    <glyph glyph-name="ae" unicode="&#xe6;" horiz-adv-x="1413" 
d="M666 207q-51 -150 -146 -191q-45 -19 -80.5 -25.5t-89.5 -6.5q-122 0 -196 52.5t-74 160.5q0 73 27 126.5t73 79.5q80 45 160 54q196 18 229 41q9 10 13 20v156q0 106 -44.5 157.5t-115.5 51.5q-88 0 -88 -92q0 -12 7 -39t7 -35q0 -31 -22.5 -50.5t-63.5 -19.5
q-39 0 -59.5 24.5t-20.5 63.5q0 61 67.5 108.5t172.5 47.5q179 0 256 -133q121 133 307 133q73 1 134.5 -26t102 -70t69 -97.5t41 -108.5t11.5 -104h-598q-2 -10 -2 -51q0 -180 19 -270q21 -87 72 -129q51 -45 151 -45q101 0 188.5 53t145.5 145l6 -4q-61 -94 -150 -148
t-190 -54q-113 0 -195.5 58t-123.5 167zM745 494h435q-6 273 -72 342q-47 47 -123 47q-95 0 -151 -47q-83 -71 -89 -342zM582 190v302q-13 -13 -52.5 -21t-90 -13t-60.5 -7q-141 -27 -141 -254q0 -199 149 -199q97 0 146 42.5t49 149.5z" />
    <glyph glyph-name="ccedilla" unicode="&#xe7;" horiz-adv-x="880" 
d="M838 178l6 -4q-125 -192 -336 -192h-23q-30 -47 -30 -78q0 -27 20 -46t48.5 -31.5t57 -27t48.5 -41.5t20 -67q0 -68 -47.5 -106t-130.5 -38q-67 0 -112.5 30.5t-45.5 70.5q0 24 13 38.5t36 14.5q46 0 46 -43q0 -14 -14.5 -32t-14.5 -21q0 -19 28.5 -34t63.5 -15
q60 0 99.5 29.5t39.5 72.5q0 19 -19.5 33t-47.5 24t-56 23t-47.5 39.5t-19.5 64.5q0 77 57 140q-167 12 -280 143q-115 133 -115 311q0 191 125 322q127 133 301 133q126 0 196 -52.5t70 -133.5q0 -87 -82 -87q-36 0 -58 20.5t-22 51.5q0 14 11.5 45t11.5 53q0 54 -27 74.5
t-100 20.5q-105 0 -158 -47q-56 -48 -80 -137t-24 -263q0 -175 23.5 -264t80.5 -137q51 -45 158 -45q210 0 330 188z" />
    <glyph glyph-name="egrave" unicode="&#xe8;" horiz-adv-x="921" 
d="M852 492v-7h-598q-2 -10 -2 -51q0 -184 18 -270q21 -87 72 -129q51 -45 152 -45t188 53t145 145l7 -4q-61 -94 -150 -148t-190 -54q-176 0 -295 131q-117 132 -117 321q0 192 117 324q121 133 295 133q73 0 134.5 -27t102 -69t69 -96t41 -106.5t11.5 -100.5zM254 494h434
q-6 273 -72 342q-47 47 -122 47q-96 0 -152 -47q-82 -70 -88 -342zM356 1321l244 -260l-4 -4l-352 209q-51 26 -51 59q0 26 20.5 47t46.5 21q20 0 36.5 -12.5t59.5 -59.5z" />
    <glyph glyph-name="eacute" unicode="&#xe9;" horiz-adv-x="921" 
d="M852 492v-7h-598q-2 -10 -2 -51q0 -184 18 -270q21 -87 72 -129q51 -45 152 -45t188 53t145 145l7 -4q-61 -94 -150 -148t-190 -54q-176 0 -295 131q-117 132 -117 321q0 192 117 324q121 133 295 133q73 0 134.5 -27t102 -69t69 -96t41 -106.5t11.5 -100.5zM254 494h434
q-6 273 -72 342q-47 47 -122 47q-96 0 -152 -47q-82 -70 -88 -342zM401 1057l-4 4l244 260q51 55 63 62q11 6 33 10q29 0 48.5 -20.5t19.5 -47.5q0 -33 -51 -59z" />
    <glyph glyph-name="ecircumflex" unicode="&#xea;" horiz-adv-x="921" 
d="M852 492v-7h-598q-2 -10 -2 -51q0 -184 18 -270q21 -87 72 -129q51 -45 152 -45t188 53t145 145l7 -4q-61 -94 -150 -148t-190 -54q-176 0 -295 131q-117 132 -117 321q0 192 117 324q121 133 295 133q73 0 134.5 -27t102 -69t69 -96t41 -106.5t11.5 -100.5zM254 494h434
q-6 273 -72 342q-47 47 -122 47q-96 0 -152 -47q-82 -70 -88 -342zM500 1221l-260 -183l-2 4q192 226 260 359h4q72 -138 262 -359l-4 -4z" />
    <glyph glyph-name="edieresis" unicode="&#xeb;" horiz-adv-x="921" 
d="M852 492v-7h-598q-2 -10 -2 -51q0 -184 18 -270q21 -87 72 -129q51 -45 152 -45t188 53t145 145l7 -4q-61 -94 -150 -148t-190 -54q-176 0 -295 131q-117 132 -117 321q0 192 117 324q121 133 295 133q73 0 134.5 -27t102 -69t69 -96t41 -106.5t11.5 -100.5zM254 494h434
q-6 273 -72 342q-47 47 -122 47q-96 0 -152 -47q-82 -70 -88 -342zM764 1204q0 -38 -27 -66t-65 -28q-37 0 -63.5 28t-26.5 66q0 41 26.5 68.5t63.5 27.5q39 0 65.5 -27.5t26.5 -68.5zM412 1204q0 -38 -26.5 -66t-63.5 -28q-38 0 -65.5 28t-27.5 66q0 41 27 68.5t66 27.5
q37 0 63.5 -27.5t26.5 -68.5z" />
    <glyph glyph-name="igrave" unicode="&#xec;" horiz-adv-x="509" 
d="M473 8v-8h-414v8h125v856h-125v8h287v-864h127zM152 1321l243 -260l-4 -4l-352 209q-51 26 -51 59q0 26 20.5 47t46.5 21q20 0 37.5 -12.5t59.5 -59.5z" />
    <glyph glyph-name="iacute" unicode="&#xed;" horiz-adv-x="509" 
d="M473 8v-8h-414v8h125v856h-125v8h287v-864h127zM135 1057l-4 4l244 260q51 55 63 62t33 10q29 0 48.5 -20.5t19.5 -47.5q0 -32 -52 -59z" />
    <glyph glyph-name="icircumflex" unicode="&#xee;" horiz-adv-x="509" 
d="M473 8v-8h-414v8h125v856h-125v8h287v-864h127zM254 1221l-260 -183l-2 4q192 226 260 359h4q72 -138 262 -359l-4 -4z" />
    <glyph glyph-name="idieresis" unicode="&#xef;" horiz-adv-x="509" 
d="M518 1204q0 -38 -27 -66t-65 -28q-37 0 -63.5 28t-26.5 66q0 41 26.5 68.5t63.5 27.5q39 0 65.5 -27.5t26.5 -68.5zM166 1204q0 -38 -26.5 -66t-63.5 -28q-38 0 -65 28t-27 66q0 41 26.5 68.5t65.5 27.5q37 0 63.5 -27.5t26.5 -68.5zM473 8v-8h-414v8h125v856h-125v8h287
v-864h127z" />
    <glyph glyph-name="eth" unicode="&#xf0;" horiz-adv-x="1017" 
d="M561 1284l-297 -172l-4 8l297 172q-115 133 -313 215l4 6q190 -77 340 -204l248 143l4 -8q-246 -138 -246 -141q342 -309 342 -797q0 -238 -113 -381t-317 -143q-181 0 -303 137q-121 139 -121 313q0 183 125 320q127 139 305 139q149 0 225 -113q-41 346 -176 506z
M772 436q0 151 -27 250q-45 197 -237 197q-128 0 -195 -88q-29 -40 -43 -99q-24 -109 -24 -260q0 -101 8.5 -167t32.5 -136q51 -143 221 -143q127 0 194 84q41 63 55.5 147.5t14.5 214.5z" />
    <glyph glyph-name="ntilde" unicode="&#xf1;" horiz-adv-x="1038" 
d="M1022 8v-8h-414v8h125v666q0 94 -53.5 151.5t-120.5 57.5q-178 0 -233 -172v-703h127v-8h-412v8h125v856h-127v8h287v-141q25 79 87.5 119.5t143.5 40.5q159 0 247.5 -89.5t88.5 -252.5v-541h129zM817 1331h6q-2 -23 -16 -69q-11 -37 -59 -91q-46 -49 -117 -49
q-60 0 -148 49q-91 48 -129 48q-30 0 -53 -7t-35.5 -14.5t-23 -23t-13 -22t-8.5 -22.5l-2 -8h-6q17 91 68.5 147t113.5 56q39 0 142 -47q94 -49 139 -49q108 3 141 102z" />
    <glyph glyph-name="ograve" unicode="&#xf2;" horiz-adv-x="1017" 
d="M508 -18q-174 0 -301 133q-125 131 -125 321q0 191 125 322q127 133 301 133q176 0 303 -133q125 -131 125 -322q0 -190 -125 -321q-127 -133 -303 -133zM772 436q0 309 -104 400q-56 47 -160 47q-105 0 -158 -47q-104 -88 -104 -400q0 -175 23.5 -264t80.5 -137
q51 -45 158 -45q109 0 160 45q55 45 79.5 136t24.5 265zM362 1321l244 -260l-4 -4l-352 209q-51 26 -51 59q0 27 19.5 47.5t47.5 20.5q20 0 36.5 -12.5t59.5 -59.5z" />
    <glyph glyph-name="oacute" unicode="&#xf3;" horiz-adv-x="1017" 
d="M508 -18q-174 0 -301 133q-125 131 -125 321q0 191 125 322q127 133 301 133q176 0 303 -133q125 -131 125 -322q0 -190 -125 -321q-127 -133 -303 -133zM772 436q0 309 -104 400q-56 47 -160 47q-105 0 -158 -47q-104 -88 -104 -400q0 -175 23.5 -264t80.5 -137
q51 -45 158 -45q109 0 160 45q55 45 79.5 136t24.5 265zM428 1057l-4 4l244 260q51 55 63 62q11 6 33 10q26 0 46.5 -21t20.5 -47q0 -33 -51 -59z" />
    <glyph glyph-name="ocircumflex" unicode="&#xf4;" horiz-adv-x="1017" 
d="M508 -18q-174 0 -301 133q-125 131 -125 321q0 191 125 322q127 133 301 133q176 0 303 -133q125 -131 125 -322q0 -190 -125 -321q-127 -133 -303 -133zM772 436q0 309 -104 400q-56 47 -160 47q-105 0 -158 -47q-104 -88 -104 -400q0 -175 23.5 -264t80.5 -137
q51 -45 158 -45q109 0 160 45q55 45 79.5 136t24.5 265zM508 1221l-260 -183l-2 4q192 226 260 359h4q72 -138 262 -359l-4 -4z" />
    <glyph glyph-name="otilde" unicode="&#xf5;" horiz-adv-x="1017" 
d="M807 1331h6q-2 -23 -16 -69q-10 -35 -60 -91q-46 -49 -116 -49q-60 0 -148 49q-91 48 -129 48q-115 0 -131 -89l-4 -8h-6q17 91 68.5 147t113.5 56q38 0 141 -47q94 -49 140 -49q108 3 141 102zM508 -18q-174 0 -301 133q-125 131 -125 321q0 191 125 322
q127 133 301 133q176 0 303 -133q125 -131 125 -322q0 -190 -125 -321q-127 -133 -303 -133zM772 436q0 309 -104 400q-56 47 -160 47q-105 0 -158 -47q-104 -88 -104 -400q0 -175 23.5 -264t80.5 -137q51 -45 158 -45q109 0 160 45q55 45 79.5 136t24.5 265z" />
    <glyph glyph-name="odieresis" unicode="&#xf6;" horiz-adv-x="1017" 
d="M508 -18q-174 0 -301 133q-125 131 -125 321q0 191 125 322q127 133 301 133q176 0 303 -133q125 -131 125 -322q0 -190 -125 -321q-127 -133 -303 -133zM772 436q0 309 -104 400q-56 47 -160 47q-105 0 -158 -47q-104 -88 -104 -400q0 -175 23.5 -264t80.5 -137
q51 -45 158 -45q109 0 160 45q55 45 79.5 136t24.5 265zM772 1204q0 -38 -27 -66t-65 -28q-37 0 -63.5 28t-26.5 66q0 41 26.5 68.5t63.5 27.5q39 0 65.5 -27.5t26.5 -68.5zM420 1204q0 -38 -26.5 -66t-63.5 -28q-38 0 -65 28t-27 66q0 41 26.5 68.5t65.5 27.5
q37 0 63.5 -27.5t26.5 -68.5z" />
    <glyph glyph-name="divide" unicode="&#xf7;" 
d="M715 862q0 -41 -31 -71.5t-72 -30.5t-70.5 30.5t-29.5 71.5q0 43 29 73t71 30q43 0 73 -30t30 -73zM1124 553v-111h-1022v111h1022zM715 131q0 -41 -31 -71.5t-72 -30.5t-70.5 30.5t-29.5 71.5q0 43 28.5 72.5t71.5 29.5t73 -29.5t30 -72.5z" />
    <glyph glyph-name="oslash" unicode="&#xf8;" horiz-adv-x="1017" 
d="M936 436q0 -190 -125 -321q-127 -133 -303 -133q-138 0 -242 79l-71 -108l-7 8l70 107q-83 64 -129.5 160.5t-46.5 207.5q0 191 125 322q127 133 301 133q130 0 242 -80l75 115l6 -6l-75 -115q85 -63 132.5 -160t47.5 -209zM772 436q0 213 -49 320l-428 -652
q23 -44 55 -69q51 -45 158 -45q109 0 160 45q55 45 79.5 136t24.5 265zM246 436q0 -228 43 -321l430 649q-17 38 -51 72q-56 47 -160 47q-105 0 -158 -47q-104 -88 -104 -400z" />
    <glyph glyph-name="ugrave" unicode="&#xf9;" horiz-adv-x="1017" 
d="M999 8v-8h-288v141q-25 -79 -87.5 -119t-144.5 -40q-160 0 -248 84t-88 243v555h-125v8h287v-673q0 -94 53.5 -151.5t120.5 -57.5q180 0 232 172v702h-125v8h286v-864h127zM403 1321l244 -260l-4 -4l-352 209q-51 26 -51 59q0 27 19.5 47.5t47.5 20.5q20 0 36.5 -12.5
t59.5 -59.5z" />
    <glyph glyph-name="uacute" unicode="&#xfa;" horiz-adv-x="1017" 
d="M999 8v-8h-288v141q-25 -79 -87.5 -119t-144.5 -40q-160 0 -248 84t-88 243v555h-125v8h287v-673q0 -94 53.5 -151.5t120.5 -57.5q180 0 232 172v702h-125v8h286v-864h127zM387 1057l-4 4l244 260q51 55 63 62q11 6 33 10q26 0 47 -21t21 -47q0 -32 -52 -59z" />
    <glyph glyph-name="ucircumflex" unicode="&#xfb;" horiz-adv-x="1017" 
d="M999 8v-8h-288v141q-25 -79 -87.5 -119t-144.5 -40q-160 0 -248 84t-88 243v555h-125v8h287v-673q0 -94 53.5 -151.5t120.5 -57.5q180 0 232 172v702h-125v8h286v-864h127zM508 1221l-260 -183l-2 4q192 226 260 359h4q72 -138 262 -359l-4 -4z" />
    <glyph glyph-name="udieresis" unicode="&#xfc;" horiz-adv-x="1017" 
d="M999 8v-8h-288v141q-25 -79 -87.5 -119t-144.5 -40q-160 0 -248 84t-88 243v555h-125v8h287v-673q0 -94 53.5 -151.5t120.5 -57.5q180 0 232 172v702h-125v8h286v-864h127zM772 1204q0 -38 -27 -66t-65 -28q-37 0 -63.5 28t-26.5 66q0 41 26.5 68.5t63.5 27.5
q39 0 65.5 -27.5t26.5 -68.5zM420 1204q0 -38 -26.5 -66t-63.5 -28q-38 0 -65 28t-27 66q0 41 26.5 68.5t65.5 27.5q37 0 63.5 -27.5t26.5 -68.5z" />
    <glyph glyph-name="yacute" unicode="&#xfd;" horiz-adv-x="849" 
d="M907 872v-8h-94q-19 0 -31 -16t-32 -70l-465 -1263q-36 -95 -70.5 -130.5t-95.5 -35.5q-65 0 -105.5 29.5t-40.5 82.5q0 47 28 79t67 32q37 0 59.5 -20.5t22.5 -51.5q0 -16 -19.5 -50.5t-19.5 -47.5q0 -29 32 -29q41 0 71.5 29t59.5 109l172 469l-403 884h-109v8h400v-8
h-121l303 -694l225 608q30 86 -8 86h-88v8h262zM344 1057l-4 4l244 260q51 55 63 62q11 6 33 10q29 0 48.5 -20.5t19.5 -47.5q0 -32 -52 -59z" />
    <glyph glyph-name="thorn" unicode="&#xfe;" horiz-adv-x="1024" 
d="M942 430q0 -172 -127 -311q-125 -137 -299 -137q-115 0 -190 81v-688h127v-8h-414v8h125v2122h-125v8h287v-696q76 82 190 82q174 0 299 -143q127 -142 127 -318zM778 430q0 320 -104 408q-51 45 -158 45q-120 0 -190 -88v-693q20 -54 72 -83t118 -29q107 0 158 45
q104 88 104 395z" />
    <glyph glyph-name="ydieresis" unicode="&#xff;" horiz-adv-x="849" 
d="M907 872v-8h-94q-19 0 -31 -16t-32 -70l-465 -1263q-36 -95 -70.5 -130.5t-95.5 -35.5q-65 0 -105.5 29.5t-40.5 82.5q0 47 28 79t67 32q37 0 59.5 -20.5t22.5 -51.5q0 -16 -19.5 -50.5t-19.5 -47.5q0 -29 32 -29q41 0 71.5 29t59.5 109l172 469l-403 884h-109v8h400v-8
h-121l303 -694l225 608q30 86 -8 86h-88v8h262zM750 1204q0 -38 -27.5 -66t-65.5 -28q-37 0 -63.5 28t-26.5 66q0 41 26.5 68.5t63.5 27.5q39 0 66 -27.5t27 -68.5zM397 1204q0 -38 -26.5 -66t-63.5 -28q-38 0 -65 28t-27 66q0 41 26.5 68.5t65.5 27.5q37 0 63.5 -27.5
t26.5 -68.5z" />
    <glyph glyph-name="Amacron" unicode="&#x100;" horiz-adv-x="1294" 
d="M1350 8v-8h-605v8h199l-172 465h-473l-143 -385q-12 -35 -14.5 -52t2.5 -22.5t20 -5.5h153v-8h-364v8h137q30 0 57 80l480 1305h10l534 -1385h179zM301 481h467l-231 639zM934 1608h-574v84h574v-84z" />
    <glyph glyph-name="amacron" unicode="&#x101;" horiz-adv-x="894" 
d="M870 63l7 -2q-8 -32 -46 -54.5t-90 -22.5q-125 0 -149 131q-18 -61 -85.5 -96t-156.5 -35q-122 0 -196 52.5t-74 160.5q0 73 27 126.5t73 79.5q80 45 160 54q196 18 229 41q9 10 13 20v156q0 106 -44.5 157.5t-115.5 51.5q-88 0 -88 -92q0 -12 7 -39t7 -35
q0 -31 -22.5 -50.5t-63.5 -19.5q-39 0 -59.5 24.5t-20.5 63.5q0 61 67.5 108.5t172.5 47.5q321 0 321 -371v-440q0 -68 54 -68q24 0 44.5 15.5t28.5 35.5zM582 141v351q-13 -13 -52.5 -21t-90 -13t-60.5 -7q-141 -27 -141 -254q0 -199 149 -199q76 0 135.5 43t59.5 100z
M733 1151h-573v84h573v-84z" />
    <glyph glyph-name="Abreve" unicode="&#x102;" horiz-adv-x="1294" 
d="M1350 8v-8h-605v8h199l-172 465h-473l-143 -385q-12 -35 -14.5 -52t2.5 -22.5t20 -5.5h153v-8h-364v8h137q30 0 57 80l480 1305h10l534 -1385h179zM301 481h467l-231 639zM389 1823h10q30 -203 248 -203t248 203h10q-6 -142 -61 -230q-52 -88 -197 -88q-143 0 -198 88
q-54 91 -60 230z" />
    <glyph glyph-name="abreve" unicode="&#x103;" horiz-adv-x="894" 
d="M870 63l7 -2q-8 -32 -46 -54.5t-90 -22.5q-125 0 -149 131q-18 -61 -85.5 -96t-156.5 -35q-122 0 -196 52.5t-74 160.5q0 73 27 126.5t73 79.5q80 45 160 54q196 18 229 41q9 10 13 20v156q0 106 -44.5 157.5t-115.5 51.5q-88 0 -88 -92q0 -12 7 -39t7 -35
q0 -31 -22.5 -50.5t-63.5 -19.5q-39 0 -59.5 24.5t-20.5 63.5q0 61 67.5 108.5t172.5 47.5q321 0 321 -371v-440q0 -68 54 -68q24 0 44.5 15.5t28.5 35.5zM582 141v351q-13 -13 -52.5 -21t-90 -13t-60.5 -7q-141 -27 -141 -254q0 -199 149 -199q76 0 135.5 43t59.5 100z
M188 1366h11q30 -203 247 -203q218 0 248 203h11q-6 -140 -62 -229q-52 -88 -197 -88q-143 0 -198 88q-54 91 -60 229z" />
    <glyph glyph-name="Aogonek" unicode="&#x104;" horiz-adv-x="1294" 
d="M1350 8v-8h-605v8h199l-172 465h-473l-143 -385q-12 -35 -14.5 -52t2.5 -22.5t20 -5.5h153v-8h-364v8h137q30 0 57 80l480 1305h10l534 -1385h179zM301 481h467l-231 639zM1223 -330l4 -4q-94 -76 -187 -76q-74 0 -118.5 35t-44.5 101q0 148 268 274h16
q-162 -113 -162 -248q0 -53 28.5 -92t84.5 -39q41 0 111 49z" />
    <glyph glyph-name="aogonek" unicode="&#x105;" horiz-adv-x="894" 
d="M870 63l7 -2q-8 -32 -46 -54.5t-90 -22.5q-125 0 -149 131q-18 -61 -85.5 -96t-156.5 -35q-122 0 -196 52.5t-74 160.5q0 73 27 126.5t73 79.5q80 45 160 54q196 18 229 41q9 10 13 20v156q0 106 -44.5 157.5t-115.5 51.5q-88 0 -88 -92q0 -12 7 -39t7 -35
q0 -31 -22.5 -50.5t-63.5 -19.5q-39 0 -59.5 24.5t-20.5 63.5q0 61 67.5 108.5t172.5 47.5q321 0 321 -371v-440q0 -68 54 -68q24 0 44.5 15.5t28.5 35.5zM582 141v351q-13 -13 -52.5 -21t-90 -13t-60.5 -7q-141 -27 -141 -254q0 -199 149 -199q76 0 135.5 43t59.5 100z
M872 -330l5 -4q-94 -76 -187 -76q-74 0 -119 35t-45 101q0 147 269 274h16q-162 -113 -162 -248q0 -53 28.5 -92t84.5 -39q40 0 110 49z" />
    <glyph glyph-name="Cacute" unicode="&#x106;" horiz-adv-x="1269" 
d="M1176 410v-439h-9q-5 22 -29.5 40t-58.5 18q-37 0 -155 -31t-179 -31q-275 0 -462 211t-187 504q0 291 183 504q186 213 456 213q50 0 152 -27q102 -24 145 -24q39 0 66 13.5t32 31.5h9v-381h-9q0 145 -124 260q-122 119 -271 119q-167 0 -250 -74q-168 -143 -168 -635
q0 -490 168 -633q83 -74 260 -74q182 0 302 123t120 312h9zM637 1513l-4 5l244 260q45 48 57 57.5t39 13.5q27 0 47 -19t20 -48q0 -34 -51 -60z" />
    <glyph glyph-name="cacute" unicode="&#x107;" horiz-adv-x="880" 
d="M838 178l6 -4q-125 -192 -336 -192q-174 0 -301 133q-125 131 -125 321q0 191 125 322q127 133 301 133q126 0 196 -52.5t70 -133.5q0 -87 -82 -87q-36 0 -58 20.5t-22 51.5q0 14 11.5 45t11.5 53q0 54 -27 74.5t-100 20.5q-105 0 -158 -47q-56 -48 -80 -137t-24 -263
q0 -175 23.5 -264t80.5 -137q51 -45 158 -45q210 0 330 188zM401 1057l-4 4l244 260q51 55 63 62q11 6 33 10q29 0 48.5 -20.5t19.5 -47.5q0 -33 -51 -59z" />
    <glyph glyph-name="Ccircumflex" unicode="&#x108;" horiz-adv-x="1269" 
d="M1176 410v-439h-9q-5 22 -29.5 40t-58.5 18q-37 0 -155 -31t-179 -31q-275 0 -462 211t-187 504q0 291 183 504q186 213 456 213q50 0 152 -27q102 -24 145 -24q39 0 66 13.5t32 31.5h9v-381h-9q0 145 -124 260q-122 119 -271 119q-167 0 -250 -74q-168 -143 -168 -635
q0 -490 168 -633q83 -74 260 -74q182 0 302 123t120 312h9zM715 1698l-260 -182l-2 4q193 227 260 358h4q71 -136 262 -358l-4 -4z" />
    <glyph glyph-name="ccircumflex" unicode="&#x109;" horiz-adv-x="880" 
d="M838 178l6 -4q-125 -192 -336 -192q-174 0 -301 133q-125 131 -125 321q0 191 125 322q127 133 301 133q126 0 196 -52.5t70 -133.5q0 -87 -82 -87q-36 0 -58 20.5t-22 51.5q0 14 11.5 45t11.5 53q0 54 -27 74.5t-100 20.5q-105 0 -158 -47q-56 -48 -80 -137t-24 -263
q0 -175 23.5 -264t80.5 -137q51 -45 158 -45q210 0 330 188zM500 1221l-260 -183l-2 4q192 226 260 359h4q72 -138 262 -359l-4 -4z" />
    <glyph glyph-name="Cdotaccent" unicode="&#x10a;" horiz-adv-x="1269" 
d="M1176 410v-439h-9q-5 22 -29.5 40t-58.5 18q-37 0 -155 -31t-179 -31q-275 0 -462 211t-187 504q0 291 183 504q186 213 456 213q50 0 152 -27q102 -24 145 -24q39 0 66 13.5t32 31.5h9v-381h-9q0 145 -124 260q-122 119 -271 119q-167 0 -250 -74q-168 -143 -168 -635
q0 -490 168 -633q83 -74 260 -74q182 0 302 123t120 312h9zM717 1536q-41 0 -71 31t-30 75t30 75.5t71 31.5q43 0 72.5 -31.5t29.5 -75.5t-29.5 -75t-72.5 -31z" />
    <glyph glyph-name="cdotaccent" unicode="&#x10b;" horiz-adv-x="880" 
d="M838 178l6 -4q-125 -192 -336 -192q-174 0 -301 133q-125 131 -125 321q0 191 125 322q127 133 301 133q126 0 196 -52.5t70 -133.5q0 -87 -82 -87q-36 0 -58 20.5t-22 51.5q0 14 11.5 45t11.5 53q0 54 -27 74.5t-100 20.5q-105 0 -158 -47q-56 -48 -80 -137t-24 -263
q0 -175 23.5 -264t80.5 -137q51 -45 158 -45q210 0 330 188zM590 1204q0 -38 -27.5 -66t-64.5 -28t-64.5 28t-27.5 66q0 41 27.5 68.5t64.5 27.5t64.5 -27.5t27.5 -68.5z" />
    <glyph glyph-name="Ccaron" unicode="&#x10c;" horiz-adv-x="1269" 
d="M1176 410v-439h-9q-5 22 -29.5 40t-58.5 18q-37 0 -155 -31t-179 -31q-275 0 -462 211t-187 504q0 291 183 504q186 213 456 213q50 0 152 -27q102 -24 145 -24q39 0 66 13.5t32 31.5h9v-381h-9q0 145 -124 260q-122 119 -271 119q-167 0 -250 -74q-168 -143 -168 -635
q0 -490 168 -633q83 -74 260 -74q182 0 302 123t120 312h9zM453 1874l2 4l260 -182l260 182l4 -4q-191 -222 -262 -358h-4q-67 131 -260 358z" />
    <glyph glyph-name="ccaron" unicode="&#x10d;" horiz-adv-x="880" 
d="M838 178l6 -4q-125 -192 -336 -192q-174 0 -301 133q-125 131 -125 321q0 191 125 322q127 133 301 133q126 0 196 -52.5t70 -133.5q0 -87 -82 -87q-36 0 -58 20.5t-22 51.5q0 14 11.5 45t11.5 53q0 54 -27 74.5t-100 20.5q-105 0 -158 -47q-56 -48 -80 -137t-24 -263
q0 -175 23.5 -264t80.5 -137q51 -45 158 -45q210 0 330 188zM238 1397l2 4l260 -182l260 182l4 -4q-190 -221 -262 -359h-4q-68 133 -260 359z" />
    <glyph glyph-name="Dcaron" unicode="&#x10e;" horiz-adv-x="1441" 
d="M1348 682q0 -280 -189 -481t-452 -201h-629v8h184v1350h-184v8h629q263 0 452 -201t189 -483zM1126 682q0 463 -168 606q-85 70 -251 70h-234v-1350h234q167 0 251 72q86 71 127 205t41 397zM457 1853l2 5l260 -183l260 183l4 -5q-191 -222 -262 -358h-4
q-67 131 -260 358z" />
    <glyph glyph-name="dcaron" unicode="&#x10f;" horiz-adv-x="1206" 
d="M987 8v-8h-287v96q-14 -50 -63.5 -82t-124.5 -32q-176 0 -301 137q-127 139 -127 313t127 316q125 143 301 143q112 0 188 -82v688h-125v8h287v-1497h125zM700 145v650q-70 88 -188 88q-104 0 -160 -47q-104 -88 -104 -404q0 -309 104 -397q54 -45 160 -45q86 0 137 43.5
t51 111.5zM1206 1395q0 -75 -65 -178q-66 -105 -140 -125l-2 6q32 11 54 30q67 52 67 121q0 47 -61 90q-41 30 -41 80q0 41 27 69t65 28q44 0 70 -32.5t26 -88.5z" />
    <glyph glyph-name="Dcroat" unicode="&#x110;" horiz-adv-x="1441" 
d="M102 692v8h160v658h-184v8h629q263 0 452 -201t189 -483q0 -280 -189 -481t-452 -201h-629v8h184v684h-160zM1126 682q0 463 -168 606q-85 70 -251 70h-234v-658h186v-8h-186v-684h234q167 0 251 72q86 71 127 205t41 397z" />
    <glyph glyph-name="dslash" unicode="&#x111;" horiz-adv-x="1003" 
d="M393 1124v9h307v364h-125v8h287v-372h180v-9h-180v-1116h125v-8h-287v96q-14 -50 -63.5 -82t-124.5 -32q-176 0 -301 137q-127 139 -127 313t127 316q125 143 301 143q112 0 188 -82v315h-307zM700 145v650q-70 88 -188 88q-104 0 -160 -47q-104 -88 -104 -404
q0 -309 104 -397q54 -45 160 -45q86 0 137 43.5t51 111.5z" />
    <glyph glyph-name="Emacron" unicode="&#x112;" 
d="M1186 387v-387h-1110v8h186v1350h-186v8h1005v-348h-8q0 154 -86 247t-252 93h-262v-653h102q118 0 183 59t65 162h8v-449h-8q0 101 -65 161t-180 60h-105v-690h266q219 0 329 103t110 276h8zM901 1608h-573v84h573v-84z" />
    <glyph glyph-name="emacron" unicode="&#x113;" horiz-adv-x="921" 
d="M852 492v-7h-598q-2 -10 -2 -51q0 -184 18 -270q21 -87 72 -129q51 -45 152 -45t188 53t145 145l7 -4q-61 -94 -150 -148t-190 -54q-176 0 -295 131q-117 132 -117 321q0 192 117 324q121 133 295 133q73 0 134.5 -27t102 -69t69 -96t41 -106.5t11.5 -100.5zM254 494h434
q-6 273 -72 342q-47 47 -122 47q-96 0 -152 -47q-82 -70 -88 -342zM788 1151h-573v84h573v-84z" />
    <glyph glyph-name="Ebreve" unicode="&#x114;" 
d="M1186 387v-387h-1110v8h186v1350h-186v8h1005v-348h-8q0 154 -86 247t-252 93h-262v-653h102q118 0 183 59t65 162h8v-449h-8q0 101 -65 161t-180 60h-105v-690h266q219 0 329 103t110 276h8zM356 1823h11q30 -203 247 -203q218 0 248 203h10q-6 -142 -61 -230
q-52 -88 -197 -88q-143 0 -198 88q-54 91 -60 230z" />
    <glyph glyph-name="ebreve" unicode="&#x115;" horiz-adv-x="921" 
d="M852 492v-7h-598q-2 -10 -2 -51q0 -184 18 -270q21 -87 72 -129q51 -45 152 -45t188 53t145 145l7 -4q-61 -94 -150 -148t-190 -54q-176 0 -295 131q-117 132 -117 321q0 192 117 324q121 133 295 133q73 0 134.5 -27t102 -69t69 -96t41 -106.5t11.5 -100.5zM254 494h434
q-6 273 -72 342q-47 47 -122 47q-96 0 -152 -47q-82 -70 -88 -342zM244 1366h10q30 -203 248 -203t248 203h10q-6 -140 -62 -229q-52 -88 -196 -88t-199 88q-53 89 -59 229z" />
    <glyph glyph-name="Edotaccent" unicode="&#x116;" 
d="M1186 387v-387h-1110v8h186v1350h-186v8h1005v-348h-8q0 154 -86 247t-252 93h-262v-653h102q118 0 183 59t65 162h8v-449h-8q0 101 -65 161t-180 60h-105v-690h266q219 0 329 103t110 276h8zM702 1661q0 -38 -27.5 -66t-64.5 -28t-64.5 28t-27.5 66q0 41 27.5 68.5
t64.5 27.5t64.5 -27.5t27.5 -68.5z" />
    <glyph glyph-name="edotaccent" unicode="&#x117;" horiz-adv-x="921" 
d="M852 492v-7h-598q-2 -10 -2 -51q0 -184 18 -270q21 -87 72 -129q51 -45 152 -45t188 53t145 145l7 -4q-61 -94 -150 -148t-190 -54q-176 0 -295 131q-117 132 -117 321q0 192 117 324q121 133 295 133q73 0 134.5 -27t102 -69t69 -96t41 -106.5t11.5 -100.5zM254 494h434
q-6 273 -72 342q-47 47 -122 47q-96 0 -152 -47q-82 -70 -88 -342zM590 1204q0 -38 -27.5 -66t-64.5 -28t-64.5 28t-27.5 66q0 41 27.5 68.5t64.5 27.5t64.5 -27.5t27.5 -68.5z" />
    <glyph glyph-name="Eogonek" unicode="&#x118;" 
d="M1186 387v-387h-1110v8h186v1350h-186v8h1005v-348h-8q0 154 -86 247t-252 93h-262v-653h102q118 0 183 59t65 162h8v-449h-8q0 101 -65 161t-180 60h-105v-690h266q219 0 329 103t110 276h8zM1182 -330l4 -4q-94 -76 -187 -76q-74 0 -118.5 35t-44.5 101q0 148 268 274
h16q-162 -113 -162 -248q0 -53 28.5 -92t84.5 -39q41 0 111 49z" />
    <glyph glyph-name="eogonek" unicode="&#x119;" horiz-adv-x="921" 
d="M852 492v-7h-598q-2 -10 -2 -51q0 -184 18 -270q21 -87 72 -129q51 -45 152 -45t188 53t145 145l7 -4q-61 -94 -150 -148t-190 -54q-176 0 -295 131q-117 132 -117 321q0 192 117 324q121 133 295 133q73 0 134.5 -27t102 -69t69 -96t41 -106.5t11.5 -100.5zM254 494h434
q-6 273 -72 342q-47 47 -122 47q-96 0 -152 -47q-82 -70 -88 -342zM664 -330l4 -4q-94 -76 -187 -76q-74 0 -119 35t-45 101q0 147 269 274h16q-162 -113 -162 -248q0 -53 28.5 -92t84.5 -39q41 0 111 49z" />
    <glyph glyph-name="Ecaron" unicode="&#x11a;" 
d="M1186 387v-387h-1110v8h186v1350h-186v8h1005v-348h-8q0 154 -86 247t-252 93h-262v-653h102q118 0 183 59t65 162h8v-449h-8q0 101 -65 161t-180 60h-105v-690h266q219 0 329 103t110 276h8zM350 1853l2 5l260 -183l260 183l5 -5q-194 -225 -263 -358h-4
q-67 131 -260 358z" />
    <glyph glyph-name="ecaron" unicode="&#x11b;" horiz-adv-x="921" 
d="M852 492v-7h-598q-2 -10 -2 -51q0 -184 18 -270q21 -87 72 -129q51 -45 152 -45t188 53t145 145l7 -4q-61 -94 -150 -148t-190 -54q-176 0 -295 131q-117 132 -117 321q0 192 117 324q121 133 295 133q73 0 134.5 -27t102 -69t69 -96t41 -106.5t11.5 -100.5zM254 494h434
q-6 273 -72 342q-47 47 -122 47q-96 0 -152 -47q-82 -70 -88 -342zM238 1397l2 4l260 -182l260 182l4 -4q-190 -221 -262 -359h-4q-68 133 -260 359z" />
    <glyph glyph-name="Gcircumflex" unicode="&#x11c;" horiz-adv-x="1316" 
d="M1360 524v-8h-166v-522h-8q-21 84 -101 84q-24 0 -77.5 -27.5t-132.5 -55.5t-166 -28q-181 0 -326 103q-139 102 -213 261.5t-74 350.5q0 291 183 504q186 213 458 213q57 0 140 -27q85 -24 127 -24q39 0 66 13.5t32 31.5h8v-381h-8q0 144 -109 262q-108 117 -256 117
q-164 0 -250 -74q-168 -143 -168 -635q0 -288 27 -426q27 -137 109 -207q88 -76 254 -76q129 0 202.5 53t73.5 140v350h-184v8h559zM719 1677l-260 -182l-2 4q192 226 260 359h4q72 -138 262 -359l-4 -4z" />
    <glyph glyph-name="gcircumflex" unicode="&#x11d;" horiz-adv-x="993" 
d="M1036 799q0 -25 -19.5 -47.5t-43.5 -22.5q-26 0 -44 15t-18 34q0 13 8.5 29t8.5 22q0 33 -37 33q-71 0 -117 -102q68 -92 68 -199q0 -137 -101 -231q-102 -97 -237 -97q-160 0 -258 119q-68 -47 -68 -137q0 -188 189 -188h235q221 0 314.5 -62t93.5 -223q0 -71 -30 -135
t-80.5 -110t-114.5 -80t-133 -50t-134 -14q-205 0 -336 82q-129 83 -129 200q0 85 60 170q63 85 149 105q-168 46 -168 196q0 157 148 252q-74 89 -74 203q0 140 98 234q101 96 238 96q160 0 262 -123q62 123 170 123q43 0 71.5 -25t28.5 -67zM688 563q0 228 -70 289
q-42 31 -114 31q-71 0 -113 -31q-69 -60 -69 -289q0 -128 15.5 -191.5t53.5 -95.5q40 -34 113 -34q74 0 114 34q39 33 54.5 96t15.5 191zM920 -346q0 114 -55.5 180t-164.5 66h-352q-34 0 -69 6q-43 -27 -70 -92.5t-27 -153.5q0 -299 336 -299q159 0 281 78q121 77 121 215z
M506 1221l-260 -183l-2 4q192 226 260 359h4q72 -138 262 -359l-4 -4z" />
    <glyph glyph-name="Gbreve" unicode="&#x11e;" horiz-adv-x="1316" 
d="M1360 524v-8h-166v-522h-8q-21 84 -101 84q-24 0 -77.5 -27.5t-132.5 -55.5t-166 -28q-181 0 -326 103q-139 102 -213 261.5t-74 350.5q0 291 183 504q186 213 458 213q57 0 140 -27q85 -24 127 -24q39 0 66 13.5t32 31.5h8v-381h-8q0 144 -109 262q-108 117 -256 117
q-164 0 -250 -74q-168 -143 -168 -635q0 -288 27 -426q27 -137 109 -207q88 -76 254 -76q129 0 202.5 53t73.5 140v350h-184v8h559zM461 1823h10q30 -203 248 -203t248 203h10q-6 -141 -62 -230q-52 -88 -196 -88t-199 88q-53 89 -59 230z" />
    <glyph glyph-name="gbreve" unicode="&#x11f;" horiz-adv-x="993" 
d="M1036 799q0 -25 -19.5 -47.5t-43.5 -22.5q-26 0 -44 15t-18 34q0 13 8.5 29t8.5 22q0 33 -37 33q-71 0 -117 -102q68 -92 68 -199q0 -137 -101 -231q-102 -97 -237 -97q-160 0 -258 119q-68 -47 -68 -137q0 -188 189 -188h235q221 0 314.5 -62t93.5 -223q0 -71 -30 -135
t-80.5 -110t-114.5 -80t-133 -50t-134 -14q-205 0 -336 82q-129 83 -129 200q0 85 60 170q63 85 149 105q-168 46 -168 196q0 157 148 252q-74 89 -74 203q0 140 98 234q101 96 238 96q160 0 262 -123q62 123 170 123q43 0 71.5 -25t28.5 -67zM688 563q0 228 -70 289
q-42 31 -114 31q-71 0 -113 -31q-69 -60 -69 -289q0 -128 15.5 -191.5t53.5 -95.5q40 -34 113 -34q74 0 114 34q39 33 54.5 96t15.5 191zM920 -346q0 114 -55.5 180t-164.5 66h-352q-34 0 -69 6q-43 -27 -70 -92.5t-27 -153.5q0 -299 336 -299q159 0 281 78q121 77 121 215z
M248 1366h10q30 -203 248 -203t248 203h10q-6 -140 -62 -229q-52 -88 -196 -88t-199 88q-53 89 -59 229z" />
    <glyph glyph-name="Gdotaccent" unicode="&#x120;" horiz-adv-x="1316" 
d="M1360 524v-8h-166v-522h-8q-21 84 -101 84q-24 0 -77.5 -27.5t-132.5 -55.5t-166 -28q-181 0 -326 103q-139 102 -213 261.5t-74 350.5q0 291 183 504q186 213 458 213q57 0 140 -27q85 -24 127 -24q39 0 66 13.5t32 31.5h8v-381h-8q0 144 -109 262q-108 117 -256 117
q-164 0 -250 -74q-168 -143 -168 -635q0 -288 27 -426q27 -137 109 -207q88 -76 254 -76q129 0 202.5 53t73.5 140v350h-184v8h559zM719 1536q-41 0 -71 31t-30 75t30 75.5t71 31.5q43 0 72.5 -31.5t29.5 -75.5t-29.5 -75t-72.5 -31z" />
    <glyph glyph-name="gdotaccent" unicode="&#x121;" horiz-adv-x="993" 
d="M1036 799q0 -25 -19.5 -47.5t-43.5 -22.5q-26 0 -44 15t-18 34q0 13 8.5 29t8.5 22q0 33 -37 33q-71 0 -117 -102q68 -92 68 -199q0 -137 -101 -231q-102 -97 -237 -97q-160 0 -258 119q-68 -47 -68 -137q0 -188 189 -188h235q221 0 314.5 -62t93.5 -223q0 -71 -30 -135
t-80.5 -110t-114.5 -80t-133 -50t-134 -14q-205 0 -336 82q-129 83 -129 200q0 85 60 170q63 85 149 105q-168 46 -168 196q0 157 148 252q-74 89 -74 203q0 140 98 234q101 96 238 96q160 0 262 -123q62 123 170 123q43 0 71.5 -25t28.5 -67zM688 563q0 228 -70 289
q-42 31 -114 31q-71 0 -113 -31q-69 -60 -69 -289q0 -128 15.5 -191.5t53.5 -95.5q40 -34 113 -34q74 0 114 34q39 33 54.5 96t15.5 191zM920 -346q0 114 -55.5 180t-164.5 66h-352q-34 0 -69 6q-43 -27 -70 -92.5t-27 -153.5q0 -299 336 -299q159 0 281 78q121 77 121 215z
M592 1204q0 -38 -27.5 -66t-64.5 -28t-64.5 28t-27.5 66q0 41 27.5 68.5t64.5 27.5t64.5 -27.5t27.5 -68.5z" />
    <glyph glyph-name="Gcommaaccent" unicode="&#x122;" horiz-adv-x="1316" 
d="M1360 524v-8h-166v-522h-8q-21 84 -101 84q-24 0 -77.5 -27.5t-132.5 -55.5t-166 -28q-181 0 -326 103q-139 102 -213 261.5t-74 350.5q0 291 183 504q186 213 458 213q57 0 140 -27q85 -24 127 -24q39 0 66 13.5t32 31.5h8v-381h-8q0 144 -109 262q-108 117 -256 117
q-164 0 -250 -74q-168 -143 -168 -635q0 -288 27 -426q27 -137 109 -207q88 -76 254 -76q129 0 202.5 53t73.5 140v350h-184v8h559zM803 -223q0 -74 -66 -178q-66 -105 -139 -125l-2 6q28 10 53 31q68 53 68 120q0 46 -62 90q-41 30 -41 80q0 41 27 69t66 28q44 0 70 -32.5
t26 -88.5z" />
    <glyph glyph-name="gcommaaccent" unicode="&#x123;" horiz-adv-x="993" 
d="M1036 799q0 -25 -19.5 -47.5t-43.5 -22.5q-26 0 -44 15t-18 34q0 13 8.5 29t8.5 22q0 33 -37 33q-71 0 -117 -102q68 -92 68 -199q0 -137 -101 -231q-102 -97 -237 -97q-160 0 -258 119q-68 -47 -68 -137q0 -188 189 -188h235q221 0 314.5 -62t93.5 -223q0 -71 -30 -135
t-80.5 -110t-114.5 -80t-133 -50t-134 -14q-205 0 -336 82q-129 83 -129 200q0 85 60 170q63 85 149 105q-168 46 -168 196q0 157 148 252q-74 89 -74 203q0 140 98 234q101 96 238 96q160 0 262 -123q62 123 170 123q43 0 71.5 -25t28.5 -67zM688 563q0 228 -70 289
q-42 31 -114 31q-71 0 -113 -31q-69 -60 -69 -289q0 -128 15.5 -191.5t53.5 -95.5q40 -34 113 -34q74 0 114 34q39 33 54.5 96t15.5 191zM920 -346q0 114 -55.5 180t-164.5 66h-352q-34 0 -69 6q-43 -27 -70 -92.5t-27 -153.5q0 -299 336 -299q159 0 281 78q121 77 121 215z
M416 1171q0 79 63 179q66 104 142 125l2 -7q-32 -11 -54 -30q-67 -52 -67 -121q0 -47 61 -90q41 -30 41 -80q0 -41 -26.5 -68.5t-65.5 -27.5q-44 0 -70 32.5t-26 87.5z" />
    <glyph glyph-name="Hcircumflex" unicode="&#x124;" horiz-adv-x="1533" 
d="M1458 8v-8h-561v8h164v699h-592v-699h168v-8h-561v8h184v1350h-184v8h561v-8h-168v-643h592v643h-164v8h561v-8h-186v-1350h186zM766 1677l-260 -182l-2 4q192 226 260 359h4q72 -138 262 -359l-4 -4z" />
    <glyph glyph-name="hcircumflex" unicode="&#x125;" horiz-adv-x="1038" 
d="M1022 8v-8h-414v8h125v666q0 94 -53.5 151.5t-120.5 57.5q-178 0 -233 -172v-703h127v-8h-412v8h125v1489h-125v8h285v-774q25 79 87.5 119.5t143.5 40.5q159 0 247.5 -89.5t88.5 -252.5v-541h129zM248 1757l-260 -182l-2 4q193 227 260 358h4q71 -136 262 -358l-4 -4z
" />
    <glyph glyph-name="Hbar" unicode="&#x126;" horiz-adv-x="1533" 
d="M90 983v8h170v367h-184v8h561v-8h-168v-367h592v367h-164v8h561v-8h-186v-367h170v-8h-170v-975h186v-8h-561v8h164v699h-592v-699h168v-8h-561v8h184v975h-170zM469 983v-268h592v268h-592z" />
    <glyph glyph-name="hbar" unicode="&#x127;" horiz-adv-x="1038" 
d="M1022 8v-8h-414v8h125v666q0 94 -53.5 151.5t-120.5 57.5q-178 0 -233 -172v-703h127v-8h-412v8h125v1116h-180v9h180v364h-125v8h285v-372h370v-9h-370v-393q25 79 87.5 119.5t143.5 40.5q159 0 247.5 -89.5t88.5 -252.5v-541h129z" />
    <glyph glyph-name="Itilde" unicode="&#x128;" horiz-adv-x="731" 
d="M659 8v-8h-583v8h186v1350h-186v8h583v-8h-188v-1350h188zM664 1808h6q-2 -18 -17 -69q-10 -35 -59 -90q-47 -50 -117 -50q-58 0 -147 50q-89 47 -129 47q-113 0 -131 -86l-4 -11h-7q17 91 68.5 147t114.5 56q38 0 141 -47q94 -49 139 -49q109 3 142 102z" />
    <glyph glyph-name="itilde" unicode="&#x129;" horiz-adv-x="509" 
d="M473 8v-8h-414v8h125v856h-125v8h287v-864h127zM555 1331h6q-2 -23 -16 -69q-10 -35 -60 -91q-46 -49 -116 -49q-60 0 -148 49q-91 48 -129 48q-30 0 -53 -7t-35.5 -14.5t-23 -23t-13 -22t-8.5 -22.5l-2 -8h-6q17 91 68.5 147t113.5 56q38 0 141 -47q94 -49 140 -49
q108 3 141 102z" />
    <glyph glyph-name="Imacron" unicode="&#x12a;" horiz-adv-x="731" 
d="M659 8v-8h-583v8h186v1350h-186v8h583v-8h-188v-1350h188zM651 1608h-573v84h573v-84z" />
    <glyph glyph-name="imacron" unicode="&#x12b;" horiz-adv-x="509" 
d="M473 8v-8h-414v8h125v856h-125v8h287v-864h127zM543 1151h-574v84h574v-84z" />
    <glyph glyph-name="Ibreve" unicode="&#x12c;" horiz-adv-x="731" 
d="M659 8v-8h-583v8h186v1350h-186v8h583v-8h-188v-1350h188zM106 1823h11q30 -203 248 -203q217 0 247 203h11q-6 -141 -62 -230q-52 -88 -196 -88t-199 88q-54 91 -60 230z" />
    <glyph glyph-name="ibreve" unicode="&#x12d;" horiz-adv-x="509" 
d="M-2 1366h10q30 -203 248 -203t248 203h10q-6 -141 -61 -229q-52 -88 -197 -88q-144 0 -199 88q-53 89 -59 229zM473 8v-8h-414v8h125v856h-125v8h287v-864h127z" />
    <glyph glyph-name="Iogonek" unicode="&#x12e;" horiz-adv-x="731" 
d="M659 8v-8h-583v8h186v1350h-186v8h583v-8h-188v-1350h188zM530 -330l5 -4q-94 -76 -187 -76q-74 0 -119 35t-45 101q0 147 269 274h16q-162 -113 -162 -248q0 -53 28.5 -92t84.5 -39q40 0 110 49z" />
    <glyph glyph-name="iogonek" unicode="&#x12f;" horiz-adv-x="509" 
d="M473 8v-8h-414v8h125v856h-125v8h287v-864h127zM264 1133q-41 0 -70.5 31t-29.5 75t29.5 75.5t70.5 31.5q43 0 73 -31.5t30 -75.5t-30 -75t-73 -31zM408 -330l4 -4q-94 -76 -187 -76q-74 0 -119 35t-45 101q0 147 269 274h16q-162 -113 -162 -248q0 -53 28.5 -92
t84.5 -39q41 0 111 49z" />
    <glyph glyph-name="Idot" unicode="&#x130;" horiz-adv-x="731" 
d="M659 8v-8h-583v8h186v1350h-186v8h583v-8h-188v-1350h188zM365 1536q-41 0 -71 31t-30 75t30 75.5t71 31.5q43 0 72.5 -31.5t29.5 -75.5t-29.5 -75t-72.5 -31z" />
    <glyph glyph-name="dotlessi" unicode="&#x131;" horiz-adv-x="509" 
d="M473 8v-8h-414v8h125v856h-125v8h287v-864h127z" />
    <glyph glyph-name="Jcircumflex" unicode="&#x134;" horiz-adv-x="911" 
d="M326 -33q-132 0 -209 74q-76 73 -76 162q0 60 32.5 93.5t88.5 33.5q44 0 70 -26t26 -68q0 -37 -39 -82q-37 -43 -37 -74q0 -47 35.5 -77t108.5 -30q70 0 116.5 42.5t46.5 115.5v1227h-184v8h582v-8h-185v-1036q0 -169 -97 -262t-279 -93zM590 1677l-260 -182l-2 4
q192 226 260 359h4q72 -138 262 -359l-4 -4z" />
    <glyph glyph-name="jcircumflex" unicode="&#x135;" horiz-adv-x="542" 
d="M346 872v-919q0 -328 -76 -465q-73 -137 -231 -137q-75 0 -126.5 37.5t-51.5 97.5q0 38 25.5 66t62.5 28q41 0 63.5 -19t22.5 -50q0 -15 -12.5 -46t-12.5 -49q0 -53 72 -53q102 0 102 242v1259h-125v8h287zM270 1221l-260 -183l-2 4q192 226 260 359h4q71 -135 263 -359
l-5 -4z" />
    <glyph glyph-name="Kcommaaccent" unicode="&#x136;" horiz-adv-x="1275" 
d="M1454 8v-8h-666v8h209l-526 668v-668h184v-8h-579v8h184v1350h-184v8h579v-8h-184v-670l518 590q60 69 45 78q-2 2 -18 2h-154v8h389v-8h-137q-47 0 -115 -80l-397 -455l662 -815h190zM782 -223q0 -75 -65 -178q-66 -105 -139 -125l-3 6q30 10 54 31q67 52 67 120
q0 47 -61 90q-41 30 -41 80q0 41 27 69t65 28q44 0 70 -32.5t26 -88.5z" />
    <glyph glyph-name="kcommaaccent" unicode="&#x137;" horiz-adv-x="946" 
d="M1038 8v-8h-463v8h125l-374 461v-461h127v-8h-414v8h125v1489h-125v8h287v-1024l348 316q73 67 35 67h-125v8h305v-8h-92q-38 0 -109 -65l-254 -230l465 -561h139zM596 -223q0 -74 -66 -178q-66 -105 -139 -125l-2 6q28 10 53 31q68 53 68 120q0 47 -61 90q-41 30 -41 80
q0 41 27 69t65 28q44 0 70 -32.5t26 -88.5z" />
    <glyph glyph-name="kgreenlandic" unicode="&#x138;" horiz-adv-x="946" 
d="M1038 8v-8h-463v8h125l-374 432v-432h127v-8h-414v8h125v856h-125v8h287v-419l344 344q55 64 39 67h-125v8h305v-8h-96q-44 0 -109 -65l-254 -254l469 -537h139z" />
    <glyph glyph-name="Lacute" unicode="&#x139;" horiz-adv-x="1167" 
d="M1133 406v-406h-1057v8h186v1350h-186v8h583v-8h-186v-1350h262q206 0 297 113q92 115 92 285h9zM319 1513l-4 5l244 260q45 48 57 57.5t39 13.5q29 0 48.5 -19t19.5 -48q0 -34 -51 -60z" />
    <glyph glyph-name="lacute" unicode="&#x13a;" horiz-adv-x="466" 
d="M451 8v-8h-414v8h127v1489h-127v8h287v-1497h127zM72 1569l-4 4l243 260q45 48 57.5 58t39.5 14q26 0 46.5 -21t20.5 -47q0 -33 -51 -59z" />
    <glyph glyph-name="Lcommaaccent" unicode="&#x13b;" horiz-adv-x="1167" 
d="M1133 406v-406h-1057v8h186v1350h-186v8h583v-8h-186v-1350h262q206 0 297 113q92 115 92 285h9zM748 -223q0 -74 -66 -178q-66 -105 -139 -125l-2 6q28 10 53 31q68 53 68 120q0 46 -62 90q-41 30 -41 80q0 41 27 69t65 28q44 0 70.5 -33t26.5 -88z" />
    <glyph glyph-name="lcommaaccent" unicode="&#x13c;" horiz-adv-x="466" 
d="M338 -223q0 -74 -66 -178q-66 -105 -139 -125l-2 6q28 10 53 31q68 53 68 120q0 46 -62 90q-40 30 -40 80q0 41 27 69t65 28q44 0 70 -32.5t26 -88.5zM451 8v-8h-414v8h127v1489h-127v8h287v-1497h127z" />
    <glyph glyph-name="Lcaron" unicode="&#x13d;" horiz-adv-x="1167" 
d="M1133 406v-406h-1057v8h186v1350h-186v8h583v-8h-186v-1350h262q206 0 297 113q92 115 92 285h9zM985 1395q0 -75 -65 -178q-66 -105 -140 -125l-2 6q30 11 53 30q68 53 68 121q0 47 -61 90q-41 30 -41 80q0 41 27 69t65 28q44 0 70 -32.5t26 -88.5z" />
    <glyph glyph-name="lcaron" unicode="&#x13e;" horiz-adv-x="673" 
d="M674 1395q0 -74 -66 -178q-66 -105 -139 -125l-2 6q30 11 53 30q68 53 68 121q0 46 -62 90q-41 30 -41 80q0 41 27 69t66 28q44 0 70 -32.5t26 -88.5zM451 8v-8h-414v8h127v1489h-127v8h287v-1497h127z" />
    <glyph glyph-name="Ldot" unicode="&#x13f;" horiz-adv-x="1167" 
d="M1133 406v-406h-1057v8h186v1350h-186v8h583v-8h-186v-1350h262q206 0 297 113q92 115 92 285h9zM887 575q-41 0 -71 31.5t-30 75.5t30 75t71 31q43 0 72.5 -31t29.5 -75t-29.5 -75.5t-72.5 -31.5z" />
    <glyph glyph-name="ldot" unicode="&#x140;" horiz-adv-x="661" 
d="M451 8v-8h-414v8h127v1489h-127v8h287v-1497h127zM668 756q0 -38 -28 -66t-65 -28t-64.5 28t-27.5 66q0 41 27.5 68.5t64.5 27.5t65 -28t28 -68z" />
    <glyph glyph-name="Lslash" unicode="&#x141;" horiz-adv-x="1167" 
d="M78 496l-6 8l190 108v746h-186v8h583v-8h-186v-623l287 166l4 -8l-291 -170v-715h262q206 0 297 113q92 115 92 285h9v-406h-1057v8h186v594z" />
    <glyph glyph-name="lslash" unicode="&#x142;" horiz-adv-x="466" 
d="M16 432l-8 4l156 156v905h-127v8h287v-753l120 120l9 -4l-129 -129v-731h127v-8h-414v8h127v572z" />
    <glyph glyph-name="Nacute" unicode="&#x143;" horiz-adv-x="1433" 
d="M1184 -25l-924 1373v-1246q0 -94 33 -94h153v-8h-383v8h160q29 0 29 94v1256h-186v8h432l688 -1026v924q0 94 -33 94h-156v8h383v-8h-157q-29 0 -29 -94v-1289h-10zM637 1513l-4 5l244 260q45 48 57 57.5t39 13.5q27 0 47 -19t20 -48q0 -34 -51 -60z" />
    <glyph glyph-name="nacute" unicode="&#x144;" horiz-adv-x="1038" 
d="M1022 8v-8h-414v8h125v666q0 94 -53.5 151.5t-120.5 57.5q-178 0 -233 -172v-703h127v-8h-412v8h125v856h-127v8h287v-141q25 79 87.5 119.5t143.5 40.5q159 0 247.5 -89.5t88.5 -252.5v-541h129zM418 1057l-4 4l243 260q45 48 57.5 58t39.5 14q28 0 47.5 -20.5
t19.5 -47.5q0 -33 -51 -59z" />
    <glyph glyph-name="Ncommaaccent" unicode="&#x145;" horiz-adv-x="1433" 
d="M1184 -25l-924 1373v-1246q0 -94 33 -94h153v-8h-383v8h160q29 0 29 94v1256h-186v8h432l688 -1026v924q0 94 -33 94h-156v8h383v-8h-157q-29 0 -29 -94v-1289h-10zM819 -223q0 -75 -65 -178q-66 -105 -140 -125l-2 6q30 10 54 31q67 52 67 120q0 47 -61 90
q-41 30 -41 80q0 41 27 69t65 28q44 0 70 -32.5t26 -88.5z" />
    <glyph glyph-name="ncommaaccent" unicode="&#x146;" horiz-adv-x="1038" 
d="M1022 8v-8h-414v8h125v666q0 94 -53.5 151.5t-120.5 57.5q-178 0 -233 -172v-703h127v-8h-412v8h125v856h-127v8h287v-141q25 79 87.5 119.5t143.5 40.5q159 0 247.5 -89.5t88.5 -252.5v-541h129zM623 -223q0 -74 -66 -178q-66 -105 -139 -125l-2 6q28 10 53 31
q68 53 68 120q0 46 -62 90q-41 30 -41 80q0 41 27 69t65 28q44 0 70.5 -33t26.5 -88z" />
    <glyph glyph-name="Ncaron" unicode="&#x147;" horiz-adv-x="1433" 
d="M1184 -25l-924 1373v-1246q0 -94 33 -94h153v-8h-383v8h160q29 0 29 94v1256h-186v8h432l688 -1026v924q0 94 -33 94h-156v8h383v-8h-157q-29 0 -29 -94v-1289h-10zM453 1853l2 5l260 -183l260 183l4 -5q-191 -222 -262 -358h-4q-67 131 -260 358z" />
    <glyph glyph-name="ncaron" unicode="&#x148;" horiz-adv-x="1038" 
d="M1022 8v-8h-414v8h125v666q0 94 -53.5 151.5t-120.5 57.5q-178 0 -233 -172v-703h127v-8h-412v8h125v856h-127v8h287v-141q25 79 87.5 119.5t143.5 40.5q159 0 247.5 -89.5t88.5 -252.5v-541h129zM256 1397l2 4l260 -182l260 182l4 -4q-190 -221 -262 -359h-4
q-68 133 -260 359z" />
    <glyph glyph-name="napostrophe" unicode="&#x149;" horiz-adv-x="1144" 
d="M1128 8v-8h-413v8h125v666q0 94 -53.5 151.5t-120.5 57.5q-179 0 -234 -172v-703h127v-8h-412v8h125v856h-127v8h287v-141q25 79 87.5 119.5t144.5 40.5q159 0 247 -89t88 -253v-541h129zM207 1262q0 -75 -66 -179q-66 -105 -139 -125l-2 7q30 11 53 30q68 53 68 121
q0 46 -62 90q-41 30 -41 80q0 41 27 68.5t66 27.5q44 0 70 -32.5t26 -87.5z" />
    <glyph glyph-name="Omacron" unicode="&#x14c;" horiz-adv-x="1474" 
d="M735 -33q-264 0 -452 209q-187 208 -187 506q0 291 183 504q186 213 456 213q268 0 455 -211q188 -209 188 -506t-188 -506t-455 -209zM1155 682q0 488 -166 635q-86 74 -254 74q-164 0 -250 -74q-166 -144 -166 -635q0 -284 39 -420q41 -139 127 -213q83 -74 250 -74
q171 0 254 74q84 72 125 213q41 143 41 420zM1024 1608h-573v84h573v-84z" />
    <glyph glyph-name="omacron" unicode="&#x14d;" horiz-adv-x="1017" 
d="M508 -18q-174 0 -301 133q-125 131 -125 321q0 191 125 322q127 133 301 133q176 0 303 -133q125 -131 125 -322q0 -190 -125 -321q-127 -133 -303 -133zM772 436q0 309 -104 400q-56 47 -160 47q-105 0 -158 -47q-104 -88 -104 -400q0 -175 23.5 -264t80.5 -137
q51 -45 158 -45q109 0 160 45q55 45 79.5 136t24.5 265zM795 1151h-574v84h574v-84z" />
    <glyph glyph-name="Obreve" unicode="&#x14e;" horiz-adv-x="1474" 
d="M735 -33q-264 0 -452 209q-187 208 -187 506q0 291 183 504q186 213 456 213q268 0 455 -211q188 -209 188 -506t-188 -506t-455 -209zM1155 682q0 488 -166 635q-86 74 -254 74q-164 0 -250 -74q-166 -144 -166 -635q0 -284 39 -420q41 -139 127 -213q83 -74 250 -74
q171 0 254 74q84 72 125 213q41 143 41 420zM479 1823h10q30 -203 248 -203t248 203h10q-6 -142 -61 -230q-52 -88 -197 -88q-143 0 -198 88q-54 91 -60 230z" />
    <glyph glyph-name="obreve" unicode="&#x14f;" horiz-adv-x="1017" 
d="M508 -18q-174 0 -301 133q-125 131 -125 321q0 191 125 322q127 133 301 133q176 0 303 -133q125 -131 125 -322q0 -190 -125 -321q-127 -133 -303 -133zM772 436q0 309 -104 400q-56 47 -160 47q-105 0 -158 -47q-104 -88 -104 -400q0 -175 23.5 -264t80.5 -137
q51 -45 158 -45q109 0 160 45q55 45 79.5 136t24.5 265zM250 1366h10q30 -203 248 -203t248 203h10q-6 -141 -61 -229q-52 -88 -197 -88q-144 0 -199 88q-53 89 -59 229z" />
    <glyph glyph-name="Ohungarumlaut" unicode="&#x150;" horiz-adv-x="1474" 
d="M735 -33q-264 0 -452 209q-187 208 -187 506q0 291 183 504q186 213 456 213q268 0 455 -211q188 -209 188 -506t-188 -506t-455 -209zM1155 682q0 488 -166 635q-86 74 -254 74q-164 0 -250 -74q-166 -144 -166 -635q0 -284 39 -420q41 -139 127 -213q83 -74 250 -74
q171 0 254 74q84 72 125 213q41 143 41 420zM518 1513l-4 5l244 260q45 48 57 57.5t39 13.5q27 0 47.5 -19.5t20.5 -47.5q0 -33 -52 -60zM764 1513l-4 5l244 260q45 48 57 57.5t39 13.5q27 0 47 -19t20 -48q0 -34 -51 -60z" />
    <glyph glyph-name="ohungarumlaut" unicode="&#x151;" horiz-adv-x="1017" 
d="M508 -18q-174 0 -301 133q-125 131 -125 321q0 191 125 322q127 133 301 133q176 0 303 -133q125 -131 125 -322q0 -190 -125 -321q-127 -133 -303 -133zM772 436q0 309 -104 400q-56 47 -160 47q-105 0 -158 -47q-104 -88 -104 -400q0 -175 23.5 -264t80.5 -137
q51 -45 158 -45q109 0 160 45q55 45 79.5 136t24.5 265zM289 1057l-4 4l243 260q45 48 57.5 58t39.5 14q26 0 46.5 -21t20.5 -47q0 -33 -51 -59zM535 1057l-5 4l244 260q51 55 63 62q11 6 33 10q26 0 47 -21t21 -47q0 -33 -51 -59z" />
    <glyph glyph-name="OE" unicode="&#x152;" horiz-adv-x="1845" 
d="M735 1366h963v-348h-8q0 154 -86 247t-252 93h-262v-653h102q116 0 181 59t65 162h8v-449h-8q0 101 -64.5 161t-179.5 60h-104v-690h266q219 0 327.5 102.5t108.5 276.5h8v-387h-1065q-265 0 -454 195q-185 194 -185 487q0 290 180 485q181 199 459 199zM879 8v1350h-144
q-164 0 -250 -74q-86 -75 -126 -216.5t-40 -385.5q0 -278 39 -399q41 -125 127 -199q85 -76 250 -76h144z" />
    <glyph glyph-name="oe" unicode="&#x153;" horiz-adv-x="1607" 
d="M508 891q213 0 342 -182q120 182 330 182q73 0 134.5 -27t102 -69t69 -96t41 -106.5t11.5 -100.5v-7h-598q-2 -10 -2 -51q0 -184 18 -270q21 -87 72 -129q51 -45 152 -45q100 0 187 53.5t146 144.5l7 -4q-61 -94 -150 -148t-190 -54q-210 0 -332 180q-128 -180 -340 -180
q-174 0 -301 133q-125 131 -125 321q0 191 125 322q127 133 301 133zM772 436q0 309 -104 400q-56 47 -160 47q-105 0 -158 -47q-104 -88 -104 -400q0 -175 23.5 -264t80.5 -137q51 -45 158 -45q109 0 160 45q55 45 79.5 136t24.5 265zM940 494h434q-6 274 -71 342
q-47 47 -123 47q-96 0 -152 -47q-82 -70 -88 -342z" />
    <glyph glyph-name="Racute" unicode="&#x154;" horiz-adv-x="1339" 
d="M1448 57l6 -6q-67 -67 -184 -67q-283 0 -283 374v109q0 118 -85 179t-232 61h-199v-699h240v-8h-637v8h188v1350h-188v8h598q213 0 344 -96q129 -94 129 -240q0 -135 -127 -227t-309 -92q246 0 370.5 -98t124.5 -275v-158q0 -77 33 -128.5t86 -51.5q68 0 125 57z
M932 1024q0 334 -307 334h-154v-643h199q145 0 204 65q58 64 58 244zM508 1513l-4 5l244 260q45 48 57 57.5t39 13.5q29 0 48 -19t19 -48q0 -34 -51 -60z" />
    <glyph glyph-name="racute" unicode="&#x155;" horiz-adv-x="706" 
d="M657 770q0 -35 -25.5 -60.5t-60.5 -25.5q-37 0 -60.5 18.5t-23.5 45.5q0 15 11.5 40t11.5 33q0 43 -51 43q-84 0 -133 -155v-701h127v-8h-414v8h125v856h-125v8h287v-137q52 156 190 156q141 0 141 -121zM233 1057l-4 4l244 260q51 55 63 62q11 6 33 10q29 0 48.5 -20.5
t19.5 -47.5q0 -33 -51 -59z" />
    <glyph glyph-name="Rcommaaccent" unicode="&#x156;" horiz-adv-x="1339" 
d="M1448 57l6 -6q-67 -67 -184 -67q-283 0 -283 374v109q0 118 -85 179t-232 61h-199v-699h240v-8h-637v8h188v1350h-188v8h598q213 0 344 -96q129 -94 129 -240q0 -135 -127 -227t-309 -92q246 0 370.5 -98t124.5 -275v-158q0 -77 33 -128.5t86 -51.5q68 0 125 57z
M932 1024q0 334 -307 334h-154v-643h199q145 0 204 65q58 64 58 244zM793 -223q0 -74 -66 -178q-66 -105 -139 -125l-2 6q28 10 53 31q68 53 68 120q0 46 -62 90q-41 30 -41 80q0 41 27 69t65 28q44 0 70.5 -33t26.5 -88z" />
    <glyph glyph-name="rcommaaccent" unicode="&#x157;" horiz-adv-x="706" 
d="M657 770q0 -35 -25.5 -60.5t-60.5 -25.5q-37 0 -60.5 18.5t-23.5 45.5q0 15 11.5 40t11.5 33q0 43 -51 43q-84 0 -133 -155v-701h127v-8h-414v8h125v856h-125v8h287v-137q52 156 190 156q141 0 141 -121zM348 -223q0 -75 -65 -178q-66 -105 -140 -125l-2 6q30 10 54 31
q67 52 67 120q0 47 -61 90q-41 30 -41 80q0 41 27 69t65 28q44 0 70 -32.5t26 -88.5z" />
    <glyph glyph-name="Rcaron" unicode="&#x158;" horiz-adv-x="1339" 
d="M1448 57l6 -6q-67 -67 -184 -67q-283 0 -283 374v109q0 118 -85 179t-232 61h-199v-699h240v-8h-637v8h188v1350h-188v8h598q213 0 344 -96q129 -94 129 -240q0 -135 -127 -227t-309 -92q246 0 370.5 -98t124.5 -275v-158q0 -77 33 -128.5t86 -51.5q68 0 125 57z
M932 1024q0 334 -307 334h-154v-643h199q145 0 204 65q58 64 58 244zM406 1853l2 5l260 -183l260 183l4 -5q-191 -222 -262 -358h-4q-67 131 -260 358z" />
    <glyph glyph-name="rcaron" unicode="&#x159;" horiz-adv-x="706" 
d="M657 770q0 -35 -25.5 -60.5t-60.5 -25.5q-37 0 -60.5 18.5t-23.5 45.5q0 15 11.5 40t11.5 33q0 43 -51 43q-84 0 -133 -155v-701h127v-8h-414v8h125v856h-125v8h287v-137q52 156 190 156q141 0 141 -121zM90 1397l2 4l260 -182l260 182l4 -4q-190 -221 -262 -359h-4
q-68 133 -260 359z" />
    <glyph glyph-name="Sacute" unicode="&#x15a;" horiz-adv-x="1079" 
d="M1018 387q0 -145 -129 -283q-128 -137 -344 -137q-79 0 -180 39q-103 41 -144 41q-38 0 -68.5 -23t-35.5 -53h-8v422h8q0 -133 125 -276q127 -142 303 -142q158 0 262 84q102 83 102 187q0 135 -100 213q-101 84 -336 166q-171 60 -250.5 145t-79.5 234q0 155 109 276
q110 119 258 119q52 0 135 -27q83 -24 123 -24q71 0 80 45h8v-316h-8q0 133 -107 221q-107 93 -229 93q-111 0 -195 -78q-81 -75 -81 -176q0 -217 368 -349q228 -80 316 -157q98 -82 98 -244zM438 1513l-4 5l244 260q45 48 57 57.5t39 13.5q29 0 48.5 -19t19.5 -48
q0 -34 -51 -60z" />
    <glyph glyph-name="sacute" unicode="&#x15b;" horiz-adv-x="757" 
d="M690 268q0 -132 -74.5 -209t-212.5 -77q-64 0 -129 26q-72 29 -96 29q-23 0 -45 -13t-27 -26h-8v287h8q-3 -117 82 -205q90 -90 215 -90q90 0 142.5 47t52.5 133q0 80 -57 134t-176 93q-128 44 -183 94t-55 138q0 115 69 188.5t169 73.5q18 0 75.5 -10.5t91.5 -10.5
q43 0 43 29h9v-231h-9q0 96 -62 155.5t-148 59.5q-75 0 -118.5 -37.5t-43.5 -104.5q0 -151 229 -221q129 -39 193.5 -100t64.5 -152zM258 1057l-4 4l244 260q51 55 63 62q11 6 33 10q29 0 48.5 -20.5t19.5 -47.5q0 -32 -52 -59z" />
    <glyph glyph-name="Scircumflex" unicode="&#x15c;" horiz-adv-x="1079" 
d="M1018 387q0 -145 -129 -283q-128 -137 -344 -137q-79 0 -180 39q-103 41 -144 41q-38 0 -68.5 -23t-35.5 -53h-8v422h8q0 -133 125 -276q127 -142 303 -142q158 0 262 84q102 83 102 187q0 135 -100 213q-101 84 -336 166q-171 60 -250.5 145t-79.5 234q0 155 109 276
q110 119 258 119q52 0 135 -27q83 -24 123 -24q71 0 80 45h8v-316h-8q0 133 -107 221q-107 93 -229 93q-111 0 -195 -78q-81 -75 -81 -176q0 -217 368 -349q228 -80 316 -157q98 -82 98 -244zM539 1677l-260 -182l-3 4q194 229 261 359h4q72 -138 262 -359l-4 -4z" />
    <glyph glyph-name="scircumflex" unicode="&#x15d;" horiz-adv-x="757" 
d="M690 268q0 -132 -74.5 -209t-212.5 -77q-64 0 -129 26q-72 29 -96 29q-23 0 -45 -13t-27 -26h-8v287h8q-3 -117 82 -205q90 -90 215 -90q90 0 142.5 47t52.5 133q0 80 -57 134t-176 93q-128 44 -183 94t-55 138q0 115 69 188.5t169 73.5q18 0 75.5 -10.5t91.5 -10.5
q43 0 43 29h9v-231h-9q0 96 -62 155.5t-148 59.5q-75 0 -118.5 -37.5t-43.5 -104.5q0 -151 229 -221q129 -39 193.5 -100t64.5 -152zM377 1221l-260 -183l-2 4q192 226 260 359h4q72 -138 262 -359l-4 -4z" />
    <glyph glyph-name="Scedilla" unicode="&#x15e;" horiz-adv-x="1079" 
d="M1018 387q0 -145 -129 -283q-128 -137 -344 -137h-13q-20 -36 -20 -63t20 -46t49 -31.5t57.5 -27t48.5 -41.5t20 -67q0 -68 -48 -106t-131 -38q-67 0 -112 30.5t-45 70.5q0 24 13 38.5t36 14.5q45 0 45 -43q0 -14 -14.5 -32t-14.5 -21q0 -19 28.5 -34t63.5 -15
q60 0 100 29.5t40 72.5q0 23 -30 40t-65.5 27.5t-65.5 40.5t-30 76q0 63 45 125q-68 3 -164 41q-91 39 -137 39q-38 0 -68.5 -23t-35.5 -53h-8v422h8q0 -133 125 -276q127 -142 301 -142q160 0 264 84q102 83 102 187q0 135 -100 213q-101 84 -336 166q-171 60 -250.5 145
t-79.5 234q0 155 109 276q110 119 258 119q52 0 135 -27q83 -24 123 -24q71 0 80 45h8v-316h-8q0 133 -107 221q-110 93 -231 93q-111 0 -195 -78q-79 -76 -79 -176q0 -217 368 -349q228 -80 316 -157q98 -82 98 -244z" />
    <glyph glyph-name="scedilla" unicode="&#x15f;" horiz-adv-x="757" 
d="M690 268q0 -132 -74.5 -209t-212.5 -77h-20q-31 -48 -31 -78q0 -27 20 -46t49 -31.5t57.5 -27t48.5 -41.5t20 -67q0 -68 -47.5 -106t-130.5 -38q-67 0 -112.5 30.5t-45.5 70.5q0 24 13 38.5t36 14.5q45 0 45 -43q0 -14 -14.5 -32t-14.5 -21q0 -19 29 -34t64 -15
q60 0 99.5 29.5t39.5 72.5q0 23 -30 40t-65.5 27.5t-65.5 40.5t-30 76q0 76 58 140q-44 3 -105 28q-58 27 -92 27q-23 0 -45 -13t-27 -26h-8v287h8q-3 -117 82 -205q90 -90 215 -90q90 0 142.5 47t52.5 133q0 80 -57 134t-176 93q-128 44 -183 94t-55 138q0 115 69 188.5
t169 73.5q18 0 75.5 -10.5t91.5 -10.5q43 0 43 29h9v-231h-9q0 96 -62 155.5t-148 59.5q-75 0 -118.5 -37.5t-43.5 -104.5q0 -151 229 -221q129 -39 193.5 -100t64.5 -152z" />
    <glyph glyph-name="Scaron" unicode="&#x160;" horiz-adv-x="1079" 
d="M1018 387q0 -145 -129 -283q-128 -137 -344 -137q-79 0 -180 39q-103 41 -144 41q-38 0 -68.5 -23t-35.5 -53h-8v422h8q0 -133 125 -276q127 -142 303 -142q158 0 262 84q102 83 102 187q0 135 -100 213q-101 84 -336 166q-171 60 -250.5 145t-79.5 234q0 155 109 276
q110 119 258 119q52 0 135 -27q83 -24 123 -24q71 0 80 45h8v-316h-8q0 133 -107 221q-107 93 -229 93q-111 0 -195 -78q-81 -75 -81 -176q0 -217 368 -349q228 -80 316 -157q98 -82 98 -244zM276 1853l3 5l260 -183l260 183l4 -5q-191 -222 -262 -358h-4q-65 128 -261 358z
" />
    <glyph glyph-name="scaron" unicode="&#x161;" horiz-adv-x="757" 
d="M690 268q0 -132 -74.5 -209t-212.5 -77q-64 0 -129 26q-72 29 -96 29q-23 0 -45 -13t-27 -26h-8v287h8q-3 -117 82 -205q90 -90 215 -90q90 0 142.5 47t52.5 133q0 80 -57 134t-176 93q-128 44 -183 94t-55 138q0 115 69 188.5t169 73.5q18 0 75.5 -10.5t91.5 -10.5
q43 0 43 29h9v-231h-9q0 96 -62 155.5t-148 59.5q-75 0 -118.5 -37.5t-43.5 -104.5q0 -151 229 -221q129 -39 193.5 -100t64.5 -152zM115 1397l2 4l260 -182l260 182l4 -4q-190 -221 -262 -359h-4q-68 133 -260 359z" />
    <glyph glyph-name="Tcommaaccent" unicode="&#x162;" horiz-adv-x="1206" 
d="M1167 1366v-405h-8q0 186 -98 291.5t-295 105.5h-61v-1350h186v-8h-582v8h185v1350h-60q-197 0 -292 -104t-95 -293h-8v405h1128zM707 -223q0 -74 -66 -178q-66 -105 -139 -125l-2 6q28 10 53 31q68 53 68 120q0 46 -62 90q-41 30 -41 80q0 41 27 69t65 28q44 0 70.5 -33
t26.5 -88z" />
    <glyph glyph-name="tcommaaccent" unicode="&#x163;" horiz-adv-x="581" 
d="M541 166l8 -4q-46 -180 -197 -180q-168 0 -168 200v682h-153v8h153v244q130 18 154 94h8v-338h182v-8h-182v-792q0 -60 60 -60q43 0 80 41t55 113zM395 -223q0 -75 -65 -178q-66 -105 -140 -125l-2 6q30 10 54 31q67 52 67 120q0 47 -61 90q-41 30 -41 80q0 41 27 69
t65 28q44 0 70 -32.5t26 -88.5z" />
    <glyph glyph-name="Tcaron" unicode="&#x164;" horiz-adv-x="1206" 
d="M1167 1366v-405h-8q0 186 -98 291.5t-295 105.5h-61v-1350h186v-8h-582v8h185v1350h-60q-197 0 -292 -104t-95 -293h-8v405h1128zM340 1853l2 5l260 -183l260 183l4 -5q-191 -222 -262 -358h-4q-67 131 -260 358z" />
    <glyph glyph-name="tcaron" unicode="&#x165;" horiz-adv-x="694" 
d="M541 166l8 -4q-46 -180 -197 -180q-168 0 -168 200v682h-153v8h153v244q130 18 154 94h8v-338h182v-8h-182v-792q0 -60 60 -60q43 0 80 41t55 113zM694 1395q0 -75 -65 -178q-66 -105 -140 -125l-2 6q32 11 54 30q67 52 67 121q0 47 -61 90q-41 30 -41 80q0 41 27 69
t65 28q44 0 70 -32.5t26 -88.5z" />
    <glyph glyph-name="Tbar" unicode="&#x166;" horiz-adv-x="1206" 
d="M705 739h286v-8h-286v-723h186v-8h-582v8h185v723h-285v8h285v619h-60q-197 0 -292 -104t-95 -293h-8v405h1128v-405h-8q0 186 -98 291.5t-295 105.5h-61v-619z" />
    <glyph glyph-name="tbar" unicode="&#x167;" horiz-adv-x="581" 
d="M31 578v8h153v278h-153v8h153v244q130 18 154 94h8v-338h182v-8h-182v-278h182v-8h-182v-506q0 -60 60 -60q43 0 80 41t55 113l8 -4q-46 -180 -197 -180q-168 0 -168 200v396h-153z" />
    <glyph glyph-name="Utilde" unicode="&#x168;" horiz-adv-x="1404" 
d="M1194 406v878q0 74 -31 74h-155v8h381v-8h-156q-29 0 -29 -74v-878q0 -211 -119 -325t-354 -114q-233 0 -370.5 113t-137.5 319v959h-186v8h584v-8h-187v-959q0 -409 344 -409q206 0 311 108.5t105 307.5zM1081 1784l2 4h7q-2 -19 -17 -70q-10 -35 -59 -90
q-46 -49 -117 -49q-59 0 -147 49q-89 47 -129 47q-19 0 -35 -3t-27.5 -6t-22 -10.5t-16 -12t-12.5 -15l-9 -13.5t-7 -14t-5 -12l-2 -10h-6q17 91 68.5 147t114.5 56q38 0 141 -47q94 -49 139 -49q105 0 139 98z" />
    <glyph glyph-name="utilde" unicode="&#x169;" horiz-adv-x="1017" 
d="M999 8v-8h-288v141q-25 -79 -87.5 -119t-144.5 -40q-160 0 -248 84t-88 243v555h-125v8h287v-673q0 -94 53.5 -151.5t120.5 -57.5q180 0 232 172v702h-125v8h286v-864h127zM807 1331h6q-2 -23 -16 -69q-10 -35 -60 -91q-46 -49 -116 -49q-60 0 -148 49q-91 48 -129 48
q-115 0 -131 -89l-4 -8h-6q17 91 68.5 147t113.5 56q38 0 141 -47q94 -49 140 -49q108 3 141 102z" />
    <glyph glyph-name="Umacron" unicode="&#x16a;" horiz-adv-x="1404" 
d="M1194 406v878q0 74 -31 74h-155v8h381v-8h-156q-29 0 -29 -74v-878q0 -211 -119 -325t-354 -114q-233 0 -370.5 113t-137.5 319v959h-186v8h584v-8h-187v-959q0 -409 344 -409q206 0 311 108.5t105 307.5zM1071 1608h-573v84h573v-84z" />
    <glyph glyph-name="umacron" unicode="&#x16b;" horiz-adv-x="1017" 
d="M999 8v-8h-288v141q-25 -79 -87.5 -119t-144.5 -40q-160 0 -248 84t-88 243v555h-125v8h287v-673q0 -94 53.5 -151.5t120.5 -57.5q180 0 232 172v702h-125v8h286v-864h127zM795 1151h-574v84h574v-84z" />
    <glyph glyph-name="Ubreve" unicode="&#x16c;" horiz-adv-x="1404" 
d="M1194 406v878q0 74 -31 74h-155v8h381v-8h-156q-29 0 -29 -74v-878q0 -211 -119 -325t-354 -114q-233 0 -370.5 113t-137.5 319v959h-186v8h584v-8h-187v-959q0 -409 344 -409q206 0 311 108.5t105 307.5zM526 1823h11q30 -203 247 -203q218 0 248 203h10
q-6 -142 -61 -230q-52 -88 -197 -88q-143 0 -198 88q-54 91 -60 230z" />
    <glyph glyph-name="ubreve" unicode="&#x16d;" horiz-adv-x="1017" 
d="M999 8v-8h-288v141q-25 -79 -87.5 -119t-144.5 -40q-160 0 -248 84t-88 243v555h-125v8h287v-673q0 -94 53.5 -151.5t120.5 -57.5q180 0 232 172v702h-125v8h286v-864h127zM250 1366h10q30 -203 248 -203t248 203h10q-6 -141 -61 -229q-52 -88 -197 -88q-144 0 -199 88
q-53 89 -59 229z" />
    <glyph glyph-name="Uring" unicode="&#x16e;" horiz-adv-x="1404" 
d="M1194 406v878q0 74 -31 74h-155v8h381v-8h-156q-29 0 -29 -74v-878q0 -211 -119 -325t-354 -114q-233 0 -370.5 113t-137.5 319v959h-186v8h584v-8h-187v-959q0 -409 344 -409q206 0 311 108.5t105 307.5zM973 1706q0 -73 -57.5 -128.5t-131.5 -55.5t-131 55.5t-57 128.5
q0 92 63 137q64 49 125 49q59 0 123 -49q66 -48 66 -137zM686 1704q0 -97 23 -136.5t75 -39.5t75.5 40t23.5 136t-21 139t-78 43t-77.5 -42.5t-20.5 -139.5z" />
    <glyph glyph-name="uring" unicode="&#x16f;" horiz-adv-x="1017" 
d="M999 8v-8h-288v141q-25 -79 -87.5 -119t-144.5 -40q-160 0 -248 84t-88 243v555h-125v8h287v-673q0 -94 53.5 -151.5t120.5 -57.5q180 0 232 172v702h-125v8h286v-864h127zM696 1249q0 -73 -57 -128.5t-131 -55.5t-131.5 55.5t-57.5 128.5q0 91 64 137q65 50 125 50
q58 0 123 -50q65 -47 65 -137zM410 1247q0 -97 23 -136.5t75 -39.5t75 39.5t23 136.5t-20.5 140t-77.5 43t-77.5 -43t-20.5 -140z" />
    <glyph glyph-name="Uhungarumlaut" unicode="&#x170;" horiz-adv-x="1404" 
d="M1194 406v878q0 74 -31 74h-155v8h381v-8h-156q-29 0 -29 -74v-878q0 -211 -119 -325t-354 -114q-233 0 -370.5 113t-137.5 319v959h-186v8h584v-8h-187v-959q0 -409 344 -409q206 0 311 108.5t105 307.5zM606 1513l-4 5l244 260q45 48 57 57.5t39 13.5q29 0 48.5 -19
t19.5 -48q0 -33 -52 -60zM852 1513l-4 5l244 260q45 48 57 57.5t39 13.5q29 0 48 -19t19 -48q0 -34 -51 -60z" />
    <glyph glyph-name="uhungarumlaut" unicode="&#x171;" horiz-adv-x="1017" 
d="M999 8v-8h-288v141q-25 -79 -87.5 -119t-144.5 -40q-160 0 -248 84t-88 243v555h-125v8h287v-673q0 -94 53.5 -151.5t120.5 -57.5q180 0 232 172v702h-125v8h286v-864h127zM248 1057l-4 4l243 260q45 48 57.5 58t39.5 14q26 0 46.5 -21t20.5 -47q0 -33 -51 -59zM494 1057
l-5 4l244 260q51 55 63 62q11 6 33 10q26 0 47 -21t21 -47q0 -33 -51 -59z" />
    <glyph glyph-name="Uogonek" unicode="&#x172;" horiz-adv-x="1404" 
d="M1194 406v878q0 74 -31 74h-155v8h381v-8h-156q-29 0 -29 -74v-878q0 -211 -119 -325t-354 -114q-233 0 -370.5 113t-137.5 319v959h-186v8h584v-8h-187v-959q0 -409 344 -409q206 0 311 108.5t105 307.5zM1010 -330l4 -4q-94 -76 -187 -76q-74 0 -118.5 35t-44.5 101
q0 148 268 274h16q-162 -113 -162 -248q0 -53 28.5 -92t84.5 -39q41 0 111 49z" />
    <glyph glyph-name="uogonek" unicode="&#x173;" horiz-adv-x="1017" 
d="M999 8v-8h-288v141q-25 -79 -87.5 -119t-144.5 -40q-160 0 -248 84t-88 243v555h-125v8h287v-673q0 -94 53.5 -151.5t120.5 -57.5q180 0 232 172v702h-125v8h286v-864h127zM995 -330l4 -4q-94 -76 -186 -76q-74 0 -119 35t-45 101q0 147 269 274h16q-162 -113 -162 -248
q0 -53 28.5 -92t84.5 -39q40 0 110 49z" />
    <glyph glyph-name="Wcircumflex" unicode="&#x174;" horiz-adv-x="1961" 
d="M2060 1366v-8h-143q-24 0 -36 -13.5t-30 -66.5l-452 -1307h-10l-375 1006l-350 -1006h-11l-553 1387h-188v8h608v-8h-190l428 -1090l250 721l-138 369h-159v8h602v-8h-219l395 -1098l356 1028q24 70 -8 70h-166v8h389zM999 1677l-260 -182l-2 4q192 226 260 359h4
q71 -135 263 -359l-4 -4z" />
    <glyph glyph-name="wcircumflex" unicode="&#x175;" horiz-adv-x="1366" 
d="M1430 872v-8h-93q-21 0 -33 -16t-30 -70l-279 -794h-12l-299 682l-240 -682h-12l-387 880h-111v8h388v-8h-115l301 -674l172 488l-84 186h-96v8h385v-8h-127l301 -671l207 585q30 86 -6 86h-93v8h263zM682 1221l-260 -183l-2 4q192 226 260 359h4q72 -138 262 -359l-4 -4
z" />
    <glyph glyph-name="Ycircumflex" unicode="&#x176;" horiz-adv-x="1236" 
d="M1286 1366v-8h-135q-20 0 -35 -15.5t-39 -64.5l-309 -649v-621h186v-8h-583v8h188v588l-401 762h-191v8h647v-8h-219l369 -715l301 635q16 35 20 54t1 22.5t-11 3.5h-180v8h391zM719 1677l-260 -182l-2 4q192 226 260 359h4q72 -138 262 -359l-4 -4z" />
    <glyph glyph-name="ycircumflex" unicode="&#x177;" horiz-adv-x="849" 
d="M907 872v-8h-94q-19 0 -31 -16t-32 -70l-465 -1263q-36 -95 -70.5 -130.5t-95.5 -35.5q-65 0 -105.5 29.5t-40.5 82.5q0 47 28 79t67 32q37 0 59.5 -20.5t22.5 -51.5q0 -16 -19.5 -50.5t-19.5 -47.5q0 -29 32 -29q41 0 71.5 29t59.5 109l172 469l-403 884h-109v8h400v-8
h-121l303 -694l225 608q30 86 -8 86h-88v8h262zM485 1221l-260 -183l-2 4q192 226 260 359h4q71 -135 263 -359l-5 -4z" />
    <glyph glyph-name="Ydieresis" unicode="&#x178;" horiz-adv-x="1236" 
d="M1286 1366v-8h-135q-20 0 -35 -15.5t-39 -64.5l-309 -649v-621h186v-8h-583v8h188v588l-401 762h-191v8h647v-8h-219l369 -715l301 635q16 35 20 54t1 22.5t-11 3.5h-180v8h391zM553 1536q-41 0 -70.5 31t-29.5 75t29.5 75.5t70.5 31.5q43 0 72.5 -31.5t29.5 -75.5
t-29.5 -75t-72.5 -31zM928 1536q-41 0 -71 31t-30 75t30 75.5t71 31.5q43 0 72.5 -31.5t29.5 -75.5t-29.5 -75t-72.5 -31z" />
    <glyph glyph-name="Zacute" unicode="&#x179;" horiz-adv-x="1241" 
d="M176 1366h971l-811 -1358h403q187 0 293 115q105 117 105 291h8v-414h-1045l809 1358h-338q-185 0 -286 -108t-101 -289h-8v405zM541 1513l-4 5l243 260q44 47 57 57t40 14q29 0 48 -19t19 -48q0 -34 -51 -60z" />
    <glyph glyph-name="zacute" unicode="&#x17a;" horiz-adv-x="862" 
d="M776 281v-281h-735l553 864h-203q-141 0 -206.5 -60.5t-65.5 -185.5h-8v254h659l-555 -864h254q299 0 299 273h8zM309 1057l-4 4l244 260q51 55 63 62q11 6 33 10q26 0 47 -21t21 -47q0 -33 -51 -59z" />
    <glyph glyph-name="Zdotaccent" unicode="&#x17b;" horiz-adv-x="1241" 
d="M176 1366h971l-811 -1358h403q187 0 293 115q105 117 105 291h8v-414h-1045l809 1358h-338q-185 0 -286 -108t-101 -289h-8v405zM621 1536q-41 0 -71 31t-30 75t30 75.5t71 31.5q43 0 72.5 -31.5t29.5 -75.5t-29.5 -75t-72.5 -31z" />
    <glyph glyph-name="zdotaccent" unicode="&#x17c;" horiz-adv-x="862" 
d="M776 281v-281h-735l553 864h-203q-141 0 -206.5 -60.5t-65.5 -185.5h-8v254h659l-555 -864h254q299 0 299 273h8zM518 1204q0 -38 -27.5 -66t-64.5 -28t-64.5 28t-27.5 66q0 41 27.5 68.5t64.5 27.5t64.5 -27.5t27.5 -68.5z" />
    <glyph glyph-name="Zcaron" unicode="&#x17d;" horiz-adv-x="1241" 
d="M176 1366h971l-811 -1358h403q187 0 293 115q105 117 105 291h8v-414h-1045l809 1358h-338q-185 0 -286 -108t-101 -289h-8v405zM356 1853l2 5l260 -183l261 183l4 -5q-191 -222 -262 -358h-5q-67 131 -260 358z" />
    <glyph glyph-name="zcaron" unicode="&#x17e;" horiz-adv-x="862" 
d="M776 281v-281h-735l553 864h-203q-141 0 -206.5 -60.5t-65.5 -185.5h-8v254h659l-555 -864h254q299 0 299 273h8zM168 1397l2 4l260 -182l260 182l4 -4q-190 -221 -262 -359h-4q-68 133 -260 359z" />
    <glyph glyph-name="uni018f" unicode="&#x18f;" horiz-adv-x="1392" 
d="M90 682v33h985q-6 465 -168 602q-83 74 -250 74q-147 0 -266 -119q-121 -118 -121 -260h-8v381h8q5 -18 33.5 -31.5t65.5 -13.5q47 0 141 24q99 27 147 27q272 0 455 -213q184 -211 184 -504q0 -298 -172 -506q-173 -209 -444 -209q-258 0 -426 207q-164 206 -164 508z
M1075 707h-772v-25q0 -294 33 -426q35 -138 115 -207q83 -74 229 -74q177 0 260 74q80 68 107 213q28 152 28 420v25z" />
    <glyph glyph-name="florin" unicode="&#x192;" horiz-adv-x="806" 
d="M1020 1372q0 -38 -29 -66t-67 -28q-80 0 -80 70q0 12 15 44.5t15 51.5q0 30 -19.5 48.5t-51.5 18.5q-30 0 -57.5 -18.5t-61.5 -69.5q-38 -57 -66 -141q-70 -196 -94 -604h197v-8h-197l-4 -56q-12 -173 -33 -323q-23 -161 -63 -330q-44 -185 -102 -309
q-60 -134 -157 -217.5t-214 -83.5q-82 0 -135.5 42t-53.5 109q0 37 29.5 66t67.5 29q80 0 80 -70q0 -15 -15.5 -46t-15.5 -48q0 -31 20 -50.5t52 -19.5q171 0 251 348q56 244 99 926q2 6 2 25l2 8h-199v8h199l2 47q18 351 170 575t336 224q73 0 125.5 -43.5t52.5 -108.5z
" />
    <glyph glyph-name="Aringacute" unicode="&#x1fa;" horiz-adv-x="1294" 
d="M821 1575q0 -73 -57 -127q-54 -54 -127 -57l534 -1383h179v-8h-605v8h199l-172 465h-473l-143 -385q-12 -35 -14.5 -52t2.5 -22.5t20 -5.5h153v-8h-364v8h137q30 0 57 80l478 1303q-73 5 -127 59t-54 125q0 91 64 137q64 49 125 49q59 0 123 -49q65 -47 65 -137zM301 481
h467l-231 639zM535 1573q0 -97 23 -136.5t75 -39.5t75 39.5t23 136.5t-20.5 139.5t-77.5 42.5t-77.5 -42.5t-20.5 -139.5zM547 1759l-4 4l243 260q45 48 57.5 58t39.5 14q27 0 47 -19t20 -48q0 -34 -51 -60z" />
    <glyph glyph-name="aringacute" unicode="&#x1fb;" horiz-adv-x="894" 
d="M870 63l7 -2q-8 -32 -46 -54.5t-90 -22.5q-125 0 -149 131q-18 -61 -85.5 -96t-156.5 -35q-122 0 -196 52.5t-74 160.5q0 73 27 126.5t73 79.5q80 45 160 54q196 18 229 41q9 10 13 20v156q0 106 -44.5 157.5t-115.5 51.5q-88 0 -88 -92q0 -12 7 -39t7 -35
q0 -31 -22.5 -50.5t-63.5 -19.5q-39 0 -59.5 24.5t-20.5 63.5q0 61 67.5 108.5t172.5 47.5q321 0 321 -371v-440q0 -68 54 -68q24 0 44.5 15.5t28.5 35.5zM582 141v351q-13 -13 -52.5 -21t-90 -13t-60.5 -7q-141 -27 -141 -254q0 -199 149 -199q76 0 135.5 43t59.5 100z
M635 1167q0 -73 -57.5 -128.5t-131.5 -55.5t-131 55.5t-57 128.5q0 92 64 138q64 49 124 49q59 0 123 -49q66 -48 66 -138zM348 1165q0 -97 23 -136.5t75 -39.5t75.5 40t23.5 136t-21 139.5t-78 43.5t-77.5 -43t-20.5 -140zM285 1323l-4 4l243 260q45 48 57.5 58t39.5 14
q26 0 46.5 -21t20.5 -47q0 -33 -51 -59z" />
    <glyph glyph-name="AEacute" unicode="&#x1fc;" horiz-adv-x="1773" 
d="M379 571h428v777zM1731 387v-387h-1100v8h176v555h-432l-252 -459q-12 -23 -17.5 -35t-11 -29t-1 -24.5t17.5 -7.5h143v-8h-352v8h127q26 0 82 96l690 1254h-174v8h999v-348h-8q0 154 -86 247t-252 93h-262v-653h106q116 0 181 59t65 162h6v-449h-8q0 101 -65 161
t-181 60h-104v-690h268q219 0 327.5 102.5t108.5 276.5h9zM889 1513l-4 5l243 260q44 47 57 57t40 14q29 0 48 -19t19 -48q0 -34 -51 -60z" />
    <glyph glyph-name="aeacute" unicode="&#x1fd;" horiz-adv-x="1413" 
d="M666 207q-51 -150 -146 -191q-45 -19 -80.5 -25.5t-89.5 -6.5q-122 0 -196 52.5t-74 160.5q0 73 27 126.5t73 79.5q80 45 160 54q196 18 229 41q9 10 13 20v156q0 106 -44.5 157.5t-115.5 51.5q-88 0 -88 -92q0 -12 7 -39t7 -35q0 -31 -22.5 -50.5t-63.5 -19.5
q-39 0 -59.5 24.5t-20.5 63.5q0 61 67.5 108.5t172.5 47.5q179 0 256 -133q121 133 307 133q73 1 134.5 -26t102 -70t69 -97.5t41 -108.5t11.5 -104h-598q-2 -10 -2 -51q0 -180 19 -270q21 -87 72 -129q51 -45 151 -45q101 0 188.5 53t145.5 145l6 -4q-61 -94 -150 -148
t-190 -54q-113 0 -195.5 58t-123.5 167zM745 494h435q-6 273 -72 342q-47 47 -123 47q-95 0 -151 -47q-83 -71 -89 -342zM582 190v302q-13 -13 -52.5 -21t-90 -13t-60.5 -7q-141 -27 -141 -254q0 -199 149 -199q97 0 146 42.5t49 149.5zM627 1057l-4 4l243 260
q45 48 57.5 58t39.5 14q28 0 47.5 -20.5t19.5 -47.5q0 -33 -51 -59z" />
    <glyph glyph-name="Oslashacute" unicode="&#x1fe;" horiz-adv-x="1474" 
d="M1378 682q0 -297 -188 -506t-455 -209q-191 0 -350 117l-70 -123l-8 4l72 123q-132 99 -207.5 256t-75.5 338q0 291 183 504q186 213 456 213q183 0 338 -107l68 117l8 -4l-68 -119q137 -97 217 -258t80 -346zM1155 682q0 382 -102 555l-639 -1106q29 -51 71 -82
q83 -74 250 -74q171 0 254 74q84 72 125 213q41 143 41 420zM319 682q0 -389 89 -543l639 1108q-27 46 -58 70q-86 74 -254 74q-164 0 -250 -74q-166 -144 -166 -635zM657 1513l-4 5l244 260q45 48 57 57.5t39 13.5q27 0 47.5 -19.5t20.5 -47.5q0 -34 -51 -60z" />
    <glyph glyph-name="oslashacute" unicode="&#x1ff;" horiz-adv-x="1017" 
d="M936 436q0 -190 -125 -321q-127 -133 -303 -133q-138 0 -242 79l-71 -108l-7 8l70 107q-83 64 -129.5 160.5t-46.5 207.5q0 191 125 322q127 133 301 133q130 0 242 -80l75 115l6 -6l-75 -115q85 -63 132.5 -160t47.5 -209zM772 436q0 213 -49 320l-428 -652
q23 -44 55 -69q51 -45 158 -45q109 0 160 45q55 45 79.5 136t24.5 265zM246 436q0 -228 43 -321l430 649q-17 38 -51 72q-56 47 -160 47q-105 0 -158 -47q-104 -88 -104 -400zM428 1057l-4 4l244 260q51 55 63 62q11 6 33 10q26 0 46.5 -21t20.5 -47q0 -33 -51 -59z" />
    <glyph glyph-name="Scommaaccent" unicode="&#x218;" horiz-adv-x="1079" 
d="M1018 387q0 -145 -129 -283q-128 -137 -344 -137q-79 0 -180 39q-103 41 -144 41q-38 0 -68.5 -23t-35.5 -53h-8v422h8q0 -133 125 -276q127 -142 303 -142q158 0 262 84q102 83 102 187q0 135 -100 213q-101 84 -336 166q-171 60 -250.5 145t-79.5 234q0 155 109 276
q110 119 258 119q52 0 135 -27q83 -24 123 -24q71 0 80 45h8v-316h-8q0 133 -107 221q-107 93 -229 93q-111 0 -195 -78q-81 -75 -81 -176q0 -217 368 -349q228 -80 316 -157q98 -82 98 -244zM657 -223q0 -75 -65 -178q-66 -105 -139 -125l-2 6q28 10 53 31q67 52 67 120
q0 47 -61 90q-41 30 -41 80q0 41 27 69t65 28q44 0 70 -32.5t26 -88.5z" />
    <glyph glyph-name="scommaaccent" unicode="&#x219;" horiz-adv-x="757" 
d="M690 268q0 -132 -74.5 -209t-212.5 -77q-64 0 -129 26q-72 29 -96 29q-23 0 -45 -13t-27 -26h-8v287h8q-3 -117 82 -205q90 -90 215 -90q90 0 142.5 47t52.5 133q0 80 -57 134t-176 93q-128 44 -183 94t-55 138q0 115 69 188.5t169 73.5q18 0 75.5 -10.5t91.5 -10.5
q43 0 43 29h9v-231h-9q0 96 -62 155.5t-148 59.5q-75 0 -118.5 -37.5t-43.5 -104.5q0 -151 229 -221q129 -39 193.5 -100t64.5 -152zM481 -223q0 -75 -65 -178q-66 -105 -140 -125l-2 6q30 10 54 31q67 52 67 120q0 47 -61 90q-41 30 -41 80q0 41 27 69t65 28q44 0 70 -32.5
t26 -88.5z" />
    <glyph glyph-name="dotlessj" unicode="&#x237;" horiz-adv-x="542" 
d="M346 872v-919q0 -328 -76 -465q-73 -137 -231 -137q-75 0 -126.5 37.5t-51.5 97.5q0 38 25.5 66t62.5 28q41 0 63.5 -19t22.5 -50q0 -15 -12.5 -46t-12.5 -49q0 -53 72 -53q102 0 102 242v1259h-125v8h287z" />
    <glyph glyph-name="uni0259" unicode="&#x259;" horiz-adv-x="929" 
d="M436 883q-86 0 -148.5 -59.5t-62.5 -155.5h-8v231h8q0 -29 43 -29q34 0 92 10.5t76 10.5q175 0 293 -133q119 -131 119 -320q0 -192 -119 -323q-118 -133 -293 -133q-73 0 -134.5 27t-102 69t-69 96t-41 106.5t-11.5 100.5v78h600q-2 172 -21.5 255t-68.5 124
q-51 45 -152 45zM588 37q44 35 65 119q23 90 23 127q2 31 2 155v13h-436v-72q0 -268 71 -342q47 -47 123 -47q96 0 152 47z" />
    <glyph glyph-name="circumflex" unicode="&#x2c6;" horiz-adv-x="712" 
d="M356 1221l-260 -183l-2 4q192 226 260 359h4q71 -135 263 -359l-5 -4z" />
    <glyph glyph-name="caron" unicode="&#x2c7;" horiz-adv-x="712" 
d="M94 1397l2 4l260 -182l260 182l5 -4q-192 -224 -263 -359h-4q-68 133 -260 359z" />
    <glyph glyph-name="breve" unicode="&#x2d8;" horiz-adv-x="712" 
d="M98 1366h11q30 -203 247 -203q218 0 248 203h10q-6 -141 -61 -229q-52 -88 -197 -88q-143 0 -198 88q-54 91 -60 229z" />
    <glyph glyph-name="dotaccent" unicode="&#x2d9;" horiz-adv-x="712" 
d="M444 1204q0 -38 -27.5 -66t-64.5 -28t-64.5 28t-27.5 66q0 41 27.5 68.5t64.5 27.5t64.5 -27.5t27.5 -68.5z" />
    <glyph glyph-name="ring" unicode="&#x2da;" horiz-adv-x="712" 
d="M545 1249q0 -73 -57.5 -128.5t-131.5 -55.5t-131 55.5t-57 128.5q0 92 63 137q65 50 125 50q58 0 123 -50q66 -48 66 -137zM258 1247q0 -97 23 -136.5t75 -39.5t75.5 40t23.5 136t-21 139.5t-78 43.5t-77.5 -43t-20.5 -140z" />
    <glyph glyph-name="ogonek" unicode="&#x2db;" horiz-adv-x="712" 
d="M526 -330l4 -4q-94 -76 -186 -76q-74 0 -119 35t-45 101q0 147 269 274h16q-162 -113 -162 -248q0 -53 28.5 -92t84.5 -39q40 0 110 49z" />
    <glyph glyph-name="tilde" unicode="&#x2dc;" horiz-adv-x="712" 
d="M655 1331h7q-2 -18 -17 -69q-11 -37 -59 -91q-46 -49 -117 -49q-59 0 -147 49q-91 48 -129 48q-116 0 -132 -89l-4 -8h-6q17 91 68.5 147t113.5 56q39 0 142 -47q94 -49 139 -49q108 3 141 102z" />
    <glyph glyph-name="hungarumlaut" unicode="&#x2dd;" horiz-adv-x="712" 
d="M66 1057l-5 4l244 260q51 55 63 62t33 10q29 0 48.5 -20.5t19.5 -47.5q0 -33 -51 -59zM311 1057l-4 4l244 260q51 55 63 62q11 6 33 10q29 0 48.5 -20.5t19.5 -47.5q0 -33 -51 -59z" />
    <glyph glyph-name="Alpha" unicode="&#x391;" horiz-adv-x="1294" 
d="M1350 8v-8h-605v8h199l-172 465h-473l-143 -385q-12 -35 -14.5 -52t2.5 -22.5t20 -5.5h153v-8h-364v8h137q30 0 57 80l480 1305h10l534 -1385h179zM301 481h467l-231 639z" />
    <glyph glyph-name="Beta" unicode="&#x392;" horiz-adv-x="1271" 
d="M1188 362q0 -147 -121 -256q-118 -106 -340 -106h-651v8h184v1350h-184v8h555q192 0 323 -82t131 -233q0 -135 -124 -228q-125 -94 -273 -94q215 0 356 -100q144 -99 144 -267zM881 1042q0 170 -65.5 243t-215.5 73h-129v-625h195q114 0 164.5 70t50.5 239zM981 350
q0 218 -86 295q-83 80 -250 80h-174v-717h201q309 0 309 342z" />
    <glyph glyph-name="Gamma" unicode="&#x393;" horiz-adv-x="1081" 
d="M1042 1366v-405h-8q0 186 -98.5 291.5t-296.5 105.5h-168v-1350h225v-8h-620v8h184v1350h-184v8h966z" />
    <glyph glyph-name="Epsilon" unicode="&#x395;" 
d="M1186 387v-387h-1110v8h186v1350h-186v8h1005v-348h-8q0 154 -86 247t-252 93h-262v-653h102q118 0 183 59t65 162h8v-449h-8q0 101 -65 161t-180 60h-105v-690h266q219 0 329 103t110 276h8z" />
    <glyph glyph-name="Zeta" unicode="&#x396;" horiz-adv-x="1241" 
d="M176 1366h971l-811 -1358h403q187 0 293 115q105 117 105 291h8v-414h-1045l809 1358h-338q-185 0 -286 -108t-101 -289h-8v405z" />
    <glyph glyph-name="Eta" unicode="&#x397;" horiz-adv-x="1533" 
d="M1458 8v-8h-561v8h164v699h-592v-699h168v-8h-561v8h184v1350h-184v8h561v-8h-168v-643h592v643h-164v8h561v-8h-186v-1350h186z" />
    <glyph glyph-name="Iota" unicode="&#x399;" horiz-adv-x="731" 
d="M659 8v-8h-583v8h186v1350h-186v8h583v-8h-188v-1350h188z" />
    <glyph glyph-name="Kappa" unicode="&#x39a;" horiz-adv-x="1275" 
d="M1454 8v-8h-666v8h209l-526 668v-668h184v-8h-579v8h184v1350h-184v8h579v-8h-184v-670l518 590q60 69 45 78q-2 2 -18 2h-154v8h389v-8h-137q-47 0 -115 -80l-397 -455l662 -815h190z" />
    <glyph glyph-name="Lambda" unicode="&#x39b;" horiz-adv-x="1357" 
d="M-72 0v8h150q18 0 29.5 15t29.5 65l465 1307h8l615 -1387h188v-8h-641v8h221l-479 1114l-367 -1034q-13 -35 -14 -53.5t5 -22.5t20 -4h161v-8h-391z" />
    <glyph glyph-name="Mu" unicode="&#x39c;" horiz-adv-x="1712" 
d="M768 -25l-508 1373v-1246q0 -94 33 -94h153v-8h-383v8h160q29 0 29 94v1256h-186v8h407l399 -1071l365 1071h399v-8h-184v-1350h184v-8h-581v8h186v1340l-463 -1373h-10z" />
    <glyph glyph-name="Nu" unicode="&#x39d;" horiz-adv-x="1433" 
d="M1184 -25l-924 1373v-1246q0 -94 33 -94h153v-8h-383v8h160q29 0 29 94v1256h-186v8h432l688 -1026v924q0 94 -33 94h-156v8h383v-8h-157q-29 0 -29 -94v-1289h-10z" />
    <glyph glyph-name="Omicron" unicode="&#x39f;" horiz-adv-x="1474" 
d="M735 -33q-264 0 -452 209q-187 208 -187 506q0 291 183 504q186 213 456 213q268 0 455 -211q188 -209 188 -506t-188 -506t-455 -209zM1155 682q0 488 -166 635q-86 74 -254 74q-164 0 -250 -74q-166 -144 -166 -635q0 -284 39 -420q41 -139 127 -213q83 -74 250 -74
q171 0 254 74q84 72 125 213q41 143 41 420z" />
    <glyph glyph-name="Pi" unicode="&#x3a0;" horiz-adv-x="1533" 
d="M1460 8v-8h-563v8h166v1350h-592v-1350h168v-8h-563v8h186v1350h-186v8h1384v-8h-186v-1350h186z" />
    <glyph glyph-name="Rho" unicode="&#x3a1;" horiz-adv-x="1261" 
d="M1204 934q0 -172 -145 -287q-141 -112 -375 -112q-121 0 -211 22v-549h186v-8h-583v8h186v1350h-186v8h581q257 0 400 -125q147 -123 147 -307zM995 934q0 198 -93 311t-243 113h-186v-787q70 -28 209 -28q149 0 231 98.5t82 292.5z" />
    <glyph glyph-name="Tau" unicode="&#x3a4;" horiz-adv-x="1206" 
d="M1167 1366v-405h-8q0 186 -98 291.5t-295 105.5h-61v-1350h186v-8h-582v8h185v1350h-60q-197 0 -292 -104t-95 -293h-8v405h1128z" />
    <glyph glyph-name="Upsilon" unicode="&#x3a5;" horiz-adv-x="1236" 
d="M1286 1366v-8h-135q-20 0 -35 -15.5t-39 -64.5l-309 -649v-621h186v-8h-583v8h188v588l-401 762h-191v8h647v-8h-219l369 -715l301 635q16 35 20 54t1 22.5t-11 3.5h-180v8h391z" />
    <glyph glyph-name="Phi" unicode="&#x3a6;" horiz-adv-x="1634" 
d="M1556 682q0 -235 -128.5 -334.5t-395.5 -99.5h-102v-240h166v-8h-557v8h166v240h-103q-267 0 -395.5 99.5t-128.5 334.5q0 240 131.5 349.5t392.5 109.5h103v217h-166v8h557v-8h-166v-217h102q261 0 392.5 -109.5t131.5 -349.5zM1350 682q0 451 -336 451h-84v-879h84
q336 0 336 428zM621 254h84v879h-84q-336 0 -336 -451q0 -428 336 -428z" />
    <glyph glyph-name="Chi" unicode="&#x3a7;" horiz-adv-x="1325" 
d="M1393 8v-8h-637v8h209l-342 604l-324 -524q-47 -77 -10 -80h151v-8h-389v8h148q36 0 86 80l331 535l-426 735h-190v8h637v-8h-211l307 -539l281 459q47 77 14 80h-160v8h392v-8h-148q-31 0 -84 -80l-291 -469l463 -801h193z" />
    <glyph glyph-name="pi" unicode="&#x3c0;" horiz-adv-x="1062" 
d="M911 864h-18v-856h125v-8h-410v8h125v856h-397v-856h125v-8h-410v8h125v856h-49q-62 0 -88.5 -24t-30.5 -86h-8q5 69 33.5 93.5t107.5 24.5h781q76 0 101.5 13.5t31.5 62.5h8q0 -54 -32.5 -69t-119.5 -15z" />
    <glyph glyph-name="afii10023" unicode="&#x401;" 
d="M1186 387v-387h-1110v8h186v1350h-186v8h1005v-348h-8q0 154 -86 247t-252 93h-262v-653h102q118 0 183 59t65 162h8v-449h-8q0 101 -65 161t-180 60h-105v-690h266q219 0 329 103t110 276h8zM471 1536q-41 0 -70.5 31t-29.5 75t29.5 75.5t70.5 31.5q43 0 72.5 -31.5
t29.5 -75.5t-29.5 -75t-72.5 -31zM846 1536q-41 0 -71 31t-30 75t30 75.5t71 31.5q43 0 72.5 -31.5t29.5 -75.5t-29.5 -75t-72.5 -31z" />
    <glyph glyph-name="afii10051" unicode="&#x402;" horiz-adv-x="1488" 
d="M1028 -14q-111 0 -182 65q-70 64 -70 148q0 60 32.5 93.5t88.5 33.5q44 0 70 -26.5t26 -68.5q0 -14 -2 -18q-6 -45 -41 -72q-32 -25 -32 -65q0 -84 110 -84q195 0 195 430q0 192 -70 272t-221 80q-141 0 -232 -39v-735h-395v8h184v1350h-55q-196 0 -291.5 -105
t-95.5 -292h-8v405h1130v-405h-8q0 186 -99 291.5t-296 105.5h-66v-615q98 39 232 39q231 0 365.5 -100t134.5 -268q0 -200 -109 -314t-295 -114z" />
    <glyph glyph-name="afii10052" unicode="&#x403;" horiz-adv-x="1081" 
d="M883 1737q0 51 -52 51q-45 0 -98 -123q-22 -52 -74.5 -99t-119.5 -63v-6q344 83 344 240zM524 1460l-4 4l244 260q51 55 63 62q11 6 33 10q29 0 48.5 -19t19.5 -48q0 -34 -51 -60zM1042 1366v-405h-8q0 186 -98.5 291.5t-296.5 105.5h-168v-1350h225v-8h-620v8h184v1350
h-184v8h966z" />
    <glyph glyph-name="afii10053" unicode="&#x404;" horiz-adv-x="1269" 
d="M1176 410v-439h-9q-5 22 -29.5 40t-58.5 18q-37 0 -155 -31t-179 -31q-275 0 -462 211t-187 504q0 291 183 504q186 213 456 213q50 0 152 -27q102 -24 145 -24q39 0 66 13.5t32 31.5h9v-381h-9q0 145 -124 260q-122 119 -271 119q-167 0 -250 -74q-162 -137 -168 -602
h521v-8h-521v-25q0 -490 168 -633q83 -74 260 -74q182 0 302 123t120 312h9z" />
    <glyph glyph-name="afii10054" unicode="&#x405;" horiz-adv-x="1079" 
d="M1018 387q0 -145 -129 -283q-128 -137 -344 -137q-79 0 -180 39q-103 41 -144 41q-38 0 -68.5 -23t-35.5 -53h-8v422h8q0 -133 125 -276q127 -142 303 -142q158 0 262 84q102 83 102 187q0 135 -100 213q-101 84 -336 166q-171 60 -250.5 145t-79.5 234q0 155 109 276
q110 119 258 119q52 0 135 -27q83 -24 123 -24q71 0 80 45h8v-316h-8q0 133 -107 221q-107 93 -229 93q-111 0 -195 -78q-81 -75 -81 -176q0 -217 368 -349q228 -80 316 -157q98 -82 98 -244z" />
    <glyph glyph-name="afii10055" unicode="&#x406;" horiz-adv-x="776" 
d="M700 8v-8h-620v8h199v1436h-199v8h620v-8h-200v-1436h200z" />
    <glyph glyph-name="afii10056" unicode="&#x407;" horiz-adv-x="731" 
d="M700 8v-8h-620v8h199v1436h-199v8h620v-8h-200v-1436h200zM199 1536q-41 0 -71 31t-30 75t30 75.5t71 31.5q43 0 72.5 -31.5t29.5 -75.5t-29.5 -75t-72.5 -31zM573 1536q-41 0 -70.5 31t-29.5 75t29.5 75.5t70.5 31.5q43 0 73 -31.5t30 -75.5t-30 -75t-73 -31z" />
    <glyph glyph-name="afii10057" unicode="&#x408;" horiz-adv-x="911" 
d="M326 -33q-132 0 -209 74q-76 73 -76 162q0 60 32.5 93.5t88.5 33.5q44 0 70 -26t26 -68q0 -37 -39 -82q-37 -43 -37 -74q0 -47 35.5 -77t108.5 -30q70 0 116.5 42.5t46.5 115.5v1227h-184v8h582v-8h-185v-1036q0 -169 -97 -262t-279 -93z" />
    <glyph glyph-name="afii10058" unicode="&#x409;" horiz-adv-x="1837" 
d="M1571 385q0 186 -85.5 289.5t-228.5 103.5h-180v-770h156q152 0 245 99t93 278zM221 1358v8h1041v-8h-185v-572h180q129 0 244 -41t197 -135t82 -225q0 -385 -547 -385h-592v8h223v1350h-385q-35 0 -44 -19t-9 -86v-542q0 -263 -24 -416.5t-93 -247.5q-45 -63 -127 -63
q-71 0 -121.5 47t-50.5 119q0 56 32 92.5t85 36.5q47 0 78 -28.5t31 -70.5q0 -41 -33 -80t-33 -57q0 -39 45 -39q54 0 88 49q68 94 91.5 246t23.5 412v538q0 75 -6.5 89t-46.5 20h-144z" />
    <glyph glyph-name="afii10059" unicode="&#x40a;" horiz-adv-x="2033" 
d="M1976 385q0 -385 -546 -385h-531v8h164v770h-592v-770h168v-8h-561v8h184v1350h-184v8h561v-8h-168v-572h592v572h-164v8h559v-8h-184v-572h180q129 0 244 -41q113 -40 196 -135q82 -94 82 -225zM1767 385q0 186 -85 289.5t-228 103.5h-180v-770h156q152 0 244.5 99
t92.5 278z" />
    <glyph glyph-name="afii10060" unicode="&#x40b;" horiz-adv-x="1642" 
d="M1604 8v-8h-545v8h168v432q0 204 -56 269q-52 67 -194 67q-153 0 -272 -51v-717h186v-8h-582v8h185v1350h-15q-196 0 -291.5 -105t-95.5 -292h-8v405h1130v-405h-8q0 186 -99 291.5t-296 105.5h-106v-623q131 49 272 49q240 0 349.5 -80.5t109.5 -263.5v-432h168z" />
    <glyph glyph-name="afii10061" unicode="&#x40c;" horiz-adv-x="1378" 
d="M963 1737q0 51 -52 51q-45 0 -98 -123q-22 -52 -75 -99t-120 -63v-6q345 83 345 240zM604 1460l-4 4l244 260q51 55 63 62q11 6 33 10q27 0 47.5 -19.5t20.5 -47.5q0 -33 -52 -60zM1346 61l6 -6q-67 -67 -185 -67q-282 0 -282 374v105q0 118 -83.5 179t-228.5 61h-102
v-699h166v-8h-561v8h184v1350h-184v8h561v-8h-166v-643h115q105 0 157 98q16 29 25 109q1 6 8 96q6 82 12 117q7 44 29 97.5t51 82.5q63 63 160 63q65 0 110.5 -40t45.5 -109q0 -53 -31.5 -87t-79.5 -34t-78 30.5t-30 73.5q0 28 24 68q27 40 27 49q0 29 -37 29
q-56 0 -105 -49q-28 -28 -49 -81t-28 -98q-1 -11 -5 -48.5t-6 -65.5q-7 -89 -8 -94q-13 -95 -26 -113q-37 -70 -113 -94q465 0 465 -377v-154q0 -76 34 -128t87 -52q64 0 121 57z" />
    <glyph glyph-name="afii10062" unicode="&#x40e;" horiz-adv-x="1310" 
d="M1350 1366v-8h-138q-23 0 -35 -14t-36 -66l-512 -1149q-31 -67 -89.5 -111.5t-127.5 -44.5q-111 0 -183 66q-69 63 -69 147q0 60 32.5 93.5t88.5 33.5q44 0 70 -26t26 -68q0 -14 -2 -18q-6 -45 -41 -72q-33 -26 -33 -66q0 -83 111 -83q63 0 120.5 42.5t88.5 110.5l63 141
l-518 1084h-184v8h634v-8h-219l383 -864l350 784q35 80 -12 80h-157v8h389zM1024 1636q3 -69 -47 -116t-123.5 -58t-146.5 0t-123 58t-47 116q0 40 23.5 65t66.5 25q32 0 52.5 -18t20.5 -49q0 -16 -6.5 -30t-15 -21.5t-20.5 -19t-19 -19.5q-12 -18 -12 -37q0 -31 47.5 -50.5
t105.5 -19.5t106 19.5t48 50.5q0 19 -12 37q-7 9 -25 24t-27.5 30t-9.5 36q0 31 21 49t53 18q43 0 66.5 -25t23.5 -65z" />
    <glyph glyph-name="afii10145" unicode="&#x40f;" horiz-adv-x="1533" 
d="M760 -23v23h-684v8h184v1350h-184v8h561v-8h-166v-1350h590v1350h-164v8h561v-8h-184v-1350h184v-8h-690v-20q0 -72 51 -138q95 -119 23 -194q-24 -25 -56.5 -30.5t-60.5 7t-48 40.5t-20 63q0 45 52 112q51 63 51 137z" />
    <glyph glyph-name="afii10017" unicode="&#x410;" horiz-adv-x="1294" 
d="M1350 8v-8h-605v8h199l-172 465h-473l-143 -385q-12 -35 -14.5 -52t2.5 -22.5t20 -5.5h153v-8h-364v8h137q30 0 57 80l480 1305h10l534 -1385h179zM301 481h467l-231 639z" />
    <glyph glyph-name="afii10018" unicode="&#x411;" horiz-adv-x="1271" 
d="M1176 406q0 -175 -146 -291q-145 -115 -399 -115h-555v8h186v1350h-186v8h1005v-348h-8q0 154 -86 247t-252 93h-262v-572h180q234 0 377 -104q146 -106 146 -276zM965 406h2q0 182 -83 277t-229 95h-182v-770h156q145 0 239 107q97 111 97 291z" />
    <glyph glyph-name="afii10019" unicode="&#x412;" horiz-adv-x="1271" 
d="M1188 362q0 -147 -121 -256q-118 -106 -340 -106h-651v8h184v1350h-184v8h555q192 0 323 -82t131 -233q0 -135 -124 -228q-125 -94 -273 -94q215 0 356 -100q144 -99 144 -267zM881 1042q0 170 -65.5 243t-215.5 73h-129v-625h195q114 0 164.5 70t50.5 239zM981 350
q0 218 -86 295q-83 80 -250 80h-174v-717h201q309 0 309 342z" />
    <glyph glyph-name="afii10020" unicode="&#x413;" horiz-adv-x="1081" 
d="M1042 1366v-405h-8q0 186 -98.5 291.5t-296.5 105.5h-168v-1350h225v-8h-620v8h184v1350h-184v8h966z" />
    <glyph glyph-name="afii10021" unicode="&#x414;" horiz-adv-x="1333" 
d="M1280 8v-393h-8q0 180 -101 282.5t-305 102.5h-415q-204 0 -304 -102.5t-100 -282.5h-8v393h160q53 50 92.5 135.5t60.5 175.5q22 88 31 218q10 153 10 213q2 51 2 223v57v246q0 51 -7.5 66.5t-27.5 15.5h-149v8h1046v-8h-184v-1350h207zM211 8h651v1350h-416
q-27 0 -35 -14t-8 -68v-246v-57q0 -145 -4 -281q-3 -101 -18 -254q-34 -297 -170 -430z" />
    <glyph glyph-name="afii10022" unicode="&#x415;" 
d="M1186 387v-387h-1110v8h186v1350h-186v8h1005v-348h-8q0 154 -86 247t-252 93h-262v-653h102q118 0 183 59t65 162h8v-449h-8q0 101 -65 161t-180 60h-105v-690h266q219 0 329 103t110 276h8z" />
    <glyph glyph-name="afii10024" unicode="&#x416;" horiz-adv-x="1986" 
d="M1266 0h-545v8h168v699h-86q-145 0 -227 -60.5t-82 -179.5v-105q0 -374 -285 -374q-117 0 -184 67l6 6q51 -57 123 -57q53 0 85.5 51.5t32.5 128.5v154q0 377 465 377q-69 20 -112 94q-14 20 -27 113q0 3 -8 96q-6 69 -12 112q-5 46 -25.5 98t-50.5 81q-49 49 -103 49
q-37 0 -37 -29q0 -7 25 -49t25 -68q0 -42 -30.5 -73t-76.5 -31q-49 0 -79.5 33.5t-30.5 87.5q0 70 45 109.5t110 39.5q98 0 158 -63q29 -29 51 -82.5t29 -97.5q6 -35 12 -117q7 -90 8 -96q12 -83 25 -109q52 -98 160 -98h96v643h-168v8h545v-8h-168v-643h96q108 0 160 98
q11 23 24 109q1 6 8 96q5 73 13 117q7 44 29 97.5t51 82.5q60 63 157 63q65 0 110.5 -39.5t45.5 -109.5q0 -54 -30.5 -87.5t-80.5 -33.5q-46 0 -76 31t-30 73q0 28 24 68q25 42 25 49q0 29 -37 29q-53 0 -102 -49q-30 -28 -50.5 -80t-27.5 -99q-1 -13 -4.5 -50t-5.5 -62
q-8 -93 -8 -96q-13 -93 -27 -113q-42 -74 -113 -94q465 0 465 -377v-154q0 -77 33 -128.5t86 -51.5q72 0 123 57l6 -6q-67 -67 -184 -67q-285 0 -285 374v105q0 119 -82 179.5t-227 60.5h-86v-699h168v-8z" />
    <glyph glyph-name="afii10025" unicode="&#x417;" horiz-adv-x="1130" 
d="M1047 387q0 -144 -123 -276q-62 -65 -171.5 -104.5t-244.5 -39.5q-197 0 -301 88q-105 89 -105 189q0 59 36.5 101t94.5 42q45 0 76 -27.5t31 -70.5q0 -32 -12.5 -53.5t-30 -31.5t-34.5 -18t-29.5 -20t-12.5 -31t25 -55q30 -40 101.5 -72.5t160.5 -32.5q165 0 247.5 95
t82.5 301q0 216 -47 284q-46 70 -193 70h-176v8h194q113 0 156 66.5t43 242.5q0 182 -60 265.5t-200 83.5q-141 0 -244 -86q-102 -83 -102 -230h-8v318h8q9 -45 80 -45q25 0 114 24q89 27 154 27q201 0 319.5 -94t118.5 -254q0 -122 -112 -222t-254 -100q200 0 307 -98
q111 -99 111 -244z" />
    <glyph glyph-name="afii10026" unicode="&#x418;" horiz-adv-x="1533" 
d="M1460 8v-8h-563v8h166v1211l-592 -1067v-144h168v-8h-563v8h186v1350h-186v8h563v-8h-168v-1190l592 1065v125h-166v8h563v-8h-186v-1350h186z" />
    <glyph glyph-name="afii10027" unicode="&#x419;" horiz-adv-x="1533" 
d="M1460 8v-8h-563v8h166v1211l-592 -1067v-144h168v-8h-563v8h186v1350h-186v8h563v-8h-168v-1190l592 1065v125h-166v8h563v-8h-186v-1350h186zM1018 1636q3 -69 -47 -116t-123.5 -58t-147 0t-123.5 58t-47 116q0 40 24 65t67 25q32 0 52.5 -18t20.5 -49q0 -16 -6.5 -30
t-15 -21.5t-20.5 -19t-19 -19.5q-12 -18 -12 -37q0 -31 47.5 -50.5t105.5 -19.5t106 19.5t48 50.5q0 18 -13 37q-7 8 -19 19.5t-20.5 19t-15 21.5t-6.5 30q0 31 21 49t53 18q43 0 66.5 -25t23.5 -65z" />
    <glyph glyph-name="afii10028" unicode="&#x41a;" horiz-adv-x="1378" 
d="M1346 61l6 -6q-67 -67 -185 -67q-282 0 -282 374v105q0 118 -83.5 179t-228.5 61h-102v-699h166v-8h-561v8h184v1350h-184v8h561v-8h-166v-643h115q105 0 157 98q16 29 25 109q1 6 8 96q6 82 12 117q7 44 29 97.5t51 82.5q63 63 160 63q65 0 110.5 -40t45.5 -109
q0 -53 -31.5 -87t-79.5 -34t-78 30.5t-30 73.5q0 28 24 68q27 40 27 49q0 29 -37 29q-56 0 -105 -49q-28 -28 -49 -81t-28 -98q-1 -11 -5 -48.5t-6 -65.5q-7 -89 -8 -94q-13 -95 -26 -113q-37 -70 -113 -94q465 0 465 -377v-154q0 -76 34 -128t87 -52q64 0 121 57z" />
    <glyph glyph-name="afii10029" unicode="&#x41b;" horiz-adv-x="1353" 
d="M1260 8v-8h-621v8h225v1350h-385q-35 0 -44 -19t-9 -86v-542q0 -263 -24 -416.5t-93 -247.5q-45 -63 -127 -63q-71 0 -121.5 47t-50.5 119q0 56 32 92.5t85 36.5q47 0 78 -28.5t31 -70.5q0 -41 -33 -80t-33 -57q0 -39 45 -39q54 0 88 49q68 94 91.5 246t23.5 412v538
q0 75 -6.5 89t-46.5 20h-144v8h1039v-8h-185v-1350h185z" />
    <glyph glyph-name="afii10030" unicode="&#x41c;" horiz-adv-x="1712" 
d="M768 -25l-508 1373v-1246q0 -94 33 -94h153v-8h-383v8h160q29 0 29 94v1256h-186v8h407l399 -1071l365 1071h399v-8h-184v-1350h184v-8h-581v8h186v1340l-463 -1373h-10z" />
    <glyph glyph-name="afii10031" unicode="&#x41d;" horiz-adv-x="1533" 
d="M1458 8v-8h-561v8h164v699h-592v-699h168v-8h-561v8h184v1350h-184v8h561v-8h-168v-643h592v643h-164v8h561v-8h-186v-1350h186z" />
    <glyph glyph-name="afii10032" unicode="&#x41e;" horiz-adv-x="1474" 
d="M735 -33q-264 0 -452 209q-187 208 -187 506q0 291 183 504q186 213 456 213q268 0 455 -211q188 -209 188 -506t-188 -506t-455 -209zM1155 682q0 488 -166 635q-86 74 -254 74q-164 0 -250 -74q-166 -144 -166 -635q0 -284 39 -420q41 -139 127 -213q83 -74 250 -74
q171 0 254 74q84 72 125 213q41 143 41 420z" />
    <glyph glyph-name="afii10033" unicode="&#x41f;" horiz-adv-x="1533" 
d="M1460 8v-8h-563v8h166v1350h-592v-1350h168v-8h-563v8h186v1350h-186v8h1384v-8h-186v-1350h186z" />
    <glyph glyph-name="afii10034" unicode="&#x420;" horiz-adv-x="1261" 
d="M1204 934q0 -172 -145 -287q-141 -112 -375 -112q-121 0 -211 22v-549h186v-8h-583v8h186v1350h-186v8h581q257 0 400 -125q147 -123 147 -307zM995 934q0 198 -93 311t-243 113h-186v-787q70 -28 209 -28q149 0 231 98.5t82 292.5z" />
    <glyph glyph-name="afii10035" unicode="&#x421;" horiz-adv-x="1269" 
d="M1176 410v-439h-9q-5 22 -29.5 40t-58.5 18q-37 0 -155 -31t-179 -31q-275 0 -462 211t-187 504q0 291 183 504q186 213 456 213q50 0 152 -27q102 -24 145 -24q39 0 66 13.5t32 31.5h9v-381h-9q0 145 -124 260q-122 119 -271 119q-167 0 -250 -74q-168 -143 -168 -635
q0 -490 168 -633q83 -74 260 -74q182 0 302 123t120 312h9z" />
    <glyph glyph-name="afii10036" unicode="&#x422;" horiz-adv-x="1206" 
d="M1167 1366v-405h-8q0 186 -98 291.5t-295 105.5h-61v-1350h186v-8h-582v8h185v1350h-60q-197 0 -292 -104t-95 -293h-8v405h1128z" />
    <glyph glyph-name="afii10037" unicode="&#x423;" horiz-adv-x="1310" 
d="M1350 1366v-8h-138q-23 0 -35 -14t-36 -66l-512 -1149q-31 -67 -89.5 -111.5t-127.5 -44.5q-111 0 -183 66q-69 63 -69 147q0 60 32.5 93.5t88.5 33.5q44 0 70 -26t26 -68q0 -14 -2 -18q-6 -45 -41 -72q-33 -26 -33 -66q0 -83 111 -83q63 0 120.5 42.5t88.5 110.5l63 141
l-518 1084h-184v8h634v-8h-219l383 -864l350 784q35 80 -12 80h-157v8h389z" />
    <glyph glyph-name="afii10038" unicode="&#x424;" horiz-adv-x="1634" 
d="M1556 682q0 -252 -140.5 -394.5t-383.5 -142.5h-102v-137h166v-8h-557v8h166v137h-103q-243 0 -383.5 142.5t-140.5 394.5q0 255 140.5 398t383.5 143h103v135h-166v8h557v-8h-166v-135h102q243 0 383.5 -143t140.5 -398zM1014 1214h-84v-1062h84q92 0 162 48.5
t106 131.5q68 163 68 350q0 190 -68 348q-36 86 -106 135t-162 49zM621 152h84v1062h-84q-93 0 -163 -49t-106 -135q-67 -155 -67 -348q0 -189 67 -350q36 -83 106.5 -131.5t162.5 -48.5z" />
    <glyph glyph-name="afii10039" unicode="&#x425;" horiz-adv-x="1325" 
d="M1393 8v-8h-637v8h209l-342 604l-324 -524q-47 -77 -10 -80h151v-8h-389v8h148q36 0 86 80l331 535l-426 735h-190v8h637v-8h-211l307 -539l281 459q47 77 14 80h-160v8h392v-8h-148q-31 0 -84 -80l-291 -469l463 -801h193z" />
    <glyph glyph-name="afii10040" unicode="&#x426;" horiz-adv-x="1533" 
d="M1481 8v-393h-8q0 180 -101 282.5t-305 102.5h-991v8h184v1350h-184v8h561v-8h-166v-1350h590v1350h-164v8h561v-8h-184v-1350h207z" />
    <glyph glyph-name="afii10041" unicode="&#x427;" horiz-adv-x="1411" 
d="M1335 8v-8h-620v8h223v639q-54 -20 -125 -35q-88 -16 -143 -16q-229 0 -345 76.5t-116 249.5v436h-168v8h545v-8h-170v-531q0 -131 55.5 -177t198.5 -46q48 0 145 17q85 18 123 36v701h-166v8h563v-8h-184v-1350h184z" />
    <glyph glyph-name="afii10042" unicode="&#x428;" horiz-adv-x="2127" 
d="M2052 8v-8h-1974v8h184v1350h-184v8h543v-8h-150v-1350h487v1350h-165v8h563v-8h-189v-1350h488v1350h-146v8h543v-8h-186v-1350h186z" />
    <glyph glyph-name="afii10043" unicode="&#x429;" horiz-adv-x="2127" 
d="M2073 8v-393h-9q0 180 -100.5 282.5t-304.5 102.5h-1581v8h184v1350h-184v8h543v-8h-150v-1350h487v1350h-165v8h563v-8h-189v-1350h488v1350h-146v8h543v-8h-186v-1350h207z" />
    <glyph glyph-name="afii10044" unicode="&#x42a;" horiz-adv-x="1386" 
d="M1327 385q0 -190 -139 -287.5t-406 -97.5h-553v8h185v1350h-11q-50 0 -96 -10.5t-92.5 -37.5t-80.5 -68.5t-55.5 -109t-21.5 -153.5h-8v387h762v-8h-184v-572h180q231 0 375 -114q145 -115 145 -287zM1120 385q0 186 -85 289.5t-228 103.5h-180v-770h155q150 0 244 100.5
t94 276.5z" />
    <glyph glyph-name="afii10045" unicode="&#x42b;" horiz-adv-x="1832" 
d="M1755 8v-8h-581v8h184v1350h-184v8h581v-8h-186v-1350h186zM1174 385q0 -385 -545 -385h-553v8h184v1350h-184v8h581v-8h-184v-572h180q127 0 242 -41t197 -135t82 -225zM965 385q0 186 -84.5 289.5t-227.5 103.5h-180v-770h156q150 0 243 100.5t93 276.5z" />
    <glyph glyph-name="afii10046" unicode="&#x42c;" horiz-adv-x="1230" 
d="M1174 385q0 -385 -545 -385h-553v8h184v1350h-184v8h581v-8h-184v-572h180q127 0 242 -41t197 -135t82 -225zM965 385q0 186 -84.5 289.5t-227.5 103.5h-180v-770h156q150 0 243 100.5t93 276.5z" />
    <glyph glyph-name="afii10047" unicode="&#x42d;" horiz-adv-x="1269" 
d="M1174 682q0 -291 -189 -504q-187 -211 -461 -211q-197 0 -291 88q-96 90 -96 191q0 59 36.5 101t94.5 42q45 0 76 -27.5t31 -70.5q0 -32 -12.5 -53.5t-30 -31.5t-34.5 -18t-29.5 -20t-12.5 -31q0 -15 13 -39t40.5 -53t84 -49.5t130.5 -20.5q177 0 260 74q168 143 168 633
v25h-520v8h520q-6 465 -168 602q-83 74 -229 74q-143 0 -254 -117t-111 -262h-8v381h6q5 -18 33.5 -31.5t65.5 -13.5q45 0 131 24q89 27 137 27q269 0 444 -211t175 -506z" />
    <glyph glyph-name="afii10048" unicode="&#x42e;" horiz-adv-x="1994" 
d="M1294 -33q-231 0 -415 211q-185 212 -185 504v25h-223v-699h168v-8h-561v8h184v1350h-184v8h561v-8h-168v-643h223q9 275 189 479q181 205 411 205q234 0 420 -213q184 -211 184 -504t-184 -504q-181 -211 -420 -211zM1675 682q0 91 -6 164q-13 217 -57 311
q-46 109 -121 171.5t-197 62.5q-217 0 -313 -236q-26 -61 -41 -149q-22 -158 -22 -324q0 -128 6 -210t28 -177q32 -150 114 -232t228 -88q124 0 200 61t122 169q27 65 39 151q20 146 20 326z" />
    <glyph glyph-name="afii10049" unicode="&#x42f;" horiz-adv-x="1339" 
d="M1264 8v-8h-635v8h237v662h-139q-156 0 -226.5 -44.5t-70.5 -158.5v-109q0 -374 -283 -374q-117 0 -184 67l6 6q60 -57 121 -57q54 0 87.5 51.5t33.5 128.5v158q0 160 106.5 247t311.5 87q-188 0 -312 92q-122 94 -122 248q0 162 127.5 258t343.5 96h598v-8h-187v-1350
h187zM670 676h196v682h-151q-145 0 -226 -90t-81 -264q0 -183 58 -255.5t204 -72.5z" />
    <glyph glyph-name="afii10065" unicode="&#x430;" horiz-adv-x="894" 
d="M870 63l7 -2q-8 -32 -46 -54.5t-90 -22.5q-125 0 -149 131q-18 -61 -85.5 -96t-156.5 -35q-122 0 -196 52.5t-74 160.5q0 73 27 126.5t73 79.5q80 45 160 54q196 18 229 41q9 10 13 20v156q0 106 -44.5 157.5t-115.5 51.5q-88 0 -88 -92q0 -12 7 -39t7 -35
q0 -31 -22.5 -50.5t-63.5 -19.5q-39 0 -59.5 24.5t-20.5 63.5q0 61 67.5 108.5t172.5 47.5q321 0 321 -371v-440q0 -68 54 -68q24 0 44.5 15.5t28.5 35.5zM582 141v351q-13 -13 -52.5 -21t-90 -13t-60.5 -7q-141 -27 -141 -254q0 -199 149 -199q76 0 135.5 43t59.5 100z" />
    <glyph glyph-name="afii10066" unicode="&#x431;" horiz-adv-x="1017" 
d="M936 430q0 -186 -121 -319q-120 -129 -297 -129q-191 0 -303.5 128t-112.5 367q0 368 39 512q41 157 138 256q139 145 466 166q140 9 146 94h8q0 -21 -6 -45q0 -13 -8 -45q-27 -79 -58 -104q-67 -60 -276 -72q-83 -2 -175 -33.5t-151 -89.5q-58 -57 -81.5 -187.5
t-30.5 -365.5h4q42 142 151 229t250 87q177 0 297 -129q121 -130 121 -320zM772 430q0 99 -7.5 161.5t-31.5 131.5q-47 147 -215 147q-85 0 -133.5 -37.5t-81.5 -107.5q-15 -38 -24 -92q-13 -96 -13 -203q0 -99 7.5 -162t29.5 -133q47 -147 215 -147t215 147q24 69 31.5 132
t7.5 163z" />
    <glyph glyph-name="afii10067" unicode="&#x432;" horiz-adv-x="890" 
d="M809 231q0 -98 -78 -164.5t-213 -66.5h-487v8h125v856h-125v8h440q129 0 210 -53.5t81 -148.5q0 -79 -72 -142q-72 -60 -164 -63q283 -21 283 -234zM621 666q0 111 -34.5 154.5t-127.5 43.5h-144v-395h185q70 0 95.5 41t25.5 156zM651 223q0 147 -33 191q-35 47 -131 47
h-172v-453h174q162 0 162 215z" />
    <glyph glyph-name="afii10068" unicode="&#x433;" horiz-adv-x="753" 
d="M733 872v-307h-8q0 114 -84 207q-83 92 -211 92h-113v-856h166v-8h-452v8h125v856h-125v8h702z" />
    <glyph glyph-name="afii10069" unicode="&#x434;" horiz-adv-x="888" 
d="M858 8v-301h-8q0 132 -58 212.5t-180 80.5h-356q-122 0 -180 -80.5t-58 -212.5h-8v301h92q72 78 115 246q45 164 45 371v145q0 62 -9 78t-42 16h-76v8h723v-8h-125v-856h125zM113 8h458v856h-256q-27 0 -36 -17t-9 -77v-145q0 -201 -43 -369q-40 -168 -114 -248z" />
    <glyph glyph-name="afii10070" unicode="&#x435;" horiz-adv-x="921" 
d="M852 492v-7h-598q-2 -10 -2 -51q0 -184 18 -270q21 -87 72 -129q51 -45 152 -45t188 53t145 145l7 -4q-61 -94 -150 -148t-190 -54q-176 0 -295 131q-117 132 -117 321q0 192 117 324q121 133 295 133q73 0 134.5 -27t102 -69t69 -96t41 -106.5t11.5 -100.5zM254 494h434
q-6 273 -72 342q-47 47 -122 47q-96 0 -152 -47q-82 -70 -88 -342z" />
    <glyph glyph-name="afii10072" unicode="&#x436;" horiz-adv-x="1398" 
d="M537 459h81v405h-124v8h411v-8h-125v-405h82q104 0 119 129q0 18 2 41q3 18 6 43.5t6 46.5q16 83 56 123q36 39 104 39q54 0 88.5 -35.5t34.5 -87.5q0 -39 -25 -66.5t-61 -27.5q-33 0 -56.5 20.5t-23.5 52.5q0 19 18.5 53.5t18.5 45.5q0 20 -29 20q-40 0 -61.5 -18.5
t-36.5 -57.5q-13 -38 -16 -57q-1 -4 -3 -16.5t-4 -28t-4 -31.5q-6 -52 -6 -59q-9 -110 -90 -131q168 0 243 -59t75 -183v-92q0 -48 21 -78.5t56 -30.5q30 0 54.5 19t31.5 41l9 -2q-11 -33 -53.5 -56.5t-98.5 -23.5q-186 0 -186 235v70q0 81 -38.5 117.5t-123.5 36.5h-109
v-443h125v-8h-411v8h124v443h-108q-85 0 -123.5 -36.5t-38.5 -117.5v-70q0 -235 -186 -235q-56 0 -98.5 23.5t-53.5 56.5l8 2q7 -22 31.5 -41t54.5 -19q35 0 56.5 30.5t21.5 78.5v92q0 124 75 183t243 59q-81 21 -90 131q0 2 -1 8.5t-2.5 21.5t-3.5 29q-3 25 -10 76
q-25 133 -114 133q-29 0 -29 -20q0 -11 18.5 -45.5t18.5 -53.5q0 -32 -23.5 -52.5t-56.5 -20.5q-36 0 -61 27.5t-25 66.5q0 52 34.5 87.5t90.5 35.5q66 0 102 -39q44 -44 53 -123q4 -18 9 -43q8 -72 8 -88q15 -129 119 -129z" />
    <glyph glyph-name="afii10073" unicode="&#x437;" horiz-adv-x="743" 
d="M672 244q0 -99 -94 -181q-90 -81 -250 -81q-99 0 -185 57q-86 59 -86 143q0 42 27 71.5t70 29.5q31 0 52 -22t21 -52q0 -47 -41 -74q-39 -23 -39 -55q0 -30 56 -60q59 -30 125 -30q99 0 144.5 59.5t45.5 192.5q0 132 -31 174q-30 43 -125 43h-104v8h117q69 0 97 43.5
t28 155.5q0 217 -148 217q-92 0 -152.5 -57t-60.5 -167h-8v234h8q0 -29 43 -29q34 0 93 13.5t77 13.5q136 0 210.5 -60t74.5 -161q0 -78 -60.5 -136.5t-152.5 -68.5q112 -4 180 -65.5t68 -155.5z" />
    <glyph glyph-name="afii10074" unicode="&#x438;" horiz-adv-x="1040" 
d="M1010 8v-8h-412v8h125v768l-406 -680v-88h125v-8h-411v8h125v856h-125v8h411v-8h-125v-751l406 682v69h-125v8h412v-8h-125v-856h125z" />
    <glyph glyph-name="afii10075" unicode="&#x439;" horiz-adv-x="1040" 
d="M1010 8v-8h-412v8h125v768l-406 -680v-88h125v-8h-411v8h125v856h-125v8h411v-8h-125v-751l406 682v69h-125v8h412v-8h-125v-856h125zM768 1229q3 -69 -47 -116t-123.5 -58t-146.5 0t-123 58t-47 116q0 40 23.5 65t66.5 25q32 0 52.5 -18.5t20.5 -49.5q0 -16 -6.5 -30
t-15 -21.5t-20.5 -19t-19 -19.5q-12 -18 -12 -37q0 -31 47.5 -50t105.5 -19t106 19.5t48 49.5q0 19 -12 37q-7 9 -25 24t-27.5 30t-9.5 36q0 31 21 49.5t53 18.5q43 0 66.5 -25t23.5 -65z" />
    <glyph glyph-name="afii10076" unicode="&#x43a;" horiz-adv-x="956" 
d="M938 74l8 -2q-11 -33 -53.5 -56.5t-97.5 -23.5q-187 0 -187 235v70q0 81 -38.5 117.5t-123.5 36.5h-129v-443h125v-8h-411v8h125v856h-125v8h411v-8h-125v-405h103q104 0 119 129q0 18 2 41q2 18 5.5 43.5t6.5 46.5q17 85 55 123q36 39 105 39q54 0 88.5 -35.5
t34.5 -87.5q0 -39 -25 -66.5t-61 -27.5q-33 0 -56.5 20.5t-23.5 52.5q0 19 18.5 53.5t18.5 45.5q0 20 -29 20q-40 0 -61.5 -18.5t-36.5 -57.5q-15 -43 -17 -57q-7 -51 -10 -76q-6 -53 -6 -59q-9 -110 -90 -131q167 0 242 -59t75 -183v-92q0 -48 21.5 -78.5t56.5 -30.5
q30 0 54.5 19t31.5 41z" />
    <glyph glyph-name="afii10077" unicode="&#x43b;" horiz-adv-x="915" 
d="M885 8v-8h-432v8h145v856h-250q-24 0 -32.5 -17t-8.5 -65v-278q0 -88 -2 -117q0 -19 -4 -113q-2 -58 -14 -114q-10 -49 -26 -87.5t-46 -66t-68 -22.5q-63 0 -105 42t-42 105q0 43 24 69.5t66 26.5q78 0 78 -84q0 -22 -29 -59q-26 -33 -26 -47q0 -18 14 -30.5t33 -12.5
q139 0 139 469v319q0 51 -7.5 66.5t-35.5 15.5h-94v8h723v-8h-125v-856h125z" />
    <glyph glyph-name="afii10078" unicode="&#x43c;" horiz-adv-x="1183" 
d="M154 102v762h-125v8h295l270 -684l266 684h293v-8h-125v-856h125v-8h-412v8h125v856l-344 -880h-10l-350 876v-758q0 -94 33 -94h90v-8h-256v8h96q29 0 29 94z" />
    <glyph glyph-name="afii10079" unicode="&#x43d;" horiz-adv-x="1040" 
d="M1010 8v-8h-412v8h125v443h-406v-443h125v-8h-411v8h125v856h-125v8h411v-8h-125v-405h406v405h-125v8h412v-8h-125v-856h125z" />
    <glyph glyph-name="afii10080" unicode="&#x43e;" horiz-adv-x="1017" 
d="M508 -18q-174 0 -301 133q-125 131 -125 321q0 191 125 322q127 133 301 133q176 0 303 -133q125 -131 125 -322q0 -190 -125 -321q-127 -133 -303 -133zM772 436q0 309 -104 400q-56 47 -160 47q-105 0 -158 -47q-104 -88 -104 -400q0 -175 23.5 -264t80.5 -137
q51 -45 158 -45q109 0 160 45q55 45 79.5 136t24.5 265z" />
    <glyph glyph-name="afii10081" unicode="&#x43f;" horiz-adv-x="1040" 
d="M1010 8v-8h-412v8h125v856h-406v-856h125v-8h-411v8h125v856h-125v8h979v-8h-125v-856h125z" />
    <glyph glyph-name="afii10082" unicode="&#x440;" horiz-adv-x="1024" 
d="M942 430q0 -172 -127 -311q-125 -137 -299 -137q-115 0 -190 81v-688h127v-8h-414v8h125v1489h-125v8h287v-63q76 82 190 82q174 0 299 -143q127 -142 127 -318zM778 430q0 320 -104 408q-51 45 -158 45q-120 0 -190 -88v-693q20 -54 72 -83t118 -29q107 0 158 45
q104 88 104 395z" />
    <glyph glyph-name="afii10083" unicode="&#x441;" horiz-adv-x="880" 
d="M838 178l6 -4q-125 -192 -336 -192q-174 0 -301 133q-125 131 -125 321q0 191 125 322q127 133 301 133q126 0 196 -52.5t70 -133.5q0 -87 -82 -87q-36 0 -58 20.5t-22 51.5q0 14 11.5 45t11.5 53q0 54 -27 74.5t-100 20.5q-105 0 -158 -47q-56 -48 -80 -137t-24 -263
q0 -175 23.5 -264t80.5 -137q51 -45 158 -45q210 0 330 188z" />
    <glyph glyph-name="afii10084" unicode="&#x442;" horiz-adv-x="819" 
d="M795 872v-294h-9q0 121 -74.5 203.5t-199.5 82.5h-23v-856h146v-8h-453v8h146v856h-21q-125 0 -199.5 -82.5t-74.5 -203.5h-8v294h770z" />
    <glyph glyph-name="afii10085" unicode="&#x443;" horiz-adv-x="849" 
d="M907 872v-8h-94q-19 0 -31 -16t-32 -70l-465 -1263q-36 -95 -70.5 -130.5t-95.5 -35.5q-65 0 -105.5 29.5t-40.5 82.5q0 47 28 79t67 32q37 0 59.5 -20.5t22.5 -51.5q0 -16 -19.5 -50.5t-19.5 -47.5q0 -29 32 -29q41 0 71.5 29t59.5 109l172 469l-403 884h-109v8h400v-8
h-121l303 -694l225 608q30 86 -8 86h-88v8h262z" />
    <glyph glyph-name="afii10086" unicode="&#x444;" horiz-adv-x="1329" 
d="M883 -18q-83 0 -138 49v-656h127v-8h-413v8h125v656q-55 -49 -138 -49q-174 0 -268 129q-96 131 -96 325q0 195 96 326q94 129 268 129q79 0 138 -53v659h-125v8h286v-667q59 53 138 53q173 0 268 -129q96 -131 96 -326q0 -194 -96 -325q-95 -129 -268 -129zM1075 410v26
q0 102 -2 131q0 46 -6 107q-3 61 -16 90q-47 129 -168 119q-77 0 -138 -58v-780q58 -55 138 -55q120 0 155 94q12 32 16 44.5t9 38.5t8 60q4 74 4 86v97zM584 45v780q-61 58 -138 58q-120 10 -167 -119q-13 -29 -19 -90q-3 -57 -6 -107v-131v-26v-113q6 -136 25 -186
q52 -131 167 -121q80 0 138 55z" />
    <glyph glyph-name="afii10087" unicode="&#x445;" horiz-adv-x="923" 
d="M965 8v-8h-416v8h119l-244 373l-223 -303q-42 -66 -21 -70h131v-8h-305v8h100q32 0 84 70l228 309l-312 477h-114v8h416v-8h-119l221 -340l199 269q45 63 30 69q-4 2 -14 2h-129v8h305v-8h-102q-24 0 -80 -71l-203 -275l338 -510h111z" />
    <glyph glyph-name="afii10088" unicode="&#x446;" horiz-adv-x="1050" 
d="M1010 8v-301h-9q0 133 -57.5 213t-179.5 80h-733v8h125v856h-125v8h411v-8h-125v-856h406v856h-125v8h412v-8h-125v-856h125z" />
    <glyph glyph-name="afii10089" unicode="&#x447;" horiz-adv-x="925" 
d="M895 8v-8h-432v8h145v414q-118 -37 -190 -37q-157 0 -225 45q-68 47 -68 199v235h-115v8h381v-8h-104v-325q0 -82 34 -114t97 -32q83 0 190 37v434h-104v8h391v-8h-125v-856h125z" />
    <glyph glyph-name="afii10090" unicode="&#x448;" horiz-adv-x="1484" 
d="M1454 8v-8h-1423v8h125v856h-125v8h391v-8h-105v-856h345v856h-115v8h391v-8h-115v-856h344v856h-104v8h391v-8h-125v-856h125z" />
    <glyph glyph-name="afii10091" unicode="&#x449;" horiz-adv-x="1495" 
d="M1454 8v-301h-8q0 132 -58 212.5t-180 80.5h-1177v8h125v856h-125v8h391v-8h-105v-856h345v856h-115v8h391v-8h-115v-856h344v856h-104v8h391v-8h-125v-856h125z" />
    <glyph glyph-name="afii10092" unicode="&#x44a;" horiz-adv-x="1003" 
d="M469 864v-379h156q148 0 244 -66.5t96 -170.5q0 -117 -85 -182.5t-247 -65.5h-451v8h125v856h-20q-122 0 -188 -80.5t-66 -205.5h-8v294h569v-8h-125zM633 477h-164v-469h172q88 0 126 57.5t38 190.5q0 126 -39 173.5t-133 47.5z" />
    <glyph glyph-name="afii10093" unicode="&#x44b;" horiz-adv-x="1245" 
d="M1214 8v-8h-411v8h125v856h-125v8h411v-8h-124v-856h124zM793 248q0 -117 -85 -182.5t-247 -65.5h-430v8h125v856h-125v8h432v-8h-146v-379h136q148 0 244 -66.5t96 -170.5zM633 256q0 126 -39 173.5t-133 47.5h-144v-469h152q88 0 126 57.5t38 190.5z" />
    <glyph glyph-name="afii10094" unicode="&#x44c;" horiz-adv-x="851" 
d="M813 248q0 -117 -85 -182.5t-247 -65.5h-450v8h125v856h-125v8h432v-8h-146v-379h156q148 0 244 -66.5t96 -170.5zM653 256q0 126 -39 173.5t-133 47.5h-164v-469h172q88 0 126 57.5t38 190.5z" />
    <glyph glyph-name="afii10095" unicode="&#x44d;" horiz-adv-x="856" 
d="M774 436q0 -187 -125 -321q-127 -133 -293 -133q-132 0 -213.5 53t-81.5 133q0 86 82 86q36 0 58 -20.5t22 -51.5q0 -14 -11 -45t-11 -53q0 -94 155 -94q256 0 256 461h-299v8h299q0 424 -221 424q-32 2 -66 -4.5t-69 -24t-62.5 -44t-45.5 -67.5t-19 -92h-8v240h8
q0 -31 43 -31q51 0 117 14q80 17 102 17q164 0 273 -133q110 -131 110 -322z" />
    <glyph glyph-name="afii10096" unicode="&#x44e;" horiz-adv-x="1386" 
d="M1305 436q0 -185 -125 -319q-123 -135 -283 -135q-157 0 -283 135q-122 134 -122 319v15h-175v-443h125v-8h-411v8h125v856h-125v8h411v-8h-125v-405h175q9 179 129 305q124 127 276 127q162 0 285 -135q123 -132 123 -320zM1141 436q0 176 -39 297q-48 150 -205 150
q-151 0 -203 -150q-39 -121 -39 -297q0 -140 21 -243q21 -97 72.5 -147t148.5 -56q124 0 182 96q26 39 41 104q21 103 21 246z" />
    <glyph glyph-name="afii10097" unicode="&#x44f;" horiz-adv-x="909" 
d="M879 8v-8h-412v8h125v416h-150q-80 0 -107.5 -32t-27.5 -120v-43q0 -239 -182 -239q-98 0 -143 45l6 6q30 -35 75 -35q32 0 54 32t22 79v73q0 120 57.5 180t202.5 60q-115 0 -187.5 61t-72.5 154q0 99 83 163t218 64h439v-8h-125v-856h125zM446 432h146v432h-133
q-86 0 -124 -53t-38 -170q0 -120 31 -164.5t118 -44.5z" />
    <glyph glyph-name="afii10071" unicode="&#x451;" horiz-adv-x="921" 
d="M852 492v-7h-598q-2 -10 -2 -51q0 -184 18 -270q21 -87 72 -129q51 -45 152 -45t188 53t145 145l7 -4q-61 -94 -150 -148t-190 -54q-176 0 -295 131q-117 132 -117 321q0 192 117 324q121 133 295 133q73 0 134.5 -27t102 -69t69 -96t41 -106.5t11.5 -100.5zM254 494h434
q-6 273 -72 342q-47 47 -122 47q-96 0 -152 -47q-82 -70 -88 -342zM760 1204q0 -38 -27 -66t-65 -28q-37 0 -63.5 28t-26.5 66q0 41 26.5 68.5t63.5 27.5q39 0 65.5 -27.5t26.5 -68.5zM408 1204q0 -38 -27 -66t-64 -28q-38 0 -65 28t-27 66q0 41 26.5 68.5t65.5 27.5
q37 0 64 -27.5t27 -68.5z" />
    <glyph glyph-name="afii10099" unicode="&#x452;" horiz-adv-x="1038" 
d="M893 549v-580q0 -326 -74 -465q-73 -137 -231 -137q-75 0 -126.5 37.5t-51.5 97.5q0 39 26 67t62 28q40 0 63 -19.5t23 -50.5q0 -15 -12.5 -45.5t-12.5 -48.5q0 -54 72 -54q102 0 102 242v1053q0 94 -53.5 151.5t-120.5 57.5q-178 0 -233 -172v-703h127v-8h-412v8h125
v1116h-180v9h180v364h-125v8h285v-372h370v-9h-370v-393q25 79 87.5 119.5t143.5 40.5q159 0 247.5 -89.5t88.5 -252.5z" />
    <glyph glyph-name="afii10100" unicode="&#x453;" horiz-adv-x="753" 
d="M733 872v-307h-8q0 114 -84 207q-83 92 -211 92h-113v-856h166v-8h-452v8h125v856h-125v8h702zM311 1057l-4 4l244 260q51 55 63 62q11 6 33 10q29 0 48.5 -20.5t19.5 -47.5q0 -33 -51 -59z" />
    <glyph glyph-name="afii10101" unicode="&#x454;" horiz-adv-x="856" 
d="M838 178l6 -4q-125 -192 -336 -192q-174 0 -301 133q-125 131 -125 321q0 191 125 322q127 133 301 133q126 0 196 -52.5t70 -133.5q0 -87 -82 -87q-36 0 -58 20.5t-22 51.5q0 14 11.5 45t11.5 53q0 54 -27 74.5t-100 20.5q-105 0 -158 -47q-55 -45 -80 -130.5
t-26 -246.5h299v-8h-299v-15q0 -178 24 -266q27 -91 84 -136.5t156 -45.5q210 0 330 190z" />
    <glyph glyph-name="afii10102" unicode="&#x455;" horiz-adv-x="757" 
d="M690 268q0 -132 -74.5 -209t-212.5 -77q-64 0 -129 26q-72 29 -96 29q-23 0 -45 -13t-27 -26h-8v287h8q-3 -117 82 -205q90 -90 215 -90q90 0 142.5 47t52.5 133q0 80 -57 134t-176 93q-128 44 -183 94t-55 138q0 115 69 188.5t169 73.5q18 0 75.5 -10.5t91.5 -10.5
q43 0 43 29h9v-231h-9q0 96 -62 155.5t-148 59.5q-75 0 -118.5 -37.5t-43.5 -104.5q0 -151 229 -221q129 -39 193.5 -100t64.5 -152z" />
    <glyph glyph-name="afii10103" unicode="&#x456;" horiz-adv-x="509" 
d="M473 8v-8h-414v8h125v856h-125v8h287v-864h127zM264 1133q-41 0 -70.5 31t-29.5 75t29.5 75.5t70.5 31.5q43 0 73 -31.5t30 -75.5t-30 -75t-73 -31z" />
    <glyph glyph-name="afii10104" unicode="&#x457;" horiz-adv-x="509" 
d="M530 1204q0 -38 -27 -66t-65 -28q-37 0 -63.5 28t-26.5 66q0 41 26.5 68.5t63.5 27.5q39 0 65.5 -27.5t26.5 -68.5zM178 1204q0 -38 -26.5 -66t-63.5 -28q-38 0 -65 28t-27 66q0 41 26.5 68.5t65.5 27.5q37 0 63.5 -27.5t26.5 -68.5zM473 8v-8h-414v8h125v856h-125v8h287
v-864h127z" />
    <glyph glyph-name="afii10105" unicode="&#x458;" horiz-adv-x="542" 
d="M346 872v-919q0 -328 -76 -465q-73 -137 -231 -137q-75 0 -126.5 37.5t-51.5 97.5q0 38 25.5 66t62.5 28q41 0 63.5 -19t22.5 -50q0 -15 -12.5 -46t-12.5 -49q0 -53 72 -53q102 0 102 242v1259h-125v8h287zM264 1133q-41 0 -70.5 31t-29.5 75t29.5 75.5t70.5 31.5
q43 0 73 -31.5t30 -75.5t-30 -75t-73 -31z" />
    <glyph glyph-name="afii10106" unicode="&#x459;" horiz-adv-x="1294" 
d="M1096 256q0 126 -39 173.5t-133 47.5h-164v-469h172q88 0 126 57.5t38 190.5zM924 0h-471v8h145v856h-250q-24 0 -32.5 -17t-8.5 -65v-278q0 -88 -2 -117q0 -19 -4 -113q-2 -58 -14 -114q-10 -49 -26 -87.5t-46 -66t-68 -22.5q-63 0 -105 42t-42 105q0 43 24 69.5
t66 26.5q78 0 78 -84q0 -22 -29 -59q-26 -33 -26 -47q0 -18 14 -30.5t33 -12.5q139 0 139 469v319q0 51 -7.5 66.5t-35.5 15.5h-94v8h743v-8h-145v-379h155q148 0 244 -66.5t96 -170.5q0 -117 -84.5 -182.5t-246.5 -65.5z" />
    <glyph glyph-name="afii10107" unicode="&#x45a;" horiz-adv-x="1419" 
d="M885 864v-379h155q148 0 244 -66.5t96 -170.5q0 -117 -84.5 -182.5t-246.5 -65.5h-451v8h125v469h-406v-469h125v-8h-411v8h125v856h-125v8h411v-8h-125v-379h406v379h-125v8h412v-8h-125zM1221 256q0 126 -39 173.5t-133 47.5h-164v-469h172q88 0 126 57.5t38 190.5z
" />
    <glyph glyph-name="afii10108" unicode="&#x45b;" horiz-adv-x="1038" 
d="M1022 8v-8h-414v8h125v666q0 94 -53.5 151.5t-120.5 57.5q-178 0 -233 -172v-703h127v-8h-412v8h125v1116h-180v9h180v364h-125v8h285v-372h370v-9h-370v-393q25 79 87.5 119.5t143.5 40.5q159 0 247.5 -89.5t88.5 -252.5v-541h129z" />
    <glyph glyph-name="afii10109" unicode="&#x45c;" horiz-adv-x="956" 
d="M938 74l8 -2q-11 -33 -53.5 -56.5t-97.5 -23.5q-187 0 -187 235v70q0 81 -38.5 117.5t-123.5 36.5h-129v-443h125v-8h-411v8h125v856h-125v8h411v-8h-125v-405h103q104 0 119 129q0 18 2 41q2 18 5.5 43.5t6.5 46.5q17 85 55 123q36 39 105 39q54 0 88.5 -35.5
t34.5 -87.5q0 -39 -25 -66.5t-61 -27.5q-33 0 -56.5 20.5t-23.5 52.5q0 19 18.5 53.5t18.5 45.5q0 20 -29 20q-40 0 -61.5 -18.5t-36.5 -57.5q-15 -43 -17 -57q-7 -51 -10 -76q-6 -53 -6 -59q-9 -110 -90 -131q167 0 242 -59t75 -183v-92q0 -48 21.5 -78.5t56.5 -30.5
q30 0 54.5 19t31.5 41zM416 1057l-4 4l243 260q45 48 57.5 58t39.5 14q26 0 46.5 -21t20.5 -47q0 -33 -51 -59z" />
    <glyph glyph-name="afii10110" unicode="&#x45e;" horiz-adv-x="849" 
d="M907 872v-8h-94q-19 0 -31 -16t-32 -70l-465 -1263q-36 -95 -70.5 -130.5t-95.5 -35.5q-65 0 -105.5 29.5t-40.5 82.5q0 47 28 79t67 32q37 0 59.5 -20.5t22.5 -51.5q0 -16 -19.5 -50.5t-19.5 -47.5q0 -29 32 -29q41 0 71.5 29t59.5 109l172 469l-403 884h-109v8h400v-8
h-121l303 -694l225 608q30 86 -8 86h-88v8h262zM739 1229q3 -69 -47 -116t-123 -58t-146.5 0t-123.5 58t-47 116q0 40 23.5 65t66.5 25q32 0 53 -18.5t21 -49.5q0 -21 -9.5 -36t-27.5 -30t-25 -24q-12 -18 -12 -37q0 -30 48 -49.5t106 -19.5t105.5 19t47.5 50q0 19 -12 37
q-7 9 -25 24t-27.5 30t-9.5 36q0 31 21 49.5t53 18.5q43 0 66.5 -25t23.5 -65z" />
    <glyph glyph-name="afii10193" unicode="&#x45f;" horiz-adv-x="1040" 
d="M516 -12v12h-485v8h125v856h-125v8h411v-8h-125v-856h406v856h-125v8h412v-8h-125v-856h125v-8h-486v-10q0 -50 41 -103q43 -52 43 -94q3 -56 -42.5 -79.5t-91 0t-42.5 79.5q0 37 41 90q43 52 43 105z" />
    <glyph glyph-name="afii10050" unicode="&#x490;" horiz-adv-x="1081" 
d="M1042 1765v-407h-571v-1350h225v-8h-620v8h184v1350h-184v8h563q197 0 296 106.5t99 292.5h8z" />
    <glyph glyph-name="afii10098" unicode="&#x491;" horiz-adv-x="753" 
d="M733 1171v-307h-416v-856h166v-8h-452v8h125v856h-125v8h399q127 0 211 93t84 206h8z" />
    <glyph glyph-name="uni0492" unicode="&#x492;" horiz-adv-x="1081" 
d="M471 739h309v-8h-309v-723h225v-8h-620v8h184v723h-262v8h262v619h-184v8h966v-405h-8q0 186 -98.5 291.5t-296.5 105.5h-168v-619z" />
    <glyph glyph-name="uni0493" unicode="&#x493;" horiz-adv-x="753" 
d="M-23 459v8h179v397h-125v8h702v-307h-8q0 114 -84 207q-83 92 -211 92h-113v-397h207v-8h-207v-451h166v-8h-452v8h125v451h-179z" />
    <glyph glyph-name="uni0496" unicode="&#x496;" horiz-adv-x="1986" 
d="M1495 287v180q0 118 -83 179t-228 61h-86v-699h168v-8h-545v8h168v699h-86q-145 0 -227 -60.5t-82 -179.5v-105q0 -374 -285 -374q-117 0 -184 67l6 6q51 -57 123 -57q53 0 85.5 51.5t32.5 128.5v154q0 377 465 377q-69 20 -112 94q-14 20 -27 113q0 3 -8 96
q-6 69 -12 112q-5 46 -25.5 98t-50.5 81q-49 49 -103 49q-37 0 -37 -29q0 -7 25 -49t25 -68q0 -42 -30.5 -73t-76.5 -31q-49 0 -79.5 33.5t-30.5 87.5q0 70 45 109.5t110 39.5q98 0 158 -63q29 -29 51 -82.5t29 -97.5q6 -35 12 -117q7 -90 8 -96q12 -83 25 -109
q52 -98 160 -98h96v643h-168v8h545v-8h-168v-643h96q108 0 160 98q11 23 24 109q1 6 8 96q5 73 13 117q7 44 29 97.5t51 82.5q60 63 157 63q65 0 110.5 -39.5t45.5 -109.5q0 -54 -30.5 -87.5t-80.5 -33.5q-46 0 -76 31t-30 73q0 28 24 68q25 42 25 49q0 29 -37 29
q-53 0 -102 -49q-30 -28 -50.5 -80t-27.5 -99q-1 -13 -4.5 -50t-5.5 -62q-8 -93 -8 -96q-13 -93 -27 -113q-42 -74 -113 -94q465 0 465 -377v-154q0 -111 8 -143.5t37 -32.5h207v-393h-8q0 141 -68 262q-68 117 -180 117q-215 0 -215 293z" />
    <glyph glyph-name="uni0497" unicode="&#x497;" horiz-adv-x="1398" 
d="M1051 207v90q0 81 -38.5 117.5t-123.5 36.5h-109v-443h125v-8h-411v8h124v443h-108q-85 0 -123.5 -36.5t-38.5 -117.5v-70q0 -235 -186 -235q-56 0 -98.5 23.5t-53.5 56.5l8 2q7 -22 31.5 -41t54.5 -19q35 0 56.5 30.5t21.5 78.5v92q0 124 75 183t243 59q-81 21 -90 131
q0 2 -1 8.5t-2.5 21.5t-3.5 29q-3 25 -10 76q-25 133 -114 133q-29 0 -29 -20q0 -11 18.5 -45.5t18.5 -53.5q0 -32 -23.5 -52.5t-56.5 -20.5q-36 0 -61 27.5t-25 66.5q0 52 34.5 87.5t88.5 35.5q68 0 104 -39q44 -44 53 -123q4 -18 9 -43q8 -72 8 -88q15 -129 119 -129h81
v405h-124v8h411v-8h-125v-405h82q104 0 119 129q0 18 2 41q3 18 6 43.5t6 46.5q16 83 56 123q36 39 106 39q53 0 87 -35.5t34 -87.5q0 -39 -25 -66.5t-61 -27.5q-33 0 -56.5 20.5t-23.5 52.5q0 19 18.5 53.5t18.5 45.5q0 20 -29 20q-40 0 -61.5 -18.5t-36.5 -57.5
q-13 -38 -16 -57q-1 -4 -3 -16.5t-4 -28t-4 -31.5q-6 -52 -6 -59q-9 -110 -90 -131q168 0 243 -59t75 -183v-92q0 -69 7 -92t27 -23h125v-301h-6q0 274 -172 295q-147 18 -147 205z" />
    <glyph glyph-name="uni0498" unicode="&#x498;" horiz-adv-x="1130" 
d="M1047 387q0 -144 -123 -276q-62 -65 -171.5 -104.5t-244.5 -39.5q-197 0 -301 88q-105 89 -105 189q0 59 36.5 101t94.5 42q45 0 76 -27.5t31 -70.5q0 -32 -12.5 -53.5t-30 -31.5t-34.5 -18t-29.5 -20t-12.5 -31t25 -55q30 -40 101.5 -72.5t160.5 -32.5q165 0 247.5 95
t82.5 301q0 216 -47 284q-46 70 -193 70h-176v8h194q113 0 156 66.5t43 242.5q0 182 -60 265.5t-200 83.5q-141 0 -244 -86q-102 -83 -102 -230h-8v318h8q9 -45 80 -45q25 0 114 24q89 27 154 27q201 0 319.5 -94t118.5 -254q0 -122 -112 -222t-254 -100q200 0 307 -98
q111 -99 111 -244zM774 -330l4 -4q-94 -76 -186 -76q-74 0 -119 35t-45 101q0 148 268 274h17q-162 -113 -162 -248q0 -53 28.5 -92t84.5 -39q40 0 110 49z" />
    <glyph glyph-name="uni0499" unicode="&#x499;" horiz-adv-x="743" 
d="M672 244q0 -99 -94 -181q-90 -81 -250 -81q-99 0 -185 57q-86 59 -86 143q0 42 27 71.5t70 29.5q31 0 52 -22t21 -52q0 -47 -41 -74q-39 -23 -39 -55q0 -30 56 -60q59 -30 125 -30q99 0 144.5 59.5t45.5 192.5q0 132 -31 174q-30 43 -125 43h-104v8h117q69 0 97 43.5
t28 155.5q0 217 -148 217q-92 0 -152.5 -57t-60.5 -167h-8v234h8q0 -29 43 -29q34 0 93 13.5t77 13.5q136 0 210.5 -60t74.5 -161q0 -78 -60.5 -136.5t-152.5 -68.5q112 -4 180 -65.5t68 -155.5zM508 -330l4 -4q-94 -76 -186 -76q-74 0 -119 35t-45 101q0 148 268 274h16
q-161 -112 -161 -248q0 -53 28 -92t84 -39q41 0 111 49z" />
    <glyph glyph-name="uni049A" unicode="&#x49a;" horiz-adv-x="1378" 
d="M885 287v180q0 118 -83.5 179t-228.5 61h-102v-699h166v-8h-561v8h184v1350h-184v8h561v-8h-166v-643h115q105 0 157 98q16 29 25 109q1 6 8 96q6 82 12 117q7 44 29 97.5t51 82.5q63 63 160 63q65 0 110.5 -40t45.5 -109q0 -53 -31.5 -87t-79.5 -34t-78 30.5t-30 73.5
q0 28 24 68q27 40 27 49q0 29 -37 29q-56 0 -105 -49q-28 -28 -49 -81t-28 -98q-1 -11 -5 -48.5t-6 -65.5q-7 -89 -8 -94q-13 -95 -26 -113q-37 -70 -113 -94q465 0 465 -377v-154q0 -111 8 -143.5t37 -32.5h207v-393h-8q0 141 -68 262q-67 117 -180 117q-215 0 -215 293z
" />
    <glyph glyph-name="uni049B" unicode="&#x49b;" horiz-adv-x="956" 
d="M756 2q-148 18 -148 205v90q0 81 -38.5 117.5t-123.5 36.5h-129v-443h125v-8h-411v8h125v856h-125v8h411v-8h-125v-405h103q104 0 119 129q0 18 2 41q2 18 5.5 43.5t6.5 46.5q17 85 55 123q36 39 105 39q54 0 88.5 -35.5t34.5 -87.5q0 -39 -25 -66.5t-61 -27.5
q-33 0 -56.5 20.5t-23.5 52.5q0 19 18.5 53.5t18.5 45.5q0 20 -29 20q-40 0 -61.5 -18.5t-36.5 -57.5q-15 -43 -17 -57q-7 -51 -10 -76q-6 -53 -6 -59q-9 -110 -90 -131q167 0 242 -59t75 -183v-92q0 -68 7.5 -91.5t27.5 -23.5h125v-301h-8q0 274 -170 295z" />
    <glyph glyph-name="uni04A0" unicode="&#x4a0;" horiz-adv-x="1531" 
d="M49 979v387h742v-8h-166v-643h114q106 0 158 98q16 29 25 109q1 6 8 96q6 82 12 117q7 44 29 97.5t51 82.5q63 63 160 63q65 0 110 -40t45 -109q0 -54 -31 -87.5t-79 -33.5t-78.5 30.5t-30.5 73.5q0 26 25 68q26 39 26 49q0 29 -36 29q-56 0 -105 -49
q-28 -28 -49.5 -81.5t-28.5 -97.5q-1 -12 -4.5 -49t-5.5 -65q-7 -89 -8 -94q-13 -93 -27 -113q-38 -71 -112 -94q464 0 464 -377v-154q0 -76 34 -128t87 -52q64 0 121 57l6 -6q-67 -67 -184 -67q-283 0 -283 374v105q0 118 -83 179t-228 61h-102v-699h166v-8h-562v8h185
v1350h-11q-50 0 -96 -10.5t-92.5 -37.5t-80.5 -68.5t-55.5 -109t-21.5 -153.5h-8z" />
    <glyph glyph-name="uni04A1" unicode="&#x4a1;" horiz-adv-x="1107" 
d="M307 8v856h-20q-122 0 -188 -80.5t-66 -205.5h-8v294h569v-8h-125v-405h102q104 0 119 129q0 18 2 41q8 59 13 90q17 85 55 123q36 39 104 39q54 0 88.5 -35.5t34.5 -87.5q0 -39 -25 -66.5t-61 -27.5q-33 0 -56.5 20.5t-23.5 52.5q0 19 18.5 53.5t18.5 45.5q0 20 -29 20
q-40 0 -61.5 -18.5t-36.5 -57.5q-13 -38 -16 -57q-7 -51 -10 -76q-2 -14 -3.5 -29t-2.5 -21.5t-1 -8.5q-9 -110 -90 -131q168 0 243 -59t75 -183v-92q0 -48 21.5 -78.5t56.5 -30.5q30 0 54.5 19t31.5 41l8 -2q-11 -33 -53.5 -56.5t-98.5 -23.5q-186 0 -186 235v70
q0 81 -38.5 117.5t-123.5 36.5h-129v-443h125v-8h-412v8h125z" />
    <glyph glyph-name="uni04A2" unicode="&#x4a2;" horiz-adv-x="1533" 
d="M1065 0h-168v8h164v699h-592v-699h168v-8h-561v8h184v1350h-184v8h561v-8h-168v-643h592v643h-164v8h561v-8h-186v-1350h207v-393h-9q0 180 -100.5 282.5t-304.5 102.5z" />
    <glyph glyph-name="uni04A3" unicode="&#x4a3;" horiz-adv-x="1040" 
d="M764 0h-166v8h125v443h-406v-443h125v-8h-411v8h125v856h-125v8h411v-8h-125v-405h406v405h-125v8h412v-8h-125v-856h125v-301h-9q0 133 -57.5 213t-179.5 80z" />
    <glyph glyph-name="uni04A4" unicode="&#x4a4;" horiz-adv-x="1882" 
d="M1458 8v-8h-561v8h164v699h-592v-699h168v-8h-561v8h184v1350h-184v8h561v-8h-168v-643h592v643h-164v8h946v-405h-8q0 186 -98.5 291.5t-296.5 105.5h-168v-1350h186z" />
    <glyph glyph-name="uni04A5" unicode="&#x4a5;" horiz-adv-x="1320" 
d="M1010 8v-8h-412v8h125v443h-406v-443h125v-8h-411v8h125v856h-125v8h411v-8h-125v-405h406v405h-125v8h702v-307h-8q0 114 -84 207q-83 92 -211 92h-112v-856h125z" />
    <glyph glyph-name="uni04AA" unicode="&#x4aa;" horiz-adv-x="1269" 
d="M1176 410v-439h-9q-5 22 -29.5 40t-58.5 18q-37 0 -155 -31t-179 -31q-275 0 -462 211t-187 504q0 291 183 504q186 213 456 213q50 0 152 -27q102 -24 145 -24q39 0 66 13.5t32 31.5h9v-381h-9q0 145 -124 260q-122 119 -271 119q-167 0 -250 -74q-168 -143 -168 -635
q0 -490 168 -633q83 -74 260 -74q182 0 302 123t120 312h9zM979 -330l4 -4q-94 -76 -186 -76q-74 0 -119 35t-45 101q0 148 268 274h17q-162 -113 -162 -248q0 -53 28 -92t84 -39q41 0 111 49z" />
    <glyph glyph-name="uni04AB" unicode="&#x4ab;" horiz-adv-x="880" 
d="M838 178l6 -4q-125 -192 -336 -192q-174 0 -301 133q-125 131 -125 321q0 191 125 322q127 133 301 133q126 0 196 -52.5t70 -133.5q0 -87 -82 -87q-36 0 -58 20.5t-22 51.5q0 14 11.5 45t11.5 53q0 54 -27 74.5t-100 20.5q-105 0 -158 -47q-56 -48 -80 -137t-24 -263
q0 -175 23.5 -264t80.5 -137q51 -45 158 -45q210 0 330 188zM686 -330l4 -4q-94 -76 -186 -76q-74 0 -119 35t-45 101q0 148 268 274h17q-162 -113 -162 -248q0 -53 28 -92t84 -39q41 0 111 49z" />
    <glyph glyph-name="uni04AE" unicode="&#x4ae;" horiz-adv-x="1236" 
d="M1286 1366v-8h-135q-20 0 -35 -15.5t-39 -64.5l-309 -649v-621h186v-8h-583v8h188v588l-401 762h-191v8h647v-8h-219l369 -715l301 635q16 35 20 54t1 22.5t-11 3.5h-180v8h391z" />
    <glyph glyph-name="uni04AF" unicode="&#x4af;" horiz-adv-x="849" 
d="M907 872v-8h-92q-35 0 -65 -86l-215 -758v-645h127v-8h-414v8h125v635l-330 854h-109v8h400v-8h-121l313 -831l215 745q27 86 0 86h-96v8h262z" />
    <glyph glyph-name="uni04B0" unicode="&#x4b0;" horiz-adv-x="1236" 
d="M213 410v8h346v178l-401 762h-191v8h647v-8h-219l369 -715l301 635q16 35 20 54t1 22.5t-11 3.5h-180v8h391v-8h-135q-20 0 -35 -15.5t-39 -64.5l-309 -649v-211h326v-8h-326v-402h186v-8h-583v8h188v402h-346z" />
    <glyph glyph-name="uni04B1" unicode="&#x4b1;" horiz-adv-x="849" 
d="M131 -250v8h242v252l-330 854h-109v8h400v-8h-121l313 -831l215 745q27 86 0 86h-96v8h262v-8h-92q-35 0 -65 -86l-215 -758v-262h225v-8h-225v-375h127v-8h-414v8h125v375h-242z" />
    <glyph glyph-name="uni04BA" unicode="&#x4ba;" horiz-adv-x="1411" 
d="M76 1358v8h620v-8h-223v-608q187 45 248 45q481 0 481 -326v-461h168v-8h-545v8h170v443q0 195 -65 266q-63 69 -209 69q-53 0 -135 -16q-69 -14 -113 -37v-725h166v-8h-563v8h184v1350h-184z" />
    <glyph glyph-name="uni04BB" unicode="&#x4bb;" horiz-adv-x="1038" 
d="M1022 8v-8h-414v8h125v666q0 94 -53.5 151.5t-120.5 57.5q-178 0 -233 -172v-703h127v-8h-412v8h125v1489h-125v8h285v-774q25 79 87.5 119.5t143.5 40.5q159 0 247.5 -89.5t88.5 -252.5v-541h129z" />
    <glyph glyph-name="uni04C0" unicode="&#x4c0;" horiz-adv-x="731" 
d="M659 8v-8h-583v8h186v1350h-186v8h583v-8h-188v-1350h188z" />
    <glyph glyph-name="uni04CF" unicode="&#x4cf;" horiz-adv-x="466" 
d="M451 1497h-127v-1489h127v-8h-414v8h127v1489h-127v8h414v-8z" />
    <glyph glyph-name="uni04D0" unicode="&#x4d0;" horiz-adv-x="1294" 
d="M1350 8v-8h-605v8h199l-172 465h-473l-143 -385q-12 -35 -14.5 -52t2.5 -22.5t20 -5.5h153v-8h-364v8h137q30 0 57 80l480 1305h10l534 -1385h179zM301 481h467l-231 639zM373 1819h10q30 -203 248 -203t248 203h10q-6 -141 -62 -230q-52 -88 -196 -88t-199 88
q-53 89 -59 230z" />
    <glyph glyph-name="uni04D1" unicode="&#x4d1;" horiz-adv-x="894" 
d="M870 63l7 -2q-8 -32 -46 -54.5t-90 -22.5q-125 0 -149 131q-18 -61 -85.5 -96t-156.5 -35q-122 0 -196 52.5t-74 160.5q0 73 27 126.5t73 79.5q80 45 160 54q196 18 229 41q9 10 13 20v156q0 106 -44.5 157.5t-115.5 51.5q-88 0 -88 -92q0 -12 7 -39t7 -35
q0 -31 -22.5 -50.5t-63.5 -19.5q-39 0 -59.5 24.5t-20.5 63.5q0 61 67.5 108.5t172.5 47.5q321 0 321 -371v-440q0 -68 54 -68q24 0 44.5 15.5t28.5 35.5zM582 141v351q-13 -13 -52.5 -21t-90 -13t-60.5 -7q-141 -27 -141 -254q0 -199 149 -199q76 0 135.5 43t59.5 100z
M188 1366h11q30 -203 247 -203q218 0 248 203h11q-6 -140 -62 -229q-52 -88 -197 -88q-143 0 -198 88q-54 91 -60 229z" />
    <glyph glyph-name="uni04D2" unicode="&#x4d2;" horiz-adv-x="1294" 
d="M1350 8v-8h-605v8h199l-172 465h-473l-143 -385q-12 -35 -14.5 -52t2.5 -22.5t20 -5.5h153v-8h-364v8h137q30 0 57 80l480 1305h10l534 -1385h179zM301 481h467l-231 639zM444 1536q-41 0 -70.5 31t-29.5 75t29.5 75.5t70.5 31.5q43 0 73 -31.5t30 -75.5t-30 -75t-73 -31
zM819 1536q-41 0 -70.5 31t-29.5 75t29.5 75.5t70.5 31.5q43 0 73 -31.5t30 -75.5t-30 -75t-73 -31z" />
    <glyph glyph-name="uni04D3" unicode="&#x4d3;" horiz-adv-x="894" 
d="M870 63l7 -2q-8 -32 -46 -54.5t-90 -22.5q-125 0 -149 131q-18 -61 -85.5 -96t-156.5 -35q-122 0 -196 52.5t-74 160.5q0 73 27 126.5t73 79.5q80 45 160 54q196 18 229 41q9 10 13 20v156q0 106 -44.5 157.5t-115.5 51.5q-88 0 -88 -92q0 -12 7 -39t7 -35
q0 -31 -22.5 -50.5t-63.5 -19.5q-39 0 -59.5 24.5t-20.5 63.5q0 61 67.5 108.5t172.5 47.5q321 0 321 -371v-440q0 -68 54 -68q24 0 44.5 15.5t28.5 35.5zM582 141v351q-13 -13 -52.5 -21t-90 -13t-60.5 -7q-141 -27 -141 -254q0 -199 149 -199q76 0 135.5 43t59.5 100z
M711 1204q0 -38 -27.5 -66t-65.5 -28q-37 0 -63.5 28t-26.5 66q0 41 26.5 68.5t63.5 27.5q39 0 66 -27.5t27 -68.5zM358 1204q0 -38 -26.5 -66t-63.5 -28q-38 0 -65 28t-27 66q0 41 26.5 68.5t65.5 27.5q37 0 63.5 -27.5t26.5 -68.5z" />
    <glyph glyph-name="uni04D4" unicode="&#x4d4;" horiz-adv-x="1773" 
d="M379 571h428v777zM1731 387v-387h-1100v8h176v555h-432l-252 -459q-12 -23 -17.5 -35t-11 -29t-1 -24.5t17.5 -7.5h143v-8h-352v8h127q26 0 82 96l690 1254h-174v8h999v-348h-8q0 154 -86 247t-252 93h-262v-653h106q116 0 181 59t65 162h6v-449h-8q0 101 -65 161
t-181 60h-104v-690h268q219 0 327.5 102.5t108.5 276.5h9z" />
    <glyph glyph-name="uni04D5" unicode="&#x4d5;" horiz-adv-x="1413" 
d="M666 207q-51 -150 -146 -191q-45 -19 -80.5 -25.5t-89.5 -6.5q-122 0 -196 52.5t-74 160.5q0 73 27 126.5t73 79.5q80 45 160 54q196 18 229 41q9 10 13 20v156q0 106 -44.5 157.5t-115.5 51.5q-88 0 -88 -92q0 -12 7 -39t7 -35q0 -31 -22.5 -50.5t-63.5 -19.5
q-39 0 -59.5 24.5t-20.5 63.5q0 61 67.5 108.5t172.5 47.5q179 0 256 -133q121 133 307 133q73 1 134.5 -26t102 -70t69 -97.5t41 -108.5t11.5 -104h-598q-2 -10 -2 -51q0 -180 19 -270q21 -87 72 -129q51 -45 151 -45q101 0 188.5 53t145.5 145l6 -4q-61 -94 -150 -148
t-190 -54q-113 0 -195.5 58t-123.5 167zM745 494h435q-6 273 -72 342q-47 47 -123 47q-95 0 -151 -47q-83 -71 -89 -342zM582 190v302q-13 -13 -52.5 -21t-90 -13t-60.5 -7q-141 -27 -141 -254q0 -199 149 -199q97 0 146 42.5t49 149.5z" />
    <glyph glyph-name="uni04D6" unicode="&#x4d6;" 
d="M1186 387v-387h-1110v8h186v1350h-186v8h1005v-348h-8q0 154 -86 247t-252 93h-262v-653h102q118 0 183 59t65 162h8v-449h-8q0 101 -65 161t-180 60h-105v-690h266q219 0 329 103t110 276h8zM356 1819h11q30 -203 247 -203q218 0 248 203h10q-6 -142 -61 -230
q-52 -88 -197 -88q-143 0 -198 88q-54 91 -60 230z" />
    <glyph glyph-name="uni04D7" unicode="&#x4d7;" horiz-adv-x="921" 
d="M852 492v-7h-598q-2 -10 -2 -51q0 -184 18 -270q21 -87 72 -129q51 -45 152 -45t188 53t145 145l7 -4q-61 -94 -150 -148t-190 -54q-176 0 -295 131q-117 132 -117 321q0 192 117 324q121 133 295 133q73 0 134.5 -27t102 -69t69 -96t41 -106.5t11.5 -100.5zM254 494h434
q-6 273 -72 342q-47 47 -122 47q-96 0 -152 -47q-82 -70 -88 -342zM231 1366h11q30 -203 247 -203q218 0 248 203h11q-6 -140 -62 -229q-52 -88 -197 -88q-143 0 -198 88q-54 91 -60 229z" />
    <glyph glyph-name="uni04D8" unicode="&#x4d8;" horiz-adv-x="1392" 
d="M90 682v33h985q-6 465 -168 602q-83 74 -250 74q-147 0 -266 -119q-121 -118 -121 -260h-8v381h8q5 -18 33.5 -31.5t65.5 -13.5q47 0 141 24q99 27 147 27q272 0 455 -213q184 -211 184 -504q0 -298 -172 -506q-173 -209 -444 -209q-258 0 -426 207q-164 206 -164 508z
M1075 707h-772v-25q0 -294 33 -426q35 -138 115 -207q83 -74 229 -74q177 0 260 74q80 68 107 213q28 152 28 420v25z" />
    <glyph glyph-name="afii10846" unicode="&#x4d9;" horiz-adv-x="929" 
d="M78 381v78h600q-2 172 -21.5 255t-68.5 124q-51 45 -152 45q-100 0 -187.5 -54t-146.5 -145l-6 4q61 94 150 148.5t190 54.5q175 0 293 -133q119 -131 119 -320q0 -192 -119 -323q-118 -133 -293 -133q-73 0 -134.5 27t-102 69t-69 96t-41 106.5t-11.5 100.5zM588 37
q44 35 65 119q23 90 23 127q2 31 2 155v13h-436v-72q0 -268 71 -342q47 -47 123 -47q96 0 152 47z" />
    <glyph glyph-name="uni04DA" unicode="&#x4da;" horiz-adv-x="1392" 
d="M90 682v33h985q-6 465 -168 602q-83 74 -250 74q-147 0 -266 -119q-121 -118 -121 -260h-8v381h8q5 -18 33.5 -31.5t65.5 -13.5q47 0 141 24q99 27 147 27q272 0 455 -213q184 -211 184 -504q0 -298 -172 -506q-173 -209 -444 -209q-258 0 -426 207q-164 206 -164 508z
M1075 707h-772v-25q0 -294 33 -426q35 -138 115 -207q83 -74 229 -74q177 0 260 74q80 68 107 213q28 152 28 420v25zM467 1536q-41 0 -70.5 31t-29.5 75t29.5 75.5t70.5 31.5q43 0 72.5 -31.5t29.5 -75.5t-29.5 -75t-72.5 -31zM842 1536q-41 0 -71 31t-30 75t30 75.5
t71 31.5q43 0 72.5 -31.5t29.5 -75.5t-29.5 -75t-72.5 -31z" />
    <glyph glyph-name="uni04DB" unicode="&#x4db;" horiz-adv-x="929" 
d="M78 381v78h600q-2 172 -21.5 255t-68.5 124q-51 45 -152 45q-100 0 -187.5 -54t-146.5 -145l-6 4q61 94 150 148.5t190 54.5q175 0 293 -133q119 -131 119 -320q0 -192 -119 -323q-118 -133 -293 -133q-73 0 -134.5 27t-102 69t-69 96t-41 106.5t-11.5 100.5zM588 37
q44 35 65 119q23 90 23 127q2 31 2 155v13h-436v-72q0 -268 71 -342q47 -47 123 -47q96 0 152 47zM707 1204q0 -38 -27.5 -66t-65.5 -28q-37 0 -63.5 28t-26.5 66q0 41 26.5 68.5t63.5 27.5q39 0 66 -27.5t27 -68.5zM354 1204q0 -38 -26.5 -66t-63.5 -28q-38 0 -65 28
t-27 66q0 41 26.5 68.5t65.5 27.5q37 0 63.5 -27.5t26.5 -68.5z" />
    <glyph glyph-name="uni04DC" unicode="&#x4dc;" horiz-adv-x="1986" 
d="M1266 0h-545v8h168v699h-86q-145 0 -227 -60.5t-82 -179.5v-105q0 -374 -285 -374q-117 0 -184 67l6 6q51 -57 123 -57q53 0 85.5 51.5t32.5 128.5v154q0 377 465 377q-69 20 -112 94q-14 20 -27 113q0 3 -8 96q-6 69 -12 112q-5 46 -25.5 98t-50.5 81q-49 49 -103 49
q-37 0 -37 -29q0 -7 25 -49t25 -68q0 -42 -30.5 -73t-76.5 -31q-49 0 -79.5 33.5t-30.5 87.5q0 70 45 109.5t110 39.5q98 0 158 -63q29 -29 51 -82.5t29 -97.5q6 -35 12 -117q7 -90 8 -96q12 -83 25 -109q52 -98 160 -98h96v643h-168v8h545v-8h-168v-643h96q108 0 160 98
q11 23 24 109q1 6 8 96q5 73 13 117q7 44 29 97.5t51 82.5q60 63 157 63q65 0 110.5 -39.5t45.5 -109.5q0 -54 -30.5 -87.5t-80.5 -33.5q-46 0 -76 31t-30 73q0 28 24 68q25 42 25 49q0 29 -37 29q-53 0 -102 -49q-30 -28 -50.5 -80t-27.5 -99q-1 -13 -4.5 -50t-5.5 -62
q-8 -93 -8 -96q-13 -93 -27 -113q-42 -74 -113 -94q465 0 465 -377v-154q0 -77 33 -128.5t86 -51.5q72 0 123 57l6 -6q-67 -67 -184 -67q-285 0 -285 374v105q0 119 -82 179.5t-227 60.5h-86v-699h168v-8zM805 1536q-41 0 -70.5 31t-29.5 75t29.5 75.5t70.5 31.5
q43 0 72.5 -31.5t29.5 -75.5t-29.5 -75t-72.5 -31zM1180 1536q-41 0 -71 31t-30 75t30 75.5t71 31.5q43 0 72.5 -31.5t29.5 -75.5t-29.5 -75t-72.5 -31z" />
    <glyph glyph-name="uni04DD" unicode="&#x4dd;" horiz-adv-x="1398" 
d="M537 459h81v405h-124v8h411v-8h-125v-405h82q104 0 119 129q0 18 2 41q3 18 6 43.5t6 46.5q16 83 56 123q36 39 104 39q54 0 88.5 -35.5t34.5 -87.5q0 -39 -25 -66.5t-61 -27.5q-33 0 -56.5 20.5t-23.5 52.5q0 19 18.5 53.5t18.5 45.5q0 20 -29 20q-40 0 -61.5 -18.5
t-36.5 -57.5q-13 -38 -16 -57q-1 -4 -3 -16.5t-4 -28t-4 -31.5q-6 -52 -6 -59q-9 -110 -90 -131q168 0 243 -59t75 -183v-92q0 -48 21 -78.5t56 -30.5q30 0 54.5 19t31.5 41l9 -2q-11 -33 -53.5 -56.5t-98.5 -23.5q-186 0 -186 235v70q0 81 -38.5 117.5t-123.5 36.5h-109
v-443h125v-8h-411v8h124v443h-108q-85 0 -123.5 -36.5t-38.5 -117.5v-70q0 -235 -186 -235q-56 0 -98.5 23.5t-53.5 56.5l8 2q7 -22 31.5 -41t54.5 -19q35 0 56.5 30.5t21.5 78.5v92q0 124 75 183t243 59q-81 21 -90 131q0 2 -1 8.5t-2.5 21.5t-3.5 29q-3 25 -10 76
q-25 133 -114 133q-29 0 -29 -20q0 -11 18.5 -45.5t18.5 -53.5q0 -32 -23.5 -52.5t-56.5 -20.5q-36 0 -61 27.5t-25 66.5q0 52 34.5 87.5t90.5 35.5q66 0 102 -39q44 -44 53 -123q4 -18 9 -43q8 -72 8 -88q15 -129 119 -129zM963 1204q0 -38 -27.5 -66t-65.5 -28
q-37 0 -63.5 28t-26.5 66q0 41 26.5 68.5t63.5 27.5q39 0 66 -27.5t27 -68.5zM610 1204q0 -38 -26.5 -66t-63.5 -28q-38 0 -65 28t-27 66q0 41 26.5 68.5t65.5 27.5q37 0 63.5 -27.5t26.5 -68.5z" />
    <glyph glyph-name="uni04E4" unicode="&#x4e4;" horiz-adv-x="1533" 
d="M1460 8v-8h-563v8h166v1211l-592 -1067v-144h168v-8h-563v8h186v1350h-186v8h563v-8h-168v-1190l592 1065v125h-166v8h563v-8h-186v-1350h186zM580 1536q-41 0 -71 31t-30 75t30 75.5t71 31.5q43 0 72.5 -31.5t29.5 -75.5t-29.5 -75t-72.5 -31zM954 1536q-41 0 -70.5 31
t-29.5 75t29.5 75.5t70.5 31.5q43 0 73 -31.5t30 -75.5t-30 -75t-73 -31z" />
    <glyph glyph-name="uni04E5" unicode="&#x4e5;" horiz-adv-x="1040" 
d="M1010 8v-8h-412v8h125v768l-406 -680v-88h125v-8h-411v8h125v856h-125v8h411v-8h-125v-751l406 682v69h-125v8h412v-8h-125v-856h125zM782 1204q0 -38 -27 -66t-65 -28q-37 0 -63.5 28t-26.5 66q0 41 26.5 68.5t63.5 27.5q39 0 65.5 -27.5t26.5 -68.5zM430 1204
q0 -38 -26.5 -66t-63.5 -28q-38 0 -65 28t-27 66q0 41 26.5 68.5t65.5 27.5q37 0 63.5 -27.5t26.5 -68.5z" />
    <glyph glyph-name="uni04E6" unicode="&#x4e6;" horiz-adv-x="1474" 
d="M735 -33q-264 0 -452 209q-187 208 -187 506q0 291 183 504q186 213 456 213q268 0 455 -211q188 -209 188 -506t-188 -506t-455 -209zM1155 682q0 488 -166 635q-86 74 -254 74q-164 0 -250 -74q-166 -144 -166 -635q0 -284 39 -420q41 -139 127 -213q83 -74 250 -74
q171 0 254 74q84 72 125 213q41 143 41 420zM549 1536q-41 0 -70.5 31t-29.5 75t29.5 75.5t70.5 31.5q43 0 72.5 -31.5t29.5 -75.5t-29.5 -75t-72.5 -31zM924 1536q-41 0 -71 31t-30 75t30 75.5t71 31.5q43 0 72.5 -31.5t29.5 -75.5t-29.5 -75t-72.5 -31z" />
    <glyph glyph-name="uni04E7" unicode="&#x4e7;" horiz-adv-x="1017" 
d="M508 -18q-174 0 -301 133q-125 131 -125 321q0 191 125 322q127 133 301 133q176 0 303 -133q125 -131 125 -322q0 -190 -125 -321q-127 -133 -303 -133zM772 436q0 309 -104 400q-56 47 -160 47q-105 0 -158 -47q-104 -88 -104 -400q0 -175 23.5 -264t80.5 -137
q51 -45 158 -45q109 0 160 45q55 45 79.5 136t24.5 265zM772 1204q0 -38 -27 -66t-65 -28q-37 0 -63.5 28t-26.5 66q0 41 26.5 68.5t63.5 27.5q39 0 65.5 -27.5t26.5 -68.5zM420 1204q0 -38 -26.5 -66t-63.5 -28q-38 0 -65 28t-27 66q0 41 26.5 68.5t65.5 27.5
q37 0 63.5 -27.5t26.5 -68.5z" />
    <glyph glyph-name="uni04E8" unicode="&#x4e8;" horiz-adv-x="1474" 
d="M735 -33q-264 0 -452 209q-187 208 -187 506q0 291 183 504q186 213 456 213q268 0 455 -211q188 -209 188 -506t-188 -506t-455 -209zM1155 682v25h-836v-25q0 -284 39 -420q41 -139 127 -213q83 -74 250 -74q171 0 254 74q84 72 125 213q41 143 41 420zM485 1317
q-160 -139 -166 -602h836q-6 463 -166 602q-86 74 -254 74q-164 0 -250 -74z" />
    <glyph glyph-name="uni04E9" unicode="&#x4e9;" horiz-adv-x="1017" 
d="M508 -18q-174 0 -301 133q-125 131 -125 321q0 191 125 322q127 133 301 133q176 0 303 -133q125 -131 125 -322q0 -190 -125 -321q-127 -133 -303 -133zM772 436v15h-526v-15q0 -175 23.5 -264t80.5 -137q51 -45 158 -45q109 0 160 45q55 45 79.5 136t24.5 265zM350 836
q-101 -85 -104 -377h526q-3 289 -104 377q-56 47 -160 47q-105 0 -158 -47z" />
    <glyph glyph-name="uni04EA" unicode="&#x4ea;" horiz-adv-x="1474" 
d="M735 -33q-264 0 -452 209q-187 208 -187 506q0 291 183 504q186 213 456 213q268 0 455 -211q188 -209 188 -506t-188 -506t-455 -209zM1155 682v25h-836v-25q0 -284 39 -420q41 -139 127 -213q83 -74 250 -74q171 0 254 74q84 72 125 213q41 143 41 420zM485 1317
q-160 -139 -166 -602h836q-6 463 -166 602q-86 74 -254 74q-164 0 -250 -74zM549 1536q-41 0 -70.5 31t-29.5 75t29.5 75.5t70.5 31.5q43 0 72.5 -31.5t29.5 -75.5t-29.5 -75t-72.5 -31zM924 1536q-41 0 -71 31t-30 75t30 75.5t71 31.5q43 0 72.5 -31.5t29.5 -75.5
t-29.5 -75t-72.5 -31z" />
    <glyph glyph-name="uni04EB" unicode="&#x4eb;" horiz-adv-x="1017" 
d="M508 -18q-174 0 -301 133q-125 131 -125 321q0 191 125 322q127 133 301 133q176 0 303 -133q125 -131 125 -322q0 -190 -125 -321q-127 -133 -303 -133zM772 436v15h-526v-15q0 -175 23.5 -264t80.5 -137q51 -45 158 -45q109 0 160 45q55 45 79.5 136t24.5 265zM350 836
q-101 -85 -104 -377h526q-3 289 -104 377q-56 47 -160 47q-105 0 -158 -47zM772 1204q0 -38 -27 -66t-65 -28q-37 0 -63.5 28t-26.5 66q0 41 26.5 68.5t63.5 27.5q39 0 65.5 -27.5t26.5 -68.5zM420 1204q0 -38 -26.5 -66t-63.5 -28q-38 0 -65 28t-27 66q0 41 26.5 68.5
t65.5 27.5q37 0 63.5 -27.5t26.5 -68.5z" />
    <glyph glyph-name="uni04EC" unicode="&#x4ec;" horiz-adv-x="1269" 
d="M1174 682q0 -291 -189 -504q-187 -211 -461 -211q-197 0 -291 88q-96 90 -96 191q0 59 36.5 101t94.5 42q45 0 76 -27.5t31 -70.5q0 -32 -12.5 -53.5t-30 -31.5t-34.5 -18t-29.5 -20t-12.5 -31q0 -15 13 -39t40.5 -53t84 -49.5t130.5 -20.5q177 0 260 74q168 143 168 633
v25h-520v8h520q-6 465 -168 602q-83 74 -229 74q-143 0 -254 -117t-111 -262h-8v381h6q5 -18 33.5 -31.5t65.5 -13.5q45 0 131 24q89 27 137 27q269 0 444 -211t175 -506zM385 1536q-41 0 -70.5 31t-29.5 75t29.5 75.5t70.5 31.5q43 0 72.5 -31.5t29.5 -75.5t-29.5 -75
t-72.5 -31zM760 1536q-41 0 -71 31t-30 75t30 75.5t71 31.5q43 0 72.5 -31.5t29.5 -75.5t-29.5 -75t-72.5 -31z" />
    <glyph glyph-name="uni04ED" unicode="&#x4ed;" horiz-adv-x="856" 
d="M774 436q0 -187 -125 -321q-127 -133 -293 -133q-132 0 -213.5 53t-81.5 133q0 86 82 86q36 0 58 -20.5t22 -51.5q0 -14 -11 -45t-11 -53q0 -94 155 -94q256 0 256 461h-299v8h299q0 424 -221 424q-32 2 -66 -4.5t-69 -24t-62.5 -44t-45.5 -67.5t-19 -92h-8v240h8
q0 -31 43 -31q51 0 117 14q80 17 102 17q164 0 273 -133q110 -131 110 -322zM670 1204q0 -38 -27 -66t-65 -28q-37 0 -64 28t-27 66q0 41 27 68.5t64 27.5q39 0 65.5 -27.5t26.5 -68.5zM317 1204q0 -38 -26.5 -66t-63.5 -28q-38 0 -65 28t-27 66q0 41 26.5 68.5t65.5 27.5
q37 0 63.5 -27.5t26.5 -68.5z" />
    <glyph glyph-name="uni04F0" unicode="&#x4f0;" horiz-adv-x="1310" 
d="M1350 1366v-8h-138q-23 0 -35 -14t-36 -66l-512 -1149q-31 -67 -89.5 -111.5t-127.5 -44.5q-111 0 -183 66q-69 63 -69 147q0 60 32.5 93.5t88.5 33.5q44 0 70 -26t26 -68q0 -14 -2 -18q-6 -45 -41 -72q-33 -26 -33 -66q0 -83 111 -83q63 0 120.5 42.5t88.5 110.5l63 141
l-518 1084h-184v8h634v-8h-219l383 -864l350 784q35 80 -12 80h-157v8h389zM569 1536q-41 0 -70.5 31t-29.5 75t29.5 75.5t70.5 31.5q43 0 73 -31.5t30 -75.5t-30 -75t-73 -31zM944 1536q-41 0 -70.5 31t-29.5 75t29.5 75.5t70.5 31.5q43 0 73 -31.5t30 -75.5t-30 -75
t-73 -31z" />
    <glyph glyph-name="uni04F1" unicode="&#x4f1;" horiz-adv-x="849" 
d="M907 872v-8h-94q-19 0 -31 -16t-32 -70l-465 -1263q-36 -95 -70.5 -130.5t-95.5 -35.5q-65 0 -105.5 29.5t-40.5 82.5q0 47 28 79t67 32q37 0 59.5 -20.5t22.5 -51.5q0 -16 -19.5 -50.5t-19.5 -47.5q0 -29 32 -29q41 0 71.5 29t59.5 109l172 469l-403 884h-109v8h400v-8
h-121l303 -694l225 608q30 86 -8 86h-88v8h262zM729 1204q0 -38 -27 -66t-65 -28q-37 0 -63.5 28t-26.5 66q0 41 26.5 68.5t63.5 27.5q39 0 65.5 -27.5t26.5 -68.5zM377 1204q0 -38 -26.5 -66t-63.5 -28q-38 0 -65 28t-27 66q0 41 26.5 68.5t65.5 27.5q37 0 63.5 -27.5
t26.5 -68.5z" />
    <glyph glyph-name="uni04F2" unicode="&#x4f2;" horiz-adv-x="1310" 
d="M1350 1366v-8h-138q-23 0 -35 -14t-36 -66l-512 -1149q-31 -67 -89.5 -111.5t-127.5 -44.5q-111 0 -183 66q-69 63 -69 147q0 60 32.5 93.5t88.5 33.5q44 0 70 -26t26 -68q0 -14 -2 -18q-6 -45 -41 -72q-33 -26 -33 -66q0 -83 111 -83q63 0 120.5 42.5t88.5 110.5l63 141
l-518 1084h-184v8h634v-8h-219l383 -864l350 784q35 80 -12 80h-157v8h389zM598 1509l-4 4l244 261q45 48 57 57.5t39 13.5q29 0 48 -19t19 -48q0 -34 -51 -60zM844 1509l-4 4l243 261q44 47 57 57t40 14q29 0 48 -19t19 -48q0 -34 -51 -60z" />
    <glyph glyph-name="uni04F3" unicode="&#x4f3;" horiz-adv-x="849" 
d="M907 872v-8h-94q-19 0 -31 -16t-32 -70l-465 -1263q-36 -95 -70.5 -130.5t-95.5 -35.5q-65 0 -105.5 29.5t-40.5 82.5q0 47 28 79t67 32q37 0 59.5 -20.5t22.5 -51.5q0 -16 -19.5 -50.5t-19.5 -47.5q0 -29 32 -29q41 0 71.5 29t59.5 109l172 469l-403 884h-109v8h400v-8
h-121l303 -694l225 608q30 86 -8 86h-88v8h262zM250 1057l-4 4l243 260q45 48 57.5 58t39.5 14q28 0 47.5 -20.5t19.5 -47.5q0 -33 -51 -59zM496 1057l-4 4l243 260q51 55 63 62q11 6 33 10q29 0 48.5 -20.5t19.5 -47.5q0 -33 -51 -59z" />
    </font>
</defs>
</svg>
