<?xml version="1.0"?>
<svg xmlns="http://www.w3.org/2000/svg" viewBox="0 0 96 96" width="512" height="512"><g id="_03-rotate" data-name="03-rotate"><g id="Glyph"><path d="M76,33.139V19.878a4.022,4.022,0,0,0-.038-.539c-.008-.06-.024-.117-.034-.176-.021-.116-.043-.232-.074-.345-.01-.036-.023-.071-.035-.107L50,33.055v30.3L73.789,51.456A4,4,0,0,0,76,47.878V41.915c7.578,3.8,12,8.921,12,14.085,0,6.526-7.032,12.925-18.353,16.7l2.53,7.59C87.1,75.315,96,66.236,96,56,96,46.686,88.711,38.371,76,33.139Z"/><path d="M42.829,65.171l-5.658,5.658,4.944,4.943C23.1,74.3,8,65.844,8,56c0-5.192,4.416-10.287,12-14.081v5.959a4,4,0,0,0,2.211,3.578L46,63.35V33.055L20.181,18.711c-.012.036-.025.071-.035.107-.031.113-.053.229-.074.345-.01.059-.026.116-.034.176a4.022,4.022,0,0,0-.038.539v13.27C7.458,38.32,0,46.791,0,56,0,70.695,18.469,82.408,42.9,83.849l-5.08,5.414,5.834,5.474,11.261-12a4,4,0,0,0-.089-5.566Z"/><path d="M72.806,15.809,49.789,4.3a4,4,0,0,0-3.578,0L23.194,15.809,48,29.59Z"/></g></g></svg>
